<?xml version="1.0" encoding="UTF-8"?>
<!DOCTYPE svg PUBLIC "-//W3C//DTD SVG 1.1//EN" "http://www.w3.org/Graphics/SVG/1.1/DTD/svg11.dtd">
<!-- Creator: CorelDRAW -->
<svg xmlns="http://www.w3.org/2000/svg" xml:space="preserve" width="100.602mm" height="26.2387mm" version="1.1" style="shape-rendering:geometricPrecision; text-rendering:geometricPrecision; image-rendering:optimizeQuality; fill-rule:evenodd; clip-rule:evenodd"
viewBox="0 0 129.33 33.73"
 xmlns:xlink="http://www.w3.org/1999/xlink"
 xmlns:xodm="http://www.corel.com/coreldraw/odm/2003">
 <defs>
  <style type="text/css">
   <![CDATA[
    .fil0 {fill:#6E86F7}
    .fil2 {fill:#6E86F7;fill-rule:nonzero}
    .fil1 {fill:white;fill-rule:nonzero}
   ]]>
  </style>
 </defs>
 <g id="Слой_x0020_1">
  <metadata id="CorelCorpID_0Corel-Layer"/>
  <polygon class="fil0" points="8.48,0 129.33,0 129.33,33.73 8.48,33.73 "/>
  <polygon class="fil1" points="5.26,0 14.88,0 14.88,33.73 8.5,33.73 8.5,6.01 1.54,6.01 "/>
  <polygon class="fil1" points="28.38,14.06 31.09,14.06 31.09,14.98 30.19,14.98 30.19,18.94 29.25,18.94 29.25,14.98 28.38,14.98 "/>
  <polygon id="_1" class="fil1" points="31.72,14.06 34.39,14.06 34.39,14.97 32.65,14.97 32.65,15.85 34.39,15.85 34.39,16.75 32.65,16.75 32.65,18.03 34.39,18.03 34.39,18.94 31.72,18.94 "/>
  <polygon id="_2" class="fil1" points="35.72,14.06 36.62,14.06 37.76,17.47 38.9,14.06 39.8,14.06 40.62,18.94 39.73,18.94 39.2,15.86 38.17,18.94 37.35,18.94 36.32,15.86 35.79,18.94 34.88,18.94 "/>
  <path id="_3" class="fil1" d="M42.87 14.06l0.94 0 1.88 4.88 -0.97 0 -0.38 -1.01 -2 0 -0.39 1.01 -0.97 0 1.89 -4.88zm0.47 1.3l-0.66 1.68 1.32 0 -0.66 -1.68z"/>
  <path id="_4" class="fil1" d="M49.9 14.06l0.94 0 1.58 4.01 0.54 0 0 1.6 -0.9 0 0 -0.73 -3.37 0 0 0.73 -0.9 0 0 -1.6 0.54 0 1.57 -4.01zm0.48 1.28l-1.07 2.73 2.15 0 -1.07 -2.73z"/>
  <polygon id="_5" class="fil1" points="53.55,14.06 54.5,14.06 54.5,15.9 56.13,15.9 56.13,14.06 57.07,14.06 57.07,18.94 56.13,18.94 56.13,16.8 54.5,16.8 54.5,18.94 53.55,18.94 "/>
  <path id="_6" class="fil1" d="M61.06 14.06l0 4.88 -0.93 0 0 -1.97 -0.23 0 -0.99 1.97 -1.02 0 1.11 -2.13c-0.64,-0.18 -0.96,-0.61 -0.96,-1.28 0,-0.24 0.03,-0.45 0.1,-0.62 0.07,-0.18 0.16,-0.33 0.29,-0.45 0.12,-0.12 0.27,-0.21 0.43,-0.27 0.16,-0.06 0.29,-0.09 0.39,-0.1 0.1,-0.01 0.37,-0.02 0.81,-0.04l0.98 0zm-0.93 2.01l0 -1.1 -0.26 0c-0.23,0 -0.4,0.01 -0.5,0.04 -0.1,0.03 -0.18,0.09 -0.25,0.18 -0.06,0.09 -0.1,0.21 -0.1,0.34 0,0.2 0.06,0.34 0.19,0.42 0.13,0.08 0.33,0.12 0.62,0.12l0.29 0z"/>
  <polygon class="fil2" points="3.72,0 13.34,0 13.34,33.73 6.95,33.73 6.95,6.01 -0,6.01 "/>
 </g>
</svg>
