<?xml version="1.0" encoding="UTF-8"?>
<!DOCTYPE svg PUBLIC "-//W3C//DTD SVG 1.1//EN" "http://www.w3.org/Graphics/SVG/1.1/DTD/svg11.dtd">
<!-- Creator: CorelDRAW -->
<svg xmlns="http://www.w3.org/2000/svg" xml:space="preserve" width="102.883mm" height="26.2387mm" version="1.1" style="shape-rendering:geometricPrecision; text-rendering:geometricPrecision; image-rendering:optimizeQuality; fill-rule:evenodd; clip-rule:evenodd"
viewBox="0 0 135.34 34.52"
 xmlns:xlink="http://www.w3.org/1999/xlink"
 xmlns:xodm="http://www.corel.com/coreldraw/odm/2003">
 <defs>
  <style type="text/css">
   <![CDATA[
    .fil0 {fill:#6E86F7}
    .fil2 {fill:#6E86F7;fill-rule:nonzero}
    .fil1 {fill:white;fill-rule:nonzero}
   ]]>
  </style>
 </defs>
 <g id="Слой_x0020_1">
  <metadata id="CorelCorpID_0Corel-Layer"/>
  <polygon class="fil0" points="11.68,0 135.34,0 135.34,34.52 11.68,34.52 8.59,28.47 20.62,8.71 "/>
  <path class="fil1" d="M8.75 11.72l-6.24 0c0.17,-3.64 1.31,-6.5 3.42,-8.59 2.11,-2.09 4.82,-3.13 8.14,-3.13 2.05,0 3.85,0.43 5.42,1.3 1.56,0.86 2.81,2.1 3.75,3.73 0.94,1.63 1.41,3.28 1.41,4.96 0,2 -0.57,4.15 -1.7,6.46 -1.14,2.31 -3.23,5.03 -6.25,8.18l-3.78 3.99 12.01 0 0 5.91 -23.35 0 0 -3.06 10.42 -10.62c2.52,-2.55 4.2,-4.6 5.03,-6.14 0.84,-1.55 1.25,-2.95 1.25,-4.2 0,-1.3 -0.43,-2.37 -1.29,-3.22 -0.87,-0.84 -1.98,-1.27 -3.33,-1.27 -1.38,0 -2.52,0.52 -3.44,1.54 -0.91,1.02 -1.4,2.42 -1.46,4.18z"/>
  <polygon class="fil1" points="32.54,14.39 33.5,14.39 33.5,16.12 34.85,14.39 36,14.39 34.26,16.62 36.17,19.38 35.04,19.38 33.5,17.16 33.5,19.38 32.54,19.38 "/>
  <path id="_1" class="fil1" d="M38.38 14.39l0.96 0 1.92 5 -0.99 0 -0.39 -1.03 -2.05 0 -0.4 1.03 -0.99 0 1.94 -5zm0.48 1.33l-0.68 1.72 1.35 0 -0.67 -1.72z"/>
  <polygon id="_2" class="fil1" points="45.24,19.38 43.85,15.72 42.44,19.38 41.43,19.38 43.36,14.39 44.33,14.39 46.25,19.38 "/>
  <polygon id="_3" class="fil1" points="46.84,14.39 49.56,14.39 49.56,15.32 47.78,15.32 47.78,16.22 49.56,16.22 49.56,17.14 47.78,17.14 47.78,18.45 49.56,18.45 49.56,19.38 46.84,19.38 "/>
  <polygon id="_4" class="fil1" points="50.44,14.39 51.41,14.39 51.41,16.27 53.08,16.27 53.08,14.39 54.04,14.39 54.04,19.38 53.08,19.38 53.08,17.19 51.41,17.19 51.41,19.38 50.44,19.38 "/>
  <path id="_5" class="fil1" d="M56.81 14.39l0.96 0 1.61 4.11 0.55 0 0 1.64 -0.92 0 0 -0.74 -3.45 0 0 0.74 -0.92 0 0 -1.64 0.56 0 1.6 -4.11zm0.49 1.31l-1.1 2.79 2.2 0 -1.1 -2.79z"/>
  <path id="_6" class="fil1" d="M62.08 14.39l0.96 0 1.92 5 -0.99 0 -0.39 -1.03 -2.05 0 -0.4 1.03 -0.99 0 1.94 -5zm0.48 1.33l-0.68 1.72 1.35 0 -0.67 -1.72z"/>
  <path id="_7" class="fil1" d="M65.69 14.39l1.01 0c0.55,0 0.94,0.05 1.18,0.15 0.24,0.1 0.43,0.26 0.57,0.49 0.14,0.23 0.21,0.5 0.21,0.81 0,0.35 -0.09,0.64 -0.27,0.87 -0.18,0.23 -0.43,0.39 -0.74,0.48 -0.18,0.05 -0.52,0.08 -1.01,0.08l0 2.12 -0.95 0 0 -5zm0.95 1.96l0.31 0c0.24,0 0.41,-0.02 0.5,-0.05 0.09,-0.03 0.17,-0.09 0.22,-0.17 0.05,-0.08 0.08,-0.17 0.08,-0.29 0,-0.19 -0.08,-0.34 -0.23,-0.42 -0.11,-0.07 -0.31,-0.1 -0.61,-0.1l-0.27 0 0 1.03z"/>
  <polygon id="_8" class="fil1" points="69.59,14.39 70.56,14.39 70.56,16.27 72.23,16.27 72.23,14.39 73.19,14.39 73.19,19.38 72.23,19.38 72.23,17.19 70.56,17.19 70.56,19.38 69.59,19.38 "/>
  <path id="_9" class="fil1" d="M78.14 14.39l0.95 0 0 5 -0.95 0 0 -5zm-3.81 5l0 -5 0.95 0 0 1.89 0.21 0c0.4,0 0.73,0.05 0.99,0.14 0.26,0.09 0.49,0.27 0.68,0.52 0.19,0.26 0.29,0.57 0.29,0.93 0,0.34 -0.08,0.63 -0.25,0.87 -0.16,0.24 -0.36,0.41 -0.57,0.5 -0.22,0.1 -0.52,0.15 -0.9,0.15l-1.4 0zm0.95 -2.26l0 1.36 0.24 0c0.4,0 0.66,-0.05 0.79,-0.15 0.13,-0.1 0.2,-0.26 0.2,-0.5 0,-0.47 -0.34,-0.71 -1.03,-0.71l-0.2 0z"/>
  <polygon id="_10" class="fil1" points="80.24,14.39 82.96,14.39 82.96,15.32 81.18,15.32 81.18,16.22 82.96,16.22 82.96,17.14 81.18,17.14 81.18,18.45 82.96,18.45 82.96,19.38 80.24,19.38 "/>
  <path id="_11" class="fil1" d="M87.42 14.39l0.96 0 1.61 4.11 0.55 0 0 1.64 -0.92 0 0 -0.74 -3.45 0 0 0.74 -0.92 0 0 -1.64 0.56 0 1.6 -4.11zm0.49 1.31l-1.1 2.79 2.2 0 -1.1 -2.79z"/>
  <path id="_12" class="fil1" d="M92.69 14.39l0.96 0 1.92 5 -0.99 0 -0.39 -1.03 -2.05 0 -0.4 1.03 -0.99 0 1.94 -5zm0.48 1.33l-0.68 1.72 1.35 0 -0.67 -1.72z"/>
  <polygon id="_13" class="fil1" points="95.82,14.39 98.59,14.39 98.59,15.33 97.68,15.33 97.68,19.38 96.71,19.38 96.71,15.33 95.82,15.33 "/>
  <path id="_14" class="fil1" d="M103.04 14.39l0.95 0 0 5 -0.95 0 0 -5zm-3.81 5l0 -5 0.95 0 0 1.89 0.21 0c0.4,0 0.73,0.05 0.99,0.14 0.26,0.09 0.49,0.27 0.68,0.52 0.19,0.26 0.29,0.57 0.29,0.93 0,0.34 -0.08,0.63 -0.25,0.87 -0.16,0.24 -0.36,0.41 -0.57,0.5 -0.22,0.1 -0.52,0.15 -0.9,0.15l-1.4 0zm0.95 -2.26l0 1.36 0.24 0c0.4,0 0.66,-0.05 0.79,-0.15 0.13,-0.1 0.2,-0.26 0.2,-0.5 0,-0.47 -0.34,-0.71 -1.03,-0.71l-0.2 0z"/>
  <path class="fil2" d="M7.18 11.72l-6.24 0c0.17,-3.64 1.31,-6.5 3.42,-8.59 2.11,-2.09 4.82,-3.13 8.14,-3.13 2.05,0 3.85,0.43 5.42,1.3 1.56,0.86 2.81,2.1 3.75,3.73 0.94,1.63 1.41,3.28 1.41,4.96 0,2 -0.57,4.15 -1.7,6.46 -1.14,2.31 -3.23,5.03 -6.25,8.18l-3.78 3.99 12.01 0 0 5.91 -23.35 0 0 -3.06 10.42 -10.62c2.52,-2.55 4.2,-4.6 5.03,-6.14 0.84,-1.55 1.25,-2.95 1.25,-4.2 0,-1.3 -0.43,-2.37 -1.29,-3.22 -0.87,-0.84 -1.98,-1.27 -3.33,-1.27 -1.38,0 -2.52,0.52 -3.44,1.54 -0.91,1.02 -1.4,2.42 -1.46,4.18z"/>
 </g>
</svg>
