<?xml version="1.0" encoding="UTF-8"?>
<!DOCTYPE svg PUBLIC "-//W3C//DTD SVG 1.1//EN" "http://www.w3.org/Graphics/SVG/1.1/DTD/svg11.dtd">
<!-- Creator: CorelDRAW -->
<svg xmlns="http://www.w3.org/2000/svg" xml:space="preserve" width="102.563mm" height="26.8804mm" version="1.1" style="shape-rendering:geometricPrecision; text-rendering:geometricPrecision; image-rendering:optimizeQuality; fill-rule:evenodd; clip-rule:evenodd"
viewBox="0 0 134.48 35.25"
 xmlns:xlink="http://www.w3.org/1999/xlink"
 xmlns:xodm="http://www.corel.com/coreldraw/odm/2003">
 <defs>
  <style type="text/css">
   <![CDATA[
    .fil0 {fill:#6E86F7}
    .fil2 {fill:#6E86F7;fill-rule:nonzero}
    .fil1 {fill:white;fill-rule:nonzero}
   ]]>
  </style>
 </defs>
 <g id="Слой_x0020_1">
  <metadata id="CorelCorpID_0Corel-Layer"/>
  <polygon class="fil0" points="11.57,0 134.48,0 134.48,34.4 11.57,34.4 19.2,24.64 11.57,14.9 17.75,9.44 11.57,3.26 "/>
  <path class="fil1" d="M9.05 9.12l-6.12 0c0.32,-2.48 1.21,-4.46 2.66,-5.97 2.04,-2.1 4.6,-3.15 7.68,-3.15 2.75,0 5.06,0.87 6.92,2.63 1.86,1.75 2.79,3.83 2.79,6.24 0,1.49 -0.41,2.85 -1.22,4.09 -0.82,1.23 -2,2.23 -3.56,2.99 2.04,0.61 3.64,1.67 4.79,3.18 1.15,1.51 1.72,3.3 1.72,5.34 0,3.01 -1.11,5.55 -3.33,7.64 -2.22,2.09 -5.05,3.13 -8.48,3.13 -3.25,0 -5.91,-0.98 -7.95,-2.95 -2.05,-1.96 -3.18,-4.64 -3.37,-8.03l6.31 0c0.27,1.74 0.88,3.03 1.81,3.87 0.93,0.85 2.12,1.27 3.54,1.27 1.49,0 2.72,-0.48 3.7,-1.43 0.97,-0.96 1.46,-2.13 1.46,-3.51 0,-1.53 -0.65,-2.8 -1.97,-3.86 -1.32,-1.05 -3.22,-1.59 -5.7,-1.62l0 -5.47c1.53,-0.12 2.67,-0.37 3.42,-0.72 0.75,-0.36 1.33,-0.85 1.75,-1.48 0.41,-0.62 0.62,-1.29 0.62,-1.99 0,-0.92 -0.32,-1.68 -0.96,-2.28 -0.64,-0.6 -1.47,-0.9 -2.51,-0.9 -0.91,0 -1.74,0.28 -2.49,0.83 -0.75,0.55 -1.25,1.28 -1.53,2.16z"/>
  <polygon class="fil1" points="32,15.32 35.59,15.32 35.59,20.3 34.63,20.3 34.63,16.21 32.97,16.21 32.97,20.3 32,20.3 "/>
  <path id="_1" class="fil1" d="M36.72 15.32l1.01 0c0.54,0 0.94,0.05 1.18,0.15 0.24,0.1 0.43,0.26 0.57,0.49 0.14,0.22 0.21,0.49 0.21,0.81 0,0.35 -0.09,0.64 -0.27,0.87 -0.18,0.23 -0.43,0.39 -0.74,0.48 -0.18,0.05 -0.52,0.08 -1,0.08l0 2.11 -0.94 0 0 -4.98zm0.94 1.95l0.3 0c0.24,0 0.4,-0.02 0.5,-0.05 0.09,-0.03 0.17,-0.09 0.22,-0.17 0.05,-0.08 0.08,-0.17 0.08,-0.29 0,-0.19 -0.08,-0.33 -0.23,-0.42 -0.11,-0.07 -0.31,-0.1 -0.61,-0.1l-0.27 0 0 1.03z"/>
  <path id="_2" class="fil1" d="M42.14 15.32l0.96 0 1.92 4.98 -0.99 0 -0.39 -1.03 -2.04 0 -0.4 1.03 -0.99 0 1.93 -4.98zm0.48 1.32l-0.68 1.71 1.35 0 -0.67 -1.71z"/>
  <path id="_3" class="fil1" d="M45.74 20.3l0 -4.98 0.79 0c0.46,0 0.79,0.03 1,0.09 0.3,0.08 0.54,0.23 0.71,0.44 0.18,0.22 0.27,0.47 0.27,0.76 0,0.19 -0.04,0.36 -0.12,0.52 -0.08,0.15 -0.21,0.3 -0.39,0.44 0.3,0.14 0.52,0.32 0.66,0.53 0.14,0.21 0.21,0.46 0.21,0.76 0,0.28 -0.07,0.53 -0.22,0.76 -0.15,0.23 -0.33,0.4 -0.56,0.52 -0.23,0.11 -0.54,0.17 -0.95,0.17l-1.4 0zm0.94 -4.08l0 1.05 0.21 0c0.24,0 0.41,-0.05 0.53,-0.15 0.11,-0.1 0.17,-0.23 0.17,-0.4 0,-0.16 -0.05,-0.28 -0.16,-0.37 -0.11,-0.09 -0.27,-0.14 -0.5,-0.14l-0.25 0zm0 1.9l0 1.28 0.24 0c0.4,0 0.67,-0.05 0.81,-0.15 0.14,-0.1 0.21,-0.24 0.21,-0.43 0,-0.21 -0.08,-0.38 -0.24,-0.51 -0.16,-0.12 -0.43,-0.19 -0.81,-0.19l-0.2 0z"/>
  <path id="_4" class="fil1" d="M52.12 15.19c0.7,0 1.31,0.26 1.82,0.77 0.51,0.51 0.76,1.13 0.76,1.87 0,0.73 -0.25,1.34 -0.75,1.85 -0.5,0.5 -1.11,0.76 -1.82,0.76 -0.75,0 -1.37,-0.26 -1.86,-0.78 -0.49,-0.52 -0.74,-1.13 -0.74,-1.84 0,-0.48 0.12,-0.91 0.35,-1.31 0.23,-0.4 0.55,-0.72 0.95,-0.95 0.4,-0.23 0.84,-0.35 1.3,-0.35zm-0.01 0.93c-0.46,0 -0.85,0.16 -1.16,0.48 -0.31,0.32 -0.47,0.73 -0.47,1.22 0,0.55 0.2,0.99 0.59,1.31 0.31,0.25 0.66,0.38 1.05,0.38 0.45,0 0.83,-0.16 1.14,-0.49 0.32,-0.33 0.47,-0.73 0.47,-1.2 0,-0.47 -0.16,-0.88 -0.48,-1.2 -0.32,-0.33 -0.7,-0.49 -1.16,-0.49z"/>
  <path id="_5" class="fil1" d="M55.59 20.3l0 -4.98 0.79 0c0.46,0 0.79,0.03 1,0.09 0.3,0.08 0.54,0.23 0.71,0.44 0.18,0.22 0.27,0.47 0.27,0.76 0,0.19 -0.04,0.36 -0.12,0.52 -0.08,0.15 -0.21,0.3 -0.39,0.44 0.3,0.14 0.52,0.32 0.66,0.53 0.14,0.21 0.21,0.46 0.21,0.76 0,0.28 -0.07,0.53 -0.22,0.76 -0.15,0.23 -0.33,0.4 -0.56,0.52 -0.23,0.11 -0.54,0.17 -0.95,0.17l-1.4 0zm0.94 -4.08l0 1.05 0.21 0c0.24,0 0.41,-0.05 0.53,-0.15 0.11,-0.1 0.17,-0.23 0.17,-0.4 0,-0.16 -0.05,-0.28 -0.16,-0.37 -0.11,-0.09 -0.27,-0.14 -0.5,-0.14l-0.25 0zm0 1.9l0 1.28 0.24 0c0.4,0 0.67,-0.05 0.81,-0.15 0.14,-0.1 0.21,-0.24 0.21,-0.43 0,-0.21 -0.08,-0.38 -0.24,-0.51 -0.16,-0.12 -0.43,-0.19 -0.81,-0.19l-0.2 0z"/>
  <path id="_6" class="fil1" d="M61.97 15.19c0.7,0 1.31,0.26 1.82,0.77 0.51,0.51 0.76,1.13 0.76,1.87 0,0.73 -0.25,1.34 -0.75,1.85 -0.5,0.5 -1.11,0.76 -1.82,0.76 -0.75,0 -1.37,-0.26 -1.86,-0.78 -0.49,-0.52 -0.74,-1.13 -0.74,-1.84 0,-0.48 0.12,-0.91 0.35,-1.31 0.23,-0.4 0.55,-0.72 0.95,-0.95 0.4,-0.23 0.84,-0.35 1.3,-0.35zm-0.01 0.93c-0.46,0 -0.85,0.16 -1.16,0.48 -0.31,0.32 -0.47,0.73 -0.47,1.22 0,0.55 0.2,0.99 0.59,1.31 0.31,0.25 0.66,0.38 1.05,0.38 0.45,0 0.83,-0.16 1.14,-0.49 0.32,-0.33 0.47,-0.73 0.47,-1.2 0,-0.47 -0.16,-0.88 -0.48,-1.2 -0.32,-0.33 -0.7,-0.49 -1.16,-0.49z"/>
  <path id="_7" class="fil1" d="M69.08 15.32l0 4.98 -0.94 0 0 -3.12 -1.88 3.12 -0.82 0 0 -4.98 0.94 0 0 3.22 1.91 -3.22 0.79 0zm-3.18 -1.34l0.75 0c0.06,0.09 0.14,0.16 0.25,0.21 0.1,0.05 0.23,0.07 0.38,0.07 0.15,0 0.29,-0.03 0.42,-0.08 0.08,-0.04 0.15,-0.1 0.21,-0.2l0.75 0c-0.04,0.29 -0.18,0.52 -0.41,0.69 -0.23,0.17 -0.55,0.26 -0.97,0.26 -0.28,0 -0.51,-0.04 -0.7,-0.12 -0.19,-0.08 -0.34,-0.19 -0.46,-0.33 -0.11,-0.14 -0.19,-0.31 -0.22,-0.5z"/>
  <polygon id="_8" class="fil1" points="72.15,15.32 73.12,15.32 73.12,17.2 74.78,17.2 74.78,15.32 75.74,15.32 75.74,20.3 74.78,20.3 74.78,18.11 73.12,18.11 73.12,20.3 72.15,20.3 "/>
  <path id="_9" class="fil1" d="M78.4 15.32l0.96 0 1.92 4.98 -0.99 0 -0.39 -1.03 -2.04 0 -0.4 1.03 -0.99 0 1.93 -4.98zm0.48 1.32l-0.68 1.71 1.35 0 -0.67 -1.71z"/>
  <path id="_10" class="fil1" d="M82 20.3l0 -4.98 0.79 0c0.46,0 0.79,0.03 1,0.09 0.3,0.08 0.54,0.23 0.71,0.44 0.18,0.22 0.27,0.47 0.27,0.76 0,0.19 -0.04,0.36 -0.12,0.52 -0.08,0.15 -0.21,0.3 -0.39,0.44 0.3,0.14 0.52,0.32 0.66,0.53 0.14,0.21 0.21,0.46 0.21,0.76 0,0.28 -0.07,0.53 -0.22,0.76 -0.15,0.23 -0.33,0.4 -0.56,0.52 -0.23,0.11 -0.54,0.17 -0.95,0.17l-1.4 0zm0.94 -4.08l0 1.05 0.21 0c0.24,0 0.41,-0.05 0.53,-0.15 0.11,-0.1 0.17,-0.23 0.17,-0.4 0,-0.16 -0.05,-0.28 -0.16,-0.37 -0.11,-0.09 -0.27,-0.14 -0.5,-0.14l-0.25 0zm0 1.9l0 1.28 0.24 0c0.4,0 0.67,-0.05 0.81,-0.15 0.14,-0.1 0.21,-0.24 0.21,-0.43 0,-0.21 -0.08,-0.38 -0.24,-0.51 -0.16,-0.12 -0.43,-0.19 -0.81,-0.19l-0.2 0z"/>
  <polygon id="_11" class="fil1" points="89.66,15.32 89.66,20.3 88.72,20.3 88.72,17.18 86.84,20.3 86.03,20.3 86.03,15.32 86.97,15.32 86.97,18.54 88.88,15.32 "/>
  <polygon id="_12" class="fil1" points="90.79,15.32 93.27,15.32 93.27,16.25 91.74,16.25 91.74,20.3 90.79,20.3 "/>
  <path id="_13" class="fil1" d="M95.54 15.32l0.96 0 1.92 4.98 -0.99 0 -0.39 -1.03 -2.04 0 -0.4 1.03 -0.99 0 1.93 -4.98zm0.48 1.32l-0.68 1.71 1.35 0 -0.67 -1.71z"/>
  <polygon id="_14" class="fil1" points="98.66,15.32 101.41,15.32 101.41,16.26 100.5,16.26 100.5,20.3 99.54,20.3 99.54,16.26 98.66,16.26 "/>
  <path id="_15" class="fil1" d="M104.41 15.19c0.7,0 1.31,0.26 1.82,0.77 0.51,0.51 0.76,1.13 0.76,1.87 0,0.73 -0.25,1.34 -0.75,1.85 -0.5,0.5 -1.11,0.76 -1.82,0.76 -0.75,0 -1.37,-0.26 -1.86,-0.78 -0.49,-0.52 -0.74,-1.13 -0.74,-1.84 0,-0.48 0.12,-0.91 0.35,-1.31 0.23,-0.4 0.55,-0.72 0.95,-0.95 0.4,-0.23 0.84,-0.35 1.3,-0.35zm-0.01 0.93c-0.46,0 -0.85,0.16 -1.16,0.48 -0.31,0.32 -0.47,0.73 -0.47,1.22 0,0.55 0.2,0.99 0.59,1.31 0.31,0.25 0.66,0.38 1.05,0.38 0.45,0 0.83,-0.16 1.14,-0.49 0.32,-0.33 0.47,-0.73 0.47,-1.2 0,-0.47 -0.16,-0.88 -0.48,-1.2 -0.32,-0.33 -0.7,-0.49 -1.16,-0.49z"/>
  <path id="_16" class="fil1" d="M107.88 15.32l1.01 0c0.54,0 0.94,0.05 1.18,0.15 0.24,0.1 0.43,0.26 0.57,0.49 0.14,0.22 0.21,0.49 0.21,0.81 0,0.35 -0.09,0.64 -0.27,0.87 -0.18,0.23 -0.43,0.39 -0.74,0.48 -0.18,0.05 -0.52,0.08 -1,0.08l0 2.11 -0.94 0 0 -4.98zm0.94 1.95l0.3 0c0.24,0 0.4,-0.02 0.5,-0.05 0.09,-0.03 0.17,-0.09 0.22,-0.17 0.05,-0.08 0.08,-0.17 0.08,-0.29 0,-0.19 -0.08,-0.33 -0.23,-0.42 -0.11,-0.07 -0.31,-0.1 -0.61,-0.1l-0.27 0 0 1.03z"/>
  <path class="fil2" d="M7.48 9.12l-6.12 0c0.32,-2.48 1.21,-4.46 2.66,-5.97 2.04,-2.1 4.6,-3.15 7.68,-3.15 2.75,0 5.06,0.87 6.92,2.63 1.86,1.75 2.79,3.83 2.79,6.24 0,1.49 -0.41,2.85 -1.22,4.09 -0.82,1.23 -2,2.23 -3.56,2.99 2.04,0.61 3.64,1.67 4.79,3.18 1.15,1.51 1.72,3.3 1.72,5.34 0,3.01 -1.11,5.55 -3.33,7.64 -2.22,2.09 -5.05,3.13 -8.48,3.13 -3.25,0 -5.91,-0.98 -7.95,-2.95 -2.05,-1.96 -3.18,-4.64 -3.37,-8.03l6.31 0c0.27,1.74 0.88,3.03 1.81,3.87 0.93,0.85 2.12,1.27 3.54,1.27 1.49,0 2.72,-0.48 3.7,-1.43 0.97,-0.96 1.46,-2.13 1.46,-3.51 0,-1.53 -0.65,-2.8 -1.97,-3.86 -1.32,-1.05 -3.22,-1.59 -5.7,-1.62l0 -5.47c1.53,-0.12 2.67,-0.37 3.42,-0.72 0.75,-0.36 1.33,-0.85 1.75,-1.48 0.41,-0.62 0.62,-1.29 0.62,-1.99 0,-0.92 -0.32,-1.68 -0.96,-2.28 -0.64,-0.6 -1.47,-0.9 -2.51,-0.9 -0.91,0 -1.74,0.28 -2.49,0.83 -0.75,0.55 -1.25,1.28 -1.53,2.16z"/>
 </g>
</svg>
