<?xml version="1.0" encoding="UTF-8"?>
<!DOCTYPE svg PUBLIC "-//W3C//DTD SVG 1.1//EN" "http://www.w3.org/Graphics/SVG/1.1/DTD/svg11.dtd">
<!-- Creator: CorelDRAW -->
<svg xmlns="http://www.w3.org/2000/svg" xml:space="preserve" width="102.919mm" height="26.2387mm" version="1.1" style="shape-rendering:geometricPrecision; text-rendering:geometricPrecision; image-rendering:optimizeQuality; fill-rule:evenodd; clip-rule:evenodd"
viewBox="0 0 135.43 34.53"
 xmlns:xlink="http://www.w3.org/1999/xlink"
 xmlns:xodm="http://www.corel.com/coreldraw/odm/2003">
 <defs>
  <style type="text/css">
   <![CDATA[
    .fil0 {fill:#6E86F7}
    .fil2 {fill:#6E86F7;fill-rule:nonzero}
    .fil1 {fill:white;fill-rule:nonzero}
   ]]>
  </style>
 </defs>
 <g id="Слой_x0020_1">
  <metadata id="CorelCorpID_0Corel-Layer"/>
  <rect class="fil0" x="16.22" width="119.21" height="34.53"/>
  <path class="fil1" d="M16.1 0l6.36 0 0 21.72 3 0 0 5.91 -3 0 0 6.9 -6.29 0 0 -6.9 -14.73 0 0 -5.9 14.65 -21.74zm0.08 21.72l0 -11.31 -7.71 11.31 7.71 0z"/>
  <path class="fil2" d="M14.65 0l6.36 0 0 21.72 3 0 0 5.91 -3 0 0 6.9 -6.29 0 0 -6.9 -14.73 0 0 -5.9 14.65 -21.74zm0.08 21.72l0 -11.31 -7.71 11.31 7.71 0z"/>
  <path class="fil1" d="M37.19 7.2l-0.67 0.63c-0.45,-0.48 -0.96,-0.72 -1.53,-0.72 -0.48,0 -0.88,0.16 -1.21,0.49 -0.33,0.33 -0.49,0.73 -0.49,1.21 0,0.33 0.07,0.63 0.22,0.89 0.15,0.26 0.35,0.46 0.62,0.61 0.27,0.15 0.56,0.22 0.89,0.22 0.28,0 0.53,-0.05 0.76,-0.15 0.23,-0.1 0.48,-0.29 0.76,-0.56l0.65 0.68c-0.37,0.36 -0.72,0.61 -1.05,0.75 -0.33,0.14 -0.7,0.21 -1.13,0.21 -0.78,0 -1.41,-0.25 -1.91,-0.74 -0.5,-0.49 -0.74,-1.12 -0.74,-1.89 0,-0.5 0.11,-0.94 0.34,-1.33 0.23,-0.39 0.55,-0.7 0.97,-0.93 0.42,-0.24 0.87,-0.35 1.36,-0.35 0.41,0 0.81,0.09 1.19,0.26 0.38,0.17 0.71,0.42 0.99,0.74z"/>
  <path id="_1" class="fil1" d="M40.38 6.2c0.71,0 1.31,0.26 1.82,0.77 0.51,0.51 0.76,1.14 0.76,1.87 0,0.73 -0.25,1.35 -0.75,1.85 -0.5,0.5 -1.11,0.76 -1.83,0.76 -0.75,0 -1.37,-0.26 -1.87,-0.78 -0.5,-0.52 -0.75,-1.14 -0.75,-1.85 0,-0.48 0.12,-0.92 0.35,-1.32 0.23,-0.4 0.55,-0.72 0.95,-0.95 0.41,-0.23 0.84,-0.35 1.31,-0.35zm-0.01 0.93c-0.46,0 -0.85,0.16 -1.16,0.48 -0.31,0.32 -0.47,0.73 -0.47,1.23 0,0.55 0.2,0.99 0.59,1.31 0.31,0.25 0.66,0.38 1.06,0.38 0.45,0 0.83,-0.16 1.15,-0.49 0.32,-0.33 0.47,-0.73 0.47,-1.21 0,-0.48 -0.16,-0.88 -0.48,-1.21 -0.32,-0.33 -0.71,-0.49 -1.16,-0.49z"/>
  <polygon id="_2" class="fil1" points="43.86,11.32 43.86,6.32 44.83,6.32 44.83,10.47 46.51,10.47 46.51,6.32 47.47,6.32 47.47,10.47 48.49,10.47 48.49,12.07 47.6,12.07 47.6,11.32 "/>
  <polygon id="_3" class="fil1" points="52.73,6.32 52.73,11.32 51.79,11.32 51.79,8.19 49.9,11.32 49.09,11.32 49.09,6.32 50.03,6.32 50.03,9.55 51.95,6.32 "/>
  <path id="_4" class="fil1" d="M55.41 6.32l0.96 0 1.92 5 -0.99 0 -0.39 -1.03 -2.05 0 -0.4 1.03 -0.99 0 1.94 -5zm0.48 1.33l-0.68 1.72 1.35 0 -0.67 -1.72z"/>
  <polygon id="_5" class="fil1" points="62.27,11.32 60.88,7.66 59.47,11.32 58.46,11.32 60.39,6.32 61.36,6.32 63.28,11.32 "/>
  <path id="_6" class="fil1" d="M63.85 11.32l0 -5 0.95 0 0 1.89 0.21 0c0.4,0 0.73,0.05 0.99,0.14 0.26,0.09 0.49,0.27 0.69,0.52 0.19,0.26 0.29,0.57 0.29,0.93 0,0.34 -0.08,0.63 -0.25,0.87 -0.17,0.24 -0.36,0.41 -0.58,0.5 -0.22,0.1 -0.52,0.15 -0.9,0.15l-1.4 0zm0.95 -2.26l0 1.36 0.24 0c0.4,0 0.66,-0.05 0.8,-0.15 0.13,-0.1 0.2,-0.26 0.2,-0.5 0,-0.47 -0.35,-0.71 -1.04,-0.71l-0.2 0z"/>
  <polygon id="_7" class="fil1" points="67.81,6.32 68.77,6.32 68.77,8.21 70.45,8.21 70.45,6.32 71.41,6.32 71.41,11.32 70.45,11.32 70.45,9.13 68.77,9.13 68.77,11.32 67.81,11.32 "/>
  <path id="_8" class="fil1" d="M74.91 6.2c0.71,0 1.31,0.26 1.82,0.77 0.51,0.51 0.76,1.14 0.76,1.87 0,0.73 -0.25,1.35 -0.75,1.85 -0.5,0.5 -1.11,0.76 -1.83,0.76 -0.75,0 -1.37,-0.26 -1.87,-0.78 -0.5,-0.52 -0.75,-1.14 -0.75,-1.85 0,-0.48 0.12,-0.92 0.35,-1.32 0.23,-0.4 0.55,-0.72 0.95,-0.95 0.41,-0.23 0.84,-0.35 1.31,-0.35zm-0.01 0.93c-0.46,0 -0.85,0.16 -1.16,0.48 -0.31,0.32 -0.47,0.73 -0.47,1.23 0,0.55 0.2,0.99 0.59,1.31 0.31,0.25 0.66,0.38 1.06,0.38 0.45,0 0.83,-0.16 1.15,-0.49 0.32,-0.33 0.47,-0.73 0.47,-1.21 0,-0.48 -0.16,-0.88 -0.48,-1.21 -0.32,-0.33 -0.71,-0.49 -1.16,-0.49z"/>
  <polygon id="_9" class="fil1" points="78.43,9.04 80.15,9.04 80.15,9.91 78.43,9.91 "/>
  <path id="_10" class="fil1" d="M32.94 18.25l-0.65 0.68c0.39,0.39 0.75,0.64 1.09,0.77 0.34,0.13 0.7,0.19 1.08,0.19 0.8,0 1.44,-0.25 1.92,-0.75 0.49,-0.5 0.73,-1.13 0.73,-1.88 0,-0.78 -0.27,-1.42 -0.8,-1.9 -0.53,-0.48 -1.16,-0.72 -1.87,-0.72 -0.4,0 -0.8,0.09 -1.19,0.26 -0.39,0.17 -0.72,0.42 -0.99,0.74l0.67 0.63c0.44,-0.48 0.95,-0.72 1.53,-0.72 0.42,0 0.79,0.13 1.11,0.4 0.32,0.27 0.5,0.57 0.54,0.92l-1.91 0 0 0.87 1.91 0c-0.13,0.43 -0.35,0.74 -0.66,0.93 -0.31,0.19 -0.64,0.29 -1.01,0.29 -0.55,0 -1.05,-0.24 -1.51,-0.72z"/>
  <polygon id="_11" class="fil1" points="38.03,14.76 38.99,14.76 38.99,16.49 40.34,14.76 41.49,14.76 39.74,17 41.66,19.76 40.53,19.76 38.99,17.54 38.99,19.76 38.03,19.76 "/>
  <path id="_12" class="fil1" d="M44.7 14.64c0.71,0 1.31,0.26 1.82,0.77 0.51,0.51 0.76,1.14 0.76,1.87 0,0.73 -0.25,1.35 -0.75,1.85 -0.5,0.5 -1.11,0.76 -1.83,0.76 -0.75,0 -1.37,-0.26 -1.87,-0.78 -0.5,-0.52 -0.75,-1.14 -0.75,-1.85 0,-0.48 0.12,-0.92 0.35,-1.32 0.23,-0.4 0.55,-0.72 0.95,-0.95 0.41,-0.23 0.84,-0.35 1.31,-0.35zm-0.01 0.93c-0.46,0 -0.85,0.16 -1.16,0.48 -0.31,0.32 -0.47,0.73 -0.47,1.23 0,0.55 0.2,0.99 0.59,1.31 0.31,0.25 0.66,0.38 1.06,0.38 0.45,0 0.83,-0.16 1.15,-0.49 0.32,-0.33 0.47,-0.73 0.47,-1.21 0,-0.48 -0.16,-0.88 -0.48,-1.21 -0.32,-0.33 -0.71,-0.49 -1.16,-0.49z"/>
  <polygon id="_13" class="fil1" points="48.18,14.76 49.15,14.76 49.15,16.65 50.82,16.65 50.82,14.76 51.78,14.76 51.78,19.76 50.82,19.76 50.82,17.57 49.15,17.57 49.15,19.76 48.18,19.76 "/>
  <path id="_14" class="fil1" d="M55.28 14.64c0.71,0 1.31,0.26 1.82,0.77 0.51,0.51 0.76,1.14 0.76,1.87 0,0.73 -0.25,1.35 -0.75,1.85 -0.5,0.5 -1.11,0.76 -1.83,0.76 -0.75,0 -1.37,-0.26 -1.87,-0.78 -0.5,-0.52 -0.75,-1.14 -0.75,-1.85 0,-0.48 0.12,-0.92 0.35,-1.32 0.23,-0.4 0.55,-0.72 0.95,-0.95 0.41,-0.23 0.84,-0.35 1.31,-0.35zm-0.01 0.93c-0.46,0 -0.85,0.16 -1.16,0.48 -0.31,0.32 -0.47,0.73 -0.47,1.23 0,0.55 0.2,0.99 0.59,1.31 0.31,0.25 0.66,0.38 1.06,0.38 0.45,0 0.83,-0.16 1.15,-0.49 0.32,-0.33 0.47,-0.73 0.47,-1.21 0,-0.48 -0.16,-0.88 -0.48,-1.21 -0.32,-0.33 -0.71,-0.49 -1.16,-0.49z"/>
  <polygon id="_15" class="fil1" points="59.25,14.76 60.17,14.76 61.34,18.25 62.51,14.76 63.43,14.76 64.27,19.76 63.35,19.76 62.82,16.61 61.76,19.76 60.92,19.76 59.86,16.61 59.32,19.76 58.39,19.76 "/>
  <polygon id="_16" class="fil1" points="68.68,14.76 68.68,19.76 67.73,19.76 67.73,16.63 65.85,19.76 65.03,19.76 65.03,14.76 65.98,14.76 65.98,18 67.89,14.76 "/>
  <path id="_17" class="fil1" d="M72 17.57l-0.32 0c-0.46,0 -0.8,-0.02 -1.01,-0.07 -0.22,-0.05 -0.43,-0.15 -0.63,-0.3 -0.2,-0.16 -0.34,-0.34 -0.42,-0.56 -0.08,-0.22 -0.12,-0.51 -0.12,-0.88l0 -0.99 0.97 0 0 0.98c0,0.34 0.06,0.58 0.18,0.71 0.12,0.13 0.38,0.2 0.78,0.2l0.57 0 0 -1.89 0.96 0 0 5 -0.96 0 0 -2.19z"/>
  <polygon id="_18" class="fil1" points="74.12,14.76 76.85,14.76 76.85,15.7 75.07,15.7 75.07,16.6 76.85,16.6 76.85,17.51 75.07,17.51 75.07,18.83 76.85,18.83 76.85,19.76 74.12,19.76 "/>
  <path id="_19" class="fil1" d="M82.33 15.64l-0.67 0.63c-0.45,-0.48 -0.96,-0.72 -1.53,-0.72 -0.48,0 -0.88,0.16 -1.21,0.49 -0.33,0.33 -0.49,0.73 -0.49,1.21 0,0.33 0.07,0.63 0.22,0.89 0.15,0.26 0.35,0.46 0.62,0.61 0.27,0.15 0.56,0.22 0.89,0.22 0.28,0 0.53,-0.05 0.76,-0.15 0.23,-0.1 0.48,-0.29 0.76,-0.56l0.65 0.68c-0.37,0.36 -0.72,0.61 -1.05,0.75 -0.33,0.14 -0.7,0.21 -1.13,0.21 -0.78,0 -1.41,-0.25 -1.91,-0.74 -0.5,-0.49 -0.74,-1.12 -0.74,-1.89 0,-0.5 0.11,-0.94 0.34,-1.33 0.23,-0.39 0.55,-0.7 0.97,-0.93 0.42,-0.24 0.87,-0.35 1.36,-0.35 0.41,0 0.81,0.09 1.19,0.26 0.38,0.17 0.71,0.42 0.99,0.74z"/>
  <polygon id="_20" class="fil1" points="83.17,14.76 84.13,14.76 84.13,16.49 85.49,14.76 86.63,14.76 84.89,17 86.8,19.76 85.67,19.76 84.13,17.54 84.13,19.76 83.17,19.76 "/>
  <path id="_21" class="fil1" d="M89.84 14.64c0.71,0 1.31,0.26 1.82,0.77 0.51,0.51 0.76,1.14 0.76,1.87 0,0.73 -0.25,1.35 -0.75,1.85 -0.5,0.5 -1.11,0.76 -1.83,0.76 -0.75,0 -1.37,-0.26 -1.87,-0.78 -0.5,-0.52 -0.75,-1.14 -0.75,-1.85 0,-0.48 0.12,-0.92 0.35,-1.32 0.23,-0.4 0.55,-0.72 0.95,-0.95 0.41,-0.23 0.84,-0.35 1.31,-0.35zm-0.01 0.93c-0.46,0 -0.85,0.16 -1.16,0.48 -0.31,0.32 -0.47,0.73 -0.47,1.23 0,0.55 0.2,0.99 0.59,1.31 0.31,0.25 0.66,0.38 1.06,0.38 0.45,0 0.83,-0.16 1.15,-0.49 0.32,-0.33 0.47,-0.73 0.47,-1.21 0,-0.48 -0.16,-0.88 -0.48,-1.21 -0.32,-0.33 -0.71,-0.49 -1.16,-0.49z"/>
  <polygon id="_22" class="fil1" points="93.34,14.76 96.07,14.76 96.07,15.7 94.28,15.7 94.28,16.6 96.07,16.6 96.07,17.51 94.28,17.51 94.28,18.83 96.07,18.83 96.07,19.76 93.34,19.76 "/>
  <path id="_23" class="fil1" d="M32.59 23.21l1.01 0c0.55,0 0.94,0.05 1.18,0.15 0.24,0.1 0.43,0.26 0.57,0.49 0.14,0.23 0.21,0.5 0.21,0.81 0,0.35 -0.09,0.64 -0.28,0.87 -0.18,0.23 -0.43,0.39 -0.75,0.48 -0.18,0.05 -0.52,0.08 -1.01,0.08l0 2.12 -0.95 0 0 -5zm0.95 1.96l0.31 0c0.24,0 0.41,-0.02 0.5,-0.05 0.09,-0.03 0.17,-0.09 0.22,-0.17 0.05,-0.08 0.08,-0.17 0.08,-0.29 0,-0.19 -0.08,-0.34 -0.23,-0.42 -0.11,-0.07 -0.31,-0.1 -0.61,-0.1l-0.27 0 0 1.03z"/>
  <path id="_24" class="fil1" d="M38.02 23.21l0.96 0 1.92 5 -0.99 0 -0.39 -1.03 -2.05 0 -0.4 1.03 -0.99 0 1.94 -5zm0.48 1.33l-0.68 1.72 1.35 0 -0.67 -1.72z"/>
  <path id="_25" class="fil1" d="M41.88 26.91c0.25,0.35 0.55,0.53 0.89,0.53 0.23,0 0.41,-0.06 0.55,-0.19 0.14,-0.13 0.21,-0.3 0.21,-0.51 0,-0.21 -0.07,-0.38 -0.2,-0.52 -0.14,-0.14 -0.42,-0.21 -0.84,-0.21l-0.21 0 0 -0.85 0.2 0c0.25,0 0.44,-0.06 0.57,-0.17 0.13,-0.12 0.2,-0.27 0.2,-0.47 0,-0.18 -0.05,-0.32 -0.16,-0.42 -0.11,-0.1 -0.25,-0.16 -0.43,-0.16 -0.21,0 -0.43,0.11 -0.66,0.32l-0.56 -0.63c0.3,-0.27 0.55,-0.43 0.75,-0.49 0.2,-0.05 0.39,-0.08 0.56,-0.08 0.41,0 0.75,0.12 1.03,0.36 0.28,0.24 0.42,0.56 0.42,0.96 0,0.18 -0.03,0.35 -0.09,0.52 -0.06,0.17 -0.24,0.35 -0.52,0.54 0.59,0.26 0.88,0.71 0.88,1.34 0,0.47 -0.16,0.84 -0.47,1.12 -0.31,0.28 -0.71,0.42 -1.2,0.42 -0.31,0 -0.59,-0.06 -0.83,-0.17 -0.24,-0.11 -0.51,-0.35 -0.8,-0.73l0.73 -0.53z"/>
  <path id="_26" class="fil1" d="M45.35 28.21l0 -5 0.79 0c0.46,0 0.79,0.03 1,0.09 0.3,0.08 0.54,0.23 0.72,0.44 0.18,0.22 0.27,0.47 0.27,0.76 0,0.19 -0.04,0.36 -0.12,0.52 -0.08,0.16 -0.21,0.3 -0.39,0.44 0.3,0.14 0.52,0.32 0.67,0.54 0.14,0.21 0.21,0.47 0.21,0.76 0,0.28 -0.07,0.54 -0.22,0.77 -0.15,0.23 -0.33,0.4 -0.56,0.52 -0.23,0.11 -0.55,0.17 -0.95,0.17l-1.41 0zm0.95 -4.09l0 1.06 0.21 0c0.24,0 0.41,-0.05 0.53,-0.15 0.11,-0.1 0.17,-0.23 0.17,-0.4 0,-0.16 -0.05,-0.28 -0.16,-0.37 -0.11,-0.09 -0.28,-0.14 -0.5,-0.14l-0.25 0zm0 1.91l0 1.28 0.24 0c0.4,0 0.67,-0.05 0.81,-0.15 0.14,-0.1 0.21,-0.24 0.21,-0.44 0,-0.21 -0.08,-0.39 -0.24,-0.51 -0.16,-0.12 -0.44,-0.19 -0.81,-0.19l-0.2 0z"/>
  <polygon id="_27" class="fil1" points="53.04,23.21 53.04,28.21 52.1,28.21 52.1,25.08 50.21,28.21 49.39,28.21 49.39,23.21 50.34,23.21 50.34,26.44 52.25,23.21 "/>
  <polygon id="_28" class="fil1" points="53.7,23.21 56.46,23.21 56.46,24.15 55.55,24.15 55.55,28.21 54.58,28.21 54.58,24.15 53.7,24.15 "/>
  <polygon id="_29" class="fil1" points="60.75,23.21 60.75,28.21 59.8,28.21 59.8,25.08 57.92,28.21 57.1,28.21 57.1,23.21 58.05,23.21 58.05,26.44 59.96,23.21 "/>
  <polygon id="_30" class="fil1" points="61.9,23.21 64.63,23.21 64.63,24.14 62.85,24.14 62.85,25.04 64.63,25.04 64.63,25.96 62.85,25.96 62.85,27.27 64.63,27.27 64.63,28.21 61.9,28.21 "/>
 </g>
</svg>
