<?xml version="1.0" encoding="UTF-8"?>
<!DOCTYPE svg PUBLIC "-//W3C//DTD SVG 1.1//EN" "http://www.w3.org/Graphics/SVG/1.1/DTD/svg11.dtd">
<!-- Creator: CorelDRAW -->
<svg xmlns="http://www.w3.org/2000/svg" xml:space="preserve" width="102.883mm" height="27.0804mm" version="1.1" style="shape-rendering:geometricPrecision; text-rendering:geometricPrecision; image-rendering:optimizeQuality; fill-rule:evenodd; clip-rule:evenodd"
viewBox="0 0 135.34 35.62"
 xmlns:xlink="http://www.w3.org/1999/xlink"
 xmlns:xodm="http://www.corel.com/coreldraw/odm/2003">
 <defs>
  <style type="text/css">
   <![CDATA[
    .fil0 {fill:#6E86F7}
    .fil2 {fill:#6E86F7;fill-rule:nonzero}
    .fil1 {fill:white;fill-rule:nonzero}
   ]]>
  </style>
 </defs>
 <g id="Слой_x0020_1">
  <metadata id="CorelCorpID_0Corel-Layer"/>
  <polygon class="fil0" points="9.25,0 135.34,0 135.34,34.52 9.25,34.52 9.25,31.42 16.91,30.92 17.71,16.88 9.25,15.58 "/>
  <path class="fil1" d="M8.31 0l16.15 0 -0 6.85 -11.77 0 -0.87 4.23c8.22,-0.76 13.13,5.47 13.13,12.22 0,6.76 -4.92,12.32 -11.8,12.32 -2.95,0 -5.47,-0.84 -7.58,-2.52 -2.11,-1.67 -3.5,-3.97 -4.15,-6.89l6.92 0c0.53,1.07 1.22,1.89 2.1,2.44 0.86,0.55 1.82,0.82 2.87,0.82 1.45,0 2.68,-0.52 3.7,-1.56 1.02,-1.04 1.52,-2.38 1.52,-4.01 0,-1.58 -0.47,-2.88 -1.42,-3.9 -0.94,-1.02 -2.09,-1.53 -3.43,-1.53 -0.72,0 -1.42,0.18 -2.12,0.54 -0.7,0.35 -1.38,0.89 -2.05,1.61l-5.35 -1.2 4.17 -19.42z"/>
  <path class="fil1" d="M34.16 6.02l0.96 0 1.61 4.11 0.55 0 0 1.64 -0.92 0 0 -0.74 -3.45 0 0 0.74 -0.92 0 0 -1.64 0.56 0 1.6 -4.11zm0.49 1.31l-1.1 2.79 2.2 0 -1.1 -2.79z"/>
  <path id="_1" class="fil1" d="M40.26 5.89c0.71,0 1.31,0.26 1.82,0.77 0.51,0.51 0.76,1.14 0.76,1.87 0,0.73 -0.25,1.35 -0.75,1.85 -0.5,0.5 -1.11,0.76 -1.83,0.76 -0.75,0 -1.37,-0.26 -1.87,-0.78 -0.5,-0.52 -0.74,-1.13 -0.74,-1.85 0,-0.48 0.12,-0.92 0.35,-1.32 0.23,-0.4 0.55,-0.72 0.95,-0.95 0.4,-0.23 0.84,-0.35 1.31,-0.35zm-0.01 0.93c-0.46,0 -0.85,0.16 -1.16,0.48 -0.31,0.32 -0.47,0.73 -0.47,1.23 0,0.55 0.2,0.99 0.59,1.31 0.31,0.25 0.66,0.38 1.06,0.38 0.45,0 0.83,-0.16 1.15,-0.49 0.32,-0.33 0.47,-0.73 0.47,-1.21 0,-0.48 -0.16,-0.88 -0.48,-1.21 -0.32,-0.33 -0.71,-0.49 -1.16,-0.49z"/>
  <polygon id="_2" class="fil1" points="43.75,6.02 44.71,6.02 44.71,7.75 46.07,6.02 47.21,6.02 45.47,8.25 47.38,11.01 46.25,11.01 44.71,8.79 44.71,11.01 43.75,11.01 "/>
  <path id="_3" class="fil1" d="M49.46 9.88l-1.78 -3.87 1.07 0 1.18 2.79 0.97 -2.79 0.98 0 -1.33 3.58c-0.23,0.61 -0.48,1.02 -0.75,1.23 -0.27,0.21 -0.56,0.31 -0.86,0.31 -0.5,0 -0.95,-0.24 -1.37,-0.73l0.63 -0.63c0.25,0.29 0.49,0.44 0.74,0.44 0.11,0 0.2,-0.03 0.27,-0.08 0.07,-0.05 0.15,-0.14 0.25,-0.25z"/>
  <polygon id="_4" class="fil1" points="53.01,6.02 53.93,6.02 55.09,9.5 56.26,6.02 57.18,6.02 58.02,11.01 57.1,11.01 56.57,7.86 55.51,11.01 54.67,11.01 53.62,7.86 53.07,11.01 52.14,11.01 "/>
  <polygon id="_5" class="fil1" points="58.8,6.02 61.53,6.02 61.53,6.95 59.74,6.95 59.74,7.85 61.53,7.85 61.53,8.77 59.74,8.77 59.74,10.08 61.53,10.08 61.53,11.01 58.8,11.01 "/>
  <polygon id="_6" class="fil1" points="62.4,6.02 63.37,6.02 63.37,7.9 65.04,7.9 65.04,6.02 66,6.02 66,11.01 65.04,11.01 65.04,8.82 63.37,8.82 63.37,11.01 62.4,11.01 "/>
  <polygon id="_7" class="fil1" points="66.66,6.02 69.42,6.02 69.42,6.96 68.51,6.96 68.51,11.01 67.54,11.01 67.54,6.96 66.66,6.96 "/>
  <path id="_8" class="fil1" d="M73.88 6.02l0.95 0 0 5 -0.95 0 0 -5zm-3.81 5l0 -5 0.95 0 0 1.89 0.21 0c0.4,0 0.73,0.05 0.99,0.14 0.26,0.09 0.49,0.27 0.68,0.52 0.19,0.26 0.29,0.57 0.29,0.93 0,0.34 -0.08,0.63 -0.25,0.87 -0.16,0.24 -0.36,0.41 -0.57,0.5 -0.22,0.1 -0.52,0.15 -0.9,0.15l-1.4 0zm0.95 -2.26l0 1.36 0.24 0c0.4,0 0.66,-0.05 0.79,-0.15 0.13,-0.1 0.2,-0.26 0.2,-0.5 0,-0.47 -0.34,-0.71 -1.03,-0.71l-0.2 0z"/>
  <polygon id="_9" class="fil1" points="32.53,14.46 35.01,14.46 35.01,15.39 33.47,15.39 33.47,19.45 32.53,19.45 "/>
  <polygon id="_10" class="fil1" points="38.99,19.45 37.61,15.79 36.2,19.45 35.19,19.45 37.12,14.46 38.09,14.46 40.01,19.45 "/>
  <path id="_11" class="fil1" d="M42.11 14.46l0.96 0 1.92 5 -0.99 0 -0.39 -1.03 -2.05 0 -0.4 1.03 -0.99 0 1.94 -5zm0.48 1.33l-0.68 1.72 1.35 0 -0.67 -1.72z"/>
  <path id="_12" class="fil1" d="M45.97 18.15c0.25,0.35 0.55,0.53 0.89,0.53 0.23,0 0.41,-0.06 0.55,-0.19 0.14,-0.13 0.21,-0.3 0.21,-0.51 0,-0.21 -0.07,-0.38 -0.2,-0.52 -0.14,-0.14 -0.42,-0.21 -0.84,-0.21l-0.21 0 0 -0.85 0.2 0c0.25,0 0.44,-0.06 0.57,-0.17 0.13,-0.12 0.19,-0.27 0.19,-0.47 0,-0.18 -0.05,-0.32 -0.16,-0.42 -0.11,-0.1 -0.25,-0.16 -0.43,-0.16 -0.21,0 -0.43,0.11 -0.66,0.32l-0.56 -0.63c0.3,-0.27 0.55,-0.43 0.75,-0.49 0.2,-0.05 0.39,-0.08 0.56,-0.08 0.41,0 0.75,0.12 1.03,0.36 0.28,0.24 0.42,0.56 0.42,0.96 0,0.18 -0.03,0.35 -0.09,0.52 -0.06,0.17 -0.24,0.35 -0.52,0.54 0.59,0.26 0.88,0.71 0.88,1.34 0,0.47 -0.16,0.84 -0.47,1.12 -0.31,0.28 -0.71,0.42 -1.2,0.42 -0.31,0 -0.59,-0.06 -0.83,-0.17 -0.24,-0.11 -0.51,-0.35 -0.8,-0.73l0.73 -0.53z"/>
  <path id="_13" class="fil1" d="M51.81 14.33c0.71,0 1.31,0.26 1.82,0.77 0.51,0.51 0.76,1.14 0.76,1.87 0,0.73 -0.25,1.35 -0.75,1.85 -0.5,0.5 -1.11,0.76 -1.83,0.76 -0.75,0 -1.37,-0.26 -1.87,-0.78 -0.5,-0.52 -0.74,-1.13 -0.74,-1.85 0,-0.48 0.12,-0.92 0.35,-1.32 0.23,-0.4 0.55,-0.72 0.95,-0.95 0.4,-0.23 0.84,-0.35 1.31,-0.35zm-0.01 0.93c-0.46,0 -0.85,0.16 -1.16,0.48 -0.31,0.32 -0.47,0.73 -0.47,1.23 0,0.55 0.2,0.99 0.59,1.31 0.31,0.25 0.66,0.38 1.06,0.38 0.45,0 0.83,-0.16 1.15,-0.49 0.32,-0.33 0.47,-0.73 0.47,-1.21 0,-0.48 -0.16,-0.88 -0.48,-1.21 -0.32,-0.33 -0.71,-0.49 -1.16,-0.49z"/>
  <path id="_14" class="fil1" d="M55.29 19.45l0 -5 0.79 0c0.46,0 0.79,0.03 1,0.09 0.3,0.08 0.54,0.23 0.72,0.44 0.18,0.22 0.27,0.47 0.27,0.76 0,0.19 -0.04,0.36 -0.12,0.52 -0.08,0.16 -0.21,0.3 -0.39,0.44 0.3,0.14 0.52,0.32 0.66,0.53 0.14,0.21 0.21,0.47 0.21,0.76 0,0.28 -0.07,0.54 -0.22,0.77 -0.15,0.23 -0.33,0.4 -0.56,0.52 -0.23,0.11 -0.55,0.17 -0.95,0.17l-1.41 0zm0.95 -4.09l0 1.06 0.21 0c0.24,0 0.41,-0.05 0.53,-0.15 0.11,-0.1 0.17,-0.23 0.17,-0.4 0,-0.16 -0.05,-0.28 -0.16,-0.37 -0.11,-0.09 -0.28,-0.14 -0.5,-0.14l-0.25 0zm0 1.91l0 1.28 0.24 0c0.4,0 0.67,-0.05 0.81,-0.15 0.14,-0.1 0.21,-0.24 0.21,-0.44 0,-0.21 -0.08,-0.39 -0.24,-0.51 -0.16,-0.12 -0.44,-0.19 -0.81,-0.19l-0.2 0z"/>
  <path id="_15" class="fil1" d="M63.93 15.33l-0.67 0.63c-0.45,-0.48 -0.96,-0.72 -1.53,-0.72 -0.48,0 -0.88,0.16 -1.21,0.49 -0.33,0.33 -0.49,0.73 -0.49,1.21 0,0.33 0.07,0.63 0.22,0.89 0.14,0.26 0.35,0.46 0.61,0.61 0.27,0.15 0.56,0.22 0.89,0.22 0.28,0 0.53,-0.05 0.76,-0.15 0.23,-0.1 0.48,-0.29 0.76,-0.56l0.65 0.68c-0.37,0.36 -0.72,0.61 -1.05,0.75 -0.33,0.14 -0.7,0.21 -1.13,0.21 -0.78,0 -1.41,-0.25 -1.91,-0.74 -0.5,-0.49 -0.74,-1.12 -0.74,-1.89 0,-0.5 0.11,-0.94 0.34,-1.33 0.23,-0.39 0.55,-0.7 0.97,-0.93 0.42,-0.24 0.87,-0.35 1.36,-0.35 0.41,0 0.81,0.09 1.19,0.26 0.38,0.17 0.71,0.42 0.99,0.74z"/>
  <polygon id="_16" class="fil1" points="64.77,14.46 65.73,14.46 65.73,16.18 67.08,14.46 68.23,14.46 66.49,16.69 68.4,19.45 67.27,19.45 65.73,17.23 65.73,19.45 64.77,19.45 "/>
  <path id="_17" class="fil1" d="M71.44 14.33c0.71,0 1.31,0.26 1.82,0.77 0.51,0.51 0.76,1.14 0.76,1.87 0,0.73 -0.25,1.35 -0.75,1.85 -0.5,0.5 -1.11,0.76 -1.83,0.76 -0.75,0 -1.37,-0.26 -1.87,-0.78 -0.5,-0.52 -0.74,-1.13 -0.74,-1.85 0,-0.48 0.12,-0.92 0.35,-1.32 0.23,-0.4 0.55,-0.72 0.95,-0.95 0.4,-0.23 0.84,-0.35 1.31,-0.35zm-0.01 0.93c-0.46,0 -0.85,0.16 -1.16,0.48 -0.31,0.32 -0.47,0.73 -0.47,1.23 0,0.55 0.2,0.99 0.59,1.31 0.31,0.25 0.66,0.38 1.06,0.38 0.45,0 0.83,-0.16 1.15,-0.49 0.32,-0.33 0.47,-0.73 0.47,-1.21 0,-0.48 -0.16,-0.88 -0.48,-1.21 -0.32,-0.33 -0.71,-0.49 -1.16,-0.49z"/>
  <polygon id="_18" class="fil1" points="74.92,14.46 77.4,14.46 77.4,15.39 75.87,15.39 75.87,19.45 74.92,19.45 "/>
  <path id="_19" class="fil1" d="M80.5 14.33c0.71,0 1.31,0.26 1.82,0.77 0.51,0.51 0.76,1.14 0.76,1.87 0,0.73 -0.25,1.35 -0.75,1.85 -0.5,0.5 -1.11,0.76 -1.83,0.76 -0.75,0 -1.37,-0.26 -1.87,-0.78 -0.5,-0.52 -0.74,-1.13 -0.74,-1.85 0,-0.48 0.12,-0.92 0.35,-1.32 0.23,-0.4 0.55,-0.72 0.95,-0.95 0.4,-0.23 0.84,-0.35 1.31,-0.35zm-0.01 0.93c-0.46,0 -0.85,0.16 -1.16,0.48 -0.31,0.32 -0.47,0.73 -0.47,1.23 0,0.55 0.2,0.99 0.59,1.31 0.31,0.25 0.66,0.38 1.06,0.38 0.45,0 0.83,-0.16 1.15,-0.49 0.32,-0.33 0.47,-0.73 0.47,-1.21 0,-0.48 -0.16,-0.88 -0.48,-1.21 -0.32,-0.33 -0.71,-0.49 -1.16,-0.49z"/>
  <path id="_20" class="fil1" d="M85.94 14.46l1.01 0c0.55,0 0.94,0.05 1.18,0.15 0.24,0.1 0.43,0.26 0.57,0.49 0.14,0.23 0.21,0.5 0.21,0.81 0,0.35 -0.09,0.64 -0.27,0.87 -0.18,0.23 -0.43,0.39 -0.74,0.48 -0.18,0.05 -0.52,0.08 -1.01,0.08l0 2.12 -0.95 0 0 -5zm0.95 1.96l0.31 0c0.24,0 0.41,-0.02 0.5,-0.05 0.09,-0.03 0.17,-0.09 0.22,-0.17 0.05,-0.08 0.08,-0.17 0.08,-0.29 0,-0.19 -0.08,-0.34 -0.23,-0.42 -0.11,-0.07 -0.31,-0.1 -0.61,-0.1l-0.27 0 0 1.03z"/>
  <path id="_21" class="fil1" d="M91.37 14.46l0.96 0 1.92 5 -0.99 0 -0.39 -1.03 -2.05 0 -0.4 1.03 -0.99 0 1.94 -5zm0.48 1.33l-0.68 1.72 1.35 0 -0.67 -1.72z"/>
  <path id="_22" class="fil1" d="M98.63 14.46l0 5 -0.95 0 0 -3.13 -1.88 3.13 -0.82 0 0 -5 0.95 0 0 3.23 1.91 -3.23 0.79 0zm-3.19 -1.34l0.75 0c0.06,0.09 0.14,0.16 0.25,0.21 0.1,0.05 0.23,0.07 0.38,0.07 0.15,0 0.29,-0.03 0.42,-0.08 0.08,-0.04 0.15,-0.1 0.21,-0.2l0.75 0c-0.04,0.29 -0.18,0.52 -0.41,0.69 -0.23,0.17 -0.56,0.26 -0.97,0.26 -0.28,0 -0.51,-0.04 -0.7,-0.12 -0.19,-0.08 -0.34,-0.19 -0.46,-0.33 -0.11,-0.14 -0.19,-0.31 -0.22,-0.5z"/>
  <path id="_23" class="fil1" d="M102.13 14.33c0.71,0 1.31,0.26 1.82,0.77 0.51,0.51 0.76,1.14 0.76,1.87 0,0.73 -0.25,1.35 -0.75,1.85 -0.5,0.5 -1.11,0.76 -1.83,0.76 -0.75,0 -1.37,-0.26 -1.87,-0.78 -0.5,-0.52 -0.74,-1.13 -0.74,-1.85 0,-0.48 0.12,-0.92 0.35,-1.32 0.23,-0.4 0.55,-0.72 0.95,-0.95 0.4,-0.23 0.84,-0.35 1.31,-0.35zm-0.01 0.93c-0.46,0 -0.85,0.16 -1.16,0.48 -0.31,0.32 -0.47,0.73 -0.47,1.23 0,0.55 0.2,0.99 0.59,1.31 0.31,0.25 0.66,0.38 1.06,0.38 0.45,0 0.83,-0.16 1.15,-0.49 0.32,-0.33 0.47,-0.73 0.47,-1.21 0,-0.48 -0.16,-0.88 -0.48,-1.21 -0.32,-0.33 -0.71,-0.49 -1.16,-0.49z"/>
  <polygon id="_24" class="fil1" points="105.61,14.46 106.58,14.46 106.58,16.34 108.25,16.34 108.25,14.46 109.21,14.46 109.21,19.45 108.25,19.45 108.25,17.26 106.58,17.26 106.58,19.45 105.61,19.45 "/>
  <polygon id="_25" class="fil1" points="110.34,14.46 111.31,14.46 111.31,16.34 112.98,16.34 112.98,14.46 113.94,14.46 113.94,19.45 112.98,19.45 112.98,17.26 111.31,17.26 111.31,19.45 110.34,19.45 "/>
  <path id="_26" class="fil1" d="M117.44 14.33c0.71,0 1.31,0.26 1.82,0.77 0.51,0.51 0.76,1.14 0.76,1.87 0,0.73 -0.25,1.35 -0.75,1.85 -0.5,0.5 -1.11,0.76 -1.83,0.76 -0.75,0 -1.37,-0.26 -1.87,-0.78 -0.5,-0.52 -0.74,-1.13 -0.74,-1.85 0,-0.48 0.12,-0.92 0.35,-1.32 0.23,-0.4 0.55,-0.72 0.95,-0.95 0.4,-0.23 0.84,-0.35 1.31,-0.35zm-0.01 0.93c-0.46,0 -0.85,0.16 -1.16,0.48 -0.31,0.32 -0.47,0.73 -0.47,1.23 0,0.55 0.2,0.99 0.59,1.31 0.31,0.25 0.66,0.38 1.06,0.38 0.45,0 0.83,-0.16 1.15,-0.49 0.32,-0.33 0.47,-0.73 0.47,-1.21 0,-0.48 -0.16,-0.88 -0.48,-1.21 -0.32,-0.33 -0.71,-0.49 -1.16,-0.49z"/>
  <polygon id="_27" class="fil1" points="120.93,14.46 123.41,14.46 123.41,15.39 121.87,15.39 121.87,19.45 120.93,19.45 "/>
  <path id="_28" class="fil1" d="M126.51 14.33c0.71,0 1.31,0.26 1.82,0.77 0.51,0.51 0.76,1.14 0.76,1.87 0,0.73 -0.25,1.35 -0.75,1.85 -0.5,0.5 -1.11,0.76 -1.83,0.76 -0.75,0 -1.37,-0.26 -1.87,-0.78 -0.5,-0.52 -0.74,-1.13 -0.74,-1.85 0,-0.48 0.12,-0.92 0.35,-1.32 0.23,-0.4 0.55,-0.72 0.95,-0.95 0.4,-0.23 0.84,-0.35 1.31,-0.35zm-0.01 0.93c-0.46,0 -0.85,0.16 -1.16,0.48 -0.31,0.32 -0.47,0.73 -0.47,1.23 0,0.55 0.2,0.99 0.59,1.31 0.31,0.25 0.66,0.38 1.06,0.38 0.45,0 0.83,-0.16 1.15,-0.49 0.32,-0.33 0.47,-0.73 0.47,-1.21 0,-0.48 -0.16,-0.88 -0.48,-1.21 -0.32,-0.33 -0.71,-0.49 -1.16,-0.49z"/>
  <path id="_29" class="fil1" d="M37.13 23.77l-0.67 0.63c-0.45,-0.48 -0.96,-0.72 -1.53,-0.72 -0.48,0 -0.88,0.16 -1.21,0.49 -0.33,0.33 -0.49,0.73 -0.49,1.21 0,0.33 0.07,0.63 0.22,0.89 0.14,0.26 0.35,0.46 0.61,0.61 0.27,0.15 0.56,0.22 0.89,0.22 0.28,0 0.53,-0.05 0.76,-0.15 0.23,-0.1 0.48,-0.29 0.76,-0.56l0.65 0.68c-0.37,0.36 -0.72,0.61 -1.05,0.75 -0.33,0.14 -0.7,0.21 -1.13,0.21 -0.78,0 -1.41,-0.25 -1.91,-0.74 -0.5,-0.49 -0.74,-1.12 -0.74,-1.89 0,-0.5 0.11,-0.94 0.34,-1.33 0.23,-0.39 0.55,-0.7 0.97,-0.93 0.42,-0.24 0.87,-0.35 1.36,-0.35 0.41,0 0.81,0.09 1.19,0.26 0.38,0.17 0.71,0.42 0.99,0.74z"/>
  <path id="_30" class="fil1" d="M40.32 22.77c0.71,0 1.31,0.26 1.82,0.77 0.51,0.51 0.76,1.14 0.76,1.87 0,0.73 -0.25,1.35 -0.75,1.85 -0.5,0.5 -1.11,0.76 -1.83,0.76 -0.75,0 -1.37,-0.26 -1.87,-0.78 -0.5,-0.52 -0.74,-1.13 -0.74,-1.85 0,-0.48 0.12,-0.92 0.35,-1.32 0.23,-0.4 0.55,-0.72 0.95,-0.95 0.4,-0.23 0.84,-0.35 1.31,-0.35zm-0.01 0.93c-0.46,0 -0.85,0.16 -1.16,0.48 -0.31,0.32 -0.47,0.73 -0.47,1.23 0,0.55 0.2,0.99 0.59,1.31 0.31,0.25 0.66,0.38 1.06,0.38 0.45,0 0.83,-0.16 1.15,-0.49 0.32,-0.33 0.47,-0.73 0.47,-1.21 0,-0.48 -0.16,-0.88 -0.48,-1.21 -0.32,-0.33 -0.71,-0.49 -1.16,-0.49z"/>
  <path id="_31" class="fil1" d="M43.8 27.89l0 -5 0.79 0c0.46,0 0.79,0.03 1,0.09 0.3,0.08 0.54,0.23 0.72,0.44 0.18,0.22 0.27,0.47 0.27,0.76 0,0.19 -0.04,0.36 -0.12,0.52 -0.08,0.16 -0.21,0.3 -0.39,0.44 0.3,0.14 0.52,0.32 0.66,0.53 0.14,0.21 0.21,0.47 0.21,0.76 0,0.28 -0.07,0.54 -0.22,0.77 -0.15,0.23 -0.33,0.4 -0.56,0.52 -0.23,0.11 -0.55,0.17 -0.95,0.17l-1.41 0zm0.95 -4.09l0 1.06 0.21 0c0.24,0 0.41,-0.05 0.53,-0.15 0.11,-0.1 0.17,-0.23 0.17,-0.4 0,-0.16 -0.05,-0.28 -0.16,-0.37 -0.11,-0.09 -0.28,-0.14 -0.5,-0.14l-0.25 0zm0 1.91l0 1.28 0.24 0c0.4,0 0.67,-0.05 0.81,-0.15 0.14,-0.1 0.21,-0.24 0.21,-0.44 0,-0.21 -0.08,-0.39 -0.24,-0.51 -0.16,-0.12 -0.44,-0.19 -0.81,-0.19l-0.2 0z"/>
  <polygon id="_32" class="fil1" points="47.85,22.89 50.58,22.89 50.58,23.83 48.8,23.83 48.8,24.73 50.58,24.73 50.58,25.64 48.8,25.64 48.8,26.96 50.58,26.96 50.58,27.89 47.85,27.89 "/>
  <polygon id="_33" class="fil1" points="50.98,22.89 53.74,22.89 53.74,23.83 52.83,23.83 52.83,27.89 51.86,27.89 51.86,23.83 50.98,23.83 "/>
  <path id="_34" class="fil1" d="M55.92 22.89l0.96 0 1.92 5 -0.99 0 -0.39 -1.03 -2.05 0 -0.4 1.03 -0.99 0 1.94 -5zm0.48 1.33l-0.68 1.72 1.35 0 -0.67 -1.72z"/>
  <path id="_35" class="fil1" d="M63.11 22.89l0.96 0 1.61 4.11 0.55 0 0 1.64 -0.92 0 0 -0.74 -3.45 0 0 0.74 -0.92 0 0 -1.64 0.56 0 1.6 -4.11zm0.49 1.31l-1.1 2.79 2.2 0 -1.1 -2.79z"/>
  <polygon id="_36" class="fil1" points="66.86,22.89 69.59,22.89 69.59,23.83 67.81,23.83 67.81,24.73 69.59,24.73 69.59,25.64 67.81,25.64 67.81,26.96 69.59,26.96 69.59,27.89 66.86,27.89 "/>
  <polygon id="_37" class="fil1" points="70.46,22.89 74.06,22.89 74.06,27.89 73.1,27.89 73.1,23.79 71.43,23.79 71.43,27.89 70.46,27.89 "/>
  <path id="_38" class="fil1" d="M76.6 26.76l-1.78 -3.87 1.07 0 1.18 2.79 0.97 -2.79 0.98 0 -1.33 3.58c-0.23,0.61 -0.48,1.02 -0.75,1.23 -0.27,0.21 -0.56,0.31 -0.86,0.31 -0.5,0 -0.95,-0.24 -1.37,-0.73l0.63 -0.63c0.25,0.29 0.49,0.44 0.74,0.44 0.11,0 0.2,-0.03 0.27,-0.08 0.07,-0.05 0.15,-0.14 0.25,-0.25z"/>
  <polygon id="_39" class="fil1" points="79.18,22.89 81.95,22.89 81.95,23.83 81.03,23.83 81.03,27.89 80.07,27.89 80.07,23.83 79.18,23.83 "/>
  <path id="_40" class="fil1" d="M84.12 22.89l0.96 0 1.92 5 -0.99 0 -0.39 -1.03 -2.05 0 -0.4 1.03 -0.99 0 1.94 -5zm0.48 1.33l-0.68 1.72 1.35 0 -0.67 -1.72z"/>
  <polygon id="_41" class="fil1" points="87.25,22.89 90.02,22.89 90.02,23.83 89.11,23.83 89.11,27.89 88.14,27.89 88.14,23.83 87.25,23.83 "/>
  <path id="_42" class="fil1" d="M93.02 22.77c0.71,0 1.31,0.26 1.82,0.77 0.51,0.51 0.76,1.14 0.76,1.87 0,0.73 -0.25,1.35 -0.75,1.85 -0.5,0.5 -1.11,0.76 -1.83,0.76 -0.75,0 -1.37,-0.26 -1.87,-0.78 -0.5,-0.52 -0.74,-1.13 -0.74,-1.85 0,-0.48 0.12,-0.92 0.35,-1.32 0.23,-0.4 0.55,-0.72 0.95,-0.95 0.4,-0.23 0.84,-0.35 1.31,-0.35zm-0.01 0.93c-0.46,0 -0.85,0.16 -1.16,0.48 -0.31,0.32 -0.47,0.73 -0.47,1.23 0,0.55 0.2,0.99 0.59,1.31 0.31,0.25 0.66,0.38 1.06,0.38 0.45,0 0.83,-0.16 1.15,-0.49 0.32,-0.33 0.47,-0.73 0.47,-1.21 0,-0.48 -0.16,-0.88 -0.48,-1.21 -0.32,-0.33 -0.71,-0.49 -1.16,-0.49z"/>
  <path id="_43" class="fil1" d="M96.5 27.89l0 -5 0.79 0c0.46,0 0.79,0.03 1,0.09 0.3,0.08 0.54,0.23 0.72,0.44 0.18,0.22 0.27,0.47 0.27,0.76 0,0.19 -0.04,0.36 -0.12,0.52 -0.08,0.16 -0.21,0.3 -0.39,0.44 0.3,0.14 0.52,0.32 0.66,0.53 0.14,0.21 0.21,0.47 0.21,0.76 0,0.28 -0.07,0.54 -0.22,0.77 -0.15,0.23 -0.33,0.4 -0.56,0.52 -0.23,0.11 -0.55,0.17 -0.95,0.17l-1.41 0zm0.95 -4.09l0 1.06 0.21 0c0.24,0 0.41,-0.05 0.53,-0.15 0.11,-0.1 0.17,-0.23 0.17,-0.4 0,-0.16 -0.05,-0.28 -0.16,-0.37 -0.11,-0.09 -0.28,-0.14 -0.5,-0.14l-0.25 0zm0 1.91l0 1.28 0.24 0c0.4,0 0.67,-0.05 0.81,-0.15 0.14,-0.1 0.21,-0.24 0.21,-0.44 0,-0.21 -0.08,-0.39 -0.24,-0.51 -0.16,-0.12 -0.44,-0.19 -0.81,-0.19l-0.2 0z"/>
  <path class="fil2" d="M6.9 0.01l16.15 0 0 6.05 -11.25 0 -1.4 6.33c0.38,-0.11 0.77,-0.19 1.14,-0.25 0.38,-0.06 0.74,-0.08 1.08,-0.08 3.12,0 5.72,1.06 7.8,3.19 2.07,2.13 3.11,4.85 3.11,8.17 0,3.35 -1.14,6.18 -3.43,8.48 -2.3,2.3 -5.08,3.45 -8.37,3.45 -2.95,0 -5.47,-0.84 -7.58,-2.52 -2.11,-1.67 -3.5,-3.97 -4.15,-6.89l6.92 0c0.53,1.07 1.22,1.89 2.1,2.44 0.86,0.55 1.82,0.82 2.87,0.82 1.45,0 2.68,-0.52 3.7,-1.56 1.02,-1.04 1.52,-2.38 1.52,-4.01 0,-1.58 -0.47,-2.88 -1.42,-3.9 -0.94,-1.02 -2.09,-1.53 -3.43,-1.53 -0.72,0 -1.42,0.18 -2.12,0.54 -0.7,0.35 -1.38,0.89 -2.05,1.61l-5.35 -1.2 4.17 -19.15z"/>
 </g>
</svg>
