<?xml version="1.0" encoding="UTF-8"?>
<!DOCTYPE svg PUBLIC "-//W3C//DTD SVG 1.1//EN" "http://www.w3.org/Graphics/SVG/1.1/DTD/svg11.dtd">
<!-- Creator: CorelDRAW -->
<svg xmlns="http://www.w3.org/2000/svg" xml:space="preserve" width="102.883mm" height="28.4403mm" version="1.1" style="shape-rendering:geometricPrecision; text-rendering:geometricPrecision; image-rendering:optimizeQuality; fill-rule:evenodd; clip-rule:evenodd"
viewBox="0 0 135.34 37.41"
 xmlns:xlink="http://www.w3.org/1999/xlink"
 xmlns:xodm="http://www.corel.com/coreldraw/odm/2003">
 <defs>
  <style type="text/css">
   <![CDATA[
    .fil0 {fill:#6E86F7}
    .fil2 {fill:#6E86F7;fill-rule:nonzero}
    .fil1 {fill:white;fill-rule:nonzero}
   ]]>
  </style>
 </defs>
 <g id="Слой_x0020_1">
  <metadata id="CorelCorpID_0Corel-Layer"/>
  <polygon class="fil0" points="12.53,2.65 135.34,2.65 135.34,37.16 12.53,37.16 12.53,33.9 20.4,25.9 12.53,18.71 "/>
  <path class="fil1" d="M13.29 0l6 2.47 -6.2 11.73c5.67,0 10.63,6.21 10.63,12.1 0,5.89 -4.91,11.11 -11.13,11.11 -3.22,0 -5.9,-1.12 -8.04,-3.36 -2.14,-2.23 -3.21,-4.8 -3.21,-7.69 0,-1.1 0.17,-2.21 0.5,-3.32 0.33,-1.12 1.1,-2.83 2.29,-5.14l9.16 -17.9zm-0.84 21.39c-1.26,0 -2.32,0.45 -3.18,1.37 -0.85,0.91 -1.28,2.05 -1.28,3.43 0,1.37 0.45,2.53 1.35,3.46 0.89,0.93 1.94,1.41 3.13,1.41 1.26,0 2.34,-0.46 3.24,-1.38 0.9,-0.93 1.36,-2.08 1.36,-3.49 0,-1.38 -0.44,-2.52 -1.32,-3.43 -0.88,-0.92 -1.98,-1.37 -3.3,-1.37z"/>
  <polygon class="fil1" points="32.38,13.12 35.66,13.12 35.66,13.62 33.4,18.25 32.6,17.86 34.48,14.02 32.38,14.02 "/>
  <polygon id="_1" class="fil1" points="38.37,13.12 40.86,13.12 40.86,14.06 39.32,14.06 39.32,18.12 38.37,18.12 "/>
  <polygon id="_2" class="fil1" points="44.84,18.12 43.45,14.46 42.05,18.12 41.04,18.12 42.97,13.12 43.93,13.12 45.86,18.12 "/>
  <path id="_3" class="fil1" d="M47.96 13.12l0.96 0 1.92 5 -0.99 0 -0.39 -1.03 -2.05 0 -0.4 1.03 -0.99 0 1.94 -5zm0.48 1.33l-0.68 1.72 1.35 0 -0.67 -1.72z"/>
  <path id="_4" class="fil1" d="M51.57 18.12l0 -5 0.79 0c0.46,0 0.79,0.03 1,0.09 0.3,0.08 0.54,0.23 0.72,0.44 0.18,0.22 0.27,0.47 0.27,0.76 0,0.19 -0.04,0.36 -0.12,0.52 -0.08,0.16 -0.21,0.3 -0.39,0.44 0.3,0.14 0.52,0.32 0.66,0.53 0.14,0.21 0.21,0.47 0.21,0.76 0,0.28 -0.07,0.54 -0.22,0.77 -0.15,0.23 -0.33,0.4 -0.56,0.52 -0.23,0.11 -0.55,0.17 -0.95,0.17l-1.41 0zm0.95 -4.09l0 1.06 0.21 0c0.24,0 0.41,-0.05 0.53,-0.15 0.11,-0.1 0.17,-0.23 0.17,-0.4 0,-0.16 -0.05,-0.28 -0.16,-0.37 -0.11,-0.09 -0.28,-0.14 -0.5,-0.14l-0.25 0zm0 1.91l0 1.28 0.24 0c0.4,0 0.67,-0.05 0.81,-0.15 0.14,-0.1 0.21,-0.24 0.21,-0.44 0,-0.21 -0.08,-0.39 -0.24,-0.51 -0.16,-0.12 -0.44,-0.19 -0.81,-0.19l-0.2 0z"/>
  <polygon id="_5" class="fil1" points="55.61,13.12 56.58,13.12 56.58,15.01 58.25,15.01 58.25,13.12 59.21,13.12 59.21,18.12 58.25,18.12 58.25,15.93 56.58,15.93 56.58,18.12 55.61,18.12 "/>
  <path id="_6" class="fil1" d="M64.16 13.12l0.95 0 0 5 -0.95 0 0 -5zm-3.81 5l0 -5 0.95 0 0 1.89 0.21 0c0.4,0 0.73,0.05 0.99,0.14 0.26,0.09 0.49,0.27 0.68,0.52 0.19,0.26 0.29,0.57 0.29,0.93 0,0.34 -0.08,0.63 -0.25,0.87 -0.16,0.24 -0.36,0.41 -0.57,0.5 -0.22,0.1 -0.52,0.15 -0.9,0.15l-1.4 0zm0.95 -2.26l0 1.36 0.24 0c0.4,0 0.66,-0.05 0.79,-0.15 0.13,-0.1 0.2,-0.26 0.2,-0.5 0,-0.47 -0.34,-0.71 -1.03,-0.71l-0.2 0z"/>
  <polygon id="_7" class="fil1" points="65.92,13.12 67,13.12 68.05,14.73 69.1,13.12 70.18,13.12 68.59,15.55 70.27,18.12 69.19,18.12 68.05,16.38 66.9,18.12 65.82,18.12 67.51,15.55 "/>
  <polygon id="_8" class="fil1" points="72.94,13.12 73.9,13.12 73.9,14.85 75.25,13.12 76.4,13.12 74.65,15.36 76.57,18.12 75.44,18.12 73.9,15.9 73.9,18.12 72.94,18.12 "/>
  <polygon id="_9" class="fil1" points="77.24,13.12 78.21,13.12 78.21,15.01 79.88,15.01 79.88,13.12 80.84,13.12 80.84,18.12 79.88,18.12 79.88,15.93 78.21,15.93 78.21,18.12 77.24,18.12 "/>
  <polygon id="_10" class="fil1" points="85.62,13.12 85.62,18.12 84.68,18.12 84.68,14.99 82.79,18.12 81.98,18.12 81.98,13.12 82.92,13.12 82.92,16.36 84.83,13.12 "/>
  <polygon id="_11" class="fil1" points="88.97,15.9 88.84,15.76 87.43,18.12 86.3,18.12 88.15,15.22 86.46,13.12 87.61,13.12 88.97,14.91 88.97,13.12 89.94,13.12 89.94,14.91 91.28,13.12 92.43,13.12 90.76,15.23 92.6,18.12 91.47,18.12 90.07,15.76 89.94,15.9 89.94,18.12 88.97,18.12 "/>
  <polygon id="_12" class="fil1" points="93.27,13.12 94.23,13.12 94.23,15.01 95.9,15.01 95.9,13.12 96.87,13.12 96.87,18.12 95.9,18.12 95.9,15.93 94.23,15.93 94.23,18.12 93.27,18.12 "/>
  <path id="_13" class="fil1" d="M101.82 13.12l0.95 0 0 5 -0.95 0 0 -5zm-3.81 5l0 -5 0.95 0 0 1.89 0.21 0c0.4,0 0.73,0.05 0.99,0.14 0.26,0.09 0.49,0.27 0.68,0.52 0.19,0.26 0.29,0.57 0.29,0.93 0,0.34 -0.08,0.63 -0.25,0.87 -0.16,0.24 -0.36,0.41 -0.57,0.5 -0.22,0.1 -0.52,0.15 -0.9,0.15l-1.4 0zm0.95 -2.26l0 1.36 0.24 0c0.4,0 0.66,-0.05 0.79,-0.15 0.13,-0.1 0.2,-0.26 0.2,-0.5 0,-0.47 -0.34,-0.71 -1.03,-0.71l-0.2 0z"/>
  <polygon id="_14" class="fil1" points="103.57,13.12 104.65,13.12 105.7,14.73 106.76,13.12 107.84,13.12 106.24,15.55 107.92,18.12 106.84,18.12 105.7,16.38 104.56,18.12 103.48,18.12 105.16,15.55 "/>
  <polygon id="_15" class="fil1" points="32.53,21.56 36.13,21.56 36.13,26.56 35.16,26.56 35.16,22.45 33.49,22.45 33.49,26.56 32.53,26.56 "/>
  <path id="_16" class="fil1" d="M37.26 21.56l1.01 0c0.55,0 0.94,0.05 1.18,0.15 0.24,0.1 0.43,0.26 0.57,0.49 0.14,0.23 0.21,0.5 0.21,0.81 0,0.35 -0.09,0.64 -0.27,0.87 -0.18,0.23 -0.43,0.39 -0.74,0.48 -0.18,0.05 -0.52,0.08 -1.01,0.08l0 2.12 -0.95 0 0 -5zm0.95 1.96l0.31 0c0.24,0 0.41,-0.02 0.5,-0.05 0.09,-0.03 0.17,-0.09 0.22,-0.17 0.05,-0.08 0.08,-0.17 0.08,-0.29 0,-0.19 -0.08,-0.34 -0.23,-0.42 -0.11,-0.07 -0.31,-0.1 -0.61,-0.1l-0.27 0 0 1.03z"/>
  <polygon id="_17" class="fil1" points="41.17,21.56 43.9,21.56 43.9,22.5 42.12,22.5 42.12,23.39 43.9,23.39 43.9,24.31 42.12,24.31 42.12,25.63 43.9,25.63 43.9,26.56 41.17,26.56 "/>
  <polygon id="_18" class="fil1" points="45.27,21.56 46.19,21.56 47.35,25.05 48.52,21.56 49.44,21.56 50.28,26.56 49.36,26.56 48.83,23.4 47.77,26.56 46.93,26.56 45.88,23.4 45.33,26.56 44.4,26.56 "/>
  <polygon id="_19" class="fil1" points="54.69,21.56 54.69,26.56 53.74,26.56 53.74,23.43 51.86,26.56 51.04,26.56 51.04,21.56 51.99,21.56 51.99,24.79 53.9,21.56 "/>
  <path id="_20" class="fil1" d="M59.47 21.56l0 5 -0.95 0 0 -3.13 -1.88 3.13 -0.82 0 0 -5 0.95 0 0 3.23 1.91 -3.23 0.79 0zm-3.19 -1.34l0.75 0c0.06,0.09 0.14,0.16 0.25,0.21 0.1,0.05 0.23,0.07 0.38,0.07 0.15,0 0.29,-0.03 0.42,-0.08 0.08,-0.04 0.15,-0.1 0.21,-0.2l0.75 0c-0.04,0.29 -0.18,0.52 -0.41,0.69 -0.23,0.17 -0.56,0.26 -0.97,0.26 -0.28,0 -0.51,-0.04 -0.7,-0.12 -0.19,-0.08 -0.34,-0.19 -0.46,-0.33 -0.11,-0.14 -0.19,-0.31 -0.22,-0.5z"/>
  <path id="_21" class="fil1" d="M62.55 21.56l1.01 0c0.55,0 0.94,0.05 1.18,0.15 0.24,0.1 0.43,0.26 0.57,0.49 0.14,0.23 0.21,0.5 0.21,0.81 0,0.35 -0.09,0.64 -0.27,0.87 -0.18,0.23 -0.43,0.39 -0.74,0.48 -0.18,0.05 -0.52,0.08 -1.01,0.08l0 2.12 -0.95 0 0 -5zm0.95 1.96l0.31 0c0.24,0 0.41,-0.02 0.5,-0.05 0.09,-0.03 0.17,-0.09 0.22,-0.17 0.05,-0.08 0.08,-0.17 0.08,-0.29 0,-0.19 -0.08,-0.34 -0.23,-0.42 -0.11,-0.07 -0.31,-0.1 -0.61,-0.1l-0.27 0 0 1.03z"/>
  <path id="_22" class="fil1" d="M68.82 21.44c0.71,0 1.31,0.26 1.82,0.77 0.51,0.51 0.76,1.14 0.76,1.87 0,0.73 -0.25,1.35 -0.75,1.85 -0.5,0.5 -1.11,0.76 -1.83,0.76 -0.75,0 -1.37,-0.26 -1.87,-0.78 -0.5,-0.52 -0.74,-1.13 -0.74,-1.85 0,-0.48 0.12,-0.92 0.35,-1.32 0.23,-0.4 0.55,-0.72 0.95,-0.95 0.4,-0.23 0.84,-0.35 1.31,-0.35zm-0.01 0.93c-0.46,0 -0.85,0.16 -1.16,0.48 -0.31,0.32 -0.47,0.73 -0.47,1.23 0,0.55 0.2,0.99 0.59,1.31 0.31,0.25 0.66,0.38 1.06,0.38 0.45,0 0.83,-0.16 1.15,-0.49 0.32,-0.33 0.47,-0.73 0.47,-1.21 0,-0.48 -0.16,-0.88 -0.48,-1.21 -0.32,-0.33 -0.71,-0.49 -1.16,-0.49z"/>
  <path id="_23" class="fil1" d="M76.9 22.44l-0.67 0.63c-0.45,-0.48 -0.96,-0.72 -1.53,-0.72 -0.48,0 -0.88,0.16 -1.21,0.49 -0.33,0.33 -0.49,0.73 -0.49,1.21 0,0.33 0.07,0.63 0.22,0.89 0.14,0.26 0.35,0.46 0.61,0.61 0.27,0.15 0.56,0.22 0.89,0.22 0.28,0 0.53,-0.05 0.76,-0.15 0.23,-0.1 0.48,-0.29 0.76,-0.56l0.65 0.68c-0.37,0.36 -0.72,0.61 -1.05,0.75 -0.33,0.14 -0.7,0.21 -1.13,0.21 -0.78,0 -1.41,-0.25 -1.91,-0.74 -0.5,-0.49 -0.74,-1.12 -0.74,-1.89 0,-0.5 0.11,-0.94 0.34,-1.33 0.23,-0.39 0.55,-0.7 0.97,-0.93 0.42,-0.24 0.87,-0.35 1.36,-0.35 0.41,0 0.81,0.09 1.19,0.26 0.38,0.17 0.71,0.42 0.99,0.74z"/>
  <path id="_24" class="fil1" d="M82.33 22.44l-0.67 0.63c-0.45,-0.48 -0.96,-0.72 -1.53,-0.72 -0.48,0 -0.88,0.16 -1.21,0.49 -0.33,0.33 -0.49,0.73 -0.49,1.21 0,0.33 0.07,0.63 0.22,0.89 0.14,0.26 0.35,0.46 0.61,0.61 0.27,0.15 0.56,0.22 0.89,0.22 0.28,0 0.53,-0.05 0.76,-0.15 0.23,-0.1 0.48,-0.29 0.76,-0.56l0.65 0.68c-0.37,0.36 -0.72,0.61 -1.05,0.75 -0.33,0.14 -0.7,0.21 -1.13,0.21 -0.78,0 -1.41,-0.25 -1.91,-0.74 -0.5,-0.49 -0.74,-1.12 -0.74,-1.89 0,-0.5 0.11,-0.94 0.34,-1.33 0.23,-0.39 0.55,-0.7 0.97,-0.93 0.42,-0.24 0.87,-0.35 1.36,-0.35 0.41,0 0.81,0.09 1.19,0.26 0.38,0.17 0.71,0.42 0.99,0.74z"/>
  <polygon id="_25" class="fil1" points="86.8,21.56 86.8,26.56 85.86,26.56 85.86,23.43 83.97,26.56 83.16,26.56 83.16,21.56 84.1,21.56 84.1,24.79 86.01,21.56 "/>
  <polygon id="_26" class="fil1" points="91.59,21.56 91.59,26.56 90.64,26.56 90.64,23.43 88.76,26.56 87.94,26.56 87.94,21.56 88.88,21.56 88.88,24.79 90.8,21.56 "/>
  <path class="fil2" d="M11.95 0l5.74 2.86 -6.2 12.12c3.03,0 5.6,1.08 7.72,3.24 2.12,2.17 3.18,4.85 3.18,8.07 0,3.1 -1.08,5.72 -3.26,7.88 -2.17,2.16 -4.8,3.23 -7.87,3.23 -3.22,0 -5.9,-1.12 -8.04,-3.36 -2.14,-2.23 -3.21,-4.8 -3.21,-7.69 0,-1.1 0.17,-2.21 0.5,-3.32 0.33,-1.12 1.1,-2.83 2.29,-5.14l9.16 -17.9zm-0.84 21.39c-1.26,0 -2.32,0.45 -3.18,1.37 -0.85,0.91 -1.28,2.05 -1.28,3.43 0,1.37 0.45,2.53 1.35,3.46 0.89,0.93 1.94,1.41 3.13,1.41 1.26,0 2.34,-0.46 3.24,-1.38 0.9,-0.93 1.36,-2.08 1.36,-3.49 0,-1.38 -0.44,-2.52 -1.32,-3.43 -0.88,-0.92 -1.98,-1.37 -3.3,-1.37z"/>
 </g>
</svg>
