<?xml version="1.0" encoding="UTF-8"?>
<!DOCTYPE svg PUBLIC "-//W3C//DTD SVG 1.1//EN" "http://www.w3.org/Graphics/SVG/1.1/DTD/svg11.dtd">
<!-- Creator: CorelDRAW 2019 (64-Bit) -->
<svg xmlns="http://www.w3.org/2000/svg" xml:space="preserve" width="9.73413cm" height="0.65617cm" version="1.1" style="shape-rendering:geometricPrecision; text-rendering:geometricPrecision; image-rendering:optimizeQuality; fill-rule:evenodd; clip-rule:evenodd"
viewBox="0 0 13.652 0.92"
 xmlns:xlink="http://www.w3.org/1999/xlink"
 xmlns:xodm="http://www.corel.com/coreldraw/odm/2003">
 <defs>
  <style type="text/css">
   <![CDATA[
    .fil0 {fill:#FF9400;fill-rule:nonzero}
   ]]>
  </style>
 </defs>
 <g id="Слой_x0020_1">
  <metadata id="CorelCorpID_0Corel-Layer"/>
  <path class="fil0" d="M0.151 0.247l-0.132 0c0.004,-0.077 0.028,-0.137 0.072,-0.181 0.045,-0.044 0.102,-0.066 0.172,-0.066 0.043,0 0.081,0.009 0.114,0.027 0.033,0.018 0.059,0.044 0.079,0.079 0.02,0.034 0.03,0.069 0.03,0.105 0,0.042 -0.012,0.088 -0.036,0.136 -0.024,0.049 -0.068,0.106 -0.132,0.173l-0.08 0.084 0.253 0 0 0.125 -0.493 0 0 -0.065 0.22 -0.224c0.053,-0.054 0.089,-0.097 0.106,-0.13 0.018,-0.033 0.026,-0.062 0.026,-0.089 0,-0.027 -0.009,-0.05 -0.027,-0.068 -0.018,-0.018 -0.042,-0.027 -0.07,-0.027 -0.029,0 -0.053,0.011 -0.073,0.032 -0.019,0.022 -0.03,0.051 -0.031,0.088z"/>
  <path id="1" class="fil0" d="M0.808 0c0.052,0 0.096,0.013 0.134,0.038 0.038,0.026 0.066,0.064 0.087,0.117 0.02,0.052 0.031,0.125 0.031,0.219 0,0.094 -0.01,0.168 -0.031,0.22 -0.021,0.052 -0.049,0.091 -0.084,0.116 -0.035,0.025 -0.079,0.037 -0.133,0.037 -0.053,0 -0.098,-0.012 -0.135,-0.037 -0.036,-0.025 -0.065,-0.063 -0.086,-0.113 -0.021,-0.05 -0.031,-0.122 -0.031,-0.216 0,-0.13 0.02,-0.225 0.06,-0.283 0.045,-0.064 0.107,-0.097 0.187,-0.097zm0.004 0.129c-0.023,0 -0.043,0.007 -0.061,0.022 -0.018,0.015 -0.031,0.04 -0.04,0.075 -0.009,0.036 -0.014,0.088 -0.014,0.157 0,0.09 0.011,0.152 0.032,0.186 0.021,0.034 0.049,0.051 0.083,0.051 0.033,0 0.059,-0.016 0.078,-0.049 0.023,-0.039 0.035,-0.105 0.035,-0.197 0,-0.093 -0.011,-0.157 -0.031,-0.193 -0.021,-0.035 -0.048,-0.053 -0.081,-0.053z"/>
  <path id="2" class="fil0" d="M1.26 0.247l-0.132 0c0.004,-0.077 0.028,-0.137 0.072,-0.181 0.045,-0.044 0.102,-0.066 0.172,-0.066 0.043,0 0.081,0.009 0.114,0.027 0.033,0.018 0.059,0.044 0.079,0.079 0.02,0.034 0.03,0.069 0.03,0.105 0,0.042 -0.012,0.088 -0.036,0.136 -0.024,0.049 -0.068,0.106 -0.132,0.173l-0.08 0.084 0.253 0 0 0.125 -0.493 0 0 -0.065 0.22 -0.224c0.053,-0.054 0.089,-0.097 0.106,-0.13 0.018,-0.033 0.026,-0.062 0.026,-0.089 0,-0.027 -0.009,-0.05 -0.027,-0.068 -0.018,-0.018 -0.042,-0.027 -0.07,-0.027 -0.029,0 -0.053,0.011 -0.073,0.032 -0.019,0.022 -0.03,0.051 -0.031,0.088z"/>
  <polygon id="3" class="fil0" points="1.804,0.018 2.007,0.018 2.007,0.728 1.872,0.728 1.872,0.144 1.726,0.144 "/>
  <polygon id="4" class="fil0" points="2.558,0.405 2.803,0.405 2.803,0.527 2.558,0.527 "/>
  <polygon id="5" class="fil0" points="3.245,0.018 3.599,0.018 3.599,0.15 3.38,0.15 3.38,0.728 3.245,0.728 "/>
  <path id="6" class="fil0" d="M3.937 0.19c0.05,0 0.096,0.012 0.14,0.037 0.044,0.025 0.078,0.058 0.102,0.101 0.025,0.043 0.037,0.088 0.037,0.137 0,0.049 -0.012,0.096 -0.037,0.139 -0.025,0.043 -0.058,0.077 -0.101,0.101 -0.043,0.024 -0.09,0.036 -0.141,0.036 -0.076,0 -0.14,-0.027 -0.193,-0.08 -0.053,-0.054 -0.08,-0.119 -0.08,-0.195 0,-0.082 0.03,-0.15 0.091,-0.205 0.053,-0.048 0.114,-0.071 0.182,-0.071zm0.002 0.124c-0.041,0 -0.075,0.014 -0.102,0.043 -0.027,0.029 -0.041,0.065 -0.041,0.109 0,0.046 0.014,0.082 0.04,0.111 0.027,0.028 0.061,0.042 0.102,0.042 0.041,0 0.076,-0.014 0.103,-0.043 0.027,-0.029 0.041,-0.065 0.041,-0.11 0,-0.045 -0.014,-0.081 -0.04,-0.11 -0.027,-0.028 -0.061,-0.042 -0.103,-0.042z"/>
  <path id="7" class="fil0" d="M4.391 0.728l0 0.091 -0.118 0 0 -0.203 0.079 0 0.182 -0.414 0.085 0 0.183 0.414 0.081 0 0 0.203 -0.126 0 0 -0.091 -0.367 0zm0.272 -0.112l-0.086 -0.222 -0.09 0.222 0.177 0z"/>
  <path id="8" class="fil0" d="M5.758 0.31l-0.11 0.06c-0.021,-0.022 -0.041,-0.036 -0.061,-0.045 -0.02,-0.008 -0.044,-0.013 -0.071,-0.013 -0.049,0 -0.089,0.015 -0.12,0.044 -0.031,0.029 -0.046,0.067 -0.046,0.113 0,0.045 0.015,0.081 0.044,0.109 0.029,0.028 0.068,0.042 0.115,0.042 0.059,0 0.105,-0.02 0.138,-0.06l0.104 0.071c-0.056,0.073 -0.136,0.11 -0.239,0.11 -0.093,0 -0.165,-0.027 -0.217,-0.082 -0.052,-0.055 -0.078,-0.118 -0.078,-0.192 0,-0.051 0.013,-0.097 0.038,-0.14 0.026,-0.043 0.061,-0.076 0.107,-0.101 0.046,-0.024 0.096,-0.037 0.153,-0.037 0.052,0 0.099,0.01 0.141,0.031 0.042,0.021 0.076,0.05 0.102,0.089z"/>
  <path id="9" class="fil0" d="M6.403 0.503l-0.423 0c0.006,0.037 0.022,0.067 0.049,0.09 0.026,0.022 0.06,0.033 0.101,0.033 0.049,0 0.091,-0.017 0.127,-0.052l0.11 0.052c-0.028,0.039 -0.061,0.068 -0.099,0.087 -0.039,0.019 -0.084,0.028 -0.137,0.028 -0.082,0 -0.149,-0.026 -0.201,-0.078 -0.052,-0.052 -0.078,-0.117 -0.078,-0.195 0,-0.08 0.026,-0.146 0.078,-0.199 0.052,-0.053 0.116,-0.079 0.194,-0.079 0.083,0 0.15,0.026 0.202,0.079 0.052,0.053 0.078,0.122 0.078,0.209l-0 0.025zm-0.131 -0.103c-0.009,-0.029 -0.026,-0.052 -0.051,-0.07 -0.026,-0.018 -0.055,-0.027 -0.089,-0.027 -0.037,0 -0.069,0.01 -0.097,0.03 -0.017,0.013 -0.033,0.035 -0.048,0.067l0.286 0z"/>
  <polygon id="10" class="fil0" points="6.981,0.728 6.848,0.728 6.715,0.396 6.58,0.728 6.447,0.728 6.671,0.203 6.756,0.203 "/>
  <path id="11" class="fil0" d="M7.439 0.203l0.132 0 0 0.525 -0.132 0 0 -0.056c-0.026,0.024 -0.052,0.042 -0.078,0.053 -0.026,0.011 -0.054,0.016 -0.084,0.016 -0.068,0 -0.127,-0.026 -0.176,-0.079 -0.05,-0.052 -0.074,-0.118 -0.074,-0.196 0,-0.081 0.024,-0.147 0.072,-0.199 0.048,-0.052 0.106,-0.077 0.175,-0.077 0.032,0 0.061,0.006 0.089,0.018 0.028,0.012 0.053,0.03 0.077,0.053l0 -0.058zm-0.139 0.108c-0.041,0 -0.075,0.014 -0.102,0.043 -0.027,0.029 -0.041,0.066 -0.041,0.111 0,0.045 0.014,0.083 0.041,0.112 0.028,0.029 0.061,0.044 0.102,0.044 0.041,0 0.076,-0.014 0.103,-0.043 0.027,-0.029 0.041,-0.066 0.041,-0.113 0,-0.046 -0.014,-0.083 -0.041,-0.111 -0.027,-0.028 -0.062,-0.042 -0.104,-0.042z"/>
  <path id="12" class="fil0" d="M7.98 0.728l0 -0.525 0.211 0c0.069,0 0.116,0.014 0.141,0.041 0.025,0.027 0.037,0.058 0.037,0.093 0,0.051 -0.025,0.088 -0.076,0.111 0.069,0.024 0.104,0.069 0.104,0.135 0,0.036 -0.009,0.065 -0.028,0.088 -0.018,0.023 -0.042,0.039 -0.07,0.047 -0.028,0.008 -0.067,0.012 -0.118,0.012l-0.202 0zm0.132 -0.319l0.051 0c0.022,0 0.039,-0.005 0.051,-0.016 0.012,-0.011 0.018,-0.023 0.018,-0.036 0,-0.02 -0.006,-0.035 -0.017,-0.046 -0.011,-0.011 -0.025,-0.016 -0.041,-0.016l-0.017 0 -0.045 0 0 0.114zm0 0.217l0.067 0c0.026,0 0.044,-0.006 0.055,-0.018 0.011,-0.012 0.016,-0.024 0.016,-0.035 0,-0.017 -0.006,-0.032 -0.018,-0.047 -0.012,-0.014 -0.033,-0.021 -0.064,-0.021l-0.056 0 0 0.121z"/>
  <path id="13" class="fil0" d="M8.999 0.567l-0.253 -0.55 0.153 0 0.168 0.397 0.138 -0.397 0.139 0 -0.189 0.509c-0.032,0.087 -0.068,0.145 -0.106,0.174 -0.038,0.029 -0.079,0.044 -0.122,0.044 -0.07,0 -0.135,-0.034 -0.194,-0.103l0.089 -0.089c0.035,0.041 0.07,0.062 0.105,0.062 0.015,0 0.028,-0.004 0.038,-0.011 0.01,-0.007 0.022,-0.019 0.036,-0.036z"/>
  <path id="14" class="fil0" d="M9.489 0.728l0 0.091 -0.118 0 0 -0.203 0.079 0 0.182 -0.414 0.085 0 0.183 0.414 0.081 0 0 0.203 -0.126 0 0 -0.091 -0.367 0zm0.272 -0.112l-0.086 -0.222 -0.09 0.222 0.177 0z"/>
  <polygon id="15" class="fil0" points="10.387,0.534 10.55,0.203 10.637,0.203 10.768,0.728 10.639,0.728 10.568,0.42 10.411,0.728 10.357,0.728 10.204,0.42 10.133,0.728 10.005,0.728 10.136,0.203 10.223,0.203 "/>
  <polygon id="16" class="fil0" points="10.781,0.203 10.917,0.203 11.053,0.532 11.203,0.203 11.338,0.203 11.01,0.92 10.875,0.92 10.981,0.69 "/>
  <path id="17" class="fil0" d="M11.545 0.203l0 0.058c0.024,-0.023 0.049,-0.041 0.077,-0.053 0.028,-0.012 0.057,-0.018 0.089,-0.018 0.068,0 0.127,0.026 0.175,0.077 0.048,0.052 0.072,0.118 0.072,0.199 0,0.078 -0.025,0.143 -0.074,0.196 -0.049,0.053 -0.108,0.079 -0.176,0.079 -0.03,0 -0.058,-0.005 -0.084,-0.016 -0.026,-0.011 -0.052,-0.028 -0.078,-0.053l0 0.248 -0.132 0 0 -0.717 0.132 0zm0.138 0.108c-0.041,0 -0.076,0.014 -0.103,0.042 -0.027,0.028 -0.041,0.065 -0.041,0.111 0,0.047 0.014,0.084 0.041,0.113 0.027,0.029 0.062,0.043 0.103,0.043 0.04,0 0.074,-0.015 0.102,-0.044 0.028,-0.029 0.041,-0.067 0.041,-0.112 0,-0.045 -0.014,-0.082 -0.041,-0.111 -0.027,-0.029 -0.061,-0.043 -0.102,-0.043z"/>
  <polygon id="18" class="fil0" points="12.021,0.203 12.51,0.203 12.51,0.329 12.335,0.329 12.335,0.728 12.204,0.728 12.204,0.329 12.021,0.329 "/>
  <polygon id="19" class="fil0" points="12.667,0.728 12.597,0.728 12.597,0.203 12.725,0.203 12.725,0.511 12.994,0.203 13.058,0.203 13.058,0.728 12.929,0.728 12.929,0.426 "/>
  <polygon id="20" class="fil0" points="13.261,0.728 13.191,0.728 13.191,0.203 13.319,0.203 13.319,0.511 13.588,0.203 13.652,0.203 13.652,0.728 13.523,0.728 13.523,0.426 "/>
 </g>
</svg>
