<?xml version="1.0" encoding="UTF-8" standalone="no"?>
<svg
   xmlns:dc="http://purl.org/dc/elements/1.1/"
   xmlns:cc="http://creativecommons.org/ns#"
   xmlns:rdf="http://www.w3.org/1999/02/22-rdf-syntax-ns#"
   xmlns:svg="http://www.w3.org/2000/svg"
   xmlns="http://www.w3.org/2000/svg"
   xmlns:sodipodi="http://sodipodi.sourceforge.net/DTD/sodipodi-0.dtd"
   xmlns:inkscape="http://www.inkscape.org/namespaces/inkscape"
   sodipodi:docname="1strTextStr.svg"
   inkscape:version="1.0 (4035a4fb49, 2020-05-01)"
   id="svg8"
   version="1.1"
   viewBox="0 0 190.99612 9.1928918"
   height="34.744781"
   width="721.87445">
  <defs
     id="defs2">
    <clipPath
       id="clipPath7909"
       clipPathUnits="userSpaceOnUse">
      <g
         inkscape:label="Clip"
         id="use7911">
        <text
           id="text335"
           y="384.59238"
           x="82.876579"
           style="font-style:normal;font-weight:normal;font-size:10.5833px;line-height:1.25;font-family:sans-serif;letter-spacing:0px;word-spacing:0px;fill:#ffffff;fill-opacity:1;stroke:none;stroke-width:0.264583"
           xml:space="preserve"><tspan
             style="font-style:normal;font-variant:normal;font-weight:normal;font-stretch:normal;font-size:3.52778px;font-family:EuropeDemi;-inkscape-font-specification:EuropeDemi;fill:#ffffff;stroke-width:0.264583"
             y="384.59238"
             x="82.876579"
             id="tspan333"
             sodipodi:role="line"><tspan
               id="tspan331"
               style="font-size:2.82222px">ГЛАЗОВСКАЯ РАЙОННАЯ БИБЛИОТЕКА</tspan></tspan></text>
      </g>
    </clipPath>
  </defs>
  <sodipodi:namedview
     inkscape:document-rotation="0"
     inkscape:pagecheckerboard="true"
     showborder="true"
     inkscape:window-maximized="1"
     inkscape:window-y="-8"
     inkscape:window-x="-8"
     inkscape:window-height="972"
     inkscape:window-width="1280"
     units="px"
     showguides="false"
     inkscape:lockguides="false"
     showgrid="false"
     inkscape:current-layer="text4840"
     inkscape:document-units="mm"
     inkscape:cy="-75.144126"
     inkscape:cx="395.24992"
     inkscape:zoom="1.154038"
     inkscape:pageshadow="2"
     inkscape:pageopacity="0.0"
     borderopacity="1.0"
     bordercolor="#666666"
     pagecolor="#ffffff"
     id="base" />
  <metadata
     id="metadata5">
    <rdf:RDF>
      <cc:Work
         rdf:about="">
        <dc:format>image/svg+xml</dc:format>
        <dc:type
           rdf:resource="http://purl.org/dc/dcmitype/StillImage" />
        <dc:title />
      </cc:Work>
    </rdf:RDF>
  </metadata>
  <g
     transform="translate(19.049625,-268.58188)"
     id="layer1"
     inkscape:groupmode="layer"
     inkscape:label="Layer 1">
    <g
       style="font-style:normal;font-weight:normal;font-size:11.6417px;line-height:1.25;font-family:sans-serif;letter-spacing:0px;word-spacing:0px;fill:#ff9400;fill-opacity:1;fill-rule:nonzero;stroke:none;stroke-width:1.18025"
       id="text4840"
       aria-label="Государственность Удмуртии">
      <g
         style="font-style:normal;font-weight:normal;font-size:47.2099px;line-height:1.25;font-family:sans-serif;letter-spacing:0px;word-spacing:0px;fill:#ff9400;fill-opacity:1;fill-rule:nonzero;stroke:none;stroke-width:1.18025"
         id="text4840-0"
         aria-label="100 лет государственности Удмуртии">
        <path
           id="path57"
           style="font-style:normal;font-variant:normal;font-weight:bold;font-stretch:normal;font-size:9.87777px;line-height:0.25;font-family:'Century Gothic';-inkscape-font-specification:'Century Gothic Bold';fill:#ff9400;fill-opacity:1;fill-rule:nonzero;stroke-width:1.18025"
           d="m -18.268278,268.76034 h 2.020891 v 7.09482 h -1.34083 v -5.82634 h -1.461408 z" />
        <path
           id="path59"
           style="font-style:normal;font-variant:normal;font-weight:bold;font-stretch:normal;font-size:9.87777px;line-height:0.25;font-family:'Century Gothic';-inkscape-font-specification:'Century Gothic Bold';fill:#ff9400;fill-opacity:1;fill-rule:nonzero;stroke-width:1.18025"
           d="m -11.612358,268.58188 q 0.776523,0 1.336007,0.38103 0.5643058,0.38103 0.868163,1.1672 0.3086803,0.78135 0.3086803,2.18005 0,1.41318 -0.3135035,2.19935 -0.3086803,0.78617 -0.8344018,1.15755 -0.525721,0.36656 -1.32636,0.36656 -0.80064,0 -1.345654,-0.37138 -0.545013,-0.37138 -0.853694,-1.12861 -0.30868,-0.75724 -0.30868,-2.15594 0,-1.95337 0.602891,-2.83118 0.670415,-0.96463 1.866552,-0.96463 z m 0.03376,1.28296 q -0.342442,0 -0.607714,0.22186 -0.265272,0.21704 -0.405143,0.75241 -0.139871,0.53537 -0.139871,1.56752 0,1.34565 0.318327,1.86172 0.32315,0.51126 0.834401,0.51126 0.49196,0 0.781348,-0.48714 0.352088,-0.58842 0.352088,-1.96784 0,-1.39871 -0.318327,-1.92925 -0.313503,-0.53054 -0.815109,-0.53054 z" />
        <path
           id="path61"
           style="font-style:normal;font-variant:normal;font-weight:bold;font-stretch:normal;font-size:9.87777px;line-height:0.25;font-family:'Century Gothic';-inkscape-font-specification:'Century Gothic Bold';fill:#ff9400;fill-opacity:1;fill-rule:nonzero;stroke-width:1.18025"
           d="m -6.075405,268.58188 q 0.7765239,0 1.336007,0.38103 0.5643062,0.38103 0.8681634,1.1672 0.3086804,0.78135 0.3086804,2.18005 0,1.41318 -0.3135035,2.19935 -0.3086803,0.78617 -0.8344015,1.15755 -0.5257212,0.36656 -1.3263608,0.36656 -0.8006396,0 -1.3456533,-0.37138 -0.5450137,-0.37138 -0.853694,-1.12861 -0.3086803,-0.75724 -0.3086803,-2.15594 0,-1.95337 0.6028912,-2.83118 0.6704151,-0.96463 1.8665514,-0.96463 z m 0.033762,1.28296 q -0.3424422,0 -0.6077144,0.22186 -0.2652722,0.21704 -0.4051429,0.75241 -0.1398708,0.53537 -0.1398708,1.56752 0,1.34565 0.3183266,1.86172 0.3231497,0.51126 0.8344015,0.51126 0.4919593,0 0.7813471,-0.48714 0.3520885,-0.58842 0.3520885,-1.96784 0,-1.39871 -0.3183266,-1.92925 -0.3135035,-0.53054 -0.815109,-0.53054 z" />
        <path
           id="path63"
           style="font-style:normal;font-variant:normal;font-weight:bold;font-stretch:normal;font-size:9.87777px;line-height:0.25;font-family:'Century Gothic';-inkscape-font-specification:'Century Gothic Bold';fill:#ff9400;fill-opacity:1;fill-rule:nonzero;stroke-width:1.18025"
           d="M 4.8296914,275.85516 H 3.4888612 l -1.3118914,-3.31349 -1.33600699,3.31349 H -0.49504422 L 1.7428881,270.6076 H 2.591759 Z" />
        <path
           id="path65"
           style="font-style:normal;font-variant:normal;font-weight:bold;font-stretch:normal;font-size:9.87777px;line-height:0.25;font-family:'Century Gothic';-inkscape-font-specification:'Century Gothic Bold';fill:#ff9400;fill-opacity:1;fill-rule:nonzero;stroke-width:1.18025"
           d="M 10.781435,273.61241 H 6.5515498 q 0.09164,0.55948 0.4871361,0.89228 0.4003198,0.32797 1.0176805,0.32797 0.7379389,0 1.2684832,-0.51607 l 1.1093204,0.52089 q -0.41479,0.58842 -0.9935653,0.87299 -0.5787756,0.27974 -1.3745921,0.27974 -1.2347213,0 -2.0112452,-0.77652 -0.7765239,-0.78135 -0.7765239,-1.95337 0,-1.20096 0.7717008,-1.99195 0.7765239,-0.79582 1.9437214,-0.79582 1.2395444,0 2.0160683,0.79582 0.776524,0.79099 0.776524,2.09324 z m -1.3215378,-1.03697 q -0.1302245,-0.43891 -0.5160749,-0.71383 -0.3810273,-0.27492 -0.8874559,-0.27492 -0.5498368,0 -0.964626,0.30868 -0.2604491,0.19293 -0.482313,0.68007 z" />
        <path
           id="path67"
           style="font-style:normal;font-variant:normal;font-weight:bold;font-stretch:normal;font-size:9.87777px;line-height:0.25;font-family:'Century Gothic';-inkscape-font-specification:'Century Gothic Bold';fill:#ff9400;fill-opacity:1;fill-rule:nonzero;stroke-width:1.18025"
           d="m 11.384325,270.6076 h 4.890654 v 1.25401 h -1.74115 v 3.99355 h -1.321538 v -3.99355 h -1.827966 z" />
        <path
           id="path69"
           style="font-style:normal;font-variant:normal;font-weight:bold;font-stretch:normal;font-size:9.87777px;line-height:0.25;font-family:'Century Gothic';-inkscape-font-specification:'Century Gothic Bold';fill:#ff9400;fill-opacity:1;fill-rule:nonzero;stroke-width:1.18025"
           d="m 19.892329,270.6076 h 3.062687 v 1.25401 h -1.74115 v 3.99355 h -1.321537 z" />
        <path
           id="path71"
           style="font-style:normal;font-variant:normal;font-weight:bold;font-stretch:normal;font-size:9.87777px;line-height:0.25;font-family:'Century Gothic';-inkscape-font-specification:'Century Gothic Bold';fill:#ff9400;fill-opacity:1;fill-rule:nonzero;stroke-width:1.18025"
           d="m 26.316735,270.47255 q 0.742762,0 1.393884,0.37138 0.655946,0.37138 1.022504,1.00804 0.366558,0.63665 0.366558,1.37459 0,0.74276 -0.371381,1.38906 -0.366558,0.6463 -1.003211,1.01286 -0.636653,0.36173 -1.403531,0.36173 -1.128612,0 -1.929252,-0.80064 -0.795817,-0.80546 -0.795817,-1.95337 0,-1.22989 0.901926,-2.04983 0.790993,-0.71382 1.81832,-0.71382 z m 0.01929,1.23954 q -0.612537,0 -1.022503,0.42926 -0.405143,0.42444 -0.405143,1.09003 0,0.68489 0.40032,1.10932 0.405143,0.42444 1.022503,0.42444 0.617361,0 1.027327,-0.42926 0.409966,-0.42926 0.409966,-1.1045 0,-0.67524 -0.405143,-1.09485 -0.40032,-0.42444 -1.027327,-0.42444 z" />
        <path
           id="path73"
           style="font-style:normal;font-variant:normal;font-weight:bold;font-stretch:normal;font-size:9.87777px;line-height:0.25;font-family:'Century Gothic';-inkscape-font-specification:'Century Gothic Bold';fill:#ff9400;fill-opacity:1;fill-rule:nonzero;stroke-width:1.18025"
           d="m 35.316698,271.66869 -1.09485,0.60289 q -0.30868,-0.32315 -0.612538,-0.44855 -0.299034,-0.1254 -0.704177,-0.1254 -0.737938,0 -1.196136,0.44372 -0.453374,0.43891 -0.453374,1.12862 0,0.67041 0.438905,1.09485 0.438905,0.42443 1.152728,0.42443 0.882633,0 1.374592,-0.60289 l 1.036973,0.709 q -0.844048,1.09485 -2.382626,1.09485 -1.384239,0 -2.170409,-0.81993 -0.781347,-0.81993 -0.781347,-1.91961 0,-0.76205 0.381027,-1.40353 0.381028,-0.64147 1.061089,-1.00803 0.684884,-0.36656 1.528932,-0.36656 0.781347,0 1.403531,0.3135 0.622184,0.30868 1.01768,0.88264 z" />
        <path
           id="path75"
           style="font-style:normal;font-variant:normal;font-weight:bold;font-stretch:normal;font-size:9.87777px;line-height:0.25;font-family:'Century Gothic';-inkscape-font-specification:'Century Gothic Bold';fill:#ff9400;fill-opacity:1;fill-rule:nonzero;stroke-width:1.18025"
           d="m 35.924412,270.6076 h 1.345653 l 1.364946,3.2942 1.504817,-3.2942 h 1.350476 l -3.289375,7.16717 h -1.360122 l 1.080381,-2.31028 z" />
        <path
           id="path77"
           style="font-style:normal;font-variant:normal;font-weight:bold;font-stretch:normal;font-size:9.87777px;line-height:0.25;font-family:'Century Gothic';-inkscape-font-specification:'Century Gothic Bold';fill:#ff9400;fill-opacity:1;fill-rule:nonzero;stroke-width:1.18025"
           d="m 42.917949,275.85516 v 0.91158 h -1.17202 v -2.02572 h 0.790993 l 1.808674,-4.13342 h 0.848871 l 1.832789,4.13342 h 0.805463 v 2.02572 h -1.254014 v -0.91158 z m 2.7106,-1.11414 -0.858518,-2.20899 -0.887456,2.20899 z" />
        <path
           id="path80"
           style="font-style:normal;font-variant:normal;font-weight:bold;font-stretch:normal;font-size:9.87777px;line-height:0.25;font-family:'Century Gothic';-inkscape-font-specification:'Century Gothic Bold';fill:#ff9400;fill-opacity:1;fill-rule:nonzero;stroke-width:1.18025"
           d="m 52.540096,270.6076 h 1.311892 v 5.24756 h -1.311892 v -0.55466 q -0.38585,0.36656 -0.776523,0.53055 -0.385851,0.15916 -0.839225,0.15916 -1.017681,0 -1.760443,-0.78617 -0.742762,-0.79099 -0.742762,-1.96301 0,-1.21543 0.718647,-1.99196 0.718646,-0.77652 1.745973,-0.77652 0.472667,0 0.887456,0.17846 0.414789,0.17845 0.766877,0.53536 z m -1.384238,1.08038 q -0.612537,0 -1.01768,0.43408 -0.405143,0.42926 -0.405143,1.1045 0,0.68006 0.409966,1.11896 0.414789,0.43891 1.01768,0.43891 0.622184,0 1.03215,-0.42926 0.409966,-0.43408 0.409966,-1.13344 0,-0.68488 -0.409966,-1.10932 -0.409966,-0.42443 -1.036973,-0.42443 z" />
        <path
           id="path82"
           style="font-style:normal;font-variant:normal;font-weight:bold;font-stretch:normal;font-size:9.87777px;line-height:0.25;font-family:'Century Gothic';-inkscape-font-specification:'Century Gothic Bold';fill:#ff9400;fill-opacity:1;fill-rule:nonzero;stroke-width:1.18025"
           d="m 56.490242,270.6076 v 0.57877 q 0.356912,-0.35691 0.771701,-0.53536 0.414789,-0.17846 0.887456,-0.17846 1.027327,0 1.745973,0.77652 0.718646,0.77653 0.718646,1.99196 0,1.17202 -0.742762,1.96301 -0.742762,0.78617 -1.760442,0.78617 -0.453374,0 -0.844048,-0.15916 -0.390673,-0.16399 -0.776524,-0.53055 v 2.47427 h -1.307068 v -7.16717 z m 1.384238,1.08038 q -0.622183,0 -1.032149,0.42443 -0.409966,0.42444 -0.409966,1.10932 0,0.69936 0.409966,1.13344 0.409966,0.42926 1.032149,0.42926 0.602892,0 1.012858,-0.43891 0.414789,-0.4389 0.414789,-1.11896 0,-0.67524 -0.405143,-1.1045 -0.405143,-0.43408 -1.022504,-0.43408 z" />
        <path
           id="path84"
           style="font-style:normal;font-variant:normal;font-weight:bold;font-stretch:normal;font-size:9.87777px;line-height:0.25;font-family:'Century Gothic';-inkscape-font-specification:'Century Gothic Bold';fill:#ff9400;fill-opacity:1;fill-rule:nonzero;stroke-width:1.18025"
           d="m 66.840674,271.66869 -1.094851,0.60289 q -0.30868,-0.32315 -0.612537,-0.44855 -0.299034,-0.1254 -0.704177,-0.1254 -0.737939,0 -1.196136,0.44372 -0.453375,0.43891 -0.453375,1.12862 0,0.67041 0.438905,1.09485 0.438905,0.42443 1.152728,0.42443 0.882633,0 1.374592,-0.60289 l 1.036973,0.709 q -0.844047,1.09485 -2.382626,1.09485 -1.384238,0 -2.170409,-0.81993 -0.781347,-0.81993 -0.781347,-1.91961 0,-0.76205 0.381028,-1.40353 0.381027,-0.64147 1.061088,-1.00803 0.684885,-0.36656 1.528933,-0.36656 0.781347,0 1.40353,0.3135 0.622184,0.30868 1.017681,0.88264 z" />
        <path
           id="path86"
           style="font-style:normal;font-variant:normal;font-weight:bold;font-stretch:normal;font-size:9.87777px;line-height:0.25;font-family:'Century Gothic';-inkscape-font-specification:'Century Gothic Bold';fill:#ff9400;fill-opacity:1;fill-rule:nonzero;stroke-width:1.18025"
           d="M 67.564146,270.6076 H 72.4548 v 1.25401 h -1.74115 v 3.99355 h -1.321538 v -3.99355 h -1.827966 z" />
        <path
           id="path88"
           style="font-style:normal;font-variant:normal;font-weight:bold;font-stretch:normal;font-size:9.87777px;line-height:0.25;font-family:'Century Gothic';-inkscape-font-specification:'Century Gothic Bold';fill:#ff9400;fill-opacity:1;fill-rule:nonzero;stroke-width:1.18025"
           d="m 73.318138,275.85516 v -5.24756 h 2.107708 q 1.036973,0 1.408354,0.40996 0.371381,0.40515 0.371381,0.92122 0,0.76688 -0.762055,1.1045 1.041796,0.35691 1.041796,1.34565 0,0.53537 -0.274918,0.88746 -0.274919,0.34726 -0.699354,0.46302 -0.419612,0.11575 -1.176844,0.11575 z m 1.321538,-3.18326 h 0.506428 q 0.32315,0 0.496783,-0.15917 0.178455,-0.16398 0.178455,-0.36173 0,-0.29421 -0.168809,-0.4582 -0.16881,-0.16398 -0.40032,-0.16398 l -0.16881,0.005 h -0.443727 z m 0,2.17041 h 0.660768 q 0.385851,0 0.540191,-0.17846 0.159163,-0.18328 0.159163,-0.35691 0,-0.25563 -0.178456,-0.46784 -0.173632,-0.21222 -0.63183,-0.21222 h -0.549836 z" />
        <path
           id="path90"
           style="font-style:normal;font-variant:normal;font-weight:bold;font-stretch:normal;font-size:9.87777px;line-height:0.25;font-family:'Century Gothic';-inkscape-font-specification:'Century Gothic Bold';fill:#ff9400;fill-opacity:1;fill-rule:nonzero;stroke-width:1.18025"
           d="M 83.861505,273.61241 H 79.63162 q 0.09164,0.55948 0.487136,0.89228 0.40032,0.32797 1.017681,0.32797 0.737939,0 1.268483,-0.51607 l 1.10932,0.52089 q -0.414789,0.58842 -0.993565,0.87299 -0.578775,0.27974 -1.374592,0.27974 -1.234721,0 -2.011245,-0.77652 -0.776524,-0.78135 -0.776524,-1.95337 0,-1.20096 0.771701,-1.99195 0.776524,-0.79582 1.943721,-0.79582 1.239545,0 2.016069,0.79582 0.776524,0.79099 0.776524,2.09324 z m -1.321537,-1.03697 q -0.130225,-0.43891 -0.516075,-0.71383 -0.381027,-0.27492 -0.887456,-0.27492 -0.549837,0 -0.964626,0.30868 -0.260449,0.19293 -0.482313,0.68007 z" />
        <path
           id="path92"
           style="font-style:normal;font-variant:normal;font-weight:bold;font-stretch:normal;font-size:9.87777px;line-height:0.25;font-family:'Century Gothic';-inkscape-font-specification:'Century Gothic Bold';fill:#ff9400;fill-opacity:1;fill-rule:nonzero;stroke-width:1.18025"
           d="m 86.24895,272.49827 h 1.958191 v -1.89067 h 1.321537 v 5.24756 h -1.321537 v -2.17523 H 86.24895 v 2.17523 h -1.321538 v -5.24756 h 1.321538 z" />
        <path
           id="path94"
           style="font-style:normal;font-variant:normal;font-weight:bold;font-stretch:normal;font-size:9.87777px;line-height:0.25;font-family:'Century Gothic';-inkscape-font-specification:'Century Gothic Bold';fill:#ff9400;fill-opacity:1;fill-rule:nonzero;stroke-width:1.18025"
           d="m 92.171756,272.49827 h 1.958191 v -1.89067 h 1.321537 v 5.24756 h -1.321537 v -2.17523 h -1.958191 v 2.17523 h -1.321538 v -5.24756 h 1.321538 z" />
        <path
           id="path96"
           style="font-style:normal;font-variant:normal;font-weight:bold;font-stretch:normal;font-size:9.87777px;line-height:0.25;font-family:'Century Gothic';-inkscape-font-specification:'Century Gothic Bold';fill:#ff9400;fill-opacity:1;fill-rule:nonzero;stroke-width:1.18025"
           d="m 99.242467,270.47255 q 0.742762,0 1.393883,0.37138 0.65595,0.37138 1.0225,1.00804 0.36656,0.63665 0.36656,1.37459 0,0.74276 -0.37138,1.38906 -0.36656,0.6463 -1.00321,1.01286 -0.63665,0.36173 -1.40353,0.36173 -1.128613,0 -1.929252,-0.80064 -0.795817,-0.80546 -0.795817,-1.95337 0,-1.22989 0.901925,-2.04983 0.790994,-0.71382 1.818321,-0.71382 z m 0.01929,1.23954 q -0.612537,0 -1.022504,0.42926 -0.405142,0.42444 -0.405142,1.09003 0,0.68489 0.400319,1.10932 0.405143,0.42444 1.022504,0.42444 0.617361,0 1.027326,-0.42926 0.40997,-0.42926 0.40997,-1.1045 0,-0.67524 -0.40514,-1.09485 -0.400326,-0.42444 -1.027333,-0.42444 z" />
        <path
           id="path98"
           style="font-style:normal;font-variant:normal;font-weight:bold;font-stretch:normal;font-size:9.87777px;line-height:0.25;font-family:'Century Gothic';-inkscape-font-specification:'Century Gothic Bold';fill:#ff9400;fill-opacity:1;fill-rule:nonzero;stroke-width:1.18025"
           d="m 108.24242,271.66869 -1.09485,0.60289 q -0.30868,-0.32315 -0.61254,-0.44855 -0.29903,-0.1254 -0.70417,-0.1254 -0.73794,0 -1.19614,0.44372 -0.45337,0.43891 -0.45337,1.12862 0,0.67041 0.4389,1.09485 0.43891,0.42443 1.15273,0.42443 0.88263,0 1.37459,-0.60289 l 1.03697,0.709 q -0.84404,1.09485 -2.38262,1.09485 -1.38424,0 -2.17041,-0.81993 -0.78135,-0.81993 -0.78135,-1.91961 0,-0.76205 0.38103,-1.40353 0.38103,-0.64147 1.06109,-1.00803 0.68488,-0.36656 1.52893,-0.36656 0.78135,0 1.40353,0.3135 0.62219,0.30868 1.01768,0.88264 z" />
        <path
           id="path100"
           style="font-style:normal;font-variant:normal;font-weight:bold;font-stretch:normal;font-size:9.87777px;line-height:0.25;font-family:'Century Gothic';-inkscape-font-specification:'Century Gothic Bold';fill:#ff9400;fill-opacity:1;fill-rule:nonzero;stroke-width:1.18025"
           d="m 108.96589,270.6076 h 4.89066 v 1.25401 h -1.74115 v 3.99355 h -1.32154 v -3.99355 h -1.82797 z" />
        <path
           id="path102"
           style="font-style:normal;font-variant:normal;font-weight:bold;font-stretch:normal;font-size:9.87777px;line-height:0.25;font-family:'Century Gothic';-inkscape-font-specification:'Century Gothic Bold';fill:#ff9400;fill-opacity:1;fill-rule:nonzero;stroke-width:1.18025"
           d="m 115.41442,275.85516 h -0.69936 v -5.24756 h 1.28296 v 3.08198 l 2.68648,-3.08198 h 0.63183 v 5.24756 h -1.28295 v -3.01928 z" />
        <path
           id="path104"
           style="font-style:normal;font-variant:normal;font-weight:bold;font-stretch:normal;font-size:9.87777px;line-height:0.25;font-family:'Century Gothic';-inkscape-font-specification:'Century Gothic Bold';fill:#ff9400;fill-opacity:1;fill-rule:nonzero;stroke-width:1.18025"
           d="m 125.52853,274.23459 -2.51768,-5.47425 h 1.52411 l 1.66881,3.95497 1.36976,-3.95497 h 1.38907 l -1.89067,5.07393 q -0.48714,1.30225 -1.06109,1.74598 -0.56913,0.4389 -1.21543,0.4389 -1.05144,0 -1.9389,-1.03215 l 0.88746,-0.89228 q 0.53054,0.61736 1.04662,0.61736 0.23151,0 0.38103,-0.11093 0.14951,-0.11093 0.35691,-0.36656 z" />
        <path
           id="path106"
           style="font-style:normal;font-variant:normal;font-weight:bold;font-stretch:normal;font-size:9.87777px;line-height:0.25;font-family:'Century Gothic';-inkscape-font-specification:'Century Gothic Bold';fill:#ff9400;fill-opacity:1;fill-rule:nonzero;stroke-width:1.18025"
           d="m 130.40953,275.85516 v 0.91158 h -1.17202 v -2.02572 h 0.79099 l 1.80868,-4.13342 h 0.84887 l 1.83279,4.13342 h 0.80546 v 2.02572 h -1.25401 v -0.91158 z m 2.7106,-1.11414 -0.85852,-2.20899 -0.88745,2.20899 z" />
        <path
           id="path108"
           style="font-style:normal;font-variant:normal;font-weight:bold;font-stretch:normal;font-size:9.87777px;line-height:0.25;font-family:'Century Gothic';-inkscape-font-specification:'Century Gothic Bold';fill:#ff9400;fill-opacity:1;fill-rule:nonzero;stroke-width:1.18025"
           d="m 139.36608,273.91627 1.61093,-3.30867 h 0.86816 l 1.31189,5.24756 h -1.28777 l -0.69936,-3.07715 -1.56269,3.07715 h -0.54019 l -1.52893,-3.07715 -0.70418,3.07715 h -1.28295 l 1.31189,-5.24756 h 0.86816 z" />
        <path
           id="path110"
           style="font-style:normal;font-variant:normal;font-weight:bold;font-stretch:normal;font-size:9.87777px;line-height:0.25;font-family:'Century Gothic';-inkscape-font-specification:'Century Gothic Bold';fill:#ff9400;fill-opacity:1;fill-rule:nonzero;stroke-width:1.18025"
           d="m 143.30658,270.6076 h 1.34565 l 1.36494,3.2942 1.50482,-3.2942 h 1.35048 l -3.28938,7.16717 h -1.36012 l 1.08038,-2.31028 z" />
        <path
           id="path112"
           style="font-style:normal;font-variant:normal;font-weight:bold;font-stretch:normal;font-size:9.87777px;line-height:0.25;font-family:'Century Gothic';-inkscape-font-specification:'Century Gothic Bold';fill:#ff9400;fill-opacity:1;fill-rule:nonzero;stroke-width:1.18025"
           d="m 150.92713,270.6076 v 0.57877 q 0.35691,-0.35691 0.7717,-0.53536 0.41479,-0.17846 0.88746,-0.17846 1.02733,0 1.74597,0.77652 0.71865,0.77653 0.71865,1.99196 0,1.17202 -0.74276,1.96301 -0.74277,0.78617 -1.76045,0.78617 -0.45337,0 -0.84404,-0.15916 -0.39068,-0.16399 -0.77653,-0.53055 v 2.47427 h -1.30707 v -7.16717 z m 1.38424,1.08038 q -0.62218,0 -1.03215,0.42443 -0.40997,0.42444 -0.40997,1.10932 0,0.69936 0.40997,1.13344 0.40997,0.42926 1.03215,0.42926 0.60289,0 1.01286,-0.43891 0.41479,-0.4389 0.41479,-1.11896 0,-0.67524 -0.40515,-1.1045 -0.40514,-0.43408 -1.0225,-0.43408 z" />
        <path
           id="path115"
           style="font-style:normal;font-variant:normal;font-weight:bold;font-stretch:normal;font-size:9.87777px;line-height:0.25;font-family:'Century Gothic';-inkscape-font-specification:'Century Gothic Bold';fill:#ff9400;fill-opacity:1;fill-rule:nonzero;stroke-width:1.18025"
           d="m 155.67308,270.6076 h 4.89065 v 1.25401 h -1.74115 v 3.99355 h -1.32154 v -3.99355 h -1.82796 z" />
        <path
           id="path117"
           style="font-style:normal;font-variant:normal;font-weight:bold;font-stretch:normal;font-size:9.87777px;line-height:0.25;font-family:'Century Gothic';-inkscape-font-specification:'Century Gothic Bold';fill:#ff9400;fill-opacity:1;fill-rule:nonzero;stroke-width:1.18025"
           d="m 162.12162,275.85516 h -0.69936 v -5.24756 h 1.28296 v 3.08198 l 2.68648,-3.08198 h 0.63183 v 5.24756 h -1.28295 v -3.01928 z" />
        <path
           id="path119"
           style="font-style:normal;font-variant:normal;font-weight:bold;font-stretch:normal;font-size:9.87777px;line-height:0.25;font-family:'Century Gothic';-inkscape-font-specification:'Century Gothic Bold';fill:#ff9400;fill-opacity:1;fill-rule:nonzero;stroke-width:1.18025"
           d="m 168.04442,275.85516 h -0.69935 v -5.24756 h 1.28295 v 3.08198 l 2.68648,-3.08198 h 0.63183 v 5.24756 h -1.28295 v -3.01928 z" />
      </g>
    </g>
  </g>
</svg>
