<?xml version="1.0" encoding="UTF-8"?>
<!DOCTYPE svg PUBLIC "-//W3C//DTD SVG 1.1//EN" "http://www.w3.org/Graphics/SVG/1.1/DTD/svg11.dtd">
<!-- Creator: CorelDRAW -->
<svg xmlns="http://www.w3.org/2000/svg" xml:space="preserve" width="97.6307mm" height="5.7912mm" version="1.1" style="shape-rendering:geometricPrecision; text-rendering:geometricPrecision; image-rendering:optimizeQuality; fill-rule:evenodd; clip-rule:evenodd"
viewBox="0 0 131.34 7.79"
 xmlns:xlink="http://www.w3.org/1999/xlink"
 xmlns:xodm="http://www.corel.com/coreldraw/odm/2003">
 <defs>
  <style type="text/css">
   <![CDATA[
    .fil0 {fill:#C29138;fill-rule:nonzero}
   ]]>
  </style>
 </defs>
 <g id="Слой_x0020_1">
  <metadata id="CorelCorpID_0Corel-Layer"/>
  <polygon class="fil0" points="-0,0 3.05,0 3.05,1.14 1.16,1.14 1.16,6.13 -0,6.13 "/>
  <path id="_1" class="fil0" d="M5.97 1.49c0.43,0 0.83,0.11 1.21,0.32 0.38,0.21 0.67,0.5 0.88,0.87 0.21,0.37 0.32,0.76 0.32,1.19 0,0.43 -0.11,0.83 -0.32,1.2 -0.21,0.37 -0.5,0.66 -0.87,0.87 -0.37,0.21 -0.77,0.31 -1.22,0.31 -0.65,0 -1.21,-0.23 -1.67,-0.69 -0.46,-0.46 -0.69,-1.02 -0.69,-1.68 0,-0.71 0.26,-1.3 0.78,-1.77 0.46,-0.41 0.98,-0.62 1.57,-0.62zm0.02 1.07c-0.35,0 -0.65,0.12 -0.88,0.37 -0.24,0.25 -0.35,0.56 -0.35,0.94 0,0.39 0.12,0.71 0.35,0.96 0.23,0.24 0.53,0.37 0.88,0.37 0.36,0 0.65,-0.12 0.89,-0.37 0.24,-0.25 0.35,-0.56 0.35,-0.95 0,-0.39 -0.12,-0.7 -0.35,-0.95 -0.23,-0.24 -0.53,-0.36 -0.89,-0.36z"/>
  <path id="_2" class="fil0" d="M9.89 6.13l0 0.79 -1.02 0 0 -1.75 0.68 0 1.57 -3.57 0.73 0 1.58 3.57 0.7 0 0 1.75 -1.08 0 0 -0.79 -3.17 0zm2.35 -0.97l-0.74 -1.92 -0.78 1.92 1.52 0z"/>
  <path id="_3" class="fil0" d="M21.79 4.19l-3.65 0c0.05,0.32 0.19,0.58 0.42,0.77 0.23,0.19 0.52,0.29 0.87,0.29 0.42,0 0.79,-0.15 1.09,-0.45l0.95 0.45c-0.24,0.34 -0.52,0.59 -0.86,0.75 -0.33,0.16 -0.73,0.24 -1.18,0.24 -0.71,0 -1.29,-0.22 -1.73,-0.67 -0.45,-0.45 -0.67,-1.01 -0.67,-1.68 0,-0.69 0.22,-1.26 0.67,-1.72 0.45,-0.46 1,-0.68 1.68,-0.68 0.71,0 1.29,0.23 1.74,0.68 0.45,0.46 0.67,1.06 0.67,1.8l-0 0.21zm-1.13 -0.89c-0.08,-0.25 -0.22,-0.45 -0.44,-0.61 -0.22,-0.16 -0.48,-0.23 -0.77,-0.23 -0.32,0 -0.6,0.09 -0.84,0.26 -0.15,0.11 -0.29,0.3 -0.42,0.58l2.47 0z"/>
  <path id="_4" class="fil0" d="M23.31 6.13l0 0.79 -1.02 0 0 -1.75 0.68 0 1.57 -3.57 0.73 0 1.58 3.57 0.7 0 0 1.75 -1.08 0 0 -0.79 -3.17 0zm2.35 -0.97l-0.74 -1.92 -0.78 1.92 1.52 0z"/>
  <polygon id="_5" class="fil0" points="28.89,6.13 28.28,6.13 28.28,1.6 29.39,1.6 29.39,4.26 31.72,1.6 32.26,1.6 32.26,6.13 31.15,6.13 31.15,3.52 "/>
  <polygon id="_6" class="fil0" points="34.55,3.23 36.25,3.23 36.25,1.6 37.39,1.6 37.39,6.13 36.25,6.13 36.25,4.25 34.55,4.25 34.55,6.13 33.41,6.13 33.41,1.6 34.55,1.6 "/>
  <path id="_7" class="fil0" d="M42.98 2.52l-0.95 0.52c-0.18,-0.19 -0.35,-0.31 -0.53,-0.39 -0.17,-0.07 -0.38,-0.11 -0.61,-0.11 -0.43,0 -0.77,0.13 -1.03,0.38 -0.26,0.25 -0.39,0.58 -0.39,0.97 0,0.38 0.13,0.7 0.38,0.94 0.25,0.24 0.59,0.36 1,0.36 0.51,0 0.9,-0.17 1.19,-0.52l0.9 0.62c-0.49,0.63 -1.17,0.95 -2.06,0.95 -0.8,0 -1.42,-0.24 -1.88,-0.71 -0.45,-0.47 -0.68,-1.02 -0.68,-1.65 0,-0.44 0.11,-0.84 0.33,-1.21 0.22,-0.37 0.53,-0.66 0.92,-0.87 0.39,-0.21 0.83,-0.32 1.32,-0.32 0.45,0 0.86,0.09 1.21,0.27 0.36,0.18 0.65,0.43 0.88,0.76z"/>
  <polygon id="_8" class="fil0" points="43.6,1.6 47.83,1.6 47.83,2.68 46.32,2.68 46.32,6.13 45.18,6.13 45.18,2.68 43.6,2.68 "/>
  <path id="_9" class="fil0" d="M48.58 6.13l0 -4.54 1.83 0c0.6,0 1.01,0.12 1.22,0.35 0.21,0.23 0.32,0.5 0.32,0.8 0,0.44 -0.22,0.76 -0.66,0.96 0.6,0.21 0.9,0.59 0.9,1.16 0,0.31 -0.08,0.56 -0.24,0.76 -0.16,0.2 -0.36,0.34 -0.6,0.4 -0.24,0.07 -0.58,0.1 -1.02,0.1l-1.74 0zm1.14 -2.75l0.44 0c0.19,0 0.33,-0.05 0.44,-0.14 0.1,-0.09 0.15,-0.2 0.15,-0.31 0,-0.17 -0.05,-0.3 -0.15,-0.4 -0.1,-0.09 -0.21,-0.14 -0.35,-0.14l-0.15 0 -0.39 0 0 0.98zm0 1.87l0.58 0c0.22,0 0.38,-0.05 0.47,-0.16 0.09,-0.1 0.14,-0.21 0.14,-0.3 0,-0.15 -0.05,-0.28 -0.15,-0.4 -0.1,-0.12 -0.29,-0.18 -0.55,-0.18l-0.48 0 0 1.04z"/>
  <path id="_10" class="fil0" d="M56.51 1.6l1.14 0 0 4.54 -1.14 0 0 -0.48c-0.22,0.21 -0.45,0.36 -0.67,0.45 -0.22,0.09 -0.47,0.14 -0.73,0.14 -0.59,0 -1.09,-0.23 -1.52,-0.68 -0.43,-0.45 -0.64,-1.02 -0.64,-1.69 0,-0.7 0.21,-1.27 0.62,-1.72 0.41,-0.45 0.92,-0.67 1.51,-0.67 0.27,0 0.53,0.05 0.77,0.15 0.24,0.1 0.46,0.25 0.66,0.46l0 -0.5zm-1.2 0.93c-0.35,0 -0.65,0.12 -0.88,0.37 -0.23,0.25 -0.35,0.57 -0.35,0.96 0,0.39 0.12,0.71 0.36,0.97 0.24,0.25 0.53,0.38 0.88,0.38 0.36,0 0.66,-0.12 0.89,-0.37 0.24,-0.25 0.35,-0.57 0.35,-0.98 0,-0.39 -0.12,-0.71 -0.35,-0.96 -0.23,-0.24 -0.53,-0.37 -0.89,-0.37z"/>
  <polygon id="_11" class="fil0" points="62.31,3.23 64.02,3.23 64.02,1.6 65.16,1.6 65.16,6.13 64.02,6.13 64.02,4.25 62.31,4.25 62.31,6.13 61.18,6.13 61.18,1.6 62.31,1.6 "/>
  <path id="_12" class="fil0" d="M69.66 1.6l1.14 0 0 4.54 -1.14 0 0 -0.48c-0.22,0.21 -0.45,0.36 -0.67,0.45 -0.22,0.09 -0.47,0.14 -0.73,0.14 -0.59,0 -1.09,-0.23 -1.52,-0.68 -0.43,-0.45 -0.64,-1.02 -0.64,-1.69 0,-0.7 0.21,-1.27 0.62,-1.72 0.41,-0.45 0.92,-0.67 1.51,-0.67 0.27,0 0.53,0.05 0.77,0.15 0.24,0.1 0.46,0.25 0.66,0.46l0 -0.5zm-1.2 0.93c-0.35,0 -0.65,0.12 -0.88,0.37 -0.23,0.25 -0.35,0.57 -0.35,0.96 0,0.39 0.12,0.71 0.36,0.97 0.24,0.25 0.53,0.38 0.88,0.38 0.36,0 0.66,-0.12 0.89,-0.37 0.24,-0.25 0.35,-0.57 0.35,-0.98 0,-0.39 -0.12,-0.71 -0.35,-0.96 -0.23,-0.24 -0.53,-0.37 -0.89,-0.37z"/>
  <path id="_13" class="fil0" d="M73.08 1.6l0 0.5c0.21,-0.2 0.43,-0.36 0.67,-0.46 0.24,-0.1 0.5,-0.15 0.77,-0.15 0.59,0 1.09,0.22 1.51,0.67 0.41,0.45 0.62,1.02 0.62,1.72 0,0.67 -0.21,1.24 -0.64,1.69 -0.43,0.45 -0.93,0.68 -1.52,0.68 -0.26,0 -0.5,-0.05 -0.73,-0.14 -0.22,-0.09 -0.45,-0.24 -0.67,-0.46l0 2.14 -1.14 0 0 -6.19 1.14 0zm1.19 0.93c-0.36,0 -0.65,0.12 -0.89,0.37 -0.24,0.24 -0.35,0.56 -0.35,0.96 0,0.4 0.12,0.73 0.35,0.98 0.24,0.25 0.53,0.37 0.89,0.37 0.35,0 0.64,-0.13 0.88,-0.38 0.24,-0.25 0.36,-0.58 0.36,-0.97 0,-0.39 -0.12,-0.71 -0.35,-0.96 -0.23,-0.25 -0.53,-0.37 -0.88,-0.37z"/>
  <path id="_14" class="fil0" d="M79.72 1.49c0.43,0 0.83,0.11 1.21,0.32 0.38,0.21 0.67,0.5 0.88,0.87 0.21,0.37 0.32,0.76 0.32,1.19 0,0.43 -0.11,0.83 -0.32,1.2 -0.21,0.37 -0.5,0.66 -0.87,0.87 -0.37,0.21 -0.77,0.31 -1.22,0.31 -0.65,0 -1.21,-0.23 -1.67,-0.69 -0.46,-0.46 -0.69,-1.02 -0.69,-1.68 0,-0.71 0.26,-1.3 0.78,-1.77 0.46,-0.41 0.98,-0.62 1.57,-0.62zm0.02 1.07c-0.35,0 -0.65,0.12 -0.88,0.37 -0.24,0.25 -0.35,0.56 -0.35,0.94 0,0.39 0.12,0.71 0.35,0.96 0.23,0.24 0.53,0.37 0.88,0.37 0.36,0 0.65,-0.12 0.89,-0.37 0.24,-0.25 0.35,-0.56 0.35,-0.95 0,-0.39 -0.12,-0.7 -0.35,-0.95 -0.23,-0.24 -0.53,-0.36 -0.89,-0.36z"/>
  <path id="_15" class="fil0" d="M83.64 6.13l0 0.79 -1.02 0 0 -1.75 0.68 0 1.57 -3.57 0.73 0 1.58 3.57 0.7 0 0 1.75 -1.08 0 0 -0.79 -3.17 0zm2.35 -0.97l-0.74 -1.92 -0.78 1.92 1.52 0z"/>
  <path id="_16" class="fil0" d="M90.75 1.49c0.43,0 0.83,0.11 1.21,0.32 0.38,0.21 0.67,0.5 0.88,0.87 0.21,0.37 0.32,0.76 0.32,1.19 0,0.43 -0.11,0.83 -0.32,1.2 -0.21,0.37 -0.5,0.66 -0.87,0.87 -0.37,0.21 -0.77,0.31 -1.22,0.31 -0.65,0 -1.21,-0.23 -1.67,-0.69 -0.46,-0.46 -0.69,-1.02 -0.69,-1.68 0,-0.71 0.26,-1.3 0.78,-1.77 0.46,-0.41 0.98,-0.62 1.57,-0.62zm0.02 1.07c-0.35,0 -0.65,0.12 -0.88,0.37 -0.24,0.25 -0.35,0.56 -0.35,0.94 0,0.39 0.12,0.71 0.35,0.96 0.23,0.24 0.53,0.37 0.88,0.37 0.36,0 0.65,-0.12 0.89,-0.37 0.24,-0.25 0.35,-0.56 0.35,-0.95 0,-0.39 -0.12,-0.7 -0.35,-0.95 -0.23,-0.24 -0.53,-0.36 -0.89,-0.36z"/>
  <path id="_17" class="fil0" d="M94.08 6.13l0 -4.54 1.83 0c0.6,0 1.01,0.12 1.22,0.35 0.21,0.23 0.32,0.5 0.32,0.8 0,0.44 -0.22,0.76 -0.66,0.96 0.6,0.21 0.9,0.59 0.9,1.16 0,0.31 -0.08,0.56 -0.24,0.76 -0.16,0.2 -0.36,0.34 -0.6,0.4 -0.24,0.07 -0.58,0.1 -1.02,0.1l-1.74 0zm1.14 -2.75l0.44 0c0.19,0 0.33,-0.05 0.44,-0.14 0.1,-0.09 0.15,-0.2 0.15,-0.31 0,-0.17 -0.05,-0.3 -0.15,-0.4 -0.1,-0.09 -0.21,-0.14 -0.35,-0.14l-0.15 0 -0.39 0 0 0.98zm0 1.87l0.58 0c0.22,0 0.38,-0.05 0.47,-0.16 0.09,-0.1 0.14,-0.21 0.14,-0.3 0,-0.15 -0.05,-0.28 -0.15,-0.4 -0.1,-0.12 -0.29,-0.18 -0.55,-0.18l-0.48 0 0 1.04z"/>
  <path id="_18" class="fil0" d="M101.16 0l1.24 0c0.67,0 1.15,0.06 1.45,0.19 0.3,0.12 0.53,0.32 0.7,0.6 0.17,0.28 0.26,0.61 0.26,1 0,0.43 -0.11,0.78 -0.34,1.07 -0.22,0.28 -0.53,0.48 -0.91,0.59 -0.23,0.06 -0.64,0.1 -1.23,0.1l0 2.6 -1.16 0 0 -6.13zm1.16 2.4l0.37 0c0.29,0 0.5,-0.02 0.61,-0.06 0.12,-0.04 0.21,-0.11 0.27,-0.21 0.07,-0.1 0.1,-0.21 0.1,-0.35 0,-0.24 -0.09,-0.41 -0.28,-0.52 -0.13,-0.08 -0.38,-0.12 -0.75,-0.12l-0.33 0 0 1.26z"/>
  <path id="_19" class="fil0" d="M107.96 1.49c0.43,0 0.83,0.11 1.21,0.32 0.38,0.21 0.67,0.5 0.88,0.87 0.21,0.37 0.32,0.76 0.32,1.19 0,0.43 -0.11,0.83 -0.32,1.2 -0.21,0.37 -0.5,0.66 -0.87,0.87 -0.37,0.21 -0.77,0.31 -1.22,0.31 -0.65,0 -1.21,-0.23 -1.67,-0.69 -0.46,-0.46 -0.69,-1.02 -0.69,-1.68 0,-0.71 0.26,-1.3 0.78,-1.77 0.46,-0.41 0.98,-0.62 1.57,-0.62zm0.02 1.07c-0.35,0 -0.65,0.12 -0.88,0.37 -0.24,0.25 -0.35,0.56 -0.35,0.94 0,0.39 0.12,0.71 0.35,0.96 0.23,0.24 0.53,0.37 0.88,0.37 0.36,0 0.65,-0.12 0.89,-0.37 0.24,-0.25 0.35,-0.56 0.35,-0.95 0,-0.39 -0.12,-0.7 -0.35,-0.95 -0.23,-0.24 -0.53,-0.36 -0.89,-0.36z"/>
  <path id="_20" class="fil0" d="M115.74 2.52l-0.95 0.52c-0.18,-0.19 -0.35,-0.31 -0.53,-0.39 -0.17,-0.07 -0.38,-0.11 -0.61,-0.11 -0.43,0 -0.77,0.13 -1.03,0.38 -0.26,0.25 -0.39,0.58 -0.39,0.97 0,0.38 0.13,0.7 0.38,0.94 0.25,0.24 0.59,0.36 1,0.36 0.51,0 0.9,-0.17 1.19,-0.52l0.9 0.62c-0.49,0.63 -1.17,0.95 -2.06,0.95 -0.8,0 -1.42,-0.24 -1.88,-0.71 -0.45,-0.47 -0.68,-1.02 -0.68,-1.65 0,-0.44 0.11,-0.84 0.33,-1.21 0.22,-0.37 0.53,-0.66 0.92,-0.87 0.39,-0.21 0.83,-0.32 1.32,-0.32 0.45,0 0.86,0.09 1.21,0.27 0.36,0.18 0.65,0.43 0.88,0.76z"/>
  <path id="_21" class="fil0" d="M121.21 2.52l-0.95 0.52c-0.18,-0.19 -0.35,-0.31 -0.53,-0.39 -0.17,-0.07 -0.38,-0.11 -0.61,-0.11 -0.43,0 -0.77,0.13 -1.03,0.38 -0.26,0.25 -0.39,0.58 -0.39,0.97 0,0.38 0.13,0.7 0.38,0.94 0.25,0.24 0.59,0.36 1,0.36 0.51,0 0.9,-0.17 1.19,-0.52l0.9 0.62c-0.49,0.63 -1.17,0.95 -2.06,0.95 -0.8,0 -1.42,-0.24 -1.88,-0.71 -0.45,-0.47 -0.68,-1.02 -0.68,-1.65 0,-0.44 0.11,-0.84 0.33,-1.21 0.22,-0.37 0.53,-0.66 0.92,-0.87 0.39,-0.21 0.83,-0.32 1.32,-0.32 0.45,0 0.86,0.09 1.21,0.27 0.36,0.18 0.65,0.43 0.88,0.76z"/>
  <polygon id="_22" class="fil0" points="122.84,6.13 122.23,6.13 122.23,1.6 123.34,1.6 123.34,4.26 125.67,1.6 126.22,1.6 126.22,6.13 125.1,6.13 125.1,3.52 "/>
  <polygon id="_23" class="fil0" points="127.97,6.13 127.36,6.13 127.36,1.6 128.47,1.6 128.47,4.26 130.8,1.6 131.34,1.6 131.34,6.13 130.23,6.13 130.23,3.52 "/>
 </g>
</svg>
