<?xml version="1.0" encoding="UTF-8" standalone="no"?>
<svg
   xmlns:dc="http://purl.org/dc/elements/1.1/"
   xmlns:cc="http://creativecommons.org/ns#"
   xmlns:rdf="http://www.w3.org/1999/02/22-rdf-syntax-ns#"
   xmlns:svg="http://www.w3.org/2000/svg"
   xmlns="http://www.w3.org/2000/svg"
   xmlns:sodipodi="http://sodipodi.sourceforge.net/DTD/sodipodi-0.dtd"
   xmlns:inkscape="http://www.inkscape.org/namespaces/inkscape"
   width="469.36826"
   height="66.861618"
   viewBox="0 0 124.18713 17.690473"
   version="1.1"
   id="svg8"
   inkscape:version="1.0 (4035a4fb49, 2020-05-01)"
   sodipodi:docname="1strText.svg">
  <defs
     id="defs2">
    <clipPath
       clipPathUnits="userSpaceOnUse"
       id="clipPath7909">
      <g
         id="use7911"
         inkscape:label="Clip">
        <text
           xml:space="preserve"
           style="font-style:normal;font-weight:normal;font-size:10.5833px;line-height:1.25;font-family:sans-serif;letter-spacing:0px;word-spacing:0px;fill:#ffffff;fill-opacity:1;stroke:none;stroke-width:0.264583"
           x="82.876579"
           y="384.59238"
           id="text335"><tspan
             sodipodi:role="line"
             id="tspan333"
             x="82.876579"
             y="384.59238"
             style="font-style:normal;font-variant:normal;font-weight:normal;font-stretch:normal;font-size:3.52778px;font-family:EuropeDemi;-inkscape-font-specification:EuropeDemi;fill:#ffffff;stroke-width:0.264583"><tspan
               style="font-size:2.82222px"
               id="tspan331">ГЛАЗОВСКАЯ РАЙОННАЯ БИБЛИОТЕКА</tspan></tspan></text>
      </g>
    </clipPath>
  </defs>
  <sodipodi:namedview
     id="base"
     pagecolor="#ffffff"
     bordercolor="#666666"
     borderopacity="1.0"
     inkscape:pageopacity="0.0"
     inkscape:pageshadow="2"
     inkscape:zoom="1.154038"
     inkscape:cx="306.49396"
     inkscape:cy="-123.23971"
     inkscape:document-units="mm"
     inkscape:current-layer="text4840"
     showgrid="false"
     inkscape:lockguides="false"
     showguides="false"
     units="px"
     inkscape:window-width="1280"
     inkscape:window-height="972"
     inkscape:window-x="-8"
     inkscape:window-y="-8"
     inkscape:window-maximized="1"
     showborder="true"
     inkscape:pagecheckerboard="true"
     inkscape:document-rotation="0" />
  <metadata
     id="metadata5">
    <rdf:RDF>
      <cc:Work
         rdf:about="">
        <dc:format>image/svg+xml</dc:format>
        <dc:type
           rdf:resource="http://purl.org/dc/dcmitype/StillImage" />
        <dc:title />
      </cc:Work>
    </rdf:RDF>
  </metadata>
  <g
     inkscape:label="Layer 1"
     inkscape:groupmode="layer"
     id="layer1"
     transform="translate(-4.4337226,-281.30717)">
    <g
       aria-label="Государственность Удмуртии"
       id="text4840"
       style="font-style:normal;font-weight:normal;font-size:11.6417px;line-height:1.25;font-family:sans-serif;letter-spacing:0px;word-spacing:0px;fill:#ff9400;fill-opacity:1;fill-rule:nonzero;stroke:none;stroke-width:1.18025">
      <g
         style="font-style:normal;font-weight:normal;font-size:47.2099px;line-height:0;font-family:sans-serif;letter-spacing:0px;word-spacing:0px;fill:#ff9400;fill-opacity:1;fill-rule:nonzero;stroke:none;stroke-width:1.18025"
         id="text4840-7"
         aria-label="100 лет государственности
Удмуртии">
        <path
           id="path79"
           style="font-style:normal;font-variant:normal;font-weight:bold;font-stretch:normal;font-size:8.81944px;font-family:'Century Gothic';-inkscape-font-specification:'Century Gothic Bold';fill:#ff9400;fill-opacity:1;fill-rule:nonzero;stroke-width:1.18025"
           d="M 5.7773092,281.46651 H 7.581677 v 6.33467 H 6.3845069 v -5.20209 H 5.0796777 Z" />
        <path
           id="path81"
           style="font-style:normal;font-variant:normal;font-weight:bold;font-stretch:normal;font-size:8.81944px;font-family:'Century Gothic';-inkscape-font-specification:'Century Gothic Bold';fill:#ff9400;fill-opacity:1;fill-rule:nonzero;stroke-width:1.18025"
           d="m 11.720096,281.30717 q 0.693325,0 1.192863,0.34021 0.503845,0.3402 0.775147,1.04214 0.275607,0.69763 0.275607,1.94648 0,1.26176 -0.279913,1.9637 -0.275608,0.70194 -0.745002,1.03353 -0.469394,0.32728 -1.184251,0.32728 -0.714857,0 -1.201477,-0.33159 -0.486619,-0.33159 -0.7622268,-1.00769 -0.2756075,-0.6761 -0.2756075,-1.92494 0,-1.74408 0.5382963,-2.52784 0.598585,-0.86128 1.666564,-0.86128 z m 0.03015,1.1455 q -0.305752,0 -0.542603,0.19809 -0.23685,0.19379 -0.361734,0.67179 -0.124885,0.47801 -0.124885,1.39957 0,1.20148 0.28422,1.66226 0.288527,0.45648 0.745002,0.45648 0.439249,0 0.697631,-0.43495 0.314365,-0.52537 0.314365,-1.75699 0,-1.24885 -0.28422,-1.72255 -0.279914,-0.4737 -0.727776,-0.4737 z" />
        <path
           id="path83"
           style="font-style:normal;font-variant:normal;font-weight:bold;font-stretch:normal;font-size:8.81944px;font-family:'Century Gothic';-inkscape-font-specification:'Century Gothic Bold';fill:#ff9400;fill-opacity:1;fill-rule:nonzero;stroke-width:1.18025"
           d="m 16.663806,281.30717 q 0.693325,0 1.192863,0.34021 0.503845,0.3402 0.775146,1.04214 0.275608,0.69763 0.275608,1.94648 0,1.26176 -0.279914,1.9637 -0.275607,0.70194 -0.745002,1.03353 -0.469394,0.32728 -1.18425,0.32728 -0.714857,0 -1.201477,-0.33159 -0.486619,-0.33159 -0.762227,-1.00769 -0.275607,-0.6761 -0.275607,-1.92494 0,-1.74408 0.538296,-2.52784 0.598585,-0.86128 1.666564,-0.86128 z m 0.03014,1.1455 q -0.305752,0 -0.542602,0.19809 -0.23685,0.19379 -0.361735,0.67179 -0.124885,0.47801 -0.124885,1.39957 0,1.20148 0.284221,1.66226 0.288526,0.45648 0.745001,0.45648 0.43925,0 0.697632,-0.43495 0.314364,-0.52537 0.314364,-1.75699 0,-1.24885 -0.28422,-1.72255 -0.279914,-0.4737 -0.727776,-0.4737 z" />
        <path
           id="path85"
           style="font-style:normal;font-variant:normal;font-weight:bold;font-stretch:normal;font-size:8.81944px;font-family:'Century Gothic';-inkscape-font-specification:'Century Gothic Bold';fill:#ff9400;fill-opacity:1;fill-rule:nonzero;stroke-width:1.18025"
           d="m 26.400502,287.80118 h -1.19717 L 24.032,284.8427 l -1.192864,2.95848 h -1.192863 l 1.998154,-4.68533 h 0.757921 z" />
        <path
           id="path87"
           style="font-style:normal;font-variant:normal;font-weight:bold;font-stretch:normal;font-size:8.81944px;font-family:'Century Gothic';-inkscape-font-specification:'Century Gothic Bold';fill:#ff9400;fill-opacity:1;fill-rule:nonzero;stroke-width:1.18025"
           d="m 31.71456,285.79872 h -3.776684 q 0.08182,0.49953 0.434943,0.79667 0.357428,0.29284 0.908643,0.29284 0.658874,0 1.132575,-0.46078 l 0.990464,0.46508 q -0.370347,0.52538 -0.887111,0.77946 -0.516764,0.24976 -1.227315,0.24976 -1.10243,0 -1.795755,-0.69332 -0.693325,-0.69763 -0.693325,-1.74408 0,-1.07228 0.689019,-1.77853 0.693325,-0.71055 1.735466,-0.71055 1.106736,0 1.800061,0.71055 0.693325,0.70625 0.693325,1.86896 z m -1.179945,-0.92587 q -0.116272,-0.39188 -0.460781,-0.63735 -0.340203,-0.24546 -0.792372,-0.24546 -0.490926,0 -0.861273,0.27561 -0.232544,0.17225 -0.430637,0.6072 z" />
        <path
           id="path89"
           style="font-style:normal;font-variant:normal;font-weight:bold;font-stretch:normal;font-size:8.81944px;font-family:'Century Gothic';-inkscape-font-specification:'Century Gothic Bold';fill:#ff9400;fill-opacity:1;fill-rule:nonzero;stroke-width:1.18025"
           d="m 32.252854,283.11585 h 4.366656 v 1.11965 h -1.554598 v 3.56568 h -1.179945 v -3.56568 h -1.632113 z" />
        <path
           id="path91"
           style="font-style:normal;font-variant:normal;font-weight:bold;font-stretch:normal;font-size:8.81944px;font-family:'Century Gothic';-inkscape-font-specification:'Century Gothic Bold';fill:#ff9400;fill-opacity:1;fill-rule:nonzero;stroke-width:1.18025"
           d="m 39.849287,283.11585 h 2.734543 v 1.11965 h -1.554599 v 3.56568 h -1.179944 z" />
        <path
           id="path93"
           style="font-style:normal;font-variant:normal;font-weight:bold;font-stretch:normal;font-size:8.81944px;font-family:'Century Gothic';-inkscape-font-specification:'Century Gothic Bold';fill:#ff9400;fill-opacity:1;fill-rule:nonzero;stroke-width:1.18025"
           d="m 45.585366,282.99527 q 0.663181,0 1.24454,0.33159 0.585666,0.33159 0.91295,0.90003 0.327284,0.56844 0.327284,1.22732 0,0.66318 -0.33159,1.24023 -0.327284,0.57705 -0.895725,0.90434 -0.56844,0.32297 -1.253153,0.32297 -1.007689,0 -1.722546,-0.71485 -0.710551,-0.71917 -0.710551,-1.74408 0,-1.09812 0.805291,-1.83021 0.706244,-0.63734 1.6235,-0.63734 z m 0.01723,1.10674 q -0.546909,0 -0.91295,0.38326 -0.361735,0.37896 -0.361735,0.97324 0,0.61151 0.357428,0.99047 0.361735,0.37896 0.91295,0.37896 0.551215,0 0.917256,-0.38327 0.366042,-0.38327 0.366042,-0.98616 0,-0.60289 -0.361735,-0.97754 -0.357429,-0.37896 -0.917256,-0.37896 z" />
        <path
           id="path95"
           style="font-style:normal;font-variant:normal;font-weight:bold;font-stretch:normal;font-size:8.81944px;font-family:'Century Gothic';-inkscape-font-specification:'Century Gothic Bold';fill:#ff9400;fill-opacity:1;fill-rule:nonzero;stroke-width:1.18025"
           d="m 53.621049,284.06325 -0.977545,0.5383 q -0.275608,-0.28853 -0.546909,-0.4005 -0.266994,-0.11196 -0.628729,-0.11196 -0.658874,0 -1.067979,0.39618 -0.404799,0.39188 -0.404799,1.00769 0,0.59859 0.39188,0.97755 0.391879,0.37896 1.029221,0.37896 0.788065,0 1.227315,-0.5383 l 0.925869,0.63304 q -0.753614,0.97754 -2.127346,0.97754 -1.235927,0 -1.937865,-0.73208 -0.697631,-0.73208 -0.697631,-1.71393 0,-0.68041 0.340203,-1.25315 0.340203,-0.57275 0.947401,-0.90004 0.611504,-0.32728 1.365118,-0.32728 0.697631,0 1.253153,0.27991 0.555521,0.27561 0.908643,0.78807 z" />
        <path
           id="path97"
           style="font-style:normal;font-variant:normal;font-weight:bold;font-stretch:normal;font-size:8.81944px;font-family:'Century Gothic';-inkscape-font-specification:'Century Gothic Bold';fill:#ff9400;fill-opacity:1;fill-rule:nonzero;stroke-width:1.18025"
           d="m 54.16365,283.11585 h 1.201476 l 1.218702,2.94125 1.343587,-2.94125 h 1.205782 l -2.936942,6.39926 H 54.98186 l 0.964626,-2.06275 z" />
        <path
           id="path99"
           style="font-style:normal;font-variant:normal;font-weight:bold;font-stretch:normal;font-size:8.81944px;font-family:'Century Gothic';-inkscape-font-specification:'Century Gothic Bold';fill:#ff9400;fill-opacity:1;fill-rule:nonzero;stroke-width:1.18025"
           d="m 60.407885,287.80118 v 0.8139 h -1.046447 v -1.80867 h 0.706244 l 1.614887,-3.69056 h 0.757921 l 1.63642,3.69056 h 0.719163 v 1.80867 h -1.119656 v -0.8139 z m 2.420178,-0.99477 -0.766533,-1.97232 -0.792372,1.97232 z" />
        <path
           id="path101"
           style="font-style:normal;font-variant:normal;font-weight:bold;font-stretch:normal;font-size:8.81944px;font-family:'Century Gothic';-inkscape-font-specification:'Century Gothic Bold';fill:#ff9400;fill-opacity:1;fill-rule:nonzero;stroke-width:1.18025"
           d="m 68.999086,283.11585 h 1.171332 v 4.68533 h -1.171332 v -0.49524 q -0.344509,0.32729 -0.693325,0.4737 -0.344509,0.14211 -0.749308,0.14211 -0.908643,0 -1.571824,-0.70193 -0.66318,-0.70625 -0.66318,-1.75269 0,-1.08521 0.641649,-1.77853 0.641648,-0.69333 1.558904,-0.69333 0.422024,0 0.792372,0.15934 0.370348,0.15933 0.684712,0.478 z m -1.235927,0.96463 q -0.546909,0 -0.908643,0.38757 -0.361735,0.38327 -0.361735,0.98616 0,0.60719 0.366041,0.99907 0.370347,0.39188 0.908643,0.39188 0.555522,0 0.921563,-0.38326 0.366041,-0.38758 0.366041,-1.012 0,-0.6115 -0.366041,-0.99046 -0.366041,-0.37896 -0.925869,-0.37896 z" />
        <path
           id="path103"
           style="font-style:normal;font-variant:normal;font-weight:bold;font-stretch:normal;font-size:8.81944px;font-family:'Century Gothic';-inkscape-font-specification:'Century Gothic Bold';fill:#ff9400;fill-opacity:1;fill-rule:nonzero;stroke-width:1.18025"
           d="m 72.525997,283.11585 v 0.51676 q 0.318671,-0.31867 0.689019,-0.478 0.370348,-0.15934 0.792372,-0.15934 0.917256,0 1.558904,0.69333 0.641649,0.69332 0.641649,1.77853 0,1.04644 -0.66318,1.75269 -0.663181,0.70193 -1.571824,0.70193 -0.404799,0 -0.753615,-0.14211 -0.348815,-0.14641 -0.693325,-0.4737 v 2.20917 h -1.167025 v -6.39926 z m 1.235928,0.96463 q -0.555522,0 -0.921563,0.37896 -0.366041,0.37896 -0.366041,0.99046 0,0.62442 0.366041,1.012 0.366041,0.38326 0.921563,0.38326 0.538296,0 0.904337,-0.39188 0.370347,-0.39188 0.370347,-0.99907 0,-0.60289 -0.361735,-0.98616 -0.361734,-0.38757 -0.912949,-0.38757 z" />
        <path
           id="path105"
           style="font-style:normal;font-variant:normal;font-weight:bold;font-stretch:normal;font-size:8.81944px;font-family:'Century Gothic';-inkscape-font-specification:'Century Gothic Bold';fill:#ff9400;fill-opacity:1;fill-rule:nonzero;stroke-width:1.18025"
           d="m 81.767465,284.06325 -0.977545,0.5383 q -0.275608,-0.28853 -0.546909,-0.4005 -0.266995,-0.11196 -0.62873,-0.11196 -0.658874,0 -1.067979,0.39618 -0.404798,0.39188 -0.404798,1.00769 0,0.59859 0.391879,0.97755 0.39188,0.37896 1.029222,0.37896 0.788065,0 1.227315,-0.5383 l 0.925869,0.63304 q -0.753615,0.97754 -2.127346,0.97754 -1.235927,0 -1.937865,-0.73208 -0.697631,-0.73208 -0.697631,-1.71393 0,-0.68041 0.340203,-1.25315 0.340203,-0.57275 0.9474,-0.90004 0.611504,-0.32728 1.365119,-0.32728 0.697631,0 1.253153,0.27991 0.555521,0.27561 0.908643,0.78807 z" />
        <path
           id="path107"
           style="font-style:normal;font-variant:normal;font-weight:bold;font-stretch:normal;font-size:8.81944px;font-family:'Century Gothic';-inkscape-font-specification:'Century Gothic Bold';fill:#ff9400;fill-opacity:1;fill-rule:nonzero;stroke-width:1.18025"
           d="m 82.413422,283.11585 h 4.366656 v 1.11965 H 85.22548 v 3.56568 h -1.179945 v -3.56568 h -1.632113 z" />
        <path
           id="path109"
           style="font-style:normal;font-variant:normal;font-weight:bold;font-stretch:normal;font-size:8.81944px;font-family:'Century Gothic';-inkscape-font-specification:'Century Gothic Bold';fill:#ff9400;fill-opacity:1;fill-rule:nonzero;stroke-width:1.18025"
           d="m 87.55092,287.80118 v -4.68533 h 1.881882 q 0.925869,0 1.257459,0.36604 0.331591,0.36174 0.331591,0.82252 0,0.68471 -0.680406,0.98615 0.930175,0.31868 0.930175,1.20148 0,0.47801 -0.245463,0.79237 -0.245463,0.31006 -0.624423,0.41341 -0.374654,0.10336 -1.050754,0.10336 z m 1.179944,-2.84221 h 0.452169 q 0.288526,0 0.443556,-0.14211 0.159335,-0.14641 0.159335,-0.32297 0,-0.26269 -0.150723,-0.40911 -0.150722,-0.14641 -0.357428,-0.14641 l -0.150723,0.004 h -0.396186 z m 0,1.93787 h 0.589973 q 0.344509,0 0.482313,-0.15934 0.14211,-0.16364 0.14211,-0.31867 0,-0.22823 -0.159336,-0.41771 -0.155029,-0.18949 -0.564134,-0.18949 h -0.490926 z" />
        <path
           id="path111"
           style="font-style:normal;font-variant:normal;font-weight:bold;font-stretch:normal;font-size:8.81944px;font-family:'Century Gothic';-inkscape-font-specification:'Century Gothic Bold';fill:#ff9400;fill-opacity:1;fill-rule:nonzero;stroke-width:1.18025"
           d="m 96.964632,285.79872 h -3.776684 q 0.08182,0.49953 0.434943,0.79667 0.357429,0.29284 0.908644,0.29284 0.658874,0 1.132574,-0.46078 l 0.990465,0.46508 q -0.370348,0.52538 -0.887112,0.77946 -0.516764,0.24976 -1.227314,0.24976 -1.10243,0 -1.795756,-0.69332 -0.693325,-0.69763 -0.693325,-1.74408 0,-1.07228 0.689019,-1.77853 0.693325,-0.71055 1.735466,-0.71055 1.106736,0 1.800061,0.71055 0.693326,0.70625 0.693326,1.86896 z m -1.179944,-0.92587 q -0.116272,-0.39188 -0.460782,-0.63735 -0.340203,-0.24546 -0.792371,-0.24546 -0.490926,0 -0.861274,0.27561 -0.232543,0.17225 -0.430636,0.6072 z" />
        <path
           id="path114"
           style="font-style:normal;font-variant:normal;font-weight:bold;font-stretch:normal;font-size:8.81944px;font-family:'Century Gothic';-inkscape-font-specification:'Century Gothic Bold';fill:#ff9400;fill-opacity:1;fill-rule:nonzero;stroke-width:1.18025"
           d="m 99.096286,284.80395 h 1.748384 v -1.6881 h 1.17995 v 4.68533 h -1.17995 v -1.94217 h -1.748384 v 1.94217 h -1.179945 v -4.68533 h 1.179945 z" />
        <path
           id="path116"
           style="font-style:normal;font-variant:normal;font-weight:bold;font-stretch:normal;font-size:8.81944px;font-family:'Century Gothic';-inkscape-font-specification:'Century Gothic Bold';fill:#ff9400;fill-opacity:1;fill-rule:nonzero;stroke-width:1.18025"
           d="m 104.38451,284.80395 h 1.74838 v -1.6881 h 1.17995 v 4.68533 h -1.17995 v -1.94217 h -1.74838 v 1.94217 h -1.17995 v -4.68533 h 1.17995 z" />
        <path
           id="path118"
           style="font-style:normal;font-variant:normal;font-weight:bold;font-stretch:normal;font-size:8.81944px;font-family:'Century Gothic';-inkscape-font-specification:'Century Gothic Bold';fill:#ff9400;fill-opacity:1;fill-rule:nonzero;stroke-width:1.18025"
           d="m 110.69764,282.99527 q 0.66318,0 1.24454,0.33159 0.58566,0.33159 0.91295,0.90003 0.32728,0.56844 0.32728,1.22732 0,0.66318 -0.33159,1.24023 -0.32728,0.57705 -0.89572,0.90434 -0.56844,0.32297 -1.25316,0.32297 -1.00769,0 -1.72254,-0.71485 -0.71055,-0.71917 -0.71055,-1.74408 0,-1.09812 0.80529,-1.83021 0.70624,-0.63734 1.6235,-0.63734 z m 0.0172,1.10674 q -0.5469,0 -0.91295,0.38326 -0.36173,0.37896 -0.36173,0.97324 0,0.61151 0.35743,0.99047 0.36173,0.37896 0.91295,0.37896 0.55121,0 0.91725,-0.38327 0.36604,-0.38327 0.36604,-0.98616 0,-0.60289 -0.36173,-0.97754 -0.35743,-0.37896 -0.91726,-0.37896 z" />
        <path
           id="path120"
           style="font-style:normal;font-variant:normal;font-weight:bold;font-stretch:normal;font-size:8.81944px;font-family:'Century Gothic';-inkscape-font-specification:'Century Gothic Bold';fill:#ff9400;fill-opacity:1;fill-rule:nonzero;stroke-width:1.18025"
           d="m 118.73332,284.06325 -0.97754,0.5383 q -0.27561,-0.28853 -0.54691,-0.4005 -0.267,-0.11196 -0.62873,-0.11196 -0.65888,0 -1.06798,0.39618 -0.4048,0.39188 -0.4048,1.00769 0,0.59859 0.39188,0.97755 0.39188,0.37896 1.02922,0.37896 0.78807,0 1.22732,-0.5383 l 0.92587,0.63304 q -0.75362,0.97754 -2.12735,0.97754 -1.23593,0 -1.93787,-0.73208 -0.69763,-0.73208 -0.69763,-1.71393 0,-0.68041 0.34021,-1.25315 0.3402,-0.57275 0.9474,-0.90004 0.6115,-0.32728 1.36512,-0.32728 0.69763,0 1.25315,0.27991 0.55552,0.27561 0.90864,0.78807 z" />
        <path
           id="path122"
           style="font-style:normal;font-variant:normal;font-weight:bold;font-stretch:normal;font-size:8.81944px;font-family:'Century Gothic';-inkscape-font-specification:'Century Gothic Bold';fill:#ff9400;fill-opacity:1;fill-rule:nonzero;stroke-width:1.18025"
           d="m 119.37927,283.11585 h 4.36666 v 1.11965 h -1.5546 v 3.56568 h -1.17995 v -3.56568 h -1.63211 z" />
        <path
           id="path124"
           style="font-style:normal;font-variant:normal;font-weight:bold;font-stretch:normal;font-size:8.81944px;font-family:'Century Gothic';-inkscape-font-specification:'Century Gothic Bold';fill:#ff9400;fill-opacity:1;fill-rule:nonzero;stroke-width:1.18025"
           d="m 125.13689,287.80118 h -0.62443 v -4.68533 h 1.1455 v 2.75177 l 2.39864,-2.75177 h 0.56414 v 4.68533 h -1.1455 v -2.69579 z" />
        <path
           id="path126"
           style="font-style:normal;font-variant:normal;font-weight:bold;font-stretch:normal;font-size:8.81944px;font-family:'Century Gothic';-inkscape-font-specification:'Century Gothic Bold';fill:#ff9400;fill-opacity:1;fill-rule:nonzero;stroke-width:1.18025"
           d="m 6.81945,295.83677 -2.2479236,-4.88773 h 1.360812 l 1.490003,3.53122 1.2230083,-3.53122 h 1.2402337 l -1.6880959,4.5303 q -0.4349431,1.16272 -0.9474008,1.5589 -0.5081513,0.39188 -1.0852045,0.39188 -0.938788,0 -1.7311596,-0.92156 l 0.7923716,-0.79668 q 0.4737004,0.55122 0.9344816,0.55122 0.2067057,0 0.340203,-0.099 0.1334974,-0.0991 0.3186712,-0.32728 z" />
        <path
           id="path128"
           style="font-style:normal;font-variant:normal;font-weight:bold;font-stretch:normal;font-size:8.81944px;font-family:'Century Gothic';-inkscape-font-specification:'Century Gothic Bold';fill:#ff9400;fill-opacity:1;fill-rule:nonzero;stroke-width:1.18025"
           d="m 11.177494,297.28371 v 0.8139 h -1.046447 v -1.80867 h 0.706244 l 1.614887,-3.69056 h 0.757921 l 1.63642,3.69056 h 0.719163 v 1.80867 h -1.119655 v -0.8139 z m 2.420179,-0.99477 -0.766534,-1.97232 -0.792372,1.97232 z" />
        <path
           id="path130"
           style="font-style:normal;font-variant:normal;font-weight:bold;font-stretch:normal;font-size:8.81944px;font-family:'Century Gothic';-inkscape-font-specification:'Century Gothic Bold';fill:#ff9400;fill-opacity:1;fill-rule:nonzero;stroke-width:1.18025"
           d="m 19.174418,295.55255 1.438327,-2.95417 h 0.775146 l 1.171332,4.68533 h -1.1498 l -0.624424,-2.74747 -1.395263,2.74747 h -0.482313 l -1.365118,-2.74747 -0.62873,2.74747 h -1.145493 l 1.171332,-4.68533 h 0.775146 z" />
        <path
           id="path132"
           style="font-style:normal;font-variant:normal;font-weight:bold;font-stretch:normal;font-size:8.81944px;font-family:'Century Gothic';-inkscape-font-specification:'Century Gothic Bold';fill:#ff9400;fill-opacity:1;fill-rule:nonzero;stroke-width:1.18025"
           d="m 22.69272,292.59838 h 1.201476 l 1.218702,2.94125 1.343587,-2.94125 h 1.205782 l -2.936942,6.39926 h -1.214396 l 0.964627,-2.06275 z" />
        <path
           id="path134"
           style="font-style:normal;font-variant:normal;font-weight:bold;font-stretch:normal;font-size:8.81944px;font-family:'Century Gothic';-inkscape-font-specification:'Century Gothic Bold';fill:#ff9400;fill-opacity:1;fill-rule:nonzero;stroke-width:1.18025"
           d="m 29.49678,292.59838 v 0.51676 q 0.318672,-0.31867 0.689019,-0.478 0.370348,-0.15934 0.792372,-0.15934 0.917256,0 1.558905,0.69333 0.641648,0.69332 0.641648,1.77853 0,1.04644 -0.66318,1.75269 -0.663181,0.70193 -1.571824,0.70193 -0.404799,0 -0.753614,-0.14211 -0.348816,-0.14641 -0.693326,-0.4737 v 2.20917 h -1.167025 v -6.39926 z m 1.235928,0.96463 q -0.555522,0 -0.921563,0.37896 -0.366041,0.37896 -0.366041,0.99046 0,0.62442 0.366041,1.012 0.366041,0.38326 0.921563,0.38326 0.538296,0 0.904337,-0.39188 0.370348,-0.39188 0.370348,-0.99907 0,-0.6029 -0.361735,-0.98616 -0.361735,-0.38757 -0.91295,-0.38757 z" />
        <path
           id="path136"
           style="font-style:normal;font-variant:normal;font-weight:bold;font-stretch:normal;font-size:8.81944px;font-family:'Century Gothic';-inkscape-font-specification:'Century Gothic Bold';fill:#ff9400;fill-opacity:1;fill-rule:nonzero;stroke-width:1.18025"
           d="m 33.734246,292.59838 h 4.366656 v 1.11965 h -1.554598 v 3.56568 h -1.179945 v -3.56568 h -1.632113 z" />
        <path
           id="path138"
           style="font-style:normal;font-variant:normal;font-weight:bold;font-stretch:normal;font-size:8.81944px;font-family:'Century Gothic';-inkscape-font-specification:'Century Gothic Bold';fill:#ff9400;fill-opacity:1;fill-rule:nonzero;stroke-width:1.18025"
           d="m 39.49186,297.28371 h -0.624423 v -4.68533 h 1.145494 v 2.75177 l 2.398646,-2.75177 h 0.564134 v 4.68533 h -1.145493 v -2.69579 z" />
        <path
           id="path140"
           style="font-style:normal;font-variant:normal;font-weight:bold;font-stretch:normal;font-size:8.81944px;font-family:'Century Gothic';-inkscape-font-specification:'Century Gothic Bold';fill:#ff9400;fill-opacity:1;fill-rule:nonzero;stroke-width:1.18025"
           d="m 44.780076,297.28371 h -0.624423 v -4.68533 h 1.145493 v 2.75177 l 2.398647,-2.75177 h 0.564134 v 4.68533 h -1.145494 v -2.69579 z" />
      </g>
    </g>
  </g>
</svg>
