<?xml version="1.0" encoding="UTF-8" standalone="no"?>
<!-- Created with Inkscape (http://www.inkscape.org/) -->

<svg
   xmlns:dc="http://purl.org/dc/elements/1.1/"
   xmlns:cc="http://creativecommons.org/ns#"
   xmlns:rdf="http://www.w3.org/1999/02/22-rdf-syntax-ns#"
   xmlns:svg="http://www.w3.org/2000/svg"
   xmlns="http://www.w3.org/2000/svg"
   xmlns:sodipodi="http://sodipodi.sourceforge.net/DTD/sodipodi-0.dtd"
   xmlns:inkscape="http://www.inkscape.org/namespaces/inkscape"
   width="22pc"
   height="4pc"
   viewBox="0 0 93.133372 16.933332"
   version="1.1"
   id="svg8"
   inkscape:version="0.92.2 (5c3e80d, 2017-08-06)"
   sodipodi:docname="2str.svg">
  <defs
     id="defs2">
    <clipPath
       clipPathUnits="userSpaceOnUse"
       id="clipPath7909">
      <g
         id="use7911"
         inkscape:label="Clip">
        <text
           xml:space="preserve"
           style="font-style:normal;font-weight:normal;font-size:10.58333302px;line-height:1.25;font-family:sans-serif;letter-spacing:0px;word-spacing:0px;fill:#ffffff;fill-opacity:1;stroke:none;stroke-width:0.26458332"
           x="82.876579"
           y="384.59238"
           id="text2114"><tspan
             sodipodi:role="line"
             id="tspan2112"
             x="82.876579"
             y="384.59238"
             style="font-style:normal;font-variant:normal;font-weight:normal;font-stretch:normal;font-size:3.52777767px;font-family:EuropeDemi;-inkscape-font-specification:EuropeDemi;fill:#ffffff;stroke-width:0.26458332"><tspan
               style="font-size:2.82222223px"
               id="tspan2110">ГЛАЗОВСКАЯ РАЙОННАЯ БИБЛИОТЕКА</tspan></tspan></text>
      </g>
    </clipPath>
  </defs>
  <sodipodi:namedview
     id="base"
     pagecolor="#ffffff"
     bordercolor="#666666"
     borderopacity="1.0"
     inkscape:pageopacity="0.0"
     inkscape:pageshadow="2"
     inkscape:zoom="0.35"
     inkscape:cx="122.17784"
     inkscape:cy="-176.61009"
     inkscape:document-units="mm"
     inkscape:current-layer="layer1"
     showgrid="false"
     inkscape:lockguides="false"
     showguides="false"
     units="pc"
     inkscape:window-width="1280"
     inkscape:window-height="972"
     inkscape:window-x="-8"
     inkscape:window-y="-8"
     inkscape:window-maximized="1"
     showborder="true"
     inkscape:pagecheckerboard="true" />
  <metadata
     id="metadata5">
    <rdf:RDF>
      <cc:Work
         rdf:about="">
        <dc:format>image/svg+xml</dc:format>
        <dc:type
           rdf:resource="http://purl.org/dc/dcmitype/StillImage" />
        <dc:title />
      </cc:Work>
    </rdf:RDF>
  </metadata>
  <g
     inkscape:label="Layer 1"
     inkscape:groupmode="layer"
     id="layer1"
     transform="translate(0,-280.06662)">
    <g
       aria-label="2 страница "
       style="font-style:normal;font-weight:normal;font-size:47.20985794px;line-height:1.25;font-family:sans-serif;letter-spacing:0px;word-spacing:0px;fill:#ffffff;fill-opacity:1;stroke:none;stroke-width:1.18024635"
       id="text8185">
      <path
         d="M 2.9965618,285.70296 H 0.89885806 q 0.0845229,-1.82877 1.14490054,-2.87378 1.0680616,-1.0527 2.7354672,-1.0527 1.0296421,0 1.8133995,0.43799 0.7914414,0.43029 1.2601591,1.25247 0.4764015,0.81449 0.4764015,1.65972 0,1.00659 -0.5762922,2.16686 -0.5686083,1.16027 -2.0900198,2.74315 l -1.267843,1.337 h 4.0263618 v 1.99013 H 0.5915022 v -1.02964 l 3.4961729,-3.56533 q 1.2678429,-1.28321 1.6827733,-2.05928 0.4226143,-0.78376 0.4226143,-1.41384 0,-0.65313 -0.4379821,-1.07575 -0.4302982,-0.43029 -1.114165,-0.43029 -0.6915506,0 -1.1525844,0.51482 -0.4610338,0.51482 -0.4917694,1.39847 z"
         style="font-style:normal;font-variant:normal;font-weight:bold;font-stretch:normal;font-family:'Century Gothic';-inkscape-font-specification:'Century Gothic Bold'"
         id="path8197" />
      <path
         d="m 22.713441,286.69418 -1.744244,0.96048 q -0.49177,-0.51482 -0.975855,-0.7146 -0.476402,-0.19978 -1.121849,-0.19978 -1.175636,0 -1.905606,0.70692 -0.722287,0.69923 -0.722287,1.79803 0,1.06806 0.699235,1.74425 0.699234,0.67618 1.836451,0.67618 1.406153,0 2.189911,-0.96049 l 1.652037,1.12953 q -1.344682,1.74425 -3.795845,1.74425 -2.205278,0 -3.457753,-1.30626 -1.244791,-1.30627 -1.244791,-3.05819 0,-1.21406 0.607028,-2.23602 0.607027,-1.02196 1.690457,-1.60593 1.091113,-0.58398 2.435795,-0.58398 1.244791,0 2.236014,0.49945 0.991223,0.49177 1.621302,1.40616 z"
         style="font-style:normal;font-variant:normal;font-weight:bold;font-stretch:normal;font-family:'Century Gothic';-inkscape-font-specification:'Century Gothic Bold'"
         id="path8199" />
      <path
         d="m 23.866026,285.00372 h 7.791471 v 1.99781 H 28.88361 v 6.36227 h -2.105388 v -6.36227 h -2.912196 z"
         style="font-style:normal;font-variant:normal;font-weight:bold;font-stretch:normal;font-family:'Century Gothic';-inkscape-font-specification:'Century Gothic Bold'"
         id="path8201" />
      <path
         d="m 35.11525,285.00372 v 0.92207 q 0.568608,-0.56861 1.229424,-0.85291 0.660815,-0.28431 1.413837,-0.28431 1.636669,0 2.78157,1.23711 1.144901,1.23711 1.144901,3.17345 0,1.86719 -1.18332,3.12734 -1.18332,1.25248 -2.804623,1.25248 -0.722286,0 -1.344682,-0.25357 -0.622395,-0.26125 -1.237107,-0.84523 v 3.94184 h -2.082336 v -11.41827 z m 2.205278,1.72119 q -0.991222,0 -1.644353,0.67619 -0.653132,0.67618 -0.653132,1.76729 0,1.11417 0.653132,1.80572 0.653131,0.68387 1.644353,0.68387 0.960487,0 1.613619,-0.69924 0.660815,-0.69923 0.660815,-1.78266 0,-1.07575 -0.645448,-1.75962 -0.645447,-0.69155 -1.628986,-0.69155 z"
         style="font-style:normal;font-variant:normal;font-weight:bold;font-stretch:normal;font-family:'Century Gothic';-inkscape-font-specification:'Century Gothic Bold'"
         id="path8203" />
      <path
         d="m 49.599395,285.00372 h 2.09002 v 8.36008 h -2.09002 v -0.88365 q -0.614712,0.58398 -1.237107,0.84523 -0.614712,0.25357 -1.336998,0.25357 -1.621302,0 -2.804623,-1.25248 -1.18332,-1.26015 -1.18332,-3.12734 0,-1.93634 1.144901,-3.17345 1.144901,-1.23711 2.78157,-1.23711 0.753022,0 1.413837,0.28431 0.660816,0.2843 1.22174,0.85291 z m -2.205278,1.72119 q -0.975855,0 -1.621302,0.69155 -0.645448,0.68387 -0.645448,1.75962 0,1.08343 0.653131,1.78266 0.660816,0.69924 1.621303,0.69924 0.991222,0 1.644353,-0.68387 0.653132,-0.69155 0.653132,-1.80572 0,-1.09111 -0.653132,-1.76729 -0.653131,-0.67619 -1.652037,-0.67619 z"
         style="font-style:normal;font-variant:normal;font-weight:bold;font-stretch:normal;font-family:'Century Gothic';-inkscape-font-specification:'Century Gothic Bold'"
         id="path8205" />
      <path
         d="m 55.907872,288.01581 h 3.119662 v -3.01209 h 2.105388 v 8.36008 h -2.105388 v -3.46544 h -3.119662 v 3.46544 h -2.105388 v -8.36008 h 2.105388 z"
         style="font-style:normal;font-variant:normal;font-weight:bold;font-stretch:normal;font-family:'Century Gothic';-inkscape-font-specification:'Century Gothic Bold'"
         id="path8207" />
      <path
         d="M 64.352475,293.3638 H 63.23831 v -8.36008 h 2.043916 v 4.91001 l 4.279931,-4.91001 h 1.00659 v 8.36008 h -2.043916 v -4.81012 z"
         style="font-style:normal;font-variant:normal;font-weight:bold;font-stretch:normal;font-family:'Century Gothic';-inkscape-font-specification:'Century Gothic Bold'"
         id="path8209" />
      <path
         d="m 72.674131,293.3638 v -8.36008 h 2.105388 v 6.3469 h 3.119662 v -6.3469 h 2.105388 v 6.3469 h 2.128439 v 3.4808 h -1.997813 v -1.46762 z"
         style="font-style:normal;font-variant:normal;font-weight:bold;font-stretch:normal;font-family:'Century Gothic';-inkscape-font-specification:'Century Gothic Bold'"
         id="path8211" />
      <path
         d="m 89.463451,285.00372 h 2.090019 v 8.36008 h -2.090019 v -0.88365 q -0.614712,0.58398 -1.237108,0.84523 -0.614711,0.25357 -1.336998,0.25357 -1.621302,0 -2.804622,-1.25248 -1.18332,-1.26015 -1.18332,-3.12734 0,-1.93634 1.144901,-3.17345 1.1449,-1.23711 2.78157,-1.23711 0.753022,0 1.413837,0.28431 0.660815,0.2843 1.22174,0.85291 z m -2.205279,1.72119 q -0.975855,0 -1.621302,0.69155 -0.645447,0.68387 -0.645447,1.75962 0,1.08343 0.653131,1.78266 0.660815,0.69924 1.621302,0.69924 0.991223,0 1.644354,-0.68387 0.653131,-0.69155 0.653131,-1.80572 0,-1.09111 -0.653131,-1.76729 -0.653131,-0.67619 -1.652038,-0.67619 z"
         style="font-style:normal;font-variant:normal;font-weight:bold;font-stretch:normal;font-family:'Century Gothic';-inkscape-font-specification:'Century Gothic Bold'"
         id="path8213" />
    </g>
  </g>
</svg>
