<?xml version="1.0" encoding="UTF-8" standalone="no"?>
<!-- Created with Inkscape (http://www.inkscape.org/) -->

<svg
   xmlns:dc="http://purl.org/dc/elements/1.1/"
   xmlns:cc="http://creativecommons.org/ns#"
   xmlns:rdf="http://www.w3.org/1999/02/22-rdf-syntax-ns#"
   xmlns:svg="http://www.w3.org/2000/svg"
   xmlns="http://www.w3.org/2000/svg"
   xmlns:sodipodi="http://sodipodi.sourceforge.net/DTD/sodipodi-0.dtd"
   xmlns:inkscape="http://www.inkscape.org/namespaces/inkscape"
   width="31pc"
   height="3pc"
   viewBox="0 0 131.23342 12.700002"
   version="1.1"
   id="svg8"
   inkscape:version="0.92.2 (5c3e80d, 2017-08-06)"
   sodipodi:docname="2strText.svg">
  <defs
     id="defs2">
    <clipPath
       clipPathUnits="userSpaceOnUse"
       id="clipPath7909">
      <g
         id="use7911"
         inkscape:label="Clip">
        <text
           xml:space="preserve"
           style="font-style:normal;font-weight:normal;font-size:10.58333302px;line-height:1.25;font-family:sans-serif;letter-spacing:0px;word-spacing:0px;fill:#ffffff;fill-opacity:1;stroke:none;stroke-width:0.26458332"
           x="82.876579"
           y="384.59238"
           id="text2398"><tspan
             sodipodi:role="line"
             id="tspan2396"
             x="82.876579"
             y="384.59238"
             style="font-style:normal;font-variant:normal;font-weight:normal;font-stretch:normal;font-size:3.52777767px;font-family:EuropeDemi;-inkscape-font-specification:EuropeDemi;fill:#ffffff;stroke-width:0.26458332"><tspan
               style="font-size:2.82222223px"
               id="tspan2394">ГЛАЗОВСКАЯ РАЙОННАЯ БИБЛИОТЕКА</tspan></tspan></text>
      </g>
    </clipPath>
  </defs>
  <sodipodi:namedview
     id="base"
     pagecolor="#ffffff"
     bordercolor="#666666"
     borderopacity="1.0"
     inkscape:pageopacity="0.0"
     inkscape:pageshadow="2"
     inkscape:zoom="0.8160281"
     inkscape:cx="180.25034"
     inkscape:cy="36.467565"
     inkscape:document-units="mm"
     inkscape:current-layer="layer1"
     showgrid="false"
     inkscape:lockguides="false"
     showguides="false"
     units="pc"
     inkscape:window-width="1280"
     inkscape:window-height="972"
     inkscape:window-x="-8"
     inkscape:window-y="-8"
     inkscape:window-maximized="1"
     showborder="true"
     inkscape:pagecheckerboard="true" />
  <metadata
     id="metadata5">
    <rdf:RDF>
      <cc:Work
         rdf:about="">
        <dc:format>image/svg+xml</dc:format>
        <dc:type
           rdf:resource="http://purl.org/dc/dcmitype/StillImage" />
        <dc:title />
      </cc:Work>
    </rdf:RDF>
  </metadata>
  <g
     inkscape:label="Layer 1"
     inkscape:groupmode="layer"
     id="layer1"
     transform="translate(0,-284.29992)">
    <g
       aria-label="КАЛЕНДАРНЫЕ ДАТЫ"
       style="font-style:normal;font-weight:normal;font-size:47.20985794px;line-height:1.25;font-family:sans-serif;letter-spacing:0px;word-spacing:0px;fill:#ff9400;fill-opacity:1;fill-rule:nonzero;stroke:none;stroke-width:1.18024635"
       id="text254">
      <path
         d="m 1.1169109,285.97949 h 1.7061836 v 3.05063 l 2.4055379,-3.05063 h 2.0317451 l -3.0988634,3.95496 3.4003092,4.91357 H 5.5602229 l -2.7371284,-3.93688 v 3.93688 H 1.1169109 Z"
         style="font-style:normal;font-variant:normal;font-weight:bold;font-stretch:normal;font-size:12.34722233px;font-family:'Century Gothic';-inkscape-font-specification:'Century Gothic Bold';fill:#ff9400;fill-opacity:1;fill-rule:nonzero;stroke-width:1.18024635"
         id="path4791" />
      <path
         d="m 11.474591,285.97949 h 1.712212 l 3.412367,8.86853 h -1.754415 l -0.693325,-1.82676 h -3.61735 l -0.7234705,1.82676 H 8.0561946 Z m 0.868164,2.35127 -1.181668,3.04461 h 2.357307 z"
         style="font-style:normal;font-variant:normal;font-weight:bold;font-stretch:normal;font-size:12.34722233px;font-family:'Century Gothic';-inkscape-font-specification:'Century Gothic Bold';fill:#ff9400;fill-opacity:1;fill-rule:nonzero;stroke-width:1.18024635"
         id="path4793" />
      <path
         d="m 23.653003,294.84802 -2.45377,-6.51726 -2.495971,6.51726 h -1.790589 l 3.418396,-8.86853 h 1.712213 l 3.412367,8.86853 z"
         style="font-style:normal;font-variant:normal;font-weight:bold;font-stretch:normal;font-size:12.34722233px;font-family:'Century Gothic';-inkscape-font-specification:'Century Gothic Bold';fill:#ff9400;fill-opacity:1;fill-rule:nonzero;stroke-width:1.18024635"
         id="path4795" />
      <path
         d="m 26.480566,285.97949 h 4.841221 v 1.65192 h -3.165182 v 1.60369 h 3.165182 v 1.62178 h -3.165182 v 2.33319 h 3.165182 v 1.65795 h -4.841221 z"
         style="font-style:normal;font-variant:normal;font-weight:bold;font-stretch:normal;font-size:12.34722233px;font-family:'Century Gothic';-inkscape-font-specification:'Century Gothic Bold';fill:#ff9400;fill-opacity:1;fill-rule:nonzero;stroke-width:1.18024635"
         id="path4797" />
      <path
         d="m 32.883275,285.97949 h 1.712212 v 3.34604 h 2.966227 v -3.34604 h 1.706184 v 8.86853 h -1.706184 v -3.88865 h -2.966227 v 3.88865 h -1.712212 z"
         style="font-style:normal;font-variant:normal;font-weight:bold;font-stretch:normal;font-size:12.34722233px;font-family:'Century Gothic';-inkscape-font-specification:'Century Gothic Bold';fill:#ff9400;fill-opacity:1;fill-rule:nonzero;stroke-width:1.18024635"
         id="path4799" />
      <path
         d="m 44.16338,285.97949 h 1.706183 l 2.851678,7.28293 h 0.988743 v 2.91196 h -1.633837 v -1.32636 h -6.101264 v 1.32636 h -1.633837 v -2.91196 h 0.982714 z m 0.868164,2.35127 -1.941311,4.93166 h 3.876593 z"
         style="font-style:normal;font-variant:normal;font-weight:bold;font-stretch:normal;font-size:12.34722233px;font-family:'Century Gothic';-inkscape-font-specification:'Century Gothic Bold';fill:#ff9400;fill-opacity:1;fill-rule:nonzero;stroke-width:1.18024635"
         id="path4801" />
      <path
         d="m 53.508201,285.97949 h 1.712212 l 3.412367,8.86853 h -1.754415 l -0.693325,-1.82676 h -3.617351 l -0.72347,1.82676 h -1.754414 z m 0.868164,2.35127 -1.181668,3.04461 h 2.357306 z"
         style="font-style:normal;font-variant:normal;font-weight:bold;font-stretch:normal;font-size:12.34722233px;font-family:'Century Gothic';-inkscape-font-specification:'Century Gothic Bold';fill:#ff9400;fill-opacity:1;fill-rule:nonzero;stroke-width:1.18024635"
         id="path4803" />
      <path
         d="m 59.941056,285.97949 h 1.790588 q 1.452969,0 2.092035,0.2713 0.645094,0.26527 1.012858,0.86816 0.373792,0.59686 0.373792,1.43488 0,0.92846 -0.488342,1.54341 -0.482313,0.61495 -1.314304,0.8561 -0.488342,0.13867 -1.77853,0.13867 v 3.75601 h -1.688097 z m 1.688097,3.46662 h 0.536573 q 0.633037,0 0.880222,-0.0904 0.247186,-0.0904 0.385851,-0.29542 0.144694,-0.21101 0.144694,-0.50643 0,-0.51246 -0.397909,-0.74758 -0.289388,-0.17484 -1.073147,-0.17484 h -0.476284 z"
         style="font-style:normal;font-variant:normal;font-weight:bold;font-stretch:normal;font-size:12.34722233px;font-family:'Century Gothic';-inkscape-font-specification:'Century Gothic Bold';fill:#ff9400;fill-opacity:1;fill-rule:nonzero;stroke-width:1.18024635"
         id="path4805" />
      <path
         d="m 66.862252,285.97949 h 1.712212 v 3.34604 h 2.966228 v -3.34604 h 1.706183 v 8.86853 h -1.706183 v -3.88865 h -2.966228 v 3.88865 h -1.712212 z"
         style="font-style:normal;font-variant:normal;font-weight:bold;font-stretch:normal;font-size:12.34722233px;font-family:'Century Gothic';-inkscape-font-specification:'Century Gothic Bold';fill:#ff9400;fill-opacity:1;fill-rule:nonzero;stroke-width:1.18024635"
         id="path4807" />
      <path
         d="m 82.024984,285.97949 h 1.676039 v 8.86853 h -1.676039 z m -6.770474,8.86853 v -8.86853 h 1.688096 v 3.34604 h 0.367764 q 1.055061,0 1.754415,0.24719 0.705384,0.24116 1.217841,0.92845 0.512458,0.68127 0.512458,1.6459 0,0.91036 -0.440111,1.5434 -0.44011,0.63304 -1.024915,0.89831 -0.578776,0.25924 -1.591635,0.25924 z m 1.688096,-4.01526 v 2.40554 h 0.422025 q 1.049031,0 1.404737,-0.25924 0.355706,-0.25925 0.355706,-0.88625 0,-1.26005 -1.83279,-1.26005 z"
         style="font-style:normal;font-variant:normal;font-weight:bold;font-stretch:normal;font-size:12.34722233px;font-family:'Century Gothic';-inkscape-font-specification:'Century Gothic Bold';fill:#ff9400;fill-opacity:1;fill-rule:nonzero;stroke-width:1.18024635"
         id="path4809" />
      <path
         d="m 85.732762,285.97949 h 4.84122 v 1.65192 h -3.165181 v 1.60369 h 3.165181 v 1.62178 h -3.165181 v 2.33319 h 3.165181 v 1.65795 h -4.84122 z"
         style="font-style:normal;font-variant:normal;font-weight:bold;font-stretch:normal;font-size:12.34722233px;font-family:'Century Gothic';-inkscape-font-specification:'Century Gothic Bold';fill:#ff9400;fill-opacity:1;fill-rule:nonzero;stroke-width:1.18024635"
         id="path4811" />
      <path
         d="m 98.471867,285.97949 h 1.706183 l 2.85168,7.28293 h 0.98874 v 2.91196 h -1.63384 v -1.32636 h -6.10126 v 1.32636 h -1.633837 v -2.91196 h 0.982714 z m 0.868164,2.35127 -1.941311,4.93166 h 3.87659 z"
         style="font-style:normal;font-variant:normal;font-weight:bold;font-stretch:normal;font-size:12.34722233px;font-family:'Century Gothic';-inkscape-font-specification:'Century Gothic Bold';fill:#ff9400;fill-opacity:1;fill-rule:nonzero;stroke-width:1.18024635"
         id="path4813" />
      <path
         d="m 107.81669,285.97949 h 1.71221 l 3.41237,8.86853 h -1.75442 l -0.69332,-1.82676 h -3.61735 l -0.72347,1.82676 h -1.75442 z m 0.86816,2.35127 -1.18167,3.04461 h 2.35731 z"
         style="font-style:normal;font-variant:normal;font-weight:bold;font-stretch:normal;font-size:12.34722233px;font-family:'Century Gothic';-inkscape-font-specification:'Century Gothic Bold';fill:#ff9400;fill-opacity:1;fill-rule:nonzero;stroke-width:1.18024635"
         id="path4815" />
      <path
         d="m 113.38138,285.97949 h 4.90151 v 1.66398 h -1.61575 v 7.20455 h -1.71221 v -7.20455 h -1.57355 z"
         style="font-style:normal;font-variant:normal;font-weight:bold;font-stretch:normal;font-size:12.34722233px;font-family:'Century Gothic';-inkscape-font-specification:'Century Gothic Bold';fill:#ff9400;fill-opacity:1;fill-rule:nonzero;stroke-width:1.18024635"
         id="path4817" />
      <path
         d="m 126.20488,285.97949 h 1.67604 v 8.86853 h -1.67604 z m -6.77047,8.86853 v -8.86853 h 1.6881 v 3.34604 h 0.36776 q 1.05506,0 1.75442,0.24719 0.70538,0.24116 1.21784,0.92845 0.51246,0.68127 0.51246,1.6459 0,0.91036 -0.44012,1.5434 -0.44011,0.63304 -1.02491,0.89831 -0.57878,0.25924 -1.59164,0.25924 z m 1.6881,-4.01526 v 2.40554 h 0.42202 q 1.04903,0 1.40474,-0.25924 0.35571,-0.25925 0.35571,-0.88625 0,-1.26005 -1.8328,-1.26005 z"
         style="font-style:normal;font-variant:normal;font-weight:bold;font-stretch:normal;font-size:12.34722233px;font-family:'Century Gothic';-inkscape-font-specification:'Century Gothic Bold';fill:#ff9400;fill-opacity:1;fill-rule:nonzero;stroke-width:1.18024635"
         id="path4819" />
    </g>
  </g>
</svg>
