<?xml version="1.0" encoding="UTF-8"?>
<!DOCTYPE svg PUBLIC "-//W3C//DTD SVG 1.1//EN" "http://www.w3.org/Graphics/SVG/1.1/DTD/svg11.dtd">
<!-- Creator: CorelDRAW -->
<svg xmlns="http://www.w3.org/2000/svg" xml:space="preserve" width="79.2851mm" height="23.0341mm" version="1.1" style="shape-rendering:geometricPrecision; text-rendering:geometricPrecision; image-rendering:optimizeQuality; fill-rule:evenodd; clip-rule:evenodd"
viewBox="0 0 84.22 24.47"
 xmlns:xlink="http://www.w3.org/1999/xlink"
 xmlns:xodm="http://www.corel.com/coreldraw/odm/2003">
 <defs>
  <style type="text/css">
   <![CDATA[
    .fil0 {fill:#C29138;fill-rule:nonzero}
   ]]>
  </style>
 </defs>
 <g id="Слой_x0020_1">
  <metadata id="CorelCorpID_0Corel-Layer"/>
  <polygon class="fil0" points="0.1,0.22 1.15,0.22 1.15,2.26 2.95,2.26 2.95,0.22 3.98,0.22 3.98,5.61 2.95,5.61 2.95,3.25 1.15,3.25 1.15,5.61 0.1,5.61 "/>
  <path id="_1" class="fil0" d="M6.97 1.53c0.38,0 0.73,0.09 1.06,0.28 0.33,0.19 0.59,0.44 0.78,0.76 0.19,0.32 0.28,0.67 0.28,1.04 0,0.37 -0.09,0.72 -0.28,1.05 -0.19,0.33 -0.44,0.58 -0.76,0.76 -0.32,0.18 -0.68,0.28 -1.07,0.28 -0.57,0 -1.06,-0.2 -1.46,-0.61 -0.4,-0.41 -0.61,-0.9 -0.61,-1.48 0,-0.62 0.23,-1.14 0.69,-1.55 0.4,-0.36 0.86,-0.54 1.38,-0.54zm0.02 0.94c-0.31,0 -0.57,0.11 -0.78,0.32 -0.21,0.22 -0.31,0.49 -0.31,0.83 0,0.34 0.1,0.62 0.31,0.84 0.2,0.21 0.46,0.32 0.78,0.32 0.31,0 0.57,-0.11 0.78,-0.32 0.21,-0.22 0.31,-0.49 0.31,-0.83 0,-0.34 -0.1,-0.62 -0.31,-0.83 -0.2,-0.21 -0.46,-0.32 -0.78,-0.32z"/>
  <polygon id="_2" class="fil0" points="9.54,1.63 13.25,1.63 13.25,2.58 11.93,2.58 11.93,5.61 10.93,5.61 10.93,2.58 9.54,2.58 "/>
  <path id="_3" class="fil0" d="M16.85 1.63l1 0 0 3.98 -1 0 0 -0.42c-0.19,0.18 -0.39,0.32 -0.59,0.4 -0.2,0.08 -0.41,0.12 -0.64,0.12 -0.52,0 -0.96,-0.2 -1.34,-0.6 -0.38,-0.4 -0.56,-0.89 -0.56,-1.48 0,-0.61 0.18,-1.12 0.55,-1.51 0.36,-0.39 0.8,-0.59 1.32,-0.59 0.24,0 0.46,0.04 0.67,0.13 0.21,0.09 0.4,0.22 0.58,0.4l0 -0.44zm-1.05 0.82c-0.31,0 -0.57,0.11 -0.77,0.33 -0.2,0.22 -0.31,0.5 -0.31,0.84 0,0.34 0.1,0.63 0.31,0.85 0.21,0.22 0.46,0.33 0.77,0.33 0.31,0 0.57,-0.11 0.78,-0.33 0.21,-0.22 0.31,-0.5 0.31,-0.86 0,-0.35 -0.1,-0.63 -0.31,-0.84 -0.21,-0.21 -0.47,-0.32 -0.78,-0.32z"/>
  <path id="_4" class="fil0" d="M19.85 1.63l0 0.44c0.18,-0.18 0.37,-0.31 0.58,-0.4 0.21,-0.09 0.43,-0.13 0.67,-0.13 0.52,0 0.96,0.2 1.32,0.59 0.36,0.39 0.54,0.89 0.54,1.51 0,0.59 -0.19,1.09 -0.56,1.48 -0.37,0.4 -0.82,0.6 -1.33,0.6 -0.23,0 -0.44,-0.04 -0.64,-0.12 -0.2,-0.08 -0.39,-0.21 -0.59,-0.4l0 1.88 -1 0 0 -5.43 1 0zm1.05 0.82c-0.31,0 -0.57,0.11 -0.78,0.32 -0.21,0.21 -0.31,0.49 -0.31,0.84 0,0.35 0.1,0.64 0.31,0.86 0.21,0.22 0.47,0.33 0.78,0.33 0.3,0 0.56,-0.11 0.77,-0.33 0.21,-0.22 0.31,-0.5 0.31,-0.85 0,-0.34 -0.1,-0.62 -0.31,-0.84 -0.2,-0.22 -0.46,-0.33 -0.77,-0.33z"/>
  <polygon id="_5" class="fil0" points="24.33,5.61 23.8,5.61 23.8,1.63 24.78,1.63 24.78,3.96 26.82,1.63 27.29,1.63 27.29,5.61 26.32,5.61 26.32,3.32 "/>
  <polygon id="_6" class="fil0" points="27.86,1.63 28.88,1.63 29.91,4.12 31.05,1.63 32.07,1.63 29.58,7.06 28.56,7.06 29.37,5.31 "/>
  <path id="_7" class="fil0" d="M36.54 2.44l-0.83 0.46c-0.16,-0.16 -0.31,-0.28 -0.46,-0.34 -0.15,-0.06 -0.33,-0.09 -0.54,-0.09 -0.37,0 -0.68,0.11 -0.91,0.33 -0.23,0.22 -0.35,0.51 -0.35,0.85 0,0.34 0.11,0.61 0.33,0.83 0.22,0.21 0.51,0.32 0.87,0.32 0.45,0 0.79,-0.15 1.04,-0.46l0.79 0.54c-0.43,0.55 -1.03,0.83 -1.81,0.83 -0.7,0 -1.25,-0.21 -1.65,-0.62 -0.4,-0.41 -0.59,-0.9 -0.59,-1.45 0,-0.38 0.1,-0.74 0.29,-1.06 0.19,-0.32 0.46,-0.58 0.81,-0.76 0.34,-0.18 0.73,-0.28 1.16,-0.28 0.4,0 0.75,0.08 1.07,0.24 0.31,0.16 0.57,0.38 0.77,0.67z"/>
  <path id="_8" class="fil0" d="M38.44 3.07l0.3 0c0.42,0 0.74,0.03 0.96,0.1 0.22,0.06 0.41,0.2 0.57,0.4 0.15,0.2 0.23,0.46 0.23,0.77 0,0.31 -0.07,0.56 -0.21,0.76 -0.14,0.2 -0.32,0.34 -0.53,0.41 -0.22,0.07 -0.52,0.1 -0.91,0.1l-1.41 0 0 -3.98 1 0 0 1.44zm0 1.77l0.3 0c0.18,0 0.31,-0.01 0.39,-0.04 0.08,-0.02 0.15,-0.07 0.21,-0.15 0.06,-0.07 0.09,-0.16 0.09,-0.27 0,-0.34 -0.2,-0.51 -0.59,-0.51l-0.42 0 0 0.96zm2.76 -3.21l1 0 0 3.98 -1 0 0 -3.98z"/>
  <path id="_9" class="fil0" d="M49.11 0l0 0.94c-0.29,0.03 -0.56,0.05 -0.83,0.05 -0.49,0 -0.86,0.03 -1.1,0.06 -0.25,0.04 -0.46,0.13 -0.65,0.26 -0.19,0.14 -0.32,0.3 -0.4,0.48 -0.08,0.18 -0.13,0.44 -0.14,0.77 0.29,-0.69 0.78,-1.03 1.49,-1.03 0.52,0 0.96,0.19 1.34,0.56 0.38,0.38 0.57,0.86 0.57,1.46 0,0.61 -0.2,1.12 -0.61,1.53 -0.41,0.41 -0.91,0.61 -1.5,0.61 -0.49,0 -0.92,-0.15 -1.29,-0.45 -0.37,-0.3 -0.61,-0.65 -0.71,-1.06 -0.1,-0.41 -0.16,-0.85 -0.16,-1.31 0,-0.6 0.07,-1.08 0.22,-1.46 0.15,-0.37 0.35,-0.66 0.59,-0.84 0.24,-0.19 0.52,-0.31 0.84,-0.38 0.32,-0.06 0.79,-0.11 1.41,-0.13 0.42,-0.02 0.73,-0.04 0.94,-0.07zm-0.75 3.61c0,-0.33 -0.1,-0.61 -0.3,-0.82 -0.2,-0.22 -0.46,-0.33 -0.79,-0.33 -0.31,0 -0.57,0.11 -0.78,0.33 -0.21,0.22 -0.31,0.49 -0.31,0.82 0,0.35 0.1,0.63 0.31,0.84 0.2,0.21 0.46,0.32 0.78,0.32 0.31,0 0.57,-0.11 0.78,-0.32 0.21,-0.21 0.32,-0.49 0.32,-0.84z"/>
  <polygon id="_10" class="fil0" points="49.74,1.63 50.76,1.63 51.79,4.12 52.94,1.63 53.96,1.63 51.47,7.06 50.45,7.06 51.26,5.31 "/>
  <path id="_11" class="fil0" d="M55.05 5.61l0 0.69 -0.89 0 0 -1.54 0.6 0 1.38 -3.13 0.64 0 1.39 3.13 0.61 0 0 1.54 -0.95 0 0 -0.69 -2.78 0zm2.06 -0.85l-0.65 -1.68 -0.68 1.68 1.34 0z"/>
  <polygon id="_12" class="fil0" points="58.96,1.63 59.99,1.63 61.02,4.12 62.16,1.63 63.18,1.63 60.69,7.06 59.67,7.06 60.48,5.31 "/>
  <polygon id="_13" class="fil0" points="63.4,1.63 67.11,1.63 67.11,2.58 65.79,2.58 65.79,5.61 64.79,5.61 64.79,2.58 63.4,2.58 "/>
  <polygon id="_14" class="fil0" points="0.53,14.69 -0,14.69 -0,10.71 0.97,10.71 0.97,13.05 3.01,10.71 3.49,10.71 3.49,14.69 2.52,14.69 2.52,12.4 "/>
  <polygon id="_15" class="fil0" points="5.49,12.14 6.99,12.14 6.99,10.71 7.99,10.71 7.99,14.69 6.99,14.69 6.99,13.04 5.49,13.04 5.49,14.69 4.5,14.69 4.5,10.71 5.49,10.71 "/>
  <path id="_16" class="fil0" d="M11.77 14.35c-0.35,0.3 -0.73,0.46 -1.14,0.46 -0.5,0 -0.93,-0.2 -1.3,-0.6 -0.37,-0.4 -0.55,-0.89 -0.55,-1.49 0,-0.62 0.18,-1.13 0.54,-1.52 0.36,-0.39 0.79,-0.58 1.29,-0.58 0.45,0 0.84,0.15 1.16,0.46l0 -1.9 1 0 0 1.9c0.33,-0.32 0.72,-0.47 1.17,-0.47 0.32,0 0.62,0.08 0.89,0.25 0.28,0.17 0.5,0.41 0.67,0.73 0.17,0.31 0.26,0.69 0.26,1.13 0,0.61 -0.19,1.11 -0.56,1.5 -0.37,0.39 -0.8,0.59 -1.3,0.59 -0.41,0 -0.79,-0.15 -1.14,-0.44l0 1.8 -1 0 0 -1.8zm3 -1.66c0,-0.34 -0.1,-0.62 -0.29,-0.84 -0.19,-0.22 -0.44,-0.33 -0.75,-0.33 -0.26,0 -0.49,0.1 -0.69,0.31 -0.2,0.21 -0.29,0.51 -0.29,0.9 0,0.36 0.09,0.64 0.28,0.85 0.19,0.2 0.42,0.3 0.71,0.3 0.29,0 0.54,-0.11 0.74,-0.34 0.2,-0.22 0.3,-0.51 0.3,-0.86zm-2.97 0.04c0,-0.26 -0.04,-0.48 -0.13,-0.65 -0.09,-0.17 -0.2,-0.3 -0.35,-0.4 -0.15,-0.1 -0.31,-0.15 -0.5,-0.15 -0.32,0 -0.57,0.11 -0.75,0.34 -0.18,0.23 -0.27,0.5 -0.27,0.83 0,0.34 0.1,0.63 0.29,0.85 0.2,0.23 0.44,0.34 0.73,0.34 0.28,0 0.51,-0.1 0.7,-0.3 0.19,-0.2 0.28,-0.49 0.28,-0.86z"/>
  <path id="_17" class="fil0" d="M18.42 10.62c0.38,0 0.73,0.09 1.06,0.28 0.33,0.19 0.59,0.44 0.78,0.76 0.19,0.32 0.28,0.67 0.28,1.04 0,0.37 -0.09,0.72 -0.28,1.05 -0.19,0.33 -0.44,0.58 -0.76,0.76 -0.32,0.18 -0.68,0.28 -1.07,0.28 -0.57,0 -1.06,-0.2 -1.46,-0.61 -0.4,-0.41 -0.61,-0.9 -0.61,-1.48 0,-0.62 0.23,-1.14 0.69,-1.55 0.4,-0.36 0.86,-0.54 1.38,-0.54zm0.02 0.94c-0.31,0 -0.57,0.11 -0.78,0.32 -0.21,0.22 -0.31,0.49 -0.31,0.83 0,0.34 0.1,0.62 0.31,0.84 0.2,0.21 0.46,0.32 0.78,0.32 0.31,0 0.57,-0.11 0.78,-0.32 0.21,-0.22 0.31,-0.49 0.31,-0.83 0,-0.34 -0.1,-0.62 -0.31,-0.83 -0.2,-0.21 -0.46,-0.32 -0.78,-0.32z"/>
  <path id="_18" class="fil0" d="M22.34 10.71l0 0.44c0.18,-0.18 0.37,-0.31 0.58,-0.4 0.21,-0.09 0.43,-0.13 0.67,-0.13 0.52,0 0.96,0.2 1.32,0.59 0.36,0.39 0.54,0.89 0.54,1.51 0,0.59 -0.19,1.09 -0.56,1.48 -0.37,0.4 -0.82,0.6 -1.33,0.6 -0.23,0 -0.44,-0.04 -0.64,-0.12 -0.2,-0.08 -0.39,-0.21 -0.59,-0.4l0 1.88 -1 0 0 -5.43 1 0zm1.05 0.82c-0.31,0 -0.57,0.11 -0.78,0.32 -0.21,0.21 -0.31,0.49 -0.31,0.84 0,0.35 0.1,0.64 0.31,0.86 0.21,0.22 0.47,0.33 0.78,0.33 0.3,0 0.56,-0.11 0.77,-0.33 0.21,-0.22 0.31,-0.5 0.31,-0.85 0,-0.34 -0.1,-0.62 -0.31,-0.84 -0.2,-0.22 -0.46,-0.33 -0.77,-0.33z"/>
  <polygon id="_19" class="fil0" points="28.74,13.22 29.97,10.71 30.63,10.71 31.62,14.69 30.64,14.69 30.11,12.36 28.92,14.69 28.51,14.69 27.35,12.36 26.81,14.69 25.84,14.69 26.83,10.71 27.49,10.71 "/>
  <polygon id="_20" class="fil0" points="32.7,14.69 32.17,14.69 32.17,10.71 33.14,10.71 33.14,13.05 35.18,10.71 35.66,10.71 35.66,14.69 34.68,14.69 34.68,12.4 "/>
  <path id="_21" class="fil0" d="M37.66 10.71l0 0.44c0.18,-0.18 0.37,-0.31 0.58,-0.4 0.21,-0.09 0.43,-0.13 0.67,-0.13 0.52,0 0.96,0.2 1.32,0.59 0.36,0.39 0.54,0.89 0.54,1.51 0,0.59 -0.19,1.09 -0.56,1.48 -0.37,0.4 -0.82,0.6 -1.33,0.6 -0.23,0 -0.44,-0.04 -0.64,-0.12 -0.2,-0.08 -0.39,-0.21 -0.59,-0.4l0 1.88 -1 0 0 -5.43 1 0zm1.05 0.82c-0.31,0 -0.57,0.11 -0.78,0.32 -0.21,0.21 -0.31,0.49 -0.31,0.84 0,0.35 0.1,0.64 0.31,0.86 0.21,0.22 0.47,0.33 0.78,0.33 0.3,0 0.56,-0.11 0.77,-0.33 0.21,-0.22 0.31,-0.5 0.31,-0.85 0,-0.34 -0.1,-0.62 -0.31,-0.84 -0.2,-0.22 -0.46,-0.33 -0.77,-0.33z"/>
  <path id="_22" class="fil0" d="M43.48 10.62c0.38,0 0.73,0.09 1.06,0.28 0.33,0.19 0.59,0.44 0.78,0.76 0.19,0.32 0.28,0.67 0.28,1.04 0,0.37 -0.09,0.72 -0.28,1.05 -0.19,0.33 -0.44,0.58 -0.76,0.76 -0.32,0.18 -0.68,0.28 -1.07,0.28 -0.57,0 -1.06,-0.2 -1.46,-0.61 -0.4,-0.41 -0.61,-0.9 -0.61,-1.48 0,-0.62 0.23,-1.14 0.69,-1.55 0.4,-0.36 0.86,-0.54 1.38,-0.54zm0.02 0.94c-0.31,0 -0.57,0.11 -0.78,0.32 -0.21,0.22 -0.31,0.49 -0.31,0.83 0,0.34 0.1,0.62 0.31,0.84 0.2,0.21 0.46,0.32 0.78,0.32 0.31,0 0.57,-0.11 0.78,-0.32 0.21,-0.22 0.31,-0.49 0.31,-0.83 0,-0.34 -0.1,-0.62 -0.31,-0.83 -0.2,-0.21 -0.46,-0.32 -0.78,-0.32z"/>
  <path id="_23" class="fil0" d="M46.41 14.69l0 -3.98 1.6 0c0.52,0 0.88,0.1 1.07,0.31 0.19,0.21 0.28,0.44 0.28,0.7 0,0.39 -0.19,0.67 -0.58,0.84 0.52,0.18 0.79,0.52 0.79,1.02 0,0.27 -0.07,0.49 -0.21,0.67 -0.14,0.18 -0.32,0.29 -0.53,0.35 -0.21,0.06 -0.51,0.09 -0.89,0.09l-1.53 0zm1 -2.41l0.39 0c0.17,0 0.29,-0.04 0.38,-0.12 0.09,-0.08 0.13,-0.17 0.13,-0.27 0,-0.15 -0.04,-0.26 -0.13,-0.35 -0.09,-0.08 -0.19,-0.12 -0.31,-0.12l-0.13 0 -0.34 0 0 0.86zm0 1.64l0.51 0c0.2,0 0.34,-0.05 0.42,-0.14 0.08,-0.09 0.12,-0.18 0.12,-0.27 0,-0.13 -0.04,-0.25 -0.13,-0.35 -0.09,-0.11 -0.25,-0.16 -0.49,-0.16l-0.42 0 0 0.91z"/>
  <path id="_24" class="fil0" d="M53.37 10.71l1 0 0 3.98 -1 0 0 -0.42c-0.19,0.18 -0.39,0.32 -0.59,0.4 -0.2,0.08 -0.41,0.12 -0.64,0.12 -0.52,0 -0.96,-0.2 -1.34,-0.6 -0.38,-0.4 -0.56,-0.89 -0.56,-1.48 0,-0.61 0.18,-1.12 0.55,-1.51 0.36,-0.39 0.8,-0.59 1.32,-0.59 0.24,0 0.46,0.04 0.67,0.13 0.21,0.09 0.4,0.22 0.58,0.4l0 -0.44zm-1.05 0.82c-0.31,0 -0.57,0.11 -0.77,0.33 -0.2,0.22 -0.31,0.5 -0.31,0.84 0,0.34 0.1,0.63 0.31,0.85 0.21,0.22 0.46,0.33 0.77,0.33 0.31,0 0.57,-0.11 0.78,-0.33 0.21,-0.22 0.31,-0.5 0.31,-0.86 0,-0.35 -0.1,-0.63 -0.31,-0.84 -0.21,-0.21 -0.47,-0.32 -0.78,-0.32z"/>
  <polygon id="_25" class="fil0" points="55.02,10.71 58.73,10.71 58.73,11.66 57.4,11.66 57.4,14.69 56.4,14.69 56.4,11.66 55.02,11.66 "/>
  <path id="_26" class="fil0" d="M60.38 12.15l0.3 0c0.42,0 0.74,0.03 0.96,0.1 0.22,0.06 0.41,0.2 0.57,0.4 0.15,0.2 0.23,0.46 0.23,0.77 0,0.31 -0.07,0.56 -0.21,0.76 -0.14,0.2 -0.32,0.34 -0.53,0.41 -0.22,0.07 -0.52,0.1 -0.91,0.1l-1.41 0 0 -3.98 1 0 0 1.44zm0 1.77l0.3 0c0.18,0 0.31,-0.01 0.39,-0.04 0.08,-0.02 0.15,-0.07 0.21,-0.15 0.06,-0.07 0.09,-0.16 0.09,-0.27 0,-0.34 -0.2,-0.51 -0.59,-0.51l-0.42 0 0 0.96z"/>
  <polygon id="_27" class="fil0" points="1,21.23 2.5,21.23 2.5,19.8 3.49,19.8 3.49,23.78 2.5,23.78 2.5,22.13 1,22.13 1,23.78 -0,23.78 -0,19.8 1,19.8 "/>
  <path id="_28" class="fil0" d="M7.44 19.8l1 0 0 3.98 -1 0 0 -0.42c-0.19,0.18 -0.39,0.32 -0.59,0.4 -0.2,0.08 -0.41,0.12 -0.64,0.12 -0.52,0 -0.96,-0.2 -1.34,-0.6 -0.38,-0.4 -0.56,-0.89 -0.56,-1.48 0,-0.61 0.18,-1.12 0.55,-1.51 0.36,-0.39 0.8,-0.59 1.32,-0.59 0.24,0 0.46,0.04 0.67,0.13 0.21,0.09 0.4,0.22 0.58,0.4l0 -0.44zm-1.05 0.82c-0.31,0 -0.57,0.11 -0.77,0.33 -0.2,0.22 -0.31,0.5 -0.31,0.84 0,0.34 0.1,0.63 0.31,0.85 0.21,0.22 0.46,0.33 0.77,0.33 0.31,0 0.57,-0.11 0.78,-0.33 0.21,-0.22 0.31,-0.5 0.31,-0.86 0,-0.35 -0.1,-0.63 -0.31,-0.84 -0.21,-0.21 -0.47,-0.32 -0.78,-0.32z"/>
  <path id="_29" class="fil0" d="M13.34 20.61l-0.83 0.46c-0.16,-0.16 -0.31,-0.28 -0.46,-0.34 -0.15,-0.06 -0.33,-0.09 -0.54,-0.09 -0.37,0 -0.68,0.11 -0.91,0.33 -0.23,0.22 -0.35,0.51 -0.35,0.85 0,0.34 0.11,0.61 0.33,0.83 0.22,0.21 0.51,0.32 0.87,0.32 0.45,0 0.79,-0.15 1.04,-0.46l0.79 0.54c-0.43,0.55 -1.03,0.83 -1.81,0.83 -0.7,0 -1.25,-0.21 -1.65,-0.62 -0.4,-0.41 -0.59,-0.9 -0.59,-1.45 0,-0.38 0.1,-0.74 0.29,-1.06 0.19,-0.32 0.46,-0.58 0.81,-0.76 0.34,-0.18 0.73,-0.28 1.16,-0.28 0.4,0 0.75,0.08 1.07,0.24 0.31,0.16 0.57,0.38 0.77,0.67z"/>
  <polygon id="_30" class="fil0" points="17.81,23.78 16.8,23.78 15.79,21.26 14.77,23.78 13.76,23.78 15.46,19.8 16.1,19.8 "/>
  <path id="_31" class="fil0" d="M22.31 22.07l-3.2 0c0.05,0.28 0.17,0.51 0.37,0.68 0.2,0.17 0.46,0.25 0.77,0.25 0.37,0 0.69,-0.13 0.96,-0.39l0.84 0.4c-0.21,0.3 -0.46,0.52 -0.75,0.66 -0.29,0.14 -0.64,0.21 -1.04,0.21 -0.62,0 -1.13,-0.2 -1.52,-0.59 -0.39,-0.39 -0.59,-0.88 -0.59,-1.48 0,-0.61 0.2,-1.11 0.59,-1.51 0.39,-0.4 0.88,-0.6 1.47,-0.6 0.63,0 1.14,0.2 1.53,0.6 0.39,0.4 0.59,0.93 0.59,1.58l-0 0.19zm-0.99 -0.78c-0.07,-0.22 -0.2,-0.39 -0.39,-0.53 -0.19,-0.14 -0.42,-0.2 -0.68,-0.2 -0.28,0 -0.52,0.08 -0.73,0.23 -0.13,0.09 -0.25,0.26 -0.37,0.5l2.17 0z"/>
  <path id="_32" class="fil0" d="M23.64 23.78l0 0.69 -0.89 0 0 -1.54 0.6 0 1.38 -3.13 0.64 0 1.39 3.13 0.61 0 0 1.54 -0.95 0 0 -0.69 -2.78 0zm2.06 -0.85l-0.65 -1.68 -0.68 1.68 1.34 0z"/>
  <polygon id="_33" class="fil0" points="29,21.23 30.5,21.23 30.5,19.8 31.5,19.8 31.5,23.78 30.5,23.78 30.5,22.13 29,22.13 29,23.78 28,23.78 28,19.8 29,19.8 "/>
  <polygon id="_34" class="fil0" points="33.03,23.78 32.5,23.78 32.5,19.8 33.48,19.8 33.48,22.14 35.52,19.8 36,19.8 36,23.78 35.02,23.78 35.02,21.49 "/>
  <polygon id="_35" class="fil0" points="37,19.8 38,19.8 38,21.29 39.38,19.8 40.6,19.8 38.82,21.73 40.62,23.78 39.3,23.78 38.1,22.38 38,22.5 38,23.78 37,23.78 "/>
  <path id="_36" class="fil0" d="M42.9 19.7c0.38,0 0.73,0.09 1.06,0.28 0.33,0.19 0.59,0.44 0.78,0.76 0.19,0.32 0.28,0.67 0.28,1.04 0,0.37 -0.09,0.72 -0.28,1.05 -0.19,0.33 -0.44,0.58 -0.76,0.76 -0.32,0.18 -0.68,0.28 -1.07,0.28 -0.57,0 -1.06,-0.2 -1.46,-0.61 -0.4,-0.41 -0.61,-0.9 -0.61,-1.48 0,-0.62 0.23,-1.14 0.69,-1.55 0.4,-0.36 0.86,-0.54 1.38,-0.54zm0.02 0.94c-0.31,0 -0.57,0.11 -0.78,0.32 -0.21,0.22 -0.31,0.49 -0.31,0.83 0,0.34 0.1,0.62 0.31,0.84 0.2,0.21 0.46,0.32 0.78,0.32 0.31,0 0.57,-0.11 0.78,-0.32 0.21,-0.22 0.31,-0.49 0.31,-0.83 0,-0.34 -0.1,-0.62 -0.31,-0.83 -0.2,-0.21 -0.46,-0.32 -0.78,-0.32z"/>
  <path id="_37" class="fil0" d="M45.82 23.78l0 -3.98 1.6 0c0.52,0 0.88,0.1 1.07,0.31 0.19,0.21 0.28,0.44 0.28,0.7 0,0.39 -0.19,0.67 -0.58,0.84 0.52,0.18 0.79,0.52 0.79,1.02 0,0.27 -0.07,0.49 -0.21,0.67 -0.14,0.18 -0.32,0.29 -0.53,0.35 -0.21,0.06 -0.51,0.09 -0.89,0.09l-1.53 0zm1 -2.41l0.39 0c0.17,0 0.29,-0.04 0.38,-0.12 0.09,-0.08 0.13,-0.17 0.13,-0.27 0,-0.15 -0.04,-0.26 -0.13,-0.35 -0.09,-0.08 -0.19,-0.12 -0.31,-0.12l-0.13 0 -0.34 0 0 0.86zm0 1.64l0.51 0c0.2,0 0.34,-0.05 0.42,-0.14 0.08,-0.09 0.12,-0.18 0.12,-0.27 0,-0.13 -0.04,-0.25 -0.13,-0.35 -0.09,-0.11 -0.25,-0.16 -0.49,-0.16l-0.42 0 0 0.91z"/>
  <path id="_38" class="fil0" d="M53.81 19.7c0.38,0 0.73,0.09 1.06,0.28 0.33,0.19 0.59,0.44 0.78,0.76 0.19,0.32 0.28,0.67 0.28,1.04 0,0.37 -0.09,0.72 -0.28,1.05 -0.19,0.33 -0.44,0.58 -0.76,0.76 -0.32,0.18 -0.68,0.28 -1.07,0.28 -0.57,0 -1.06,-0.2 -1.46,-0.61 -0.4,-0.41 -0.61,-0.9 -0.61,-1.48 0,-0.62 0.23,-1.14 0.69,-1.55 0.4,-0.36 0.86,-0.54 1.38,-0.54zm0.02 0.94c-0.31,0 -0.57,0.11 -0.78,0.32 -0.21,0.22 -0.31,0.49 -0.31,0.83 0,0.34 0.1,0.62 0.31,0.84 0.2,0.21 0.46,0.32 0.78,0.32 0.31,0 0.57,-0.11 0.78,-0.32 0.21,-0.22 0.31,-0.49 0.31,-0.83 0,-0.34 -0.1,-0.62 -0.31,-0.83 -0.2,-0.21 -0.46,-0.32 -0.78,-0.32z"/>
  <path id="_39" class="fil0" d="M59.35 23.78l0 0.69 -0.89 0 0 -1.54 0.6 0 1.38 -3.13 0.64 0 1.39 3.13 0.61 0 0 1.54 -0.95 0 0 -0.69 -2.78 0zm2.06 -0.85l-0.65 -1.68 -0.68 1.68 1.34 0z"/>
  <path id="_40" class="fil0" d="M65.58 19.7c0.38,0 0.73,0.09 1.06,0.28 0.33,0.19 0.59,0.44 0.78,0.76 0.19,0.32 0.28,0.67 0.28,1.04 0,0.37 -0.09,0.72 -0.28,1.05 -0.19,0.33 -0.44,0.58 -0.76,0.76 -0.32,0.18 -0.68,0.28 -1.07,0.28 -0.57,0 -1.06,-0.2 -1.46,-0.61 -0.4,-0.41 -0.61,-0.9 -0.61,-1.48 0,-0.62 0.23,-1.14 0.69,-1.55 0.4,-0.36 0.86,-0.54 1.38,-0.54zm0.02 0.94c-0.31,0 -0.57,0.11 -0.78,0.32 -0.21,0.22 -0.31,0.49 -0.31,0.83 0,0.34 0.1,0.62 0.31,0.84 0.2,0.21 0.46,0.32 0.78,0.32 0.31,0 0.57,-0.11 0.78,-0.32 0.21,-0.22 0.31,-0.49 0.31,-0.83 0,-0.34 -0.1,-0.62 -0.31,-0.83 -0.2,-0.21 -0.46,-0.32 -0.78,-0.32z"/>
  <polygon id="_41" class="fil0" points="72.07,23.78 71.06,23.78 70.05,21.26 69.03,23.78 68.02,23.78 69.72,19.8 70.36,19.8 "/>
  <polygon id="_42" class="fil0" points="72.59,19.8 74.91,19.8 74.91,20.75 73.59,20.75 73.59,23.78 72.59,23.78 "/>
  <path id="_43" class="fil0" d="M78.53 19.8l1 0 0 3.98 -1 0 0 -0.42c-0.19,0.18 -0.39,0.32 -0.59,0.4 -0.2,0.08 -0.41,0.12 -0.64,0.12 -0.52,0 -0.96,-0.2 -1.34,-0.6 -0.38,-0.4 -0.56,-0.89 -0.56,-1.48 0,-0.61 0.18,-1.12 0.55,-1.51 0.36,-0.39 0.8,-0.59 1.32,-0.59 0.24,0 0.46,0.04 0.67,0.13 0.21,0.09 0.4,0.22 0.58,0.4l0 -0.44zm-1.05 0.82c-0.31,0 -0.57,0.11 -0.77,0.33 -0.2,0.22 -0.31,0.5 -0.31,0.84 0,0.34 0.1,0.63 0.31,0.85 0.21,0.22 0.46,0.33 0.77,0.33 0.31,0 0.57,-0.11 0.78,-0.33 0.21,-0.22 0.31,-0.5 0.31,-0.86 0,-0.35 -0.1,-0.63 -0.31,-0.84 -0.21,-0.21 -0.47,-0.32 -0.78,-0.32z"/>
  <polygon id="_44" class="fil0" points="80.17,19.8 81.33,19.8 82.12,20.88 82.9,19.8 84.05,19.8 82.69,21.67 84.22,23.78 83.06,23.78 82.12,22.48 81.18,23.78 80.03,23.78 81.54,21.68 "/>
 </g>
</svg>
