<?xml version="1.0" encoding="UTF-8"?>
<!DOCTYPE svg PUBLIC "-//W3C//DTD SVG 1.1//EN" "http://www.w3.org/Graphics/SVG/1.1/DTD/svg11.dtd">
<!-- Creator: CorelDRAW -->
<svg xmlns="http://www.w3.org/2000/svg" xml:space="preserve" width="78.2006mm" height="6.7663mm" version="1.1" style="shape-rendering:geometricPrecision; text-rendering:geometricPrecision; image-rendering:optimizeQuality; fill-rule:evenodd; clip-rule:evenodd"
viewBox="0 0 80.76 6.99"
 xmlns:xlink="http://www.w3.org/1999/xlink"
 xmlns:xodm="http://www.corel.com/coreldraw/odm/2003">
 <defs>
  <style type="text/css">
   <![CDATA[
    .fil0 {fill:#C29138;fill-rule:nonzero}
   ]]>
  </style>
 </defs>
 <g id="Слой_x0020_1">
  <metadata id="CorelCorpID_0Corel-Layer"/>
  <path class="fil0" d="M1.11 2.03l-0.97 0c0.03,-0.57 0.2,-1.01 0.53,-1.33 0.33,-0.32 0.75,-0.49 1.26,-0.49 0.32,0 0.6,0.07 0.84,0.2 0.24,0.13 0.44,0.33 0.58,0.58 0.15,0.25 0.22,0.51 0.22,0.77 0,0.31 -0.09,0.64 -0.26,1 -0.18,0.36 -0.5,0.78 -0.97,1.27l-0.59 0.62 1.87 0 0 0.92 -3.63 0 0 -0.48 1.62 -1.65c0.39,-0.4 0.65,-0.71 0.78,-0.95 0.13,-0.24 0.19,-0.46 0.19,-0.65 0,-0.2 -0.07,-0.37 -0.2,-0.5 -0.13,-0.13 -0.31,-0.2 -0.52,-0.2 -0.21,0 -0.39,0.08 -0.53,0.24 -0.14,0.16 -0.22,0.38 -0.23,0.65z"/>
  <path id="_1" class="fil0" d="M5.2 2.03l-0.97 0c0.03,-0.57 0.2,-1.01 0.53,-1.33 0.33,-0.32 0.75,-0.49 1.26,-0.49 0.32,0 0.6,0.07 0.84,0.2 0.24,0.13 0.44,0.33 0.58,0.58 0.15,0.25 0.22,0.51 0.22,0.77 0,0.31 -0.09,0.64 -0.26,1 -0.18,0.36 -0.5,0.78 -0.97,1.27l-0.59 0.62 1.87 0 0 0.92 -3.63 0 0 -0.48 1.62 -1.65c0.39,-0.4 0.65,-0.71 0.78,-0.95 0.13,-0.24 0.19,-0.46 0.19,-0.65 0,-0.2 -0.07,-0.37 -0.2,-0.5 -0.13,-0.13 -0.31,-0.2 -0.52,-0.2 -0.21,0 -0.39,0.08 -0.53,0.24 -0.14,0.16 -0.22,0.38 -0.23,0.65z"/>
  <path id="_2" class="fil0" d="M10.43 0.21l0.99 0 0 3.37 0.47 0 0 0.92 -0.47 0 0 1.07 -0.98 0 0 -1.07 -2.29 0 0 -0.92 2.28 -3.38zm0.01 3.37l0 -1.76 -1.2 1.76 1.2 0z"/>
  <path id="_3" class="fil0" d="M14.51 0.21l0.99 0 0 3.37 0.47 0 0 0.92 -0.47 0 0 1.07 -0.98 0 0 -1.07 -2.29 0 0 -0.92 2.28 -3.38zm0.01 3.37l0 -1.76 -1.2 1.76 1.2 0z"/>
  <path id="_4" class="fil0" d="M18.19 0.21c0.38,0 0.71,0.09 0.99,0.28 0.28,0.19 0.49,0.47 0.64,0.86 0.15,0.39 0.23,0.92 0.23,1.61 0,0.69 -0.08,1.24 -0.23,1.62 -0.15,0.39 -0.36,0.67 -0.62,0.85 -0.26,0.18 -0.58,0.27 -0.98,0.27 -0.39,0 -0.72,-0.09 -0.99,-0.27 -0.27,-0.18 -0.48,-0.46 -0.63,-0.83 -0.15,-0.37 -0.23,-0.9 -0.23,-1.59 0,-0.96 0.15,-1.66 0.44,-2.09 0.33,-0.47 0.79,-0.71 1.38,-0.71zm0.03 0.95c-0.17,0 -0.32,0.05 -0.45,0.16 -0.13,0.11 -0.23,0.29 -0.3,0.55 -0.07,0.26 -0.1,0.65 -0.1,1.15 0,0.66 0.08,1.12 0.24,1.37 0.16,0.25 0.36,0.38 0.61,0.38 0.24,0 0.43,-0.12 0.57,-0.36 0.17,-0.29 0.26,-0.77 0.26,-1.45 0,-0.68 -0.08,-1.16 -0.23,-1.42 -0.15,-0.26 -0.35,-0.39 -0.6,-0.39z"/>
  <path id="_5" class="fil0" d="M23.74 1.71l0 0.43c0.17,-0.17 0.36,-0.3 0.57,-0.39 0.2,-0.09 0.42,-0.13 0.65,-0.13 0.5,0 0.93,0.19 1.29,0.57 0.35,0.38 0.53,0.87 0.53,1.47 0,0.57 -0.18,1.06 -0.55,1.44 -0.36,0.39 -0.8,0.58 -1.3,0.58 -0.22,0 -0.43,-0.04 -0.62,-0.12 -0.19,-0.08 -0.38,-0.21 -0.57,-0.39l0 1.83 -0.97 0 0 -5.28 0.97 0zm1.02 0.79c-0.3,0 -0.56,0.1 -0.76,0.31 -0.2,0.21 -0.3,0.48 -0.3,0.82 0,0.34 0.1,0.62 0.3,0.83 0.2,0.21 0.45,0.32 0.76,0.32 0.3,0 0.55,-0.11 0.75,-0.32 0.2,-0.22 0.3,-0.49 0.3,-0.82 0,-0.33 -0.1,-0.6 -0.3,-0.81 -0.2,-0.21 -0.45,-0.32 -0.75,-0.32z"/>
  <polygon id="_6" class="fil0" points="27.15,1.71 28.15,1.71 29.15,4.13 30.26,1.71 31.25,1.71 28.83,6.99 27.84,6.99 28.63,5.29 "/>
  <path id="_7" class="fil0" d="M35.52 0.12l0 0.92c-0.28,0.03 -0.55,0.05 -0.81,0.05 -0.47,0 -0.83,0.03 -1.07,0.06 -0.24,0.04 -0.45,0.12 -0.63,0.26 -0.18,0.13 -0.31,0.29 -0.39,0.46 -0.08,0.17 -0.12,0.43 -0.14,0.75 0.28,-0.67 0.76,-1 1.45,-1 0.5,0 0.94,0.18 1.3,0.55 0.37,0.37 0.55,0.84 0.55,1.41 0,0.6 -0.2,1.09 -0.59,1.49 -0.39,0.39 -0.88,0.59 -1.46,0.59 -0.47,0 -0.89,-0.14 -1.25,-0.43 -0.36,-0.29 -0.59,-0.63 -0.69,-1.03 -0.1,-0.4 -0.15,-0.83 -0.15,-1.28 0,-0.58 0.07,-1.05 0.22,-1.42 0.15,-0.36 0.34,-0.64 0.57,-0.82 0.24,-0.18 0.51,-0.3 0.82,-0.37 0.31,-0.06 0.77,-0.11 1.37,-0.13 0.41,-0.02 0.71,-0.04 0.91,-0.07zm-0.73 3.51c0,-0.32 -0.1,-0.59 -0.29,-0.8 -0.19,-0.21 -0.45,-0.32 -0.77,-0.32 -0.31,0 -0.56,0.11 -0.76,0.32 -0.2,0.21 -0.3,0.48 -0.3,0.8 0,0.34 0.1,0.61 0.3,0.81 0.2,0.21 0.45,0.31 0.76,0.31 0.3,0 0.55,-0.1 0.76,-0.31 0.21,-0.21 0.31,-0.48 0.31,-0.81z"/>
  <polygon id="_8" class="fil0" points="40.03,5.57 39.04,5.57 38.07,3.13 37.08,5.57 36.09,5.57 37.74,1.71 38.37,1.71 "/>
  <path id="_9" class="fil0" d="M44.41 3.91l-3.11 0c0.04,0.28 0.17,0.5 0.36,0.66 0.19,0.16 0.44,0.24 0.74,0.24 0.36,0 0.67,-0.13 0.93,-0.38l0.81 0.38c-0.2,0.29 -0.45,0.5 -0.73,0.64 -0.28,0.14 -0.62,0.21 -1.01,0.21 -0.6,0 -1.1,-0.19 -1.48,-0.57 -0.38,-0.38 -0.57,-0.86 -0.57,-1.43 0,-0.59 0.19,-1.08 0.57,-1.47 0.38,-0.39 0.86,-0.58 1.43,-0.58 0.61,0 1.1,0.19 1.49,0.58 0.38,0.39 0.57,0.9 0.57,1.54l-0 0.18zm-0.97 -0.76c-0.06,-0.21 -0.19,-0.38 -0.38,-0.52 -0.19,-0.13 -0.41,-0.2 -0.66,-0.2 -0.27,0 -0.51,0.07 -0.71,0.22 -0.13,0.09 -0.25,0.26 -0.36,0.49l2.11 0z"/>
  <path id="_10" class="fil0" d="M45.71 5.57l-0.52 0 0 -3.87 0.95 0 0 2.27 1.98 -2.27 0.47 0 0 3.87 -0.95 0 0 -2.23 -1.93 2.23zm-0.25 -5.57l0.79 0c0.06,0.1 0.15,0.17 0.26,0.22 0.11,0.05 0.24,0.07 0.4,0.07 0.16,0 0.31,-0.03 0.44,-0.08 0.08,-0.04 0.16,-0.11 0.22,-0.21l0.79 0c-0.04,0.3 -0.19,0.54 -0.43,0.72 -0.24,0.18 -0.58,0.27 -1.02,0.27 -0.29,0 -0.54,-0.04 -0.74,-0.12 -0.2,-0.08 -0.36,-0.2 -0.48,-0.35 -0.12,-0.15 -0.2,-0.33 -0.23,-0.53z"/>
  <path id="_11" class="fil0" d="M51.61 5.57l0 -3.87 1.56 0c0.51,0 0.86,0.1 1.04,0.3 0.18,0.2 0.27,0.43 0.27,0.68 0,0.38 -0.19,0.65 -0.56,0.81 0.51,0.18 0.77,0.51 0.77,0.99 0,0.26 -0.07,0.48 -0.2,0.65 -0.13,0.17 -0.31,0.29 -0.51,0.34 -0.21,0.06 -0.5,0.08 -0.87,0.08l-1.49 0zm0.97 -2.35l0.38 0c0.16,0 0.29,-0.04 0.37,-0.12 0.09,-0.08 0.13,-0.17 0.13,-0.26 0,-0.14 -0.04,-0.26 -0.13,-0.34 -0.08,-0.08 -0.18,-0.12 -0.3,-0.12l-0.13 0 -0.33 0 0 0.84zm0 1.6l0.49 0c0.19,0 0.33,-0.04 0.4,-0.13 0.08,-0.09 0.12,-0.17 0.12,-0.26 0,-0.13 -0.04,-0.24 -0.13,-0.34 -0.09,-0.1 -0.25,-0.16 -0.47,-0.16l-0.41 0 0 0.89z"/>
  <polygon id="_12" class="fil0" points="59.92,4.14 61.12,1.71 61.76,1.71 62.72,5.57 61.77,5.57 61.25,3.3 60.1,5.57 59.7,5.57 58.57,3.3 58.05,5.57 57.1,5.57 58.07,1.71 58.71,1.71 "/>
  <path id="_13" class="fil0" d="M67.13 3.91l-3.11 0c0.04,0.28 0.17,0.5 0.36,0.66 0.19,0.16 0.44,0.24 0.74,0.24 0.36,0 0.67,-0.13 0.93,-0.38l0.81 0.38c-0.2,0.29 -0.45,0.5 -0.73,0.64 -0.28,0.14 -0.62,0.21 -1.01,0.21 -0.6,0 -1.1,-0.19 -1.48,-0.57 -0.38,-0.38 -0.57,-0.86 -0.57,-1.43 0,-0.59 0.19,-1.08 0.57,-1.47 0.38,-0.39 0.86,-0.58 1.43,-0.58 0.61,0 1.1,0.19 1.49,0.58 0.38,0.39 0.57,0.9 0.57,1.54l-0 0.18zm-0.97 -0.76c-0.06,-0.21 -0.19,-0.38 -0.38,-0.52 -0.19,-0.13 -0.41,-0.2 -0.66,-0.2 -0.27,0 -0.51,0.07 -0.71,0.22 -0.13,0.09 -0.25,0.26 -0.36,0.49l2.11 0z"/>
  <path id="_14" class="fil0" d="M71.71 2.49l-0.81 0.44c-0.15,-0.16 -0.3,-0.27 -0.45,-0.33 -0.15,-0.06 -0.32,-0.09 -0.52,-0.09 -0.36,0 -0.66,0.11 -0.88,0.32 -0.22,0.22 -0.34,0.49 -0.34,0.83 0,0.33 0.11,0.6 0.32,0.8 0.22,0.21 0.5,0.31 0.85,0.31 0.43,0 0.77,-0.15 1.01,-0.44l0.76 0.52c-0.42,0.54 -1,0.81 -1.76,0.81 -0.68,0 -1.21,-0.2 -1.6,-0.6 -0.38,-0.4 -0.58,-0.87 -0.58,-1.41 0,-0.37 0.09,-0.72 0.28,-1.03 0.19,-0.31 0.45,-0.56 0.79,-0.74 0.34,-0.18 0.71,-0.27 1.13,-0.27 0.38,0 0.73,0.08 1.04,0.23 0.31,0.15 0.56,0.37 0.75,0.65z"/>
  <path id="_15" class="fil0" d="M73.24 3.99c-0.21,-0.07 -0.38,-0.2 -0.52,-0.39 -0.13,-0.19 -0.2,-0.41 -0.2,-0.64 0,-0.29 0.08,-0.54 0.25,-0.75 0.16,-0.22 0.36,-0.35 0.59,-0.41 0.23,-0.06 0.58,-0.08 1.06,-0.08l0.98 0 0 3.87 -0.97 0 0 -1.4 -0.19 0 -0.93 1.4 -1.15 0 1.08 -1.59zm1.19 -0.54l0 -0.93 -0.34 0c-0.37,0 -0.56,0.15 -0.56,0.46 0,0.31 0.21,0.47 0.62,0.47l0.28 0z"/>
  <polygon id="_16" class="fil0" points="76.38,5.57 76.38,1.71 77.35,1.71 77.35,4.64 78.81,4.64 78.81,1.71 79.77,1.71 79.77,4.64 80.76,4.64 80.76,6.25 79.83,6.25 79.83,5.57 "/>
 </g>
</svg>
