<?xml version="1.0" encoding="UTF-8"?>
<!DOCTYPE svg PUBLIC "-//W3C//DTD SVG 1.1//EN" "http://www.w3.org/Graphics/SVG/1.1/DTD/svg11.dtd">
<!-- Creator: CorelDRAW -->
<svg xmlns="http://www.w3.org/2000/svg" xml:space="preserve" width="80.4948mm" height="15.32mm" version="1.1" style="shape-rendering:geometricPrecision; text-rendering:geometricPrecision; image-rendering:optimizeQuality; fill-rule:evenodd; clip-rule:evenodd"
viewBox="0 0 85.62 16.3"
 xmlns:xlink="http://www.w3.org/1999/xlink"
 xmlns:xodm="http://www.corel.com/coreldraw/odm/2003">
 <defs>
  <style type="text/css">
   <![CDATA[
    .fil0 {fill:#C29138;fill-rule:nonzero}
   ]]>
  </style>
 </defs>
 <g id="Слой_x0020_1">
  <metadata id="CorelCorpID_0Corel-Layer"/>
  <path class="fil0" d="M5.22 1.3l-0.72 0.68c-0.49,-0.52 -1.04,-0.77 -1.65,-0.77 -0.52,0 -0.95,0.18 -1.3,0.53 -0.35,0.35 -0.53,0.78 -0.53,1.3 0,0.36 0.08,0.68 0.24,0.96 0.16,0.28 0.38,0.5 0.66,0.66 0.29,0.16 0.6,0.24 0.95,0.24 0.3,0 0.57,-0.06 0.82,-0.17 0.25,-0.11 0.52,-0.31 0.81,-0.61l0.7 0.73c-0.4,0.39 -0.77,0.66 -1.13,0.81 -0.35,0.15 -0.76,0.23 -1.21,0.23 -0.84,0 -1.52,-0.27 -2.06,-0.8 -0.53,-0.53 -0.8,-1.21 -0.8,-2.04 0,-0.54 0.12,-1.01 0.37,-1.43 0.24,-0.42 0.59,-0.75 1.04,-1.01 0.45,-0.25 0.94,-0.38 1.46,-0.38 0.44,0 0.87,0.09 1.28,0.28 0.41,0.19 0.77,0.45 1.06,0.8z"/>
  <path id="_1" class="fil0" d="M6.01 5.74l0 -3.99 1.6 0c0.53,0 0.88,0.1 1.07,0.31 0.19,0.21 0.28,0.44 0.28,0.7 0,0.39 -0.19,0.67 -0.58,0.84 0.53,0.18 0.79,0.52 0.79,1.02 0,0.27 -0.07,0.49 -0.21,0.67 -0.14,0.18 -0.32,0.3 -0.53,0.35 -0.21,0.06 -0.51,0.09 -0.9,0.09l-1.53 0zm1 -2.42l0.39 0c0.17,0 0.29,-0.04 0.38,-0.12 0.09,-0.08 0.14,-0.17 0.14,-0.27 0,-0.15 -0.04,-0.26 -0.13,-0.35 -0.09,-0.08 -0.19,-0.12 -0.31,-0.12l-0.13 0 -0.34 0 0 0.86zm0 1.64l0.51 0c0.2,0 0.34,-0.05 0.42,-0.14 0.08,-0.09 0.12,-0.18 0.12,-0.27 0,-0.13 -0.04,-0.25 -0.14,-0.35 -0.09,-0.11 -0.25,-0.16 -0.49,-0.16l-0.42 0 0 0.92z"/>
  <path id="_2" class="fil0" d="M11.03 3.2l0.3 0c0.42,0 0.74,0.03 0.97,0.1 0.23,0.06 0.41,0.2 0.57,0.4 0.15,0.21 0.23,0.46 0.23,0.77 0,0.31 -0.07,0.56 -0.21,0.77 -0.14,0.2 -0.32,0.34 -0.53,0.41 -0.22,0.07 -0.52,0.1 -0.91,0.1l-1.41 0 0 -3.99 1 0 0 1.44zm0 1.77l0.31 0c0.18,0 0.31,-0.01 0.4,-0.04 0.08,-0.02 0.15,-0.07 0.21,-0.15 0.06,-0.07 0.09,-0.16 0.09,-0.27 0,-0.34 -0.2,-0.51 -0.59,-0.51l-0.42 0 0 0.96zm2.76 -3.21l1 0 0 3.99 -1 0 0 -3.99z"/>
  <polygon id="_3" class="fil0" points="21.55,5.74 15.79,5.74 15.79,1.76 16.79,1.76 16.79,4.78 18.17,4.78 18.17,1.76 19.17,1.76 19.17,4.78 20.55,4.78 20.55,1.76 21.55,1.76 "/>
  <path id="_4" class="fil0" d="M26.54 4.03l-3.21 0c0.05,0.28 0.17,0.51 0.37,0.68 0.2,0.17 0.46,0.25 0.77,0.25 0.37,0 0.69,-0.13 0.96,-0.39l0.84 0.4c-0.21,0.3 -0.46,0.52 -0.75,0.66 -0.29,0.14 -0.64,0.21 -1.04,0.21 -0.62,0 -1.13,-0.2 -1.52,-0.59 -0.39,-0.39 -0.59,-0.89 -0.59,-1.48 0,-0.61 0.2,-1.11 0.59,-1.51 0.39,-0.4 0.88,-0.6 1.47,-0.6 0.63,0 1.14,0.2 1.53,0.6 0.39,0.4 0.59,0.93 0.59,1.58l-0 0.19zm-0.99 -0.78c-0.07,-0.22 -0.2,-0.4 -0.39,-0.53 -0.2,-0.14 -0.42,-0.2 -0.68,-0.2 -0.28,0 -0.52,0.08 -0.73,0.23 -0.13,0.09 -0.25,0.26 -0.37,0.51l2.17 0z"/>
  <path id="_5" class="fil0" d="M30.26 2.09l-1 0c0.03,-0.58 0.21,-1.04 0.55,-1.37 0.34,-0.33 0.77,-0.5 1.3,-0.5 0.33,0 0.62,0.07 0.87,0.21 0.25,0.14 0.45,0.34 0.6,0.6 0.15,0.26 0.23,0.53 0.23,0.79 0,0.32 -0.09,0.66 -0.27,1.03 -0.18,0.37 -0.52,0.81 -1,1.31l-0.6 0.64 1.92 0 0 0.95 -3.74 0 0 -0.49 1.67 -1.7c0.4,-0.41 0.67,-0.74 0.8,-0.98 0.13,-0.25 0.2,-0.47 0.2,-0.67 0,-0.21 -0.07,-0.38 -0.21,-0.52 -0.14,-0.14 -0.32,-0.2 -0.53,-0.2 -0.22,0 -0.4,0.08 -0.55,0.25 -0.15,0.16 -0.22,0.39 -0.23,0.67z"/>
  <path id="_6" class="fil0" d="M35.24 0.22c0.39,0 0.73,0.1 1.02,0.29 0.29,0.19 0.5,0.49 0.66,0.88 0.16,0.4 0.23,0.95 0.23,1.66 0,0.72 -0.08,1.27 -0.24,1.67 -0.16,0.4 -0.37,0.69 -0.64,0.88 -0.27,0.19 -0.6,0.28 -1.01,0.28 -0.41,0 -0.75,-0.09 -1.02,-0.28 -0.28,-0.19 -0.49,-0.47 -0.65,-0.86 -0.16,-0.38 -0.23,-0.93 -0.23,-1.64 0,-0.99 0.15,-1.7 0.46,-2.15 0.34,-0.49 0.81,-0.73 1.42,-0.73zm0.03 0.98c-0.17,0 -0.33,0.05 -0.46,0.17 -0.13,0.11 -0.24,0.3 -0.31,0.57 -0.07,0.27 -0.11,0.67 -0.11,1.19 0,0.68 0.08,1.15 0.24,1.41 0.16,0.26 0.37,0.39 0.63,0.39 0.25,0 0.44,-0.12 0.59,-0.37 0.18,-0.3 0.27,-0.79 0.27,-1.49 0,-0.71 -0.08,-1.19 -0.24,-1.46 -0.16,-0.27 -0.36,-0.4 -0.62,-0.4z"/>
  <path id="_7" class="fil0" d="M39.45 0.22c0.39,0 0.73,0.1 1.02,0.29 0.29,0.19 0.5,0.49 0.66,0.88 0.16,0.4 0.23,0.95 0.23,1.66 0,0.72 -0.08,1.27 -0.24,1.67 -0.16,0.4 -0.37,0.69 -0.64,0.88 -0.27,0.19 -0.6,0.28 -1.01,0.28 -0.41,0 -0.75,-0.09 -1.02,-0.28 -0.28,-0.19 -0.49,-0.47 -0.65,-0.86 -0.16,-0.38 -0.23,-0.93 -0.23,-1.64 0,-0.99 0.15,-1.7 0.46,-2.15 0.34,-0.49 0.81,-0.73 1.42,-0.73zm0.03 0.98c-0.17,0 -0.33,0.05 -0.46,0.17 -0.13,0.11 -0.24,0.3 -0.31,0.57 -0.07,0.27 -0.11,0.67 -0.11,1.19 0,0.68 0.08,1.15 0.24,1.41 0.16,0.26 0.37,0.39 0.63,0.39 0.25,0 0.44,-0.12 0.59,-0.37 0.18,-0.3 0.27,-0.79 0.27,-1.49 0,-0.71 -0.08,-1.19 -0.24,-1.46 -0.16,-0.27 -0.36,-0.4 -0.62,-0.4z"/>
  <path id="_8" class="fil0" d="M45.75 0.22c0.39,0 0.73,0.1 1.02,0.29 0.29,0.19 0.5,0.49 0.66,0.88 0.16,0.4 0.23,0.95 0.23,1.66 0,0.72 -0.08,1.27 -0.24,1.67 -0.16,0.4 -0.37,0.69 -0.64,0.88 -0.27,0.19 -0.6,0.28 -1.01,0.28 -0.41,0 -0.75,-0.09 -1.02,-0.28 -0.28,-0.19 -0.49,-0.47 -0.65,-0.86 -0.16,-0.38 -0.23,-0.93 -0.23,-1.64 0,-0.99 0.15,-1.7 0.46,-2.15 0.34,-0.49 0.81,-0.73 1.42,-0.73zm0.03 0.98c-0.17,0 -0.33,0.05 -0.46,0.17 -0.13,0.11 -0.24,0.3 -0.31,0.57 -0.07,0.27 -0.11,0.67 -0.11,1.19 0,0.68 0.08,1.15 0.24,1.41 0.16,0.26 0.37,0.39 0.63,0.39 0.25,0 0.44,-0.12 0.59,-0.37 0.18,-0.3 0.27,-0.79 0.27,-1.49 0,-0.71 -0.08,-1.19 -0.24,-1.46 -0.16,-0.27 -0.36,-0.4 -0.62,-0.4z"/>
  <path id="_9" class="fil0" d="M49.95 0.22c0.39,0 0.73,0.1 1.02,0.29 0.29,0.19 0.5,0.49 0.66,0.88 0.16,0.4 0.23,0.95 0.23,1.66 0,0.72 -0.08,1.27 -0.24,1.67 -0.16,0.4 -0.37,0.69 -0.64,0.88 -0.27,0.19 -0.6,0.28 -1.01,0.28 -0.41,0 -0.75,-0.09 -1.02,-0.28 -0.28,-0.19 -0.49,-0.47 -0.65,-0.86 -0.16,-0.38 -0.23,-0.93 -0.23,-1.64 0,-0.99 0.15,-1.7 0.46,-2.15 0.34,-0.49 0.81,-0.73 1.42,-0.73zm0.03 0.98c-0.17,0 -0.33,0.05 -0.46,0.17 -0.13,0.11 -0.24,0.3 -0.31,0.57 -0.07,0.27 -0.11,0.67 -0.11,1.19 0,0.68 0.08,1.15 0.24,1.41 0.16,0.26 0.37,0.39 0.63,0.39 0.25,0 0.44,-0.12 0.59,-0.37 0.18,-0.3 0.27,-0.79 0.27,-1.49 0,-0.71 -0.08,-1.19 -0.24,-1.46 -0.16,-0.27 -0.36,-0.4 -0.62,-0.4z"/>
  <path id="_10" class="fil0" d="M54.15 0.22c0.39,0 0.73,0.1 1.02,0.29 0.29,0.19 0.5,0.49 0.66,0.88 0.16,0.4 0.23,0.95 0.23,1.66 0,0.72 -0.08,1.27 -0.24,1.67 -0.16,0.4 -0.37,0.69 -0.64,0.88 -0.27,0.19 -0.6,0.28 -1.01,0.28 -0.41,0 -0.75,-0.09 -1.02,-0.28 -0.28,-0.19 -0.49,-0.47 -0.65,-0.86 -0.16,-0.38 -0.23,-0.93 -0.23,-1.64 0,-0.99 0.15,-1.7 0.46,-2.15 0.34,-0.49 0.81,-0.73 1.42,-0.73zm0.03 0.98c-0.17,0 -0.33,0.05 -0.46,0.17 -0.13,0.11 -0.24,0.3 -0.31,0.57 -0.07,0.27 -0.11,0.67 -0.11,1.19 0,0.68 0.08,1.15 0.24,1.41 0.16,0.26 0.37,0.39 0.63,0.39 0.25,0 0.44,-0.12 0.59,-0.37 0.18,-0.3 0.27,-0.79 0.27,-1.49 0,-0.71 -0.08,-1.19 -0.24,-1.46 -0.16,-0.27 -0.36,-0.4 -0.62,-0.4z"/>
  <path id="_11" class="fil0" d="M59.87 1.76l0 0.44c0.18,-0.18 0.38,-0.31 0.59,-0.4 0.21,-0.09 0.44,-0.13 0.67,-0.13 0.52,0 0.96,0.2 1.32,0.59 0.36,0.39 0.55,0.9 0.55,1.51 0,0.59 -0.19,1.09 -0.56,1.48 -0.38,0.4 -0.82,0.6 -1.34,0.6 -0.23,0 -0.44,-0.04 -0.64,-0.12 -0.2,-0.08 -0.39,-0.22 -0.59,-0.4l0 1.88 -1 0 0 -5.44 1 0zm1.05 0.82c-0.31,0 -0.58,0.11 -0.78,0.32 -0.21,0.22 -0.31,0.5 -0.31,0.84 0,0.35 0.1,0.64 0.31,0.86 0.21,0.22 0.47,0.33 0.78,0.33 0.31,0 0.56,-0.11 0.77,-0.33 0.21,-0.22 0.31,-0.51 0.31,-0.85 0,-0.34 -0.1,-0.62 -0.31,-0.84 -0.2,-0.22 -0.46,-0.33 -0.78,-0.33z"/>
  <polygon id="_12" class="fil0" points="63.38,1.76 64.41,1.76 65.44,4.25 66.59,1.76 67.61,1.76 65.12,7.2 64.09,7.2 64.9,5.45 "/>
  <path id="_13" class="fil0" d="M72 0.13l0 0.95c-0.29,0.03 -0.56,0.05 -0.83,0.05 -0.49,0 -0.86,0.03 -1.11,0.06 -0.25,0.04 -0.47,0.13 -0.65,0.26 -0.19,0.14 -0.32,0.3 -0.4,0.48 -0.08,0.18 -0.13,0.44 -0.14,0.77 0.29,-0.69 0.79,-1.03 1.49,-1.03 0.52,0 0.96,0.19 1.34,0.57 0.38,0.38 0.57,0.86 0.57,1.46 0,0.61 -0.2,1.12 -0.61,1.53 -0.41,0.41 -0.91,0.61 -1.51,0.61 -0.49,0 -0.92,-0.15 -1.29,-0.45 -0.37,-0.3 -0.61,-0.65 -0.72,-1.06 -0.1,-0.41 -0.16,-0.85 -0.16,-1.32 0,-0.6 0.07,-1.09 0.22,-1.46 0.15,-0.38 0.35,-0.66 0.59,-0.84 0.24,-0.19 0.53,-0.31 0.85,-0.38 0.32,-0.06 0.79,-0.11 1.41,-0.14 0.42,-0.02 0.74,-0.04 0.94,-0.07zm-0.75 3.61c0,-0.33 -0.1,-0.61 -0.3,-0.82 -0.2,-0.22 -0.46,-0.33 -0.79,-0.33 -0.32,0 -0.58,0.11 -0.78,0.33 -0.21,0.22 -0.31,0.49 -0.31,0.82 0,0.35 0.1,0.63 0.31,0.84 0.21,0.21 0.46,0.32 0.78,0.32 0.31,0 0.57,-0.11 0.78,-0.32 0.21,-0.21 0.32,-0.49 0.32,-0.84z"/>
  <polygon id="_14" class="fil0" points="76.64,5.74 75.63,5.74 74.62,3.22 73.6,5.74 72.59,5.74 74.29,1.76 74.93,1.76 "/>
  <path id="_15" class="fil0" d="M81.15 4.03l-3.21 0c0.05,0.28 0.17,0.51 0.37,0.68 0.2,0.17 0.46,0.25 0.77,0.25 0.37,0 0.69,-0.13 0.96,-0.39l0.84 0.4c-0.21,0.3 -0.46,0.52 -0.75,0.66 -0.29,0.14 -0.64,0.21 -1.04,0.21 -0.62,0 -1.13,-0.2 -1.52,-0.59 -0.39,-0.39 -0.59,-0.89 -0.59,-1.48 0,-0.61 0.2,-1.11 0.59,-1.51 0.39,-0.4 0.88,-0.6 1.47,-0.6 0.63,0 1.14,0.2 1.53,0.6 0.39,0.4 0.59,0.93 0.59,1.58l-0 0.19zm-0.99 -0.78c-0.07,-0.22 -0.2,-0.4 -0.39,-0.53 -0.2,-0.14 -0.42,-0.2 -0.68,-0.2 -0.28,0 -0.52,0.08 -0.73,0.23 -0.13,0.09 -0.25,0.26 -0.37,0.51l2.17 0z"/>
  <path id="_16" class="fil0" d="M82.5 5.74l-0.53 0 0 -3.99 0.98 0 0 2.34 2.04 -2.34 0.48 0 0 3.99 -0.98 0 0 -2.29 -1.99 2.29zm-0.26 -5.74l0.81 0c0.06,0.1 0.15,0.18 0.27,0.23 0.11,0.05 0.25,0.08 0.41,0.08 0.17,0 0.32,-0.03 0.45,-0.09 0.09,-0.04 0.16,-0.11 0.23,-0.21l0.81 0c-0.05,0.31 -0.2,0.56 -0.45,0.75 -0.25,0.19 -0.6,0.28 -1.05,0.28 -0.3,0 -0.56,-0.04 -0.76,-0.13 -0.2,-0.08 -0.37,-0.2 -0.49,-0.36 -0.12,-0.16 -0.2,-0.34 -0.23,-0.54z"/>
  <polygon id="_17" class="fil0" points="18.84,13.12 18.84,12.24 26.44,12.24 26.44,13.12 "/>
  <path id="_18" class="fil0" d="M31.17 13.26l-0.8 0c-0.54,0 -0.96,-0.1 -1.26,-0.31 -0.29,-0.21 -0.44,-0.55 -0.44,-1.03l0 -1.06 1 0 0 0.98c0,0.35 0.24,0.52 0.71,0.52l0.39 -0 0.4 0 0 -1.5 1 0 0 3.99 -1 0 0 -1.58z"/>
  <path id="_19" class="fil0" d="M37.16 13.13l-3.21 0c0.05,0.28 0.17,0.51 0.37,0.68 0.2,0.17 0.46,0.25 0.77,0.25 0.37,0 0.69,-0.13 0.96,-0.39l0.84 0.4c-0.21,0.3 -0.46,0.52 -0.75,0.66 -0.29,0.14 -0.64,0.21 -1.04,0.21 -0.62,0 -1.13,-0.2 -1.52,-0.59 -0.39,-0.39 -0.59,-0.89 -0.59,-1.48 0,-0.61 0.2,-1.11 0.59,-1.51 0.39,-0.4 0.88,-0.6 1.47,-0.6 0.63,0 1.14,0.2 1.53,0.6 0.39,0.4 0.59,0.93 0.59,1.58l-0 0.19zm-0.99 -0.78c-0.07,-0.22 -0.2,-0.4 -0.39,-0.53 -0.2,-0.14 -0.42,-0.2 -0.68,-0.2 -0.28,0 -0.52,0.08 -0.73,0.23 -0.13,0.09 -0.25,0.26 -0.37,0.51l2.17 0z"/>
  <path id="_20" class="fil0" d="M38.97 10.86l0 0.44c0.18,-0.18 0.38,-0.31 0.59,-0.4 0.21,-0.09 0.44,-0.13 0.67,-0.13 0.52,0 0.96,0.2 1.32,0.59 0.36,0.39 0.55,0.9 0.55,1.51 0,0.59 -0.19,1.09 -0.56,1.48 -0.38,0.4 -0.82,0.6 -1.34,0.6 -0.23,0 -0.44,-0.04 -0.64,-0.12 -0.2,-0.08 -0.39,-0.22 -0.59,-0.4l0 1.88 -1 0 0 -5.44 1 0zm1.05 0.82c-0.31,0 -0.58,0.11 -0.78,0.32 -0.21,0.22 -0.31,0.5 -0.31,0.84 0,0.35 0.1,0.64 0.31,0.86 0.21,0.22 0.47,0.33 0.78,0.33 0.31,0 0.56,-0.11 0.77,-0.33 0.21,-0.22 0.31,-0.51 0.31,-0.85 0,-0.34 -0.1,-0.62 -0.31,-0.84 -0.2,-0.22 -0.46,-0.33 -0.78,-0.33z"/>
  <path id="_21" class="fil0" d="M46.92 13.13l-3.21 0c0.05,0.28 0.17,0.51 0.37,0.68 0.2,0.17 0.46,0.25 0.77,0.25 0.37,0 0.69,-0.13 0.96,-0.39l0.84 0.4c-0.21,0.3 -0.46,0.52 -0.75,0.66 -0.29,0.14 -0.64,0.21 -1.04,0.21 -0.62,0 -1.13,-0.2 -1.52,-0.59 -0.39,-0.39 -0.59,-0.89 -0.59,-1.48 0,-0.61 0.2,-1.11 0.59,-1.51 0.39,-0.4 0.88,-0.6 1.47,-0.6 0.63,0 1.14,0.2 1.53,0.6 0.39,0.4 0.59,0.93 0.59,1.58l-0 0.19zm-0.99 -0.78c-0.07,-0.22 -0.2,-0.4 -0.39,-0.53 -0.2,-0.14 -0.42,-0.2 -0.68,-0.2 -0.28,0 -0.52,0.08 -0.73,0.23 -0.13,0.09 -0.25,0.26 -0.37,0.51l2.17 0z"/>
  <path id="_22" class="fil0" d="M48.4 13.15l0 -0.71 0.2 0c0.13,0 0.25,-0.03 0.35,-0.1 0.1,-0.06 0.15,-0.16 0.15,-0.31 0,-0.12 -0.04,-0.22 -0.13,-0.3 -0.09,-0.08 -0.2,-0.12 -0.33,-0.12 -0.16,0 -0.37,0.08 -0.62,0.24l-0.39 -0.69c0.34,-0.27 0.73,-0.41 1.15,-0.41 0.39,0 0.71,0.1 0.97,0.3 0.26,0.2 0.38,0.47 0.38,0.81 0,0.35 -0.19,0.63 -0.56,0.84 0.5,0.18 0.75,0.51 0.75,0.99 0,0.36 -0.14,0.65 -0.42,0.88 -0.28,0.23 -0.66,0.35 -1.16,0.35 -0.54,0 -0.99,-0.15 -1.34,-0.45l0.55 -0.7c0.24,0.18 0.46,0.26 0.68,0.26 0.17,0 0.31,-0.04 0.41,-0.12 0.1,-0.08 0.15,-0.19 0.15,-0.32 0,-0.12 -0.05,-0.23 -0.14,-0.32 -0.09,-0.09 -0.22,-0.14 -0.39,-0.14l-0.26 0z"/>
  <path id="_23" class="fil0" d="M55.2 9.32l1.02 0 0 3.47 0.48 0 0 0.95 -0.48 0 0 1.1 -1.01 0 0 -1.1 -2.36 0 0 -0.94 2.34 -3.48zm0.01 3.47l0 -1.81 -1.23 1.81 1.23 0z"/>
  <path id="_24" class="fil0" d="M60.12 11.92c0.24,0.16 0.43,0.36 0.57,0.6 0.13,0.25 0.2,0.51 0.2,0.8 0,0.31 -0.08,0.6 -0.23,0.86 -0.16,0.26 -0.36,0.46 -0.63,0.6 -0.26,0.13 -0.6,0.2 -1,0.2 -0.44,0 -0.78,-0.06 -1.04,-0.19 -0.26,-0.13 -0.46,-0.32 -0.62,-0.58 -0.15,-0.26 -0.23,-0.55 -0.23,-0.88 0,-0.28 0.06,-0.54 0.19,-0.77 0.12,-0.23 0.31,-0.44 0.56,-0.62 -0.16,-0.16 -0.28,-0.34 -0.36,-0.52 -0.08,-0.18 -0.12,-0.38 -0.12,-0.58 0,-0.28 0.07,-0.54 0.2,-0.77 0.14,-0.23 0.33,-0.41 0.57,-0.54 0.24,-0.13 0.53,-0.19 0.85,-0.19 0.32,0 0.59,0.06 0.83,0.19 0.24,0.13 0.43,0.31 0.57,0.55 0.14,0.24 0.21,0.49 0.21,0.77 0,0.19 -0.04,0.37 -0.11,0.54 -0.07,0.17 -0.2,0.35 -0.39,0.56zm-1.14 -1.61c-0.17,0 -0.31,0.06 -0.41,0.17 -0.11,0.11 -0.16,0.25 -0.16,0.43 0,0.17 0.06,0.32 0.17,0.43 0.12,0.12 0.26,0.18 0.42,0.18 0.17,0 0.31,-0.06 0.42,-0.17 0.11,-0.12 0.17,-0.26 0.17,-0.45 0,-0.17 -0.06,-0.31 -0.17,-0.42 -0.11,-0.11 -0.26,-0.16 -0.44,-0.16zm0.05 2.16c-0.25,0 -0.46,0.08 -0.62,0.23 -0.17,0.15 -0.25,0.33 -0.25,0.54 0,0.22 0.08,0.4 0.24,0.55 0.16,0.15 0.37,0.23 0.63,0.23 0.26,0 0.47,-0.07 0.63,-0.21 0.16,-0.14 0.23,-0.32 0.23,-0.54 0,-0.22 -0.08,-0.41 -0.24,-0.56 -0.16,-0.15 -0.36,-0.23 -0.61,-0.23z"/>
  <path id="_25" class="fil0" d="M65.89 13.26l-0.8 0c-0.54,0 -0.96,-0.1 -1.26,-0.31 -0.29,-0.21 -0.44,-0.55 -0.44,-1.03l0 -1.06 1 0 0 0.98c0,0.35 0.24,0.52 0.71,0.52l0.39 -0 0.4 0 0 -1.5 1 0 0 3.99 -1 0 0 -1.58z"/>
  <path id="_26" class="fil0" d="M70.84 10.86l1 0 0 3.99 -1 0 0 -0.42c-0.2,0.19 -0.39,0.32 -0.59,0.4 -0.2,0.08 -0.41,0.12 -0.64,0.12 -0.52,0 -0.96,-0.2 -1.34,-0.6 -0.38,-0.4 -0.56,-0.89 -0.56,-1.48 0,-0.61 0.18,-1.12 0.55,-1.51 0.36,-0.39 0.81,-0.59 1.33,-0.59 0.24,0 0.46,0.04 0.67,0.13 0.21,0.09 0.4,0.22 0.58,0.4l0 -0.44zm-1.05 0.82c-0.31,0 -0.57,0.11 -0.77,0.33 -0.21,0.22 -0.31,0.5 -0.31,0.84 0,0.34 0.1,0.63 0.31,0.85 0.21,0.22 0.47,0.33 0.77,0.33 0.31,0 0.58,-0.11 0.78,-0.33 0.21,-0.22 0.31,-0.5 0.31,-0.86 0,-0.35 -0.1,-0.63 -0.31,-0.84 -0.21,-0.21 -0.47,-0.32 -0.79,-0.32z"/>
  <path id="_27" class="fil0" d="M76.75 11.67l-0.83 0.46c-0.16,-0.16 -0.31,-0.28 -0.46,-0.34 -0.15,-0.06 -0.33,-0.1 -0.54,-0.1 -0.37,0 -0.68,0.11 -0.91,0.33 -0.23,0.22 -0.35,0.51 -0.35,0.85 0,0.34 0.11,0.61 0.33,0.83 0.22,0.21 0.51,0.32 0.88,0.32 0.45,0 0.79,-0.15 1.04,-0.46l0.79 0.54c-0.43,0.56 -1.03,0.83 -1.81,0.83 -0.7,0 -1.25,-0.21 -1.65,-0.62 -0.4,-0.41 -0.6,-0.9 -0.6,-1.45 0,-0.39 0.1,-0.74 0.29,-1.06 0.19,-0.32 0.46,-0.58 0.81,-0.76 0.35,-0.19 0.73,-0.28 1.16,-0.28 0.4,0 0.75,0.08 1.07,0.24 0.32,0.16 0.57,0.38 0.77,0.67z"/>
  <path id="_28" class="fil0" d="M79.53 10.76c0.38,0 0.73,0.09 1.06,0.28 0.33,0.19 0.59,0.44 0.78,0.76 0.19,0.32 0.28,0.67 0.28,1.04 0,0.38 -0.09,0.73 -0.28,1.05 -0.19,0.33 -0.44,0.58 -0.77,0.77 -0.32,0.18 -0.68,0.28 -1.07,0.28 -0.57,0 -1.06,-0.2 -1.47,-0.61 -0.41,-0.41 -0.61,-0.9 -0.61,-1.48 0,-0.62 0.23,-1.14 0.69,-1.55 0.4,-0.36 0.86,-0.54 1.38,-0.54zm0.02 0.94c-0.31,0 -0.57,0.11 -0.78,0.32 -0.21,0.22 -0.31,0.49 -0.31,0.83 0,0.35 0.1,0.63 0.31,0.84 0.2,0.21 0.46,0.32 0.78,0.32 0.31,0 0.57,-0.11 0.78,-0.33 0.21,-0.22 0.31,-0.5 0.31,-0.84 0,-0.34 -0.1,-0.62 -0.31,-0.83 -0.2,-0.21 -0.47,-0.32 -0.78,-0.32z"/>
  <path id="_29" class="fil0" d="M82.46 14.84l0 -3.99 1.6 0c0.53,0 0.88,0.1 1.07,0.31 0.19,0.21 0.28,0.44 0.28,0.7 0,0.39 -0.19,0.67 -0.58,0.84 0.53,0.18 0.79,0.52 0.79,1.02 0,0.27 -0.07,0.49 -0.21,0.67 -0.14,0.18 -0.32,0.3 -0.53,0.35 -0.21,0.06 -0.51,0.09 -0.9,0.09l-1.53 0zm1 -2.42l0.39 0c0.17,0 0.29,-0.04 0.38,-0.12 0.09,-0.08 0.14,-0.17 0.14,-0.27 0,-0.15 -0.04,-0.26 -0.13,-0.35 -0.09,-0.08 -0.19,-0.12 -0.31,-0.12l-0.13 0 -0.34 0 0 0.86zm0 1.64l0.51 0c0.2,0 0.34,-0.05 0.42,-0.14 0.08,-0.09 0.12,-0.18 0.12,-0.27 0,-0.13 -0.04,-0.25 -0.14,-0.35 -0.09,-0.11 -0.25,-0.16 -0.49,-0.16l-0.42 0 0 0.92z"/>
 </g>
</svg>
