<?xml version="1.0" encoding="UTF-8"?>
<!DOCTYPE svg PUBLIC "-//W3C//DTD SVG 1.1//EN" "http://www.w3.org/Graphics/SVG/1.1/DTD/svg11.dtd">
<!-- Creator: CorelDRAW -->
<svg xmlns="http://www.w3.org/2000/svg" xml:space="preserve" width="84.2226mm" height="22.3144mm" version="1.1" style="shape-rendering:geometricPrecision; text-rendering:geometricPrecision; image-rendering:optimizeQuality; fill-rule:evenodd; clip-rule:evenodd"
viewBox="0 0 93.99 24.9"
 xmlns:xlink="http://www.w3.org/1999/xlink"
 xmlns:xodm="http://www.corel.com/coreldraw/odm/2003">
 <defs>
  <style type="text/css">
   <![CDATA[
    .fil0 {fill:#C29138;fill-rule:nonzero}
   ]]>
  </style>
 </defs>
 <g id="Слой_x0020_1">
  <metadata id="CorelCorpID_0Corel-Layer"/>
  <polygon class="fil0" points="1.02,4.28 0.47,4.28 0.47,0.1 1.49,0.1 1.49,2.56 3.63,0.1 4.14,0.1 4.14,4.28 3.11,4.28 3.11,1.88 "/>
  <path id="_1" class="fil0" d="M5.89 2.51l0 -0.75 0.21 0c0.14,0 0.26,-0.03 0.37,-0.1 0.11,-0.07 0.16,-0.17 0.16,-0.32 0,-0.13 -0.05,-0.23 -0.14,-0.31 -0.09,-0.08 -0.21,-0.12 -0.35,-0.12 -0.17,0 -0.39,0.08 -0.65,0.25l-0.41 -0.72c0.36,-0.29 0.76,-0.43 1.21,-0.43 0.41,0 0.75,0.1 1.01,0.32 0.27,0.21 0.4,0.49 0.4,0.85 0,0.36 -0.2,0.66 -0.59,0.88 0.52,0.19 0.78,0.54 0.78,1.04 0,0.37 -0.15,0.68 -0.44,0.93 -0.29,0.25 -0.7,0.37 -1.21,0.37 -0.57,0 -1.04,-0.16 -1.4,-0.48l0.57 -0.73c0.25,0.19 0.49,0.28 0.71,0.28 0.18,0 0.32,-0.04 0.43,-0.13 0.11,-0.09 0.16,-0.2 0.16,-0.33 0,-0.13 -0.05,-0.24 -0.15,-0.34 -0.1,-0.1 -0.23,-0.15 -0.41,-0.15l-0.27 0z"/>
  <polygon id="_2" class="fil0" points="11.3,2.74 12.59,0.1 13.29,0.1 14.33,4.28 13.3,4.28 12.74,1.83 11.49,4.28 11.06,4.28 9.84,1.83 9.28,4.28 8.26,4.28 9.3,0.1 9.99,0.1 "/>
  <path id="_3" class="fil0" d="M19.09 2.49l-3.37 0c0.05,0.3 0.18,0.54 0.39,0.71 0.21,0.18 0.48,0.26 0.8,0.26 0.39,0 0.73,-0.14 1.01,-0.41l0.88 0.42c-0.22,0.31 -0.48,0.54 -0.79,0.69 -0.31,0.15 -0.67,0.22 -1.09,0.22 -0.65,0 -1.19,-0.21 -1.6,-0.62 -0.41,-0.41 -0.62,-0.93 -0.62,-1.55 0,-0.64 0.21,-1.17 0.62,-1.59 0.41,-0.42 0.93,-0.63 1.55,-0.63 0.66,0 1.19,0.21 1.6,0.63 0.41,0.42 0.62,0.97 0.62,1.66l-0 0.2zm-1.04 -0.82c-0.07,-0.23 -0.21,-0.41 -0.41,-0.56 -0.2,-0.14 -0.44,-0.21 -0.71,-0.21 -0.29,0 -0.55,0.08 -0.77,0.24 -0.14,0.1 -0.27,0.28 -0.38,0.53l2.28 0z"/>
  <polygon id="_4" class="fil0" points="20.99,1.61 22.57,1.61 22.57,0.1 23.61,0.1 23.61,4.28 22.57,4.28 22.57,2.55 20.99,2.55 20.99,4.28 19.94,4.28 19.94,0.1 20.99,0.1 "/>
  <polygon id="_5" class="fil0" points="25.23,4.28 24.67,4.28 24.67,0.1 25.69,0.1 25.69,2.56 27.83,0.1 28.34,0.1 28.34,4.28 27.31,4.28 27.31,1.88 "/>
  <polygon id="_6" class="fil0" points="33.14,4.28 32.08,4.28 31.02,1.64 29.95,4.28 28.89,4.28 30.67,0.1 31.35,0.1 "/>
  <polygon id="_7" class="fil0" points="34.24,4.28 33.69,4.28 33.69,0.1 34.71,0.1 34.71,2.56 36.85,0.1 37.35,0.1 37.35,4.28 36.33,4.28 36.33,1.88 "/>
  <path id="_8" class="fil0" d="M42.5 0.95l-0.87 0.48c-0.16,-0.17 -0.33,-0.29 -0.49,-0.36 -0.16,-0.07 -0.35,-0.1 -0.56,-0.1 -0.39,0 -0.71,0.12 -0.95,0.35 -0.24,0.23 -0.36,0.53 -0.36,0.9 0,0.35 0.12,0.64 0.35,0.87 0.23,0.22 0.54,0.34 0.92,0.34 0.47,0 0.83,-0.16 1.1,-0.48l0.83 0.57c-0.45,0.58 -1.08,0.87 -1.9,0.87 -0.74,0 -1.31,-0.22 -1.73,-0.65 -0.42,-0.43 -0.62,-0.94 -0.62,-1.52 0,-0.4 0.1,-0.78 0.3,-1.12 0.2,-0.34 0.49,-0.61 0.85,-0.8 0.36,-0.19 0.77,-0.29 1.22,-0.29 0.42,0 0.79,0.08 1.12,0.25 0.33,0.17 0.6,0.4 0.81,0.7z"/>
  <path id="_9" class="fil0" d="M44.5 1.61l0.31 0c0.44,0 0.78,0.03 1.01,0.1 0.24,0.07 0.43,0.21 0.6,0.42 0.16,0.22 0.24,0.49 0.24,0.81 0,0.32 -0.07,0.59 -0.22,0.8 -0.15,0.21 -0.33,0.36 -0.56,0.43 -0.23,0.07 -0.54,0.11 -0.96,0.11l-1.48 0 0 -4.18 1.05 0 0 1.51zm0 1.86l0.32 0c0.19,0 0.33,-0.01 0.41,-0.04 0.08,-0.03 0.16,-0.08 0.22,-0.15 0.06,-0.08 0.1,-0.17 0.1,-0.28 0,-0.36 -0.21,-0.53 -0.62,-0.53l-0.44 0 0 1.01z"/>
  <polygon id="_10" class="fil0" points="-0,9.65 1.08,9.65 2.16,12.27 3.36,9.65 4.43,9.65 1.82,15.36 0.74,15.36 1.59,13.52 "/>
  <path id="_11" class="fil0" d="M9.13 10.5l-0.87 0.48c-0.16,-0.17 -0.33,-0.29 -0.49,-0.36 -0.16,-0.07 -0.35,-0.1 -0.56,-0.1 -0.39,0 -0.71,0.12 -0.95,0.35 -0.24,0.23 -0.36,0.53 -0.36,0.9 0,0.35 0.12,0.64 0.35,0.87 0.23,0.22 0.54,0.34 0.92,0.34 0.47,0 0.83,-0.16 1.1,-0.48l0.83 0.57c-0.45,0.58 -1.08,0.87 -1.9,0.87 -0.74,0 -1.31,-0.22 -1.73,-0.65 -0.42,-0.43 -0.62,-0.94 -0.62,-1.52 0,-0.4 0.1,-0.78 0.3,-1.12 0.2,-0.34 0.49,-0.61 0.85,-0.8 0.36,-0.19 0.77,-0.29 1.22,-0.29 0.42,0 0.79,0.08 1.12,0.25 0.33,0.17 0.6,0.4 0.81,0.7z"/>
  <polygon id="_12" class="fil0" points="13.82,13.83 12.76,13.83 11.7,11.19 10.63,13.83 9.57,13.83 11.35,9.65 12.03,9.65 "/>
  <path id="_13" class="fil0" d="M16.33 9.55c0.4,0 0.77,0.1 1.11,0.3 0.35,0.2 0.62,0.46 0.81,0.8 0.2,0.34 0.29,0.7 0.29,1.09 0,0.39 -0.1,0.76 -0.29,1.1 -0.2,0.34 -0.46,0.61 -0.8,0.8 -0.34,0.19 -0.71,0.29 -1.12,0.29 -0.6,0 -1.11,-0.21 -1.54,-0.64 -0.43,-0.43 -0.64,-0.94 -0.64,-1.55 0,-0.65 0.24,-1.2 0.72,-1.63 0.42,-0.38 0.9,-0.57 1.45,-0.57zm0.02 0.98c-0.33,0 -0.6,0.11 -0.81,0.34 -0.22,0.23 -0.33,0.52 -0.33,0.87 0,0.36 0.11,0.66 0.32,0.88 0.21,0.22 0.49,0.34 0.81,0.34 0.33,0 0.6,-0.11 0.82,-0.34 0.22,-0.23 0.33,-0.52 0.33,-0.88 0,-0.36 -0.11,-0.65 -0.32,-0.87 -0.21,-0.22 -0.49,-0.33 -0.82,-0.33z"/>
  <path id="_14" class="fil0" d="M19.41 13.83l0 -4.18 1.68 0c0.55,0 0.93,0.11 1.12,0.33 0.2,0.22 0.3,0.46 0.3,0.74 0,0.41 -0.2,0.7 -0.61,0.88 0.55,0.19 0.83,0.55 0.83,1.07 0,0.28 -0.07,0.52 -0.22,0.7 -0.15,0.19 -0.33,0.31 -0.56,0.37 -0.22,0.06 -0.54,0.09 -0.94,0.09l-1.61 0zm1.05 -2.54l0.41 0c0.17,0 0.31,-0.04 0.4,-0.13 0.09,-0.09 0.14,-0.18 0.14,-0.29 0,-0.16 -0.05,-0.28 -0.14,-0.36 -0.09,-0.09 -0.2,-0.13 -0.32,-0.13l-0.14 0 -0.36 0 0 0.91zm0 1.72l0.53 0c0.21,0 0.35,-0.05 0.44,-0.14 0.08,-0.1 0.13,-0.19 0.13,-0.28 0,-0.14 -0.05,-0.26 -0.14,-0.37 -0.09,-0.11 -0.27,-0.17 -0.51,-0.17l-0.44 0 0 0.96z"/>
  <polygon id="_15" class="fil0" points="24.18,13.83 23.62,13.83 23.62,9.65 24.64,9.65 24.64,12.1 26.78,9.65 27.29,9.65 27.29,13.83 26.26,13.83 26.26,11.42 "/>
  <path id="_16" class="fil0" d="M29.06 12.11c-0.23,-0.07 -0.41,-0.22 -0.56,-0.42 -0.15,-0.21 -0.22,-0.44 -0.22,-0.7 0,-0.31 0.09,-0.58 0.27,-0.81 0.18,-0.23 0.39,-0.38 0.63,-0.44 0.25,-0.06 0.63,-0.09 1.15,-0.09l1.06 0 0 4.18 -1.05 0 0 -1.51 -0.2 0 -1 1.51 -1.25 0 1.16 -1.72zm1.29 -0.58l0 -1.01 -0.37 0c-0.4,0 -0.6,0.17 -0.6,0.5 0,0.34 0.22,0.51 0.67,0.51l0.3 0z"/>
  <path id="_17" class="fil0" d="M35.7 9.65l0 0.46c0.19,-0.19 0.39,-0.33 0.61,-0.42 0.22,-0.09 0.46,-0.14 0.71,-0.14 0.54,0 1.01,0.21 1.39,0.62 0.38,0.41 0.57,0.94 0.57,1.58 0,0.62 -0.2,1.14 -0.59,1.56 -0.39,0.42 -0.86,0.63 -1.4,0.63 -0.24,0 -0.46,-0.04 -0.67,-0.13 -0.21,-0.09 -0.41,-0.23 -0.62,-0.42l0 1.97 -1.05 0 0 -5.71 1.05 0zm1.1 0.86c-0.33,0 -0.6,0.11 -0.82,0.34 -0.22,0.23 -0.33,0.52 -0.33,0.88 0,0.37 0.11,0.67 0.33,0.9 0.22,0.23 0.49,0.34 0.82,0.34 0.32,0 0.59,-0.12 0.81,-0.35 0.22,-0.23 0.33,-0.53 0.33,-0.89 0,-0.36 -0.11,-0.65 -0.32,-0.88 -0.21,-0.23 -0.49,-0.34 -0.81,-0.34z"/>
  <path id="_18" class="fil0" d="M42.94 9.65l1.05 0 0 4.18 -1.05 0 0 -0.44c-0.2,0.19 -0.41,0.33 -0.62,0.42 -0.21,0.09 -0.43,0.13 -0.67,0.13 -0.54,0 -1.01,-0.21 -1.4,-0.63 -0.39,-0.42 -0.59,-0.94 -0.59,-1.56 0,-0.64 0.19,-1.17 0.57,-1.58 0.38,-0.41 0.85,-0.62 1.39,-0.62 0.25,0 0.49,0.05 0.71,0.14 0.22,0.09 0.42,0.23 0.61,0.42l0 -0.46zm-1.1 0.86c-0.33,0 -0.6,0.11 -0.81,0.34 -0.22,0.23 -0.32,0.52 -0.32,0.88 0,0.36 0.11,0.66 0.33,0.89 0.22,0.23 0.49,0.35 0.81,0.35 0.33,0 0.6,-0.11 0.82,-0.34 0.22,-0.23 0.33,-0.53 0.33,-0.9 0,-0.36 -0.11,-0.66 -0.33,-0.88 -0.22,-0.22 -0.49,-0.34 -0.82,-0.34z"/>
  <path id="_19" class="fil0" d="M49.14 10.5l-0.87 0.48c-0.16,-0.17 -0.33,-0.29 -0.49,-0.36 -0.16,-0.07 -0.35,-0.1 -0.56,-0.1 -0.39,0 -0.71,0.12 -0.95,0.35 -0.24,0.23 -0.36,0.53 -0.36,0.9 0,0.35 0.12,0.64 0.35,0.87 0.23,0.22 0.54,0.34 0.92,0.34 0.47,0 0.83,-0.16 1.1,-0.48l0.83 0.57c-0.45,0.58 -1.08,0.87 -1.9,0.87 -0.74,0 -1.31,-0.22 -1.73,-0.65 -0.42,-0.43 -0.62,-0.94 -0.62,-1.52 0,-0.4 0.1,-0.78 0.3,-1.12 0.2,-0.34 0.49,-0.61 0.85,-0.8 0.36,-0.19 0.77,-0.29 1.22,-0.29 0.42,0 0.79,0.08 1.12,0.25 0.33,0.17 0.6,0.4 0.81,0.7z"/>
  <path id="_20" class="fil0" d="M52.36 12.17l-0.84 0c-0.57,0 -1.01,-0.11 -1.32,-0.33 -0.31,-0.22 -0.46,-0.58 -0.46,-1.08l0 -1.11 1.05 0 0 1.03c0,0.37 0.25,0.55 0.74,0.55l0.41 -0 0.42 0 0 -1.57 1.05 0 0 4.18 -1.05 0 0 -1.66z"/>
  <path id="_21" class="fil0" d="M58.65 12.03l-3.37 0c0.05,0.3 0.18,0.54 0.39,0.71 0.21,0.18 0.48,0.26 0.8,0.26 0.39,0 0.73,-0.14 1.01,-0.41l0.88 0.42c-0.22,0.31 -0.48,0.54 -0.79,0.69 -0.31,0.15 -0.67,0.22 -1.09,0.22 -0.65,0 -1.19,-0.21 -1.6,-0.62 -0.41,-0.41 -0.62,-0.93 -0.62,-1.55 0,-0.64 0.21,-1.17 0.62,-1.59 0.41,-0.42 0.93,-0.63 1.55,-0.63 0.66,0 1.19,0.21 1.6,0.63 0.41,0.42 0.62,0.97 0.62,1.66l-0 0.2zm-1.04 -0.82c-0.07,-0.23 -0.21,-0.41 -0.41,-0.56 -0.2,-0.14 -0.44,-0.21 -0.71,-0.21 -0.29,0 -0.55,0.08 -0.77,0.24 -0.14,0.1 -0.27,0.28 -0.38,0.53l2.28 0zm-1.99 -3.43c0.15,0 0.28,0.05 0.39,0.16 0.11,0.11 0.16,0.24 0.16,0.39 0,0.15 -0.05,0.28 -0.16,0.39 -0.11,0.11 -0.24,0.16 -0.39,0.16 -0.15,0 -0.28,-0.05 -0.39,-0.16 -0.11,-0.11 -0.16,-0.24 -0.16,-0.39 0,-0.15 0.05,-0.28 0.16,-0.39 0.11,-0.11 0.24,-0.16 0.39,-0.16zm1.7 0c0.15,0 0.28,0.05 0.39,0.16 0.11,0.11 0.16,0.24 0.16,0.39 0,0.15 -0.05,0.28 -0.16,0.39 -0.11,0.11 -0.24,0.16 -0.39,0.16 -0.15,0 -0.28,-0.05 -0.39,-0.16 -0.11,-0.11 -0.16,-0.24 -0.16,-0.39 0,-0.15 0.05,-0.28 0.16,-0.39 0.11,-0.11 0.24,-0.16 0.39,-0.16z"/>
  <polygon id="_22" class="fil0" points="59.13,9.65 63.03,9.65 63.03,10.65 61.64,10.65 61.64,13.83 60.59,13.83 60.59,10.65 59.13,10.65 "/>
  <path id="_23" class="fil0" d="M66.81 9.65l1.05 0 0 4.18 -1.05 0 0 -0.44c-0.2,0.19 -0.41,0.33 -0.62,0.42 -0.21,0.09 -0.43,0.13 -0.67,0.13 -0.54,0 -1.01,-0.21 -1.4,-0.63 -0.39,-0.42 -0.59,-0.94 -0.59,-1.56 0,-0.64 0.19,-1.17 0.57,-1.58 0.38,-0.41 0.85,-0.62 1.39,-0.62 0.25,0 0.49,0.05 0.71,0.14 0.22,0.09 0.42,0.23 0.61,0.42l0 -0.46zm-1.1 0.86c-0.33,0 -0.6,0.11 -0.81,0.34 -0.22,0.23 -0.32,0.52 -0.32,0.88 0,0.36 0.11,0.66 0.33,0.89 0.22,0.23 0.49,0.35 0.81,0.35 0.33,0 0.6,-0.11 0.82,-0.34 0.22,-0.23 0.33,-0.53 0.33,-0.9 0,-0.36 -0.11,-0.66 -0.33,-0.88 -0.22,-0.22 -0.49,-0.34 -0.82,-0.34z"/>
  <polygon id="_24" class="fil0" points="1.02,23.37 0.47,23.37 0.47,19.19 1.49,19.19 1.49,21.65 3.63,19.19 4.14,19.19 4.14,23.37 3.11,23.37 3.11,20.97 "/>
  <polygon id="_25" class="fil0" points="8.44,20.7 10.02,20.7 10.02,19.19 11.06,19.19 11.06,23.37 10.02,23.37 10.02,21.64 8.44,21.64 8.44,23.37 7.4,23.37 7.4,19.19 8.44,19.19 "/>
  <path id="_26" class="fil0" d="M15.22 19.19l1.05 0 0 4.18 -1.05 0 0 -0.44c-0.2,0.19 -0.41,0.33 -0.62,0.42 -0.21,0.09 -0.43,0.13 -0.67,0.13 -0.54,0 -1.01,-0.21 -1.4,-0.63 -0.39,-0.42 -0.59,-0.94 -0.59,-1.56 0,-0.64 0.19,-1.17 0.57,-1.58 0.38,-0.41 0.85,-0.62 1.39,-0.62 0.25,0 0.49,0.05 0.71,0.14 0.22,0.09 0.42,0.23 0.61,0.42l0 -0.46zm-1.1 0.86c-0.33,0 -0.6,0.11 -0.81,0.34 -0.22,0.23 -0.32,0.52 -0.32,0.88 0,0.36 0.11,0.66 0.33,0.89 0.22,0.23 0.49,0.35 0.81,0.35 0.33,0 0.6,-0.11 0.82,-0.34 0.22,-0.23 0.33,-0.53 0.33,-0.9 0,-0.36 -0.11,-0.66 -0.33,-0.88 -0.22,-0.22 -0.49,-0.34 -0.82,-0.34z"/>
  <path id="_27" class="fil0" d="M18.02 21.6l0 -0.75 0.21 0c0.14,0 0.26,-0.03 0.37,-0.1 0.11,-0.07 0.16,-0.17 0.16,-0.32 0,-0.13 -0.05,-0.23 -0.14,-0.31 -0.09,-0.08 -0.21,-0.12 -0.35,-0.12 -0.17,0 -0.39,0.08 -0.65,0.25l-0.41 -0.72c0.36,-0.29 0.76,-0.43 1.21,-0.43 0.41,0 0.75,0.1 1.01,0.32 0.27,0.21 0.4,0.49 0.4,0.85 0,0.36 -0.2,0.66 -0.59,0.88 0.52,0.19 0.78,0.54 0.78,1.04 0,0.37 -0.15,0.68 -0.44,0.93 -0.29,0.25 -0.7,0.37 -1.21,0.37 -0.57,0 -1.04,-0.16 -1.4,-0.48l0.57 -0.73c0.25,0.19 0.49,0.28 0.71,0.28 0.18,0 0.32,-0.04 0.43,-0.13 0.11,-0.09 0.16,-0.2 0.16,-0.33 0,-0.13 -0.05,-0.24 -0.15,-0.34 -0.1,-0.1 -0.23,-0.15 -0.41,-0.15l-0.27 0z"/>
  <polygon id="_28" class="fil0" points="21.91,20.7 23.49,20.7 23.49,19.19 24.53,19.19 24.53,23.37 23.49,23.37 23.49,21.64 21.91,21.64 21.91,23.37 20.86,23.37 20.86,19.19 21.91,19.19 "/>
  <path id="_29" class="fil0" d="M28.68 19.19l1.05 0 0 4.18 -1.05 0 0 -0.44c-0.2,0.19 -0.41,0.33 -0.62,0.42 -0.21,0.09 -0.43,0.13 -0.67,0.13 -0.54,0 -1.01,-0.21 -1.4,-0.63 -0.39,-0.42 -0.59,-0.94 -0.59,-1.56 0,-0.64 0.19,-1.17 0.57,-1.58 0.38,-0.41 0.85,-0.62 1.39,-0.62 0.25,0 0.49,0.05 0.71,0.14 0.22,0.09 0.42,0.23 0.61,0.42l0 -0.46zm-1.1 0.86c-0.33,0 -0.6,0.11 -0.81,0.34 -0.22,0.23 -0.32,0.52 -0.32,0.88 0,0.36 0.11,0.66 0.33,0.89 0.22,0.23 0.49,0.35 0.81,0.35 0.33,0 0.6,-0.11 0.82,-0.34 0.22,-0.23 0.33,-0.53 0.33,-0.9 0,-0.36 -0.11,-0.66 -0.33,-0.88 -0.22,-0.22 -0.49,-0.34 -0.82,-0.34z"/>
  <path id="_30" class="fil0" d="M33.06 21.71l-0.84 0c-0.57,0 -1.01,-0.11 -1.32,-0.33 -0.31,-0.22 -0.46,-0.58 -0.46,-1.08l0 -1.11 1.05 0 0 1.03c0,0.37 0.25,0.55 0.74,0.55l0.41 -0 0.42 0 0 -1.57 1.05 0 0 4.18 -1.05 0 0 -1.66z"/>
  <path id="_31" class="fil0" d="M39.35 21.58l-3.37 0c0.05,0.3 0.18,0.54 0.39,0.71 0.21,0.18 0.48,0.26 0.8,0.26 0.39,0 0.73,-0.14 1.01,-0.41l0.88 0.42c-0.22,0.31 -0.48,0.54 -0.79,0.69 -0.31,0.15 -0.67,0.22 -1.09,0.22 -0.65,0 -1.19,-0.21 -1.6,-0.62 -0.41,-0.41 -0.62,-0.93 -0.62,-1.55 0,-0.64 0.21,-1.17 0.62,-1.59 0.41,-0.42 0.93,-0.63 1.55,-0.63 0.66,0 1.19,0.21 1.6,0.63 0.41,0.42 0.62,0.97 0.62,1.66l-0 0.2zm-1.04 -0.82c-0.07,-0.23 -0.21,-0.41 -0.41,-0.56 -0.2,-0.14 -0.44,-0.21 -0.71,-0.21 -0.29,0 -0.55,0.08 -0.77,0.24 -0.14,0.1 -0.27,0.28 -0.38,0.53l2.28 0z"/>
  <polygon id="_32" class="fil0" points="41.25,20.7 42.83,20.7 42.83,19.19 43.87,19.19 43.87,23.37 42.83,23.37 42.83,21.64 41.25,21.64 41.25,23.37 40.21,23.37 40.21,19.19 41.25,19.19 "/>
  <polygon id="_33" class="fil0" points="45.49,23.37 44.93,23.37 44.93,19.19 45.95,19.19 45.95,21.65 48.1,19.19 48.6,19.19 48.6,23.37 47.58,23.37 47.58,20.97 "/>
  <path id="_34" class="fil0" d="M50.37 21.66c-0.23,-0.07 -0.41,-0.22 -0.56,-0.42 -0.15,-0.21 -0.22,-0.44 -0.22,-0.7 0,-0.31 0.09,-0.58 0.27,-0.81 0.18,-0.23 0.39,-0.38 0.63,-0.44 0.25,-0.06 0.63,-0.09 1.15,-0.09l1.06 0 0 4.18 -1.05 0 0 -1.51 -0.2 0 -1 1.51 -1.25 0 1.16 -1.72zm1.29 -0.58l0 -1.01 -0.37 0c-0.4,0 -0.6,0.17 -0.6,0.5 0,0.34 0.22,0.51 0.67,0.51l0.3 0z"/>
  <path id="_35" class="fil0" d="M60.06 20.04l-0.87 0.48c-0.16,-0.17 -0.33,-0.29 -0.49,-0.36 -0.16,-0.07 -0.35,-0.1 -0.56,-0.1 -0.39,0 -0.71,0.12 -0.95,0.35 -0.24,0.23 -0.36,0.53 -0.36,0.9 0,0.35 0.12,0.64 0.35,0.87 0.23,0.22 0.54,0.34 0.92,0.34 0.47,0 0.83,-0.16 1.1,-0.48l0.83 0.57c-0.45,0.58 -1.08,0.87 -1.9,0.87 -0.74,0 -1.31,-0.22 -1.73,-0.65 -0.42,-0.43 -0.62,-0.94 -0.62,-1.52 0,-0.4 0.1,-0.78 0.3,-1.12 0.2,-0.34 0.49,-0.61 0.85,-0.8 0.36,-0.19 0.77,-0.29 1.22,-0.29 0.42,0 0.79,0.08 1.12,0.25 0.33,0.17 0.6,0.4 0.81,0.7z"/>
  <polygon id="_36" class="fil0" points="60.54,19.19 61.61,19.19 62.69,21.81 63.89,19.19 64.97,19.19 62.35,24.9 61.28,24.9 62.13,23.07 "/>
  <path id="_37" class="fil0" d="M69.58 17.48l0 0.99c-0.3,0.03 -0.59,0.05 -0.88,0.06 -0.51,0.01 -0.9,0.03 -1.16,0.07 -0.26,0.04 -0.49,0.13 -0.69,0.28 -0.2,0.14 -0.34,0.31 -0.42,0.5 -0.08,0.19 -0.13,0.46 -0.15,0.81 0.3,-0.72 0.82,-1.08 1.56,-1.08 0.54,0 1.01,0.2 1.41,0.59 0.4,0.39 0.6,0.9 0.6,1.53 0,0.64 -0.21,1.18 -0.64,1.61 -0.43,0.43 -0.95,0.64 -1.58,0.64 -0.51,0 -0.96,-0.16 -1.35,-0.47 -0.39,-0.31 -0.64,-0.68 -0.75,-1.12 -0.11,-0.43 -0.17,-0.89 -0.17,-1.38 0,-0.63 0.08,-1.14 0.23,-1.53 0.16,-0.39 0.36,-0.69 0.62,-0.89 0.25,-0.2 0.55,-0.33 0.89,-0.4 0.34,-0.07 0.83,-0.11 1.48,-0.14 0.44,-0.02 0.77,-0.04 0.99,-0.07zm-0.79 3.79c0,-0.35 -0.11,-0.64 -0.32,-0.86 -0.21,-0.23 -0.49,-0.34 -0.83,-0.34 -0.33,0 -0.6,0.12 -0.82,0.35 -0.22,0.23 -0.32,0.52 -0.32,0.86 0,0.36 0.11,0.66 0.32,0.88 0.22,0.22 0.49,0.34 0.82,0.34 0.32,0 0.6,-0.11 0.82,-0.34 0.22,-0.22 0.33,-0.52 0.33,-0.88z"/>
  <path id="_38" class="fil0" d="M74.8 20.04l-0.87 0.48c-0.16,-0.17 -0.33,-0.29 -0.49,-0.36 -0.16,-0.07 -0.35,-0.1 -0.56,-0.1 -0.39,0 -0.71,0.12 -0.95,0.35 -0.24,0.23 -0.36,0.53 -0.36,0.9 0,0.35 0.12,0.64 0.35,0.87 0.23,0.22 0.54,0.34 0.92,0.34 0.47,0 0.83,-0.16 1.1,-0.48l0.83 0.57c-0.45,0.58 -1.08,0.87 -1.9,0.87 -0.74,0 -1.31,-0.22 -1.73,-0.65 -0.42,-0.43 -0.62,-0.94 -0.62,-1.52 0,-0.4 0.1,-0.78 0.3,-1.12 0.2,-0.34 0.49,-0.61 0.85,-0.8 0.36,-0.19 0.77,-0.29 1.22,-0.29 0.42,0 0.79,0.08 1.12,0.25 0.33,0.17 0.6,0.4 0.81,0.7z"/>
  <polygon id="_39" class="fil0" points="76.3,23.37 75.74,23.37 75.74,19.19 76.76,19.19 76.76,21.65 78.91,19.19 79.41,19.19 79.41,23.37 78.39,23.37 78.39,20.97 "/>
  <path id="_40" class="fil0" d="M81.01 23.37l0 0.72 -0.94 0 0 -1.61 0.63 0 1.45 -3.29 0.68 0 1.46 3.29 0.64 0 0 1.61 -1 0 0 -0.72 -2.92 0zm2.16 -0.89l-0.69 -1.77 -0.72 1.77 1.41 0z"/>
  <polygon id="_41" class="fil0" points="86.15,23.37 85.59,23.37 85.59,19.19 86.61,19.19 86.61,21.65 88.76,19.19 89.26,19.19 89.26,23.37 88.24,23.37 88.24,20.97 "/>
  <path id="_42" class="fil0" d="M90.87 23.37l-0.56 0 0 -4.18 1.02 0 0 2.46 2.14 -2.46 0.5 0 0 4.18 -1.02 0 0 -2.41 -2.09 2.41zm-0.27 -6.02l0.85 0c0.07,0.1 0.16,0.18 0.28,0.24 0.12,0.05 0.26,0.08 0.43,0.08 0.17,0 0.33,-0.03 0.47,-0.09 0.09,-0.04 0.17,-0.12 0.24,-0.22l0.85 0c-0.05,0.33 -0.2,0.59 -0.47,0.78 -0.26,0.2 -0.63,0.3 -1.1,0.3 -0.32,0 -0.58,-0.04 -0.8,-0.13 -0.21,-0.09 -0.39,-0.21 -0.52,-0.38 -0.13,-0.16 -0.21,-0.35 -0.25,-0.57z"/>
 </g>
</svg>
