<?xml version="1.0" encoding="UTF-8" standalone="no"?>
<!-- Created with Inkscape (http://www.inkscape.org/) -->

<svg
   xmlns:dc="http://purl.org/dc/elements/1.1/"
   xmlns:cc="http://creativecommons.org/ns#"
   xmlns:rdf="http://www.w3.org/1999/02/22-rdf-syntax-ns#"
   xmlns:svg="http://www.w3.org/2000/svg"
   xmlns="http://www.w3.org/2000/svg"
   xmlns:sodipodi="http://sodipodi.sourceforge.net/DTD/sodipodi-0.dtd"
   xmlns:inkscape="http://www.inkscape.org/namespaces/inkscape"
   width="30pc"
   height="5pc"
   viewBox="0 0 127.00008 21.16667"
   version="1.1"
   id="svg8"
   inkscape:version="0.92.2 (5c3e80d, 2017-08-06)"
   sodipodi:docname="3strText.svg">
  <defs
     id="defs2">
    <clipPath
       clipPathUnits="userSpaceOnUse"
       id="clipPath7909">
      <g
         id="use7911"
         inkscape:label="Clip">
        <text
           xml:space="preserve"
           style="font-style:normal;font-weight:normal;font-size:10.58333302px;line-height:1.25;font-family:sans-serif;letter-spacing:0px;word-spacing:0px;fill:#ffffff;fill-opacity:1;stroke:none;stroke-width:0.26458332"
           x="82.876579"
           y="384.59238"
           id="text2974"><tspan
             sodipodi:role="line"
             id="tspan2972"
             x="82.876579"
             y="384.59238"
             style="font-style:normal;font-variant:normal;font-weight:normal;font-stretch:normal;font-size:3.52777767px;font-family:EuropeDemi;-inkscape-font-specification:EuropeDemi;fill:#ffffff;stroke-width:0.26458332"><tspan
               style="font-size:2.82222223px"
               id="tspan2970">ГЛАЗОВСКАЯ РАЙОННАЯ БИБЛИОТЕКА</tspan></tspan></text>
      </g>
    </clipPath>
  </defs>
  <sodipodi:namedview
     id="base"
     pagecolor="#ffffff"
     bordercolor="#666666"
     borderopacity="1.0"
     inkscape:pageopacity="0.0"
     inkscape:pageshadow="2"
     inkscape:zoom="0.20400703"
     inkscape:cx="133.5779"
     inkscape:cy="-382.40442"
     inkscape:document-units="mm"
     inkscape:current-layer="layer1"
     showgrid="false"
     inkscape:lockguides="false"
     showguides="false"
     units="pc"
     inkscape:window-width="1280"
     inkscape:window-height="972"
     inkscape:window-x="-8"
     inkscape:window-y="-8"
     inkscape:window-maximized="1"
     showborder="true"
     inkscape:pagecheckerboard="true" />
  <metadata
     id="metadata5">
    <rdf:RDF>
      <cc:Work
         rdf:about="">
        <dc:format>image/svg+xml</dc:format>
        <dc:type
           rdf:resource="http://purl.org/dc/dcmitype/StillImage" />
        <dc:title />
      </cc:Work>
    </rdf:RDF>
  </metadata>
  <g
     inkscape:label="Layer 1"
     inkscape:groupmode="layer"
     id="layer1"
     transform="translate(0,-275.83326)">
    <g
       aria-label="С 1 марта обязательная маркировка обуви"
       style="font-style:normal;font-weight:normal;font-size:47.20985794px;line-height:1.25;font-family:sans-serif;letter-spacing:0px;word-spacing:0px;fill:#ff9400;fill-opacity:1;fill-rule:nonzero;stroke:none;stroke-width:1.18024635"
       id="text4824">
      <path
         d="m 7.9095081,279.40968 -0.9453342,0.90193 q -0.9646268,-1.01768 -2.1704102,-1.01768 -1.0176812,0 -1.7170357,0.69453 -0.6945312,0.69453 -0.6945312,1.71221 0,0.709 0.3086805,1.25884 0.3086806,0.54983 0.8729873,0.86334 0.5643066,0.3135 1.2540148,0.3135 0.5884223,0 1.0755588,-0.21704 0.4871365,-0.22186 1.0707357,-0.80064 l 0.9163954,0.95498 q -0.7861708,0.76688 -1.4855252,1.06591 -0.6993544,0.29422 -1.5964573,0.29422 -1.6543349,0 -2.7106012,-1.04663 -1.0514432,-1.05144 -1.0514432,-2.6913 0,-1.06109 0.4774903,-1.88585 0.4823134,-0.82475 1.3745931,-1.32636 0.8971029,-0.50161 1.9292536,-0.50161 0.8778103,0 1.6880968,0.37138 0.8151096,0.37139 1.4035319,1.05627 z"
         style="font-style:normal;font-variant:normal;font-weight:bold;font-stretch:normal;font-size:9.87777805px;line-height:0.25;font-family:'Century Gothic';-inkscape-font-specification:'Century Gothic Bold';fill:#ff9400;fill-opacity:1;fill-rule:nonzero;stroke-width:1.18024635"
         id="path4842"
         inkscape:connector-curvature="0" />
      <path
         d="m 12.660296,278.16049 h 2.020893 v 7.09483 h -1.340832 v -5.82635 h -1.461409 z"
         style="font-style:normal;font-variant:normal;font-weight:bold;font-stretch:normal;font-size:9.87777805px;line-height:0.25;font-family:'Century Gothic';-inkscape-font-specification:'Century Gothic Bold';fill:#ff9400;fill-opacity:1;fill-rule:nonzero;stroke-width:1.18024635"
         id="path4844"
         inkscape:connector-curvature="0" />
      <path
         d="m 23.208489,283.31642 1.610926,-3.30867 h 0.868165 l 1.311892,5.24757 h -1.287777 l -0.699354,-3.07716 -1.562696,3.07716 h -0.540191 l -1.528933,-3.07716 -0.704178,3.07716 H 19.39339 l 1.311892,-5.24757 h 0.868164 z"
         style="font-style:normal;font-variant:normal;font-weight:bold;font-stretch:normal;font-size:9.87777805px;line-height:0.25;font-family:'Century Gothic';-inkscape-font-specification:'Century Gothic Bold';fill:#ff9400;fill-opacity:1;fill-rule:nonzero;stroke-width:1.18024635"
         id="path4846"
         inkscape:connector-curvature="0" />
      <path
         d="m 31.610388,280.00775 h 1.311893 v 5.24757 h -1.311893 v -0.55466 q -0.38585,0.36656 -0.776524,0.53054 -0.385851,0.15917 -0.839225,0.15917 -1.017682,0 -1.760444,-0.78617 -0.742763,-0.791 -0.742763,-1.96302 0,-1.21543 0.718647,-1.99195 0.718647,-0.77653 1.745974,-0.77653 0.472668,0 0.887457,0.17846 0.41479,0.17845 0.766878,0.53537 z m -1.384239,1.08038 q -0.612538,0 -1.017681,0.43408 -0.405144,0.42926 -0.405144,1.1045 0,0.68006 0.409967,1.11897 0.414789,0.4389 1.017681,0.4389 0.622184,0 1.032151,-0.42926 0.409966,-0.43408 0.409966,-1.13343 0,-0.68489 -0.409966,-1.10932 -0.409967,-0.42444 -1.036974,-0.42444 z"
         style="font-style:normal;font-variant:normal;font-weight:bold;font-stretch:normal;font-size:9.87777805px;line-height:0.25;font-family:'Century Gothic';-inkscape-font-specification:'Century Gothic Bold';fill:#ff9400;fill-opacity:1;fill-rule:nonzero;stroke-width:1.18024635"
         id="path4848"
         inkscape:connector-curvature="0" />
      <path
         d="m 35.560536,280.00775 v 0.57878 q 0.356912,-0.35692 0.771701,-0.53537 0.41479,-0.17846 0.887457,-0.17846 1.027327,0 1.745974,0.77653 0.718647,0.77652 0.718647,1.99195 0,1.17202 -0.742762,1.96302 -0.742763,0.78617 -1.760444,0.78617 -0.453375,0 -0.844049,-0.15917 -0.390673,-0.16398 -0.776524,-0.53054 v 2.47427 h -1.307069 v -7.16718 z m 1.384239,1.08038 q -0.622184,0 -1.03215,0.42444 -0.409967,0.42443 -0.409967,1.10932 0,0.69935 0.409967,1.13343 0.409966,0.42926 1.03215,0.42926 0.602892,0 1.012858,-0.4389 0.41479,-0.43891 0.41479,-1.11897 0,-0.67524 -0.405143,-1.1045 -0.405144,-0.43408 -1.022505,-0.43408 z"
         style="font-style:normal;font-variant:normal;font-weight:bold;font-stretch:normal;font-size:9.87777805px;line-height:0.25;font-family:'Century Gothic';-inkscape-font-specification:'Century Gothic Bold';fill:#ff9400;fill-opacity:1;fill-rule:nonzero;stroke-width:1.18024635"
         id="path4850"
         inkscape:connector-curvature="0" />
      <path
         d="m 40.306497,280.00775 h 4.890657 v 1.25401 h -1.741151 v 3.99356 h -1.321539 v -3.99356 h -1.827967 z"
         style="font-style:normal;font-variant:normal;font-weight:bold;font-stretch:normal;font-size:9.87777805px;line-height:0.25;font-family:'Century Gothic';-inkscape-font-specification:'Century Gothic Bold';fill:#ff9400;fill-opacity:1;fill-rule:nonzero;stroke-width:1.18024635"
         id="path4852"
         inkscape:connector-curvature="0" />
      <path
         d="m 49.938296,280.00775 h 1.311892 v 5.24757 h -1.311892 v -0.55466 q -0.385851,0.36656 -0.776525,0.53054 -0.38585,0.15917 -0.839225,0.15917 -1.017681,0 -1.760444,-0.78617 -0.742762,-0.791 -0.742762,-1.96302 0,-1.21543 0.718647,-1.99195 0.718647,-0.77653 1.745974,-0.77653 0.472667,0 0.887457,0.17846 0.414789,0.17845 0.766878,0.53537 z m -1.384239,1.08038 q -0.612538,0 -1.017682,0.43408 -0.405143,0.42926 -0.405143,1.1045 0,0.68006 0.409966,1.11897 0.41479,0.4389 1.017682,0.4389 0.622184,0 1.03215,-0.42926 0.409967,-0.43408 0.409967,-1.13343 0,-0.68489 -0.409967,-1.10932 -0.409966,-0.42444 -1.036973,-0.42444 z"
         style="font-style:normal;font-variant:normal;font-weight:bold;font-stretch:normal;font-size:9.87777805px;line-height:0.25;font-family:'Century Gothic';-inkscape-font-specification:'Century Gothic Bold';fill:#ff9400;fill-opacity:1;fill-rule:nonzero;stroke-width:1.18024635"
         id="path4854"
         inkscape:connector-curvature="0" />
      <path
         d="m 57.804827,279.8727 q 0.742762,0 1.393885,0.37138 0.655946,0.37138 1.022505,1.00804 0.366558,0.63665 0.366558,1.37459 0,0.74276 -0.371382,1.38906 -0.366558,0.6463 -1.003211,1.01286 -0.636654,0.36174 -1.403532,0.36174 -1.128614,0 -1.929254,-0.80064 -0.795817,-0.80547 -0.795817,-1.95337 0,-1.2299 0.901926,-2.04983 0.790994,-0.71383 1.818322,-0.71383 z m 0.01929,1.23955 q -0.612538,0 -1.022504,0.42926 -0.405143,0.42443 -0.405143,1.09002 0,0.68489 0.40032,1.10933 0.405143,0.42443 1.022504,0.42443 0.617361,0 1.027327,-0.42926 0.409967,-0.42926 0.409967,-1.1045 0,-0.67523 -0.405143,-1.09485 -0.40032,-0.42443 -1.027328,-0.42443 z"
         style="font-style:normal;font-variant:normal;font-weight:bold;font-stretch:normal;font-size:9.87777805px;line-height:0.25;font-family:'Century Gothic';-inkscape-font-specification:'Century Gothic Bold';fill:#ff9400;fill-opacity:1;fill-rule:nonzero;stroke-width:1.18024635"
         id="path4856"
         inkscape:connector-curvature="0" />
      <path
         d="m 66.684218,277.8711 v 1.24437 q -0.564307,0.0627 -1.094852,0.0675 -0.964626,0.01 -1.451763,0.0868 -0.487136,0.0724 -0.858518,0.34727 -0.371381,0.27009 -0.525721,0.627 -0.154341,0.35209 -0.188103,1.01768 0.56913,-1.36494 1.95337,-1.36494 1.017681,0 1.760443,0.74758 0.747586,0.74277 0.747586,1.91961 0,1.21543 -0.80064,2.02089 -0.80064,0.80547 -1.977485,0.80547 -0.959804,0 -1.69292,-0.58843 -0.728293,-0.58842 -0.935688,-1.3987 -0.207395,-0.81511 -0.207395,-1.73633 0,-1.18167 0.294212,-1.91961 0.294211,-0.74276 0.771701,-1.11414 0.482313,-0.37138 1.114144,-0.49679 0.63183,-0.1254 1.856906,-0.17845 0.829579,-0.0386 1.234723,-0.0868 z m -0.988743,4.76043 q 0,-0.65594 -0.395497,-1.0852 -0.390674,-0.43408 -1.036973,-0.43408 -0.617362,0 -1.022505,0.43408 -0.405143,0.43408 -0.405143,1.0852 0,0.68489 0.40032,1.10933 0.405143,0.41961 1.022504,0.41961 0.607715,0 1.022505,-0.41961 0.414789,-0.42444 0.414789,-1.10933 z m -2.951758,2.57556 z"
         style="font-style:normal;font-variant:normal;font-weight:bold;font-stretch:normal;font-size:9.87777805px;line-height:0.25;font-family:'Century Gothic';-inkscape-font-specification:'Century Gothic Bold';fill:#ff9400;fill-opacity:1;fill-rule:nonzero;stroke-width:1.18024635"
         id="path4858"
         inkscape:connector-curvature="0" />
      <path
         d="m 69.004145,283.1042 q -0.424436,-0.13987 -0.699355,-0.52572 -0.270095,-0.39067 -0.270095,-0.87781 0,-0.5836 0.332796,-1.0225 0.332796,-0.43891 0.790994,-0.55467 0.463021,-0.11575 1.442117,-0.11575 h 1.331185 v 5.24757 H 70.610248 V 283.355 h -0.255626 l -1.249191,1.90032 h -1.557873 z m 1.606103,-0.73794 v -1.25884 h -0.458197 q -0.747586,0 -0.747586,0.62701 0,0.63183 0.834402,0.63183 z"
         style="font-style:normal;font-variant:normal;font-weight:bold;font-stretch:normal;font-size:9.87777805px;line-height:0.25;font-family:'Century Gothic';-inkscape-font-specification:'Century Gothic Bold';fill:#ff9400;fill-opacity:1;fill-rule:nonzero;stroke-width:1.18024635"
         id="path4860"
         inkscape:connector-curvature="0" />
      <path
         d="m 74.140783,283.03185 v -0.94051 h 0.260449 q 0.265273,0 0.463021,-0.1254 0.197749,-0.1254 0.197749,-0.40514 0,-0.24116 -0.178456,-0.3955 -0.173633,-0.15916 -0.429259,-0.15916 -0.32315,0 -0.810287,0.3135 l -0.520898,-0.90675 q 0.680062,-0.54019 1.514464,-0.54019 0.766878,0 1.268484,0.40032 0.506429,0.3955 0.506429,1.07074 0,0.68488 -0.733116,1.10932 0.979096,0.36173 0.979096,1.30707 0,0.70418 -0.549837,1.1672 -0.549837,0.46302 -1.519287,0.46302 -1.065913,0 -1.760444,-0.59807 l 0.728293,-0.9164 q 0.467844,0.34727 0.887457,0.34727 0.337619,0 0.535367,-0.15916 0.197749,-0.16399 0.197749,-0.41962 0,-0.24598 -0.188102,-0.42926 -0.183279,-0.18328 -0.506429,-0.18328 z"
         style="font-style:normal;font-variant:normal;font-weight:bold;font-stretch:normal;font-size:9.87777805px;line-height:0.25;font-family:'Century Gothic';-inkscape-font-specification:'Century Gothic Bold';fill:#ff9400;fill-opacity:1;fill-rule:nonzero;stroke-width:1.18024635"
         id="path4862"
         inkscape:connector-curvature="0" />
      <path
         d="m 81.597346,280.00775 h 1.311892 v 5.24757 h -1.311892 v -0.55466 q -0.385851,0.36656 -0.776525,0.53054 -0.38585,0.15917 -0.839225,0.15917 -1.017681,0 -1.760444,-0.78617 -0.742762,-0.791 -0.742762,-1.96302 0,-1.21543 0.718647,-1.99195 0.718647,-0.77653 1.745974,-0.77653 0.472667,0 0.887457,0.17846 0.414789,0.17845 0.766878,0.53537 z m -1.384239,1.08038 q -0.612538,0 -1.017682,0.43408 -0.405143,0.42926 -0.405143,1.1045 0,0.68006 0.409966,1.11897 0.41479,0.4389 1.017682,0.4389 0.622184,0 1.03215,-0.42926 0.409967,-0.43408 0.409967,-1.13343 0,-0.68489 -0.409967,-1.10932 -0.409966,-0.42444 -1.036973,-0.42444 z"
         style="font-style:normal;font-variant:normal;font-weight:bold;font-stretch:normal;font-size:9.87777805px;line-height:0.25;font-family:'Century Gothic';-inkscape-font-specification:'Century Gothic Bold';fill:#ff9400;fill-opacity:1;fill-rule:nonzero;stroke-width:1.18024635"
         id="path4864"
         inkscape:connector-curvature="0" />
      <path
         d="m 83.772584,280.00775 h 4.890658 v 1.25401 H 86.92209 v 3.99356 h -1.321538 v -3.99356 h -1.827968 z"
         style="font-style:normal;font-variant:normal;font-weight:bold;font-stretch:normal;font-size:9.87777805px;line-height:0.25;font-family:'Century Gothic';-inkscape-font-specification:'Century Gothic Bold';fill:#ff9400;fill-opacity:1;fill-rule:nonzero;stroke-width:1.18024635"
         id="path4866"
         inkscape:connector-curvature="0" />
      <path
         d="m 94.783792,283.01256 h -4.229888 q 0.09164,0.55949 0.487136,0.89228 0.40032,0.32797 1.017681,0.32797 0.73794,0 1.268484,-0.51607 l 1.109321,0.5209 q -0.414789,0.58842 -0.993565,0.87299 -0.578776,0.27974 -1.374593,0.27974 -1.234723,0 -2.011247,-0.77653 -0.776525,-0.78135 -0.776525,-1.95337 0,-1.20096 0.771702,-1.99195 0.776524,-0.79582 1.943723,-0.79582 1.239545,0 2.016069,0.79582 0.776525,0.79099 0.776525,2.09324 z m -1.321539,-1.03697 q -0.130224,-0.43891 -0.516075,-0.71383 -0.381028,-0.27491 -0.887457,-0.27491 -0.549837,0 -0.964626,0.30868 -0.26045,0.19292 -0.482314,0.68006 z"
         style="font-style:normal;font-variant:normal;font-weight:bold;font-stretch:normal;font-size:9.87777805px;line-height:0.25;font-family:'Century Gothic';-inkscape-font-specification:'Century Gothic Bold';fill:#ff9400;fill-opacity:1;fill-rule:nonzero;stroke-width:1.18024635"
         id="path4868"
         inkscape:connector-curvature="0" />
      <path
         d="m 100.54262,285.25532 h -1.340832 l -1.311892,-3.31349 -1.336008,3.31349 H 95.21788 l 2.237934,-5.24757 h 0.848871 z"
         style="font-style:normal;font-variant:normal;font-weight:bold;font-stretch:normal;font-size:9.87777805px;line-height:0.25;font-family:'Century Gothic';-inkscape-font-specification:'Century Gothic Bold';fill:#ff9400;fill-opacity:1;fill-rule:nonzero;stroke-width:1.18024635"
         id="path4870"
         inkscape:connector-curvature="0" />
      <path
         d="m 102.55386,281.89842 h 0.39068 q 0.82475,0 1.26366,0.13022 0.44373,0.1254 0.74758,0.53055 0.30386,0.40514 0.30386,1.01768 0,0.60771 -0.27492,1.01286 -0.27492,0.40032 -0.70418,0.53536 -0.42443,0.13023 -1.19613,0.13023 h -1.85209 v -5.24757 h 1.32154 z m 0,2.34404 h 0.40032 q 0.35691,0 0.51608,-0.0482 0.15916,-0.053 0.27974,-0.19775 0.12058,-0.14469 0.12058,-0.35209 0,-0.67524 -0.7717,-0.67524 h -0.54502 z"
         style="font-style:normal;font-variant:normal;font-weight:bold;font-stretch:normal;font-size:9.87777805px;line-height:0.25;font-family:'Century Gothic';-inkscape-font-specification:'Century Gothic Bold';fill:#ff9400;fill-opacity:1;fill-rule:nonzero;stroke-width:1.18024635"
         id="path4872"
         inkscape:connector-curvature="0" />
      <path
         d="m 107.58922,281.89842 h 1.95819 v -1.89067 h 1.32154 v 5.24757 h -1.32154 v -2.17523 h -1.95819 v 2.17523 h -1.32154 v -5.24757 h 1.32154 z"
         style="font-style:normal;font-variant:normal;font-weight:bold;font-stretch:normal;font-size:9.87777805px;line-height:0.25;font-family:'Century Gothic';-inkscape-font-specification:'Century Gothic Bold';fill:#ff9400;fill-opacity:1;fill-rule:nonzero;stroke-width:1.18024635"
         id="path4874"
         inkscape:connector-curvature="0" />
      <path
         d="m 116.07311,280.00775 h 1.31189 v 5.24757 h -1.31189 v -0.55466 q -0.38585,0.36656 -0.77653,0.53054 -0.38585,0.15917 -0.83922,0.15917 -1.01768,0 -1.76045,-0.78617 -0.74276,-0.791 -0.74276,-1.96302 0,-1.21543 0.71865,-1.99195 0.71864,-0.77653 1.74597,-0.77653 0.47267,0 0.88746,0.17846 0.41479,0.17845 0.76688,0.53537 z m -1.38424,1.08038 q -0.61254,0 -1.01768,0.43408 -0.40515,0.42926 -0.40515,1.1045 0,0.68006 0.40997,1.11897 0.41479,0.4389 1.01768,0.4389 0.62219,0 1.03215,-0.42926 0.40997,-0.43408 0.40997,-1.13343 0,-0.68489 -0.40997,-1.10932 -0.40996,-0.42444 -1.03697,-0.42444 z"
         style="font-style:normal;font-variant:normal;font-weight:bold;font-stretch:normal;font-size:9.87777805px;line-height:0.25;font-family:'Century Gothic';-inkscape-font-specification:'Century Gothic Bold';fill:#ff9400;fill-opacity:1;fill-rule:nonzero;stroke-width:1.18024635"
         id="path4876"
         inkscape:connector-curvature="0" />
      <path
         d="m 119.60846,283.1042 q -0.42443,-0.13987 -0.69935,-0.52572 -0.2701,-0.39067 -0.2701,-0.87781 0,-0.5836 0.3328,-1.0225 0.33279,-0.43891 0.79099,-0.55467 0.46302,-0.11575 1.44212,-0.11575 h 1.33118 v 5.24757 h -1.32153 V 283.355 h -0.25563 l -1.24919,1.90032 h -1.55787 z m 1.60611,-0.73794 v -1.25884 h -0.4582 q -0.74759,0 -0.74759,0.62701 0,0.63183 0.8344,0.63183 z"
         style="font-style:normal;font-variant:normal;font-weight:bold;font-stretch:normal;font-size:9.87777805px;line-height:0.25;font-family:'Century Gothic';-inkscape-font-specification:'Century Gothic Bold';fill:#ff9400;fill-opacity:1;fill-rule:nonzero;stroke-width:1.18024635"
         id="path4878"
         inkscape:connector-curvature="0" />
      <path
         d="m 32.637582,292.31228 1.610928,-3.30867 h 0.868164 l 1.311893,5.24757 H 35.14079 l -0.699355,-3.07716 -1.562696,3.07716 h -0.540192 l -1.528934,-3.07716 -0.704178,3.07716 h -1.282954 l 1.311893,-5.24757 h 0.868164 z"
         style="font-style:normal;font-variant:normal;font-weight:bold;font-stretch:normal;font-size:9.87777805px;line-height:0.25;font-family:'Century Gothic';-inkscape-font-specification:'Century Gothic Bold';fill:#ff9400;fill-opacity:1;fill-rule:nonzero;stroke-width:1.18024635"
         id="path4880"
         inkscape:connector-curvature="0" />
      <path
         d="m 41.039485,289.00361 h 1.311892 v 5.24757 h -1.311892 v -0.55466 q -0.385851,0.36656 -0.776525,0.53055 -0.38585,0.15916 -0.839225,0.15916 -1.017682,0 -1.760445,-0.78617 -0.742763,-0.791 -0.742763,-1.96302 0,-1.21543 0.718647,-1.99195 0.718648,-0.77653 1.745976,-0.77653 0.472667,0 0.887456,0.17846 0.41479,0.17846 0.766879,0.53537 z m -1.38424,1.08038 q -0.612538,0 -1.017681,0.43409 -0.405144,0.42925 -0.405144,1.10449 0,0.68007 0.409967,1.11897 0.41479,0.43891 1.017681,0.43891 0.622185,0 1.032151,-0.42926 0.409966,-0.43409 0.409966,-1.13344 0,-0.68488 -0.409966,-1.10932 -0.409966,-0.42444 -1.036974,-0.42444 z"
         style="font-style:normal;font-variant:normal;font-weight:bold;font-stretch:normal;font-size:9.87777805px;line-height:0.25;font-family:'Century Gothic';-inkscape-font-specification:'Century Gothic Bold';fill:#ff9400;fill-opacity:1;fill-rule:nonzero;stroke-width:1.18024635"
         id="path4882"
         inkscape:connector-curvature="0" />
      <path
         d="m 44.989631,289.00361 v 0.57878 q 0.356912,-0.35691 0.771701,-0.53537 0.41479,-0.17846 0.887457,-0.17846 1.027327,0 1.745974,0.77653 0.718647,0.77652 0.718647,1.99195 0,1.17202 -0.742762,1.96302 -0.742763,0.78617 -1.760444,0.78617 -0.453375,0 -0.844049,-0.15916 -0.390673,-0.16399 -0.776524,-0.53055 v 2.47427 h -1.307069 v -7.16718 z m 1.384239,1.08038 q -0.622184,0 -1.03215,0.42444 -0.409967,0.42444 -0.409967,1.10932 0,0.69935 0.409967,1.13344 0.409966,0.42926 1.03215,0.42926 0.602892,0 1.012858,-0.43891 0.41479,-0.4389 0.41479,-1.11897 0,-0.67524 -0.405143,-1.10449 -0.405144,-0.43409 -1.022505,-0.43409 z"
         style="font-style:normal;font-variant:normal;font-weight:bold;font-stretch:normal;font-size:9.87777805px;line-height:0.25;font-family:'Century Gothic';-inkscape-font-specification:'Century Gothic Bold';fill:#ff9400;fill-opacity:1;fill-rule:nonzero;stroke-width:1.18024635"
         id="path4884"
         inkscape:connector-curvature="0" />
      <path
         d="m 50.203439,289.00361 h 1.316716 v 1.96302 l 1.813498,-1.96302 h 1.606104 l -2.33922,2.55626 2.368159,2.69131 h -1.745975 l -1.562695,-1.85208 -0.139871,0.16398 v 1.6881 h -1.316716 z"
         style="font-style:normal;font-variant:normal;font-weight:bold;font-stretch:normal;font-size:9.87777805px;line-height:0.25;font-family:'Century Gothic';-inkscape-font-specification:'Century Gothic Bold';fill:#ff9400;fill-opacity:1;fill-rule:nonzero;stroke-width:1.18024635"
         id="path4886"
         inkscape:connector-curvature="0" />
      <path
         d="m 56.203417,294.25118 h -0.699354 v -5.24757 h 1.282953 v 3.08198 l 2.686486,-3.08198 h 0.631831 v 5.24757 h -1.282954 v -3.01928 z"
         style="font-style:normal;font-variant:normal;font-weight:bold;font-stretch:normal;font-size:9.87777805px;line-height:0.25;font-family:'Century Gothic';-inkscape-font-specification:'Century Gothic Bold';fill:#ff9400;fill-opacity:1;fill-rule:nonzero;stroke-width:1.18024635"
         id="path4888"
         inkscape:connector-curvature="0" />
      <path
         d="m 62.738765,289.00361 v 0.57878 q 0.356912,-0.35691 0.771701,-0.53537 0.41479,-0.17846 0.887457,-0.17846 1.027327,0 1.745974,0.77653 0.718647,0.77652 0.718647,1.99195 0,1.17202 -0.742762,1.96302 -0.742763,0.78617 -1.760444,0.78617 -0.453375,0 -0.844049,-0.15916 -0.390673,-0.16399 -0.776524,-0.53055 v 2.47427 h -1.307069 v -7.16718 z m 1.384239,1.08038 q -0.622184,0 -1.03215,0.42444 -0.409967,0.42444 -0.409967,1.10932 0,0.69935 0.409967,1.13344 0.409966,0.42926 1.03215,0.42926 0.602892,0 1.012858,-0.43891 0.41479,-0.4389 0.41479,-1.11897 0,-0.67524 -0.405143,-1.10449 -0.405144,-0.43409 -1.022505,-0.43409 z"
         style="font-style:normal;font-variant:normal;font-weight:bold;font-stretch:normal;font-size:9.87777805px;line-height:0.25;font-family:'Century Gothic';-inkscape-font-specification:'Century Gothic Bold';fill:#ff9400;fill-opacity:1;fill-rule:nonzero;stroke-width:1.18024635"
         id="path4890"
         inkscape:connector-curvature="0" />
      <path
         d="m 70.417191,288.86856 q 0.742763,0 1.393886,0.37139 0.655946,0.37138 1.022504,1.00803 0.366558,0.63665 0.366558,1.37459 0,0.74277 -0.371381,1.38907 -0.366558,0.6463 -1.003212,1.01285 -0.636654,0.36174 -1.403532,0.36174 -1.128613,0 -1.929253,-0.80064 -0.795817,-0.80546 -0.795817,-1.95337 0,-1.2299 0.901926,-2.04983 0.790994,-0.71383 1.818321,-0.71383 z m 0.01929,1.23955 q -0.612538,0 -1.022505,0.42926 -0.405143,0.42443 -0.405143,1.09003 0,0.68488 0.40032,1.10932 0.405143,0.42443 1.022504,0.42443 0.617362,0 1.027328,-0.42926 0.409966,-0.42925 0.409966,-1.10449 0,-0.67524 -0.405143,-1.09485 -0.40032,-0.42444 -1.027327,-0.42444 z"
         style="font-style:normal;font-variant:normal;font-weight:bold;font-stretch:normal;font-size:9.87777805px;line-height:0.25;font-family:'Century Gothic';-inkscape-font-specification:'Century Gothic Bold';fill:#ff9400;fill-opacity:1;fill-rule:nonzero;stroke-width:1.18024635"
         id="path4892"
         inkscape:connector-curvature="0" />
      <path
         d="m 74.280523,294.25118 v -5.24757 h 2.107709 q 1.036974,0 1.408356,0.40997 0.371381,0.40514 0.371381,0.92122 0,0.76688 -0.762055,1.10449 1.041797,0.35692 1.041797,1.34566 0,0.53537 -0.274919,0.88746 -0.274919,0.34726 -0.699354,0.46302 -0.419613,0.11575 -1.176845,0.11575 z m 1.321539,-3.18327 h 0.506429 q 0.32315,0 0.496782,-0.15916 0.178456,-0.16399 0.178456,-0.36174 0,-0.29421 -0.168809,-0.45819 -0.16881,-0.16399 -0.40032,-0.16399 l -0.16881,0.005 h -0.443728 z m 0,2.17041 h 0.660769 q 0.385851,0 0.540191,-0.17845 0.159163,-0.18328 0.159163,-0.35691 0,-0.25563 -0.178456,-0.46785 -0.173632,-0.21222 -0.63183,-0.21222 h -0.549837 z"
         style="font-style:normal;font-variant:normal;font-weight:bold;font-stretch:normal;font-size:9.87777805px;line-height:0.25;font-family:'Century Gothic';-inkscape-font-specification:'Century Gothic Bold';fill:#ff9400;fill-opacity:1;fill-rule:nonzero;stroke-width:1.18024635"
         id="path4894"
         inkscape:connector-curvature="0" />
      <path
         d="m 79.566679,289.00361 h 1.316715 v 1.96302 l 1.813499,-1.96302 h 1.606103 l -2.33922,2.55626 2.368159,2.69131 H 82.58596 l -1.562695,-1.85208 -0.139871,0.16398 v 1.6881 h -1.316715 z"
         style="font-style:normal;font-variant:normal;font-weight:bold;font-stretch:normal;font-size:9.87777805px;line-height:0.25;font-family:'Century Gothic';-inkscape-font-specification:'Century Gothic Bold';fill:#ff9400;fill-opacity:1;fill-rule:nonzero;stroke-width:1.18024635"
         id="path4896"
         inkscape:connector-curvature="0" />
      <path
         d="m 88.749925,289.00361 h 1.311892 v 5.24757 h -1.311892 v -0.55466 q -0.385851,0.36656 -0.776525,0.53055 -0.38585,0.15916 -0.839225,0.15916 -1.017681,0 -1.760444,-0.78617 -0.742762,-0.791 -0.742762,-1.96302 0,-1.21543 0.718647,-1.99195 0.718647,-0.77653 1.745974,-0.77653 0.472667,0 0.887457,0.17846 0.414789,0.17846 0.766878,0.53537 z m -1.384239,1.08038 q -0.612538,0 -1.017682,0.43409 -0.405143,0.42925 -0.405143,1.10449 0,0.68007 0.409966,1.11897 0.41479,0.43891 1.017682,0.43891 0.622184,0 1.03215,-0.42926 0.409967,-0.43409 0.409967,-1.13344 0,-0.68488 -0.409967,-1.10932 -0.409966,-0.42444 -1.036973,-0.42444 z"
         style="font-style:normal;font-variant:normal;font-weight:bold;font-stretch:normal;font-size:9.87777805px;line-height:0.25;font-family:'Century Gothic';-inkscape-font-specification:'Century Gothic Bold';fill:#ff9400;fill-opacity:1;fill-rule:nonzero;stroke-width:1.18024635"
         id="path4898"
         inkscape:connector-curvature="0" />
      <path
         d="m 96.616456,288.86856 q 0.742762,0 1.393885,0.37139 0.655946,0.37138 1.022505,1.00803 0.36656,0.63665 0.36656,1.37459 0,0.74277 -0.371384,1.38907 -0.366558,0.6463 -1.003211,1.01285 -0.636654,0.36174 -1.403532,0.36174 -1.128614,0 -1.929254,-0.80064 -0.795817,-0.80546 -0.795817,-1.95337 0,-1.2299 0.901926,-2.04983 0.790994,-0.71383 1.818322,-0.71383 z m 0.01929,1.23955 q -0.612538,0 -1.022504,0.42926 -0.405144,0.42443 -0.405144,1.09003 0,0.68488 0.400321,1.10932 0.405143,0.42443 1.022504,0.42443 0.617361,0 1.027327,-0.42926 0.409967,-0.42925 0.409967,-1.10449 0,-0.67524 -0.405143,-1.09485 -0.400321,-0.42444 -1.027328,-0.42444 z"
         style="font-style:normal;font-variant:normal;font-weight:bold;font-stretch:normal;font-size:9.87777805px;line-height:0.25;font-family:'Century Gothic';-inkscape-font-specification:'Century Gothic Bold';fill:#ff9400;fill-opacity:1;fill-rule:nonzero;stroke-width:1.18024635"
         id="path4900"
         inkscape:connector-curvature="0" />
      <path
         d="m 105.49587,286.86696 v 1.24437 q -0.56431,0.0627 -1.09486,0.0675 -0.96463,0.01 -1.45177,0.0868 -0.48714,0.0723 -0.85852,0.34727 -0.37139,0.27009 -0.52573,0.62701 -0.15434,0.35208 -0.1881,1.01768 0.56913,-1.36495 1.95338,-1.36495 1.01769,0 1.76045,0.74759 0.74759,0.74276 0.74759,1.9196 0,1.21543 -0.80064,2.0209 -0.80064,0.80546 -1.9775,0.80546 -0.9598,0 -1.69293,-0.58842 -0.72829,-0.58843 -0.93569,-1.39871 -0.2074,-0.81511 -0.2074,-1.73633 0,-1.18167 0.29422,-1.91961 0.29421,-0.74276 0.7717,-1.11414 0.48232,-0.37138 1.11415,-0.49678 0.63184,-0.12541 1.85692,-0.17846 0.82958,-0.0386 1.23473,-0.0868 z m -0.98875,4.76044 q 0,-0.65595 -0.3955,-1.08521 -0.39067,-0.43408 -1.03698,-0.43408 -0.61736,0 -1.02251,0.43408 -0.40514,0.43408 -0.40514,1.08521 0,0.68488 0.40032,1.10932 0.40514,0.41961 1.02251,0.41961 0.60772,0 1.02251,-0.41961 0.41479,-0.42444 0.41479,-1.10932 z m -2.95177,2.57555 z"
         style="font-style:normal;font-variant:normal;font-weight:bold;font-stretch:normal;font-size:9.87777805px;line-height:0.25;font-family:'Century Gothic';-inkscape-font-specification:'Century Gothic Bold';fill:#ff9400;fill-opacity:1;fill-rule:nonzero;stroke-width:1.18024635"
         id="path4902"
         inkscape:connector-curvature="0" />
      <path
         d="m 106.33993,289.00361 h 1.34566 l 1.36495,3.2942 1.50483,-3.2942 h 1.35048 l -3.28939,7.16718 h -1.36013 l 1.08039,-2.31028 z"
         style="font-style:normal;font-variant:normal;font-weight:bold;font-stretch:normal;font-size:9.87777805px;line-height:0.25;font-family:'Century Gothic';-inkscape-font-specification:'Century Gothic Bold';fill:#ff9400;fill-opacity:1;fill-rule:nonzero;stroke-width:1.18024635"
         id="path4904"
         inkscape:connector-curvature="0" />
      <path
         d="m 112.65344,294.25118 v -5.24757 h 2.10773 q 1.03698,0 1.40836,0.40997 0.37138,0.40514 0.37138,0.92122 0,0.76688 -0.76206,1.10449 1.04181,0.35692 1.04181,1.34566 0,0.53537 -0.27493,0.88746 -0.27492,0.34726 -0.69935,0.46302 -0.41962,0.11575 -1.17686,0.11575 z m 1.32155,-3.18327 h 0.50643 q 0.32315,0 0.49679,-0.15916 0.17845,-0.16399 0.17845,-0.36174 0,-0.29421 -0.16881,-0.45819 -0.16881,-0.16399 -0.40032,-0.16399 l -0.16881,0.005 h -0.44373 z m 0,2.17041 h 0.66077 q 0.38585,0 0.54019,-0.17845 0.15917,-0.18328 0.15917,-0.35691 0,-0.25563 -0.17846,-0.46785 -0.17363,-0.21222 -0.63183,-0.21222 h -0.54984 z"
         style="font-style:normal;font-variant:normal;font-weight:bold;font-stretch:normal;font-size:9.87777805px;line-height:0.25;font-family:'Century Gothic';-inkscape-font-specification:'Century Gothic Bold';fill:#ff9400;fill-opacity:1;fill-rule:nonzero;stroke-width:1.18024635"
         id="path4906"
         inkscape:connector-curvature="0" />
      <path
         d="m 118.63416,294.25118 h -0.69935 v -5.24757 h 1.28296 v 3.08198 l 2.6865,-3.08198 h 0.63183 v 5.24757 h -1.28296 v -3.01928 z"
         style="font-style:normal;font-variant:normal;font-weight:bold;font-stretch:normal;font-size:9.87777805px;line-height:0.25;font-family:'Century Gothic';-inkscape-font-specification:'Century Gothic Bold';fill:#ff9400;fill-opacity:1;fill-rule:nonzero;stroke-width:1.18024635"
         id="path4908"
         inkscape:connector-curvature="0" />
    </g>
  </g>
</svg>
