<?xml version="1.0" encoding="UTF-8"?>
<!DOCTYPE svg PUBLIC "-//W3C//DTD SVG 1.1//EN" "http://www.w3.org/Graphics/SVG/1.1/DTD/svg11.dtd">
<!-- Creator: CorelDRAW -->
<svg xmlns="http://www.w3.org/2000/svg" xml:space="preserve" width="89.7604mm" height="15.2001mm" version="1.1" style="shape-rendering:geometricPrecision; text-rendering:geometricPrecision; image-rendering:optimizeQuality; fill-rule:evenodd; clip-rule:evenodd"
viewBox="0 0 106.74 18.08"
 xmlns:xlink="http://www.w3.org/1999/xlink"
 xmlns:xodm="http://www.corel.com/coreldraw/odm/2003">
 <defs>
  <style type="text/css">
   <![CDATA[
    .fil0 {fill:#C29138;fill-rule:nonzero}
   ]]>
  </style>
 </defs>
 <g id="Слой_x0020_1">
  <metadata id="CorelCorpID_0Corel-Layer"/>
  <path class="fil0" d="M0.12 6.28l0 -6.02 3.15 0 0 1.11 -2.01 0 0 1.17 0.25 0c0.51,0 0.93,0.06 1.25,0.17 0.32,0.11 0.59,0.32 0.81,0.63 0.22,0.31 0.32,0.68 0.32,1.1 0,0.42 -0.08,0.76 -0.24,1 -0.16,0.25 -0.38,0.45 -0.67,0.61 -0.28,0.16 -0.68,0.23 -1.18,0.23l-1.69 0zm1.14 -2.73l0 1.64 0.29 0c0.53,0 0.86,-0.07 1,-0.21 0.14,-0.14 0.21,-0.32 0.21,-0.55 0,-0.59 -0.42,-0.88 -1.26,-0.88l-0.24 0z"/>
  <path id="_1" class="fil0" d="M8.07 1.82l1.12 0 0 4.46 -1.12 0 0 -0.47c-0.22,0.21 -0.44,0.36 -0.66,0.45 -0.22,0.09 -0.46,0.14 -0.71,0.14 -0.58,0 -1.08,-0.22 -1.5,-0.67 -0.42,-0.44 -0.63,-1 -0.63,-1.66 0,-0.69 0.2,-1.25 0.61,-1.69 0.41,-0.44 0.9,-0.66 1.48,-0.66 0.27,0 0.52,0.05 0.75,0.15 0.23,0.1 0.45,0.25 0.65,0.45l0 -0.49zm-1.18 0.91c-0.35,0 -0.63,0.12 -0.86,0.37 -0.23,0.24 -0.34,0.56 -0.34,0.94 0,0.38 0.12,0.7 0.35,0.95 0.23,0.25 0.52,0.37 0.86,0.37 0.35,0 0.64,-0.12 0.87,-0.37 0.23,-0.24 0.35,-0.56 0.35,-0.96 0,-0.39 -0.12,-0.7 -0.35,-0.94 -0.23,-0.24 -0.52,-0.36 -0.88,-0.36z"/>
  <polygon id="_2" class="fil0" points="11.43,3.42 13.11,3.42 13.11,1.82 14.22,1.82 14.22,6.28 13.11,6.28 13.11,4.43 11.43,4.43 11.43,6.28 10.31,6.28 10.31,1.82 11.43,1.82 "/>
  <polygon id="_3" class="fil0" points="15.35,1.82 16.46,1.82 16.46,3.49 18.01,1.82 19.38,1.82 17.38,3.99 19.4,6.28 17.92,6.28 16.58,4.71 16.46,4.84 16.46,6.28 15.35,6.28 "/>
  <polygon id="_4" class="fil0" points="20.45,6.28 19.85,6.28 19.85,1.82 20.94,1.82 20.94,4.44 23.23,1.82 23.76,1.82 23.76,6.28 22.67,6.28 22.67,3.71 "/>
  <path id="_5" class="fil0" d="M31.51 0l0 1.06c-0.32,0.04 -0.63,0.06 -0.93,0.06 -0.55,0.01 -0.96,0.03 -1.24,0.07 -0.28,0.04 -0.52,0.14 -0.73,0.3 -0.21,0.15 -0.36,0.33 -0.45,0.53 -0.09,0.2 -0.14,0.49 -0.16,0.87 0.32,-0.77 0.88,-1.15 1.66,-1.15 0.58,0 1.08,0.21 1.5,0.63 0.42,0.42 0.63,0.96 0.63,1.63 0,0.69 -0.23,1.26 -0.68,1.71 -0.45,0.45 -1.02,0.68 -1.68,0.68 -0.55,0 -1.03,-0.17 -1.44,-0.5 -0.42,-0.33 -0.68,-0.73 -0.8,-1.19 -0.12,-0.46 -0.18,-0.95 -0.18,-1.47 0,-0.67 0.08,-1.21 0.25,-1.63 0.17,-0.42 0.39,-0.73 0.66,-0.94 0.27,-0.21 0.59,-0.35 0.95,-0.42 0.36,-0.07 0.89,-0.12 1.58,-0.15 0.47,-0.02 0.82,-0.05 1.05,-0.08zm-0.84 4.04c0,-0.37 -0.11,-0.68 -0.34,-0.92 -0.22,-0.24 -0.52,-0.37 -0.89,-0.37 -0.35,0 -0.64,0.12 -0.87,0.37 -0.23,0.24 -0.35,0.55 -0.35,0.92 0,0.39 0.11,0.7 0.34,0.94 0.23,0.24 0.52,0.36 0.87,0.36 0.35,0 0.64,-0.12 0.87,-0.36 0.24,-0.24 0.35,-0.55 0.35,-0.94z"/>
  <polygon id="_6" class="fil0" points="32.21,1.82 33.36,1.82 34.51,4.61 35.79,1.82 36.93,1.82 34.14,7.9 33,7.9 33.91,5.95 "/>
  <path id="_7" class="fil0" d="M38.15 6.28l0 0.77 -1 0 0 -1.72 0.67 0 1.55 -3.51 0.72 0 1.55 3.51 0.69 0 0 1.72 -1.07 0 0 -0.77 -3.11 0zm2.3 -0.95l-0.73 -1.88 -0.77 1.88 1.5 0z"/>
  <polygon id="_8" class="fil0" points="42.54,1.82 43.68,1.82 44.84,4.61 46.11,1.82 47.26,1.82 44.47,7.9 43.33,7.9 44.23,5.95 "/>
  <polygon id="_9" class="fil0" points="47.51,1.82 51.66,1.82 51.66,2.89 50.17,2.89 50.17,6.28 49.06,6.28 49.06,2.89 47.51,2.89 "/>
  <polygon id="_10" class="fil0" points="55.85,6.28 54.74,6.28 54.74,1.82 58.65,1.82 58.65,6.28 57.53,6.28 57.53,2.89 55.85,2.89 "/>
  <path id="_11" class="fil0" d="M60.89 1.82l0 0.49c0.2,-0.2 0.42,-0.35 0.65,-0.45 0.23,-0.1 0.49,-0.15 0.75,-0.15 0.58,0 1.07,0.22 1.48,0.66 0.41,0.44 0.61,1 0.61,1.69 0,0.66 -0.21,1.22 -0.63,1.66 -0.42,0.45 -0.92,0.67 -1.49,0.67 -0.26,0 -0.5,-0.05 -0.72,-0.14 -0.22,-0.09 -0.44,-0.24 -0.66,-0.45l0 2.1 -1.12 0 0 -6.08 1.12 0zm1.17 0.91c-0.35,0 -0.64,0.12 -0.87,0.36 -0.23,0.24 -0.35,0.55 -0.35,0.94 0,0.4 0.12,0.72 0.35,0.96 0.23,0.24 0.52,0.37 0.87,0.37 0.34,0 0.63,-0.12 0.86,-0.37 0.23,-0.25 0.35,-0.56 0.35,-0.95 0,-0.38 -0.11,-0.7 -0.34,-0.94 -0.23,-0.24 -0.52,-0.37 -0.87,-0.37z"/>
  <path id="_12" class="fil0" d="M67.41 1.71c0.42,0 0.82,0.1 1.19,0.31 0.37,0.21 0.66,0.49 0.87,0.85 0.21,0.36 0.31,0.75 0.31,1.16 0,0.42 -0.1,0.81 -0.31,1.18 -0.21,0.36 -0.5,0.65 -0.86,0.86 -0.36,0.21 -0.76,0.31 -1.19,0.31 -0.64,0 -1.19,-0.23 -1.64,-0.68 -0.45,-0.45 -0.68,-1.01 -0.68,-1.65 0,-0.7 0.26,-1.27 0.77,-1.74 0.45,-0.4 0.96,-0.6 1.55,-0.6zm0.02 1.05c-0.35,0 -0.64,0.12 -0.87,0.36 -0.23,0.24 -0.35,0.55 -0.35,0.93 0,0.39 0.11,0.7 0.34,0.94 0.23,0.24 0.52,0.36 0.87,0.36 0.35,0 0.64,-0.12 0.87,-0.36 0.23,-0.24 0.35,-0.55 0.35,-0.93 0,-0.38 -0.11,-0.69 -0.34,-0.93 -0.23,-0.24 -0.52,-0.36 -0.88,-0.36z"/>
  <path id="_13" class="fil0" d="M70.68 6.28l0 -4.46 1.79 0c0.59,0 0.99,0.12 1.2,0.35 0.21,0.23 0.32,0.49 0.32,0.78 0,0.43 -0.22,0.75 -0.65,0.94 0.59,0.2 0.88,0.58 0.88,1.14 0,0.3 -0.08,0.55 -0.23,0.75 -0.16,0.2 -0.35,0.33 -0.59,0.4 -0.24,0.07 -0.57,0.1 -1,0.1l-1.71 0zm1.12 -2.7l0.43 0c0.19,0 0.33,-0.05 0.43,-0.14 0.1,-0.09 0.15,-0.19 0.15,-0.3 0,-0.17 -0.05,-0.3 -0.15,-0.39 -0.1,-0.09 -0.21,-0.14 -0.34,-0.14l-0.14 0 -0.38 0 0 0.96zm0 1.84l0.57 0c0.22,0 0.38,-0.05 0.47,-0.15 0.09,-0.1 0.13,-0.2 0.13,-0.3 0,-0.14 -0.05,-0.28 -0.15,-0.39 -0.1,-0.12 -0.28,-0.18 -0.54,-0.18l-0.47 0 0 1.02z"/>
  <path id="_14" class="fil0" d="M79.63 4.36l-3.59 0c0.05,0.32 0.19,0.57 0.41,0.76 0.22,0.19 0.51,0.28 0.86,0.28 0.42,0 0.77,-0.15 1.07,-0.44l0.94 0.44c-0.23,0.33 -0.51,0.58 -0.84,0.74 -0.33,0.16 -0.71,0.24 -1.16,0.24 -0.7,0 -1.26,-0.22 -1.7,-0.66 -0.44,-0.44 -0.66,-0.99 -0.66,-1.65 0,-0.68 0.22,-1.24 0.66,-1.69 0.44,-0.45 0.99,-0.67 1.65,-0.67 0.7,0 1.27,0.22 1.71,0.67 0.44,0.45 0.66,1.04 0.66,1.77l-0 0.21zm-1.11 -0.87c-0.07,-0.24 -0.22,-0.44 -0.44,-0.59 -0.22,-0.15 -0.47,-0.23 -0.76,-0.23 -0.31,0 -0.58,0.09 -0.82,0.26 -0.15,0.11 -0.28,0.3 -0.41,0.56l2.42 0z"/>
  <path id="_15" class="fil0" d="M81.66 1.82l0 0.49c0.2,-0.2 0.42,-0.35 0.65,-0.45 0.23,-0.1 0.49,-0.15 0.75,-0.15 0.58,0 1.07,0.22 1.48,0.66 0.41,0.44 0.61,1 0.61,1.69 0,0.66 -0.21,1.22 -0.63,1.66 -0.42,0.45 -0.92,0.67 -1.49,0.67 -0.26,0 -0.5,-0.05 -0.72,-0.14 -0.22,-0.09 -0.44,-0.24 -0.66,-0.45l0 2.1 -1.12 0 0 -6.08 1.12 0zm1.17 0.91c-0.35,0 -0.64,0.12 -0.87,0.36 -0.23,0.24 -0.35,0.55 -0.35,0.94 0,0.4 0.12,0.72 0.35,0.96 0.23,0.24 0.52,0.37 0.87,0.37 0.34,0 0.63,-0.12 0.86,-0.37 0.23,-0.25 0.35,-0.56 0.35,-0.95 0,-0.38 -0.11,-0.7 -0.34,-0.94 -0.23,-0.24 -0.52,-0.37 -0.87,-0.37z"/>
  <path id="_16" class="fil0" d="M86.84 4.45c-0.24,-0.08 -0.44,-0.23 -0.6,-0.45 -0.16,-0.22 -0.23,-0.47 -0.23,-0.74 0,-0.33 0.09,-0.62 0.28,-0.87 0.19,-0.25 0.41,-0.41 0.68,-0.47 0.26,-0.07 0.67,-0.1 1.22,-0.1l1.13 0 0 4.46 -1.12 0 0 -1.61 -0.22 0 -1.07 1.61 -1.33 0 1.24 -1.83zm1.37 -0.62l0 -1.07 -0.39 0c-0.43,0 -0.64,0.18 -0.64,0.53 0,0.36 0.24,0.54 0.71,0.54l0.32 0z"/>
  <polygon id="_17" class="fil0" points="90.06,1.82 94.21,1.82 94.21,2.89 92.73,2.89 92.73,6.28 91.61,6.28 91.61,2.89 90.06,2.89 "/>
  <path id="_18" class="fil0" d="M96.06 3.43l0.33 0c0.47,0 0.83,0.04 1.08,0.11 0.25,0.07 0.46,0.22 0.64,0.45 0.17,0.23 0.26,0.52 0.26,0.86 0,0.34 -0.08,0.63 -0.23,0.86 -0.16,0.23 -0.36,0.38 -0.6,0.45 -0.24,0.07 -0.58,0.11 -1.02,0.11l-1.57 0 0 -4.46 1.12 0 0 1.61zm0 1.98l0.34 0c0.2,0 0.35,-0.01 0.44,-0.04 0.09,-0.03 0.17,-0.08 0.24,-0.16 0.07,-0.08 0.1,-0.18 0.1,-0.3 0,-0.38 -0.22,-0.57 -0.66,-0.57l-0.47 0 0 1.07z"/>
  <path id="_19" class="fil0" d="M-0 16.45l0 -4.46 1.79 0c0.59,0 0.99,0.12 1.2,0.35 0.21,0.23 0.32,0.49 0.32,0.78 0,0.43 -0.22,0.75 -0.65,0.94 0.59,0.2 0.88,0.58 0.88,1.14 0,0.3 -0.08,0.55 -0.23,0.75 -0.16,0.2 -0.35,0.33 -0.59,0.4 -0.24,0.07 -0.57,0.1 -1,0.1l-1.71 0zm1.12 -2.7l0.43 0c0.19,0 0.33,-0.05 0.43,-0.14 0.1,-0.09 0.15,-0.19 0.15,-0.3 0,-0.17 -0.05,-0.3 -0.15,-0.39 -0.1,-0.09 -0.21,-0.14 -0.34,-0.14l-0.14 0 -0.38 0 0 0.96zm0 1.84l0.57 0c0.22,0 0.38,-0.05 0.47,-0.15 0.09,-0.1 0.13,-0.2 0.13,-0.3 0,-0.14 -0.05,-0.28 -0.15,-0.39 -0.1,-0.12 -0.28,-0.18 -0.54,-0.18l-0.47 0 0 1.02z"/>
  <path id="_20" class="fil0" d="M8.85 12.9l-0.93 0.51c-0.17,-0.18 -0.35,-0.31 -0.52,-0.38 -0.17,-0.07 -0.37,-0.11 -0.6,-0.11 -0.42,0 -0.76,0.12 -1.01,0.37 -0.26,0.25 -0.39,0.57 -0.39,0.96 0,0.38 0.12,0.69 0.37,0.92 0.25,0.24 0.57,0.36 0.98,0.36 0.5,0 0.89,-0.17 1.17,-0.51l0.88 0.6c-0.48,0.62 -1.15,0.93 -2.02,0.93 -0.78,0 -1.4,-0.23 -1.84,-0.69 -0.44,-0.46 -0.67,-1 -0.67,-1.62 0,-0.43 0.11,-0.83 0.32,-1.19 0.22,-0.36 0.52,-0.65 0.9,-0.85 0.39,-0.21 0.82,-0.31 1.3,-0.31 0.44,0 0.84,0.09 1.19,0.26 0.35,0.18 0.64,0.43 0.86,0.75z"/>
  <path id="_21" class="fil0" d="M14.32 14.53l-3.59 0c0.05,0.32 0.19,0.57 0.41,0.76 0.22,0.19 0.51,0.28 0.86,0.28 0.42,0 0.77,-0.15 1.07,-0.44l0.94 0.44c-0.23,0.33 -0.51,0.58 -0.84,0.74 -0.33,0.16 -0.71,0.24 -1.16,0.24 -0.7,0 -1.26,-0.22 -1.7,-0.66 -0.44,-0.44 -0.66,-0.99 -0.66,-1.65 0,-0.68 0.22,-1.24 0.66,-1.69 0.44,-0.45 0.99,-0.67 1.65,-0.67 0.7,0 1.27,0.22 1.71,0.67 0.44,0.45 0.66,1.04 0.66,1.77l-0 0.21zm-1.11 -0.87c-0.07,-0.24 -0.22,-0.44 -0.44,-0.59 -0.22,-0.15 -0.47,-0.23 -0.76,-0.23 -0.31,0 -0.58,0.09 -0.82,0.26 -0.15,0.11 -0.28,0.3 -0.41,0.56l2.42 0z"/>
  <path id="_22" class="fil0" d="M18.16 16.45l0 0.77 -1 0 0 -1.72 0.67 0 1.55 -3.51 0.72 0 1.55 3.51 0.69 0 0 1.72 -1.07 0 0 -0.77 -3.11 0zm2.3 -0.95l-0.73 -1.88 -0.77 1.88 1.5 0z"/>
  <path id="_23" class="fil0" d="M27.5 14.53l-3.59 0c0.05,0.32 0.19,0.57 0.41,0.76 0.22,0.19 0.51,0.28 0.86,0.28 0.42,0 0.77,-0.15 1.07,-0.44l0.94 0.44c-0.23,0.33 -0.51,0.58 -0.84,0.74 -0.33,0.16 -0.71,0.24 -1.16,0.24 -0.7,0 -1.26,-0.22 -1.7,-0.66 -0.44,-0.44 -0.66,-0.99 -0.66,-1.65 0,-0.68 0.22,-1.24 0.66,-1.69 0.44,-0.45 0.99,-0.67 1.65,-0.67 0.7,0 1.27,0.22 1.71,0.67 0.44,0.45 0.66,1.04 0.66,1.77l-0 0.21zm-1.11 -0.87c-0.07,-0.24 -0.22,-0.44 -0.44,-0.59 -0.22,-0.15 -0.47,-0.23 -0.76,-0.23 -0.31,0 -0.58,0.09 -0.82,0.26 -0.15,0.11 -0.28,0.3 -0.41,0.56l2.42 0z"/>
  <polygon id="_24" class="fil0" points="29.53,13.59 31.21,13.59 31.21,11.99 32.32,11.99 32.32,16.45 31.21,16.45 31.21,14.6 29.53,14.6 29.53,16.45 28.41,16.45 28.41,11.99 29.53,11.99 "/>
  <path id="_25" class="fil0" d="M37.91 14.53l-3.59 0c0.05,0.32 0.19,0.57 0.41,0.76 0.22,0.19 0.51,0.28 0.86,0.28 0.42,0 0.77,-0.15 1.07,-0.44l0.94 0.44c-0.23,0.33 -0.51,0.58 -0.84,0.74 -0.33,0.16 -0.71,0.24 -1.16,0.24 -0.7,0 -1.26,-0.22 -1.7,-0.66 -0.44,-0.44 -0.66,-0.99 -0.66,-1.65 0,-0.68 0.22,-1.24 0.66,-1.69 0.44,-0.45 0.99,-0.67 1.65,-0.67 0.7,0 1.27,0.22 1.71,0.67 0.44,0.45 0.66,1.04 0.66,1.77l-0 0.21zm-1.11 -0.87c-0.07,-0.24 -0.22,-0.44 -0.44,-0.59 -0.22,-0.15 -0.47,-0.23 -0.76,-0.23 -0.31,0 -0.58,0.09 -0.82,0.26 -0.15,0.11 -0.28,0.3 -0.41,0.56l2.42 0z"/>
  <polygon id="_26" class="fil0" points="41.08,15.01 40.95,14.88 39.63,16.45 38.14,16.45 40.16,14.16 38.17,11.99 39.53,11.99 41.08,13.66 41.08,11.99 42.19,11.99 42.19,13.66 43.74,11.99 45.11,11.99 43.11,14.16 45.13,16.45 43.64,16.45 42.31,14.88 42.19,15.01 42.19,16.45 41.08,16.45 "/>
  <polygon id="_27" class="fil0" points="46.7,13.59 48.38,13.59 48.38,11.99 49.49,11.99 49.49,16.45 48.38,16.45 48.38,14.6 46.7,14.6 46.7,16.45 45.58,16.45 45.58,11.99 46.7,11.99 "/>
  <path id="_28" class="fil0" d="M51.73 13.6l0.33 0c0.47,0 0.83,0.04 1.08,0.11 0.25,0.07 0.46,0.22 0.64,0.45 0.17,0.23 0.26,0.52 0.26,0.86 0,0.34 -0.08,0.63 -0.23,0.86 -0.16,0.23 -0.36,0.38 -0.6,0.45 -0.24,0.07 -0.58,0.11 -1.02,0.11l-1.57 0 0 -4.46 1.12 0 0 1.61zm0 1.98l0.34 0c0.2,0 0.35,-0.01 0.44,-0.04 0.09,-0.03 0.17,-0.08 0.24,-0.16 0.07,-0.08 0.1,-0.18 0.1,-0.3 0,-0.38 -0.22,-0.57 -0.66,-0.57l-0.47 0 0 1.07zm3.09 -3.59l1.12 0 0 4.46 -1.12 0 0 -4.46z"/>
  <path id="_29" class="fil0" d="M61.52 14.53l-3.59 0c0.05,0.32 0.19,0.57 0.41,0.76 0.22,0.19 0.51,0.28 0.86,0.28 0.42,0 0.77,-0.15 1.07,-0.44l0.94 0.44c-0.23,0.33 -0.51,0.58 -0.84,0.74 -0.33,0.16 -0.71,0.24 -1.16,0.24 -0.7,0 -1.26,-0.22 -1.7,-0.66 -0.44,-0.44 -0.66,-0.99 -0.66,-1.65 0,-0.68 0.22,-1.24 0.66,-1.69 0.44,-0.45 0.99,-0.67 1.65,-0.67 0.7,0 1.27,0.22 1.71,0.67 0.44,0.45 0.66,1.04 0.66,1.77l-0 0.21zm-1.11 -0.87c-0.07,-0.24 -0.22,-0.44 -0.44,-0.59 -0.22,-0.15 -0.47,-0.23 -0.76,-0.23 -0.31,0 -0.58,0.09 -0.82,0.26 -0.15,0.11 -0.28,0.3 -0.41,0.56l2.42 0z"/>
  <polygon id="_30" class="fil0" points="65.9,16.45 64.78,16.45 64.78,11.99 68.69,11.99 68.69,16.45 67.57,16.45 67.57,13.07 65.9,13.07 "/>
  <path id="_31" class="fil0" d="M74.28 14.53l-3.59 0c0.05,0.32 0.19,0.57 0.41,0.76 0.22,0.19 0.51,0.28 0.86,0.28 0.42,0 0.77,-0.15 1.07,-0.44l0.94 0.44c-0.23,0.33 -0.51,0.58 -0.84,0.74 -0.33,0.16 -0.71,0.24 -1.16,0.24 -0.7,0 -1.26,-0.22 -1.7,-0.66 -0.44,-0.44 -0.66,-0.99 -0.66,-1.65 0,-0.68 0.22,-1.24 0.66,-1.69 0.44,-0.45 0.99,-0.67 1.65,-0.67 0.7,0 1.27,0.22 1.71,0.67 0.44,0.45 0.66,1.04 0.66,1.77l-0 0.21zm-1.11 -0.87c-0.07,-0.24 -0.22,-0.44 -0.44,-0.59 -0.22,-0.15 -0.47,-0.23 -0.76,-0.23 -0.31,0 -0.58,0.09 -0.82,0.26 -0.15,0.11 -0.28,0.3 -0.41,0.56l2.42 0z"/>
  <path id="_32" class="fil0" d="M76.3 11.99l0 0.49c0.2,-0.2 0.42,-0.35 0.65,-0.45 0.23,-0.1 0.49,-0.15 0.75,-0.15 0.58,0 1.07,0.22 1.48,0.66 0.41,0.44 0.61,1 0.61,1.69 0,0.66 -0.21,1.22 -0.63,1.66 -0.42,0.45 -0.92,0.67 -1.49,0.67 -0.26,0 -0.5,-0.05 -0.72,-0.14 -0.22,-0.09 -0.44,-0.24 -0.66,-0.45l0 2.1 -1.12 0 0 -6.08 1.12 0zm1.17 0.91c-0.35,0 -0.64,0.12 -0.87,0.36 -0.23,0.24 -0.35,0.55 -0.35,0.94 0,0.4 0.12,0.72 0.35,0.96 0.23,0.24 0.52,0.37 0.87,0.37 0.34,0 0.63,-0.12 0.86,-0.37 0.23,-0.25 0.35,-0.56 0.35,-0.95 0,-0.38 -0.11,-0.7 -0.34,-0.94 -0.23,-0.24 -0.52,-0.37 -0.87,-0.37z"/>
  <path id="_33" class="fil0" d="M85.19 14.53l-3.59 0c0.05,0.32 0.19,0.57 0.41,0.76 0.22,0.19 0.51,0.28 0.86,0.28 0.42,0 0.77,-0.15 1.07,-0.44l0.94 0.44c-0.23,0.33 -0.51,0.58 -0.84,0.74 -0.33,0.16 -0.71,0.24 -1.16,0.24 -0.7,0 -1.26,-0.22 -1.7,-0.66 -0.44,-0.44 -0.66,-0.99 -0.66,-1.65 0,-0.68 0.22,-1.24 0.66,-1.69 0.44,-0.45 0.99,-0.67 1.65,-0.67 0.7,0 1.27,0.22 1.71,0.67 0.44,0.45 0.66,1.04 0.66,1.77l-0 0.21zm-1.11 -0.87c-0.07,-0.24 -0.22,-0.44 -0.44,-0.59 -0.22,-0.15 -0.47,-0.23 -0.76,-0.23 -0.31,0 -0.58,0.09 -0.82,0.26 -0.15,0.11 -0.28,0.3 -0.41,0.56l2.42 0z"/>
  <path id="_34" class="fil0" d="M86.1 16.45l0 -4.46 1.79 0c0.59,0 0.99,0.12 1.2,0.35 0.21,0.23 0.32,0.49 0.32,0.78 0,0.43 -0.22,0.75 -0.65,0.94 0.59,0.2 0.88,0.58 0.88,1.14 0,0.3 -0.08,0.55 -0.23,0.75 -0.16,0.2 -0.35,0.33 -0.59,0.4 -0.24,0.07 -0.57,0.1 -1,0.1l-1.71 0zm1.12 -2.7l0.43 0c0.19,0 0.33,-0.05 0.43,-0.14 0.1,-0.09 0.15,-0.19 0.15,-0.3 0,-0.17 -0.05,-0.3 -0.15,-0.39 -0.1,-0.09 -0.21,-0.14 -0.34,-0.14l-0.14 0 -0.38 0 0 0.96zm0 1.84l0.57 0c0.22,0 0.38,-0.05 0.47,-0.15 0.09,-0.1 0.13,-0.2 0.13,-0.3 0,-0.14 -0.05,-0.28 -0.15,-0.39 -0.1,-0.12 -0.28,-0.18 -0.54,-0.18l-0.47 0 0 1.02z"/>
  <path id="_35" class="fil0" d="M92.68 11.88c0.42,0 0.82,0.1 1.19,0.31 0.37,0.21 0.66,0.49 0.87,0.85 0.21,0.36 0.31,0.75 0.31,1.16 0,0.42 -0.1,0.81 -0.31,1.18 -0.21,0.36 -0.5,0.65 -0.86,0.86 -0.36,0.21 -0.76,0.31 -1.19,0.31 -0.64,0 -1.19,-0.23 -1.64,-0.68 -0.45,-0.45 -0.68,-1.01 -0.68,-1.65 0,-0.7 0.26,-1.27 0.77,-1.74 0.45,-0.4 0.96,-0.6 1.55,-0.6zm0.02 1.05c-0.35,0 -0.64,0.12 -0.87,0.36 -0.23,0.24 -0.35,0.55 -0.35,0.93 0,0.39 0.11,0.7 0.34,0.94 0.23,0.24 0.52,0.36 0.87,0.36 0.35,0 0.64,-0.12 0.87,-0.36 0.23,-0.24 0.35,-0.55 0.35,-0.93 0,-0.38 -0.11,-0.69 -0.34,-0.93 -0.23,-0.24 -0.52,-0.36 -0.88,-0.36z"/>
  <path id="_36" class="fil0" d="M96.54 16.45l0 0.77 -1 0 0 -1.72 0.67 0 1.55 -3.51 0.72 0 1.55 3.51 0.69 0 0 1.72 -1.07 0 0 -0.77 -3.11 0zm2.3 -0.95l-0.73 -1.88 -0.77 1.88 1.5 0z"/>
  <path id="_37" class="fil0" d="M102.54 13.6l0.33 0c0.47,0 0.83,0.04 1.08,0.11 0.25,0.07 0.46,0.22 0.64,0.45 0.17,0.23 0.26,0.52 0.26,0.86 0,0.34 -0.08,0.63 -0.23,0.86 -0.16,0.23 -0.36,0.38 -0.6,0.45 -0.24,0.07 -0.58,0.11 -1.02,0.11l-1.57 0 0 -4.46 1.12 0 0 1.61zm0 1.98l0.34 0c0.2,0 0.35,-0.01 0.44,-0.04 0.09,-0.03 0.17,-0.08 0.24,-0.16 0.07,-0.08 0.1,-0.18 0.1,-0.3 0,-0.38 -0.22,-0.57 -0.66,-0.57l-0.47 0 0 1.07zm3.09 -3.59l1.12 0 0 4.46 -1.12 0 0 -4.46z"/>
 </g>
</svg>
