<?xml version="1.0" encoding="UTF-8"?>
<!DOCTYPE svg PUBLIC "-//W3C//DTD SVG 1.1//EN" "http://www.w3.org/Graphics/SVG/1.1/DTD/svg11.dtd">
<!-- Creator: CorelDRAW -->
<svg xmlns="http://www.w3.org/2000/svg" xml:space="preserve" width="63.7944mm" height="6.5758mm" version="1.1" style="shape-rendering:geometricPrecision; text-rendering:geometricPrecision; image-rendering:optimizeQuality; fill-rule:evenodd; clip-rule:evenodd"
viewBox="0 0 53.54 5.52"
 xmlns:xlink="http://www.w3.org/1999/xlink"
 xmlns:xodm="http://www.corel.com/coreldraw/odm/2003">
 <defs>
  <style type="text/css">
   <![CDATA[
    .fil0 {fill:#C29138;fill-rule:nonzero}
   ]]>
  </style>
 </defs>
 <g id="Слой_x0020_1">
  <metadata id="CorelCorpID_0Corel-Layer"/>
  <path class="fil0" d="M0.62 3.26c0.21,0.3 0.47,0.45 0.75,0.45 0.19,0 0.35,-0.05 0.46,-0.16 0.12,-0.11 0.18,-0.25 0.18,-0.43 0,-0.18 -0.06,-0.32 -0.17,-0.44 -0.12,-0.12 -0.35,-0.17 -0.72,-0.17l-0.17 0 0 -0.72 0.17 0c0.21,0 0.38,-0.05 0.49,-0.15 0.11,-0.1 0.17,-0.23 0.17,-0.4 0,-0.15 -0.05,-0.27 -0.14,-0.36 -0.09,-0.09 -0.21,-0.13 -0.37,-0.13 -0.18,0 -0.37,0.09 -0.56,0.27l-0.48 -0.53c0.26,-0.23 0.47,-0.37 0.64,-0.41 0.17,-0.05 0.33,-0.07 0.47,-0.07 0.35,0 0.64,0.1 0.88,0.3 0.24,0.2 0.35,0.47 0.35,0.82 0,0.15 -0.03,0.3 -0.08,0.44 -0.05,0.15 -0.2,0.3 -0.45,0.46 0.5,0.22 0.75,0.6 0.75,1.14 0,0.4 -0.13,0.71 -0.4,0.95 -0.27,0.24 -0.61,0.36 -1.02,0.36 -0.26,0 -0.5,-0.05 -0.71,-0.14 -0.21,-0.1 -0.44,-0.3 -0.68,-0.62l0.62 -0.45z"/>
  <path id="_1" class="fil0" d="M5.82 1.23l0.79 0 0 3.14 -0.79 0 0 -0.33c-0.15,0.15 -0.31,0.25 -0.46,0.31 -0.15,0.06 -0.32,0.1 -0.5,0.1 -0.41,0 -0.76,-0.16 -1.06,-0.47 -0.3,-0.31 -0.45,-0.7 -0.45,-1.17 0,-0.48 0.14,-0.88 0.43,-1.19 0.29,-0.31 0.64,-0.46 1.05,-0.46 0.19,0 0.37,0.04 0.53,0.11 0.17,0.07 0.32,0.18 0.46,0.32l0 -0.35zm-0.83 0.65c-0.24,0 -0.45,0.09 -0.61,0.26 -0.16,0.17 -0.24,0.39 -0.24,0.66 0,0.27 0.08,0.49 0.25,0.67 0.16,0.17 0.37,0.26 0.61,0.26 0.25,0 0.45,-0.09 0.62,-0.26 0.16,-0.17 0.25,-0.4 0.25,-0.68 0,-0.27 -0.08,-0.49 -0.25,-0.66 -0.16,-0.17 -0.37,-0.25 -0.62,-0.25z"/>
  <polygon id="_2" class="fil0" points="8.19,4.37 7.4,4.37 7.4,1.23 10.16,1.23 10.16,4.37 9.37,4.37 9.37,1.98 8.19,1.98 "/>
  <path id="_3" class="fil0" d="M11.74 1.23l0 0.35c0.14,-0.14 0.3,-0.25 0.46,-0.32 0.17,-0.07 0.34,-0.11 0.53,-0.11 0.41,0 0.76,0.15 1.05,0.46 0.29,0.31 0.43,0.71 0.43,1.19 0,0.47 -0.15,0.86 -0.45,1.17 -0.3,0.31 -0.65,0.47 -1.05,0.47 -0.18,0 -0.35,-0.03 -0.51,-0.1 -0.16,-0.06 -0.31,-0.17 -0.46,-0.32l0 1.49 -0.79 0 0 -4.29 0.79 0zm0.83 0.65c-0.25,0 -0.45,0.08 -0.62,0.25 -0.16,0.17 -0.25,0.39 -0.25,0.66 0,0.28 0.08,0.51 0.25,0.68 0.16,0.17 0.37,0.26 0.62,0.26 0.24,0 0.44,-0.09 0.61,-0.26 0.16,-0.18 0.25,-0.4 0.25,-0.67 0,-0.27 -0.08,-0.49 -0.24,-0.66 -0.16,-0.17 -0.37,-0.26 -0.61,-0.26z"/>
  <path id="_4" class="fil0" d="M18.01 3.02l-2.53 0c0.04,0.22 0.13,0.4 0.29,0.54 0.16,0.13 0.36,0.2 0.6,0.2 0.29,0 0.55,-0.1 0.76,-0.31l0.66 0.31c-0.16,0.23 -0.36,0.41 -0.59,0.52 -0.23,0.11 -0.5,0.17 -0.82,0.17 -0.49,0 -0.89,-0.15 -1.2,-0.47 -0.31,-0.31 -0.46,-0.7 -0.46,-1.17 0,-0.48 0.16,-0.88 0.46,-1.19 0.31,-0.32 0.7,-0.47 1.16,-0.47 0.49,0 0.9,0.16 1.21,0.47 0.31,0.32 0.46,0.73 0.46,1.25l-0 0.15zm-0.78 -0.62c-0.05,-0.17 -0.15,-0.31 -0.31,-0.42 -0.15,-0.11 -0.33,-0.16 -0.53,-0.16 -0.22,0 -0.41,0.06 -0.58,0.18 -0.1,0.07 -0.2,0.21 -0.29,0.4l1.71 0z"/>
  <polygon id="_5" class="fil0" points="18.38,1.23 21.31,1.23 21.31,1.98 20.26,1.98 20.26,4.37 19.47,4.37 19.47,1.98 18.38,1.98 "/>
  <polygon id="_6" class="fil0" points="24.27,2.36 25.45,2.36 25.45,1.23 26.24,1.23 26.24,4.37 25.45,4.37 25.45,3.07 24.27,3.07 24.27,4.37 23.48,4.37 23.48,1.23 24.27,1.23 "/>
  <path id="_7" class="fil0" d="M29.36 1.23l0.79 0 0 3.14 -0.79 0 0 -0.33c-0.15,0.15 -0.31,0.25 -0.46,0.31 -0.15,0.06 -0.32,0.1 -0.5,0.1 -0.41,0 -0.76,-0.16 -1.06,-0.47 -0.3,-0.31 -0.45,-0.7 -0.45,-1.17 0,-0.48 0.14,-0.88 0.43,-1.19 0.29,-0.31 0.64,-0.46 1.05,-0.46 0.19,0 0.37,0.04 0.53,0.11 0.17,0.07 0.32,0.18 0.46,0.32l0 -0.35zm-0.83 0.65c-0.24,0 -0.45,0.09 -0.61,0.26 -0.16,0.17 -0.24,0.39 -0.24,0.66 0,0.27 0.08,0.49 0.25,0.67 0.16,0.17 0.37,0.26 0.61,0.26 0.25,0 0.45,-0.09 0.62,-0.26 0.16,-0.17 0.25,-0.4 0.25,-0.68 0,-0.27 -0.08,-0.49 -0.25,-0.66 -0.16,-0.17 -0.37,-0.25 -0.62,-0.25z"/>
  <polygon id="_8" class="fil0" points="32.6,1.23 33.39,1.23 33.39,2.4 34.48,1.23 35.44,1.23 34.04,2.75 35.46,4.37 34.41,4.37 33.47,3.26 33.39,3.36 33.39,4.37 32.6,4.37 "/>
  <path id="_9" class="fil0" d="M36.57 1.23l0 0.35c0.14,-0.14 0.3,-0.25 0.46,-0.32 0.17,-0.07 0.34,-0.11 0.53,-0.11 0.41,0 0.76,0.15 1.05,0.46 0.29,0.31 0.43,0.71 0.43,1.19 0,0.47 -0.15,0.86 -0.45,1.17 -0.3,0.31 -0.65,0.47 -1.05,0.47 -0.18,0 -0.35,-0.03 -0.51,-0.1 -0.16,-0.06 -0.31,-0.17 -0.46,-0.32l0 1.49 -0.79 0 0 -4.29 0.79 0zm0.83 0.65c-0.25,0 -0.45,0.08 -0.62,0.25 -0.16,0.17 -0.25,0.39 -0.25,0.66 0,0.28 0.08,0.51 0.25,0.68 0.16,0.17 0.37,0.26 0.62,0.26 0.24,0 0.44,-0.09 0.61,-0.26 0.16,-0.18 0.25,-0.4 0.25,-0.67 0,-0.27 -0.08,-0.49 -0.24,-0.66 -0.16,-0.17 -0.37,-0.26 -0.61,-0.26z"/>
  <path id="_10" class="fil0" d="M42.84 3.02l-2.53 0c0.04,0.22 0.13,0.4 0.29,0.54 0.16,0.13 0.36,0.2 0.6,0.2 0.29,0 0.55,-0.1 0.76,-0.31l0.66 0.31c-0.16,0.23 -0.36,0.41 -0.59,0.52 -0.23,0.11 -0.5,0.17 -0.82,0.17 -0.49,0 -0.89,-0.15 -1.2,-0.47 -0.31,-0.31 -0.46,-0.7 -0.46,-1.17 0,-0.48 0.16,-0.88 0.46,-1.19 0.31,-0.32 0.7,-0.47 1.16,-0.47 0.49,0 0.9,0.16 1.21,0.47 0.31,0.32 0.46,0.73 0.46,1.25l-0 0.15zm-0.78 -0.62c-0.05,-0.17 -0.15,-0.31 -0.31,-0.42 -0.15,-0.11 -0.33,-0.16 -0.53,-0.16 -0.22,0 -0.41,0.06 -0.58,0.18 -0.1,0.07 -0.2,0.21 -0.29,0.4l1.71 0z"/>
  <path id="_11" class="fil0" d="M43.89 4.37l0 0.54 -0.7 0 0 -1.21 0.47 0 1.09 -2.48 0.51 0 1.1 2.48 0.48 0 0 1.21 -0.75 0 0 -0.54 -2.2 0zm1.63 -0.67l-0.52 -1.33 -0.54 1.33 1.06 0z"/>
  <polygon id="_12" class="fil0" points="47.75,4.37 47.34,4.37 47.34,1.23 48.11,1.23 48.11,3.07 49.72,1.23 50.09,1.23 50.09,4.37 49.32,4.37 49.32,2.56 "/>
  <polygon id="_13" class="fil0" points="50.61,1.23 53.54,1.23 53.54,1.98 52.49,1.98 52.49,4.37 51.71,4.37 51.71,1.98 50.61,1.98 "/>
 </g>
</svg>
