<?xml version="1.0" encoding="UTF-8"?>
<!DOCTYPE svg PUBLIC "-//W3C//DTD SVG 1.1//EN" "http://www.w3.org/Graphics/SVG/1.1/DTD/svg11.dtd">
<!-- Creator: CorelDRAW -->
<svg xmlns="http://www.w3.org/2000/svg" xml:space="preserve" width="82.6575mm" height="14.9884mm" version="1.1" style="shape-rendering:geometricPrecision; text-rendering:geometricPrecision; image-rendering:optimizeQuality; fill-rule:evenodd; clip-rule:evenodd"
viewBox="0 0 90.52 16.41"
 xmlns:xlink="http://www.w3.org/1999/xlink"
 xmlns:xodm="http://www.corel.com/coreldraw/odm/2003">
 <defs>
  <style type="text/css">
   <![CDATA[
    .fil0 {fill:#C29138;fill-rule:nonzero}
   ]]>
  </style>
 </defs>
 <g id="Слой_x0020_1">
  <metadata id="CorelCorpID_0Corel-Layer"/>
  <path class="fil0" d="M0.57 5.55l0 -5.55 2.91 0 0 1.02 -1.85 0 0 1.07 0.23 0c0.47,0 0.85,0.05 1.15,0.15 0.3,0.1 0.55,0.3 0.75,0.58 0.2,0.29 0.3,0.62 0.3,1.01 0,0.39 -0.07,0.7 -0.22,0.92 -0.15,0.23 -0.35,0.42 -0.61,0.56 -0.26,0.14 -0.62,0.22 -1.08,0.22l-1.56 0zm1.05 -2.51l0 1.51 0.27 0c0.49,0 0.79,-0.06 0.92,-0.19 0.13,-0.12 0.19,-0.29 0.19,-0.51 0,-0.54 -0.39,-0.81 -1.16,-0.81l-0.22 0z"/>
  <path id="_1" class="fil0" d="M7.89 1.44l1.03 0 0 4.1 -1.03 0 0 -0.44c-0.2,0.19 -0.4,0.33 -0.61,0.41 -0.2,0.08 -0.42,0.13 -0.66,0.13 -0.53,0 -0.99,-0.2 -1.38,-0.62 -0.39,-0.41 -0.58,-0.92 -0.58,-1.53 0,-0.63 0.19,-1.15 0.56,-1.55 0.37,-0.4 0.83,-0.61 1.37,-0.61 0.25,0 0.48,0.05 0.69,0.14 0.22,0.09 0.42,0.23 0.6,0.41l0 -0.45zm-1.08 0.84c-0.32,0 -0.58,0.11 -0.79,0.34 -0.21,0.22 -0.32,0.51 -0.32,0.86 0,0.35 0.11,0.65 0.32,0.87 0.21,0.23 0.48,0.34 0.79,0.34 0.32,0 0.59,-0.11 0.8,-0.34 0.21,-0.22 0.32,-0.52 0.32,-0.88 0,-0.36 -0.11,-0.65 -0.32,-0.87 -0.21,-0.22 -0.48,-0.33 -0.81,-0.33z"/>
  <polygon id="_2" class="fil0" points="10.98,2.92 12.53,2.92 12.53,1.44 13.56,1.44 13.56,5.55 12.53,5.55 12.53,3.85 10.98,3.85 10.98,5.55 9.96,5.55 9.96,1.44 10.98,1.44 "/>
  <polygon id="_3" class="fil0" points="14.59,1.44 15.62,1.44 15.62,2.98 17.05,1.44 18.3,1.44 16.47,3.44 18.33,5.55 16.96,5.55 15.73,4.1 15.62,4.23 15.62,5.55 14.59,5.55 "/>
  <polygon id="_4" class="fil0" points="19.29,5.55 18.74,5.55 18.74,1.44 19.75,1.44 19.75,3.85 21.85,1.44 22.34,1.44 22.34,5.55 21.34,5.55 21.34,3.19 "/>
  <polygon id="_5" class="fil0" points="26.57,5.55 25.54,5.55 25.54,1.44 29.14,1.44 29.14,5.55 28.12,5.55 28.12,2.43 26.57,2.43 "/>
  <path id="_6" class="fil0" d="M34.29 3.79l-3.3 0c0.05,0.29 0.18,0.53 0.38,0.7 0.21,0.17 0.47,0.26 0.79,0.26 0.38,0 0.71,-0.14 0.99,-0.41l0.86 0.41c-0.21,0.31 -0.47,0.53 -0.77,0.68 -0.3,0.15 -0.66,0.22 -1.07,0.22 -0.64,0 -1.16,-0.2 -1.57,-0.61 -0.4,-0.4 -0.61,-0.91 -0.61,-1.52 0,-0.62 0.2,-1.14 0.61,-1.56 0.4,-0.41 0.91,-0.62 1.52,-0.62 0.65,0 1.17,0.21 1.57,0.62 0.4,0.41 0.61,0.95 0.61,1.63l-0 0.19zm-1.02 -0.8c-0.07,-0.22 -0.2,-0.41 -0.4,-0.55 -0.2,-0.14 -0.43,-0.21 -0.7,-0.21 -0.29,0 -0.54,0.08 -0.76,0.24 -0.14,0.1 -0.26,0.27 -0.38,0.52l2.23 0z"/>
  <path id="_7" class="fil0" d="M36.16 1.44l0 0.45c0.19,-0.18 0.39,-0.32 0.6,-0.41 0.22,-0.09 0.45,-0.14 0.69,-0.14 0.53,0 0.99,0.2 1.36,0.61 0.37,0.4 0.56,0.92 0.56,1.55 0,0.61 -0.19,1.12 -0.58,1.53 -0.39,0.41 -0.84,0.62 -1.38,0.62 -0.24,0 -0.46,-0.04 -0.66,-0.13 -0.2,-0.08 -0.41,-0.22 -0.61,-0.41l0 1.94 -1.03 0 0 -5.6 1.03 0zm1.08 0.84c-0.32,0 -0.59,0.11 -0.8,0.33 -0.21,0.22 -0.32,0.51 -0.32,0.87 0,0.36 0.11,0.66 0.32,0.88 0.21,0.23 0.48,0.34 0.8,0.34 0.31,0 0.58,-0.11 0.79,-0.34 0.22,-0.23 0.32,-0.52 0.32,-0.87 0,-0.35 -0.11,-0.64 -0.32,-0.86 -0.21,-0.23 -0.48,-0.34 -0.8,-0.34z"/>
  <path id="_8" class="fil0" d="M44.34 3.79l-3.3 0c0.05,0.29 0.18,0.53 0.38,0.7 0.21,0.17 0.47,0.26 0.79,0.26 0.38,0 0.71,-0.14 0.99,-0.41l0.86 0.41c-0.21,0.31 -0.47,0.53 -0.77,0.68 -0.3,0.15 -0.66,0.22 -1.07,0.22 -0.64,0 -1.16,-0.2 -1.57,-0.61 -0.4,-0.4 -0.61,-0.91 -0.61,-1.52 0,-0.62 0.2,-1.14 0.61,-1.56 0.4,-0.41 0.91,-0.62 1.52,-0.62 0.65,0 1.17,0.21 1.57,0.62 0.4,0.41 0.61,0.95 0.61,1.63l-0 0.19zm-1.02 -0.8c-0.07,-0.22 -0.2,-0.41 -0.4,-0.55 -0.2,-0.14 -0.43,-0.21 -0.7,-0.21 -0.29,0 -0.54,0.08 -0.76,0.24 -0.14,0.1 -0.26,0.27 -0.38,0.52l2.23 0z"/>
  <path id="_9" class="fil0" d="M49.19 2.28l-0.86 0.47c-0.16,-0.17 -0.32,-0.28 -0.48,-0.35 -0.16,-0.07 -0.34,-0.1 -0.55,-0.1 -0.39,0 -0.7,0.11 -0.93,0.34 -0.24,0.23 -0.36,0.52 -0.36,0.88 0,0.35 0.11,0.63 0.34,0.85 0.23,0.22 0.53,0.33 0.9,0.33 0.46,0 0.82,-0.16 1.08,-0.47l0.81 0.56c-0.44,0.57 -1.06,0.86 -1.86,0.86 -0.72,0 -1.29,-0.21 -1.7,-0.64 -0.41,-0.43 -0.61,-0.92 -0.61,-1.5 0,-0.4 0.1,-0.76 0.3,-1.09 0.2,-0.33 0.48,-0.6 0.83,-0.79 0.36,-0.19 0.75,-0.29 1.19,-0.29 0.41,0 0.77,0.08 1.1,0.24 0.32,0.16 0.59,0.39 0.8,0.69z"/>
  <polygon id="_10" class="fil0" points="49.76,1.44 53.58,1.44 53.58,2.43 52.22,2.43 52.22,5.55 51.19,5.55 51.19,2.43 49.76,2.43 "/>
  <path id="_11" class="fil0" d="M57.29 1.44l1.03 0 0 4.1 -1.03 0 0 -0.44c-0.2,0.19 -0.4,0.33 -0.61,0.41 -0.2,0.08 -0.42,0.13 -0.66,0.13 -0.53,0 -0.99,-0.2 -1.38,-0.62 -0.39,-0.41 -0.58,-0.92 -0.58,-1.53 0,-0.63 0.19,-1.15 0.56,-1.55 0.37,-0.4 0.83,-0.61 1.37,-0.61 0.25,0 0.48,0.05 0.69,0.14 0.22,0.09 0.42,0.23 0.6,0.41l0 -0.45zm-1.08 0.84c-0.32,0 -0.58,0.11 -0.79,0.34 -0.21,0.22 -0.32,0.51 -0.32,0.86 0,0.35 0.11,0.65 0.32,0.87 0.21,0.23 0.48,0.34 0.79,0.34 0.32,0 0.59,-0.11 0.8,-0.34 0.21,-0.22 0.32,-0.52 0.32,-0.88 0,-0.36 -0.11,-0.65 -0.32,-0.87 -0.21,-0.22 -0.48,-0.33 -0.81,-0.33z"/>
  <polygon id="_12" class="fil0" points="60.39,2.92 61.93,2.92 61.93,1.44 62.96,1.44 62.96,5.55 61.93,5.55 61.93,3.85 60.39,3.85 60.39,5.55 59.36,5.55 59.36,1.44 60.39,1.44 "/>
  <polygon id="_13" class="fil0" points="63.54,1.44 64.59,1.44 65.66,4.01 66.83,1.44 67.89,1.44 65.32,7.05 64.27,7.05 65.1,5.25 "/>
  <polygon id="_14" class="fil0" points="68.11,1.44 71.94,1.44 71.94,2.43 70.57,2.43 70.57,5.55 69.54,5.55 69.54,2.43 68.11,2.43 "/>
  <polygon id="_15" class="fil0" points="-0,10.81 1.06,10.81 2.12,13.38 3.3,10.81 4.35,10.81 1.78,16.41 0.73,16.41 1.56,14.61 "/>
  <path id="_16" class="fil0" d="M5.47 14.92l0 0.71 -0.92 0 0 -1.58 0.62 0 1.42 -3.23 0.66 0 1.43 3.23 0.63 0 0 1.58 -0.98 0 0 -0.71 -2.87 0zm2.12 -0.87l-0.67 -1.73 -0.71 1.73 1.38 0z"/>
  <path id="_17" class="fil0" d="M14.08 13.15l-3.3 0c0.05,0.29 0.18,0.53 0.38,0.7 0.21,0.17 0.47,0.26 0.79,0.26 0.38,0 0.71,-0.14 0.99,-0.41l0.86 0.41c-0.21,0.31 -0.47,0.53 -0.77,0.68 -0.3,0.15 -0.66,0.22 -1.07,0.22 -0.64,0 -1.16,-0.2 -1.57,-0.61 -0.4,-0.4 -0.61,-0.91 -0.61,-1.52 0,-0.62 0.2,-1.14 0.61,-1.56 0.4,-0.41 0.91,-0.62 1.52,-0.62 0.65,0 1.17,0.21 1.57,0.62 0.4,0.41 0.61,0.95 0.61,1.63l-0 0.19zm-1.02 -0.8c-0.07,-0.22 -0.2,-0.41 -0.4,-0.55 -0.2,-0.14 -0.43,-0.21 -0.7,-0.21 -0.29,0 -0.54,0.08 -0.76,0.24 -0.14,0.1 -0.26,0.27 -0.38,0.52l2.23 0z"/>
  <path id="_18" class="fil0" d="M15.94 10.81l0 0.45c0.19,-0.18 0.39,-0.32 0.6,-0.41 0.22,-0.09 0.45,-0.14 0.69,-0.14 0.53,0 0.99,0.2 1.36,0.61 0.37,0.4 0.56,0.92 0.56,1.55 0,0.61 -0.19,1.12 -0.58,1.53 -0.39,0.41 -0.84,0.62 -1.38,0.62 -0.24,0 -0.46,-0.04 -0.66,-0.13 -0.2,-0.08 -0.41,-0.22 -0.61,-0.41l0 1.94 -1.03 0 0 -5.6 1.03 0zm1.08 0.84c-0.32,0 -0.59,0.11 -0.8,0.33 -0.21,0.22 -0.32,0.51 -0.32,0.87 0,0.36 0.11,0.66 0.32,0.88 0.21,0.23 0.48,0.34 0.8,0.34 0.31,0 0.58,-0.11 0.79,-0.34 0.22,-0.23 0.32,-0.52 0.32,-0.87 0,-0.35 -0.11,-0.64 -0.32,-0.86 -0.21,-0.23 -0.48,-0.34 -0.8,-0.34z"/>
  <polygon id="_19" class="fil0" points="22.1,13.6 21.98,13.48 20.76,14.92 19.4,14.92 21.25,12.81 19.42,10.81 20.67,10.81 22.1,12.35 22.1,10.81 23.12,10.81 23.12,12.35 24.55,10.81 25.81,10.81 23.97,12.81 25.83,14.92 24.46,14.92 23.23,13.47 23.12,13.6 23.12,14.92 22.1,14.92 "/>
  <polygon id="_20" class="fil0" points="26.79,14.92 26.25,14.92 26.25,10.81 27.25,10.81 27.25,13.22 29.35,10.81 29.85,10.81 29.85,14.92 28.84,14.92 28.84,12.56 "/>
  <path id="_21" class="fil0" d="M30.88 14.92l0 -4.1 1.65 0c0.54,0 0.91,0.11 1.1,0.32 0.19,0.21 0.29,0.45 0.29,0.72 0,0.4 -0.2,0.69 -0.59,0.86 0.54,0.19 0.81,0.54 0.81,1.05 0,0.28 -0.07,0.51 -0.22,0.69 -0.14,0.18 -0.33,0.3 -0.55,0.36 -0.22,0.06 -0.53,0.09 -0.92,0.09l-1.58 0zm1.03 -2.49l0.4 0c0.17,0 0.3,-0.04 0.4,-0.13 0.09,-0.08 0.14,-0.18 0.14,-0.28 0,-0.15 -0.05,-0.27 -0.13,-0.36 -0.09,-0.08 -0.19,-0.13 -0.32,-0.13l-0.13 0 -0.35 0 0 0.89zm0 1.69l0.52 0c0.2,0 0.35,-0.05 0.43,-0.14 0.08,-0.09 0.12,-0.19 0.12,-0.27 0,-0.13 -0.05,-0.25 -0.14,-0.36 -0.09,-0.11 -0.26,-0.16 -0.5,-0.16l-0.43 0 0 0.94z"/>
  <path id="_22" class="fil0" d="M38.06 10.81l1.03 0 0 4.1 -1.03 0 0 -0.44c-0.2,0.19 -0.4,0.33 -0.61,0.41 -0.2,0.08 -0.42,0.13 -0.66,0.13 -0.53,0 -0.99,-0.2 -1.38,-0.62 -0.39,-0.41 -0.58,-0.92 -0.58,-1.53 0,-0.63 0.19,-1.15 0.56,-1.55 0.37,-0.4 0.83,-0.61 1.37,-0.61 0.25,0 0.48,0.05 0.69,0.14 0.22,0.09 0.42,0.23 0.6,0.41l0 -0.45zm-1.08 0.84c-0.32,0 -0.58,0.11 -0.79,0.34 -0.21,0.22 -0.32,0.51 -0.32,0.86 0,0.35 0.11,0.65 0.32,0.87 0.21,0.23 0.48,0.34 0.79,0.34 0.32,0 0.59,-0.11 0.8,-0.34 0.21,-0.22 0.32,-0.52 0.32,-0.88 0,-0.36 -0.11,-0.65 -0.32,-0.87 -0.21,-0.22 -0.48,-0.33 -0.81,-0.33z"/>
  <polygon id="_23" class="fil0" points="39.76,10.81 43.58,10.81 43.58,11.79 42.21,11.79 42.21,14.92 41.19,14.92 41.19,11.79 39.76,11.79 "/>
  <path id="_24" class="fil0" d="M45.28 12.3l0.31 0c0.43,0 0.76,0.03 0.99,0.1 0.23,0.07 0.43,0.21 0.59,0.42 0.16,0.21 0.24,0.48 0.24,0.79 0,0.32 -0.07,0.58 -0.22,0.79 -0.14,0.21 -0.33,0.35 -0.55,0.42 -0.22,0.07 -0.53,0.1 -0.94,0.1l-1.45 0 0 -4.1 1.03 0 0 1.48zm0 1.82l0.31 0c0.19,0 0.32,-0.01 0.41,-0.04 0.08,-0.03 0.16,-0.08 0.22,-0.15 0.06,-0.08 0.1,-0.17 0.1,-0.27 0,-0.35 -0.2,-0.52 -0.61,-0.52l-0.43 0 0 0.99z"/>
  <polygon id="_25" class="fil0" points="50.36,10.81 51.39,10.81 51.39,12.35 52.81,10.81 54.07,10.81 52.23,12.81 54.09,14.92 52.72,14.92 51.5,13.47 51.39,13.6 51.39,14.92 50.36,14.92 "/>
  <path id="_26" class="fil0" d="M56.44 10.71c0.39,0 0.75,0.1 1.09,0.29 0.34,0.19 0.61,0.45 0.8,0.79 0.19,0.33 0.29,0.69 0.29,1.07 0,0.39 -0.1,0.75 -0.29,1.08 -0.19,0.34 -0.46,0.6 -0.79,0.79 -0.33,0.19 -0.7,0.28 -1.1,0.28 -0.59,0 -1.09,-0.21 -1.51,-0.63 -0.42,-0.42 -0.63,-0.93 -0.63,-1.52 0,-0.64 0.24,-1.17 0.71,-1.6 0.41,-0.37 0.89,-0.56 1.42,-0.56zm0.02 0.97c-0.32,0 -0.59,0.11 -0.8,0.33 -0.21,0.22 -0.32,0.51 -0.32,0.85 0,0.36 0.11,0.64 0.32,0.86 0.21,0.22 0.48,0.33 0.8,0.33 0.32,0 0.59,-0.11 0.8,-0.33 0.21,-0.22 0.32,-0.51 0.32,-0.86 0,-0.35 -0.11,-0.64 -0.32,-0.86 -0.21,-0.22 -0.48,-0.33 -0.81,-0.33z"/>
  <polygon id="_27" class="fil0" points="61.97,13.4 63.24,10.81 63.92,10.81 64.94,14.92 63.93,14.92 63.38,12.51 62.16,14.92 61.74,14.92 60.54,12.51 59.99,14.92 58.98,14.92 60.01,10.81 60.69,10.81 "/>
  <polygon id="_28" class="fil0" points="66.05,14.92 65.51,14.92 65.51,10.81 66.51,10.81 66.51,13.22 68.61,10.81 69.11,10.81 69.11,14.92 68.1,14.92 68.1,12.56 "/>
  <path id="_29" class="fil0" d="M74.16 11.65l-0.86 0.47c-0.16,-0.17 -0.32,-0.28 -0.48,-0.35 -0.16,-0.07 -0.34,-0.1 -0.55,-0.1 -0.39,0 -0.7,0.11 -0.93,0.34 -0.24,0.23 -0.36,0.52 -0.36,0.88 0,0.35 0.11,0.63 0.34,0.85 0.23,0.22 0.53,0.33 0.9,0.33 0.46,0 0.82,-0.16 1.08,-0.47l0.81 0.56c-0.44,0.57 -1.06,0.86 -1.86,0.86 -0.72,0 -1.29,-0.21 -1.7,-0.64 -0.41,-0.43 -0.61,-0.92 -0.61,-1.5 0,-0.4 0.1,-0.76 0.3,-1.09 0.2,-0.33 0.48,-0.6 0.83,-0.79 0.36,-0.19 0.75,-0.29 1.19,-0.29 0.41,0 0.77,0.08 1.1,0.24 0.32,0.16 0.59,0.39 0.8,0.69z"/>
  <path id="_30" class="fil0" d="M79.11 11.65l-0.86 0.47c-0.16,-0.17 -0.32,-0.28 -0.48,-0.35 -0.16,-0.07 -0.34,-0.1 -0.55,-0.1 -0.39,0 -0.7,0.11 -0.93,0.34 -0.24,0.23 -0.36,0.52 -0.36,0.88 0,0.35 0.11,0.63 0.34,0.85 0.23,0.22 0.53,0.33 0.9,0.33 0.46,0 0.82,-0.16 1.08,-0.47l0.81 0.56c-0.44,0.57 -1.06,0.86 -1.86,0.86 -0.72,0 -1.29,-0.21 -1.7,-0.64 -0.41,-0.43 -0.61,-0.92 -0.61,-1.5 0,-0.4 0.1,-0.76 0.3,-1.09 0.2,-0.33 0.48,-0.6 0.83,-0.79 0.36,-0.19 0.75,-0.29 1.19,-0.29 0.41,0 0.77,0.08 1.1,0.24 0.32,0.16 0.59,0.39 0.8,0.69z"/>
  <polygon id="_31" class="fil0" points="80.59,14.92 80.04,14.92 80.04,10.81 81.04,10.81 81.04,13.22 83.14,10.81 83.64,10.81 83.64,14.92 82.63,14.92 82.63,12.56 "/>
  <path id="_32" class="fil0" d="M85.7 14.92l-1.03 0 0 -4.1 1.03 0 0 1.62 0.55 0c0.13,-0.54 0.39,-0.96 0.79,-1.27 0.4,-0.31 0.84,-0.46 1.3,-0.46 0.6,0 1.12,0.21 1.54,0.62 0.43,0.42 0.64,0.92 0.64,1.53 0,0.59 -0.21,1.1 -0.62,1.52 -0.41,0.42 -0.93,0.64 -1.55,0.64 -0.5,0 -0.94,-0.16 -1.34,-0.47 -0.4,-0.31 -0.65,-0.7 -0.76,-1.17l-0.55 0 0 1.54zm3.78 -2.06c0,-0.35 -0.11,-0.63 -0.32,-0.85 -0.21,-0.22 -0.48,-0.33 -0.81,-0.33 -0.32,0 -0.59,0.11 -0.8,0.34 -0.21,0.23 -0.32,0.51 -0.32,0.84 0,0.36 0.11,0.65 0.32,0.87 0.21,0.22 0.48,0.33 0.8,0.33 0.32,0 0.58,-0.11 0.8,-0.33 0.22,-0.22 0.32,-0.51 0.32,-0.86z"/>
 </g>
</svg>
