<?xml version="1.0" encoding="UTF-8" standalone="no"?>
<!-- Created with Inkscape (http://www.inkscape.org/) -->

<svg
   xmlns:dc="http://purl.org/dc/elements/1.1/"
   xmlns:cc="http://creativecommons.org/ns#"
   xmlns:rdf="http://www.w3.org/1999/02/22-rdf-syntax-ns#"
   xmlns:svg="http://www.w3.org/2000/svg"
   xmlns="http://www.w3.org/2000/svg"
   xmlns:sodipodi="http://sodipodi.sourceforge.net/DTD/sodipodi-0.dtd"
   xmlns:inkscape="http://www.inkscape.org/namespaces/inkscape"
   width="30pc"
   height="5pc"
   viewBox="0 0 127.00008 21.16667"
   version="1.1"
   id="svg8"
   inkscape:version="0.92.2 (5c3e80d, 2017-08-06)"
   sodipodi:docname="3strText.svg">
  <defs
     id="defs2">
    <clipPath
       clipPathUnits="userSpaceOnUse"
       id="clipPath7909">
      <g
         id="use7911"
         inkscape:label="Clip">
        <text
           xml:space="preserve"
           style="font-style:normal;font-weight:normal;font-size:10.58333302px;line-height:1.25;font-family:sans-serif;letter-spacing:0px;word-spacing:0px;fill:#ffffff;fill-opacity:1;stroke:none;stroke-width:0.26458332"
           x="82.876579"
           y="384.59238"
           id="text4871"><tspan
             sodipodi:role="line"
             id="tspan4869"
             x="82.876579"
             y="384.59238"
             style="font-style:normal;font-variant:normal;font-weight:normal;font-stretch:normal;font-size:3.52777767px;font-family:EuropeDemi;-inkscape-font-specification:EuropeDemi;fill:#ffffff;stroke-width:0.26458332"><tspan
               style="font-size:2.82222223px"
               id="tspan4867">ГЛАЗОВСКАЯ РАЙОННАЯ БИБЛИОТЕКА</tspan></tspan></text>
      </g>
    </clipPath>
  </defs>
  <sodipodi:namedview
     id="base"
     pagecolor="#ffffff"
     bordercolor="#666666"
     borderopacity="1.0"
     inkscape:pageopacity="0.0"
     inkscape:pageshadow="2"
     inkscape:zoom="1.154038"
     inkscape:cx="214.03814"
     inkscape:cy="-1.6027426"
     inkscape:document-units="mm"
     inkscape:current-layer="layer1"
     showgrid="false"
     inkscape:lockguides="false"
     showguides="false"
     units="pc"
     inkscape:window-width="1280"
     inkscape:window-height="972"
     inkscape:window-x="-8"
     inkscape:window-y="-8"
     inkscape:window-maximized="1"
     showborder="true"
     inkscape:pagecheckerboard="true" />
  <metadata
     id="metadata5">
    <rdf:RDF>
      <cc:Work
         rdf:about="">
        <dc:format>image/svg+xml</dc:format>
        <dc:type
           rdf:resource="http://purl.org/dc/dcmitype/StillImage" />
        <dc:title></dc:title>
      </cc:Work>
    </rdf:RDF>
  </metadata>
  <g
     inkscape:label="Layer 1"
     inkscape:groupmode="layer"
     id="layer1"
     transform="translate(0,-275.83326)">
    <g
       aria-label="пенсий"
       style="font-style:normal;font-weight:normal;font-size:47.20985794px;line-height:1.25;font-family:sans-serif;letter-spacing:0px;word-spacing:0px;fill:#ff9400;fill-opacity:1;fill-rule:nonzero;stroke:none;stroke-width:1.18024635"
       id="text4840">
      <path
         d="M 2.8756318,294.03268 H 1.5540932 v -5.24757 h 4.6012696 v 5.24757 H 4.8338242 V 290.0536 H 2.8756318 Z"
         style="font-style:normal;font-variant:normal;font-weight:bold;font-stretch:normal;font-size:9.87777805px;line-height:0.25;font-family:'Century Gothic';-inkscape-font-specification:'Century Gothic Bold';fill:#ff9400;fill-opacity:1;fill-rule:nonzero;stroke-width:1.18024635"
         id="path1267" />
      <path
         d="M 12.73894,291.78993 H 8.509052 q 0.091639,0.55948 0.4871365,0.89228 0.4003201,0.32797 1.0176815,0.32797 0.737939,0 1.268484,-0.51608 l 1.109321,0.5209 q -0.41479,0.58843 -0.993566,0.87299 -0.578776,0.27974 -1.374593,0.27974 -1.2347223,0 -2.0112468,-0.77652 -0.7765245,-0.78135 -0.7765245,-1.95337 0,-1.20096 0.7717014,-1.99196 0.7765245,-0.79581 1.9437229,-0.79581 1.239545,0 2.01607,0.79581 0.776524,0.791 0.776524,2.09324 z m -1.321538,-1.03698 q -0.130225,-0.4389 -0.516076,-0.71382 -0.381027,-0.27492 -0.887456,-0.27492 -0.5498375,0 -0.964627,0.30868 -0.2604493,0.19293 -0.4823134,0.68006 z"
         style="font-style:normal;font-variant:normal;font-weight:bold;font-stretch:normal;font-size:9.87777805px;line-height:0.25;font-family:'Century Gothic';-inkscape-font-specification:'Century Gothic Bold';fill:#ff9400;fill-opacity:1;fill-rule:nonzero;stroke-width:1.18024635"
         id="path1269" />
      <path
         d="m 15.126391,290.67578 h 1.958192 v -1.89067 h 1.321539 v 5.24757 h -1.321539 v -2.17523 h -1.958192 v 2.17523 h -1.321539 v -5.24757 h 1.321539 z"
         style="font-style:normal;font-variant:normal;font-weight:bold;font-stretch:normal;font-size:9.87777805px;line-height:0.25;font-family:'Century Gothic';-inkscape-font-specification:'Century Gothic Bold';fill:#ff9400;fill-opacity:1;fill-rule:nonzero;stroke-width:1.18024635"
         id="path1271" />
      <path
         d="m 24.869123,289.8462 -1.094852,0.6029 q -0.30868,-0.32315 -0.612538,-0.44856 -0.299034,-0.1254 -0.704177,-0.1254 -0.73794,0 -1.196138,0.44373 -0.453374,0.43891 -0.453374,1.12861 0,0.67042 0.438905,1.09486 0.438905,0.42443 1.152729,0.42443 0.882634,0 1.374593,-0.60289 l 1.036974,0.709 q -0.844048,1.09485 -2.382628,1.09485 -1.38424,0 -2.17041,-0.81993 -0.781348,-0.81993 -0.781348,-1.91961 0,-0.76205 0.381028,-1.40353 0.381027,-0.64148 1.061089,-1.00803 0.684885,-0.36656 1.528933,-0.36656 0.781348,0 1.403532,0.3135 0.622185,0.30868 1.017682,0.88263 z"
         style="font-style:normal;font-variant:normal;font-weight:bold;font-stretch:normal;font-size:9.87777805px;line-height:0.25;font-family:'Century Gothic';-inkscape-font-specification:'Century Gothic Bold';fill:#ff9400;fill-opacity:1;fill-rule:nonzero;stroke-width:1.18024635"
         id="path1273" />
      <path
         d="m 26.754966,294.03268 h -0.699355 v -5.24757 h 1.282954 v 3.08199 l 2.686486,-3.08199 h 0.63183 v 5.24757 h -1.282954 v -3.01928 z"
         style="font-style:normal;font-variant:normal;font-weight:bold;font-stretch:normal;font-size:9.87777805px;line-height:0.25;font-family:'Century Gothic';-inkscape-font-specification:'Century Gothic Bold';fill:#ff9400;fill-opacity:1;fill-rule:nonzero;stroke-width:1.18024635"
         id="path1275" />
      <path
         d="m 32.677775,294.03268 h -0.699354 v -5.24757 h 1.282954 v 3.08199 l 2.686485,-3.08199 h 0.631831 v 5.24757 h -1.282954 v -3.01928 z m -0.313503,-7.56267 h 1.065912 q 0.125402,0.19775 0.347266,0.29903 0.226687,0.0965 0.549837,0.0965 0.327973,0 0.593246,-0.11576 0.173632,-0.0772 0.303857,-0.27974 h 1.065913 q -0.09164,0.61254 -0.588423,0.98392 -0.491959,0.37138 -1.379416,0.37138 -0.598069,0 -1.003212,-0.16399 -0.40032,-0.16881 -0.6463,-0.47749 -0.24598,-0.30868 -0.30868,-0.71382 z"
         style="font-style:normal;font-variant:normal;font-weight:bold;font-stretch:normal;font-size:9.87777805px;line-height:0.25;font-family:'Century Gothic';-inkscape-font-specification:'Century Gothic Bold';fill:#ff9400;fill-opacity:1;fill-rule:nonzero;stroke-width:1.18024635"
         id="path1277" />
    </g>
    <g
       aria-label="Индексация социальных"
       style="font-style:normal;font-weight:normal;font-size:47.20985794px;line-height:1.25;font-family:sans-serif;letter-spacing:0px;word-spacing:0px;fill:#ff9400;fill-opacity:1;fill-rule:nonzero;stroke:none;stroke-width:1.18024635"
       id="text4840-9">
      <path
         d="m 6.7293157,277.17635 v 7.09483 H 5.3788383 v -4.44211 l -2.6479005,4.44211 H 1.5540932 v -7.09483 h 1.3504774 v 4.5868 l 2.6864856,-4.5868 z"
         style="font-style:normal;font-variant:normal;font-weight:bold;font-stretch:normal;font-size:9.87777805px;line-height:0.25;font-family:'Century Gothic';-inkscape-font-specification:'Century Gothic Bold';fill:#ff9400;fill-opacity:1;fill-rule:nonzero;stroke-width:1.18024635"
         id="path1226" />
      <path
         d="m 9.52191,280.91428 h 1.958192 v -1.89067 h 1.321539 v 5.24757 h -1.321539 v -2.17523 H 9.52191 v 2.17523 H 8.2003714 v -5.24757 H 9.52191 Z"
         style="font-style:normal;font-variant:normal;font-weight:bold;font-stretch:normal;font-size:9.87777805px;line-height:0.25;font-family:'Century Gothic';-inkscape-font-specification:'Century Gothic Bold';fill:#ff9400;fill-opacity:1;fill-rule:nonzero;stroke-width:1.18024635"
         id="path1228" />
      <path
         d="m 14.808065,284.27118 v 0.91157 h -1.172022 v -2.02571 h 0.790994 l 1.808675,-4.13343 h 0.848872 l 1.832791,4.13343 h 0.805463 v 2.02571 h -1.254015 v -0.91157 z m 2.710601,-1.11414 -0.858518,-2.209 -0.887457,2.209 z"
         style="font-style:normal;font-variant:normal;font-weight:bold;font-stretch:normal;font-size:9.87777805px;line-height:0.25;font-family:'Century Gothic';-inkscape-font-specification:'Century Gothic Bold';fill:#ff9400;fill-opacity:1;fill-rule:nonzero;stroke-width:1.18024635"
         id="path1230" />
      <path
         d="m 25.809633,282.02842 h -4.229888 q 0.09164,0.55949 0.487136,0.89228 0.40032,0.32797 1.017682,0.32797 0.737939,0 1.268484,-0.51607 l 1.109321,0.5209 q -0.41479,0.58842 -0.993566,0.87299 -0.578776,0.27974 -1.374593,0.27974 -1.234722,0 -2.011247,-0.77653 -0.776525,-0.78135 -0.776525,-1.95337 0,-1.20096 0.771702,-1.99195 0.776524,-0.79582 1.943723,-0.79582 1.239545,0 2.01607,0.79582 0.776524,0.79099 0.776524,2.09324 z m -1.321538,-1.03697 q -0.130225,-0.43891 -0.516076,-0.71383 -0.381027,-0.27491 -0.887456,-0.27491 -0.549838,0 -0.964627,0.30868 -0.260449,0.19292 -0.482314,0.68006 z"
         style="font-style:normal;font-variant:normal;font-weight:bold;font-stretch:normal;font-size:9.87777805px;line-height:0.25;font-family:'Century Gothic';-inkscape-font-specification:'Century Gothic Bold';fill:#ff9400;fill-opacity:1;fill-rule:nonzero;stroke-width:1.18024635"
         id="path1232" />
      <path
         d="m 26.880369,279.02361 h 1.316715 v 1.96302 l 1.813499,-1.96302 h 1.606103 l -2.33922,2.55626 2.368159,2.69131 h -1.745974 l -1.562696,-1.85208 -0.139871,0.16398 v 1.6881 h -1.316715 z"
         style="font-style:normal;font-variant:normal;font-weight:bold;font-stretch:normal;font-size:9.87777805px;line-height:0.25;font-family:'Century Gothic';-inkscape-font-specification:'Century Gothic Bold';fill:#ff9400;fill-opacity:1;fill-rule:nonzero;stroke-width:1.18024635"
         id="path1234" />
      <path
         d="m 37.322453,280.0847 -1.094851,0.60289 q -0.308681,-0.32315 -0.612538,-0.44855 -0.299035,-0.1254 -0.704178,-0.1254 -0.737939,0 -1.196137,0.44373 -0.453375,0.4389 -0.453375,1.12861 0,0.67042 0.438905,1.09485 0.438906,0.42444 1.152729,0.42444 0.882634,0 1.374594,-0.6029 l 1.036973,0.70901 q -0.844048,1.09485 -2.382628,1.09485 -1.384239,0 -2.17041,-0.81994 -0.781348,-0.81993 -0.781348,-1.9196 0,-0.76206 0.381028,-1.40354 0.381027,-0.64147 1.061089,-1.00803 0.684885,-0.36656 1.528934,-0.36656 0.781347,0 1.403532,0.31351 0.622184,0.30868 1.017681,0.88263 z"
         style="font-style:normal;font-variant:normal;font-weight:bold;font-stretch:normal;font-size:9.87777805px;line-height:0.25;font-family:'Century Gothic';-inkscape-font-specification:'Century Gothic Bold';fill:#ff9400;fill-opacity:1;fill-rule:nonzero;stroke-width:1.18024635"
         id="path1236" />
      <path
         d="m 42.391566,279.02361 h 1.311893 v 5.24757 h -1.311893 v -0.55466 q -0.38585,0.36656 -0.776524,0.53054 -0.385851,0.15917 -0.839225,0.15917 -1.017682,0 -1.760444,-0.78617 -0.742763,-0.791 -0.742763,-1.96302 0,-1.21543 0.718647,-1.99195 0.718647,-0.77653 1.745974,-0.77653 0.472668,0 0.887457,0.17846 0.41479,0.17845 0.766878,0.53537 z m -1.384239,1.08038 q -0.612538,0 -1.017681,0.43408 -0.405143,0.42926 -0.405143,1.1045 0,0.68006 0.409966,1.11897 0.414789,0.4389 1.017681,0.4389 0.622184,0 1.032151,-0.42926 0.409966,-0.43408 0.409966,-1.13343 0,-0.68489 -0.409966,-1.10932 -0.409967,-0.42444 -1.036974,-0.42444 z"
         style="font-style:normal;font-variant:normal;font-weight:bold;font-stretch:normal;font-size:9.87777805px;line-height:0.25;font-family:'Century Gothic';-inkscape-font-specification:'Century Gothic Bold';fill:#ff9400;fill-opacity:1;fill-rule:nonzero;stroke-width:1.18024635"
         id="path1238" />
      <path
         d="m 45.029822,284.27118 v -5.24757 h 1.321538 v 3.98391 h 1.958192 v -3.98391 h 1.321539 v 3.98391 h 1.336008 v 2.18488 h -1.254015 v -0.92122 z"
         style="font-style:normal;font-variant:normal;font-weight:bold;font-stretch:normal;font-size:9.87777805px;line-height:0.25;font-family:'Century Gothic';-inkscape-font-specification:'Century Gothic Bold';fill:#ff9400;fill-opacity:1;fill-rule:nonzero;stroke-width:1.18024635"
         id="path1240" />
      <path
         d="m 52.385098,284.27118 h -0.699355 v -5.24757 h 1.282954 v 3.08198 l 2.686486,-3.08198 h 0.63183 v 5.24757 H 55.00406 v -3.01928 z"
         style="font-style:normal;font-variant:normal;font-weight:bold;font-stretch:normal;font-size:9.87777805px;line-height:0.25;font-family:'Century Gothic';-inkscape-font-specification:'Century Gothic Bold';fill:#ff9400;fill-opacity:1;fill-rule:nonzero;stroke-width:1.18024635"
         id="path1242" />
      <path
         d="m 58.505656,282.12006 q -0.424436,-0.13987 -0.699354,-0.52572 -0.270096,-0.39067 -0.270096,-0.87781 0,-0.5836 0.332796,-1.0225 0.332797,-0.43891 0.790994,-0.55467 0.463021,-0.11575 1.442117,-0.11575 h 1.331185 v 5.24757 h -1.321539 v -1.90032 h -0.255626 l -1.249191,1.90032 H 57.04907 Z m 1.606103,-0.73794 v -1.25884 h -0.458197 q -0.747586,0 -0.747586,0.62701 0,0.63183 0.834402,0.63183 z"
         style="font-style:normal;font-variant:normal;font-weight:bold;font-stretch:normal;font-size:9.87777805px;line-height:0.25;font-family:'Century Gothic';-inkscape-font-specification:'Century Gothic Bold';fill:#ff9400;fill-opacity:1;fill-rule:nonzero;stroke-width:1.18024635"
         id="path1244" />
      <path
         d="m 70.659953,280.0847 -1.094852,0.60289 q -0.30868,-0.32315 -0.612538,-0.44855 -0.299034,-0.1254 -0.704177,-0.1254 -0.73794,0 -1.196138,0.44373 -0.453374,0.4389 -0.453374,1.12861 0,0.67042 0.438905,1.09485 0.438905,0.42444 1.152729,0.42444 0.882633,0 1.374593,-0.6029 l 1.036974,0.70901 q -0.844049,1.09485 -2.382628,1.09485 -1.38424,0 -2.17041,-0.81994 -0.781348,-0.81993 -0.781348,-1.9196 0,-0.76206 0.381027,-1.40354 0.381028,-0.64147 1.06109,-1.00803 0.684885,-0.36656 1.528933,-0.36656 0.781348,0 1.403532,0.31351 0.622185,0.30868 1.017682,0.88263 z"
         style="font-style:normal;font-variant:normal;font-weight:bold;font-stretch:normal;font-size:9.87777805px;line-height:0.25;font-family:'Century Gothic';-inkscape-font-specification:'Century Gothic Bold';fill:#ff9400;fill-opacity:1;fill-rule:nonzero;stroke-width:1.18024635"
         id="path1246" />
      <path
         d="m 74.315886,278.88856 q 0.742762,0 1.393886,0.37138 0.655946,0.37138 1.022504,1.00804 0.366558,0.63665 0.366558,1.37459 0,0.74276 -0.371381,1.38906 -0.366558,0.6463 -1.003212,1.01286 -0.636654,0.36174 -1.403532,0.36174 -1.128613,0 -1.929254,-0.80064 -0.795817,-0.80547 -0.795817,-1.95337 0,-1.2299 0.901926,-2.04983 0.790994,-0.71383 1.818322,-0.71383 z m 0.01929,1.23955 q -0.612538,0 -1.022504,0.42926 -0.405143,0.42443 -0.405143,1.09002 0,0.68489 0.40032,1.10933 0.405143,0.42443 1.022504,0.42443 0.617361,0 1.027328,-0.42926 0.409966,-0.42926 0.409966,-1.1045 0,-0.67523 -0.405143,-1.09485 -0.40032,-0.42443 -1.027328,-0.42443 z"
         style="font-style:normal;font-variant:normal;font-weight:bold;font-stretch:normal;font-size:9.87777805px;line-height:0.25;font-family:'Century Gothic';-inkscape-font-specification:'Century Gothic Bold';fill:#ff9400;fill-opacity:1;fill-rule:nonzero;stroke-width:1.18024635"
         id="path1248" />
      <path
         d="m 78.174399,284.27118 v -5.24757 h 1.321538 v 3.98391 h 1.958193 v -3.98391 h 1.321538 v 3.98391 h 1.336008 v 2.18488 h -1.254015 v -0.92122 z"
         style="font-style:normal;font-variant:normal;font-weight:bold;font-stretch:normal;font-size:9.87777805px;line-height:0.25;font-family:'Century Gothic';-inkscape-font-specification:'Century Gothic Bold';fill:#ff9400;fill-opacity:1;fill-rule:nonzero;stroke-width:1.18024635"
         id="path1250" />
      <path
         d="M 85.529675,284.27118 H 84.83032 v -5.24757 h 1.282954 v 3.08198 l 2.686486,-3.08198 h 0.63183 v 5.24757 h -1.282953 v -3.01928 z"
         style="font-style:normal;font-variant:normal;font-weight:bold;font-stretch:normal;font-size:9.87777805px;line-height:0.25;font-family:'Century Gothic';-inkscape-font-specification:'Century Gothic Bold';fill:#ff9400;fill-opacity:1;fill-rule:nonzero;stroke-width:1.18024635"
         id="path1252" />
      <path
         d="m 94.635749,279.02361 h 1.311892 v 5.24757 h -1.311892 v -0.55466 q -0.385851,0.36656 -0.776525,0.53054 -0.38585,0.15917 -0.839225,0.15917 -1.017681,0 -1.760444,-0.78617 -0.742762,-0.791 -0.742762,-1.96302 0,-1.21543 0.718647,-1.99195 0.718647,-0.77653 1.745974,-0.77653 0.472667,0 0.887457,0.17846 0.414789,0.17845 0.766878,0.53537 z m -1.384239,1.08038 q -0.612538,0 -1.017682,0.43408 -0.405143,0.42926 -0.405143,1.1045 0,0.68006 0.409966,1.11897 0.41479,0.4389 1.017682,0.4389 0.622184,0 1.03215,-0.42926 0.409967,-0.43408 0.409967,-1.13343 0,-0.68489 -0.409967,-1.10932 -0.409966,-0.42444 -1.036973,-0.42444 z"
         style="font-style:normal;font-variant:normal;font-weight:bold;font-stretch:normal;font-size:9.87777805px;line-height:0.25;font-family:'Century Gothic';-inkscape-font-specification:'Century Gothic Bold';fill:#ff9400;fill-opacity:1;fill-rule:nonzero;stroke-width:1.18024635"
         id="path1254" />
      <path
         d="m 101.96692,284.27118 h -1.34083 l -1.311896,-3.31349 -1.336009,3.31349 h -1.336008 l 2.237934,-5.24757 h 0.848872 z"
         style="font-style:normal;font-variant:normal;font-weight:bold;font-stretch:normal;font-size:9.87777805px;line-height:0.25;font-family:'Century Gothic';-inkscape-font-specification:'Century Gothic Bold';fill:#ff9400;fill-opacity:1;fill-rule:nonzero;stroke-width:1.18024635"
         id="path1256" />
      <path
         d="m 103.97816,280.91428 h 0.39067 q 0.82476,0 1.26367,0.13022 0.44372,0.1254 0.74758,0.53055 0.30386,0.40514 0.30386,1.01768 0,0.60771 -0.27492,1.01286 -0.27492,0.40032 -0.70418,0.53536 -0.42443,0.13023 -1.19613,0.13023 h -1.85209 v -5.24757 h 1.32154 z m 0,2.34404 h 0.40032 q 0.35691,0 0.51608,-0.0482 0.15916,-0.053 0.27974,-0.19775 0.12058,-0.14469 0.12058,-0.35209 0,-0.67524 -0.77171,-0.67524 h -0.54501 z"
         style="font-style:normal;font-variant:normal;font-weight:bold;font-stretch:normal;font-size:9.87777805px;line-height:0.25;font-family:'Century Gothic';-inkscape-font-specification:'Century Gothic Bold';fill:#ff9400;fill-opacity:1;fill-rule:nonzero;stroke-width:1.18024635"
         id="path1258" />
      <path
         d="m 109.01352,280.91428 h 1.95819 v -1.89067 h 1.32154 v 5.24757 h -1.32154 v -2.17523 h -1.95819 v 2.17523 h -1.32154 v -5.24757 h 1.32154 z"
         style="font-style:normal;font-variant:normal;font-weight:bold;font-stretch:normal;font-size:9.87777805px;line-height:0.25;font-family:'Century Gothic';-inkscape-font-specification:'Century Gothic Bold';fill:#ff9400;fill-opacity:1;fill-rule:nonzero;stroke-width:1.18024635"
         id="path1260" />
      <path
         d="m 114.93632,280.91428 h 0.39067 q 0.82476,0 1.26367,0.13022 0.44372,0.1254 0.74758,0.53055 0.30386,0.40514 0.30386,1.01768 0,0.60771 -0.27492,1.01286 -0.27492,0.40032 -0.70418,0.53536 -0.42443,0.13023 -1.19613,0.13023 h -1.85209 v -5.24757 h 1.32154 z m 0,2.34404 h 0.40032 q 0.35691,0 0.51608,-0.0482 0.15916,-0.053 0.27974,-0.19775 0.12058,-0.14469 0.12058,-0.35209 0,-0.67524 -0.7717,-0.67524 h -0.54502 z m 3.62217,-4.23471 h 1.31672 v 5.24757 h -1.31672 z"
         style="font-style:normal;font-variant:normal;font-weight:bold;font-stretch:normal;font-size:9.87777805px;line-height:0.25;font-family:'Century Gothic';-inkscape-font-specification:'Century Gothic Bold';fill:#ff9400;fill-opacity:1;fill-rule:nonzero;stroke-width:1.18024635"
         id="path1262" />
      <path
         d="m 120.72891,279.02361 h 1.52893 l 1.02733,1.43247 1.0418,-1.43247 h 1.51446 l -1.79421,2.48391 2.01607,2.76366 h -1.52893 l -1.24919,-1.72186 -1.23472,1.72186 h -1.50964 l 1.98713,-2.76366 z"
         style="font-style:normal;font-variant:normal;font-weight:bold;font-stretch:normal;font-size:9.87777805px;line-height:0.25;font-family:'Century Gothic';-inkscape-font-specification:'Century Gothic Bold';fill:#ff9400;fill-opacity:1;fill-rule:nonzero;stroke-width:1.18024635"
         id="path1264" />
    </g>
  </g>
</svg>
