<?xml version="1.0" encoding="UTF-8" standalone="no"?>
<!-- Created with Inkscape (http://www.inkscape.org/) -->

<svg
   xmlns:dc="http://purl.org/dc/elements/1.1/"
   xmlns:cc="http://creativecommons.org/ns#"
   xmlns:rdf="http://www.w3.org/1999/02/22-rdf-syntax-ns#"
   xmlns:svg="http://www.w3.org/2000/svg"
   xmlns="http://www.w3.org/2000/svg"
   xmlns:sodipodi="http://sodipodi.sourceforge.net/DTD/sodipodi-0.dtd"
   xmlns:inkscape="http://www.inkscape.org/namespaces/inkscape"
   width="22pc"
   height="4pc"
   viewBox="0 0 93.133372 16.933332"
   version="1.1"
   id="svg8"
   inkscape:version="0.92.2 (5c3e80d, 2017-08-06)"
   sodipodi:docname="3str.svg">
  <defs
     id="defs2">
    <clipPath
       clipPathUnits="userSpaceOnUse"
       id="clipPath7909">
      <g
         id="use7911"
         inkscape:label="Clip">
        <text
           xml:space="preserve"
           style="font-style:normal;font-weight:normal;font-size:10.58333302px;line-height:1.25;font-family:sans-serif;letter-spacing:0px;word-spacing:0px;fill:#ffffff;fill-opacity:1;stroke:none;stroke-width:0.26458332"
           x="82.876579"
           y="384.59238"
           id="text2646"><tspan
             sodipodi:role="line"
             id="tspan2644"
             x="82.876579"
             y="384.59238"
             style="font-style:normal;font-variant:normal;font-weight:normal;font-stretch:normal;font-size:3.52777767px;font-family:EuropeDemi;-inkscape-font-specification:EuropeDemi;fill:#ffffff;stroke-width:0.26458332"><tspan
               style="font-size:2.82222223px"
               id="tspan2642">ГЛАЗОВСКАЯ РАЙОННАЯ БИБЛИОТЕКА</tspan></tspan></text>
      </g>
    </clipPath>
  </defs>
  <sodipodi:namedview
     id="base"
     pagecolor="#ffffff"
     bordercolor="#666666"
     borderopacity="1.0"
     inkscape:pageopacity="0.0"
     inkscape:pageshadow="2"
     inkscape:zoom="0.24748738"
     inkscape:cx="-18.757432"
     inkscape:cy="336.034"
     inkscape:document-units="mm"
     inkscape:current-layer="layer1"
     showgrid="false"
     inkscape:lockguides="false"
     showguides="false"
     units="pc"
     inkscape:window-width="1280"
     inkscape:window-height="972"
     inkscape:window-x="-8"
     inkscape:window-y="-8"
     inkscape:window-maximized="1"
     showborder="true"
     inkscape:pagecheckerboard="true" />
  <metadata
     id="metadata5">
    <rdf:RDF>
      <cc:Work
         rdf:about="">
        <dc:format>image/svg+xml</dc:format>
        <dc:type
           rdf:resource="http://purl.org/dc/dcmitype/StillImage" />
        <dc:title />
      </cc:Work>
    </rdf:RDF>
  </metadata>
  <g
     inkscape:label="Layer 1"
     inkscape:groupmode="layer"
     id="layer1"
     transform="translate(0,-280.06662)">
    <g
       aria-label="3 страница "
       style="font-style:normal;font-weight:normal;font-size:47.20985794px;line-height:1.25;font-family:sans-serif;letter-spacing:0px;word-spacing:0px;fill:#ffffff;fill-opacity:1;stroke:none;stroke-width:1.18024635"
       id="text8220">
      <path
         d="M 3.2424464,284.58277 H 1.1754783 q 0.1613618,-1.25248 0.8990159,-2.01318 1.0296421,-1.06038 2.5894731,-1.06038 1.3907853,0 2.3282206,0.88365 0.9451193,0.88365 0.9451193,2.0977 0,0.75302 -0.4149304,1.37542 -0.4072465,0.6224 -1.191004,1.00659 1.0296422,0.30736 1.6059344,1.07575 0.5839761,0.7607 0.5839761,1.79803 0,1.52141 -1.1218489,2.58179 -1.1218488,1.05269 -2.8584094,1.05269 -1.6443539,0 -2.6816799,-0.99122 -1.03732604,-0.99891 -1.13721669,-2.71242 H 2.8505677 q 0.1383102,0.87597 0.6070279,1.30627 0.4764015,0.42261 1.1986878,0.42261 0.7530219,0 1.2447912,-0.48409 0.4994533,-0.48408 0.4994533,-1.18332 0,-0.76839 -0.668499,-1.29857 -0.668499,-0.53019 -1.928658,-0.54556 v -1.84414 q 0.7760735,-0.0615 1.1525845,-0.2382 0.3841948,-0.18441 0.59166,-0.49945 0.2151491,-0.31504 0.2151491,-0.6685 0,-0.46103 -0.3227237,-0.7607 -0.3227236,-0.30736 -0.8452286,-0.30736 -0.4610338,0 -0.8375447,0.2843 -0.3765109,0.27662 -0.5148211,0.72229 z"
         style="font-style:normal;font-variant:normal;font-weight:bold;font-stretch:normal;font-family:'Century Gothic';-inkscape-font-specification:'Century Gothic Bold'"
         id="path8222" />
      <path
         d="m 22.713441,286.4269 -1.744244,0.96049 q -0.49177,-0.51482 -0.975855,-0.7146 -0.476402,-0.19978 -1.121849,-0.19978 -1.175636,0 -1.905607,0.70692 -0.722286,0.69923 -0.722286,1.79803 0,1.06806 0.699235,1.74424 0.699234,0.67619 1.836451,0.67619 1.406153,0 2.189911,-0.96049 l 1.652037,1.12953 q -1.344682,1.74425 -3.795845,1.74425 -2.205278,0 -3.457753,-1.30627 -1.244791,-1.30626 -1.244791,-3.05819 0,-1.21405 0.607028,-2.23601 0.607027,-1.02196 1.690457,-1.60594 1.091113,-0.58397 2.435795,-0.58397 1.244791,0 2.236014,0.49945 0.991223,0.49177 1.621302,1.40615 z"
         style="font-style:normal;font-variant:normal;font-weight:bold;font-stretch:normal;font-family:'Century Gothic';-inkscape-font-specification:'Century Gothic Bold'"
         id="path8224" />
      <path
         d="m 23.866025,284.73645 h 7.791471 v 1.99781 H 28.88361 v 6.36227 h -2.105388 v -6.36227 h -2.912197 z"
         style="font-style:normal;font-variant:normal;font-weight:bold;font-stretch:normal;font-family:'Century Gothic';-inkscape-font-specification:'Century Gothic Bold'"
         id="path8226" />
      <path
         d="m 35.11525,284.73645 v 0.92207 q 0.568608,-0.56861 1.229424,-0.85292 0.660815,-0.2843 1.413837,-0.2843 1.636669,0 2.78157,1.23711 1.144901,1.2371 1.144901,3.17345 0,1.86718 -1.18332,3.12734 -1.183321,1.25248 -2.804623,1.25248 -0.722286,0 -1.344682,-0.25357 -0.622395,-0.26125 -1.237107,-0.84523 v 3.94184 h -2.082336 v -11.41827 z m 2.205278,1.72119 q -0.991222,0 -1.644353,0.67618 -0.653132,0.67619 -0.653132,1.7673 0,1.11416 0.653132,1.80572 0.653131,0.68386 1.644353,0.68386 0.960487,0 1.613619,-0.69923 0.660815,-0.69924 0.660815,-1.78267 0,-1.07574 -0.645448,-1.75961 -0.645447,-0.69155 -1.628986,-0.69155 z"
         style="font-style:normal;font-variant:normal;font-weight:bold;font-stretch:normal;font-family:'Century Gothic';-inkscape-font-specification:'Century Gothic Bold'"
         id="path8228" />
      <path
         d="m 49.599395,284.73645 h 2.09002 v 8.36008 h -2.09002 v -0.88365 q -0.614712,0.58398 -1.237107,0.84523 -0.614712,0.25357 -1.336998,0.25357 -1.621303,0 -2.804623,-1.25248 -1.18332,-1.26016 -1.18332,-3.12734 0,-1.93635 1.144901,-3.17345 1.144901,-1.23711 2.78157,-1.23711 0.753022,0 1.413837,0.2843 0.660816,0.28431 1.22174,0.85292 z m -2.205278,1.72119 q -0.975855,0 -1.621302,0.69155 -0.645448,0.68387 -0.645448,1.75961 0,1.08343 0.653131,1.78267 0.660816,0.69923 1.621303,0.69923 0.991222,0 1.644353,-0.68386 0.653132,-0.69156 0.653132,-1.80572 0,-1.09111 -0.653132,-1.7673 -0.653131,-0.67618 -1.652037,-0.67618 z"
         style="font-style:normal;font-variant:normal;font-weight:bold;font-stretch:normal;font-family:'Century Gothic';-inkscape-font-specification:'Century Gothic Bold'"
         id="path8230" />
      <path
         d="m 55.907872,287.74854 h 3.119662 v -3.01209 h 2.105388 v 8.36008 h -2.105388 v -3.46544 h -3.119662 v 3.46544 h -2.105388 v -8.36008 h 2.105388 z"
         style="font-style:normal;font-variant:normal;font-weight:bold;font-stretch:normal;font-family:'Century Gothic';-inkscape-font-specification:'Century Gothic Bold'"
         id="path8232" />
      <path
         d="M 64.352475,293.09653 H 63.23831 v -8.36008 h 2.043916 v 4.91001 l 4.279931,-4.91001 h 1.00659 v 8.36008 h -2.043916 v -4.81012 z"
         style="font-style:normal;font-variant:normal;font-weight:bold;font-stretch:normal;font-family:'Century Gothic';-inkscape-font-specification:'Century Gothic Bold'"
         id="path8234" />
      <path
         d="m 72.674131,293.09653 v -8.36008 h 2.105388 v 6.3469 h 3.119662 v -6.3469 h 2.105387 v 6.3469 h 2.12844 v 3.4808 h -1.997813 v -1.46762 z"
         style="font-style:normal;font-variant:normal;font-weight:bold;font-stretch:normal;font-family:'Century Gothic';-inkscape-font-specification:'Century Gothic Bold'"
         id="path8236" />
      <path
         d="m 89.463451,284.73645 h 2.090019 v 8.36008 h -2.090019 v -0.88365 q -0.614712,0.58398 -1.237108,0.84523 -0.614711,0.25357 -1.336998,0.25357 -1.621302,0 -2.804622,-1.25248 -1.18332,-1.26016 -1.18332,-3.12734 0,-1.93635 1.144901,-3.17345 1.1449,-1.23711 2.78157,-1.23711 0.753022,0 1.413837,0.2843 0.660815,0.28431 1.22174,0.85292 z m -2.205279,1.72119 q -0.975855,0 -1.621302,0.69155 -0.645447,0.68387 -0.645447,1.75961 0,1.08343 0.653131,1.78267 0.660815,0.69923 1.621302,0.69923 0.991223,0 1.644354,-0.68386 0.653131,-0.69156 0.653131,-1.80572 0,-1.09111 -0.653131,-1.7673 -0.653131,-0.67618 -1.652038,-0.67618 z"
         style="font-style:normal;font-variant:normal;font-weight:bold;font-stretch:normal;font-family:'Century Gothic';-inkscape-font-specification:'Century Gothic Bold'"
         id="path8238" />
    </g>
  </g>
</svg>
