<?xml version="1.0" encoding="UTF-8"?>
<!DOCTYPE svg PUBLIC "-//W3C//DTD SVG 1.1//EN" "http://www.w3.org/Graphics/SVG/1.1/DTD/svg11.dtd">
<!-- Creator: CorelDRAW -->
<svg xmlns="http://www.w3.org/2000/svg" xml:space="preserve" width="74.1002mm" height="14.0782mm" version="1.1" style="shape-rendering:geometricPrecision; text-rendering:geometricPrecision; image-rendering:optimizeQuality; fill-rule:evenodd; clip-rule:evenodd"
viewBox="0 0 72.44 13.76"
 xmlns:xlink="http://www.w3.org/1999/xlink"
 xmlns:xodm="http://www.corel.com/coreldraw/odm/2003">
 <defs>
  <style type="text/css">
   <![CDATA[
    .fil0 {fill:#C29138;fill-rule:nonzero}
   ]]>
  </style>
 </defs>
 <g id="Слой_x0020_1">
  <metadata id="CorelCorpID_0Corel-Layer"/>
  <path class="fil0" d="M2.74 0.2c0.7,0 1.3,0.25 1.81,0.76 0.5,0.51 0.76,1.13 0.76,1.85 0,0.72 -0.25,1.33 -0.75,1.83 -0.5,0.5 -1.1,0.75 -1.81,0.75 -0.74,0 -1.36,-0.26 -1.85,-0.77 -0.49,-0.51 -0.74,-1.12 -0.74,-1.83 0,-0.47 0.11,-0.91 0.34,-1.31 0.23,-0.4 0.54,-0.71 0.94,-0.94 0.4,-0.23 0.83,-0.35 1.3,-0.35zm-0.01 0.92c-0.46,0 -0.84,0.16 -1.15,0.48 -0.31,0.32 -0.47,0.72 -0.47,1.22 0,0.55 0.2,0.98 0.59,1.3 0.3,0.25 0.65,0.37 1.05,0.37 0.44,0 0.82,-0.16 1.14,-0.49 0.31,-0.32 0.47,-0.72 0.47,-1.19 0,-0.47 -0.16,-0.87 -0.47,-1.2 -0.31,-0.33 -0.7,-0.49 -1.15,-0.49z"/>
  <polygon id="_1" class="fil0" points="5.77,1.61 9.19,1.61 9.19,2.49 7.97,2.49 7.97,5.28 7.05,5.28 7.05,2.49 5.77,2.49 "/>
  <path id="_2" class="fil0" d="M12.46 1.92l-0.92 0c0.03,-0.54 0.19,-0.96 0.5,-1.26 0.31,-0.31 0.71,-0.46 1.2,-0.46 0.3,0 0.57,0.06 0.8,0.19 0.23,0.13 0.41,0.31 0.55,0.55 0.14,0.24 0.21,0.48 0.21,0.73 0,0.29 -0.08,0.61 -0.25,0.95 -0.17,0.34 -0.47,0.74 -0.92,1.2l-0.56 0.59 1.77 0 0 0.87 -3.44 0 0 -0.45 1.53 -1.56c0.37,-0.37 0.62,-0.68 0.74,-0.9 0.12,-0.23 0.18,-0.43 0.18,-0.62 0,-0.19 -0.06,-0.35 -0.19,-0.47 -0.13,-0.12 -0.29,-0.19 -0.49,-0.19 -0.2,0 -0.37,0.08 -0.51,0.23 -0.13,0.15 -0.21,0.36 -0.21,0.62z"/>
  <path id="_3" class="fil0" d="M17.04 0.2c0.36,0 0.67,0.09 0.93,0.27 0.26,0.18 0.46,0.45 0.61,0.81 0.14,0.37 0.21,0.87 0.21,1.52 0,0.66 -0.07,1.17 -0.22,1.54 -0.14,0.37 -0.34,0.63 -0.58,0.81 -0.24,0.17 -0.55,0.26 -0.93,0.26 -0.37,0 -0.69,-0.09 -0.94,-0.26 -0.25,-0.17 -0.45,-0.44 -0.6,-0.79 -0.14,-0.35 -0.21,-0.85 -0.21,-1.5 0,-0.91 0.14,-1.57 0.42,-1.97 0.31,-0.45 0.75,-0.67 1.3,-0.67zm0.03 0.9c-0.16,0 -0.3,0.05 -0.42,0.15 -0.12,0.1 -0.22,0.28 -0.28,0.53 -0.06,0.25 -0.1,0.61 -0.1,1.09 0,0.62 0.07,1.06 0.22,1.29 0.15,0.24 0.34,0.36 0.58,0.36 0.23,0 0.41,-0.11 0.54,-0.34 0.16,-0.27 0.24,-0.73 0.24,-1.37 0,-0.65 -0.07,-1.1 -0.22,-1.34 -0.15,-0.25 -0.33,-0.37 -0.57,-0.37z"/>
  <path id="_4" class="fil0" d="M20.9 0.2c0.36,0 0.67,0.09 0.93,0.27 0.26,0.18 0.46,0.45 0.61,0.81 0.14,0.37 0.21,0.87 0.21,1.52 0,0.66 -0.07,1.17 -0.22,1.54 -0.14,0.37 -0.34,0.63 -0.58,0.81 -0.24,0.17 -0.55,0.26 -0.93,0.26 -0.37,0 -0.69,-0.09 -0.94,-0.26 -0.25,-0.17 -0.45,-0.44 -0.6,-0.79 -0.14,-0.35 -0.21,-0.85 -0.21,-1.5 0,-0.91 0.14,-1.57 0.42,-1.97 0.31,-0.45 0.75,-0.67 1.3,-0.67zm0.03 0.9c-0.16,0 -0.3,0.05 -0.42,0.15 -0.12,0.1 -0.22,0.28 -0.28,0.53 -0.06,0.25 -0.1,0.61 -0.1,1.09 0,0.62 0.07,1.06 0.22,1.29 0.15,0.24 0.34,0.36 0.58,0.36 0.23,0 0.41,-0.11 0.54,-0.34 0.16,-0.27 0.24,-0.73 0.24,-1.37 0,-0.65 -0.07,-1.1 -0.22,-1.34 -0.15,-0.25 -0.33,-0.37 -0.57,-0.37z"/>
  <polygon id="_5" class="fil0" points="24.91,1.61 28.33,1.61 28.33,2.49 27.11,2.49 27.11,5.28 26.19,5.28 26.19,2.49 24.91,2.49 "/>
  <path id="_6" class="fil0" d="M29.85 2.94l0.27 0c0.39,0 0.68,0.03 0.89,0.09 0.21,0.06 0.38,0.18 0.52,0.37 0.14,0.19 0.21,0.43 0.21,0.71 0,0.28 -0.06,0.52 -0.19,0.7 -0.13,0.19 -0.29,0.31 -0.49,0.37 -0.2,0.06 -0.48,0.09 -0.84,0.09l-1.29 0 0 -3.66 0.92 0 0 1.32zm0 1.63l0.28 0c0.17,0 0.29,-0.01 0.36,-0.04 0.07,-0.02 0.14,-0.07 0.2,-0.13 0.06,-0.07 0.09,-0.15 0.09,-0.24 0,-0.31 -0.18,-0.47 -0.54,-0.47l-0.38 0 0 0.88zm2.54 -2.95l0.92 0 0 3.66 -0.92 0 0 -3.66z"/>
  <path id="_7" class="fil0" d="M37.81 2.36l-0.76 0.42c-0.14,-0.15 -0.29,-0.25 -0.43,-0.31 -0.14,-0.06 -0.3,-0.09 -0.49,-0.09 -0.34,0 -0.62,0.1 -0.83,0.31 -0.21,0.2 -0.32,0.47 -0.32,0.79 0,0.31 0.1,0.56 0.31,0.76 0.2,0.2 0.47,0.29 0.8,0.29 0.41,0 0.73,-0.14 0.96,-0.42l0.72 0.5c-0.39,0.51 -0.95,0.77 -1.66,0.77 -0.64,0 -1.15,-0.19 -1.51,-0.57 -0.36,-0.38 -0.55,-0.83 -0.55,-1.34 0,-0.35 0.09,-0.68 0.27,-0.98 0.18,-0.3 0.43,-0.53 0.74,-0.7 0.32,-0.17 0.67,-0.26 1.07,-0.26 0.36,0 0.69,0.07 0.98,0.22 0.29,0.14 0.53,0.35 0.71,0.62z"/>
  <path id="_8" class="fil0" d="M39.27 3.77c-0.2,-0.07 -0.36,-0.19 -0.49,-0.37 -0.13,-0.18 -0.19,-0.38 -0.19,-0.61 0,-0.27 0.08,-0.51 0.23,-0.71 0.16,-0.2 0.34,-0.33 0.56,-0.39 0.21,-0.05 0.55,-0.08 1.01,-0.08l0.93 0 0 3.66 -0.92 0 0 -1.32 -0.18 0 -0.88 1.32 -1.09 0 1.02 -1.5zm1.13 -0.51l0 -0.88 -0.32 0c-0.35,0 -0.53,0.15 -0.53,0.44 0,0.3 0.2,0.44 0.59,0.44l0.26 0z"/>
  <path id="_9" class="fil0" d="M44.23 3.82l-0.74 0c-0.5,0 -0.89,-0.1 -1.15,-0.29 -0.27,-0.19 -0.4,-0.51 -0.4,-0.95l0 -0.97 0.92 0 0 0.9c0,0.32 0.22,0.48 0.65,0.48l0.36 -0 0.37 0 0 -1.38 0.92 0 0 3.66 -0.92 0 0 -1.46z"/>
  <path id="_10" class="fil0" d="M48.92 1.61l0 0.4c0.17,-0.16 0.34,-0.29 0.54,-0.37 0.19,-0.08 0.4,-0.12 0.62,-0.12 0.48,0 0.88,0.18 1.22,0.54 0.33,0.36 0.5,0.82 0.5,1.39 0,0.54 -0.17,1 -0.52,1.36 -0.34,0.37 -0.75,0.55 -1.23,0.55 -0.21,0 -0.41,-0.04 -0.59,-0.11 -0.18,-0.07 -0.36,-0.2 -0.54,-0.37l0 1.73 -0.92 0 0 -5 0.92 0zm0.96 0.75c-0.29,0 -0.53,0.1 -0.72,0.3 -0.19,0.2 -0.29,0.46 -0.29,0.77 0,0.33 0.1,0.59 0.29,0.79 0.19,0.2 0.43,0.3 0.72,0.3 0.28,0 0.52,-0.1 0.71,-0.31 0.19,-0.2 0.29,-0.46 0.29,-0.78 0,-0.31 -0.09,-0.57 -0.28,-0.77 -0.19,-0.2 -0.43,-0.3 -0.71,-0.3z"/>
  <polygon id="_11" class="fil0" points="52.15,1.61 53.09,1.61 54.04,3.91 55.09,1.61 56.03,1.61 53.74,6.61 52.8,6.61 53.54,5.01 "/>
  <path id="_12" class="fil0" d="M60.07 0.12l0 0.87c-0.26,0.03 -0.52,0.05 -0.77,0.05 -0.45,0 -0.79,0.02 -1.02,0.06 -0.23,0.04 -0.43,0.12 -0.6,0.24 -0.17,0.13 -0.3,0.27 -0.37,0.44 -0.07,0.16 -0.12,0.4 -0.13,0.71 0.27,-0.63 0.72,-0.95 1.37,-0.95 0.47,0 0.89,0.17 1.23,0.52 0.35,0.35 0.52,0.79 0.52,1.34 0,0.56 -0.19,1.03 -0.56,1.41 -0.37,0.37 -0.83,0.56 -1.38,0.56 -0.45,0 -0.84,-0.14 -1.18,-0.41 -0.34,-0.27 -0.56,-0.6 -0.66,-0.98 -0.1,-0.38 -0.14,-0.78 -0.14,-1.21 0,-0.55 0.07,-1 0.21,-1.34 0.14,-0.34 0.32,-0.6 0.54,-0.78 0.22,-0.17 0.48,-0.29 0.78,-0.35 0.3,-0.06 0.73,-0.1 1.3,-0.12 0.39,-0.02 0.68,-0.04 0.86,-0.06zm-0.69 3.32c0,-0.3 -0.09,-0.56 -0.28,-0.76 -0.18,-0.2 -0.43,-0.3 -0.73,-0.3 -0.29,0 -0.53,0.1 -0.72,0.3 -0.19,0.2 -0.28,0.45 -0.28,0.76 0,0.32 0.09,0.58 0.28,0.77 0.19,0.2 0.43,0.29 0.72,0.29 0.28,0 0.52,-0.1 0.72,-0.29 0.19,-0.2 0.29,-0.45 0.29,-0.77z"/>
  <polygon id="_13" class="fil0" points="64.33,5.28 63.4,5.28 62.48,2.96 61.54,5.28 60.61,5.28 62.17,1.61 62.76,1.61 "/>
  <path id="_14" class="fil0" d="M68.48 3.7l-2.95 0c0.04,0.26 0.16,0.47 0.34,0.62 0.18,0.15 0.42,0.23 0.7,0.23 0.34,0 0.64,-0.12 0.88,-0.36l0.77 0.36c-0.19,0.27 -0.42,0.48 -0.69,0.61 -0.27,0.13 -0.59,0.2 -0.96,0.2 -0.57,0 -1.04,-0.18 -1.4,-0.54 -0.36,-0.36 -0.54,-0.81 -0.54,-1.36 0,-0.56 0.18,-1.02 0.54,-1.39 0.36,-0.37 0.81,-0.55 1.35,-0.55 0.58,0 1.04,0.18 1.41,0.55 0.36,0.37 0.54,0.85 0.54,1.46l-0 0.17zm-0.91 -0.72c-0.06,-0.2 -0.18,-0.36 -0.36,-0.49 -0.18,-0.13 -0.39,-0.19 -0.62,-0.19 -0.26,0 -0.48,0.07 -0.67,0.21 -0.12,0.09 -0.23,0.24 -0.34,0.46l1.99 0z"/>
  <path id="_15" class="fil0" d="M69.72 5.28l-0.49 0 0 -3.66 0.9 0 0 2.15 1.88 -2.15 0.44 0 0 3.66 -0.9 0 0 -2.11 -1.83 2.11zm-0.24 -5.28l0.74 0c0.06,0.09 0.14,0.16 0.24,0.21 0.1,0.05 0.23,0.07 0.38,0.07 0.15,0 0.29,-0.03 0.41,-0.08 0.08,-0.04 0.15,-0.1 0.21,-0.2l0.74 0c-0.04,0.29 -0.18,0.51 -0.41,0.69 -0.23,0.17 -0.55,0.26 -0.96,0.26 -0.28,0 -0.51,-0.04 -0.7,-0.12 -0.19,-0.08 -0.34,-0.19 -0.45,-0.33 -0.11,-0.14 -0.19,-0.31 -0.21,-0.5z"/>
  <path id="_16" class="fil0" d="M0.92 12.09l0 -0.66 0.18 0c0.12,0 0.23,-0.03 0.32,-0.09 0.09,-0.06 0.14,-0.15 0.14,-0.28 0,-0.11 -0.04,-0.2 -0.12,-0.28 -0.08,-0.07 -0.18,-0.11 -0.3,-0.11 -0.15,0 -0.34,0.07 -0.57,0.22l-0.36 -0.63c0.32,-0.25 0.67,-0.38 1.06,-0.38 0.36,0 0.65,0.09 0.89,0.28 0.23,0.19 0.35,0.43 0.35,0.75 0,0.32 -0.17,0.58 -0.51,0.77 0.46,0.17 0.69,0.47 0.69,0.91 0,0.33 -0.13,0.6 -0.38,0.81 -0.26,0.21 -0.61,0.32 -1.06,0.32 -0.5,0 -0.91,-0.14 -1.23,-0.42l0.5 -0.64c0.22,0.16 0.43,0.24 0.62,0.24 0.16,0 0.28,-0.04 0.38,-0.11 0.09,-0.07 0.14,-0.17 0.14,-0.29 0,-0.11 -0.04,-0.21 -0.13,-0.3 -0.09,-0.09 -0.2,-0.13 -0.36,-0.13l-0.24 0z"/>
  <path id="_17" class="fil0" d="M6.12 9.98l0.92 0 0 3.66 -0.92 0 0 -0.39c-0.18,0.17 -0.36,0.29 -0.54,0.37 -0.18,0.07 -0.38,0.11 -0.59,0.11 -0.47,0 -0.88,-0.18 -1.23,-0.55 -0.35,-0.37 -0.52,-0.82 -0.52,-1.36 0,-0.56 0.17,-1.03 0.5,-1.39 0.33,-0.36 0.74,-0.54 1.22,-0.54 0.22,0 0.43,0.04 0.62,0.12 0.19,0.08 0.37,0.21 0.54,0.37l0 -0.4zm-0.97 0.75c-0.29,0 -0.52,0.1 -0.71,0.3 -0.19,0.2 -0.28,0.46 -0.28,0.77 0,0.32 0.1,0.58 0.29,0.78 0.19,0.2 0.43,0.31 0.71,0.31 0.29,0 0.53,-0.1 0.72,-0.3 0.19,-0.2 0.29,-0.46 0.29,-0.79 0,-0.32 -0.1,-0.58 -0.29,-0.77 -0.19,-0.2 -0.43,-0.3 -0.72,-0.3z"/>
  <path id="_18" class="fil0" d="M11.72 8.56l0.94 0 0 3.19 0.44 0 0 0.87 -0.44 0 0 1.01 -0.92 0 0 -1.01 -2.17 0 0 -0.87 2.15 -3.2zm0.01 3.19l0 -1.66 -1.13 1.66 1.13 0z"/>
  <path id="_19" class="fil0" d="M16.24 10.96c0.22,0.14 0.4,0.33 0.52,0.55 0.12,0.23 0.18,0.47 0.18,0.73 0,0.29 -0.07,0.55 -0.21,0.79 -0.14,0.24 -0.33,0.43 -0.57,0.55 -0.24,0.12 -0.55,0.18 -0.92,0.18 -0.4,0 -0.72,-0.06 -0.95,-0.18 -0.24,-0.12 -0.42,-0.3 -0.57,-0.53 -0.14,-0.24 -0.21,-0.51 -0.21,-0.81 0,-0.26 0.06,-0.5 0.17,-0.71 0.11,-0.21 0.29,-0.41 0.51,-0.57 -0.15,-0.15 -0.26,-0.31 -0.33,-0.48 -0.07,-0.17 -0.11,-0.35 -0.11,-0.54 0,-0.26 0.06,-0.49 0.19,-0.7 0.12,-0.21 0.3,-0.38 0.52,-0.49 0.22,-0.12 0.48,-0.18 0.78,-0.18 0.29,0 0.54,0.06 0.76,0.18 0.22,0.12 0.39,0.29 0.52,0.51 0.13,0.22 0.19,0.45 0.19,0.7 0,0.18 -0.03,0.34 -0.1,0.49 -0.07,0.15 -0.19,0.32 -0.36,0.51zm-1.05 -1.48c-0.15,0 -0.28,0.05 -0.38,0.15 -0.1,0.1 -0.15,0.23 -0.15,0.39 0,0.16 0.05,0.29 0.16,0.4 0.11,0.11 0.23,0.16 0.39,0.16 0.16,0 0.29,-0.05 0.39,-0.16 0.1,-0.11 0.15,-0.24 0.15,-0.41 0,-0.16 -0.05,-0.29 -0.15,-0.39 -0.1,-0.1 -0.24,-0.15 -0.41,-0.15zm0.04 1.99c-0.23,0 -0.42,0.07 -0.57,0.21 -0.16,0.14 -0.23,0.3 -0.23,0.49 0,0.2 0.07,0.37 0.22,0.51 0.15,0.14 0.34,0.21 0.58,0.21 0.24,0 0.43,-0.06 0.58,-0.19 0.14,-0.13 0.21,-0.3 0.21,-0.5 0,-0.2 -0.07,-0.38 -0.22,-0.51 -0.15,-0.14 -0.33,-0.21 -0.56,-0.21z"/>
  <path id="_20" class="fil0" d="M21.54 12.18l-0.74 0c-0.5,0 -0.89,-0.1 -1.15,-0.29 -0.27,-0.19 -0.4,-0.51 -0.4,-0.95l0 -0.97 0.92 0 0 0.9c0,0.32 0.22,0.48 0.65,0.48l0.36 -0 0.37 0 0 -1.38 0.92 0 0 3.66 -0.92 0 0 -1.46z"/>
  <path id="_21" class="fil0" d="M26.1 9.98l0.92 0 0 3.66 -0.92 0 0 -0.39c-0.18,0.17 -0.36,0.29 -0.54,0.37 -0.18,0.07 -0.38,0.11 -0.59,0.11 -0.47,0 -0.88,-0.18 -1.23,-0.55 -0.35,-0.37 -0.52,-0.82 -0.52,-1.36 0,-0.56 0.17,-1.03 0.5,-1.39 0.33,-0.36 0.74,-0.54 1.22,-0.54 0.22,0 0.43,0.04 0.62,0.12 0.19,0.08 0.37,0.21 0.54,0.37l0 -0.4zm-0.97 0.75c-0.29,0 -0.52,0.1 -0.71,0.3 -0.19,0.2 -0.28,0.46 -0.28,0.77 0,0.32 0.1,0.58 0.29,0.78 0.19,0.2 0.43,0.31 0.71,0.31 0.29,0 0.53,-0.1 0.72,-0.3 0.19,-0.2 0.29,-0.46 0.29,-0.79 0,-0.32 -0.1,-0.58 -0.29,-0.77 -0.19,-0.2 -0.43,-0.3 -0.72,-0.3z"/>
  <path id="_22" class="fil0" d="M31.53 10.72l-0.76 0.42c-0.14,-0.15 -0.29,-0.25 -0.43,-0.31 -0.14,-0.06 -0.3,-0.09 -0.49,-0.09 -0.34,0 -0.62,0.1 -0.83,0.31 -0.21,0.2 -0.32,0.47 -0.32,0.79 0,0.31 0.1,0.56 0.31,0.76 0.2,0.2 0.47,0.29 0.8,0.29 0.41,0 0.73,-0.14 0.96,-0.42l0.72 0.5c-0.39,0.51 -0.95,0.77 -1.66,0.77 -0.64,0 -1.15,-0.19 -1.51,-0.57 -0.36,-0.38 -0.55,-0.83 -0.55,-1.34 0,-0.35 0.09,-0.68 0.27,-0.98 0.18,-0.3 0.43,-0.53 0.74,-0.7 0.32,-0.17 0.67,-0.26 1.07,-0.26 0.36,0 0.69,0.07 0.98,0.22 0.29,0.14 0.53,0.35 0.71,0.62z"/>
  <path id="_23" class="fil0" d="M34.08 9.89c0.35,0 0.67,0.09 0.98,0.26 0.31,0.17 0.54,0.41 0.71,0.7 0.17,0.3 0.26,0.62 0.26,0.96 0,0.34 -0.09,0.67 -0.26,0.97 -0.17,0.3 -0.41,0.53 -0.7,0.7 -0.3,0.17 -0.62,0.25 -0.98,0.25 -0.53,0 -0.98,-0.19 -1.35,-0.56 -0.37,-0.37 -0.56,-0.83 -0.56,-1.36 0,-0.57 0.21,-1.05 0.63,-1.43 0.37,-0.33 0.79,-0.5 1.27,-0.5zm0.01 0.86c-0.29,0 -0.52,0.1 -0.71,0.3 -0.19,0.2 -0.29,0.45 -0.29,0.76 0,0.32 0.09,0.57 0.28,0.77 0.19,0.2 0.43,0.3 0.71,0.3 0.29,0 0.53,-0.1 0.72,-0.3 0.19,-0.2 0.29,-0.46 0.29,-0.77 0,-0.31 -0.09,-0.57 -0.28,-0.76 -0.19,-0.2 -0.43,-0.29 -0.72,-0.29z"/>
  <path id="_24" class="fil0" d="M36.77 13.64l0 -3.66 1.47 0c0.48,0 0.81,0.1 0.98,0.29 0.17,0.19 0.26,0.4 0.26,0.64 0,0.36 -0.18,0.61 -0.53,0.77 0.48,0.17 0.72,0.48 0.72,0.94 0,0.25 -0.06,0.45 -0.19,0.62 -0.13,0.16 -0.29,0.27 -0.49,0.33 -0.2,0.05 -0.47,0.08 -0.82,0.08l-1.41 0zm0.92 -2.22l0.36 0c0.15,0 0.27,-0.04 0.35,-0.11 0.08,-0.07 0.12,-0.16 0.12,-0.25 0,-0.14 -0.04,-0.24 -0.12,-0.32 -0.08,-0.08 -0.17,-0.11 -0.28,-0.11l-0.12 0 -0.31 0 0 0.79zm0 1.51l0.47 0c0.18,0 0.31,-0.04 0.38,-0.13 0.07,-0.08 0.11,-0.17 0.11,-0.24 0,-0.12 -0.04,-0.23 -0.12,-0.32 -0.08,-0.1 -0.23,-0.15 -0.45,-0.15l-0.39 0 0 0.84z"/>
 </g>
</svg>
