<?xml version="1.0" encoding="UTF-8"?>
<!DOCTYPE svg PUBLIC "-//W3C//DTD SVG 1.1//EN" "http://www.w3.org/Graphics/SVG/1.1/DTD/svg11.dtd">
<!-- Creator: CorelDRAW 2019 (64-Bit) -->
<svg xmlns="http://www.w3.org/2000/svg" xml:space="preserve" width="6.25667cm" height="1.49884cm" version="1.1" style="shape-rendering:geometricPrecision; text-rendering:geometricPrecision; image-rendering:optimizeQuality; fill-rule:evenodd; clip-rule:evenodd"
viewBox="0 0 5.626 1.348"
 xmlns:xlink="http://www.w3.org/1999/xlink"
 xmlns:xodm="http://www.corel.com/coreldraw/odm/2003">
 <defs>
  <style type="text/css">
   <![CDATA[
    .fil0 {fill:#FF9400;fill-rule:nonzero}
   ]]>
  </style>
 </defs>
 <g id="Слой_x0020_1">
  <metadata id="CorelCorpID_0Corel-Layer"/>
  <polygon class="fil0" points="0.009,0 0.337,0 0.337,0.456 0.249,0.456 0.249,0.081 0.097,0.081 0.097,0.456 0.009,0.456 "/>
  <path id="1" class="fil0" d="M0.769 0.311l-0.271 0c0.004,0.024 0.014,0.043 0.031,0.057 0.017,0.014 0.039,0.021 0.065,0.021 0.032,0 0.058,-0.011 0.081,-0.033l0.071 0.034c-0.018,0.025 -0.039,0.044 -0.064,0.056 -0.025,0.012 -0.054,0.018 -0.088,0.018 -0.053,0 -0.096,-0.017 -0.129,-0.05 -0.033,-0.033 -0.05,-0.075 -0.05,-0.125 0,-0.051 0.017,-0.094 0.05,-0.128 0.033,-0.034 0.075,-0.051 0.125,-0.051 0.053,0 0.096,0.017 0.129,0.051 0.033,0.034 0.05,0.078 0.05,0.134l-0 0.016zm-0.084 -0.066c-0.006,-0.018 -0.017,-0.033 -0.033,-0.045 -0.016,-0.012 -0.036,-0.017 -0.057,-0.017 -0.024,0 -0.044,0.006 -0.062,0.019 -0.011,0.008 -0.021,0.022 -0.031,0.043l0.183 0z"/>
  <polygon id="2" class="fil0" points="0.922,0.24 1.049,0.24 1.049,0.119 1.133,0.119 1.133,0.456 1.049,0.456 1.049,0.316 0.922,0.316 0.922,0.456 0.838,0.456 0.838,0.119 0.922,0.119 "/>
  <path id="3" class="fil0" d="M1.548 0.187l-0.07 0.039c-0.013,-0.014 -0.026,-0.023 -0.039,-0.029 -0.013,-0.005 -0.028,-0.008 -0.045,-0.008 -0.032,0 -0.057,0.009 -0.077,0.028 -0.02,0.019 -0.029,0.043 -0.029,0.072 0,0.029 0.009,0.052 0.028,0.07 0.019,0.018 0.043,0.027 0.074,0.027 0.038,0 0.067,-0.013 0.088,-0.039l0.067 0.046c-0.036,0.047 -0.087,0.07 -0.153,0.07 -0.059,0 -0.106,-0.018 -0.139,-0.053 -0.034,-0.035 -0.05,-0.076 -0.05,-0.123 0,-0.033 0.008,-0.062 0.024,-0.09 0.016,-0.027 0.039,-0.049 0.068,-0.065 0.029,-0.016 0.062,-0.023 0.098,-0.023 0.034,0 0.064,0.007 0.09,0.02 0.027,0.013 0.048,0.032 0.065,0.057z"/>
  <polygon id="4" class="fil0" points="1.669,0.456 1.625,0.456 1.625,0.119 1.707,0.119 1.707,0.316 1.88,0.119 1.92,0.119 1.92,0.456 1.838,0.456 1.838,0.262 "/>
  <polygon id="5" class="fil0" points="2.05,0.456 2.005,0.456 2.005,0.119 2.088,0.119 2.088,0.316 2.26,0.119 2.301,0.119 2.301,0.456 2.218,0.456 2.218,0.262 "/>
  <path id="6" class="fil0" d="M2.564 0.456l0 -0.337 0.136 0c0.044,0 0.075,0.009 0.091,0.026 0.016,0.017 0.024,0.037 0.024,0.059 0,0.033 -0.016,0.056 -0.049,0.071 0.044,0.015 0.067,0.044 0.067,0.086 0,0.023 -0.006,0.042 -0.018,0.057 -0.012,0.015 -0.027,0.025 -0.045,0.03 -0.018,0.005 -0.043,0.007 -0.076,0.007l-0.13 0zm0.084 -0.204l0.033 0c0.014,0 0.025,-0.003 0.032,-0.01 0.008,-0.007 0.011,-0.015 0.011,-0.023 0,-0.013 -0.004,-0.022 -0.011,-0.029 -0.007,-0.007 -0.016,-0.01 -0.026,-0.01l-0.011 0 -0.029 0 0 0.073zm0 0.139l0.043 0c0.017,0 0.028,-0.004 0.035,-0.012 0.007,-0.008 0.01,-0.015 0.01,-0.023 0,-0.011 -0.004,-0.021 -0.011,-0.03 -0.008,-0.009 -0.021,-0.014 -0.041,-0.014l-0.036 0 0 0.077z"/>
  <path id="7" class="fil0" d="M2.987 0.24l0.025 0c0.036,0 0.063,0.003 0.082,0.008 0.019,0.005 0.035,0.017 0.048,0.034 0.013,0.017 0.02,0.039 0.02,0.065 0,0.026 -0.006,0.048 -0.018,0.065 -0.012,0.017 -0.027,0.029 -0.045,0.034 -0.018,0.006 -0.044,0.008 -0.077,0.008l-0.119 0 0 -0.337 0.084 0 0 0.122zm0 0.15l0.026 0c0.015,0 0.027,-0.001 0.033,-0.003 0.007,-0.002 0.013,-0.006 0.018,-0.012 0.005,-0.006 0.008,-0.014 0.008,-0.023 0,-0.029 -0.017,-0.043 -0.05,-0.043l-0.035 0 0 0.081zm0.233 -0.272l0.084 0 0 0.337 -0.084 0 0 -0.337z"/>
  <path id="8" class="fil0" d="M3.475 0.119l0 0.037c0.015,-0.015 0.032,-0.026 0.049,-0.034 0.018,-0.008 0.037,-0.011 0.057,-0.011 0.044,0 0.081,0.017 0.112,0.05 0.031,0.033 0.046,0.076 0.046,0.128 0,0.05 -0.016,0.092 -0.048,0.126 -0.032,0.034 -0.069,0.051 -0.113,0.051 -0.019,0 -0.037,-0.003 -0.054,-0.01 -0.017,-0.007 -0.033,-0.018 -0.05,-0.034l0 0.159 -0.084 0 0 -0.46 0.084 0zm0.089 0.069c-0.027,0 -0.049,0.009 -0.066,0.027 -0.018,0.018 -0.026,0.042 -0.026,0.071 0,0.03 0.009,0.054 0.026,0.073 0.017,0.019 0.04,0.028 0.066,0.028 0.026,0 0.047,-0.009 0.065,-0.028 0.018,-0.019 0.026,-0.043 0.026,-0.072 0,-0.029 -0.009,-0.053 -0.026,-0.071 -0.017,-0.019 -0.039,-0.028 -0.066,-0.028z"/>
  <path id="9" class="fil0" d="M4.058 0.119l0.084 0 0 0.337 -0.084 0 0 -0.036c-0.016,0.016 -0.033,0.027 -0.05,0.034 -0.017,0.007 -0.035,0.01 -0.054,0.01 -0.044,0 -0.081,-0.017 -0.113,-0.051 -0.032,-0.034 -0.048,-0.075 -0.048,-0.126 0,-0.052 0.015,-0.094 0.046,-0.128 0.031,-0.033 0.068,-0.05 0.112,-0.05 0.02,0 0.039,0.004 0.057,0.011 0.018,0.008 0.034,0.019 0.049,0.034l0 -0.037zm-0.089 0.069c-0.026,0 -0.048,0.009 -0.065,0.028 -0.017,0.018 -0.026,0.042 -0.026,0.071 0,0.029 0.009,0.053 0.026,0.072 0.018,0.019 0.039,0.028 0.065,0.028 0.027,0 0.049,-0.009 0.066,-0.028 0.018,-0.018 0.026,-0.043 0.026,-0.073 0,-0.029 -0.009,-0.053 -0.026,-0.071 -0.017,-0.018 -0.04,-0.027 -0.066,-0.027z"/>
  <path id="10" class="fil0" d="M4.558 0.187l-0.07 0.039c-0.013,-0.014 -0.026,-0.023 -0.039,-0.029 -0.013,-0.005 -0.028,-0.008 -0.045,-0.008 -0.032,0 -0.057,0.009 -0.077,0.028 -0.02,0.019 -0.029,0.043 -0.029,0.072 0,0.029 0.009,0.052 0.028,0.07 0.019,0.018 0.043,0.027 0.074,0.027 0.038,0 0.067,-0.013 0.088,-0.039l0.067 0.046c-0.036,0.047 -0.087,0.07 -0.153,0.07 -0.059,0 -0.106,-0.018 -0.139,-0.053 -0.034,-0.035 -0.05,-0.076 -0.05,-0.123 0,-0.033 0.008,-0.062 0.024,-0.09 0.016,-0.027 0.039,-0.049 0.068,-0.065 0.029,-0.016 0.062,-0.023 0.098,-0.023 0.034,0 0.064,0.007 0.09,0.02 0.027,0.013 0.048,0.032 0.065,0.057z"/>
  <polygon id="11" class="fil0" points="4.604,0.119 4.918,0.119 4.918,0.199 4.806,0.199 4.806,0.456 4.722,0.456 4.722,0.199 4.604,0.199 "/>
  <polygon id="12" class="fil0" points="4.936,0.119 5.023,0.119 5.11,0.33 5.207,0.119 5.293,0.119 5.082,0.579 4.996,0.579 5.064,0.431 "/>
  <polygon id="13" class="fil0" points="5.312,0.119 5.626,0.119 5.626,0.199 5.513,0.199 5.513,0.456 5.429,0.456 5.429,0.199 5.312,0.199 "/>
  <path id="14" class="fil0" d="M-0 1.225l0 -0.337 0.136 0c0.044,0 0.075,0.009 0.091,0.026 0.016,0.017 0.024,0.037 0.024,0.059 0,0.033 -0.016,0.056 -0.049,0.071 0.044,0.015 0.067,0.044 0.067,0.086 0,0.023 -0.006,0.042 -0.018,0.057 -0.012,0.015 -0.027,0.025 -0.045,0.03 -0.018,0.005 -0.043,0.007 -0.076,0.007l-0.13 0zm0.084 -0.204l0.033 0c0.014,0 0.025,-0.003 0.032,-0.01 0.008,-0.007 0.011,-0.015 0.011,-0.023 0,-0.013 -0.004,-0.022 -0.011,-0.029 -0.007,-0.007 -0.016,-0.01 -0.026,-0.01l-0.011 0 -0.029 0 0 0.073zm0 0.139l0.043 0c0.017,0 0.028,-0.004 0.035,-0.012 0.007,-0.008 0.01,-0.015 0.01,-0.023 0,-0.011 -0.004,-0.021 -0.011,-0.03 -0.008,-0.009 -0.021,-0.014 -0.041,-0.014l-0.036 0 0 0.077z"/>
  <path id="15" class="fil0" d="M0.585 0.916l-0.084 0c0.002,-0.049 0.018,-0.088 0.046,-0.116 0.029,-0.028 0.065,-0.042 0.11,-0.042 0.028,0 0.052,0.006 0.073,0.018 0.021,0.012 0.038,0.028 0.051,0.05 0.013,0.022 0.019,0.044 0.019,0.067 0,0.027 -0.008,0.056 -0.023,0.087 -0.015,0.031 -0.044,0.068 -0.085,0.111l-0.051 0.054 0.163 0 0 0.08 -0.316 0 0 -0.041 0.141 -0.144c0.034,-0.034 0.057,-0.062 0.068,-0.083 0.011,-0.021 0.017,-0.04 0.017,-0.057 0,-0.018 -0.006,-0.032 -0.017,-0.044 -0.012,-0.011 -0.027,-0.017 -0.045,-0.017 -0.019,0 -0.034,0.007 -0.047,0.021 -0.012,0.014 -0.019,0.033 -0.02,0.057z"/>
  <path id="16" class="fil0" d="M1.006 0.758c0.033,0 0.062,0.008 0.086,0.024 0.024,0.016 0.043,0.041 0.056,0.075 0.013,0.034 0.02,0.08 0.02,0.14 0,0.06 -0.007,0.108 -0.02,0.141 -0.013,0.034 -0.031,0.058 -0.054,0.074 -0.022,0.016 -0.051,0.024 -0.085,0.024 -0.034,0 -0.063,-0.008 -0.086,-0.024 -0.023,-0.016 -0.042,-0.04 -0.055,-0.073 -0.013,-0.032 -0.02,-0.078 -0.02,-0.138 0,-0.084 0.013,-0.144 0.039,-0.182 0.029,-0.041 0.069,-0.062 0.12,-0.062zm0.003 0.082c-0.015,0 -0.027,0.005 -0.039,0.014 -0.011,0.009 -0.02,0.025 -0.026,0.048 -0.006,0.023 -0.009,0.056 -0.009,0.1 0,0.057 0.007,0.097 0.021,0.119 0.014,0.022 0.031,0.033 0.053,0.033 0.021,0 0.038,-0.01 0.05,-0.031 0.015,-0.025 0.023,-0.067 0.023,-0.126 0,-0.06 -0.007,-0.101 -0.02,-0.123 -0.013,-0.023 -0.031,-0.034 -0.052,-0.034z"/>
  <path id="17" class="fil0" d="M1.295 0.916l-0.084 0c0.002,-0.049 0.018,-0.088 0.046,-0.116 0.029,-0.028 0.065,-0.042 0.11,-0.042 0.028,0 0.052,0.006 0.073,0.018 0.021,0.012 0.038,0.028 0.051,0.05 0.013,0.022 0.019,0.044 0.019,0.067 0,0.027 -0.008,0.056 -0.023,0.087 -0.015,0.031 -0.044,0.068 -0.085,0.111l-0.051 0.054 0.163 0 0 0.08 -0.316 0 0 -0.041 0.141 -0.144c0.034,-0.034 0.057,-0.062 0.068,-0.083 0.011,-0.021 0.017,-0.04 0.017,-0.057 0,-0.018 -0.006,-0.032 -0.017,-0.044 -0.012,-0.011 -0.027,-0.017 -0.045,-0.017 -0.019,0 -0.034,0.007 -0.047,0.021 -0.012,0.014 -0.019,0.033 -0.02,0.057z"/>
  <polygon id="18" class="fil0" points="1.644,0.769 1.774,0.769 1.774,1.225 1.688,1.225 1.688,0.85 1.594,0.85 "/>
  <polygon id="19" class="fil0" points="2.116,0.888 2.312,0.888 2.312,0.968 2.2,0.968 2.2,1.225 2.116,1.225 "/>
  <path id="20" class="fil0" d="M2.528 0.88c0.032,0 0.062,0.008 0.09,0.024 0.028,0.016 0.05,0.037 0.066,0.065 0.016,0.027 0.024,0.057 0.024,0.088 0,0.032 -0.008,0.061 -0.024,0.089 -0.016,0.028 -0.037,0.049 -0.065,0.065 -0.027,0.016 -0.057,0.023 -0.09,0.023 -0.048,0 -0.09,-0.017 -0.124,-0.051 -0.034,-0.034 -0.051,-0.076 -0.051,-0.125 0,-0.053 0.019,-0.096 0.058,-0.131 0.034,-0.03 0.073,-0.046 0.117,-0.046zm0.001 0.079c-0.026,0 -0.048,0.009 -0.066,0.027 -0.017,0.018 -0.026,0.042 -0.026,0.07 0,0.029 0.009,0.053 0.026,0.071 0.017,0.018 0.039,0.027 0.066,0.027 0.026,0 0.048,-0.009 0.066,-0.027 0.018,-0.018 0.026,-0.042 0.026,-0.071 0,-0.029 -0.009,-0.052 -0.026,-0.07 -0.017,-0.018 -0.039,-0.027 -0.066,-0.027z"/>
  <path id="21" class="fil0" d="M2.819 1.225l0 0.058 -0.076 0 0 -0.13 0.051 0 0.117 -0.265 0.055 0 0.118 0.265 0.052 0 0 0.13 -0.081 0 0 -0.058 -0.235 0zm0.174 -0.072l-0.055 -0.142 -0.058 0.142 0.113 0z"/>
  <polygon id="22" class="fil0" points="3.151,0.888 3.237,0.888 3.325,1.099 3.421,0.888 3.508,0.888 3.297,1.348 3.211,1.348 3.279,1.2 "/>
 </g>
</svg>
