<?xml version="1.0" encoding="UTF-8"?>
<!DOCTYPE svg PUBLIC "-//W3C//DTD SVG 1.1//EN" "http://www.w3.org/Graphics/SVG/1.1/DTD/svg11.dtd">
<!-- Creator: CorelDRAW -->
<svg xmlns="http://www.w3.org/2000/svg" xml:space="preserve" width="93.4728mm" height="14.9884mm" version="1.1" style="shape-rendering:geometricPrecision; text-rendering:geometricPrecision; image-rendering:optimizeQuality; fill-rule:evenodd; clip-rule:evenodd"
viewBox="0 0 115.85 18.58"
 xmlns:xlink="http://www.w3.org/1999/xlink"
 xmlns:xodm="http://www.corel.com/coreldraw/odm/2003">
 <defs>
  <style type="text/css">
   <![CDATA[
    .fil0 {fill:#C29138;fill-rule:nonzero}
   ]]>
  </style>
 </defs>
 <g id="Слой_x0020_1">
  <metadata id="CorelCorpID_0Corel-Layer"/>
  <path class="fil0" d="M29.37 6.28l0 -6.28 0.99 0c0.58,0 1,0.04 1.26,0.11 0.38,0.1 0.68,0.29 0.9,0.56 0.22,0.27 0.34,0.59 0.34,0.96 0,0.24 -0.05,0.46 -0.15,0.65 -0.1,0.2 -0.27,0.38 -0.49,0.55 0.38,0.18 0.66,0.4 0.84,0.67 0.18,0.27 0.26,0.59 0.26,0.95 0,0.35 -0.09,0.67 -0.27,0.96 -0.18,0.29 -0.42,0.51 -0.71,0.65 -0.29,0.14 -0.69,0.22 -1.2,0.22l-1.77 0zm1.19 -5.14l0 1.33 0.27 0c0.3,0 0.52,-0.06 0.66,-0.19 0.14,-0.12 0.22,-0.29 0.22,-0.5 0,-0.2 -0.07,-0.35 -0.21,-0.47 -0.14,-0.12 -0.35,-0.17 -0.63,-0.17l-0.31 0zm0 2.4l0 1.61 0.3 0c0.5,0 0.84,-0.06 1.02,-0.19 0.17,-0.13 0.26,-0.31 0.26,-0.55 0,-0.27 -0.1,-0.48 -0.31,-0.64 -0.21,-0.16 -0.55,-0.23 -1.02,-0.23l-0.25 0z"/>
  <path id="_1" class="fil0" d="M41.32 2.58l-0.97 0.53c-0.18,-0.19 -0.36,-0.32 -0.54,-0.4 -0.18,-0.07 -0.39,-0.11 -0.63,-0.11 -0.44,0 -0.79,0.13 -1.06,0.39 -0.27,0.26 -0.4,0.59 -0.4,1 0,0.39 0.13,0.71 0.39,0.96 0.26,0.25 0.6,0.37 1.02,0.37 0.52,0 0.93,-0.18 1.22,-0.53l0.92 0.63c-0.5,0.65 -1.2,0.97 -2.11,0.97 -0.82,0 -1.46,-0.24 -1.92,-0.72 -0.46,-0.48 -0.69,-1.05 -0.69,-1.69 0,-0.45 0.11,-0.86 0.34,-1.24 0.23,-0.38 0.54,-0.67 0.94,-0.89 0.4,-0.22 0.85,-0.32 1.35,-0.32 0.46,0 0.88,0.09 1.24,0.28 0.37,0.18 0.67,0.44 0.9,0.78z"/>
  <polygon id="_2" class="fil0" points="41.85,1.64 43.04,1.64 44.25,4.54 45.58,1.64 46.77,1.64 43.87,7.98 42.67,7.98 43.62,5.94 "/>
  <path id="_3" class="fil0" d="M48.04 6.28l0 0.8 -1.04 0 0 -1.79 0.7 0 1.61 -3.66 0.75 0 1.62 3.66 0.71 0 0 1.79 -1.11 0 0 -0.8 -3.24 0zm2.4 -0.99l-0.76 -1.96 -0.8 1.96 1.56 0z"/>
  <polygon id="_4" class="fil0" points="56.74,6.28 55.58,6.28 55.58,1.64 59.65,1.64 59.65,6.28 58.49,6.28 58.49,2.75 56.74,2.75 "/>
  <path id="_5" class="fil0" d="M63.01 1.52c0.44,0 0.85,0.11 1.24,0.33 0.39,0.22 0.69,0.51 0.91,0.89 0.22,0.38 0.32,0.78 0.32,1.21 0,0.44 -0.11,0.85 -0.33,1.23 -0.22,0.38 -0.52,0.68 -0.89,0.89 -0.38,0.21 -0.79,0.32 -1.24,0.32 -0.67,0 -1.24,-0.24 -1.71,-0.71 -0.47,-0.47 -0.71,-1.05 -0.71,-1.72 0,-0.72 0.27,-1.33 0.8,-1.81 0.47,-0.42 1,-0.63 1.61,-0.63zm0.02 1.09c-0.36,0 -0.66,0.13 -0.91,0.38 -0.24,0.25 -0.36,0.57 -0.36,0.96 0,0.4 0.12,0.73 0.36,0.98 0.24,0.25 0.54,0.37 0.91,0.37 0.36,0 0.67,-0.13 0.91,-0.38 0.24,-0.25 0.36,-0.58 0.36,-0.97 0,-0.4 -0.12,-0.72 -0.36,-0.97 -0.24,-0.25 -0.54,-0.37 -0.91,-0.37z"/>
  <path id="_6" class="fil0" d="M70.97 2.58l-0.97 0.53c-0.18,-0.19 -0.36,-0.32 -0.54,-0.4 -0.18,-0.07 -0.39,-0.11 -0.63,-0.11 -0.44,0 -0.79,0.13 -1.06,0.39 -0.27,0.26 -0.4,0.59 -0.4,1 0,0.39 0.13,0.71 0.39,0.96 0.26,0.25 0.6,0.37 1.02,0.37 0.52,0 0.93,-0.18 1.22,-0.53l0.92 0.63c-0.5,0.65 -1.2,0.97 -2.11,0.97 -0.82,0 -1.46,-0.24 -1.92,-0.72 -0.46,-0.48 -0.69,-1.05 -0.69,-1.69 0,-0.45 0.11,-0.86 0.34,-1.24 0.23,-0.38 0.54,-0.67 0.94,-0.89 0.4,-0.22 0.85,-0.32 1.35,-0.32 0.46,0 0.88,0.09 1.24,0.28 0.37,0.18 0.67,0.44 0.9,0.78z"/>
  <path id="_7" class="fil0" d="M73.19 1.64l0 0.51c0.21,-0.21 0.44,-0.36 0.68,-0.47 0.24,-0.1 0.51,-0.16 0.79,-0.16 0.6,0 1.12,0.23 1.54,0.68 0.42,0.46 0.64,1.04 0.64,1.76 0,0.69 -0.22,1.27 -0.66,1.73 -0.44,0.46 -0.96,0.7 -1.56,0.7 -0.27,0 -0.52,-0.05 -0.75,-0.14 -0.23,-0.09 -0.46,-0.25 -0.69,-0.47l0 2.19 -1.16 0 0 -6.34 1.16 0zm1.22 0.95c-0.37,0 -0.67,0.13 -0.91,0.37 -0.24,0.25 -0.36,0.58 -0.36,0.98 0,0.41 0.12,0.75 0.36,1 0.24,0.26 0.55,0.38 0.91,0.38 0.36,0 0.65,-0.13 0.9,-0.39 0.24,-0.26 0.36,-0.59 0.36,-0.99 0,-0.4 -0.12,-0.72 -0.36,-0.98 -0.24,-0.26 -0.54,-0.38 -0.9,-0.38z"/>
  <path id="_8" class="fil0" d="M82.44 4.28l-3.74 0c0.05,0.33 0.2,0.59 0.43,0.79 0.23,0.2 0.53,0.29 0.89,0.29 0.43,0 0.81,-0.15 1.12,-0.46l0.98 0.46c-0.24,0.35 -0.54,0.6 -0.88,0.77 -0.34,0.17 -0.74,0.25 -1.21,0.25 -0.73,0 -1.32,-0.23 -1.77,-0.69 -0.46,-0.46 -0.69,-1.03 -0.69,-1.72 0,-0.71 0.23,-1.29 0.69,-1.76 0.46,-0.47 1.03,-0.7 1.72,-0.7 0.73,0 1.32,0.23 1.78,0.7 0.46,0.47 0.69,1.08 0.69,1.85l-0 0.22zm-1.16 -0.91c-0.08,-0.25 -0.23,-0.46 -0.45,-0.62 -0.23,-0.16 -0.49,-0.24 -0.79,-0.24 -0.33,0 -0.61,0.09 -0.86,0.27 -0.15,0.11 -0.3,0.31 -0.43,0.59l2.53 0z"/>
  <path id="_9" class="fil0" d="M84 6.28l0 0.8 -1.04 0 0 -1.79 0.7 0 1.61 -3.66 0.75 0 1.62 3.66 0.71 0 0 1.79 -1.11 0 0 -0.8 -3.24 0zm2.4 -0.99l-0.76 -1.96 -0.8 1.96 1.56 0z"/>
  <path id="_10" class="fil0" d="M93.63 2.58l-0.97 0.53c-0.18,-0.19 -0.36,-0.32 -0.54,-0.4 -0.18,-0.07 -0.39,-0.11 -0.63,-0.11 -0.44,0 -0.79,0.13 -1.06,0.39 -0.27,0.26 -0.4,0.59 -0.4,1 0,0.39 0.13,0.71 0.39,0.96 0.26,0.25 0.6,0.37 1.02,0.37 0.52,0 0.93,-0.18 1.22,-0.53l0.92 0.63c-0.5,0.65 -1.2,0.97 -2.11,0.97 -0.82,0 -1.46,-0.24 -1.92,-0.72 -0.46,-0.48 -0.69,-1.05 -0.69,-1.69 0,-0.45 0.11,-0.86 0.34,-1.24 0.23,-0.38 0.54,-0.67 0.94,-0.89 0.4,-0.22 0.85,-0.32 1.35,-0.32 0.46,0 0.88,0.09 1.24,0.28 0.37,0.18 0.67,0.44 0.9,0.78z"/>
  <polygon id="_11" class="fil0" points="94.27,1.64 98.6,1.64 98.6,2.75 97.05,2.75 97.05,6.28 95.89,6.28 95.89,2.75 94.27,2.75 "/>
  <path id="_12" class="fil0" d="M99.36 6.28l0 -4.64 1.87 0c0.61,0 1.03,0.12 1.25,0.36 0.22,0.24 0.33,0.51 0.33,0.82 0,0.45 -0.22,0.78 -0.67,0.98 0.61,0.21 0.92,0.61 0.92,1.19 0,0.31 -0.08,0.58 -0.24,0.78 -0.16,0.21 -0.37,0.34 -0.62,0.41 -0.25,0.07 -0.6,0.1 -1.04,0.1l-1.79 0zm1.16 -2.82l0.45 0c0.19,0 0.34,-0.05 0.45,-0.14 0.1,-0.09 0.16,-0.2 0.16,-0.32 0,-0.17 -0.05,-0.31 -0.15,-0.41 -0.1,-0.1 -0.22,-0.14 -0.36,-0.14l-0.15 0 -0.4 0 0 1.01zm0 1.92l0.59 0c0.23,0 0.39,-0.05 0.49,-0.16 0.09,-0.11 0.14,-0.21 0.14,-0.31 0,-0.15 -0.05,-0.29 -0.16,-0.41 -0.1,-0.12 -0.29,-0.19 -0.57,-0.19l-0.49 0 0 1.07z"/>
  <path id="_13" class="fil0" d="M106.23 1.52c0.44,0 0.85,0.11 1.24,0.33 0.39,0.22 0.69,0.51 0.91,0.89 0.22,0.38 0.32,0.78 0.32,1.21 0,0.44 -0.11,0.85 -0.33,1.23 -0.22,0.38 -0.52,0.68 -0.89,0.89 -0.38,0.21 -0.79,0.32 -1.24,0.32 -0.67,0 -1.24,-0.24 -1.71,-0.71 -0.47,-0.47 -0.71,-1.05 -0.71,-1.72 0,-0.72 0.27,-1.33 0.8,-1.81 0.47,-0.42 1,-0.63 1.61,-0.63zm0.02 1.09c-0.36,0 -0.66,0.13 -0.91,0.38 -0.24,0.25 -0.36,0.57 -0.36,0.96 0,0.4 0.12,0.73 0.36,0.98 0.24,0.25 0.54,0.37 0.91,0.37 0.36,0 0.67,-0.13 0.91,-0.38 0.24,-0.25 0.36,-0.58 0.36,-0.97 0,-0.4 -0.12,-0.72 -0.36,-0.97 -0.24,-0.25 -0.54,-0.37 -0.91,-0.37z"/>
  <polygon id="_14" class="fil0" points="112.49,4.56 113.92,1.64 114.69,1.64 115.85,6.28 114.71,6.28 114.09,3.55 112.7,6.28 112.22,6.28 110.87,3.55 110.24,6.28 109.11,6.28 110.27,1.64 111.04,1.64 "/>
  <polygon id="_15" class="fil0" points="-0,10.6 3.43,10.6 3.43,11.77 1.19,11.77 1.19,12.9 3.43,12.9 3.43,14.06 1.19,14.06 1.19,15.71 3.43,15.71 3.43,16.88 -0,16.88 "/>
  <path id="_16" class="fil0" d="M5.01 16.88l0 0.8 -1.04 0 0 -1.79 0.7 0 1.61 -3.66 0.75 0 1.62 3.66 0.71 0 0 1.79 -1.11 0 0 -0.8 -3.24 0zm2.4 -0.99l-0.76 -1.96 -0.8 1.96 1.56 0z"/>
  <polygon id="_17" class="fil0" points="10.72,16.88 10.1,16.88 10.1,12.24 11.24,12.24 11.24,14.96 13.61,12.24 14.17,12.24 14.17,16.88 13.04,16.88 13.04,14.21 "/>
  <polygon id="_18" class="fil0" points="16.51,13.91 18.26,13.91 18.26,12.24 19.42,12.24 19.42,16.88 18.26,16.88 18.26,14.96 16.51,14.96 16.51,16.88 15.35,16.88 15.35,12.24 16.51,12.24 "/>
  <path id="_19" class="fil0" d="M22.78 12.12c0.44,0 0.85,0.11 1.24,0.33 0.39,0.22 0.69,0.51 0.91,0.89 0.22,0.38 0.32,0.78 0.32,1.21 0,0.44 -0.11,0.85 -0.33,1.23 -0.22,0.38 -0.52,0.68 -0.89,0.89 -0.38,0.21 -0.79,0.32 -1.24,0.32 -0.67,0 -1.24,-0.24 -1.71,-0.71 -0.47,-0.47 -0.71,-1.05 -0.71,-1.72 0,-0.72 0.27,-1.33 0.8,-1.81 0.47,-0.42 1,-0.63 1.61,-0.63zm0.02 1.09c-0.36,0 -0.66,0.13 -0.91,0.38 -0.24,0.25 -0.36,0.57 -0.36,0.96 0,0.4 0.12,0.73 0.36,0.98 0.24,0.25 0.54,0.37 0.91,0.37 0.36,0 0.67,-0.13 0.91,-0.38 0.24,-0.25 0.36,-0.58 0.36,-0.97 0,-0.4 -0.12,-0.72 -0.36,-0.97 -0.24,-0.25 -0.54,-0.37 -0.91,-0.37z"/>
  <polygon id="_20" class="fil0" points="26.19,12.24 28.9,12.24 28.9,13.35 27.36,13.35 27.36,16.88 26.19,16.88 "/>
  <path id="_21" class="fil0" d="M31.87 12.12c0.44,0 0.85,0.11 1.24,0.33 0.39,0.22 0.69,0.51 0.91,0.89 0.22,0.38 0.32,0.78 0.32,1.21 0,0.44 -0.11,0.85 -0.33,1.23 -0.22,0.38 -0.52,0.68 -0.89,0.89 -0.38,0.21 -0.79,0.32 -1.24,0.32 -0.67,0 -1.24,-0.24 -1.71,-0.71 -0.47,-0.47 -0.71,-1.05 -0.71,-1.72 0,-0.72 0.27,-1.33 0.8,-1.81 0.47,-0.42 1,-0.63 1.61,-0.63zm0.02 1.09c-0.36,0 -0.66,0.13 -0.91,0.38 -0.24,0.25 -0.36,0.57 -0.36,0.96 0,0.4 0.12,0.73 0.36,0.98 0.24,0.25 0.54,0.37 0.91,0.37 0.36,0 0.67,-0.13 0.91,-0.38 0.24,-0.25 0.36,-0.58 0.36,-0.97 0,-0.4 -0.12,-0.72 -0.36,-0.97 -0.24,-0.25 -0.54,-0.37 -0.91,-0.37z"/>
  <polygon id="_22" class="fil0" points="38.9,16.88 37.73,16.88 37.73,12.24 41.81,12.24 41.81,16.88 40.65,16.88 40.65,13.36 38.9,13.36 "/>
  <path id="_23" class="fil0" d="M45.17 12.12c0.44,0 0.85,0.11 1.24,0.33 0.39,0.22 0.69,0.51 0.91,0.89 0.22,0.38 0.32,0.78 0.32,1.21 0,0.44 -0.11,0.85 -0.33,1.23 -0.22,0.38 -0.52,0.68 -0.89,0.89 -0.38,0.21 -0.79,0.32 -1.24,0.32 -0.67,0 -1.24,-0.24 -1.71,-0.71 -0.47,-0.47 -0.71,-1.05 -0.71,-1.72 0,-0.72 0.27,-1.33 0.8,-1.81 0.47,-0.42 1,-0.63 1.61,-0.63zm0.02 1.09c-0.36,0 -0.66,0.13 -0.91,0.38 -0.24,0.25 -0.36,0.57 -0.36,0.96 0,0.4 0.12,0.73 0.36,0.98 0.24,0.25 0.54,0.37 0.91,0.37 0.36,0 0.67,-0.13 0.91,-0.38 0.24,-0.25 0.36,-0.58 0.36,-0.97 0,-0.4 -0.12,-0.72 -0.36,-0.97 -0.24,-0.25 -0.54,-0.37 -0.91,-0.37z"/>
  <path id="_24" class="fil0" d="M49.74 12.24l0 0.51c0.21,-0.21 0.44,-0.36 0.68,-0.47 0.24,-0.1 0.51,-0.16 0.79,-0.16 0.6,0 1.12,0.23 1.54,0.68 0.42,0.46 0.64,1.04 0.64,1.76 0,0.69 -0.22,1.27 -0.66,1.73 -0.44,0.46 -0.96,0.7 -1.56,0.7 -0.27,0 -0.52,-0.05 -0.75,-0.14 -0.23,-0.09 -0.46,-0.25 -0.69,-0.47l0 2.19 -1.16 0 0 -6.34 1.16 0zm1.22 0.95c-0.37,0 -0.67,0.13 -0.91,0.37 -0.24,0.25 -0.36,0.58 -0.36,0.98 0,0.41 0.12,0.75 0.36,1 0.24,0.26 0.55,0.38 0.91,0.38 0.36,0 0.65,-0.13 0.9,-0.39 0.24,-0.26 0.36,-0.59 0.36,-0.99 0,-0.4 -0.12,-0.72 -0.36,-0.98 -0.24,-0.26 -0.54,-0.38 -0.9,-0.38z"/>
  <polygon id="_25" class="fil0" points="53.94,12.24 58.27,12.24 58.27,13.35 56.72,13.35 56.72,16.88 55.56,16.88 55.56,13.35 53.94,13.35 "/>
  <path id="_26" class="fil0" d="M62.47 12.24l1.16 0 0 4.64 -1.16 0 0 -0.49c-0.23,0.22 -0.46,0.37 -0.69,0.46 -0.23,0.09 -0.48,0.14 -0.74,0.14 -0.6,0 -1.12,-0.23 -1.56,-0.7 -0.44,-0.46 -0.66,-1.04 -0.66,-1.73 0,-0.72 0.21,-1.3 0.64,-1.76 0.42,-0.46 0.94,-0.68 1.54,-0.68 0.28,0 0.54,0.05 0.79,0.16 0.24,0.1 0.47,0.26 0.68,0.47l0 -0.51zm-1.23 0.95c-0.36,0 -0.66,0.13 -0.9,0.38 -0.24,0.25 -0.36,0.58 -0.36,0.98 0,0.4 0.12,0.73 0.36,0.99 0.24,0.26 0.54,0.39 0.9,0.39 0.37,0 0.67,-0.13 0.91,-0.38 0.24,-0.25 0.36,-0.59 0.36,-1 0,-0.4 -0.12,-0.73 -0.36,-0.98 -0.24,-0.25 -0.55,-0.37 -0.92,-0.37z"/>
  <polygon id="_27" class="fil0" points="68.96,16.88 67.78,16.88 66.61,13.95 65.42,16.88 64.25,16.88 66.22,12.24 66.97,12.24 "/>
  <path id="_28" class="fil0" d="M73.01 12.24l1.16 0 0 4.64 -1.16 0 0 -0.49c-0.23,0.22 -0.46,0.37 -0.69,0.46 -0.23,0.09 -0.48,0.14 -0.74,0.14 -0.6,0 -1.12,-0.23 -1.56,-0.7 -0.44,-0.46 -0.66,-1.04 -0.66,-1.73 0,-0.72 0.21,-1.3 0.64,-1.76 0.42,-0.46 0.94,-0.68 1.54,-0.68 0.28,0 0.54,0.05 0.79,0.16 0.24,0.1 0.47,0.26 0.68,0.47l0 -0.51zm-1.23 0.95c-0.36,0 -0.66,0.13 -0.9,0.38 -0.24,0.25 -0.36,0.58 -0.36,0.98 0,0.4 0.12,0.73 0.36,0.99 0.24,0.26 0.54,0.39 0.9,0.39 0.37,0 0.67,-0.13 0.91,-0.38 0.24,-0.25 0.36,-0.59 0.36,-1 0,-0.4 -0.12,-0.73 -0.36,-0.98 -0.24,-0.25 -0.55,-0.37 -0.92,-0.37z"/>
  <polygon id="_29" class="fil0" points="77.79,12.24 80.5,12.24 80.5,13.35 78.96,13.35 78.96,16.88 77.79,16.88 "/>
  <path id="_30" class="fil0" d="M83.47 12.12c0.44,0 0.85,0.11 1.24,0.33 0.39,0.22 0.69,0.51 0.91,0.89 0.22,0.38 0.32,0.78 0.32,1.21 0,0.44 -0.11,0.85 -0.33,1.23 -0.22,0.38 -0.52,0.68 -0.89,0.89 -0.38,0.21 -0.79,0.32 -1.24,0.32 -0.67,0 -1.24,-0.24 -1.71,-0.71 -0.47,-0.47 -0.71,-1.05 -0.71,-1.72 0,-0.72 0.27,-1.33 0.8,-1.81 0.47,-0.42 1,-0.63 1.61,-0.63zm0.02 1.09c-0.36,0 -0.66,0.13 -0.91,0.38 -0.24,0.25 -0.36,0.57 -0.36,0.96 0,0.4 0.12,0.73 0.36,0.98 0.24,0.25 0.54,0.37 0.91,0.37 0.36,0 0.67,-0.13 0.91,-0.38 0.24,-0.25 0.36,-0.58 0.36,-0.97 0,-0.4 -0.12,-0.72 -0.36,-0.97 -0.24,-0.25 -0.54,-0.37 -0.91,-0.37z"/>
  <path id="_31" class="fil0" d="M91.43 13.18l-0.97 0.53c-0.18,-0.19 -0.36,-0.32 -0.54,-0.4 -0.18,-0.07 -0.39,-0.11 -0.63,-0.11 -0.44,0 -0.79,0.13 -1.06,0.39 -0.27,0.26 -0.4,0.59 -0.4,1 0,0.39 0.13,0.71 0.39,0.96 0.26,0.25 0.6,0.37 1.02,0.37 0.52,0 0.93,-0.18 1.22,-0.53l0.92 0.63c-0.5,0.65 -1.2,0.97 -2.11,0.97 -0.82,0 -1.46,-0.24 -1.92,-0.72 -0.46,-0.48 -0.69,-1.05 -0.69,-1.69 0,-0.45 0.11,-0.86 0.34,-1.24 0.23,-0.38 0.54,-0.67 0.94,-0.89 0.4,-0.22 0.85,-0.32 1.35,-0.32 0.46,0 0.88,0.09 1.24,0.28 0.37,0.18 0.67,0.44 0.9,0.78z"/>
  <polygon id="_32" class="fil0" points="91.97,12.24 93.16,12.24 94.36,15.14 95.7,12.24 96.89,12.24 93.98,18.58 92.79,18.58 93.74,16.54 "/>
  <path id="_33" class="fil0" d="M102.1 13.18l-0.97 0.53c-0.18,-0.19 -0.36,-0.32 -0.54,-0.4 -0.18,-0.07 -0.39,-0.11 -0.63,-0.11 -0.44,0 -0.79,0.13 -1.06,0.39 -0.27,0.26 -0.4,0.59 -0.4,1 0,0.39 0.13,0.71 0.39,0.96 0.26,0.25 0.6,0.37 1.02,0.37 0.52,0 0.93,-0.18 1.22,-0.53l0.92 0.63c-0.5,0.65 -1.2,0.97 -2.11,0.97 -0.82,0 -1.46,-0.24 -1.92,-0.72 -0.46,-0.48 -0.69,-1.05 -0.69,-1.69 0,-0.45 0.11,-0.86 0.34,-1.24 0.23,-0.38 0.54,-0.67 0.94,-0.89 0.4,-0.22 0.85,-0.32 1.35,-0.32 0.46,0 0.88,0.09 1.24,0.28 0.37,0.18 0.67,0.44 0.9,0.78z"/>
  <polygon id="_34" class="fil0" points="107.31,16.88 106.13,16.88 104.96,13.95 103.77,16.88 102.59,16.88 104.57,12.24 105.32,12.24 "/>
  <polygon id="_35" class="fil0" points="107.4,12.24 108.6,12.24 109.8,15.14 111.13,12.24 112.32,12.24 109.42,18.58 108.23,18.58 109.17,16.54 "/>
  <polygon id="_36" class="fil0" points="112.99,12.24 115.7,12.24 115.7,13.35 114.16,13.35 114.16,16.88 112.99,16.88 "/>
 </g>
</svg>
