<?xml version="1.0" encoding="UTF-8" standalone="no"?>
<svg
   xmlns:dc="http://purl.org/dc/elements/1.1/"
   xmlns:cc="http://creativecommons.org/ns#"
   xmlns:rdf="http://www.w3.org/1999/02/22-rdf-syntax-ns#"
   xmlns:svg="http://www.w3.org/2000/svg"
   xmlns="http://www.w3.org/2000/svg"
   xmlns:sodipodi="http://sodipodi.sourceforge.net/DTD/sodipodi-0.dtd"
   xmlns:inkscape="http://www.inkscape.org/namespaces/inkscape"
   width="30.963356pc"
   height="7.342977pc"
   viewBox="0 0 131.07829 31.085274"
   version="1.1"
   id="svg8"
   inkscape:version="1.0.1 (3bc2e813f5, 2020-09-07)"
   sodipodi:docname="3strText.svg">
  <defs
     id="defs2">
    <clipPath
       clipPathUnits="userSpaceOnUse"
       id="clipPath7909">
      <g
         id="use7911"
         inkscape:label="Clip">
        <text
           xml:space="preserve"
           style="font-style:normal;font-weight:normal;font-size:10.5833px;line-height:1.25;font-family:sans-serif;letter-spacing:0px;word-spacing:0px;fill:#ffffff;fill-opacity:1;stroke:none;stroke-width:0.264583"
           x="82.876579"
           y="384.59238"
           id="text174"><tspan
             sodipodi:role="line"
             id="tspan172"
             x="82.876579"
             y="384.59238"
             style="font-style:normal;font-variant:normal;font-weight:normal;font-stretch:normal;font-size:3.52778px;font-family:EuropeDemi;-inkscape-font-specification:EuropeDemi;fill:#ffffff;stroke-width:0.264583"><tspan
               style="font-size:2.82222px"
               id="tspan170">ГЛАЗОВСКАЯ РАЙОННАЯ БИБЛИОТЕКА</tspan></tspan></text>
      </g>
    </clipPath>
  </defs>
  <sodipodi:namedview
     id="base"
     pagecolor="#ffffff"
     bordercolor="#666666"
     borderopacity="1.0"
     inkscape:pageopacity="0"
     inkscape:pageshadow="2"
     inkscape:zoom="1.154038"
     inkscape:cx="250.41343"
     inkscape:cy="4.8749952"
     inkscape:document-units="mm"
     inkscape:current-layer="text4840-6"
     showgrid="false"
     inkscape:lockguides="false"
     showguides="false"
     units="pc"
     inkscape:window-width="1280"
     inkscape:window-height="961"
     inkscape:window-x="-8"
     inkscape:window-y="-8"
     inkscape:window-maximized="1"
     showborder="true"
     inkscape:pagecheckerboard="true"
     inkscape:document-rotation="0"
     fit-margin-top="0"
     fit-margin-left="0"
     fit-margin-right="0"
     fit-margin-bottom="0" />
  <metadata
     id="metadata5">
    <rdf:RDF>
      <cc:Work
         rdf:about="">
        <dc:format>image/svg+xml</dc:format>
        <dc:type
           rdf:resource="http://purl.org/dc/dcmitype/StillImage" />
        <dc:title></dc:title>
      </cc:Work>
    </rdf:RDF>
  </metadata>
  <g
     inkscape:label="Layer 1"
     inkscape:groupmode="layer"
     id="layer1"
     transform="translate(-1.9527415,-276.14296)">
    <g
       aria-label="продлевается"
       id="text4840-6-7"
       style="font-style:normal;font-weight:normal;font-size:47.2099px;line-height:0;font-family:sans-serif;letter-spacing:0px;word-spacing:0px;fill:#ff9400;fill-opacity:1;fill-rule:nonzero;stroke:none;stroke-width:1.18025">
      <path
         d="M 3.2742791,305.30862 H 1.9527415 v -5.24756 h 4.6012661 v 5.24756 H 5.2324699 v -3.97908 H 3.2742791 Z"
         style="font-style:normal;font-variant:normal;font-weight:bold;font-stretch:normal;font-size:9.87777px;line-height:0.15;font-family:'Century Gothic';-inkscape-font-specification:'Century Gothic Bold';fill:#ff9400;fill-opacity:1;fill-rule:nonzero;stroke-width:1.18025"
         id="path1000" />
      <path
         d="m 9.1922599,300.06106 v 0.57877 q 0.3569117,-0.35691 0.7717008,-0.53536 0.4147893,-0.17846 0.8874563,-0.17846 1.027326,0 1.745973,0.77653 0.718646,0.77652 0.718646,1.99195 0,1.17202 -0.742762,1.96301 -0.742762,0.78617 -1.760442,0.78617 -0.453375,0 -0.8440481,-0.15916 -0.3906736,-0.16399 -0.776524,-0.53055 v 2.47427 H 7.8851917 v -7.16717 z m 1.3842381,1.08038 q -0.6221835,0 -1.0321496,0.42444 -0.409966,0.42443 -0.409966,1.10932 0,0.69935 0.409966,1.13343 0.4099661,0.42926 1.0321496,0.42926 0.602892,0 1.012858,-0.43891 0.414789,-0.4389 0.414789,-1.11896 0,-0.67524 -0.405143,-1.1045 -0.405143,-0.43408 -1.022504,-0.43408 z"
         style="font-style:normal;font-variant:normal;font-weight:bold;font-stretch:normal;font-size:9.87777px;line-height:0.15;font-family:'Century Gothic';-inkscape-font-specification:'Century Gothic Bold';fill:#ff9400;fill-opacity:1;fill-rule:nonzero;stroke-width:1.18025"
         id="path1002" />
      <path
         d="m 16.870684,299.92601 q 0.742762,0 1.393884,0.37138 0.655946,0.37138 1.022504,1.00804 0.366558,0.63665 0.366558,1.37459 0,0.74276 -0.371381,1.38906 -0.366558,0.6463 -1.003211,1.01286 -0.636653,0.36173 -1.403531,0.36173 -1.128613,0 -1.929252,-0.80064 -0.795817,-0.80546 -0.795817,-1.95337 0,-1.22989 0.901926,-2.04983 0.790993,-0.71382 1.81832,-0.71382 z m 0.01929,1.23955 q -0.612537,0 -1.022503,0.42925 -0.405143,0.42444 -0.405143,1.09003 0,0.68489 0.40032,1.10932 0.405142,0.42444 1.022503,0.42444 0.617361,0 1.027327,-0.42926 0.409966,-0.42926 0.409966,-1.1045 0,-0.67524 -0.405143,-1.09485 -0.40032,-0.42443 -1.027327,-0.42443 z"
         style="font-style:normal;font-variant:normal;font-weight:bold;font-stretch:normal;font-size:9.87777px;line-height:0.15;font-family:'Century Gothic';-inkscape-font-specification:'Century Gothic Bold';fill:#ff9400;fill-opacity:1;fill-rule:nonzero;stroke-width:1.18025"
         id="path1004" />
      <path
         d="m 21.409248,305.30862 v 0.91158 h -1.172021 v -2.02572 h 0.790993 l 1.808674,-4.13342 h 0.848871 l 1.832789,4.13342 h 0.805463 v 2.02572 h -1.254014 v -0.91158 z m 2.710599,-1.11414 -0.858517,-2.20899 -0.887456,2.20899 z"
         style="font-style:normal;font-variant:normal;font-weight:bold;font-stretch:normal;font-size:9.87777px;line-height:0.15;font-family:'Century Gothic';-inkscape-font-specification:'Century Gothic Bold';fill:#ff9400;fill-opacity:1;fill-rule:nonzero;stroke-width:1.18025"
         id="path1006" />
      <path
         d="m 31.846502,305.30862 h -1.34083 l -1.311891,-3.31349 -1.336007,3.31349 h -1.336007 l 2.237932,-5.24756 h 0.848871 z"
         style="font-style:normal;font-variant:normal;font-weight:bold;font-stretch:normal;font-size:9.87777px;line-height:0.15;font-family:'Century Gothic';-inkscape-font-specification:'Century Gothic Bold';fill:#ff9400;fill-opacity:1;fill-rule:nonzero;stroke-width:1.18025"
         id="path1008" />
      <path
         d="m 37.798246,303.06587 h -4.229885 q 0.09164,0.55948 0.487136,0.89228 0.40032,0.32797 1.01768,0.32797 0.737939,0 1.268483,-0.51607 l 1.10932,0.52089 q -0.414789,0.58843 -0.993564,0.87299 -0.578776,0.27974 -1.374592,0.27974 -1.234722,0 -2.011246,-0.77652 -0.776524,-0.78135 -0.776524,-1.95337 0,-1.20096 0.771701,-1.99195 0.776524,-0.79582 1.943722,-0.79582 1.239544,0 2.016068,0.79582 0.776524,0.79099 0.776524,2.09324 z m -1.321538,-1.03697 q -0.130224,-0.43891 -0.516075,-0.71383 -0.381027,-0.27492 -0.887456,-0.27492 -0.549837,0 -0.964626,0.30868 -0.260449,0.19293 -0.482313,0.68007 z"
         style="font-style:normal;font-variant:normal;font-weight:bold;font-stretch:normal;font-size:9.87777px;line-height:0.15;font-family:'Century Gothic';-inkscape-font-specification:'Century Gothic Bold';fill:#ff9400;fill-opacity:1;fill-rule:nonzero;stroke-width:1.18025"
         id="path1010" />
      <path
         d="m 38.864158,305.30862 v -5.24756 h 2.107708 q 1.036973,0 1.408354,0.40996 0.371381,0.40515 0.371381,0.92122 0,0.76688 -0.762055,1.1045 1.041796,0.35691 1.041796,1.34565 0,0.53537 -0.274918,0.88746 -0.274919,0.34726 -0.699354,0.46302 -0.419612,0.11575 -1.176844,0.11575 z m 1.321538,-3.18326 h 0.506428 q 0.32315,0 0.496783,-0.15916 0.178455,-0.16399 0.178455,-0.36174 0,-0.29421 -0.168809,-0.4582 -0.16881,-0.16398 -0.40032,-0.16398 l -0.168809,0.005 h -0.443728 z m 0,2.17041 h 0.660768 q 0.385851,0 0.540191,-0.17846 0.159163,-0.18328 0.159163,-0.35691 0,-0.25563 -0.178456,-0.46784 -0.173632,-0.21222 -0.63183,-0.21222 h -0.549836 z"
         style="font-style:normal;font-variant:normal;font-weight:bold;font-stretch:normal;font-size:9.87777px;line-height:0.15;font-family:'Century Gothic';-inkscape-font-specification:'Century Gothic Bold';fill:#ff9400;fill-opacity:1;fill-rule:nonzero;stroke-width:1.18025"
         id="path1012" />
      <path
         d="m 48.028103,300.06106 h 1.311891 v 5.24756 h -1.311891 v -0.55466 q -0.385851,0.36656 -0.776524,0.53055 -0.385851,0.15916 -0.839225,0.15916 -1.01768,0 -1.760442,-0.78617 -0.742763,-0.79099 -0.742763,-1.96301 0,-1.21543 0.718647,-1.99195 0.718646,-0.77653 1.745973,-0.77653 0.472667,0 0.887456,0.17846 0.414789,0.17845 0.766878,0.53536 z m -1.384239,1.08038 q -0.612537,0 -1.01768,0.43408 -0.405143,0.42926 -0.405143,1.1045 0,0.68006 0.409966,1.11896 0.414789,0.43891 1.01768,0.43891 0.622184,0 1.03215,-0.42926 0.409966,-0.43408 0.409966,-1.13343 0,-0.68489 -0.409966,-1.10932 -0.409966,-0.42444 -1.036973,-0.42444 z"
         style="font-style:normal;font-variant:normal;font-weight:bold;font-stretch:normal;font-size:9.87777px;line-height:0.15;font-family:'Century Gothic';-inkscape-font-specification:'Century Gothic Bold';fill:#ff9400;fill-opacity:1;fill-rule:nonzero;stroke-width:1.18025"
         id="path1014" />
      <path
         d="m 55.928392,303.06587 h -4.229885 q 0.09164,0.55948 0.487136,0.89228 0.40032,0.32797 1.01768,0.32797 0.737939,0 1.268484,-0.51607 l 1.109319,0.52089 q -0.414789,0.58843 -0.993564,0.87299 -0.578776,0.27974 -1.374592,0.27974 -1.234722,0 -2.011246,-0.77652 -0.776524,-0.78135 -0.776524,-1.95337 0,-1.20096 0.771701,-1.99195 0.776524,-0.79582 1.943722,-0.79582 1.239544,0 2.016068,0.79582 0.776524,0.79099 0.776524,2.09324 z m -1.321538,-1.03697 q -0.130224,-0.43891 -0.516075,-0.71383 -0.381027,-0.27492 -0.887456,-0.27492 -0.549837,0 -0.964626,0.30868 -0.260449,0.19293 -0.482313,0.68007 z"
         style="font-style:normal;font-variant:normal;font-weight:bold;font-stretch:normal;font-size:9.87777px;line-height:0.15;font-family:'Century Gothic';-inkscape-font-specification:'Century Gothic Bold';fill:#ff9400;fill-opacity:1;fill-rule:nonzero;stroke-width:1.18025"
         id="path1016" />
      <path
         d="m 56.52646,300.06106 h 4.890654 v 1.25401 h -1.74115 v 3.99355 h -1.321537 v -3.99355 H 56.52646 Z"
         style="font-style:normal;font-variant:normal;font-weight:bold;font-stretch:normal;font-size:9.87777px;line-height:0.15;font-family:'Century Gothic';-inkscape-font-specification:'Century Gothic Bold';fill:#ff9400;fill-opacity:1;fill-rule:nonzero;stroke-width:1.18025"
         id="path1018" />
      <path
         d="m 67.417086,301.12215 -1.094851,0.60289 q -0.30868,-0.32315 -0.612537,-0.44855 -0.299035,-0.1254 -0.704177,-0.1254 -0.737939,0 -1.196137,0.44372 -0.453374,0.43891 -0.453374,1.12862 0,0.67041 0.438905,1.09485 0.438905,0.42443 1.152728,0.42443 0.882633,0 1.374592,-0.60289 l 1.036973,0.709 q -0.844048,1.09485 -2.382626,1.09485 -1.384239,0 -2.170409,-0.81993 -0.781347,-0.81993 -0.781347,-1.91961 0,-0.76205 0.381027,-1.40353 0.381028,-0.64147 1.061089,-1.00803 0.684884,-0.36656 1.528932,-0.36656 0.781347,0 1.403531,0.3135 0.622184,0.30868 1.017681,0.88264 z"
         style="font-style:normal;font-variant:normal;font-weight:bold;font-stretch:normal;font-size:9.87777px;line-height:0.15;font-family:'Century Gothic';-inkscape-font-specification:'Century Gothic Bold';fill:#ff9400;fill-opacity:1;fill-rule:nonzero;stroke-width:1.18025"
         id="path1020" />
      <path
         d="m 69.495855,303.15751 q -0.424435,-0.13987 -0.699354,-0.52572 -0.270095,-0.39068 -0.270095,-0.87781 0,-0.5836 0.332796,-1.02251 0.332796,-0.4389 0.790993,-0.55466 0.463021,-0.11575 1.442116,-0.11575 h 1.331184 v 5.24756 h -1.321538 v -1.90031 h -0.255626 l -1.24919,1.90031 H 68.03927 Z m 1.606102,-0.73794 v -1.25884 H 70.64376 q -0.747585,0 -0.747585,0.62701 0,0.63183 0.834401,0.63183 z"
         style="font-style:normal;font-variant:normal;font-weight:bold;font-stretch:normal;font-size:9.87777px;line-height:0.15;font-family:'Century Gothic';-inkscape-font-specification:'Century Gothic Bold';fill:#ff9400;fill-opacity:1;fill-rule:nonzero;stroke-width:1.18025"
         id="path1022" />
    </g>
    <g
       aria-label="Программа льготной"
       id="text4840-6"
       style="font-style:normal;font-weight:normal;font-size:47.2099px;line-height:0;font-family:sans-serif;letter-spacing:0px;word-spacing:0px;fill:#ff9400;fill-opacity:1;fill-rule:nonzero;stroke:none;stroke-width:1.18025">
      <path
         d="m 1.9527415,276.6108 h 5.1076948 v 7.09483 H 5.6954905 v -5.83117 h -2.37298 v 5.83117 h -1.369769 z"
         style="font-style:normal;font-variant:normal;font-weight:bold;font-stretch:normal;font-size:9.87777px;line-height:0.15;font-family:'Century Gothic';-inkscape-font-specification:'Century Gothic Bold';fill:#ff9400;fill-opacity:1;fill-rule:nonzero;stroke-width:1.18025"
         id="path965" />
      <path
         d="m 9.8385593,278.45806 v 0.57878 q 0.3569117,-0.35691 0.7717007,-0.53537 0.414789,-0.17846 0.887456,-0.17846 1.027327,0 1.745973,0.77653 0.718647,0.77652 0.718647,1.99195 0,1.17202 -0.742763,1.96301 -0.742762,0.78618 -1.760442,0.78618 -0.453374,0 -0.844048,-0.15917 -0.390673,-0.16398 -0.7765237,-0.53054 v 2.47426 H 8.531491 v -7.16717 z m 1.3842387,1.08038 q -0.622184,0 -1.03215,0.42444 -0.4099663,0.42443 -0.4099663,1.10932 0,0.69935 0.4099663,1.13343 0.409966,0.42926 1.03215,0.42926 0.602891,0 1.012857,-0.4389 0.414789,-0.43891 0.414789,-1.11897 0,-0.67524 -0.405143,-1.1045 -0.405143,-0.43408 -1.022503,-0.43408 z"
         style="font-style:normal;font-variant:normal;font-weight:bold;font-stretch:normal;font-size:9.87777px;line-height:0.15;font-family:'Century Gothic';-inkscape-font-specification:'Century Gothic Bold';fill:#ff9400;fill-opacity:1;fill-rule:nonzero;stroke-width:1.18025"
         id="path967" />
      <path
         d="m 17.516983,278.32301 q 0.742762,0 1.393884,0.37139 0.655946,0.37138 1.022504,1.00803 0.366558,0.63665 0.366558,1.37459 0,0.74276 -0.371381,1.38906 -0.366558,0.6463 -1.003211,1.01286 -0.636654,0.36174 -1.403531,0.36174 -1.128613,0 -1.929252,-0.80064 -0.795817,-0.80547 -0.795817,-1.95337 0,-1.2299 0.901926,-2.04983 0.790993,-0.71383 1.81832,-0.71383 z m 0.01929,1.23955 q -0.612537,0 -1.022503,0.42926 -0.405143,0.42443 -0.405143,1.09002 0,0.68489 0.400319,1.10932 0.405143,0.42444 1.022504,0.42444 0.617361,0 1.027327,-0.42926 0.409966,-0.42926 0.409966,-1.1045 0,-0.67523 -0.405143,-1.09485 -0.40032,-0.42443 -1.027327,-0.42443 z"
         style="font-style:normal;font-variant:normal;font-weight:bold;font-stretch:normal;font-size:9.87777px;line-height:0.15;font-family:'Century Gothic';-inkscape-font-specification:'Century Gothic Bold';fill:#ff9400;fill-opacity:1;fill-rule:nonzero;stroke-width:1.18025"
         id="path969" />
      <path
         d="m 21.370664,278.45806 h 3.062688 v 1.25402 h -1.74115 v 3.99355 h -1.321538 z"
         style="font-style:normal;font-variant:normal;font-weight:bold;font-stretch:normal;font-size:9.87777px;line-height:0.15;font-family:'Century Gothic';-inkscape-font-specification:'Century Gothic Bold';fill:#ff9400;fill-opacity:1;fill-rule:nonzero;stroke-width:1.18025"
         id="path971" />
      <path
         d="m 26.632699,278.45806 v 0.57878 q 0.356912,-0.35691 0.771701,-0.53537 0.414789,-0.17846 0.887456,-0.17846 1.027327,0 1.745973,0.77653 0.718646,0.77652 0.718646,1.99195 0,1.17202 -0.742762,1.96301 -0.742762,0.78618 -1.760442,0.78618 -0.453374,0 -0.844048,-0.15917 -0.390673,-0.16398 -0.776524,-0.53054 v 2.47426 h -1.307068 v -7.16717 z m 1.384238,1.08038 q -0.622183,0 -1.032149,0.42444 -0.409966,0.42443 -0.409966,1.10932 0,0.69935 0.409966,1.13343 0.409966,0.42926 1.032149,0.42926 0.602892,0 1.012858,-0.4389 0.414789,-0.43891 0.414789,-1.11897 0,-0.67524 -0.405143,-1.1045 -0.405143,-0.43408 -1.022504,-0.43408 z"
         style="font-style:normal;font-variant:normal;font-weight:bold;font-stretch:normal;font-size:9.87777px;line-height:0.15;font-family:'Century Gothic';-inkscape-font-specification:'Century Gothic Bold';fill:#ff9400;fill-opacity:1;fill-rule:nonzero;stroke-width:1.18025"
         id="path973" />
      <path
         d="m 35.7243,278.45806 h 1.311891 v 5.24757 H 35.7243 v -0.55466 q -0.385851,0.36656 -0.776524,0.53054 -0.385851,0.15917 -0.839225,0.15917 -1.01768,0 -1.760442,-0.78618 -0.742762,-0.79099 -0.742762,-1.96301 0,-1.21543 0.718646,-1.99195 0.718646,-0.77653 1.745973,-0.77653 0.472667,0 0.887456,0.17846 0.414789,0.17846 0.766878,0.53537 z m -1.384239,1.08038 q -0.612537,0 -1.01768,0.43408 -0.405143,0.42926 -0.405143,1.1045 0,0.68006 0.409966,1.11897 0.414789,0.4389 1.01768,0.4389 0.622184,0 1.03215,-0.42926 0.409966,-0.43408 0.409966,-1.13343 0,-0.68489 -0.409966,-1.10932 -0.409966,-0.42444 -1.036973,-0.42444 z"
         style="font-style:normal;font-variant:normal;font-weight:bold;font-stretch:normal;font-size:9.87777px;line-height:0.15;font-family:'Century Gothic';-inkscape-font-specification:'Century Gothic Bold';fill:#ff9400;fill-opacity:1;fill-rule:nonzero;stroke-width:1.18025"
         id="path975" />
      <path
         d="m 41.57958,281.76673 1.610925,-3.30867 h 0.868164 l 1.311891,5.24757 h -1.287776 l -0.699354,-3.07716 -1.562694,3.07716 h -0.54019 l -1.528933,-3.07716 -0.704177,3.07716 h -1.282952 l 1.311891,-5.24757 h 0.868164 z"
         style="font-style:normal;font-variant:normal;font-weight:bold;font-stretch:normal;font-size:9.87777px;line-height:0.15;font-family:'Century Gothic';-inkscape-font-specification:'Century Gothic Bold';fill:#ff9400;fill-opacity:1;fill-rule:nonzero;stroke-width:1.18025"
         id="path977" />
      <path
         d="m 49.315881,281.76673 1.610926,-3.30867 h 0.868163 l 1.311891,5.24757 h -1.287775 l -0.699354,-3.07716 -1.562694,3.07716 h -0.540191 l -1.528932,-3.07716 -0.704177,3.07716 h -1.282953 l 1.311892,-5.24757 h 0.868163 z"
         style="font-style:normal;font-variant:normal;font-weight:bold;font-stretch:normal;font-size:9.87777px;line-height:0.15;font-family:'Century Gothic';-inkscape-font-specification:'Century Gothic Bold';fill:#ff9400;fill-opacity:1;fill-rule:nonzero;stroke-width:1.18025"
         id="path979" />
      <path
         d="m 57.717771,278.45806 h 1.311891 v 5.24757 h -1.311891 v -0.55466 q -0.385851,0.36656 -0.776524,0.53054 -0.385851,0.15917 -0.839225,0.15917 -1.01768,0 -1.760442,-0.78618 -0.742762,-0.79099 -0.742762,-1.96301 0,-1.21543 0.718646,-1.99195 0.718646,-0.77653 1.745973,-0.77653 0.472667,0 0.887456,0.17846 0.414789,0.17846 0.766878,0.53537 z m -1.384239,1.08038 q -0.612537,0 -1.01768,0.43408 -0.405143,0.42926 -0.405143,1.1045 0,0.68006 0.409966,1.11897 0.414789,0.4389 1.017681,0.4389 0.622183,0 1.032149,-0.42926 0.409966,-0.43408 0.409966,-1.13343 0,-0.68489 -0.409966,-1.10932 -0.409966,-0.42444 -1.036973,-0.42444 z"
         style="font-style:normal;font-variant:normal;font-weight:bold;font-stretch:normal;font-size:9.87777px;line-height:0.15;font-family:'Century Gothic';-inkscape-font-specification:'Century Gothic Bold';fill:#ff9400;fill-opacity:1;fill-rule:nonzero;stroke-width:1.18025"
         id="path981" />
      <path
         d="m 67.812583,283.70563 h -1.34083 l -1.311891,-3.31349 -1.336007,3.31349 h -1.336007 l 2.237932,-5.24757 h 0.848871 z"
         style="font-style:normal;font-variant:normal;font-weight:bold;font-stretch:normal;font-size:9.87777px;line-height:0.15;font-family:'Century Gothic';-inkscape-font-specification:'Century Gothic Bold';fill:#ff9400;fill-opacity:1;fill-rule:nonzero;stroke-width:1.18025"
         id="path983" />
      <path
         d="m 69.82383,280.34873 h 0.390673 q 0.824755,0 1.26366,0.13022 0.443728,0.1254 0.747585,0.53055 0.303858,0.40514 0.303858,1.01768 0,0.60771 -0.274919,1.01286 -0.274918,0.40032 -0.704177,0.53536 -0.424435,0.13023 -1.196136,0.13023 h -1.852082 v -5.24757 h 1.321538 z m 0,2.34404 h 0.400319 q 0.356912,0 0.516075,-0.0482 0.159164,-0.0531 0.279742,-0.19775 0.120578,-0.14469 0.120578,-0.35209 0,-0.67524 -0.771701,-0.67524 H 69.82383 Z"
         style="font-style:normal;font-variant:normal;font-weight:bold;font-stretch:normal;font-size:9.87777px;line-height:0.15;font-family:'Century Gothic';-inkscape-font-specification:'Century Gothic Bold';fill:#ff9400;fill-opacity:1;fill-rule:nonzero;stroke-width:1.18025"
         id="path985" />
      <path
         d="m 73.537639,278.45806 h 3.062688 v 1.25402 h -1.74115 v 3.99355 h -1.321538 z"
         style="font-style:normal;font-variant:normal;font-weight:bold;font-stretch:normal;font-size:9.87777px;line-height:0.15;font-family:'Century Gothic';-inkscape-font-specification:'Century Gothic Bold';fill:#ff9400;fill-opacity:1;fill-rule:nonzero;stroke-width:1.18025"
         id="path987" />
      <path
         d="m 79.957223,278.32301 q 0.742763,0 1.393885,0.37139 0.655946,0.37138 1.022504,1.00803 0.366558,0.63665 0.366558,1.37459 0,0.74276 -0.371381,1.38906 -0.366558,0.6463 -1.003212,1.01286 -0.636653,0.36174 -1.40353,0.36174 -1.128613,0 -1.929252,-0.80064 -0.795817,-0.80547 -0.795817,-1.95337 0,-1.2299 0.901925,-2.04983 0.790994,-0.71383 1.81832,-0.71383 z m 0.01929,1.23955 q -0.612538,0 -1.022504,0.42926 -0.405142,0.42443 -0.405142,1.09002 0,0.68489 0.400319,1.10932 0.405143,0.42444 1.022504,0.42444 0.617361,0 1.027327,-0.42926 0.409966,-0.42926 0.409966,-1.1045 0,-0.67523 -0.405143,-1.09485 -0.40032,-0.42443 -1.027327,-0.42443 z"
         style="font-style:normal;font-variant:normal;font-weight:bold;font-stretch:normal;font-size:9.87777px;line-height:0.15;font-family:'Century Gothic';-inkscape-font-specification:'Century Gothic Bold';fill:#ff9400;fill-opacity:1;fill-rule:nonzero;stroke-width:1.18025"
         id="path989" />
      <path
         d="m 83.347888,278.45806 h 4.890654 v 1.25402 h -1.74115 v 3.99355 h -1.321538 v -3.99355 h -1.827966 z"
         style="font-style:normal;font-variant:normal;font-weight:bold;font-stretch:normal;font-size:9.87777px;line-height:0.15;font-family:'Century Gothic';-inkscape-font-specification:'Century Gothic Bold';fill:#ff9400;fill-opacity:1;fill-rule:nonzero;stroke-width:1.18025"
         id="path991" />
      <path
         d="m 90.418594,280.34873 h 1.958191 v -1.89067 h 1.321538 v 5.24757 h -1.321538 v -2.17523 h -1.958191 v 2.17523 h -1.321537 v -5.24757 h 1.321537 z"
         style="font-style:normal;font-variant:normal;font-weight:bold;font-stretch:normal;font-size:9.87777px;line-height:0.15;font-family:'Century Gothic';-inkscape-font-specification:'Century Gothic Bold';fill:#ff9400;fill-opacity:1;fill-rule:nonzero;stroke-width:1.18025"
         id="path993" />
      <path
         d="m 97.494127,278.32301 q 0.742762,0 1.393884,0.37139 0.655946,0.37138 1.022504,1.00803 0.366555,0.63665 0.366555,1.37459 0,0.74276 -0.371378,1.38906 -0.366558,0.6463 -1.003211,1.01286 -0.636653,0.36174 -1.403531,0.36174 -1.128612,0 -1.929252,-0.80064 -0.795816,-0.80547 -0.795816,-1.95337 0,-1.2299 0.901925,-2.04983 0.790993,-0.71383 1.81832,-0.71383 z m 0.01929,1.23955 q -0.612537,0 -1.022503,0.42926 -0.405143,0.42443 -0.405143,1.09002 0,0.68489 0.40032,1.10932 0.405143,0.42444 1.022503,0.42444 0.617361,0 1.027327,-0.42926 0.409966,-0.42926 0.409966,-1.1045 0,-0.67523 -0.405143,-1.09485 -0.40032,-0.42443 -1.027327,-0.42443 z"
         style="font-style:normal;font-variant:normal;font-weight:bold;font-stretch:normal;font-size:9.87777px;line-height:0.15;font-family:'Century Gothic';-inkscape-font-specification:'Century Gothic Bold';fill:#ff9400;fill-opacity:1;fill-rule:nonzero;stroke-width:1.18025"
         id="path995" />
      <path
         d="m 102.04716,283.70563 h -0.69936 v -5.24757 h 1.28296 v 3.08198 l 2.68648,-3.08198 h 0.63183 v 5.24757 h -1.28295 v -3.01928 z m -0.31351,-7.56267 h 1.06592 q 0.1254,0.19775 0.34726,0.29903 0.22669,0.0965 0.54984,0.0965 0.32797,0 0.59324,-0.11576 0.17364,-0.0772 0.30386,-0.27974 h 1.06591 q -0.0916,0.61254 -0.58842,0.98392 -0.49196,0.37138 -1.37941,0.37138 -0.59807,0 -1.00322,-0.16399 -0.40032,-0.16881 -0.64629,-0.47749 -0.24598,-0.30868 -0.30869,-0.71382 z"
         style="font-style:normal;font-variant:normal;font-weight:bold;font-stretch:normal;font-size:9.87777px;line-height:0.15;font-family:'Century Gothic';-inkscape-font-specification:'Century Gothic Bold';fill:#ff9400;fill-opacity:1;fill-rule:nonzero;stroke-width:1.18025"
         id="path997" />
    </g>
    <g
       aria-label="ипотеки под 6,5% годовых"
       id="text4840-6-7-3"
       style="font-style:normal;font-weight:normal;font-size:47.2099px;line-height:0;font-family:sans-serif;letter-spacing:0px;word-spacing:0px;fill:#ff9400;fill-opacity:1;fill-rule:nonzero;stroke:none;stroke-width:1.18025">
      <path
         d="M 2.6520953,295.34875 H 1.9527415 v -5.24756 h 1.2829526 v 3.08198 l 2.6864834,-3.08198 h 0.6318301 v 5.24756 H 5.271055 v -3.01927 z"
         style="font-style:normal;font-variant:normal;font-weight:bold;font-stretch:normal;font-size:9.87777px;line-height:0.15;font-family:'Century Gothic';-inkscape-font-specification:'Century Gothic Bold';fill:#ff9400;fill-opacity:1;fill-rule:nonzero;stroke-width:1.18025"
         id="path1025" />
      <path
         d="M 9.2019062,295.34875 H 7.8803685 v -5.24756 h 4.6012665 v 5.24756 h -1.321538 v -3.97908 H 9.2019062 Z"
         style="font-style:normal;font-variant:normal;font-weight:bold;font-stretch:normal;font-size:9.87777px;line-height:0.15;font-family:'Century Gothic';-inkscape-font-specification:'Century Gothic Bold';fill:#ff9400;fill-opacity:1;fill-rule:nonzero;stroke-width:1.18025"
         id="path1027" />
      <path
         d="m 16.277438,289.96614 q 0.742762,0 1.393885,0.37138 0.655946,0.37138 1.022503,1.00804 0.366558,0.63665 0.366558,1.37459 0,0.74276 -0.371381,1.38906 -0.366558,0.6463 -1.003211,1.01286 -0.636653,0.36173 -1.403531,0.36173 -1.128612,0 -1.929252,-0.80064 -0.795816,-0.80546 -0.795816,-1.95336 0,-1.2299 0.901925,-2.04984 0.790994,-0.71382 1.81832,-0.71382 z m 0.01929,1.23955 q -0.612538,0 -1.022504,0.42925 -0.405143,0.42444 -0.405143,1.09003 0,0.68489 0.40032,1.10932 0.405143,0.42444 1.022504,0.42444 0.61736,0 1.027326,-0.42926 0.409966,-0.42926 0.409966,-1.1045 0,-0.67524 -0.405143,-1.09485 -0.400319,-0.42443 -1.027326,-0.42443 z"
         style="font-style:normal;font-variant:normal;font-weight:bold;font-stretch:normal;font-size:9.87777px;line-height:0.15;font-family:'Century Gothic';-inkscape-font-specification:'Century Gothic Bold';fill:#ff9400;fill-opacity:1;fill-rule:nonzero;stroke-width:1.18025"
         id="path1029" />
      <path
         d="m 19.668098,290.10119 h 4.890654 v 1.25401 h -1.74115 v 3.99355 h -1.321538 v -3.99355 h -1.827966 z"
         style="font-style:normal;font-variant:normal;font-weight:bold;font-stretch:normal;font-size:9.87777px;line-height:0.15;font-family:'Century Gothic';-inkscape-font-specification:'Century Gothic Bold';fill:#ff9400;fill-opacity:1;fill-rule:nonzero;stroke-width:1.18025"
         id="path1031" />
      <path
         d="m 30.679304,293.106 h -4.229886 q 0.09164,0.55948 0.487137,0.89228 0.400319,0.32797 1.01768,0.32797 0.737939,0 1.268483,-0.51607 l 1.10932,0.52089 q -0.414789,0.58843 -0.993565,0.87299 -0.578775,0.27974 -1.374592,0.27974 -1.234721,0 -2.011245,-0.77652 -0.776524,-0.78135 -0.776524,-1.95337 0,-1.20096 0.771701,-1.99195 0.776524,-0.79582 1.943721,-0.79582 1.239545,0 2.016069,0.79582 0.776524,0.79099 0.776524,2.09324 z m -1.321538,-1.03697 q -0.130225,-0.43891 -0.516075,-0.71383 -0.381027,-0.27492 -0.887456,-0.27492 -0.549837,0 -0.964626,0.30869 -0.260449,0.19292 -0.482313,0.68006 z"
         style="font-style:normal;font-variant:normal;font-weight:bold;font-stretch:normal;font-size:9.87777px;line-height:0.15;font-family:'Century Gothic';-inkscape-font-specification:'Century Gothic Bold';fill:#ff9400;fill-opacity:1;fill-rule:nonzero;stroke-width:1.18025"
         id="path1033" />
      <path
         d="m 31.745216,290.10119 h 1.316714 v 1.96301 l 1.813497,-1.96301 h 1.606102 l -2.339218,2.55626 2.368157,2.6913 h -1.745973 l -1.562694,-1.85208 -0.139871,0.16399 v 1.68809 h -1.316714 z"
         style="font-style:normal;font-variant:normal;font-weight:bold;font-stretch:normal;font-size:9.87777px;line-height:0.15;font-family:'Century Gothic';-inkscape-font-specification:'Century Gothic Bold';fill:#ff9400;fill-opacity:1;fill-rule:nonzero;stroke-width:1.18025"
         id="path1035" />
      <path
         d="m 37.745189,295.34875 h -0.699354 v -5.24756 h 1.282953 v 3.08198 l 2.686483,-3.08198 h 0.63183 v 5.24756 h -1.282952 v -3.01927 z"
         style="font-style:normal;font-variant:normal;font-weight:bold;font-stretch:normal;font-size:9.87777px;line-height:0.15;font-family:'Century Gothic';-inkscape-font-specification:'Century Gothic Bold';fill:#ff9400;fill-opacity:1;fill-rule:nonzero;stroke-width:1.18025"
         id="path1037" />
      <path
         d="m 47.058653,295.34875 h -1.321537 v -5.24756 h 4.601266 v 5.24756 h -1.321538 v -3.97908 h -1.958191 z"
         style="font-style:normal;font-variant:normal;font-weight:bold;font-stretch:normal;font-size:9.87777px;line-height:0.15;font-family:'Century Gothic';-inkscape-font-specification:'Century Gothic Bold';fill:#ff9400;fill-opacity:1;fill-rule:nonzero;stroke-width:1.18025"
         id="path1039" />
      <path
         d="m 54.134186,289.96614 q 0.742762,0 1.393884,0.37138 0.655946,0.37138 1.022504,1.00804 0.366558,0.63665 0.366558,1.37459 0,0.74276 -0.371381,1.38906 -0.366558,0.6463 -1.003211,1.01286 -0.636653,0.36173 -1.403531,0.36173 -1.128612,0 -1.929252,-0.80064 -0.795817,-0.80546 -0.795817,-1.95336 0,-1.2299 0.901926,-2.04984 0.790993,-0.71382 1.81832,-0.71382 z m 0.01929,1.23955 q -0.612537,0 -1.022503,0.42925 -0.405143,0.42444 -0.405143,1.09003 0,0.68489 0.40032,1.10932 0.405143,0.42444 1.022503,0.42444 0.617361,0 1.027327,-0.42926 0.409966,-0.42926 0.409966,-1.1045 0,-0.67524 -0.405143,-1.09485 -0.40032,-0.42443 -1.027327,-0.42443 z"
         style="font-style:normal;font-variant:normal;font-weight:bold;font-stretch:normal;font-size:9.87777px;line-height:0.15;font-family:'Century Gothic';-inkscape-font-specification:'Century Gothic Bold';fill:#ff9400;fill-opacity:1;fill-rule:nonzero;stroke-width:1.18025"
         id="path1041" />
      <path
         d="m 58.672752,295.34875 v 0.91158 h -1.172021 v -2.02572 h 0.790993 l 1.808674,-4.13342 h 0.848871 l 1.83279,4.13342 h 0.805462 v 2.02572 h -1.254014 v -0.91158 z m 2.710599,-1.11414 -0.858517,-2.20899 -0.887456,2.20899 z"
         style="font-style:normal;font-variant:normal;font-weight:bold;font-stretch:normal;font-size:9.87777px;line-height:0.15;font-family:'Century Gothic';-inkscape-font-specification:'Century Gothic Bold';fill:#ff9400;fill-opacity:1;fill-rule:nonzero;stroke-width:1.18025"
         id="path1043" />
      <path
         d="m 69.384924,288.07547 1.147905,0.57396 -1.239544,2.41156 q 0.901925,0 1.533755,0.6463 0.63183,0.6463 0.63183,1.6061 0,0.92604 -0.651123,1.57234 -0.646299,0.64148 -1.562694,0.64148 -0.959803,0 -1.601279,-0.66559 -0.636653,-0.67042 -0.636653,-1.53376 0,-0.32797 0.09646,-0.66077 0.101286,-0.33279 0.458198,-1.0225 z m -0.16881,4.26365 q -0.376204,0 -0.63183,0.27492 -0.255625,0.2701 -0.255625,0.68006 0,0.40997 0.265272,0.68971 0.270095,0.27974 0.627007,0.27974 0.376204,0 0.646299,-0.27492 0.270095,-0.27492 0.270095,-0.69453 0,-0.40996 -0.265272,-0.68006 -0.260449,-0.27492 -0.655946,-0.27492 z"
         style="font-style:normal;font-variant:normal;font-weight:bold;font-stretch:normal;font-size:9.87777px;line-height:0.15;font-family:'Century Gothic';-inkscape-font-specification:'Century Gothic Bold';fill:#ff9400;fill-opacity:1;fill-rule:nonzero;stroke-width:1.18025"
         id="path1045" />
      <path
         d="m 73.349534,294.01275 0.94051,0.47266 -1.191313,2.03537 -0.655945,-0.31351 z"
         style="font-style:normal;font-variant:normal;font-weight:bold;font-stretch:normal;font-size:9.87777px;line-height:0.15;font-family:'Century Gothic';-inkscape-font-specification:'Century Gothic Bold';fill:#ff9400;fill-opacity:1;fill-rule:nonzero;stroke-width:1.18025"
         id="path1047" />
      <path
         d="m 76.465279,288.25393 h 3.323137 v 1.24437 h -2.315103 l -0.289387,1.2926 q 0.120578,-0.0338 0.236333,-0.0482 0.115755,-0.0193 0.221864,-0.0193 0.964626,0 1.601279,0.66077 0.641476,0.65595 0.641476,1.68327 0,1.03698 -0.709,1.7508 -0.704177,0.709 -1.717034,0.709 -0.906748,0 -1.557871,-0.51607 -0.651123,-0.51608 -0.853694,-1.41318 h 1.418 q 0.163987,0.33279 0.429259,0.50643 0.270095,0.16881 0.593245,0.16881 0.448551,0 0.762054,-0.32315 0.313504,-0.32315 0.313504,-0.82958 0,-0.49196 -0.294211,-0.80546 -0.289388,-0.31833 -0.704177,-0.31833 -0.221864,0 -0.438905,0.11093 -0.212218,0.11093 -0.419612,0.3328 l -1.099674,-0.24598 z"
         style="font-style:normal;font-variant:normal;font-weight:bold;font-stretch:normal;font-size:9.87777px;line-height:0.15;font-family:'Century Gothic';-inkscape-font-specification:'Century Gothic Bold';fill:#ff9400;fill-opacity:1;fill-rule:nonzero;stroke-width:1.18025"
         id="path1049" />
      <path
         d="m 86.868768,287.94043 h 0.974272 l -5.623769,7.89064 h -0.974273 l 4.808661,-6.7765 q -0.434082,0.0723 -0.815109,0.11093 -0.381027,0.0338 -0.704177,0.0338 -0.332796,0 -0.704177,-0.0338 0.106109,0.33762 0.106109,0.61254 0,0.70418 -0.491959,1.19614 -0.487137,0.49196 -1.191314,0.49196 -0.709,0 -1.205782,-0.49196 -0.496782,-0.49196 -0.496782,-1.19132 0,-0.45337 0.221864,-0.83922 0.221864,-0.39068 0.622183,-0.62701 0.405143,-0.24116 0.80064,-0.24116 0.299034,0 0.824755,0.11576 0.930864,0.20257 1.639864,0.20257 0.641477,0 1.191314,-0.11093 0.554659,-0.11576 1.01768,-0.34244 z m -4.625382,1.01768 q -0.337619,0 -0.578775,0.24115 -0.236334,0.23634 -0.236334,0.56913 0,0.33762 0.236334,0.57878 0.241156,0.23633 0.578775,0.23633 0.337619,0 0.573953,-0.23633 0.241156,-0.24116 0.241156,-0.57878 0,-0.33762 -0.241156,-0.57395 -0.236334,-0.23633 -0.573953,-0.23633 z m 4.702552,3.19291 q 0.699354,0 1.196136,0.49678 0.496783,0.49678 0.496783,1.20096 0,0.69936 -0.496783,1.19614 -0.496782,0.49678 -1.196136,0.49678 -0.704177,0 -1.200959,-0.49678 -0.49196,-0.49678 -0.49196,-1.19614 0,-0.70418 0.49196,-1.20096 0.496782,-0.49678 1.200959,-0.49678 z m -0.0048,0.87299 q -0.342442,0 -0.583599,0.24115 -0.236333,0.24116 -0.236333,0.57878 0,0.33762 0.236333,0.57877 0.241157,0.24116 0.583599,0.24116 0.337619,0 0.573952,-0.24116 0.241157,-0.24115 0.241157,-0.57877 0,-0.33762 -0.241157,-0.57878 -0.236333,-0.24115 -0.573952,-0.24115 z"
         style="font-style:normal;font-variant:normal;font-weight:bold;font-stretch:normal;font-size:9.87777px;line-height:0.15;font-family:'Century Gothic';-inkscape-font-specification:'Century Gothic Bold';fill:#ff9400;fill-opacity:1;fill-rule:nonzero;stroke-width:1.18025"
         id="path1051" />
      <path
         d="m 92.265852,290.10119 h 3.062687 v 1.25401 h -1.74115 v 3.99355 h -1.321537 z"
         style="font-style:normal;font-variant:normal;font-weight:bold;font-stretch:normal;font-size:9.87777px;line-height:0.15;font-family:'Century Gothic';-inkscape-font-specification:'Century Gothic Bold';fill:#ff9400;fill-opacity:1;fill-rule:nonzero;stroke-width:1.18025"
         id="path1053" />
      <path
         d="m 98.685436,289.96614 q 0.742762,0 1.393884,0.37138 0.65595,0.37138 1.0225,1.00804 0.36656,0.63665 0.36656,1.37459 0,0.74276 -0.37138,1.38906 -0.36656,0.6463 -1.00321,1.01286 -0.636653,0.36173 -1.403531,0.36173 -1.128612,0 -1.929252,-0.80064 -0.795816,-0.80546 -0.795816,-1.95336 0,-1.2299 0.901925,-2.04984 0.790994,-0.71382 1.81832,-0.71382 z m 0.01929,1.23955 q -0.612538,0 -1.022504,0.42925 -0.405143,0.42444 -0.405143,1.09003 0,0.68489 0.40032,1.10932 0.405143,0.42444 1.022504,0.42444 0.61736,0 1.027326,-0.42926 0.409971,-0.42926 0.409971,-1.1045 0,-0.67524 -0.405147,-1.09485 -0.40032,-0.42443 -1.027327,-0.42443 z"
         style="font-style:normal;font-variant:normal;font-weight:bold;font-stretch:normal;font-size:9.87777px;line-height:0.15;font-family:'Century Gothic';-inkscape-font-specification:'Century Gothic Bold';fill:#ff9400;fill-opacity:1;fill-rule:nonzero;stroke-width:1.18025"
         id="path1055" />
      <path
         d="m 103.22401,295.34875 v 0.91158 h -1.17202 v -2.02572 h 0.79099 l 1.80867,-4.13342 h 0.84887 l 1.83279,4.13342 h 0.80547 v 2.02572 h -1.25402 v -0.91158 z m 2.7106,-1.11414 -0.85852,-2.20899 -0.88746,2.20899 z"
         style="font-style:normal;font-variant:normal;font-weight:bold;font-stretch:normal;font-size:9.87777px;line-height:0.15;font-family:'Century Gothic';-inkscape-font-specification:'Century Gothic Bold';fill:#ff9400;fill-opacity:1;fill-rule:nonzero;stroke-width:1.18025"
         id="path1057" />
      <path
         d="m 111.43779,289.96614 q 0.74277,0 1.39389,0.37138 0.65594,0.37138 1.0225,1.00804 0.36656,0.63665 0.36656,1.37459 0,0.74276 -0.37138,1.38906 -0.36656,0.6463 -1.00321,1.01286 -0.63666,0.36173 -1.40353,0.36173 -1.12862,0 -1.92926,-0.80064 -0.79581,-0.80546 -0.79581,-1.95336 0,-1.2299 0.90192,-2.04984 0.791,-0.71382 1.81832,-0.71382 z m 0.0193,1.23955 q -0.61254,0 -1.02251,0.42925 -0.40514,0.42444 -0.40514,1.09003 0,0.68489 0.40032,1.10932 0.40514,0.42444 1.0225,0.42444 0.61736,0 1.02733,-0.42926 0.40997,-0.42926 0.40997,-1.1045 0,-0.67524 -0.40515,-1.09485 -0.40032,-0.42443 -1.02732,-0.42443 z"
         style="font-style:normal;font-variant:normal;font-weight:bold;font-stretch:normal;font-size:9.87777px;line-height:0.15;font-family:'Century Gothic';-inkscape-font-specification:'Century Gothic Bold';fill:#ff9400;fill-opacity:1;fill-rule:nonzero;stroke-width:1.18025"
         id="path1059" />
      <path
         d="m 115.2963,295.34875 v -5.24756 h 2.10771 q 1.03697,0 1.40835,0.40997 0.37138,0.40514 0.37138,0.92121 0,0.76688 -0.76205,1.1045 1.0418,0.35691 1.0418,1.34565 0,0.53537 -0.27492,0.88746 -0.27492,0.34726 -0.69936,0.46302 -0.41961,0.11575 -1.17684,0.11575 z m 1.32154,-3.18326 h 0.50643 q 0.32315,0 0.49678,-0.15916 0.17846,-0.16399 0.17846,-0.36174 0,-0.29421 -0.16881,-0.4582 -0.16881,-0.16398 -0.40032,-0.16398 l -0.16881,0.005 h -0.44373 z m 0,2.17041 h 0.66077 q 0.38585,0 0.54019,-0.17846 0.15916,-0.18328 0.15916,-0.35691 0,-0.25563 -0.17845,-0.46784 -0.17364,-0.21222 -0.63183,-0.21222 h -0.54984 z"
         style="font-style:normal;font-variant:normal;font-weight:bold;font-stretch:normal;font-size:9.87777px;line-height:0.15;font-family:'Century Gothic';-inkscape-font-specification:'Century Gothic Bold';fill:#ff9400;fill-opacity:1;fill-rule:nonzero;stroke-width:1.18025"
         id="path1061" />
      <path
         d="m 121.89916,291.99186 h 0.39068 q 0.82475,0 1.26366,0.13022 0.44373,0.1254 0.74758,0.53055 0.30386,0.40514 0.30386,1.01768 0,0.60771 -0.27492,1.01285 -0.27492,0.40032 -0.70417,0.53537 -0.42444,0.13022 -1.19614,0.13022 h -1.85208 v -5.24756 h 1.32153 z m 0,2.34404 h 0.40032 q 0.35692,0 0.51608,-0.0482 0.15916,-0.0531 0.27974,-0.19775 0.12058,-0.1447 0.12058,-0.35209 0,-0.67524 -0.7717,-0.67524 h -0.54502 z m 3.62218,-4.23471 h 1.31671 v 5.24756 h -1.31671 z"
         style="font-style:normal;font-variant:normal;font-weight:bold;font-stretch:normal;font-size:9.87777px;line-height:0.15;font-family:'Century Gothic';-inkscape-font-specification:'Century Gothic Bold';fill:#ff9400;fill-opacity:1;fill-rule:nonzero;stroke-width:1.18025"
         id="path1063" />
      <path
         d="m 127.69657,290.10119 h 1.52893 l 1.02733,1.43247 1.04179,-1.43247 h 1.51447 l -1.79421,2.48391 2.01607,2.76365 h -1.52893 l -1.24919,-1.72185 -1.23472,1.72185 h -1.50964 l 1.98713,-2.76365 z"
         style="font-style:normal;font-variant:normal;font-weight:bold;font-stretch:normal;font-size:9.87777px;line-height:0.15;font-family:'Century Gothic';-inkscape-font-specification:'Century Gothic Bold';fill:#ff9400;fill-opacity:1;fill-rule:nonzero;stroke-width:1.18025"
         id="path1065" />
    </g>
  </g>
</svg>
