<?xml version="1.0" encoding="UTF-8"?>
<!DOCTYPE svg PUBLIC "-//W3C//DTD SVG 1.1//EN" "http://www.w3.org/Graphics/SVG/1.1/DTD/svg11.dtd">
<!-- Creator: CorelDRAW -->
<svg xmlns="http://www.w3.org/2000/svg" xml:space="preserve" width="85.2894mm" height="6.6464mm" version="1.1" style="shape-rendering:geometricPrecision; text-rendering:geometricPrecision; image-rendering:optimizeQuality; fill-rule:evenodd; clip-rule:evenodd"
viewBox="0 0 96.16 7.49"
 xmlns:xlink="http://www.w3.org/1999/xlink"
 xmlns:xodm="http://www.corel.com/coreldraw/odm/2003">
 <defs>
  <style type="text/css">
   <![CDATA[
    .fil0 {fill:#C29138;fill-rule:nonzero}
   ]]>
  </style>
 </defs>
 <g id="Слой_x0020_1">
  <metadata id="CorelCorpID_0Corel-Layer"/>
  <path class="fil0" d="M-0 5.95l0 -5.71 2.99 0 0 1.05 -1.91 0 0 1.11 0.24 0c0.48,0 0.88,0.05 1.19,0.16 0.31,0.11 0.56,0.31 0.77,0.6 0.2,0.29 0.31,0.64 0.31,1.04 0,0.4 -0.08,0.72 -0.23,0.95 -0.15,0.24 -0.36,0.43 -0.63,0.58 -0.27,0.15 -0.64,0.22 -1.12,0.22l-1.6 0zm1.08 -2.59l0 1.55 0.27 0c0.5,0 0.82,-0.06 0.95,-0.19 0.13,-0.13 0.2,-0.3 0.2,-0.52 0,-0.56 -0.4,-0.83 -1.2,-0.83l-0.23 0z"/>
  <path id="_1" class="fil0" d="M6.4 1.62c0.4,0 0.77,0.1 1.13,0.3 0.35,0.2 0.63,0.47 0.82,0.81 0.2,0.34 0.3,0.71 0.3,1.1 0,0.4 -0.1,0.77 -0.3,1.12 -0.2,0.35 -0.47,0.62 -0.81,0.81 -0.34,0.19 -0.72,0.29 -1.13,0.29 -0.61,0 -1.13,-0.21 -1.55,-0.64 -0.43,-0.43 -0.64,-0.95 -0.64,-1.57 0,-0.66 0.24,-1.21 0.73,-1.65 0.43,-0.38 0.91,-0.57 1.47,-0.57zm0.02 0.99c-0.33,0 -0.6,0.11 -0.82,0.34 -0.22,0.23 -0.33,0.52 -0.33,0.88 0,0.37 0.11,0.66 0.32,0.89 0.22,0.23 0.49,0.34 0.82,0.34 0.33,0 0.61,-0.12 0.83,-0.34 0.22,-0.23 0.33,-0.53 0.33,-0.89 0,-0.36 -0.11,-0.65 -0.32,-0.88 -0.22,-0.23 -0.49,-0.34 -0.83,-0.34z"/>
  <path id="_2" class="fil0" d="M10.56 1.73l0 0.46c0.19,-0.19 0.4,-0.33 0.62,-0.43 0.22,-0.09 0.46,-0.14 0.71,-0.14 0.55,0 1.02,0.21 1.4,0.62 0.39,0.42 0.58,0.95 0.58,1.6 0,0.63 -0.2,1.15 -0.6,1.57 -0.4,0.42 -0.87,0.63 -1.42,0.63 -0.24,0 -0.47,-0.04 -0.68,-0.13 -0.21,-0.09 -0.42,-0.23 -0.62,-0.43l0 2 -1.06 0 0 -5.77 1.06 0zm1.11 0.87c-0.33,0 -0.61,0.11 -0.83,0.34 -0.22,0.23 -0.33,0.52 -0.33,0.89 0,0.38 0.11,0.68 0.33,0.91 0.22,0.23 0.5,0.35 0.83,0.35 0.32,0 0.6,-0.12 0.82,-0.35 0.22,-0.24 0.33,-0.54 0.33,-0.9 0,-0.36 -0.11,-0.66 -0.33,-0.89 -0.22,-0.23 -0.49,-0.35 -0.82,-0.35z"/>
  <path id="_3" class="fil0" d="M15.82 3.25l0.32 0c0.45,0 0.79,0.03 1.02,0.1 0.24,0.07 0.44,0.21 0.6,0.43 0.16,0.22 0.25,0.49 0.25,0.82 0,0.32 -0.07,0.6 -0.22,0.81 -0.15,0.22 -0.34,0.36 -0.57,0.43 -0.23,0.07 -0.55,0.11 -0.97,0.11l-1.49 0 0 -4.22 1.06 0 0 1.53zm0 1.88l0.32 0c0.19,0 0.33,-0.01 0.42,-0.04 0.08,-0.03 0.16,-0.08 0.23,-0.16 0.06,-0.08 0.1,-0.17 0.1,-0.28 0,-0.36 -0.21,-0.54 -0.62,-0.54l-0.44 0 0 1.02z"/>
  <path id="_4" class="fil0" d="M22.86 0l0 1c-0.3,0.03 -0.6,0.05 -0.88,0.06 -0.52,0.01 -0.91,0.03 -1.17,0.07 -0.26,0.04 -0.49,0.13 -0.69,0.28 -0.2,0.15 -0.34,0.31 -0.42,0.51 -0.08,0.19 -0.13,0.46 -0.15,0.82 0.31,-0.73 0.83,-1.09 1.58,-1.09 0.55,0 1.02,0.2 1.42,0.6 0.4,0.4 0.6,0.91 0.6,1.54 0,0.65 -0.22,1.19 -0.65,1.62 -0.43,0.43 -0.96,0.65 -1.6,0.65 -0.52,0 -0.97,-0.16 -1.37,-0.47 -0.39,-0.32 -0.65,-0.69 -0.76,-1.13 -0.11,-0.44 -0.17,-0.9 -0.17,-1.39 0,-0.64 0.08,-1.15 0.24,-1.55 0.16,-0.4 0.37,-0.7 0.63,-0.89 0.26,-0.2 0.56,-0.33 0.9,-0.4 0.34,-0.07 0.84,-0.12 1.5,-0.14 0.45,-0.02 0.78,-0.05 1,-0.07zm-0.8 3.83c0,-0.35 -0.11,-0.64 -0.32,-0.87 -0.21,-0.23 -0.49,-0.35 -0.84,-0.35 -0.33,0 -0.61,0.12 -0.83,0.35 -0.22,0.23 -0.33,0.52 -0.33,0.87 0,0.37 0.11,0.66 0.33,0.89 0.22,0.23 0.49,0.34 0.83,0.34 0.33,0 0.6,-0.11 0.83,-0.34 0.22,-0.23 0.34,-0.52 0.34,-0.89z"/>
  <path id="_5" class="fil0" d="M27.12 1.73l1.06 0 0 4.22 -1.06 0 0 -0.45c-0.21,0.2 -0.42,0.34 -0.62,0.42 -0.21,0.09 -0.43,0.13 -0.68,0.13 -0.55,0 -1.02,-0.21 -1.42,-0.63 -0.4,-0.42 -0.6,-0.95 -0.6,-1.57 0,-0.65 0.19,-1.18 0.58,-1.6 0.39,-0.41 0.85,-0.62 1.41,-0.62 0.25,0 0.49,0.05 0.71,0.14 0.22,0.09 0.43,0.24 0.62,0.43l0 -0.46zm-1.12 0.87c-0.33,0 -0.6,0.12 -0.82,0.35 -0.22,0.23 -0.33,0.53 -0.33,0.89 0,0.36 0.11,0.66 0.33,0.9 0.22,0.23 0.49,0.35 0.82,0.35 0.33,0 0.61,-0.12 0.83,-0.35 0.22,-0.23 0.33,-0.53 0.33,-0.91 0,-0.37 -0.11,-0.66 -0.33,-0.89 -0.22,-0.23 -0.5,-0.34 -0.83,-0.34z"/>
  <path id="_6" class="fil0" d="M35.61 2.59l-0.88 0.49c-0.17,-0.17 -0.33,-0.29 -0.49,-0.36 -0.16,-0.07 -0.35,-0.1 -0.57,-0.1 -0.4,0 -0.72,0.12 -0.96,0.35 -0.25,0.24 -0.37,0.54 -0.37,0.91 0,0.36 0.12,0.65 0.35,0.88 0.24,0.23 0.54,0.34 0.93,0.34 0.47,0 0.84,-0.16 1.11,-0.49l0.83 0.57c-0.45,0.59 -1.09,0.88 -1.92,0.88 -0.74,0 -1.33,-0.22 -1.75,-0.66 -0.42,-0.44 -0.63,-0.95 -0.63,-1.54 0,-0.41 0.1,-0.78 0.31,-1.13 0.21,-0.34 0.49,-0.61 0.86,-0.81 0.37,-0.2 0.78,-0.29 1.23,-0.29 0.42,0 0.8,0.08 1.13,0.25 0.33,0.17 0.61,0.4 0.82,0.71z"/>
  <polygon id="_7" class="fil0" points="41.38,4.39 42.69,1.73 43.39,1.73 44.44,5.95 43.41,5.95 42.84,3.47 41.58,5.95 41.14,5.95 39.91,3.47 39.34,5.95 38.31,5.95 39.37,1.73 40.06,1.73 "/>
  <path id="_8" class="fil0" d="M47.01 1.62c0.4,0 0.77,0.1 1.13,0.3 0.35,0.2 0.63,0.47 0.82,0.81 0.2,0.34 0.3,0.71 0.3,1.1 0,0.4 -0.1,0.77 -0.3,1.12 -0.2,0.35 -0.47,0.62 -0.81,0.81 -0.34,0.19 -0.72,0.29 -1.13,0.29 -0.61,0 -1.13,-0.21 -1.55,-0.64 -0.43,-0.43 -0.64,-0.95 -0.64,-1.57 0,-0.66 0.24,-1.21 0.73,-1.65 0.43,-0.38 0.91,-0.57 1.47,-0.57zm0.02 0.99c-0.33,0 -0.6,0.11 -0.82,0.34 -0.22,0.23 -0.33,0.52 -0.33,0.88 0,0.37 0.11,0.66 0.32,0.89 0.22,0.23 0.49,0.34 0.82,0.34 0.33,0 0.61,-0.12 0.83,-0.34 0.22,-0.23 0.33,-0.53 0.33,-0.89 0,-0.36 -0.11,-0.65 -0.32,-0.88 -0.22,-0.23 -0.49,-0.34 -0.83,-0.34z"/>
  <polygon id="_9" class="fil0" points="56.22,5.95 50.12,5.95 50.12,1.73 51.17,1.73 51.17,4.93 52.64,4.93 52.64,1.73 53.7,1.73 53.7,4.93 55.16,4.93 55.16,1.73 56.22,1.73 "/>
  <path id="_10" class="fil0" d="M61.51 4.14l-3.4 0c0.05,0.3 0.18,0.54 0.39,0.72 0.21,0.18 0.48,0.27 0.81,0.27 0.4,0 0.73,-0.14 1.02,-0.42l0.89 0.42c-0.22,0.32 -0.49,0.55 -0.8,0.7 -0.31,0.15 -0.68,0.23 -1.1,0.23 -0.66,0 -1.2,-0.21 -1.61,-0.63 -0.41,-0.42 -0.62,-0.94 -0.62,-1.57 0,-0.64 0.21,-1.18 0.62,-1.6 0.42,-0.43 0.93,-0.64 1.56,-0.64 0.66,0 1.21,0.21 1.62,0.63 0.42,0.42 0.62,0.98 0.62,1.68l-0 0.2zm-1.05 -0.83c-0.07,-0.23 -0.21,-0.42 -0.41,-0.56 -0.21,-0.14 -0.45,-0.22 -0.72,-0.22 -0.3,0 -0.55,0.08 -0.78,0.24 -0.14,0.1 -0.27,0.28 -0.39,0.54l2.3 0z"/>
  <polygon id="_11" class="fil0" points="63.43,3.25 65.02,3.25 65.02,1.73 66.08,1.73 66.08,5.95 65.02,5.95 65.02,4.2 63.43,4.2 63.43,5.95 62.37,5.95 62.37,1.73 63.43,1.73 "/>
  <polygon id="_12" class="fil0" points="68.21,3.25 69.8,3.25 69.8,1.73 70.86,1.73 70.86,5.95 69.8,5.95 69.8,4.2 68.21,4.2 68.21,5.95 67.15,5.95 67.15,1.73 68.21,1.73 "/>
  <polygon id="_13" class="fil0" points="72.49,5.95 71.92,5.95 71.92,1.73 72.96,1.73 72.96,4.21 75.12,1.73 75.63,1.73 75.63,5.95 74.6,5.95 74.6,3.52 "/>
  <polygon id="_14" class="fil0" points="76.7,1.73 77.76,1.73 77.76,3.31 79.23,1.73 80.52,1.73 78.63,3.78 80.54,5.95 79.13,5.95 77.87,4.46 77.76,4.59 77.76,5.95 76.7,5.95 "/>
  <path id="_15" class="fil0" d="M84.1 1.73l1.06 0 0 4.22 -1.06 0 0 -0.45c-0.21,0.2 -0.42,0.34 -0.62,0.42 -0.21,0.09 -0.43,0.13 -0.68,0.13 -0.55,0 -1.02,-0.21 -1.42,-0.63 -0.4,-0.42 -0.6,-0.95 -0.6,-1.57 0,-0.65 0.19,-1.18 0.58,-1.6 0.39,-0.41 0.85,-0.62 1.41,-0.62 0.25,0 0.49,0.05 0.71,0.14 0.22,0.09 0.43,0.24 0.62,0.43l0 -0.46zm-1.12 0.87c-0.33,0 -0.6,0.12 -0.82,0.35 -0.22,0.23 -0.33,0.53 -0.33,0.89 0,0.36 0.11,0.66 0.33,0.9 0.22,0.23 0.49,0.35 0.82,0.35 0.33,0 0.61,-0.12 0.83,-0.35 0.22,-0.23 0.33,-0.53 0.33,-0.91 0,-0.37 -0.11,-0.66 -0.33,-0.89 -0.22,-0.23 -0.5,-0.34 -0.83,-0.34z"/>
  <polygon id="_16" class="fil0" points="88.81,4.39 90.12,1.73 90.82,1.73 91.87,5.95 90.83,5.95 90.27,3.47 89,5.95 88.57,5.95 87.34,3.47 86.77,5.95 85.74,5.95 86.79,1.73 87.49,1.73 "/>
  <polygon id="_17" class="fil0" points="93.02,5.95 92.45,5.95 92.45,1.73 93.49,1.73 93.49,4.21 95.65,1.73 96.16,1.73 96.16,5.95 95.12,5.95 95.12,3.52 "/>
 </g>
</svg>
