<?xml version="1.0" encoding="UTF-8"?>
<!DOCTYPE svg PUBLIC "-//W3C//DTD SVG 1.1//EN" "http://www.w3.org/Graphics/SVG/1.1/DTD/svg11.dtd">
<!-- Creator: CorelDRAW -->
<svg xmlns="http://www.w3.org/2000/svg" xml:space="preserve" width="83.9804mm" height="13.923mm" version="1.1" style="shape-rendering:geometricPrecision; text-rendering:geometricPrecision; image-rendering:optimizeQuality; fill-rule:evenodd; clip-rule:evenodd"
viewBox="0 0 93.19 15.45"
 xmlns:xlink="http://www.w3.org/1999/xlink"
 xmlns:xodm="http://www.corel.com/coreldraw/odm/2003">
 <defs>
  <style type="text/css">
   <![CDATA[
    .fil0 {fill:#C29138;fill-rule:nonzero}
   ]]>
  </style>
 </defs>
 <g id="Слой_x0020_1">
  <metadata id="CorelCorpID_0Corel-Layer"/>
  <path class="fil0" d="M5.45 1.22l-0.75 0.71c-0.51,-0.54 -1.08,-0.81 -1.72,-0.81 -0.54,0 -0.99,0.18 -1.36,0.55 -0.37,0.37 -0.55,0.82 -0.55,1.36 0,0.37 0.08,0.71 0.25,1 0.16,0.29 0.39,0.52 0.69,0.68 0.3,0.17 0.63,0.25 1,0.25 0.31,0 0.59,-0.06 0.85,-0.17 0.26,-0.12 0.54,-0.33 0.85,-0.63l0.73 0.76c-0.42,0.41 -0.81,0.69 -1.18,0.84 -0.37,0.16 -0.79,0.24 -1.27,0.24 -0.87,0 -1.59,-0.28 -2.15,-0.83 -0.56,-0.55 -0.84,-1.26 -0.84,-2.13 0,-0.56 0.13,-1.06 0.38,-1.49 0.25,-0.44 0.62,-0.79 1.09,-1.05 0.47,-0.26 0.98,-0.4 1.53,-0.4 0.46,0 0.91,0.1 1.34,0.29 0.43,0.2 0.8,0.47 1.11,0.83z"/>
  <path id="_1" class="fil0" d="M9.35 1.7l1.04 0 0 4.16 -1.04 0 0 -0.44c-0.2,0.19 -0.41,0.33 -0.61,0.42 -0.2,0.08 -0.43,0.13 -0.67,0.13 -0.54,0 -1,-0.21 -1.4,-0.62 -0.39,-0.41 -0.59,-0.93 -0.59,-1.55 0,-0.64 0.19,-1.17 0.57,-1.58 0.38,-0.41 0.84,-0.61 1.38,-0.61 0.25,0 0.48,0.05 0.7,0.14 0.22,0.09 0.42,0.23 0.61,0.42l0 -0.46zm-1.1 0.85c-0.32,0 -0.59,0.11 -0.81,0.34 -0.21,0.23 -0.32,0.52 -0.32,0.88 0,0.36 0.11,0.65 0.33,0.89 0.22,0.23 0.49,0.35 0.8,0.35 0.33,0 0.6,-0.11 0.82,-0.34 0.22,-0.23 0.32,-0.53 0.32,-0.9 0,-0.36 -0.11,-0.65 -0.32,-0.88 -0.22,-0.22 -0.49,-0.34 -0.82,-0.34z"/>
  <path id="_2" class="fil0" d="M12.48 1.7l0 0.46c0.19,-0.19 0.39,-0.33 0.61,-0.42 0.22,-0.09 0.45,-0.14 0.7,-0.14 0.54,0 1,0.2 1.38,0.61 0.38,0.41 0.57,0.93 0.57,1.58 0,0.62 -0.2,1.13 -0.59,1.55 -0.39,0.42 -0.86,0.62 -1.39,0.62 -0.24,0 -0.46,-0.04 -0.67,-0.13 -0.21,-0.08 -0.41,-0.22 -0.61,-0.42l0 1.96 -1.04 0 0 -5.68 1.04 0zm1.09 0.85c-0.33,0 -0.6,0.11 -0.82,0.34 -0.22,0.22 -0.32,0.52 -0.32,0.88 0,0.37 0.11,0.67 0.32,0.9 0.22,0.23 0.49,0.34 0.82,0.34 0.32,0 0.59,-0.12 0.8,-0.35 0.22,-0.23 0.33,-0.53 0.33,-0.89 0,-0.36 -0.11,-0.65 -0.32,-0.88 -0.21,-0.23 -0.48,-0.34 -0.81,-0.34z"/>
  <path id="_3" class="fil0" d="M19.68 1.7l1.04 0 0 4.16 -1.04 0 0 -0.44c-0.2,0.19 -0.41,0.33 -0.61,0.42 -0.2,0.08 -0.43,0.13 -0.67,0.13 -0.54,0 -1,-0.21 -1.4,-0.62 -0.39,-0.41 -0.59,-0.93 -0.59,-1.55 0,-0.64 0.19,-1.17 0.57,-1.58 0.38,-0.41 0.84,-0.61 1.38,-0.61 0.25,0 0.48,0.05 0.7,0.14 0.22,0.09 0.42,0.23 0.61,0.42l0 -0.46zm-1.1 0.85c-0.32,0 -0.59,0.11 -0.81,0.34 -0.21,0.23 -0.32,0.52 -0.32,0.88 0,0.36 0.11,0.65 0.33,0.89 0.22,0.23 0.49,0.35 0.8,0.35 0.33,0 0.6,-0.11 0.82,-0.34 0.22,-0.23 0.32,-0.53 0.32,-0.9 0,-0.36 -0.11,-0.65 -0.32,-0.88 -0.22,-0.22 -0.49,-0.34 -0.82,-0.34z"/>
  <polygon id="_4" class="fil0" points="22.33,5.86 21.78,5.86 21.78,1.7 22.79,1.7 22.79,4.14 24.92,1.7 25.42,1.7 25.42,5.86 24.41,5.86 24.41,3.46 "/>
  <polygon id="_5" class="fil0" points="26.98,4.8 27.73,5.18 26.78,6.79 26.26,6.54 "/>
  <path id="_6" class="fil0" d="M34.84 0l0 0.99c-0.3,0.03 -0.59,0.05 -0.87,0.05 -0.51,0.01 -0.9,0.03 -1.15,0.07 -0.26,0.04 -0.49,0.13 -0.68,0.28 -0.2,0.14 -0.34,0.31 -0.42,0.5 -0.08,0.19 -0.13,0.46 -0.15,0.81 0.3,-0.72 0.82,-1.08 1.55,-1.08 0.54,0 1.01,0.2 1.4,0.59 0.4,0.39 0.59,0.9 0.59,1.52 0,0.64 -0.21,1.17 -0.64,1.6 -0.42,0.42 -0.95,0.64 -1.57,0.64 -0.51,0 -0.96,-0.16 -1.34,-0.47 -0.39,-0.31 -0.64,-0.68 -0.75,-1.11 -0.11,-0.43 -0.16,-0.89 -0.16,-1.37 0,-0.63 0.08,-1.13 0.23,-1.52 0.16,-0.39 0.36,-0.69 0.62,-0.88 0.25,-0.2 0.55,-0.33 0.88,-0.39 0.34,-0.07 0.83,-0.11 1.48,-0.14 0.44,-0.02 0.77,-0.04 0.98,-0.07zm-0.78 3.77c0,-0.35 -0.1,-0.63 -0.31,-0.86 -0.21,-0.23 -0.48,-0.34 -0.83,-0.34 -0.33,0 -0.6,0.11 -0.82,0.34 -0.22,0.23 -0.32,0.52 -0.32,0.86 0,0.36 0.11,0.65 0.32,0.88 0.21,0.22 0.48,0.33 0.81,0.33 0.32,0 0.59,-0.11 0.81,-0.33 0.22,-0.22 0.33,-0.51 0.33,-0.88z"/>
  <path id="_7" class="fil0" d="M39.04 1.7l1.04 0 0 4.16 -1.04 0 0 -0.44c-0.2,0.19 -0.41,0.33 -0.61,0.42 -0.2,0.08 -0.43,0.13 -0.67,0.13 -0.54,0 -1,-0.21 -1.4,-0.62 -0.39,-0.41 -0.59,-0.93 -0.59,-1.55 0,-0.64 0.19,-1.17 0.57,-1.58 0.38,-0.41 0.84,-0.61 1.38,-0.61 0.25,0 0.48,0.05 0.7,0.14 0.22,0.09 0.42,0.23 0.61,0.42l0 -0.46zm-1.1 0.85c-0.32,0 -0.59,0.11 -0.81,0.34 -0.21,0.23 -0.32,0.52 -0.32,0.88 0,0.36 0.11,0.65 0.33,0.89 0.22,0.23 0.49,0.35 0.8,0.35 0.33,0 0.6,-0.11 0.82,-0.34 0.22,-0.23 0.32,-0.53 0.32,-0.9 0,-0.36 -0.11,-0.65 -0.32,-0.88 -0.22,-0.22 -0.49,-0.34 -0.82,-0.34z"/>
  <polygon id="_8" class="fil0" points="42.17,3.19 43.73,3.19 43.73,1.7 44.78,1.7 44.78,5.86 43.73,5.86 43.73,4.13 42.17,4.13 42.17,5.86 41.13,5.86 41.13,1.7 42.17,1.7 "/>
  <polygon id="_9" class="fil0" points="46.38,5.86 45.83,5.86 45.83,1.7 46.84,1.7 46.84,4.14 48.97,1.7 49.47,1.7 49.47,5.86 48.46,5.86 48.46,3.46 "/>
  <polygon id="_10" class="fil0" points="53.27,5.86 52.72,5.86 52.72,1.7 53.73,1.7 53.73,4.14 55.86,1.7 56.36,1.7 56.36,5.86 55.35,5.86 55.35,3.46 "/>
  <polygon id="_11" class="fil0" points="59.24,1.7 63.11,1.7 63.11,2.69 61.73,2.69 61.73,5.86 60.69,5.86 60.69,2.69 59.24,2.69 "/>
  <path id="_12" class="fil0" d="M67.96 4.07l-3.35 0c0.05,0.3 0.18,0.53 0.39,0.71 0.21,0.17 0.48,0.26 0.8,0.26 0.39,0 0.72,-0.14 1,-0.41l0.87 0.41c-0.22,0.31 -0.48,0.54 -0.78,0.69 -0.31,0.15 -0.67,0.22 -1.09,0.22 -0.65,0 -1.18,-0.2 -1.59,-0.62 -0.41,-0.41 -0.61,-0.92 -0.61,-1.54 0,-0.63 0.2,-1.16 0.61,-1.58 0.41,-0.42 0.92,-0.63 1.54,-0.63 0.65,0 1.19,0.21 1.6,0.62 0.41,0.42 0.61,0.97 0.61,1.65l-0 0.2zm-1.04 -0.81c-0.07,-0.23 -0.2,-0.41 -0.41,-0.55 -0.2,-0.14 -0.44,-0.21 -0.71,-0.21 -0.29,0 -0.55,0.08 -0.77,0.24 -0.14,0.1 -0.26,0.28 -0.38,0.53l2.26 0z"/>
  <polygon id="_13" class="fil0" points="69.85,5.86 68.81,5.86 68.81,1.7 72.46,1.7 72.46,5.86 71.41,5.86 71.41,2.7 69.85,2.7 "/>
  <polygon id="_14" class="fil0" points="77.23,5.86 76.17,5.86 75.12,3.23 74.06,5.86 73,5.86 74.77,1.7 75.45,1.7 "/>
  <polygon id="_15" class="fil0" points="78.33,5.86 77.77,5.86 77.77,1.7 78.79,1.7 78.79,4.14 80.92,1.7 81.42,1.7 81.42,5.86 80.4,5.86 80.4,3.46 "/>
  <polygon id="_16" class="fil0" points="82.47,5.86 82.47,1.7 83.51,1.7 83.51,4.85 85.08,4.85 85.08,1.7 86.12,1.7 86.12,4.85 87.18,4.85 87.18,6.58 86.18,6.58 86.18,5.86 "/>
  <path id="_17" class="fil0" d="M88.79 3.2l0.31 0c0.44,0 0.77,0.03 1.01,0.1 0.23,0.07 0.43,0.21 0.59,0.42 0.16,0.21 0.24,0.48 0.24,0.81 0,0.32 -0.07,0.59 -0.22,0.8 -0.15,0.21 -0.33,0.35 -0.56,0.42 -0.23,0.07 -0.54,0.1 -0.95,0.1l-1.47 0 0 -4.16 1.04 0 0 1.5zm0 1.85l0.32 0c0.19,0 0.33,-0.01 0.41,-0.04 0.08,-0.03 0.16,-0.08 0.22,-0.15 0.06,-0.08 0.1,-0.17 0.1,-0.28 0,-0.35 -0.2,-0.53 -0.61,-0.53l-0.43 0 0 1zm2.88 -3.35l1.04 0 0 4.16 -1.04 0 0 -4.16z"/>
  <path id="_18" class="fil0" d="M25.04 11.09c0.39,0 0.76,0.1 1.11,0.29 0.35,0.2 0.62,0.46 0.81,0.8 0.19,0.34 0.29,0.7 0.29,1.09 0,0.39 -0.1,0.76 -0.29,1.1 -0.2,0.34 -0.46,0.61 -0.8,0.8 -0.34,0.19 -0.71,0.29 -1.11,0.29 -0.6,0 -1.11,-0.21 -1.53,-0.63 -0.42,-0.42 -0.63,-0.94 -0.63,-1.54 0,-0.65 0.24,-1.19 0.72,-1.62 0.42,-0.38 0.9,-0.56 1.44,-0.56zm0.02 0.98c-0.32,0 -0.6,0.11 -0.81,0.34 -0.22,0.23 -0.32,0.51 -0.32,0.86 0,0.36 0.11,0.65 0.32,0.88 0.21,0.22 0.48,0.34 0.81,0.34 0.33,0 0.6,-0.11 0.82,-0.34 0.22,-0.23 0.32,-0.52 0.32,-0.87 0,-0.36 -0.11,-0.64 -0.32,-0.87 -0.21,-0.22 -0.49,-0.33 -0.82,-0.33z"/>
  <path id="_19" class="fil0" d="M32.08 9.49l0 0.99c-0.3,0.03 -0.59,0.05 -0.87,0.05 -0.51,0.01 -0.9,0.03 -1.15,0.07 -0.26,0.04 -0.49,0.13 -0.68,0.28 -0.2,0.14 -0.34,0.31 -0.42,0.5 -0.08,0.19 -0.13,0.46 -0.15,0.81 0.3,-0.72 0.82,-1.08 1.55,-1.08 0.54,0 1.01,0.2 1.4,0.59 0.4,0.39 0.59,0.9 0.59,1.52 0,0.64 -0.21,1.17 -0.64,1.6 -0.42,0.42 -0.95,0.64 -1.57,0.64 -0.51,0 -0.96,-0.16 -1.34,-0.47 -0.39,-0.31 -0.64,-0.68 -0.75,-1.11 -0.11,-0.43 -0.16,-0.89 -0.16,-1.37 0,-0.63 0.08,-1.13 0.23,-1.52 0.16,-0.39 0.36,-0.69 0.62,-0.88 0.25,-0.2 0.55,-0.33 0.88,-0.39 0.34,-0.07 0.83,-0.11 1.48,-0.14 0.44,-0.02 0.77,-0.04 0.98,-0.07zm-0.78 3.77c0,-0.35 -0.1,-0.63 -0.31,-0.86 -0.21,-0.23 -0.48,-0.34 -0.83,-0.34 -0.33,0 -0.6,0.11 -0.82,0.34 -0.22,0.23 -0.32,0.52 -0.32,0.86 0,0.36 0.11,0.65 0.32,0.88 0.21,0.22 0.48,0.33 0.81,0.33 0.32,0 0.59,-0.11 0.81,-0.33 0.22,-0.22 0.33,-0.51 0.33,-0.88z"/>
  <polygon id="_20" class="fil0" points="36.92,15.35 35.87,15.35 34.82,12.72 33.75,15.35 32.7,15.35 34.47,11.19 35.14,11.19 "/>
  <path id="_21" class="fil0" d="M39.42 11.09c0.39,0 0.76,0.1 1.11,0.29 0.35,0.2 0.62,0.46 0.81,0.8 0.19,0.34 0.29,0.7 0.29,1.09 0,0.39 -0.1,0.76 -0.29,1.1 -0.2,0.34 -0.46,0.61 -0.8,0.8 -0.34,0.19 -0.71,0.29 -1.11,0.29 -0.6,0 -1.11,-0.21 -1.53,-0.63 -0.42,-0.42 -0.63,-0.94 -0.63,-1.54 0,-0.65 0.24,-1.19 0.72,-1.62 0.42,-0.38 0.9,-0.56 1.44,-0.56zm0.02 0.98c-0.32,0 -0.6,0.11 -0.81,0.34 -0.22,0.23 -0.32,0.51 -0.32,0.86 0,0.36 0.11,0.65 0.32,0.88 0.21,0.22 0.48,0.34 0.81,0.34 0.33,0 0.6,-0.11 0.82,-0.34 0.22,-0.23 0.32,-0.52 0.32,-0.87 0,-0.36 -0.11,-0.64 -0.32,-0.87 -0.21,-0.22 -0.49,-0.33 -0.82,-0.33z"/>
  <polygon id="_22" class="fil0" points="44.59,14.01 44.47,13.89 43.23,15.35 41.85,15.35 43.73,13.21 41.87,11.19 43.14,11.19 44.59,12.75 44.59,11.19 45.63,11.19 45.63,12.75 47.07,11.19 48.35,11.19 46.48,13.21 48.37,15.35 46.98,15.35 45.74,13.88 45.63,14.01 45.63,15.35 44.59,15.35 "/>
  <path id="_23" class="fil0" d="M51.87 11.19l1.04 0 0 4.16 -1.04 0 0 -0.44c-0.2,0.19 -0.41,0.33 -0.61,0.42 -0.2,0.08 -0.43,0.13 -0.67,0.13 -0.54,0 -1,-0.21 -1.4,-0.62 -0.39,-0.41 -0.59,-0.93 -0.59,-1.55 0,-0.64 0.19,-1.17 0.57,-1.58 0.38,-0.41 0.84,-0.61 1.38,-0.61 0.25,0 0.48,0.05 0.7,0.14 0.22,0.09 0.42,0.23 0.61,0.42l0 -0.46zm-1.1 0.85c-0.32,0 -0.59,0.11 -0.81,0.34 -0.21,0.23 -0.32,0.52 -0.32,0.88 0,0.36 0.11,0.65 0.33,0.89 0.22,0.23 0.49,0.35 0.8,0.35 0.33,0 0.6,-0.11 0.82,-0.34 0.22,-0.23 0.32,-0.53 0.32,-0.9 0,-0.36 -0.11,-0.65 -0.32,-0.88 -0.22,-0.22 -0.49,-0.34 -0.82,-0.34z"/>
  <polygon id="_24" class="fil0" points="53.59,11.19 57.47,11.19 57.47,12.18 56.08,12.18 56.08,15.35 55.04,15.35 55.04,12.18 53.59,12.18 "/>
  <polygon id="_25" class="fil0" points="61.38,12.69 62.95,12.69 62.95,11.19 63.99,11.19 63.99,15.35 62.95,15.35 62.95,13.63 61.38,13.63 61.38,15.35 60.34,15.35 60.34,11.19 61.38,11.19 "/>
  <path id="_26" class="fil0" d="M68.12 11.19l1.04 0 0 4.16 -1.04 0 0 -0.44c-0.2,0.19 -0.41,0.33 -0.61,0.42 -0.2,0.08 -0.43,0.13 -0.67,0.13 -0.54,0 -1,-0.21 -1.4,-0.62 -0.39,-0.41 -0.59,-0.93 -0.59,-1.55 0,-0.64 0.19,-1.17 0.57,-1.58 0.38,-0.41 0.84,-0.61 1.38,-0.61 0.25,0 0.48,0.05 0.7,0.14 0.22,0.09 0.42,0.23 0.61,0.42l0 -0.46zm-1.1 0.85c-0.32,0 -0.59,0.11 -0.81,0.34 -0.21,0.23 -0.32,0.52 -0.32,0.88 0,0.36 0.11,0.65 0.33,0.89 0.22,0.23 0.49,0.35 0.8,0.35 0.33,0 0.6,-0.11 0.82,-0.34 0.22,-0.23 0.32,-0.53 0.32,-0.9 0,-0.36 -0.11,-0.65 -0.32,-0.88 -0.22,-0.22 -0.49,-0.34 -0.82,-0.34z"/>
  <polygon id="_27" class="fil0" points="73.93,15.35 72.87,15.35 71.82,12.72 70.76,15.35 69.7,15.35 71.47,11.19 72.15,11.19 "/>
  <path id="_28" class="fil0" d="M76.43 11.09c0.39,0 0.76,0.1 1.11,0.29 0.35,0.2 0.62,0.46 0.81,0.8 0.19,0.34 0.29,0.7 0.29,1.09 0,0.39 -0.1,0.76 -0.29,1.1 -0.2,0.34 -0.46,0.61 -0.8,0.8 -0.34,0.19 -0.71,0.29 -1.11,0.29 -0.6,0 -1.11,-0.21 -1.53,-0.63 -0.42,-0.42 -0.63,-0.94 -0.63,-1.54 0,-0.65 0.24,-1.19 0.72,-1.62 0.42,-0.38 0.9,-0.56 1.44,-0.56zm0.02 0.98c-0.32,0 -0.6,0.11 -0.81,0.34 -0.22,0.23 -0.32,0.51 -0.32,0.86 0,0.36 0.11,0.65 0.32,0.88 0.21,0.22 0.48,0.34 0.81,0.34 0.33,0 0.6,-0.11 0.82,-0.34 0.22,-0.23 0.32,-0.52 0.32,-0.87 0,-0.36 -0.11,-0.64 -0.32,-0.87 -0.21,-0.22 -0.49,-0.33 -0.82,-0.33z"/>
  <polygon id="_29" class="fil0" points="79.49,11.19 81.91,11.19 81.91,12.18 80.53,12.18 80.53,15.35 79.49,15.35 "/>
  <path id="_30" class="fil0" d="M84.57 11.09c0.39,0 0.76,0.1 1.11,0.29 0.35,0.2 0.62,0.46 0.81,0.8 0.19,0.34 0.29,0.7 0.29,1.09 0,0.39 -0.1,0.76 -0.29,1.1 -0.2,0.34 -0.46,0.61 -0.8,0.8 -0.34,0.19 -0.71,0.29 -1.11,0.29 -0.6,0 -1.11,-0.21 -1.53,-0.63 -0.42,-0.42 -0.63,-0.94 -0.63,-1.54 0,-0.65 0.24,-1.19 0.72,-1.62 0.42,-0.38 0.9,-0.56 1.44,-0.56zm0.02 0.98c-0.32,0 -0.6,0.11 -0.81,0.34 -0.22,0.23 -0.32,0.51 -0.32,0.86 0,0.36 0.11,0.65 0.32,0.88 0.21,0.22 0.48,0.34 0.81,0.34 0.33,0 0.6,-0.11 0.82,-0.34 0.22,-0.23 0.32,-0.52 0.32,-0.87 0,-0.36 -0.11,-0.64 -0.32,-0.87 -0.21,-0.22 -0.49,-0.33 -0.82,-0.33z"/>
  <polygon id="_31" class="fil0" points="90.18,13.81 91.46,11.19 92.15,11.19 93.19,15.35 92.17,15.35 91.61,12.91 90.37,15.35 89.94,15.35 88.73,12.91 88.17,15.35 87.15,15.35 88.19,11.19 88.88,11.19 "/>
 </g>
</svg>
