<?xml version="1.0" encoding="UTF-8"?>
<!DOCTYPE svg PUBLIC "-//W3C//DTD SVG 1.1//EN" "http://www.w3.org/Graphics/SVG/1.1/DTD/svg11.dtd">
<!-- Creator: CorelDRAW -->
<svg xmlns="http://www.w3.org/2000/svg" xml:space="preserve" width="57.0034mm" height="14.9884mm" version="1.1" style="shape-rendering:geometricPrecision; text-rendering:geometricPrecision; image-rendering:optimizeQuality; fill-rule:evenodd; clip-rule:evenodd"
viewBox="0 0 42.63 11.21"
 xmlns:xlink="http://www.w3.org/1999/xlink"
 xmlns:xodm="http://www.corel.com/coreldraw/odm/2003">
 <defs>
  <style type="text/css">
   <![CDATA[
    .fil0 {fill:#C29138;fill-rule:nonzero}
   ]]>
  </style>
 </defs>
 <g id="Слой_x0020_1">
  <metadata id="CorelCorpID_0Corel-Layer"/>
  <polygon class="fil0" points="6.68,0 7.42,0 7.42,1.43 8.68,1.43 8.68,0 9.41,0 9.41,3.79 8.68,3.79 8.68,2.13 7.42,2.13 7.42,3.79 6.68,3.79 "/>
  <path id="_1" class="fil0" d="M11.52 0.92c0.26,0 0.51,0.07 0.75,0.2 0.23,0.13 0.42,0.31 0.55,0.54 0.13,0.23 0.2,0.47 0.2,0.73 0,0.26 -0.07,0.51 -0.2,0.74 -0.13,0.23 -0.31,0.41 -0.54,0.54 -0.23,0.13 -0.48,0.19 -0.75,0.19 -0.4,0 -0.75,-0.14 -1.03,-0.43 -0.28,-0.29 -0.43,-0.63 -0.43,-1.04 0,-0.44 0.16,-0.8 0.48,-1.09 0.28,-0.25 0.61,-0.38 0.97,-0.38zm0.01 0.66c-0.22,0 -0.4,0.08 -0.55,0.23 -0.15,0.15 -0.22,0.35 -0.22,0.58 0,0.24 0.07,0.44 0.22,0.59 0.14,0.15 0.33,0.23 0.55,0.23 0.22,0 0.4,-0.08 0.55,-0.23 0.15,-0.15 0.22,-0.35 0.22,-0.59 0,-0.24 -0.07,-0.43 -0.22,-0.58 -0.14,-0.15 -0.33,-0.22 -0.55,-0.22z"/>
  <path id="_2" class="fil0" d="M13.58 3.79l0 -2.8 1.13 0c0.37,0 0.62,0.07 0.75,0.22 0.13,0.15 0.2,0.31 0.2,0.49 0,0.27 -0.14,0.47 -0.41,0.59 0.37,0.13 0.55,0.37 0.55,0.72 0,0.19 -0.05,0.35 -0.15,0.47 -0.1,0.12 -0.22,0.21 -0.37,0.25 -0.15,0.04 -0.36,0.06 -0.63,0.06l-1.08 0zm0.7 -1.7l0.27 0c0.12,0 0.21,-0.03 0.27,-0.09 0.06,-0.06 0.09,-0.12 0.09,-0.19 0,-0.1 -0.03,-0.19 -0.09,-0.24 -0.06,-0.06 -0.13,-0.09 -0.22,-0.09l-0.09 0 -0.24 0 0 0.61zm0 1.16l0.36 0c0.14,0 0.24,-0.03 0.29,-0.1 0.06,-0.06 0.08,-0.13 0.08,-0.19 0,-0.09 -0.03,-0.17 -0.09,-0.25 -0.06,-0.07 -0.18,-0.11 -0.34,-0.11l-0.3 0 0 0.64z"/>
  <path id="_3" class="fil0" d="M17.1 2l0.21 0c0.3,0 0.52,0.02 0.68,0.07 0.16,0.05 0.29,0.14 0.4,0.28 0.11,0.14 0.16,0.33 0.16,0.54 0,0.22 -0.05,0.4 -0.15,0.54 -0.1,0.14 -0.22,0.24 -0.38,0.29 -0.15,0.05 -0.36,0.07 -0.64,0.07l-0.99 0 0 -2.8 0.7 0 0 1.01zm0 1.25l0.21 0c0.13,0 0.22,-0.01 0.28,-0.03 0.06,-0.02 0.11,-0.05 0.15,-0.1 0.04,-0.05 0.07,-0.11 0.07,-0.19 0,-0.24 -0.14,-0.36 -0.41,-0.36l-0.29 0 0 0.68zm1.94 -2.26l0.7 0 0 2.8 -0.7 0 0 -2.8z"/>
  <path id="_4" class="fil0" d="M23.26 2.59l-2.26 0c0.03,0.2 0.12,0.36 0.26,0.48 0.14,0.12 0.32,0.18 0.54,0.18 0.26,0 0.49,-0.09 0.67,-0.28l0.59 0.28c-0.15,0.21 -0.32,0.36 -0.53,0.47 -0.21,0.1 -0.45,0.15 -0.73,0.15 -0.44,0 -0.8,-0.14 -1.07,-0.42 -0.28,-0.28 -0.41,-0.62 -0.41,-1.04 0,-0.43 0.14,-0.78 0.41,-1.06 0.28,-0.28 0.62,-0.42 1.04,-0.42 0.44,0 0.8,0.14 1.08,0.42 0.28,0.28 0.41,0.65 0.41,1.11l-0 0.13zm-0.7 -0.55c-0.05,-0.15 -0.14,-0.28 -0.27,-0.37 -0.14,-0.1 -0.3,-0.14 -0.48,-0.14 -0.2,0 -0.37,0.05 -0.52,0.16 -0.09,0.07 -0.18,0.19 -0.26,0.36l1.53 0z"/>
  <polygon id="_5" class="fil0" points="27.82,3.79 27.11,3.79 26.4,2.02 25.68,3.79 24.97,3.79 26.16,0.99 26.62,0.99 "/>
  <path id="_6" class="fil0" d="M28.89 2l0.21 0c0.3,0 0.52,0.02 0.68,0.07 0.16,0.05 0.29,0.14 0.4,0.28 0.11,0.14 0.16,0.33 0.16,0.54 0,0.22 -0.05,0.4 -0.15,0.54 -0.1,0.14 -0.22,0.24 -0.38,0.29 -0.15,0.05 -0.36,0.07 -0.64,0.07l-0.99 0 0 -2.8 0.7 0 0 1.01zm0 1.25l0.21 0c0.13,0 0.22,-0.01 0.28,-0.03 0.06,-0.02 0.11,-0.05 0.15,-0.1 0.04,-0.05 0.07,-0.11 0.07,-0.19 0,-0.24 -0.14,-0.36 -0.41,-0.36l-0.29 0 0 0.68z"/>
  <polygon id="_7" class="fil0" points="30.87,0.99 32.51,0.99 32.51,1.66 31.58,1.66 31.58,3.79 30.87,3.79 "/>
  <path id="_8" class="fil0" d="M34.3 0.92c0.26,0 0.51,0.07 0.75,0.2 0.23,0.13 0.42,0.31 0.55,0.54 0.13,0.23 0.2,0.47 0.2,0.73 0,0.26 -0.07,0.51 -0.2,0.74 -0.13,0.23 -0.31,0.41 -0.54,0.54 -0.23,0.13 -0.48,0.19 -0.75,0.19 -0.4,0 -0.75,-0.14 -1.03,-0.43 -0.28,-0.29 -0.43,-0.63 -0.43,-1.04 0,-0.44 0.16,-0.8 0.48,-1.09 0.28,-0.25 0.61,-0.38 0.97,-0.38zm0.01 0.66c-0.22,0 -0.4,0.08 -0.55,0.23 -0.15,0.15 -0.22,0.35 -0.22,0.58 0,0.24 0.07,0.44 0.22,0.59 0.14,0.15 0.33,0.23 0.55,0.23 0.22,0 0.4,-0.08 0.55,-0.23 0.15,-0.15 0.22,-0.35 0.22,-0.59 0,-0.24 -0.07,-0.43 -0.22,-0.58 -0.14,-0.15 -0.33,-0.22 -0.55,-0.22z"/>
  <polygon id="_9" class="fil0" points="36.11,0.99 38.73,0.99 38.73,1.66 37.79,1.66 37.79,3.79 37.09,3.79 37.09,1.66 36.11,1.66 "/>
  <path id="_10" class="fil0" d="M39.89 2l0.21 0c0.3,0 0.52,0.02 0.68,0.07 0.16,0.05 0.29,0.14 0.4,0.28 0.11,0.14 0.16,0.33 0.16,0.54 0,0.22 -0.05,0.4 -0.15,0.54 -0.1,0.14 -0.22,0.24 -0.38,0.29 -0.15,0.05 -0.36,0.07 -0.64,0.07l-0.99 0 0 -2.8 0.7 0 0 1.01zm0 1.25l0.21 0c0.13,0 0.22,-0.01 0.28,-0.03 0.06,-0.02 0.11,-0.05 0.15,-0.1 0.04,-0.05 0.07,-0.11 0.07,-0.19 0,-0.24 -0.14,-0.36 -0.41,-0.36l-0.29 0 0 0.68zm1.94 -2.26l0.7 0 0 2.8 -0.7 0 0 -2.8z"/>
  <path id="_11" class="fil0" d="M-0 10.19l0 -2.8 1.13 0c0.37,0 0.62,0.07 0.75,0.22 0.13,0.15 0.2,0.31 0.2,0.49 0,0.27 -0.14,0.47 -0.41,0.59 0.37,0.13 0.55,0.37 0.55,0.72 0,0.19 -0.05,0.35 -0.15,0.47 -0.1,0.12 -0.22,0.21 -0.37,0.25 -0.15,0.04 -0.36,0.06 -0.63,0.06l-1.08 0zm0.7 -1.7l0.27 0c0.12,0 0.21,-0.03 0.27,-0.09 0.06,-0.06 0.09,-0.12 0.09,-0.19 0,-0.1 -0.03,-0.19 -0.09,-0.24 -0.06,-0.06 -0.13,-0.09 -0.22,-0.09l-0.09 0 -0.24 0 0 0.61zm0 1.16l0.36 0c0.14,0 0.24,-0.03 0.29,-0.1 0.06,-0.06 0.08,-0.13 0.08,-0.19 0,-0.09 -0.03,-0.17 -0.09,-0.25 -0.06,-0.07 -0.18,-0.11 -0.34,-0.11l-0.3 0 0 0.64z"/>
  <path id="_12" class="fil0" d="M5.63 8.98l-2.26 0c0.03,0.2 0.12,0.36 0.26,0.48 0.14,0.12 0.32,0.18 0.54,0.18 0.26,0 0.49,-0.09 0.67,-0.28l0.59 0.28c-0.15,0.21 -0.32,0.36 -0.53,0.47 -0.21,0.1 -0.45,0.15 -0.73,0.15 -0.44,0 -0.8,-0.14 -1.07,-0.42 -0.28,-0.28 -0.41,-0.62 -0.41,-1.04 0,-0.43 0.14,-0.78 0.41,-1.06 0.28,-0.28 0.62,-0.42 1.04,-0.42 0.44,0 0.8,0.14 1.08,0.42 0.28,0.28 0.41,0.65 0.41,1.11l-0 0.13zm-0.7 -0.55c-0.05,-0.15 -0.14,-0.28 -0.27,-0.37 -0.14,-0.1 -0.3,-0.14 -0.48,-0.14 -0.2,0 -0.37,0.05 -0.52,0.16 -0.09,0.07 -0.18,0.19 -0.26,0.36l1.53 0z"/>
  <polygon id="_13" class="fil0" points="5.95,7.38 8.57,7.38 8.57,8.05 7.63,8.05 7.63,10.19 6.93,10.19 6.93,8.05 5.95,8.05 "/>
  <path id="_14" class="fil0" d="M11.83 8.98l-2.26 0c0.03,0.2 0.12,0.36 0.26,0.48 0.14,0.12 0.32,0.18 0.54,0.18 0.26,0 0.49,-0.09 0.67,-0.28l0.59 0.28c-0.15,0.21 -0.32,0.36 -0.53,0.47 -0.21,0.1 -0.45,0.15 -0.73,0.15 -0.44,0 -0.8,-0.14 -1.07,-0.42 -0.28,-0.28 -0.41,-0.62 -0.41,-1.04 0,-0.43 0.14,-0.78 0.41,-1.06 0.28,-0.28 0.62,-0.42 1.04,-0.42 0.44,0 0.8,0.14 1.08,0.42 0.28,0.28 0.41,0.65 0.41,1.11l-0 0.13zm-0.7 -0.55c-0.05,-0.15 -0.14,-0.28 -0.27,-0.37 -0.14,-0.1 -0.3,-0.14 -0.48,-0.14 -0.2,0 -0.37,0.05 -0.52,0.16 -0.09,0.07 -0.18,0.19 -0.26,0.36l1.53 0z"/>
  <path id="_15" class="fil0" d="M13.11 7.38l0 0.31c0.13,-0.12 0.26,-0.22 0.41,-0.28 0.15,-0.06 0.31,-0.09 0.47,-0.09 0.36,0 0.68,0.14 0.93,0.41 0.26,0.28 0.38,0.63 0.38,1.06 0,0.42 -0.13,0.76 -0.4,1.04 -0.26,0.28 -0.58,0.42 -0.94,0.42 -0.16,0 -0.31,-0.03 -0.45,-0.09 -0.14,-0.06 -0.28,-0.15 -0.41,-0.28l0 1.32 -0.7 0 0 -3.83 0.7 0zm0.74 0.58c-0.22,0 -0.4,0.08 -0.55,0.23 -0.15,0.15 -0.22,0.35 -0.22,0.59 0,0.25 0.07,0.45 0.22,0.6 0.15,0.15 0.33,0.23 0.55,0.23 0.21,0 0.39,-0.08 0.54,-0.23 0.15,-0.16 0.22,-0.36 0.22,-0.6 0,-0.24 -0.07,-0.44 -0.22,-0.59 -0.14,-0.15 -0.33,-0.23 -0.55,-0.23z"/>
  <path id="_16" class="fil0" d="M17.96 7.38l0.7 0 0 2.8 -0.7 0 0 -0.3c-0.14,0.13 -0.28,0.22 -0.41,0.28 -0.14,0.06 -0.29,0.09 -0.45,0.09 -0.36,0 -0.68,-0.14 -0.94,-0.42 -0.26,-0.28 -0.4,-0.63 -0.4,-1.04 0,-0.43 0.13,-0.79 0.38,-1.06 0.26,-0.28 0.57,-0.41 0.93,-0.41 0.17,0 0.33,0.03 0.47,0.09 0.15,0.06 0.28,0.16 0.41,0.28l0 -0.31zm-0.74 0.58c-0.22,0 -0.4,0.08 -0.54,0.23 -0.14,0.15 -0.22,0.35 -0.22,0.59 0,0.24 0.07,0.44 0.22,0.6 0.15,0.16 0.33,0.23 0.54,0.23 0.22,0 0.4,-0.08 0.55,-0.23 0.15,-0.15 0.22,-0.35 0.22,-0.6 0,-0.24 -0.07,-0.44 -0.22,-0.59 -0.15,-0.15 -0.33,-0.23 -0.55,-0.23z"/>
  <polygon id="_17" class="fil0" points="20.07,8.39 21.13,8.39 21.13,7.38 21.83,7.38 21.83,10.19 21.13,10.19 21.13,9.03 20.07,9.03 20.07,10.19 19.37,10.19 19.37,7.38 20.07,7.38 "/>
  <path id="_18" class="fil0" d="M24.61 7.38l0.7 0 0 2.8 -0.7 0 0 -0.3c-0.14,0.13 -0.28,0.22 -0.41,0.28 -0.14,0.06 -0.29,0.09 -0.45,0.09 -0.36,0 -0.68,-0.14 -0.94,-0.42 -0.26,-0.28 -0.4,-0.63 -0.4,-1.04 0,-0.43 0.13,-0.79 0.38,-1.06 0.26,-0.28 0.57,-0.41 0.93,-0.41 0.17,0 0.33,0.03 0.47,0.09 0.15,0.06 0.28,0.16 0.41,0.28l0 -0.31zm-0.74 0.58c-0.22,0 -0.4,0.08 -0.54,0.23 -0.14,0.15 -0.22,0.35 -0.22,0.59 0,0.24 0.07,0.44 0.22,0.6 0.15,0.16 0.33,0.23 0.54,0.23 0.22,0 0.4,-0.08 0.55,-0.23 0.15,-0.15 0.22,-0.35 0.22,-0.6 0,-0.24 -0.07,-0.44 -0.22,-0.59 -0.15,-0.15 -0.33,-0.23 -0.55,-0.23z"/>
  <polygon id="_19" class="fil0" points="27.74,9.15 28.61,7.38 29.07,7.38 29.77,10.19 29.08,10.19 28.71,8.54 27.87,10.19 27.58,10.19 26.76,8.54 26.39,10.19 25.7,10.19 26.4,7.38 26.86,7.38 "/>
  <path id="_20" class="fil0" d="M35.19 7.06l-0.51 0.48c-0.34,-0.36 -0.73,-0.54 -1.16,-0.54 -0.36,0 -0.67,0.12 -0.92,0.37 -0.25,0.25 -0.37,0.55 -0.37,0.91 0,0.25 0.06,0.48 0.17,0.67 0.11,0.2 0.27,0.35 0.47,0.46 0.2,0.11 0.42,0.17 0.67,0.17 0.21,0 0.4,-0.04 0.57,-0.12 0.17,-0.08 0.36,-0.22 0.57,-0.43l0.49 0.51c-0.28,0.27 -0.54,0.46 -0.79,0.57 -0.25,0.11 -0.53,0.16 -0.85,0.16 -0.59,0 -1.07,-0.19 -1.45,-0.56 -0.38,-0.37 -0.56,-0.85 -0.56,-1.44 0,-0.38 0.09,-0.71 0.26,-1.01 0.17,-0.29 0.42,-0.53 0.73,-0.71 0.32,-0.18 0.66,-0.27 1.03,-0.27 0.31,0 0.61,0.07 0.9,0.2 0.29,0.13 0.54,0.32 0.75,0.56z"/>
  <path id="_21" class="fil0" d="M35.82 10.19l0 -3.79 0.6 0c0.35,0 0.6,0.02 0.76,0.07 0.23,0.06 0.41,0.17 0.54,0.34 0.13,0.16 0.2,0.36 0.2,0.58 0,0.14 -0.03,0.28 -0.09,0.39 -0.06,0.12 -0.16,0.23 -0.3,0.33 0.23,0.11 0.4,0.24 0.5,0.41 0.11,0.16 0.16,0.35 0.16,0.58 0,0.21 -0.06,0.41 -0.17,0.58 -0.11,0.18 -0.25,0.31 -0.43,0.39 -0.17,0.09 -0.41,0.13 -0.72,0.13l-1.07 0zm0.72 -3.1l0 0.8 0.16 0c0.18,0 0.31,-0.04 0.4,-0.11 0.09,-0.07 0.13,-0.18 0.13,-0.3 0,-0.12 -0.04,-0.21 -0.12,-0.28 -0.08,-0.07 -0.21,-0.1 -0.38,-0.1l-0.19 0zm0 1.45l0 0.97 0.18 0c0.3,0 0.51,-0.04 0.61,-0.11 0.11,-0.08 0.16,-0.19 0.16,-0.33 0,-0.16 -0.06,-0.29 -0.19,-0.39 -0.12,-0.09 -0.33,-0.14 -0.62,-0.14l-0.15 0z"/>
  <path id="_22" class="fil0" d="M40.67 6.3c0.54,0 1,0.19 1.38,0.58 0.39,0.39 0.58,0.86 0.58,1.42 0,0.55 -0.19,1.02 -0.57,1.4 -0.38,0.38 -0.84,0.57 -1.38,0.57 -0.57,0 -1.04,-0.2 -1.42,-0.59 -0.38,-0.39 -0.56,-0.86 -0.56,-1.4 0,-0.36 0.09,-0.69 0.26,-1 0.18,-0.3 0.42,-0.54 0.72,-0.72 0.31,-0.18 0.64,-0.27 0.99,-0.27zm-0.01 0.71c-0.35,0 -0.64,0.12 -0.88,0.37 -0.24,0.24 -0.36,0.55 -0.36,0.93 0,0.42 0.15,0.75 0.45,0.99 0.23,0.19 0.5,0.29 0.8,0.29 0.34,0 0.63,-0.12 0.87,-0.37 0.24,-0.25 0.36,-0.55 0.36,-0.91 0,-0.36 -0.12,-0.67 -0.36,-0.92 -0.24,-0.25 -0.53,-0.37 -0.88,-0.37z"/>
 </g>
</svg>
