<?xml version="1.0" encoding="UTF-8" standalone="no"?>
<svg
   xmlns:dc="http://purl.org/dc/elements/1.1/"
   xmlns:cc="http://creativecommons.org/ns#"
   xmlns:rdf="http://www.w3.org/1999/02/22-rdf-syntax-ns#"
   xmlns:svg="http://www.w3.org/2000/svg"
   xmlns="http://www.w3.org/2000/svg"
   xmlns:sodipodi="http://sodipodi.sourceforge.net/DTD/sodipodi-0.dtd"
   xmlns:inkscape="http://www.inkscape.org/namespaces/inkscape"
   sodipodi:docname="4strText.svg"
   inkscape:version="1.0.1 (3bc2e813f5, 2020-09-07)"
   id="svg8"
   version="1.1"
   viewBox="0 0 124.9288 20.252934"
   height="57.409882pt"
   width="354.12866pt">
  <defs
     id="defs2">
    <clipPath
       id="clipPath7909"
       clipPathUnits="userSpaceOnUse">
      <g
         inkscape:label="Clip"
         id="use7911">
        <text
           id="text166"
           y="384.59238"
           x="82.876579"
           style="font-style:normal;font-weight:normal;font-size:10.5833px;line-height:1.25;font-family:sans-serif;letter-spacing:0px;word-spacing:0px;fill:#ffffff;fill-opacity:1;stroke:none;stroke-width:0.264583"
           xml:space="preserve"><tspan
             style="font-style:normal;font-variant:normal;font-weight:normal;font-stretch:normal;font-size:3.52778px;font-family:EuropeDemi;-inkscape-font-specification:EuropeDemi;fill:#ffffff;stroke-width:0.264583"
             y="384.59238"
             x="82.876579"
             id="tspan164"
             sodipodi:role="line"><tspan
               id="tspan162"
               style="font-size:2.82222px">ГЛАЗОВСКАЯ РАЙОННАЯ БИБЛИОТЕКА</tspan></tspan></text>
      </g>
    </clipPath>
  </defs>
  <sodipodi:namedview
     inkscape:document-rotation="0"
     inkscape:pagecheckerboard="true"
     showborder="true"
     inkscape:window-maximized="1"
     inkscape:window-y="-8"
     inkscape:window-x="-8"
     inkscape:window-height="961"
     inkscape:window-width="1280"
     units="pt"
     showguides="false"
     inkscape:lockguides="false"
     showgrid="false"
     inkscape:current-layer="layer1"
     inkscape:document-units="mm"
     inkscape:cy="-16.330382"
     inkscape:cx="200.70899"
     inkscape:zoom="0.8160281"
     inkscape:pageshadow="2"
     inkscape:pageopacity="0.0"
     borderopacity="1.0"
     bordercolor="#666666"
     pagecolor="#ffffff"
     id="base"
     fit-margin-top="0"
     fit-margin-left="0"
     fit-margin-right="0"
     fit-margin-bottom="0" />
  <metadata
     id="metadata5">
    <rdf:RDF>
      <cc:Work
         rdf:about="">
        <dc:format>image/svg+xml</dc:format>
        <dc:type
           rdf:resource="http://purl.org/dc/dcmitype/StillImage" />
        <dc:title></dc:title>
      </cc:Work>
    </rdf:RDF>
  </metadata>
  <g
     transform="translate(12.833287,-278.51482)"
     id="layer1"
     inkscape:groupmode="layer"
     inkscape:label="Layer 1">
    <g
       aria-label="О росте пенсий и
маткапитала в 2021 году"
       id="text4840-6"
       style="font-style:normal;font-weight:normal;font-size:47.2099px;line-height:0;font-family:sans-serif;text-align:end;letter-spacing:0px;word-spacing:0px;text-anchor:end;fill:#ff9400;fill-opacity:1;fill-rule:nonzero;stroke:none;stroke-width:1.18025">
      <path
         d="m 26.692264,278.8042 q 1.504816,0 2.585198,1.09003 1.085204,1.09003 1.085204,2.65755 0,1.55304 -1.070735,2.6286 -1.065912,1.07556 -2.590021,1.07556 -1.596456,0 -2.652721,-1.1045 -1.056266,-1.10449 -1.056266,-2.62378 0,-1.01768 0.491959,-1.87137 0.49196,-0.8537 1.350477,-1.35048 0.86334,-0.50161 1.856905,-0.50161 z m -0.01447,1.32154 q -0.983918,0 -1.654333,0.68489 -0.670415,0.68488 -0.670415,1.74115 0,1.17684 0.844048,1.86172 0.655945,0.53537 1.504816,0.53537 0.959803,0 1.635041,-0.69453 0.675238,-0.69453 0.675238,-1.71221 0,-1.01286 -0.680061,-1.71221 -0.680061,-0.70418 -1.654334,-0.70418 z"
         style="font-style:normal;font-variant:normal;font-weight:bold;font-stretch:normal;font-size:9.87777px;font-family:'Century Gothic';-inkscape-font-specification:'Century Gothic Bold';text-align:end;text-anchor:end;fill:#ff9400;fill-opacity:1;fill-rule:nonzero;stroke-width:1.18025"
         id="path893" />
      <path
         d="m 35.562001,280.82992 v 0.57877 q 0.356911,-0.35691 0.7717,-0.53536 0.41479,-0.17846 0.887456,-0.17846 1.027327,0 1.745973,0.77652 0.718647,0.77653 0.718647,1.99196 0,1.17202 -0.742762,1.96301 -0.742762,0.78617 -1.760443,0.78617 -0.453374,0 -0.844048,-0.15916 -0.390673,-0.16399 -0.776523,-0.53055 v 2.47427 h -1.307069 v -7.16717 z m 1.384238,1.08038 q -0.622184,0 -1.03215,0.42444 -0.409966,0.42443 -0.409966,1.10932 0,0.69935 0.409966,1.13343 0.409966,0.42926 1.03215,0.42926 0.602891,0 1.012857,-0.43891 0.414789,-0.4389 0.414789,-1.11896 0,-0.67524 -0.405143,-1.1045 -0.405142,-0.43408 -1.022503,-0.43408 z"
         style="font-style:normal;font-variant:normal;font-weight:bold;font-stretch:normal;font-size:9.87777px;font-family:'Century Gothic';-inkscape-font-specification:'Century Gothic Bold';text-align:end;text-anchor:end;fill:#ff9400;fill-opacity:1;fill-rule:nonzero;stroke-width:1.18025"
         id="path895" />
      <path
         d="m 43.240423,280.69487 q 0.742762,0 1.393885,0.37138 0.655945,0.37138 1.022503,1.00804 0.366558,0.63665 0.366558,1.37459 0,0.74276 -0.371381,1.38906 -0.366558,0.6463 -1.003211,1.01286 -0.636653,0.36173 -1.403531,0.36173 -1.128612,0 -1.929252,-0.80064 -0.795816,-0.80546 -0.795816,-1.95337 0,-1.22989 0.901925,-2.04983 0.790993,-0.71382 1.81832,-0.71382 z m 0.01929,1.23955 q -0.612537,0 -1.022503,0.42925 -0.405143,0.42444 -0.405143,1.09003 0,0.68489 0.40032,1.10932 0.405143,0.42444 1.022503,0.42444 0.617361,0 1.027327,-0.42926 0.409966,-0.42926 0.409966,-1.1045 0,-0.67524 -0.405143,-1.09485 -0.40032,-0.42443 -1.027327,-0.42443 z"
         style="font-style:normal;font-variant:normal;font-weight:bold;font-stretch:normal;font-size:9.87777px;font-family:'Century Gothic';-inkscape-font-specification:'Century Gothic Bold';text-align:end;text-anchor:end;fill:#ff9400;fill-opacity:1;fill-rule:nonzero;stroke-width:1.18025"
         id="path897" />
      <path
         d="m 52.235561,281.89101 -1.094851,0.60289 q -0.30868,-0.32315 -0.612537,-0.44855 -0.299034,-0.1254 -0.704177,-0.1254 -0.737939,0 -1.196136,0.44372 -0.453375,0.43891 -0.453375,1.12862 0,0.67041 0.438905,1.09485 0.438905,0.42443 1.152728,0.42443 0.882633,0 1.374592,-0.60289 l 1.036973,0.709 q -0.844047,1.09485 -2.382626,1.09485 -1.384238,0 -2.170408,-0.81993 -0.781348,-0.81993 -0.781348,-1.91961 0,-0.76205 0.381028,-1.40353 0.381027,-0.64147 1.061088,-1.00803 0.684885,-0.36656 1.528933,-0.36656 0.781347,0 1.40353,0.3135 0.622184,0.30868 1.017681,0.88264 z"
         style="font-style:normal;font-variant:normal;font-weight:bold;font-stretch:normal;font-size:9.87777px;font-family:'Century Gothic';-inkscape-font-specification:'Century Gothic Bold';text-align:end;text-anchor:end;fill:#ff9400;fill-opacity:1;fill-rule:nonzero;stroke-width:1.18025"
         id="path899" />
      <path
         d="m 52.954208,280.82992 h 4.890654 v 1.25401 h -1.74115 v 3.99355 h -1.321538 v -3.99355 h -1.827966 z"
         style="font-style:normal;font-variant:normal;font-weight:bold;font-stretch:normal;font-size:9.87777px;font-family:'Century Gothic';-inkscape-font-specification:'Century Gothic Bold';text-align:end;text-anchor:end;fill:#ff9400;fill-opacity:1;fill-rule:nonzero;stroke-width:1.18025"
         id="path901" />
      <path
         d="m 63.965413,283.83473 h -4.229885 q 0.09164,0.55948 0.487136,0.89228 0.40032,0.32797 1.017681,0.32797 0.737939,0 1.268483,-0.51607 l 1.10932,0.52089 q -0.414789,0.58843 -0.993565,0.87299 -0.578776,0.27974 -1.374592,0.27974 -1.234721,0 -2.011245,-0.77652 -0.776524,-0.78135 -0.776524,-1.95337 0,-1.20096 0.7717,-1.99195 0.776524,-0.79582 1.943722,-0.79582 1.239544,0 2.016068,0.79582 0.776524,0.79099 0.776524,2.09324 z m -1.321538,-1.03697 q -0.130224,-0.43891 -0.516074,-0.71383 -0.381028,-0.27492 -0.887456,-0.27492 -0.549837,0 -0.964626,0.30868 -0.260449,0.19293 -0.482313,0.68007 z"
         style="font-style:normal;font-variant:normal;font-weight:bold;font-stretch:normal;font-size:9.87777px;font-family:'Century Gothic';-inkscape-font-specification:'Century Gothic Bold';text-align:end;text-anchor:end;fill:#ff9400;fill-opacity:1;fill-rule:nonzero;stroke-width:1.18025"
         id="path903" />
      <path
         d="m 69.111693,286.07748 h -1.321538 v -5.24756 h 4.601266 v 5.24756 h -1.321538 v -3.97908 h -1.95819 z"
         style="font-style:normal;font-variant:normal;font-weight:bold;font-stretch:normal;font-size:9.87777px;font-family:'Century Gothic';-inkscape-font-specification:'Century Gothic Bold';text-align:end;text-anchor:end;fill:#ff9400;fill-opacity:1;fill-rule:nonzero;stroke-width:1.18025"
         id="path905" />
      <path
         d="m 78.979817,283.83473 h -4.229885 q 0.09164,0.55948 0.487136,0.89228 0.40032,0.32797 1.017681,0.32797 0.737939,0 1.268483,-0.51607 l 1.10932,0.52089 q -0.414789,0.58843 -0.993565,0.87299 -0.578775,0.27974 -1.374592,0.27974 -1.234721,0 -2.011245,-0.77652 -0.776524,-0.78135 -0.776524,-1.95337 0,-1.20096 0.771701,-1.99195 0.776524,-0.79582 1.943721,-0.79582 1.239545,0 2.016069,0.79582 0.776524,0.79099 0.776524,2.09324 z m -1.321537,-1.03697 q -0.130225,-0.43891 -0.516075,-0.71383 -0.381027,-0.27492 -0.887456,-0.27492 -0.549837,0 -0.964626,0.30868 -0.260449,0.19293 -0.482313,0.68007 z"
         style="font-style:normal;font-variant:normal;font-weight:bold;font-stretch:normal;font-size:9.87777px;font-family:'Century Gothic';-inkscape-font-specification:'Century Gothic Bold';text-align:end;text-anchor:end;fill:#ff9400;fill-opacity:1;fill-rule:nonzero;stroke-width:1.18025"
         id="path907" />
      <path
         d="m 81.362444,282.72059 h 1.958191 v -1.89067 h 1.321538 v 5.24756 h -1.321538 v -2.17523 h -1.958191 v 2.17523 h -1.321538 v -5.24756 h 1.321538 z"
         style="font-style:normal;font-variant:normal;font-weight:bold;font-stretch:normal;font-size:9.87777px;font-family:'Century Gothic';-inkscape-font-specification:'Century Gothic Bold';text-align:end;text-anchor:end;fill:#ff9400;fill-opacity:1;fill-rule:nonzero;stroke-width:1.18025"
         id="path909" />
      <path
         d="m 91.109991,281.89101 -1.094851,0.60289 q -0.30868,-0.32315 -0.612537,-0.44855 -0.299034,-0.1254 -0.704177,-0.1254 -0.737939,0 -1.196137,0.44372 -0.453374,0.43891 -0.453374,1.12862 0,0.67041 0.438905,1.09485 0.438905,0.42443 1.152728,0.42443 0.882633,0 1.374592,-0.60289 l 1.036973,0.709 q -0.844048,1.09485 -2.382626,1.09485 -1.384239,0 -2.170409,-0.81993 -0.781347,-0.81993 -0.781347,-1.91961 0,-0.76205 0.381027,-1.40353 0.381028,-0.64147 1.061089,-1.00803 0.684885,-0.36656 1.528932,-0.36656 0.781347,0 1.403531,0.3135 0.622184,0.30868 1.017681,0.88264 z"
         style="font-style:normal;font-variant:normal;font-weight:bold;font-stretch:normal;font-size:9.87777px;font-family:'Century Gothic';-inkscape-font-specification:'Century Gothic Bold';text-align:end;text-anchor:end;fill:#ff9400;fill-opacity:1;fill-rule:nonzero;stroke-width:1.18025"
         id="path911" />
      <path
         d="m 92.991008,286.07748 h -0.699354 v -5.24756 h 1.282953 v 3.08198 l 2.686483,-3.08198 h 0.63183 v 5.24756 h -1.282952 v -3.01928 z"
         style="font-style:normal;font-variant:normal;font-weight:bold;font-stretch:normal;font-size:9.87777px;font-family:'Century Gothic';-inkscape-font-specification:'Century Gothic Bold';text-align:end;text-anchor:end;fill:#ff9400;fill-opacity:1;fill-rule:nonzero;stroke-width:1.18025"
         id="path913" />
      <path
         d="m 98.918636,286.07748 h -0.699354 v -5.24756 h 1.282952 v 3.08198 l 2.686486,-3.08198 h 0.63183 v 5.24756 h -1.28295 v -3.01928 z m -0.313504,-7.56266 h 1.065912 q 0.125401,0.19774 0.347266,0.29903 0.22669,0.0965 0.54984,0.0965 0.32797,0 0.59324,-0.11575 0.17363,-0.0772 0.30386,-0.27974 h 1.06591 q -0.0916,0.61253 -0.58842,0.98391 -0.49196,0.37139 -1.37942,0.37139 -0.598065,0 -1.003208,-0.16399 -0.40032,-0.16881 -0.6463,-0.47749 -0.245979,-0.30868 -0.30868,-0.71382 z"
         style="font-style:normal;font-variant:normal;font-weight:bold;font-stretch:normal;font-size:9.87777px;font-family:'Century Gothic';-inkscape-font-specification:'Century Gothic Bold';text-align:end;text-anchor:end;fill:#ff9400;fill-opacity:1;fill-rule:nonzero;stroke-width:1.18025"
         id="path915" />
      <path
         d="m 107.60992,286.07748 h -0.69935 v -5.24756 h 1.28295 v 3.08198 l 2.68648,-3.08198 h 0.63183 v 5.24756 h -1.28295 v -3.01928 z"
         style="font-style:normal;font-variant:normal;font-weight:bold;font-stretch:normal;font-size:9.87777px;font-family:'Century Gothic';-inkscape-font-specification:'Century Gothic Bold';text-align:end;text-anchor:end;fill:#ff9400;fill-opacity:1;fill-rule:nonzero;stroke-width:1.18025"
         id="path917" />
      <path
         d="m -9.0181913,294.90925 1.6109254,-3.30867 h 0.8681634 l 1.3118914,5.24757 h -1.2877757 l -0.6993539,-3.07716 -1.5626941,3.07716 h -0.5401906 l -1.5289326,-3.07716 -0.704177,3.07716 h -1.282952 l 1.311891,-5.24757 h 0.868164 z"
         style="font-style:normal;font-variant:normal;font-weight:bold;font-stretch:normal;font-size:9.87777px;font-family:'Century Gothic';-inkscape-font-specification:'Century Gothic Bold';text-align:end;text-anchor:end;fill:#ff9400;fill-opacity:1;fill-rule:nonzero;stroke-width:1.18025"
         id="path919" />
      <path
         d="m -0.61629891,291.60058 h 1.31189139 v 5.24757 h -1.31189139 v -0.55466 q -0.38585039,0.36656 -0.77652399,0.53054 -0.3858504,0.15917 -0.8392246,0.15917 -1.0176804,0 -1.7604425,-0.78617 -0.742762,-0.791 -0.742762,-1.96302 0,-1.21543 0.7186464,-1.99195 0.7186464,-0.77652 1.7459731,-0.77652 0.4726667,0 0.8874559,0.17845 0.4147892,0.17846 0.76687769,0.53537 z m -1.38423829,1.08038 q -0.6125376,0 -1.0176805,0.43409 -0.4051429,0.42925 -0.4051429,1.10449 0,0.68006 0.409966,1.11897 0.4147892,0.4389 1.0176805,0.4389 0.6221838,0 1.03214983,-0.42925 0.40996606,-0.43409 0.40996606,-1.13344 0,-0.68488 -0.40996606,-1.10932 -0.40996603,-0.42444 -1.03697293,-0.42444 z"
         style="font-style:normal;font-variant:normal;font-weight:bold;font-stretch:normal;font-size:9.87777px;font-family:'Century Gothic';-inkscape-font-specification:'Century Gothic Bold';text-align:end;text-anchor:end;fill:#ff9400;fill-opacity:1;fill-rule:nonzero;stroke-width:1.18025"
         id="path921" />
      <path
         d="m 1.558933,291.60058 h 4.8906539 v 1.25402 h -1.74115 v 3.99355 H 3.3868993 V 292.8546 H 1.558933 Z"
         style="font-style:normal;font-variant:normal;font-weight:bold;font-stretch:normal;font-size:9.87777px;font-family:'Century Gothic';-inkscape-font-specification:'Century Gothic Bold';text-align:end;text-anchor:end;fill:#ff9400;fill-opacity:1;fill-rule:nonzero;stroke-width:1.18025"
         id="path923" />
      <path
         d="m 7.3129276,291.60058 h 1.3167145 v 1.96302 l 1.8134969,-1.96302 h 1.606102 l -2.3392178,2.55626 2.3681568,2.69131 h -1.745973 l -1.5626942,-1.85208 -0.1398707,0.16398 v 1.6881 H 7.3129276 Z"
         style="font-style:normal;font-variant:normal;font-weight:bold;font-stretch:normal;font-size:9.87777px;font-family:'Century Gothic';-inkscape-font-specification:'Century Gothic Bold';text-align:end;text-anchor:end;fill:#ff9400;fill-opacity:1;fill-rule:nonzero;stroke-width:1.18025"
         id="path925" />
      <path
         d="m 16.496167,291.60058 h 1.311891 v 5.24757 h -1.311891 v -0.55466 q -0.38585,0.36656 -0.776524,0.53054 -0.38585,0.15917 -0.839225,0.15917 -1.01768,0 -1.760442,-0.78617 -0.742762,-0.791 -0.742762,-1.96302 0,-1.21543 0.718646,-1.99195 0.718647,-0.77652 1.745973,-0.77652 0.472667,0 0.887456,0.17845 0.414789,0.17846 0.766878,0.53537 z m -1.384238,1.08038 q -0.612538,0 -1.017681,0.43409 -0.405143,0.42925 -0.405143,1.10449 0,0.68006 0.409966,1.11897 0.414789,0.4389 1.017681,0.4389 0.622184,0 1.03215,-0.42925 0.409966,-0.43409 0.409966,-1.13344 0,-0.68488 -0.409966,-1.10932 -0.409966,-0.42444 -1.036973,-0.42444 z"
         style="font-style:normal;font-variant:normal;font-weight:bold;font-stretch:normal;font-size:9.87777px;font-family:'Century Gothic';-inkscape-font-specification:'Century Gothic Bold';text-align:end;text-anchor:end;fill:#ff9400;fill-opacity:1;fill-rule:nonzero;stroke-width:1.18025"
         id="path927" />
      <path
         d="m 20.455957,296.84815 h -1.321538 v -5.24757 h 4.601266 v 5.24757 h -1.321537 v -3.97908 h -1.958191 z"
         style="font-style:normal;font-variant:normal;font-weight:bold;font-stretch:normal;font-size:9.87777px;font-family:'Century Gothic';-inkscape-font-specification:'Century Gothic Bold';text-align:end;text-anchor:end;fill:#ff9400;fill-opacity:1;fill-rule:nonzero;stroke-width:1.18025"
         id="path929" />
      <path
         d="m 25.761399,296.84815 h -0.699354 v -5.24757 h 1.282953 v 3.08198 l 2.686483,-3.08198 h 0.63183 v 5.24757 h -1.282952 v -3.01928 z"
         style="font-style:normal;font-variant:normal;font-weight:bold;font-stretch:normal;font-size:9.87777px;font-family:'Century Gothic';-inkscape-font-specification:'Century Gothic Bold';text-align:end;text-anchor:end;fill:#ff9400;fill-opacity:1;fill-rule:nonzero;stroke-width:1.18025"
         id="path931" />
      <path
         d="m 30.526652,291.60058 h 4.890654 v 1.25402 h -1.74115 v 3.99355 h -1.321538 v -3.99355 h -1.827966 z"
         style="font-style:normal;font-variant:normal;font-weight:bold;font-stretch:normal;font-size:9.87777px;font-family:'Century Gothic';-inkscape-font-specification:'Century Gothic Bold';text-align:end;text-anchor:end;fill:#ff9400;fill-opacity:1;fill-rule:nonzero;stroke-width:1.18025"
         id="path933" />
      <path
         d="m 40.158444,291.60058 h 1.311892 v 5.24757 h -1.311892 v -0.55466 q -0.38585,0.36656 -0.776524,0.53054 -0.38585,0.15917 -0.839224,0.15917 -1.017681,0 -1.760443,-0.78617 -0.742762,-0.791 -0.742762,-1.96302 0,-1.21543 0.718646,-1.99195 0.718647,-0.77652 1.745974,-0.77652 0.472666,0 0.887455,0.17845 0.41479,0.17846 0.766878,0.53537 z m -1.384238,1.08038 q -0.612538,0 -1.017681,0.43409 -0.405143,0.42925 -0.405143,1.10449 0,0.68006 0.409967,1.11897 0.414789,0.4389 1.01768,0.4389 0.622184,0 1.03215,-0.42925 0.409966,-0.43409 0.409966,-1.13344 0,-0.68488 -0.409966,-1.10932 -0.409966,-0.42444 -1.036973,-0.42444 z"
         style="font-style:normal;font-variant:normal;font-weight:bold;font-stretch:normal;font-size:9.87777px;font-family:'Century Gothic';-inkscape-font-specification:'Century Gothic Bold';text-align:end;text-anchor:end;fill:#ff9400;fill-opacity:1;fill-rule:nonzero;stroke-width:1.18025"
         id="path935" />
      <path
         d="m 47.4896,296.84815 h -1.34083 l -1.311891,-3.31349 -1.336007,3.31349 h -1.336007 l 2.237932,-5.24757 h 0.848871 z"
         style="font-style:normal;font-variant:normal;font-weight:bold;font-stretch:normal;font-size:9.87777px;font-family:'Century Gothic';-inkscape-font-specification:'Century Gothic Bold';text-align:end;text-anchor:end;fill:#ff9400;fill-opacity:1;fill-rule:nonzero;stroke-width:1.18025"
         id="path937" />
      <path
         d="m 52.061929,291.60058 h 1.311891 v 5.24757 h -1.311891 v -0.55466 q -0.385851,0.36656 -0.776524,0.53054 -0.385851,0.15917 -0.839225,0.15917 -1.017681,0 -1.760443,-0.78617 -0.742762,-0.791 -0.742762,-1.96302 0,-1.21543 0.718647,-1.99195 0.718646,-0.77652 1.745973,-0.77652 0.472667,0 0.887456,0.17845 0.414789,0.17846 0.766878,0.53537 z m -1.384239,1.08038 q -0.612537,0 -1.01768,0.43409 -0.405143,0.42925 -0.405143,1.10449 0,0.68006 0.409966,1.11897 0.414789,0.4389 1.01768,0.4389 0.622184,0 1.03215,-0.42925 0.409966,-0.43409 0.409966,-1.13344 0,-0.68488 -0.409966,-1.10932 -0.409966,-0.42444 -1.036973,-0.42444 z"
         style="font-style:normal;font-variant:normal;font-weight:bold;font-stretch:normal;font-size:9.87777px;font-family:'Century Gothic';-inkscape-font-specification:'Century Gothic Bold';text-align:end;text-anchor:end;fill:#ff9400;fill-opacity:1;fill-rule:nonzero;stroke-width:1.18025"
         id="path939" />
      <path
         d="m 57.468655,296.84815 v -5.24757 h 2.107708 q 1.036973,0 1.408354,0.40997 0.371381,0.40514 0.371381,0.92122 0,0.76688 -0.762055,1.10449 1.041796,0.35692 1.041796,1.34566 0,0.53536 -0.274918,0.88745 -0.274918,0.34727 -0.699354,0.46302 -0.419612,0.11576 -1.176844,0.11576 z m 1.321538,-3.18327 h 0.506428 q 0.32315,0 0.496783,-0.15916 0.178455,-0.16399 0.178455,-0.36173 0,-0.29422 -0.168809,-0.4582 -0.16881,-0.16399 -0.40032,-0.16399 l -0.168809,0.005 h -0.443728 z m 0,2.17041 h 0.660768 q 0.385851,0 0.540191,-0.17845 0.159163,-0.18328 0.159163,-0.35692 0,-0.25562 -0.178456,-0.46784 -0.173632,-0.21222 -0.63183,-0.21222 h -0.549836 z"
         style="font-style:normal;font-variant:normal;font-weight:bold;font-stretch:normal;font-size:9.87777px;font-family:'Century Gothic';-inkscape-font-specification:'Century Gothic Bold';text-align:end;text-anchor:end;fill:#ff9400;fill-opacity:1;fill-rule:nonzero;stroke-width:1.18025"
         id="path941" />
      <path
         d="m 66.574725,292.03949 h -1.316714 q 0.05305,-1.14791 0.718646,-1.80385 0.670415,-0.66077 1.717034,-0.66077 0.6463,0 1.138259,0.27492 0.496782,0.27009 0.790993,0.78617 0.299034,0.51125 0.299034,1.04179 0,0.63183 -0.361734,1.36013 -0.356912,0.72829 -1.311892,1.72185 l -0.795816,0.83923 h 2.52732 v 1.24919 h -4.91477 v -0.6463 l 2.194525,-2.23793 q 0.795816,-0.80547 1.056265,-1.2926 0.265272,-0.49196 0.265272,-0.88746 0,-0.40996 -0.274918,-0.67524 -0.270095,-0.27009 -0.699354,-0.27009 -0.434082,0 -0.72347,0.32315 -0.289387,0.32315 -0.30868,0.87781 z"
         style="font-style:normal;font-variant:normal;font-weight:bold;font-stretch:normal;font-size:9.87777px;font-family:'Century Gothic';-inkscape-font-specification:'Century Gothic Bold';text-align:end;text-anchor:end;fill:#ff9400;fill-opacity:1;fill-rule:nonzero;stroke-width:1.18025"
         id="path943" />
      <path
         d="m 73.129364,289.57487 q 0.776524,0 1.336007,0.38103 0.564306,0.38102 0.868163,1.16719 0.30868,0.78135 0.30868,2.18006 0,1.41318 -0.313503,2.19935 -0.30868,0.78617 -0.834401,1.15755 -0.525722,0.36655 -1.326361,0.36655 -0.80064,0 -1.345654,-0.37138 -0.545013,-0.37138 -0.853694,-1.12861 -0.30868,-0.75723 -0.30868,-2.15594 0,-1.95337 0.602891,-2.83118 0.670415,-0.96462 1.866552,-0.96462 z m 0.03376,1.28295 q -0.342443,0 -0.607715,0.22187 -0.265272,0.21704 -0.405143,0.7524 -0.13987,0.53537 -0.13987,1.56752 0,1.34565 0.318326,1.86173 0.32315,0.51125 0.834402,0.51125 0.491959,0 0.781347,-0.48714 0.352088,-0.58842 0.352088,-1.96783 0,-1.39871 -0.318326,-1.92925 -0.313504,-0.53055 -0.815109,-0.53055 z"
         style="font-style:normal;font-variant:normal;font-weight:bold;font-stretch:normal;font-size:9.87777px;font-family:'Century Gothic';-inkscape-font-specification:'Century Gothic Bold';text-align:end;text-anchor:end;fill:#ff9400;fill-opacity:1;fill-rule:nonzero;stroke-width:1.18025"
         id="path945" />
      <path
         d="m 77.638988,292.03949 h -1.316715 q 0.05305,-1.14791 0.718646,-1.80385 0.670415,-0.66077 1.717035,-0.66077 0.646299,0 1.138258,0.27492 0.496783,0.27009 0.790994,0.78617 0.299034,0.51125 0.299034,1.04179 0,0.63183 -0.361735,1.36013 -0.356912,0.72829 -1.311891,1.72185 l -0.795817,0.83923 h 2.52732 v 1.24919 h -4.914769 v -0.6463 l 2.194524,-2.23793 q 0.795816,-0.80547 1.056265,-1.2926 0.265273,-0.49196 0.265273,-0.88746 0,-0.40996 -0.274919,-0.67524 -0.270095,-0.27009 -0.699354,-0.27009 -0.434081,0 -0.723469,0.32315 -0.289388,0.32315 -0.30868,0.87781 z"
         style="font-style:normal;font-variant:normal;font-weight:bold;font-stretch:normal;font-size:9.87777px;font-family:'Century Gothic';-inkscape-font-specification:'Century Gothic Bold';text-align:end;text-anchor:end;fill:#ff9400;fill-opacity:1;fill-rule:nonzero;stroke-width:1.18025"
         id="path947" />
      <path
         d="m 83.074652,289.75332 h 2.020892 v 7.09483 h -1.34083 v -5.82634 h -1.461409 z"
         style="font-style:normal;font-variant:normal;font-weight:bold;font-stretch:normal;font-size:9.87777px;font-family:'Century Gothic';-inkscape-font-specification:'Century Gothic Bold';text-align:end;text-anchor:end;fill:#ff9400;fill-opacity:1;fill-rule:nonzero;stroke-width:1.18025"
         id="path949" />
      <path
         d="m 90.40581,291.60058 h 3.062688 v 1.25402 h -1.74115 v 3.99355 H 90.40581 Z"
         style="font-style:normal;font-variant:normal;font-weight:bold;font-stretch:normal;font-size:9.87777px;font-family:'Century Gothic';-inkscape-font-specification:'Century Gothic Bold';text-align:end;text-anchor:end;fill:#ff9400;fill-opacity:1;fill-rule:nonzero;stroke-width:1.18025"
         id="path951" />
      <path
         d="m 96.825402,291.46554 q 0.742762,0 1.393885,0.37138 0.655946,0.37138 1.022504,1.00803 0.366557,0.63665 0.366557,1.37459 0,0.74277 -0.371381,1.38906 -0.366557,0.6463 -1.003211,1.01286 -0.636653,0.36174 -1.40353,0.36174 -1.128613,0 -1.929253,-0.80064 -0.795816,-0.80547 -0.795816,-1.95337 0,-1.2299 0.901925,-2.04983 0.790994,-0.71382 1.81832,-0.71382 z m 0.01929,1.23954 q -0.612538,0 -1.022504,0.42926 -0.405143,0.42443 -0.405143,1.09003 0,0.68488 0.40032,1.10932 0.405143,0.42443 1.022504,0.42443 0.61736,0 1.027327,-0.42926 0.409966,-0.42926 0.409966,-1.10449 0,-0.67524 -0.405143,-1.09485 -0.40032,-0.42444 -1.027327,-0.42444 z"
         style="font-style:normal;font-variant:normal;font-weight:bold;font-stretch:normal;font-size:9.87777px;font-family:'Century Gothic';-inkscape-font-specification:'Century Gothic Bold';text-align:end;text-anchor:end;fill:#ff9400;fill-opacity:1;fill-rule:nonzero;stroke-width:1.18025"
         id="path953" />
      <path
         d="m 101.36396,296.84815 v 0.91157 h -1.17202 v -2.02571 h 0.791 l 1.80867,-4.13343 h 0.84887 l 1.83279,4.13343 h 0.80546 v 2.02571 h -1.25401 v -0.91157 z m 2.7106,-1.11414 -0.85851,-2.209 -0.88746,2.209 z"
         style="font-style:normal;font-variant:normal;font-weight:bold;font-stretch:normal;font-size:9.87777px;font-family:'Century Gothic';-inkscape-font-specification:'Century Gothic Bold';text-align:end;text-anchor:end;fill:#ff9400;fill-opacity:1;fill-rule:nonzero;stroke-width:1.18025"
         id="path955" />
      <path
         d="m 106.52953,291.60058 h 1.34566 l 1.36494,3.2942 1.50482,-3.2942 h 1.35048 l -3.28938,7.16717 h -1.36012 l 1.08038,-2.31027 z"
         style="font-style:normal;font-variant:normal;font-weight:bold;font-stretch:normal;font-size:9.87777px;font-family:'Century Gothic';-inkscape-font-specification:'Century Gothic Bold';text-align:end;text-anchor:end;fill:#ff9400;fill-opacity:1;fill-rule:nonzero;stroke-width:1.18025"
         id="path957" />
    </g>
  </g>
</svg>
