<?xml version="1.0" encoding="UTF-8"?>
<!DOCTYPE svg PUBLIC "-//W3C//DTD SVG 1.1//EN" "http://www.w3.org/Graphics/SVG/1.1/DTD/svg11.dtd">
<!-- Creator: CorelDRAW -->
<svg xmlns="http://www.w3.org/2000/svg" xml:space="preserve" width="73.322mm" height="12.4836mm" version="1.1" style="shape-rendering:geometricPrecision; text-rendering:geometricPrecision; image-rendering:optimizeQuality; fill-rule:evenodd; clip-rule:evenodd"
viewBox="0 0 70.84 12.06"
 xmlns:xlink="http://www.w3.org/1999/xlink"
 xmlns:xodm="http://www.corel.com/coreldraw/odm/2003">
 <defs>
  <style type="text/css">
   <![CDATA[
    .fil0 {fill:#C29138;fill-rule:nonzero}
   ]]>
  </style>
 </defs>
 <g id="Слой_x0020_1">
  <metadata id="CorelCorpID_0Corel-Layer"/>
  <path class="fil0" d="M0.61 0.09l0.85 0 -0.61 1.82 0.61 1.8 -0.85 0 -0.61 -1.8 0.61 -1.82zm1.51 0l0.85 0 -0.61 1.82 0.61 1.8 -0.85 0 -0.61 -1.8 0.61 -1.82z"/>
  <polygon id="_1" class="fil0" points="4.42,1.39 5.78,1.39 5.78,0.09 6.69,0.09 6.69,3.71 5.78,3.71 5.78,2.21 4.42,2.21 4.42,3.71 3.51,3.71 3.51,0.09 4.42,0.09 "/>
  <path id="_2" class="fil0" d="M9.3 0c0.34,0 0.66,0.09 0.96,0.26 0.3,0.17 0.54,0.4 0.71,0.69 0.17,0.29 0.25,0.61 0.25,0.95 0,0.34 -0.09,0.66 -0.25,0.96 -0.17,0.3 -0.4,0.53 -0.7,0.7 -0.29,0.17 -0.62,0.25 -0.97,0.25 -0.52,0 -0.96,-0.18 -1.33,-0.55 -0.37,-0.37 -0.55,-0.82 -0.55,-1.34 0,-0.56 0.21,-1.03 0.62,-1.41 0.36,-0.33 0.78,-0.49 1.26,-0.49zm0.01 0.85c-0.28,0 -0.52,0.1 -0.71,0.29 -0.19,0.2 -0.28,0.45 -0.28,0.75 0,0.31 0.09,0.57 0.28,0.76 0.19,0.19 0.42,0.29 0.71,0.29 0.28,0 0.52,-0.1 0.71,-0.3 0.19,-0.2 0.28,-0.45 0.28,-0.76 0,-0.31 -0.09,-0.56 -0.28,-0.76 -0.19,-0.19 -0.42,-0.29 -0.71,-0.29z"/>
  <path id="_3" class="fil0" d="M12.87 0.09l0 0.4c0.16,-0.16 0.34,-0.28 0.53,-0.36 0.19,-0.08 0.4,-0.12 0.61,-0.12 0.47,0 0.87,0.18 1.2,0.53 0.33,0.36 0.5,0.81 0.5,1.37 0,0.54 -0.17,0.99 -0.51,1.35 -0.34,0.36 -0.75,0.54 -1.21,0.54 -0.21,0 -0.4,-0.04 -0.58,-0.11 -0.18,-0.07 -0.36,-0.2 -0.54,-0.36l0 1.71 -0.91 0 0 -4.94 0.91 0zm0.95 0.74c-0.29,0 -0.52,0.1 -0.71,0.29 -0.19,0.2 -0.28,0.45 -0.28,0.76 0,0.32 0.09,0.58 0.28,0.78 0.19,0.2 0.42,0.3 0.71,0.3 0.28,0 0.51,-0.1 0.7,-0.3 0.19,-0.2 0.28,-0.46 0.28,-0.77 0,-0.31 -0.09,-0.56 -0.28,-0.76 -0.19,-0.2 -0.42,-0.3 -0.7,-0.3z"/>
  <polygon id="_4" class="fil0" points="18.68,2.37 19.8,0.09 20.4,0.09 21.3,3.71 20.42,3.71 19.93,1.58 18.85,3.71 18.48,3.71 17.42,1.58 16.94,3.71 16.05,3.71 16.95,0.09 17.55,0.09 "/>
  <path id="_5" class="fil0" d="M24.48 0.09l0.91 0 0 3.62 -0.91 0 0 -0.39c-0.18,0.17 -0.36,0.29 -0.53,0.36 -0.18,0.07 -0.37,0.11 -0.58,0.11 -0.47,0 -0.87,-0.18 -1.22,-0.54 -0.34,-0.36 -0.51,-0.81 -0.51,-1.35 0,-0.56 0.17,-1.01 0.5,-1.37 0.33,-0.36 0.73,-0.53 1.2,-0.53 0.22,0 0.42,0.04 0.61,0.12 0.19,0.08 0.37,0.2 0.53,0.36l0 -0.4zm-0.96 0.74c-0.28,0 -0.52,0.1 -0.7,0.3 -0.19,0.2 -0.28,0.45 -0.28,0.76 0,0.31 0.09,0.57 0.28,0.77 0.19,0.2 0.42,0.3 0.7,0.3 0.29,0 0.52,-0.1 0.71,-0.3 0.19,-0.2 0.28,-0.46 0.28,-0.78 0,-0.31 -0.09,-0.57 -0.28,-0.76 -0.19,-0.19 -0.43,-0.29 -0.71,-0.29z"/>
  <path id="_6" class="fil0" d="M28.28 3.71l-0.85 0 0.61 -1.82 -0.61 -1.8 0.85 0 0.61 1.8 -0.61 1.82zm-1.5 0l-0.85 0 0.61 -1.82 -0.61 -1.8 0.85 0 0.61 1.8 -0.61 1.82z"/>
  <path id="_7" class="fil0" d="M33.05 0c0.34,0 0.66,0.09 0.96,0.26 0.3,0.17 0.54,0.4 0.71,0.69 0.17,0.29 0.25,0.61 0.25,0.95 0,0.34 -0.09,0.66 -0.25,0.96 -0.17,0.3 -0.4,0.53 -0.7,0.7 -0.29,0.17 -0.62,0.25 -0.97,0.25 -0.52,0 -0.96,-0.18 -1.33,-0.55 -0.37,-0.37 -0.55,-0.82 -0.55,-1.34 0,-0.56 0.21,-1.03 0.62,-1.41 0.36,-0.33 0.78,-0.49 1.26,-0.49zm0.01 0.85c-0.28,0 -0.52,0.1 -0.71,0.29 -0.19,0.2 -0.28,0.45 -0.28,0.75 0,0.31 0.09,0.57 0.28,0.76 0.19,0.19 0.42,0.29 0.71,0.29 0.28,0 0.52,-0.1 0.71,-0.3 0.19,-0.2 0.28,-0.45 0.28,-0.76 0,-0.31 -0.09,-0.56 -0.28,-0.76 -0.19,-0.19 -0.42,-0.29 -0.71,-0.29z"/>
  <polygon id="_8" class="fil0" points="35.39,0.09 38.76,0.09 38.76,0.95 37.56,0.95 37.56,3.71 36.65,3.71 36.65,0.95 35.39,0.95 "/>
  <polygon id="_9" class="fil0" points="42.6,3.71 41.68,3.71 40.77,1.42 39.84,3.71 38.92,3.71 40.46,0.09 41.05,0.09 "/>
  <polygon id="_10" class="fil0" points="43.56,3.71 43.07,3.71 43.07,0.09 43.96,0.09 43.96,2.21 45.81,0.09 46.25,0.09 46.25,3.71 45.36,3.71 45.36,1.63 "/>
  <path id="_11" class="fil0" d="M49.13 2.27l-0.73 0c-0.49,0 -0.87,-0.09 -1.14,-0.28 -0.27,-0.19 -0.4,-0.5 -0.4,-0.94l0 -0.96 0.91 0 0 0.89c0,0.32 0.21,0.48 0.64,0.48l0.36 -0 0.37 0 0 -1.36 0.91 0 0 3.62 -0.91 0 0 -1.44z"/>
  <path id="_12" class="fil0" d="M53.63 0.09l0.91 0 0 3.62 -0.91 0 0 -0.39c-0.18,0.17 -0.36,0.29 -0.53,0.36 -0.18,0.07 -0.37,0.11 -0.58,0.11 -0.47,0 -0.87,-0.18 -1.22,-0.54 -0.34,-0.36 -0.51,-0.81 -0.51,-1.35 0,-0.56 0.17,-1.01 0.5,-1.37 0.33,-0.36 0.73,-0.53 1.2,-0.53 0.22,0 0.42,0.04 0.61,0.12 0.19,0.08 0.37,0.2 0.53,0.36l0 -0.4zm-0.96 0.74c-0.28,0 -0.52,0.1 -0.7,0.3 -0.19,0.2 -0.28,0.45 -0.28,0.76 0,0.31 0.09,0.57 0.28,0.77 0.19,0.2 0.42,0.3 0.7,0.3 0.29,0 0.52,-0.1 0.71,-0.3 0.19,-0.2 0.28,-0.46 0.28,-0.78 0,-0.31 -0.09,-0.57 -0.28,-0.76 -0.19,-0.19 -0.43,-0.29 -0.71,-0.29z"/>
  <path id="_13" class="fil0" d="M59.08 2.15l-2.91 0c0.04,0.26 0.15,0.46 0.34,0.62 0.18,0.15 0.41,0.23 0.7,0.23 0.34,0 0.63,-0.12 0.87,-0.36l0.76 0.36c-0.19,0.27 -0.42,0.47 -0.68,0.6 -0.27,0.13 -0.58,0.19 -0.95,0.19 -0.57,0 -1.03,-0.18 -1.38,-0.54 -0.36,-0.36 -0.53,-0.8 -0.53,-1.34 0,-0.55 0.18,-1.01 0.53,-1.37 0.36,-0.36 0.8,-0.55 1.34,-0.55 0.57,0 1.03,0.18 1.39,0.54 0.36,0.36 0.54,0.84 0.54,1.44l-0 0.17zm-0.9 -0.71c-0.06,-0.2 -0.18,-0.36 -0.35,-0.48 -0.18,-0.12 -0.38,-0.19 -0.62,-0.19 -0.25,0 -0.47,0.07 -0.67,0.21 -0.12,0.09 -0.23,0.24 -0.33,0.46l1.97 0z"/>
  <polygon id="_14" class="fil0" points="59.5,0.09 62.87,0.09 62.87,0.95 61.67,0.95 61.67,3.71 60.76,3.71 60.76,0.95 59.5,0.95 "/>
  <path id="_15" class="fil0" d="M67.01 0.82l-0.76 0.42c-0.14,-0.15 -0.28,-0.25 -0.42,-0.31 -0.14,-0.06 -0.3,-0.09 -0.49,-0.09 -0.34,0 -0.61,0.1 -0.82,0.3 -0.21,0.2 -0.31,0.46 -0.31,0.78 0,0.31 0.1,0.56 0.3,0.75 0.2,0.19 0.47,0.29 0.8,0.29 0.41,0 0.72,-0.14 0.95,-0.42l0.71 0.49c-0.39,0.5 -0.94,0.76 -1.64,0.76 -0.64,0 -1.14,-0.19 -1.5,-0.56 -0.36,-0.38 -0.54,-0.82 -0.54,-1.32 0,-0.35 0.09,-0.67 0.26,-0.97 0.18,-0.29 0.42,-0.53 0.74,-0.69 0.31,-0.17 0.66,-0.25 1.05,-0.25 0.36,0 0.68,0.07 0.97,0.21 0.29,0.14 0.52,0.35 0.7,0.61z"/>
  <path id="_16" class="fil0" d="M68.45 2.22c-0.2,-0.06 -0.36,-0.19 -0.48,-0.36 -0.13,-0.18 -0.19,-0.38 -0.19,-0.6 0,-0.27 0.08,-0.5 0.23,-0.7 0.15,-0.2 0.34,-0.33 0.55,-0.38 0.21,-0.05 0.54,-0.08 0.99,-0.08l0.92 0 0 3.62 -0.91 0 0 -1.31 -0.18 0 -0.87 1.31 -1.08 0 1.01 -1.48zm1.11 -0.51l0 -0.87 -0.32 0c-0.35,0 -0.52,0.14 -0.52,0.43 0,0.29 0.19,0.44 0.58,0.44l0.26 0z"/>
  <path id="_17" class="fil0" d="M14.63 8.26c0.34,0 0.66,0.09 0.96,0.26 0.3,0.17 0.54,0.4 0.71,0.69 0.17,0.29 0.25,0.61 0.25,0.95 0,0.34 -0.09,0.66 -0.25,0.96 -0.17,0.3 -0.4,0.53 -0.7,0.7 -0.29,0.17 -0.62,0.25 -0.97,0.25 -0.52,0 -0.96,-0.18 -1.33,-0.55 -0.37,-0.37 -0.55,-0.82 -0.55,-1.34 0,-0.56 0.21,-1.03 0.62,-1.41 0.36,-0.33 0.78,-0.49 1.26,-0.49zm0.01 0.85c-0.28,0 -0.52,0.1 -0.71,0.29 -0.19,0.2 -0.28,0.45 -0.28,0.75 0,0.31 0.09,0.57 0.28,0.76 0.19,0.19 0.42,0.29 0.71,0.29 0.28,0 0.52,-0.1 0.71,-0.3 0.19,-0.2 0.28,-0.45 0.28,-0.76 0,-0.31 -0.09,-0.56 -0.28,-0.76 -0.19,-0.19 -0.42,-0.29 -0.71,-0.29z"/>
  <polygon id="_18" class="fil0" points="16.97,8.35 20.34,8.35 20.34,9.22 19.13,9.22 19.13,11.97 18.23,11.97 18.23,9.22 16.97,9.22 "/>
  <path id="_19" class="fil0" d="M23.07 8.35l0.85 0 -0.61 1.82 0.61 1.8 -0.85 0 -0.61 -1.8 0.61 -1.82zm1.51 0l0.85 0 -0.61 1.82 0.61 1.8 -0.85 0 -0.61 -1.8 0.61 -1.82z"/>
  <polygon id="_20" class="fil0" points="27.81,10.81 27.71,10.7 26.63,11.97 25.43,11.97 27.06,10.11 25.45,8.35 26.56,8.35 27.81,9.71 27.81,8.35 28.72,8.35 28.72,9.71 29.98,8.35 31.08,8.35 29.46,10.11 31.11,11.97 29.9,11.97 28.82,10.7 28.72,10.81 28.72,11.97 27.81,11.97 "/>
  <polygon id="_21" class="fil0" points="31.96,11.97 31.47,11.97 31.47,8.35 32.36,8.35 32.36,10.48 34.21,8.35 34.65,8.35 34.65,11.97 33.76,11.97 33.76,9.89 "/>
  <polygon id="_22" class="fil0" points="35.24,8.35 38.62,8.35 38.62,9.22 37.41,9.22 37.41,11.97 36.5,11.97 36.5,9.22 35.24,9.22 "/>
  <path id="_23" class="fil0" d="M40.12 9.66l0.27 0c0.38,0 0.67,0.03 0.88,0.09 0.2,0.06 0.38,0.18 0.52,0.37 0.14,0.19 0.21,0.42 0.21,0.7 0,0.28 -0.06,0.51 -0.19,0.7 -0.13,0.19 -0.29,0.31 -0.49,0.37 -0.2,0.06 -0.47,0.09 -0.83,0.09l-1.28 0 0 -3.62 0.91 0 0 1.31zm0 1.61l0.28 0c0.17,0 0.29,-0.01 0.36,-0.04 0.07,-0.02 0.14,-0.07 0.19,-0.13 0.06,-0.07 0.08,-0.15 0.08,-0.24 0,-0.31 -0.18,-0.46 -0.54,-0.46l-0.38 0 0 0.87z"/>
  <polygon id="_24" class="fil0" points="46.81,10.63 47.93,8.35 48.53,8.35 49.43,11.97 48.54,11.97 48.06,9.85 46.98,11.97 46.61,11.97 45.55,9.85 45.06,11.97 44.18,11.97 45.08,8.35 45.68,8.35 "/>
  <path id="_25" class="fil0" d="M51.63 8.26c0.34,0 0.66,0.09 0.96,0.26 0.3,0.17 0.54,0.4 0.71,0.69 0.17,0.29 0.25,0.61 0.25,0.95 0,0.34 -0.09,0.66 -0.25,0.96 -0.17,0.3 -0.4,0.53 -0.7,0.7 -0.29,0.17 -0.62,0.25 -0.97,0.25 -0.52,0 -0.96,-0.18 -1.33,-0.55 -0.37,-0.37 -0.55,-0.82 -0.55,-1.34 0,-0.56 0.21,-1.03 0.62,-1.41 0.36,-0.33 0.78,-0.49 1.26,-0.49zm0.01 0.85c-0.28,0 -0.52,0.1 -0.71,0.29 -0.19,0.2 -0.28,0.45 -0.28,0.75 0,0.31 0.09,0.57 0.28,0.76 0.19,0.19 0.42,0.29 0.71,0.29 0.28,0 0.52,-0.1 0.71,-0.3 0.19,-0.2 0.28,-0.45 0.28,-0.76 0,-0.31 -0.09,-0.56 -0.28,-0.76 -0.19,-0.19 -0.42,-0.29 -0.71,-0.29z"/>
  <polygon id="_26" class="fil0" points="56.13,10.81 56.03,10.7 54.95,11.97 53.75,11.97 55.38,10.11 53.77,8.35 54.88,8.35 56.13,9.71 56.13,8.35 57.04,8.35 57.04,9.71 58.3,8.35 59.4,8.35 57.78,10.11 59.42,11.97 58.22,11.97 57.13,10.7 57.04,10.81 57.04,11.97 56.13,11.97 "/>
  <polygon id="_27" class="fil0" points="60.7,9.65 62.06,9.65 62.06,8.35 62.97,8.35 62.97,11.97 62.06,11.97 62.06,10.47 60.7,10.47 60.7,11.97 59.79,11.97 59.79,8.35 60.7,8.35 "/>
  <path id="_28" class="fil0" d="M65.58 8.26c0.34,0 0.66,0.09 0.96,0.26 0.3,0.17 0.54,0.4 0.71,0.69 0.17,0.29 0.25,0.61 0.25,0.95 0,0.34 -0.09,0.66 -0.25,0.96 -0.17,0.3 -0.4,0.53 -0.7,0.7 -0.29,0.17 -0.62,0.25 -0.97,0.25 -0.52,0 -0.96,-0.18 -1.33,-0.55 -0.37,-0.37 -0.55,-0.82 -0.55,-1.34 0,-0.56 0.21,-1.03 0.62,-1.41 0.36,-0.33 0.78,-0.49 1.26,-0.49zm0.01 0.85c-0.28,0 -0.52,0.1 -0.71,0.29 -0.19,0.2 -0.28,0.45 -0.28,0.75 0,0.31 0.09,0.57 0.28,0.76 0.19,0.19 0.42,0.29 0.71,0.29 0.28,0 0.52,-0.1 0.71,-0.3 0.19,-0.2 0.28,-0.45 0.28,-0.76 0,-0.31 -0.09,-0.56 -0.28,-0.76 -0.19,-0.19 -0.42,-0.29 -0.71,-0.29z"/>
  <path id="_29" class="fil0" d="M70.22 11.97l-0.85 0 0.61 -1.82 -0.61 -1.8 0.85 0 0.61 1.8 -0.61 1.82zm-1.5 0l-0.85 0 0.61 -1.82 -0.61 -1.8 0.85 0 0.61 1.8 -0.61 1.82z"/>
 </g>
</svg>
