<?xml version="1.0" encoding="UTF-8"?>
<!DOCTYPE svg PUBLIC "-//W3C//DTD SVG 1.1//EN" "http://www.w3.org/Graphics/SVG/1.1/DTD/svg11.dtd">
<!-- Creator: CorelDRAW 2019 (64-Bit) -->
<svg xmlns="http://www.w3.org/2000/svg" xml:space="preserve" width="7.20228cm" height="1.49884cm" version="1.1" style="shape-rendering:geometricPrecision; text-rendering:geometricPrecision; image-rendering:optimizeQuality; fill-rule:evenodd; clip-rule:evenodd"
viewBox="0 0 7.428 1.546"
 xmlns:xlink="http://www.w3.org/1999/xlink"
 xmlns:xodm="http://www.corel.com/coreldraw/odm/2003">
 <defs>
  <style type="text/css">
   <![CDATA[
    .fil0 {fill:#FF9400;fill-rule:nonzero}
   ]]>
  </style>
 </defs>
 <g id="Слой_x0020_1">
  <metadata id="CorelCorpID_0Corel-Layer"/>
  <polygon class="fil0" points="4.752,0 4.752,0.522 4.653,0.522 4.653,0.195 4.456,0.522 4.37,0.522 4.37,0 4.469,0 4.469,0.338 4.669,0 "/>
  <polygon id="1" class="fil0" points="4.957,0.522 4.86,0.522 4.86,0.136 5.199,0.136 5.199,0.522 5.102,0.522 5.102,0.229 4.957,0.229 "/>
  <path id="2" class="fil0" d="M5.479 0.127c0.037,0 0.071,0.009 0.103,0.027 0.032,0.018 0.057,0.043 0.075,0.074 0.018,0.031 0.027,0.065 0.027,0.101 0,0.036 -0.009,0.07 -0.027,0.102 -0.018,0.032 -0.043,0.056 -0.074,0.074 -0.031,0.018 -0.066,0.027 -0.104,0.027 -0.056,0 -0.103,-0.02 -0.142,-0.059 -0.039,-0.039 -0.059,-0.087 -0.059,-0.143 0,-0.06 0.022,-0.11 0.067,-0.151 0.039,-0.035 0.084,-0.052 0.134,-0.052zm0.001 0.091c-0.03,0 -0.055,0.01 -0.075,0.031 -0.02,0.021 -0.03,0.048 -0.03,0.08 0,0.033 0.01,0.061 0.03,0.081 0.02,0.021 0.045,0.031 0.075,0.031 0.03,0 0.056,-0.011 0.076,-0.032 0.02,-0.021 0.03,-0.048 0.03,-0.081 0,-0.033 -0.01,-0.06 -0.03,-0.081 -0.02,-0.021 -0.045,-0.031 -0.076,-0.031z"/>
  <polygon id="3" class="fil0" points="5.728,0.136 6.089,0.136 6.089,0.228 5.96,0.228 5.96,0.522 5.863,0.522 5.863,0.228 5.728,0.228 "/>
  <path id="4" class="fil0" d="M6.539 0.357l-0.311 0c0.004,0.028 0.016,0.049 0.036,0.066 0.019,0.016 0.044,0.024 0.074,0.024 0.036,0 0.067,-0.013 0.093,-0.038l0.081 0.038c-0.02,0.029 -0.045,0.05 -0.073,0.064 -0.028,0.014 -0.062,0.021 -0.101,0.021 -0.06,0 -0.11,-0.019 -0.148,-0.057 -0.038,-0.038 -0.057,-0.086 -0.057,-0.143 0,-0.059 0.019,-0.108 0.057,-0.147 0.038,-0.039 0.086,-0.058 0.143,-0.058 0.061,0 0.11,0.019 0.148,0.058 0.038,0.039 0.057,0.09 0.057,0.154l-0 0.018zm-0.096 -0.076c-0.006,-0.021 -0.019,-0.038 -0.038,-0.052 -0.019,-0.013 -0.041,-0.02 -0.066,-0.02 -0.027,0 -0.051,0.007 -0.071,0.022 -0.013,0.009 -0.025,0.026 -0.036,0.049l0.21 0z"/>
  <polygon id="5" class="fil0" points="6.618,0.136 6.715,0.136 6.715,0.281 6.849,0.136 6.967,0.136 6.794,0.324 6.97,0.522 6.841,0.522 6.725,0.386 6.715,0.398 6.715,0.522 6.618,0.522 "/>
  <path id="6" class="fil0" d="M7.295 0.136l0.097 0 0 0.386 -0.097 0 0 -0.041c-0.019,0.018 -0.038,0.031 -0.057,0.039 -0.019,0.008 -0.04,0.012 -0.062,0.012 -0.05,0 -0.093,-0.019 -0.13,-0.058 -0.036,-0.039 -0.055,-0.087 -0.055,-0.144 0,-0.06 0.018,-0.108 0.053,-0.146 0.035,-0.038 0.078,-0.057 0.129,-0.057 0.023,0 0.045,0.004 0.065,0.013 0.02,0.009 0.039,0.022 0.057,0.039l0 -0.042zm-0.102 0.079c-0.03,0 -0.055,0.011 -0.075,0.032 -0.02,0.021 -0.03,0.048 -0.03,0.081 0,0.033 0.01,0.061 0.03,0.082 0.02,0.021 0.045,0.032 0.075,0.032 0.03,0 0.056,-0.011 0.076,-0.032 0.02,-0.021 0.03,-0.049 0.03,-0.083 0,-0.034 -0.01,-0.061 -0.03,-0.082 -0.02,-0.021 -0.045,-0.031 -0.076,-0.031z"/>
  <path id="7" class="fil0" d="M-0 1.405l0 -0.386 0.155 0c0.051,0 0.086,0.01 0.104,0.03 0.018,0.02 0.027,0.043 0.027,0.068 0,0.038 -0.019,0.065 -0.056,0.081 0.051,0.018 0.076,0.051 0.076,0.099 0,0.026 -0.007,0.048 -0.02,0.065 -0.013,0.017 -0.031,0.029 -0.051,0.034 -0.021,0.006 -0.05,0.008 -0.087,0.008l-0.149 0zm0.097 -0.234l0.038 0c0.016,0 0.029,-0.004 0.037,-0.012 0.009,-0.008 0.013,-0.017 0.013,-0.026 0,-0.014 -0.004,-0.026 -0.013,-0.034 -0.008,-0.008 -0.018,-0.012 -0.03,-0.012l-0.013 0 -0.033 0 0 0.084zm0 0.159l0.049 0c0.019,0 0.033,-0.004 0.04,-0.013 0.008,-0.009 0.012,-0.017 0.012,-0.026 0,-0.012 -0.004,-0.024 -0.013,-0.034 -0.009,-0.01 -0.024,-0.016 -0.047,-0.016l-0.041 0 0 0.089z"/>
  <path id="8" class="fil0" d="M0.486 1.158l0.029 0c0.041,0 0.072,0.003 0.094,0.009 0.022,0.006 0.04,0.019 0.055,0.039 0.015,0.02 0.022,0.045 0.022,0.075 0,0.03 -0.007,0.055 -0.02,0.074 -0.014,0.02 -0.031,0.033 -0.052,0.039 -0.021,0.006 -0.05,0.01 -0.088,0.01l-0.137 0 0 -0.386 0.097 0 0 0.14zm0 0.172l0.03 0c0.018,0 0.03,-0.001 0.038,-0.004 0.008,-0.002 0.015,-0.007 0.021,-0.014 0.006,-0.007 0.009,-0.016 0.009,-0.026 0,-0.033 -0.019,-0.049 -0.057,-0.049l-0.04 0 0 0.093zm0.268 -0.311l0.097 0 0 0.386 -0.097 0 0 -0.386z"/>
  <path id="9" class="fil0" d="M1.319 0.86l0 0.092c-0.028,0.003 -0.055,0.005 -0.081,0.005 -0.047,0 -0.083,0.003 -0.107,0.006 -0.024,0.004 -0.045,0.012 -0.063,0.026 -0.018,0.013 -0.031,0.029 -0.039,0.046 -0.008,0.017 -0.012,0.042 -0.014,0.075 0.028,-0.067 0.076,-0.1 0.144,-0.1 0.05,0 0.094,0.018 0.13,0.055 0.037,0.036 0.055,0.084 0.055,0.141 0,0.06 -0.02,0.109 -0.059,0.149 -0.039,0.039 -0.088,0.059 -0.146,0.059 -0.047,0 -0.089,-0.014 -0.125,-0.043 -0.036,-0.029 -0.059,-0.063 -0.069,-0.103 -0.01,-0.04 -0.015,-0.082 -0.015,-0.128 0,-0.058 0.007,-0.105 0.022,-0.142 0.015,-0.036 0.034,-0.064 0.057,-0.082 0.024,-0.018 0.051,-0.03 0.082,-0.037 0.031,-0.006 0.077,-0.011 0.137,-0.013 0.041,-0.002 0.071,-0.004 0.091,-0.007zm-0.073 0.35c0,-0.032 -0.01,-0.059 -0.029,-0.08 -0.019,-0.021 -0.045,-0.032 -0.077,-0.032 -0.031,0 -0.056,0.011 -0.076,0.032 -0.02,0.021 -0.03,0.048 -0.03,0.08 0,0.034 0.01,0.061 0.03,0.081 0.02,0.021 0.045,0.031 0.076,0.031 0.03,0 0.055,-0.01 0.076,-0.031 0.02,-0.021 0.031,-0.048 0.031,-0.081z"/>
  <path id="10" class="fil0" d="M1.519 1.018l0 0.042c0.017,-0.017 0.036,-0.03 0.057,-0.039 0.02,-0.009 0.042,-0.013 0.065,-0.013 0.05,0 0.093,0.019 0.128,0.057 0.035,0.038 0.053,0.087 0.053,0.146 0,0.057 -0.018,0.105 -0.055,0.144 -0.036,0.039 -0.08,0.058 -0.13,0.058 -0.022,0 -0.043,-0.004 -0.062,-0.012 -0.019,-0.008 -0.038,-0.021 -0.057,-0.039l0 0.183 -0.097 0 0 -0.528 0.097 0zm0.102 0.079c-0.03,0 -0.056,0.01 -0.076,0.031 -0.02,0.021 -0.03,0.048 -0.03,0.082 0,0.034 0.01,0.062 0.03,0.083 0.02,0.021 0.045,0.032 0.076,0.032 0.03,0 0.054,-0.011 0.075,-0.032 0.02,-0.022 0.03,-0.049 0.03,-0.082 0,-0.033 -0.01,-0.06 -0.03,-0.081 -0.02,-0.021 -0.045,-0.032 -0.075,-0.032z"/>
  <path id="11" class="fil0" d="M2.189 1.018l0.097 0 0 0.386 -0.097 0 0 -0.041c-0.019,0.018 -0.038,0.031 -0.057,0.039 -0.019,0.008 -0.04,0.012 -0.062,0.012 -0.05,0 -0.093,-0.019 -0.13,-0.058 -0.036,-0.039 -0.055,-0.087 -0.055,-0.144 0,-0.06 0.018,-0.108 0.053,-0.146 0.035,-0.038 0.078,-0.057 0.129,-0.057 0.023,0 0.045,0.004 0.065,0.013 0.02,0.009 0.039,0.022 0.057,0.039l0 -0.042zm-0.102 0.079c-0.03,0 -0.055,0.011 -0.075,0.032 -0.02,0.021 -0.03,0.048 -0.03,0.081 0,0.033 0.01,0.061 0.03,0.082 0.02,0.021 0.045,0.032 0.075,0.032 0.03,0 0.056,-0.011 0.076,-0.032 0.02,-0.021 0.03,-0.049 0.03,-0.083 0,-0.034 -0.01,-0.061 -0.03,-0.082 -0.02,-0.021 -0.045,-0.031 -0.076,-0.031z"/>
  <polygon id="12" class="fil0" points="2.729,1.405 2.631,1.405 2.534,1.161 2.435,1.405 2.337,1.405 2.501,1.018 2.564,1.018 "/>
  <path id="13" class="fil0" d="M3.066 1.018l0.097 0 0 0.386 -0.097 0 0 -0.041c-0.019,0.018 -0.038,0.031 -0.057,0.039 -0.019,0.008 -0.04,0.012 -0.062,0.012 -0.05,0 -0.093,-0.019 -0.13,-0.058 -0.036,-0.039 -0.055,-0.087 -0.055,-0.144 0,-0.06 0.018,-0.108 0.053,-0.146 0.035,-0.038 0.078,-0.057 0.129,-0.057 0.023,0 0.045,0.004 0.065,0.013 0.02,0.009 0.039,0.022 0.057,0.039l0 -0.042zm-0.102 0.079c-0.03,0 -0.055,0.011 -0.075,0.032 -0.02,0.021 -0.03,0.048 -0.03,0.081 0,0.033 0.01,0.061 0.03,0.082 0.02,0.021 0.045,0.032 0.075,0.032 0.03,0 0.056,-0.011 0.076,-0.032 0.02,-0.021 0.03,-0.049 0.03,-0.083 0,-0.034 -0.01,-0.061 -0.03,-0.082 -0.02,-0.021 -0.045,-0.031 -0.076,-0.031z"/>
  <path id="14" class="fil0" d="M3.639 1.097l-0.081 0.044c-0.015,-0.016 -0.03,-0.027 -0.045,-0.033 -0.015,-0.006 -0.032,-0.009 -0.052,-0.009 -0.036,0 -0.066,0.011 -0.088,0.032 -0.022,0.022 -0.034,0.049 -0.034,0.083 0,0.033 0.011,0.059 0.032,0.08 0.022,0.021 0.05,0.031 0.085,0.031 0.043,0 0.077,-0.015 0.101,-0.044l0.076 0.052c-0.041,0.054 -0.1,0.081 -0.175,0.081 -0.068,0 -0.121,-0.02 -0.16,-0.06 -0.038,-0.04 -0.058,-0.087 -0.058,-0.141 0,-0.037 0.009,-0.072 0.028,-0.103 0.019,-0.031 0.045,-0.056 0.078,-0.074 0.033,-0.018 0.071,-0.027 0.112,-0.027 0.038,0 0.073,0.008 0.103,0.023 0.031,0.015 0.056,0.037 0.075,0.065z"/>
  <path id="15" class="fil0" d="M3.823 1.158l0.029 0c0.041,0 0.072,0.003 0.094,0.009 0.022,0.006 0.04,0.019 0.055,0.039 0.015,0.02 0.022,0.045 0.022,0.075 0,0.03 -0.007,0.055 -0.02,0.074 -0.014,0.02 -0.031,0.033 -0.052,0.039 -0.021,0.006 -0.05,0.01 -0.088,0.01l-0.137 0 0 -0.386 0.097 0 0 0.14zm0 0.172l0.03 0c0.018,0 0.03,-0.001 0.038,-0.004 0.008,-0.002 0.015,-0.007 0.021,-0.014 0.006,-0.007 0.009,-0.016 0.009,-0.026 0,-0.033 -0.019,-0.049 -0.057,-0.049l-0.04 0 0 0.093z"/>
  <path id="16" class="fil0" d="M4.366 1.241l0 -0.069 0.019 0c0.013,0 0.024,-0.003 0.034,-0.009 0.01,-0.006 0.015,-0.016 0.015,-0.03 0,-0.012 -0.004,-0.021 -0.013,-0.029 -0.009,-0.008 -0.019,-0.011 -0.032,-0.011 -0.016,0 -0.036,0.008 -0.06,0.023l-0.038 -0.067c0.033,-0.027 0.071,-0.04 0.112,-0.04 0.038,0 0.069,0.01 0.094,0.029 0.025,0.02 0.037,0.046 0.037,0.079 0,0.034 -0.018,0.061 -0.054,0.081 0.048,0.018 0.072,0.05 0.072,0.096 0,0.034 -0.013,0.063 -0.041,0.086 -0.027,0.023 -0.064,0.034 -0.112,0.034 -0.052,0 -0.096,-0.015 -0.13,-0.044l0.053 -0.067c0.023,0.017 0.045,0.026 0.066,0.026 0.017,0 0.03,-0.004 0.04,-0.012 0.01,-0.008 0.015,-0.018 0.015,-0.031 0,-0.012 -0.005,-0.022 -0.014,-0.031 -0.009,-0.009 -0.022,-0.013 -0.037,-0.013l-0.025 0z"/>
  <path id="17" class="fil0" d="M4.914 1.018l0.097 0 0 0.386 -0.097 0 0 -0.041c-0.019,0.018 -0.038,0.031 -0.057,0.039 -0.019,0.008 -0.04,0.012 -0.062,0.012 -0.05,0 -0.093,-0.019 -0.13,-0.058 -0.036,-0.039 -0.055,-0.087 -0.055,-0.144 0,-0.06 0.018,-0.108 0.053,-0.146 0.035,-0.038 0.078,-0.057 0.129,-0.057 0.023,0 0.045,0.004 0.065,0.013 0.02,0.009 0.039,0.022 0.057,0.039l0 -0.042zm-0.102 0.079c-0.03,0 -0.055,0.011 -0.075,0.032 -0.02,0.021 -0.03,0.048 -0.03,0.081 0,0.033 0.01,0.061 0.03,0.082 0.02,0.021 0.045,0.032 0.075,0.032 0.03,0 0.056,-0.011 0.076,-0.032 0.02,-0.021 0.03,-0.049 0.03,-0.083 0,-0.034 -0.01,-0.061 -0.03,-0.082 -0.02,-0.021 -0.045,-0.031 -0.076,-0.031z"/>
  <polygon id="18" class="fil0" points="5.313,1.018 5.538,1.018 5.538,1.111 5.409,1.111 5.409,1.405 5.313,1.405 "/>
  <path id="19" class="fil0" d="M5.785 1.009c0.037,0 0.071,0.009 0.103,0.027 0.032,0.018 0.057,0.043 0.075,0.074 0.018,0.031 0.027,0.065 0.027,0.101 0,0.036 -0.009,0.07 -0.027,0.102 -0.018,0.032 -0.043,0.056 -0.074,0.074 -0.031,0.018 -0.066,0.027 -0.104,0.027 -0.056,0 -0.103,-0.02 -0.142,-0.059 -0.039,-0.039 -0.059,-0.087 -0.059,-0.143 0,-0.06 0.022,-0.11 0.067,-0.151 0.039,-0.035 0.084,-0.052 0.134,-0.052zm0.001 0.091c-0.03,0 -0.055,0.01 -0.075,0.031 -0.02,0.021 -0.03,0.048 -0.03,0.08 0,0.033 0.01,0.061 0.03,0.081 0.02,0.021 0.045,0.031 0.075,0.031 0.03,0 0.056,-0.011 0.076,-0.032 0.02,-0.021 0.03,-0.048 0.03,-0.081 0,-0.033 -0.01,-0.06 -0.03,-0.081 -0.02,-0.021 -0.045,-0.031 -0.076,-0.031z"/>
  <path id="20" class="fil0" d="M6.166 1.018l0 0.042c0.017,-0.017 0.036,-0.03 0.057,-0.039 0.02,-0.009 0.042,-0.013 0.065,-0.013 0.05,0 0.093,0.019 0.128,0.057 0.035,0.038 0.053,0.087 0.053,0.146 0,0.057 -0.018,0.105 -0.055,0.144 -0.036,0.039 -0.08,0.058 -0.13,0.058 -0.022,0 -0.043,-0.004 -0.062,-0.012 -0.019,-0.008 -0.038,-0.021 -0.057,-0.039l0 0.183 -0.097 0 0 -0.528 0.097 0zm0.102 0.079c-0.03,0 -0.056,0.01 -0.076,0.031 -0.02,0.021 -0.03,0.048 -0.03,0.082 0,0.034 0.01,0.062 0.03,0.083 0.02,0.021 0.045,0.032 0.076,0.032 0.03,0 0.054,-0.011 0.075,-0.032 0.02,-0.022 0.03,-0.049 0.03,-0.082 0,-0.033 -0.01,-0.06 -0.03,-0.081 -0.02,-0.021 -0.045,-0.032 -0.075,-0.032z"/>
  <path id="21" class="fil0" d="M6.732 1.009c0.037,0 0.071,0.009 0.103,0.027 0.032,0.018 0.057,0.043 0.075,0.074 0.018,0.031 0.027,0.065 0.027,0.101 0,0.036 -0.009,0.07 -0.027,0.102 -0.018,0.032 -0.043,0.056 -0.074,0.074 -0.031,0.018 -0.066,0.027 -0.104,0.027 -0.056,0 -0.103,-0.02 -0.142,-0.059 -0.039,-0.039 -0.059,-0.087 -0.059,-0.143 0,-0.06 0.022,-0.11 0.067,-0.151 0.039,-0.035 0.084,-0.052 0.134,-0.052zm0.001 0.091c-0.03,0 -0.055,0.01 -0.075,0.031 -0.02,0.021 -0.03,0.048 -0.03,0.08 0,0.033 0.01,0.061 0.03,0.081 0.02,0.021 0.045,0.031 0.075,0.031 0.03,0 0.056,-0.011 0.076,-0.032 0.02,-0.021 0.03,-0.048 0.03,-0.081 0,-0.033 -0.01,-0.06 -0.03,-0.081 -0.02,-0.021 -0.045,-0.031 -0.076,-0.031z"/>
  <path id="22" class="fil0" d="M7.066 1.405l0 0.067 -0.087 0 0 -0.149 0.058 0 0.134 -0.304 0.063 0 0.135 0.304 0.059 0 0 0.149 -0.092 0 0 -0.067 -0.27 0zm0.2 -0.082l-0.063 -0.163 -0.066 0.163 0.13 0z"/>
 </g>
</svg>
