<?xml version="1.0" encoding="UTF-8"?>
<!DOCTYPE svg PUBLIC "-//W3C//DTD SVG 1.1//EN" "http://www.w3.org/Graphics/SVG/1.1/DTD/svg11.dtd">
<!-- Creator: CorelDRAW -->
<svg xmlns="http://www.w3.org/2000/svg" xml:space="preserve" width="62.883mm" height="15.1154mm" version="1.1" style="shape-rendering:geometricPrecision; text-rendering:geometricPrecision; image-rendering:optimizeQuality; fill-rule:evenodd; clip-rule:evenodd"
viewBox="0 0 51.96 12.49"
 xmlns:xlink="http://www.w3.org/1999/xlink"
 xmlns:xodm="http://www.corel.com/coreldraw/odm/2003">
 <defs>
  <style type="text/css">
   <![CDATA[
    .fil0 {fill:#C29138;fill-rule:nonzero}
   ]]>
  </style>
 </defs>
 <g id="Слой_x0020_1">
  <metadata id="CorelCorpID_0Corel-Layer"/>
  <polygon class="fil0" points="-0,0.1 3.01,0.1 3.01,4.29 2.21,4.29 2.21,0.85 0.81,0.85 0.81,4.29 -0,4.29 "/>
  <path id="_1" class="fil0" d="M5.34 1.12c0.29,0 0.57,0.07 0.82,0.22 0.26,0.15 0.46,0.34 0.6,0.59 0.14,0.25 0.22,0.52 0.22,0.81 0,0.29 -0.07,0.56 -0.22,0.82 -0.15,0.25 -0.34,0.45 -0.59,0.59 -0.25,0.14 -0.53,0.21 -0.83,0.21 -0.45,0 -0.82,-0.16 -1.14,-0.47 -0.31,-0.32 -0.47,-0.7 -0.47,-1.15 0,-0.48 0.18,-0.89 0.53,-1.21 0.31,-0.28 0.67,-0.42 1.07,-0.42zm0.01 0.73c-0.24,0 -0.44,0.08 -0.6,0.25 -0.16,0.17 -0.24,0.38 -0.24,0.64 0,0.27 0.08,0.49 0.24,0.65 0.16,0.17 0.36,0.25 0.6,0.25 0.24,0 0.45,-0.08 0.61,-0.25 0.16,-0.17 0.24,-0.38 0.24,-0.65 0,-0.27 -0.08,-0.48 -0.24,-0.65 -0.16,-0.17 -0.36,-0.25 -0.61,-0.25z"/>
  <path id="_2" class="fil0" d="M7.62 4.29l0 -3.1 1.25 0c0.41,0 0.69,0.08 0.83,0.24 0.15,0.16 0.22,0.34 0.22,0.55 0,0.3 -0.15,0.52 -0.45,0.65 0.41,0.14 0.61,0.41 0.61,0.79 0,0.21 -0.05,0.38 -0.16,0.52 -0.11,0.14 -0.25,0.23 -0.41,0.27 -0.17,0.05 -0.4,0.07 -0.7,0.07l-1.19 0zm0.78 -1.88l0.3 0c0.13,0 0.23,-0.03 0.3,-0.1 0.07,-0.06 0.1,-0.13 0.1,-0.21 0,-0.12 -0.03,-0.2 -0.1,-0.27 -0.07,-0.06 -0.15,-0.1 -0.24,-0.1l-0.1 0 -0.27 0 0 0.67zm0 1.28l0.39 0c0.15,0 0.26,-0.04 0.32,-0.11 0.06,-0.07 0.09,-0.14 0.09,-0.21 0,-0.1 -0.03,-0.19 -0.1,-0.27 -0.07,-0.08 -0.2,-0.12 -0.38,-0.12l-0.33 0 0 0.71z"/>
  <path id="_3" class="fil0" d="M11.51 2.31l0.23 0c0.33,0 0.58,0.03 0.75,0.07 0.17,0.05 0.32,0.16 0.44,0.31 0.12,0.16 0.18,0.36 0.18,0.6 0,0.24 -0.05,0.44 -0.16,0.59 -0.11,0.16 -0.25,0.26 -0.41,0.32 -0.17,0.05 -0.4,0.08 -0.71,0.08l-1.09 0 0 -3.1 0.78 0 0 1.12zm0 1.38l0.24 0c0.14,0 0.24,-0.01 0.31,-0.03 0.06,-0.02 0.12,-0.06 0.17,-0.11 0.05,-0.06 0.07,-0.13 0.07,-0.21 0,-0.26 -0.15,-0.4 -0.46,-0.4l-0.32 0 0 0.75zm2.15 -2.5l0.78 0 0 3.1 -0.78 0 0 -3.1z"/>
  <polygon id="_4" class="fil0" points="19.68,4.29 15.21,4.29 15.21,1.2 15.99,1.2 15.99,3.54 17.06,3.54 17.06,1.2 17.84,1.2 17.84,3.54 18.91,3.54 18.91,1.2 19.68,1.2 "/>
  <path id="_5" class="fil0" d="M23.56 2.96l-2.49 0c0.04,0.22 0.13,0.4 0.29,0.53 0.16,0.13 0.35,0.2 0.6,0.2 0.29,0 0.54,-0.1 0.75,-0.31l0.65 0.31c-0.16,0.23 -0.36,0.4 -0.58,0.51 -0.23,0.11 -0.5,0.17 -0.81,0.17 -0.48,0 -0.88,-0.15 -1.18,-0.46 -0.3,-0.31 -0.46,-0.69 -0.46,-1.15 0,-0.47 0.15,-0.86 0.46,-1.17 0.3,-0.31 0.69,-0.47 1.14,-0.47 0.49,0 0.88,0.16 1.19,0.47 0.31,0.31 0.46,0.72 0.46,1.23l-0 0.15zm-0.77 -0.61c-0.05,-0.17 -0.15,-0.31 -0.3,-0.41 -0.15,-0.11 -0.33,-0.16 -0.53,-0.16 -0.22,0 -0.41,0.06 -0.57,0.18 -0.1,0.07 -0.2,0.2 -0.28,0.39l1.68 0z"/>
  <polygon id="_6" class="fil0" points="24.97,2.31 26.14,2.31 26.14,1.2 26.91,1.2 26.91,4.29 26.14,4.29 26.14,3.01 24.97,3.01 24.97,4.29 24.2,4.29 24.2,1.2 24.97,1.2 "/>
  <polygon id="_7" class="fil0" points="28.11,4.29 27.7,4.29 27.7,1.2 28.45,1.2 28.45,3.01 30.04,1.2 30.41,1.2 30.41,4.29 29.65,4.29 29.65,2.51 "/>
  <path id="_8" class="fil0" d="M34.29 2.96l-2.49 0c0.04,0.22 0.13,0.4 0.29,0.53 0.16,0.13 0.35,0.2 0.6,0.2 0.29,0 0.54,-0.1 0.75,-0.31l0.65 0.31c-0.16,0.23 -0.36,0.4 -0.58,0.51 -0.23,0.11 -0.5,0.17 -0.81,0.17 -0.48,0 -0.88,-0.15 -1.18,-0.46 -0.3,-0.31 -0.46,-0.69 -0.46,-1.15 0,-0.47 0.15,-0.86 0.46,-1.17 0.3,-0.31 0.69,-0.47 1.14,-0.47 0.49,0 0.88,0.16 1.19,0.47 0.31,0.31 0.46,0.72 0.46,1.23l-0 0.15zm-0.77 -0.61c-0.05,-0.17 -0.15,-0.31 -0.3,-0.41 -0.15,-0.11 -0.33,-0.16 -0.53,-0.16 -0.22,0 -0.41,0.06 -0.57,0.18 -0.1,0.07 -0.2,0.2 -0.28,0.39l1.68 0z"/>
  <polygon id="_9" class="fil0" points="37.05,0.1 37.82,0.1 38.79,3.02 39.77,0.1 40.54,0.1 41.25,4.29 40.48,4.29 40.03,1.65 39.14,4.29 38.44,4.29 37.56,1.65 37.1,4.29 36.32,4.29 "/>
  <path id="_10" class="fil0" d="M41.89 0.1l0.85 0c0.46,0 0.79,0.04 0.99,0.13 0.2,0.08 0.36,0.22 0.48,0.41 0.12,0.19 0.17,0.41 0.17,0.68 0,0.29 -0.08,0.54 -0.23,0.73 -0.15,0.19 -0.36,0.33 -0.62,0.4 -0.15,0.04 -0.44,0.07 -0.84,0.07l0 1.77 -0.79 0 0 -4.19zm0.79 1.64l0.26 0c0.2,0 0.34,-0.01 0.42,-0.04 0.08,-0.03 0.14,-0.08 0.19,-0.14 0.04,-0.07 0.07,-0.15 0.07,-0.24 0,-0.16 -0.06,-0.28 -0.19,-0.35 -0.09,-0.06 -0.26,-0.08 -0.51,-0.08l-0.23 0 0 0.86z"/>
  <path id="_11" class="fil0" d="M47.13 0c0.59,0 1.1,0.21 1.53,0.64 0.43,0.43 0.64,0.95 0.64,1.57 0,0.61 -0.21,1.13 -0.63,1.55 -0.42,0.42 -0.93,0.63 -1.53,0.63 -0.63,0 -1.15,-0.22 -1.57,-0.65 -0.42,-0.43 -0.62,-0.95 -0.62,-1.55 0,-0.4 0.1,-0.77 0.29,-1.1 0.19,-0.34 0.46,-0.6 0.8,-0.8 0.34,-0.2 0.7,-0.29 1.1,-0.29zm-0.01 0.78c-0.39,0 -0.71,0.14 -0.97,0.4 -0.26,0.27 -0.39,0.61 -0.39,1.03 0,0.46 0.17,0.83 0.5,1.1 0.26,0.21 0.55,0.32 0.89,0.32 0.38,0 0.7,-0.14 0.96,-0.41 0.27,-0.27 0.4,-0.61 0.4,-1.01 0,-0.4 -0.13,-0.74 -0.4,-1.01 -0.27,-0.28 -0.59,-0.41 -0.97,-0.41z"/>
  <polygon id="_12" class="fil0" points="49.64,0.1 51.96,0.1 51.96,0.89 51.19,0.89 51.19,4.29 50.38,4.29 50.38,0.89 49.64,0.89 "/>
  <path id="_13" class="fil0" d="M2.63 11.36l0 0.54 -0.69 0 0 -1.2 0.47 0 1.07 -2.44 0.5 0 1.08 2.44 0.48 0 0 1.2 -0.74 0 0 -0.54 -2.16 0zm1.6 -0.66l-0.51 -1.31 -0.53 1.31 1.04 0z"/>
  <path id="_14" class="fil0" d="M7.48 8.19c0.29,0 0.57,0.07 0.82,0.22 0.26,0.15 0.46,0.34 0.6,0.59 0.14,0.25 0.22,0.52 0.22,0.81 0,0.29 -0.07,0.56 -0.22,0.82 -0.15,0.25 -0.34,0.45 -0.59,0.59 -0.25,0.14 -0.53,0.21 -0.83,0.21 -0.45,0 -0.82,-0.16 -1.14,-0.47 -0.31,-0.32 -0.47,-0.7 -0.47,-1.15 0,-0.48 0.18,-0.89 0.53,-1.21 0.31,-0.28 0.67,-0.42 1.07,-0.42zm0.01 0.73c-0.24,0 -0.44,0.08 -0.6,0.25 -0.16,0.17 -0.24,0.38 -0.24,0.64 0,0.27 0.08,0.49 0.24,0.65 0.16,0.17 0.36,0.25 0.6,0.25 0.24,0 0.45,-0.08 0.61,-0.25 0.16,-0.17 0.24,-0.38 0.24,-0.65 0,-0.27 -0.08,-0.48 -0.24,-0.65 -0.16,-0.17 -0.36,-0.25 -0.61,-0.25z"/>
  <path id="_15" class="fil0" d="M12.01 8.53l-0.78 0c0.02,-0.45 0.16,-0.81 0.43,-1.07 0.26,-0.26 0.6,-0.39 1.01,-0.39 0.25,0 0.48,0.05 0.67,0.16 0.19,0.11 0.35,0.26 0.47,0.46 0.12,0.2 0.17,0.41 0.17,0.62 0,0.25 -0.07,0.52 -0.21,0.8 -0.14,0.29 -0.4,0.63 -0.78,1.02l-0.47 0.5 1.49 0 0 0.73 -2.9 0 0 -0.38 1.3 -1.32c0.31,-0.32 0.52,-0.57 0.62,-0.76 0.1,-0.19 0.16,-0.37 0.16,-0.52 0,-0.16 -0.05,-0.29 -0.16,-0.4 -0.11,-0.1 -0.25,-0.16 -0.41,-0.16 -0.17,0 -0.31,0.06 -0.43,0.19 -0.11,0.13 -0.17,0.3 -0.18,0.52z"/>
  <path id="_16" class="fil0" d="M15.28 8.53l-0.78 0c0.02,-0.45 0.16,-0.81 0.43,-1.07 0.26,-0.26 0.6,-0.39 1.01,-0.39 0.25,0 0.48,0.05 0.67,0.16 0.19,0.11 0.35,0.26 0.47,0.46 0.12,0.2 0.17,0.41 0.17,0.62 0,0.25 -0.07,0.52 -0.21,0.8 -0.14,0.29 -0.4,0.63 -0.78,1.02l-0.47 0.5 1.49 0 0 0.73 -2.9 0 0 -0.38 1.3 -1.32c0.31,-0.32 0.52,-0.57 0.62,-0.76 0.1,-0.19 0.16,-0.37 0.16,-0.52 0,-0.16 -0.05,-0.29 -0.16,-0.4 -0.11,-0.1 -0.25,-0.16 -0.41,-0.16 -0.17,0 -0.31,0.06 -0.43,0.19 -0.11,0.13 -0.17,0.3 -0.18,0.52z"/>
  <path id="_17" class="fil0" d="M21.1 7.07l0.79 0 0 2.7 0.37 0 0 0.73 -0.37 0 0 0.86 -0.78 0 0 -0.86 -1.83 0 0 -0.73 1.82 -2.7zm0.01 2.7l0 -1.4 -0.96 1.4 0.96 0z"/>
  <path id="_18" class="fil0" d="M24.36 7.07l0.79 0 0 2.7 0.37 0 0 0.73 -0.37 0 0 0.86 -0.78 0 0 -0.86 -1.83 0 0 -0.73 1.82 -2.7zm0.01 2.7l0 -1.4 -0.96 1.4 0.96 0z"/>
  <path id="_19" class="fil0" d="M27.31 7.07c0.31,0 0.57,0.07 0.79,0.22 0.22,0.15 0.39,0.38 0.51,0.69 0.12,0.31 0.18,0.74 0.18,1.29 0,0.56 -0.06,0.99 -0.18,1.3 -0.12,0.31 -0.29,0.54 -0.49,0.68 -0.21,0.14 -0.47,0.22 -0.78,0.22 -0.31,0 -0.58,-0.07 -0.79,-0.22 -0.21,-0.15 -0.38,-0.37 -0.5,-0.67 -0.12,-0.3 -0.18,-0.72 -0.18,-1.27 0,-0.77 0.12,-1.32 0.36,-1.67 0.26,-0.38 0.63,-0.57 1.1,-0.57zm0.02 0.76c-0.13,0 -0.25,0.04 -0.36,0.13 -0.1,0.09 -0.18,0.23 -0.24,0.44 -0.05,0.21 -0.08,0.52 -0.08,0.92 0,0.53 0.06,0.89 0.19,1.09 0.13,0.2 0.29,0.3 0.49,0.3 0.19,0 0.34,-0.1 0.46,-0.29 0.14,-0.23 0.21,-0.62 0.21,-1.16 0,-0.55 -0.06,-0.93 -0.19,-1.13 -0.12,-0.21 -0.28,-0.31 -0.48,-0.31z"/>
  <path id="_20" class="fil0" d="M31.75 8.26l0 0.34c0.14,-0.14 0.29,-0.24 0.45,-0.31 0.16,-0.07 0.34,-0.1 0.52,-0.1 0.4,0 0.75,0.15 1.03,0.46 0.28,0.31 0.42,0.7 0.42,1.17 0,0.46 -0.15,0.84 -0.44,1.15 -0.29,0.31 -0.64,0.46 -1.04,0.46 -0.18,0 -0.34,-0.03 -0.5,-0.1 -0.15,-0.06 -0.31,-0.17 -0.46,-0.31l0 1.46 -0.78 0 0 -4.23 0.78 0zm0.81 0.64c-0.24,0 -0.45,0.08 -0.61,0.25 -0.16,0.17 -0.24,0.38 -0.24,0.65 0,0.27 0.08,0.5 0.24,0.67 0.16,0.17 0.36,0.25 0.61,0.25 0.24,0 0.44,-0.09 0.6,-0.26 0.16,-0.17 0.24,-0.39 0.24,-0.66 0,-0.27 -0.08,-0.48 -0.24,-0.65 -0.16,-0.17 -0.36,-0.25 -0.6,-0.25z"/>
  <polygon id="_21" class="fil0" points="34.48,8.26 35.27,8.26 36.08,10.2 36.96,8.26 37.76,8.26 35.82,12.49 35.03,12.49 35.66,11.13 "/>
  <path id="_22" class="fil0" d="M41.17 7l0 0.73c-0.22,0.03 -0.44,0.04 -0.65,0.04 -0.38,0 -0.67,0.02 -0.86,0.05 -0.19,0.03 -0.36,0.1 -0.51,0.2 -0.15,0.11 -0.25,0.23 -0.31,0.37 -0.06,0.14 -0.1,0.34 -0.11,0.6 0.22,-0.53 0.61,-0.8 1.16,-0.8 0.4,0 0.75,0.15 1.04,0.44 0.29,0.29 0.44,0.67 0.44,1.13 0,0.48 -0.16,0.87 -0.47,1.19 -0.32,0.32 -0.71,0.47 -1.17,0.47 -0.38,0 -0.71,-0.12 -1,-0.35 -0.29,-0.23 -0.47,-0.51 -0.56,-0.83 -0.08,-0.32 -0.12,-0.66 -0.12,-1.02 0,-0.47 0.06,-0.84 0.17,-1.13 0.12,-0.29 0.27,-0.51 0.46,-0.66 0.19,-0.15 0.41,-0.24 0.66,-0.29 0.25,-0.05 0.62,-0.08 1.1,-0.1 0.33,-0.02 0.57,-0.03 0.73,-0.05zm-0.58 2.81c0,-0.26 -0.08,-0.47 -0.23,-0.64 -0.16,-0.17 -0.36,-0.25 -0.62,-0.25 -0.24,0 -0.45,0.09 -0.61,0.26 -0.16,0.17 -0.24,0.38 -0.24,0.64 0,0.27 0.08,0.49 0.24,0.65 0.16,0.17 0.36,0.25 0.61,0.25 0.24,0 0.44,-0.08 0.61,-0.25 0.16,-0.17 0.25,-0.38 0.25,-0.65z"/>
  <polygon id="_23" class="fil0" points="44.78,11.36 43.99,11.36 43.21,9.4 42.42,11.36 41.63,11.36 42.95,8.26 43.45,8.26 "/>
  <path id="_24" class="fil0" d="M48.28 10.03l-2.49 0c0.04,0.22 0.13,0.4 0.29,0.53 0.16,0.13 0.35,0.2 0.6,0.2 0.29,0 0.54,-0.1 0.75,-0.31l0.65 0.31c-0.16,0.23 -0.36,0.4 -0.58,0.51 -0.23,0.11 -0.5,0.17 -0.81,0.17 -0.48,0 -0.88,-0.15 -1.18,-0.46 -0.3,-0.31 -0.46,-0.69 -0.46,-1.15 0,-0.47 0.15,-0.86 0.46,-1.17 0.3,-0.31 0.69,-0.47 1.14,-0.47 0.49,0 0.88,0.16 1.19,0.47 0.31,0.31 0.46,0.72 0.46,1.23l-0 0.15zm-0.77 -0.61c-0.05,-0.17 -0.15,-0.31 -0.3,-0.41 -0.15,-0.11 -0.33,-0.16 -0.53,-0.16 -0.22,0 -0.41,0.06 -0.57,0.18 -0.1,0.07 -0.2,0.2 -0.28,0.39l1.68 0z"/>
  <path id="_25" class="fil0" d="M49.33 11.36l-0.41 0 0 -3.1 0.76 0 0 1.82 1.59 -1.82 0.37 0 0 3.1 -0.76 0 0 -1.78 -1.55 1.78zm-0.2 -4.46l0.63 0c0.05,0.08 0.12,0.14 0.21,0.17 0.09,0.04 0.2,0.06 0.32,0.06 0.13,0 0.24,-0.02 0.35,-0.07 0.07,-0.03 0.13,-0.09 0.18,-0.17l0.63 0c-0.04,0.24 -0.15,0.43 -0.35,0.58 -0.19,0.15 -0.47,0.22 -0.81,0.22 -0.24,0 -0.43,-0.03 -0.59,-0.1 -0.16,-0.07 -0.29,-0.16 -0.38,-0.28 -0.1,-0.12 -0.16,-0.26 -0.18,-0.42z"/>
 </g>
</svg>
