<?xml version="1.0" encoding="UTF-8"?>
<!DOCTYPE svg PUBLIC "-//W3C//DTD SVG 1.1//EN" "http://www.w3.org/Graphics/SVG/1.1/DTD/svg11.dtd">
<!-- Creator: CorelDRAW -->
<svg xmlns="http://www.w3.org/2000/svg" xml:space="preserve" width="67.4022mm" height="14.2687mm" version="1.1" style="shape-rendering:geometricPrecision; text-rendering:geometricPrecision; image-rendering:optimizeQuality; fill-rule:evenodd; clip-rule:evenodd"
viewBox="0 0 59.77 12.65"
 xmlns:xlink="http://www.w3.org/1999/xlink"
 xmlns:xodm="http://www.corel.com/coreldraw/odm/2003">
 <defs>
  <style type="text/css">
   <![CDATA[
    .fil0 {fill:#C29138;fill-rule:nonzero}
   ]]>
  </style>
 </defs>
 <g id="Слой_x0020_1">
  <metadata id="CorelCorpID_0Corel-Layer"/>
  <path class="fil0" d="M6.4 0l0.91 0c0.49,0 0.84,0.04 1.06,0.14 0.22,0.09 0.39,0.24 0.51,0.44 0.13,0.2 0.19,0.45 0.19,0.73 0,0.31 -0.08,0.57 -0.25,0.78 -0.16,0.21 -0.39,0.35 -0.67,0.43 -0.17,0.05 -0.47,0.07 -0.9,0.07l0 1.9 -0.85 0 0 -4.49zm0.85 1.76l0.27 0c0.22,0 0.37,-0.02 0.45,-0.05 0.08,-0.03 0.15,-0.08 0.2,-0.15 0.05,-0.07 0.07,-0.16 0.07,-0.26 0,-0.17 -0.07,-0.3 -0.2,-0.38 -0.1,-0.06 -0.28,-0.09 -0.55,-0.09l-0.24 0 0 0.93z"/>
  <path id="_1" class="fil0" d="M12.27 1.17l0.83 0 0 3.32 -0.83 0 0 -0.35c-0.16,0.15 -0.33,0.26 -0.49,0.33 -0.16,0.07 -0.34,0.1 -0.53,0.1 -0.43,0 -0.8,-0.17 -1.12,-0.5 -0.31,-0.33 -0.47,-0.74 -0.47,-1.24 0,-0.51 0.15,-0.93 0.46,-1.26 0.3,-0.33 0.67,-0.49 1.11,-0.49 0.2,0 0.39,0.04 0.56,0.11 0.18,0.07 0.34,0.19 0.49,0.33l0 -0.37zm-0.88 0.68c-0.26,0 -0.47,0.09 -0.64,0.27 -0.17,0.18 -0.26,0.42 -0.26,0.7 0,0.29 0.09,0.52 0.26,0.71 0.17,0.18 0.39,0.28 0.64,0.28 0.26,0 0.48,-0.09 0.65,-0.27 0.17,-0.18 0.26,-0.42 0.26,-0.72 0,-0.29 -0.09,-0.52 -0.26,-0.7 -0.17,-0.18 -0.39,-0.27 -0.65,-0.27z"/>
  <path id="_2" class="fil0" d="M17.2 1.85l-0.69 0.38c-0.13,-0.14 -0.26,-0.23 -0.39,-0.28 -0.13,-0.05 -0.28,-0.08 -0.45,-0.08 -0.31,0 -0.56,0.09 -0.76,0.28 -0.19,0.19 -0.29,0.42 -0.29,0.71 0,0.28 0.09,0.51 0.28,0.69 0.19,0.18 0.43,0.27 0.73,0.27 0.37,0 0.66,-0.13 0.87,-0.38l0.66 0.45c-0.36,0.46 -0.86,0.69 -1.51,0.69 -0.59,0 -1.04,-0.17 -1.37,-0.52 -0.33,-0.35 -0.5,-0.75 -0.5,-1.21 0,-0.32 0.08,-0.62 0.24,-0.89 0.16,-0.27 0.39,-0.48 0.67,-0.64 0.29,-0.15 0.61,-0.23 0.97,-0.23 0.33,0 0.63,0.07 0.89,0.2 0.26,0.13 0.48,0.32 0.64,0.56z"/>
  <polygon id="_3" class="fil0" points="18.78,4.49 17.95,4.49 17.95,1.17 20.86,1.17 20.86,4.49 20.03,4.49 20.03,1.97 18.78,1.97 "/>
  <path id="_4" class="fil0" d="M22.54 1.17l0 0.37c0.15,-0.15 0.31,-0.26 0.49,-0.33 0.18,-0.07 0.36,-0.11 0.56,-0.11 0.43,0 0.8,0.16 1.1,0.49 0.3,0.33 0.45,0.75 0.45,1.26 0,0.49 -0.16,0.91 -0.47,1.24 -0.31,0.33 -0.68,0.5 -1.11,0.5 -0.19,0 -0.37,-0.03 -0.53,-0.1 -0.16,-0.07 -0.33,-0.18 -0.49,-0.33l0 1.57 -0.83 0 0 -4.54 0.83 0zm0.87 0.68c-0.26,0 -0.48,0.09 -0.65,0.27 -0.17,0.18 -0.26,0.41 -0.26,0.7 0,0.3 0.09,0.53 0.26,0.72 0.17,0.18 0.39,0.27 0.65,0.27 0.25,0 0.47,-0.09 0.64,-0.28 0.17,-0.19 0.26,-0.42 0.26,-0.71 0,-0.28 -0.09,-0.52 -0.26,-0.7 -0.17,-0.18 -0.39,-0.27 -0.65,-0.27z"/>
  <path id="_5" class="fil0" d="M29.16 3.07l-2.67 0c0.04,0.24 0.14,0.43 0.31,0.57 0.17,0.14 0.38,0.21 0.64,0.21 0.31,0 0.58,-0.11 0.8,-0.33l0.7 0.33c-0.17,0.25 -0.38,0.43 -0.63,0.55 -0.24,0.12 -0.53,0.18 -0.87,0.18 -0.52,0 -0.94,-0.16 -1.27,-0.49 -0.33,-0.33 -0.49,-0.74 -0.49,-1.23 0,-0.51 0.16,-0.93 0.49,-1.26 0.33,-0.33 0.74,-0.5 1.23,-0.5 0.52,0 0.95,0.17 1.28,0.5 0.33,0.33 0.49,0.77 0.49,1.32l-0 0.16zm-0.83 -0.65c-0.06,-0.18 -0.16,-0.33 -0.33,-0.44 -0.16,-0.11 -0.35,-0.17 -0.57,-0.17 -0.23,0 -0.44,0.06 -0.61,0.19 -0.11,0.08 -0.21,0.22 -0.31,0.42l1.81 0z"/>
  <path id="_6" class="fil0" d="M30.27 4.49l0 0.58 -0.74 0 0 -1.28 0.5 0 1.15 -2.62 0.54 0 1.16 2.62 0.51 0 0 1.28 -0.79 0 0 -0.58 -2.32 0zm1.72 -0.71l-0.55 -1.4 -0.57 1.4 1.12 0z"/>
  <path id="_7" class="fil0" d="M37.24 3.07l-2.67 0c0.04,0.24 0.14,0.43 0.31,0.57 0.17,0.14 0.38,0.21 0.64,0.21 0.31,0 0.58,-0.11 0.8,-0.33l0.7 0.33c-0.17,0.25 -0.38,0.43 -0.63,0.55 -0.24,0.12 -0.53,0.18 -0.87,0.18 -0.52,0 -0.94,-0.16 -1.27,-0.49 -0.33,-0.33 -0.49,-0.74 -0.49,-1.23 0,-0.51 0.16,-0.93 0.49,-1.26 0.33,-0.33 0.74,-0.5 1.23,-0.5 0.52,0 0.95,0.17 1.28,0.5 0.33,0.33 0.49,0.77 0.49,1.32l-0 0.16zm-0.83 -0.65c-0.06,-0.18 -0.16,-0.33 -0.33,-0.44 -0.16,-0.11 -0.35,-0.17 -0.57,-0.17 -0.23,0 -0.44,0.06 -0.61,0.19 -0.11,0.08 -0.21,0.22 -0.31,0.42l1.81 0z"/>
  <polygon id="_8" class="fil0" points="40.89,4.49 40.05,4.49 39.21,2.39 38.36,4.49 37.52,4.49 38.93,1.17 39.47,1.17 "/>
  <path id="_9" class="fil0" d="M41.89 3.13c-0.18,-0.06 -0.33,-0.17 -0.44,-0.33 -0.12,-0.16 -0.17,-0.35 -0.17,-0.55 0,-0.25 0.07,-0.46 0.21,-0.65 0.14,-0.19 0.31,-0.3 0.5,-0.35 0.2,-0.05 0.5,-0.07 0.91,-0.07l0.84 0 0 3.32 -0.83 0 0 -1.2 -0.16 0 -0.8 1.2 -0.99 0 0.92 -1.36zm1.02 -0.46l0 -0.8 -0.29 0c-0.32,0 -0.48,0.13 -0.48,0.4 0,0.27 0.18,0.4 0.53,0.4l0.24 0z"/>
  <path id="_10" class="fil0" d="M45.42 4.49l-0.83 0 0 -3.32 0.83 0 0 1.31 0.44 0c0.1,-0.44 0.32,-0.78 0.64,-1.03 0.33,-0.25 0.68,-0.37 1.06,-0.37 0.49,0 0.9,0.17 1.25,0.5 0.34,0.34 0.52,0.75 0.52,1.24 0,0.48 -0.17,0.89 -0.5,1.23 -0.33,0.34 -0.75,0.52 -1.26,0.52 -0.4,0 -0.76,-0.13 -1.09,-0.38 -0.32,-0.25 -0.53,-0.57 -0.61,-0.95l-0.44 0 0 1.25zm3.06 -1.66c0,-0.28 -0.09,-0.51 -0.26,-0.69 -0.17,-0.18 -0.39,-0.27 -0.66,-0.27 -0.26,0 -0.48,0.09 -0.65,0.28 -0.17,0.18 -0.26,0.41 -0.26,0.68 0,0.29 0.09,0.52 0.26,0.7 0.17,0.18 0.39,0.27 0.65,0.27 0.26,0 0.47,-0.09 0.65,-0.27 0.18,-0.18 0.26,-0.41 0.26,-0.7z"/>
  <polygon id="_11" class="fil0" points="49.7,1.17 52.8,1.17 52.8,1.96 51.69,1.96 51.69,4.49 50.86,4.49 50.86,1.96 49.7,1.96 "/>
  <path id="_12" class="fil0" d="M56.6 1.85l-0.69 0.38c-0.13,-0.14 -0.26,-0.23 -0.39,-0.28 -0.13,-0.05 -0.28,-0.08 -0.45,-0.08 -0.31,0 -0.56,0.09 -0.76,0.28 -0.19,0.19 -0.29,0.42 -0.29,0.71 0,0.28 0.09,0.51 0.28,0.69 0.19,0.18 0.43,0.27 0.73,0.27 0.37,0 0.66,-0.13 0.87,-0.38l0.66 0.45c-0.36,0.46 -0.86,0.69 -1.51,0.69 -0.59,0 -1.04,-0.17 -1.37,-0.52 -0.33,-0.35 -0.5,-0.75 -0.5,-1.21 0,-0.32 0.08,-0.62 0.24,-0.89 0.16,-0.27 0.39,-0.48 0.67,-0.64 0.29,-0.15 0.61,-0.23 0.97,-0.23 0.33,0 0.63,0.07 0.89,0.2 0.26,0.13 0.48,0.32 0.64,0.56z"/>
  <path id="_13" class="fil0" d="M57.92 3.13c-0.18,-0.06 -0.33,-0.17 -0.44,-0.33 -0.12,-0.16 -0.17,-0.35 -0.17,-0.55 0,-0.25 0.07,-0.46 0.21,-0.65 0.14,-0.19 0.31,-0.3 0.5,-0.35 0.2,-0.05 0.5,-0.07 0.91,-0.07l0.84 0 0 3.32 -0.83 0 0 -1.2 -0.16 0 -0.8 1.2 -0.99 0 0.92 -1.36zm1.02 -0.46l0 -0.8 -0.29 0c-0.32,0 -0.48,0.13 -0.48,0.4 0,0.27 0.18,0.4 0.53,0.4l0.24 0z"/>
  <path id="_14" class="fil0" d="M0.74 12.08l0 0.58 -0.74 0 0 -1.28 0.5 0 1.15 -2.62 0.54 0 1.16 2.62 0.51 0 0 1.28 -0.79 0 0 -0.58 -2.32 0zm1.72 -0.71l-0.55 -1.4 -0.57 1.4 1.12 0z"/>
  <path id="_15" class="fil0" d="M5.95 8.67c0.31,0 0.61,0.08 0.89,0.23 0.28,0.16 0.49,0.37 0.65,0.64 0.16,0.27 0.23,0.56 0.23,0.87 0,0.31 -0.08,0.6 -0.23,0.88 -0.16,0.27 -0.37,0.48 -0.64,0.64 -0.27,0.15 -0.57,0.23 -0.89,0.23 -0.48,0 -0.89,-0.17 -1.22,-0.51 -0.34,-0.34 -0.51,-0.75 -0.51,-1.23 0,-0.52 0.19,-0.95 0.57,-1.3 0.33,-0.3 0.72,-0.45 1.15,-0.45zm0.01 0.78c-0.26,0 -0.48,0.09 -0.65,0.27 -0.17,0.18 -0.26,0.41 -0.26,0.69 0,0.29 0.09,0.52 0.26,0.7 0.17,0.18 0.39,0.27 0.65,0.27 0.26,0 0.48,-0.09 0.65,-0.27 0.17,-0.18 0.26,-0.41 0.26,-0.7 0,-0.28 -0.09,-0.52 -0.26,-0.69 -0.17,-0.18 -0.39,-0.27 -0.65,-0.27z"/>
  <polygon id="_16" class="fil0" points="8.09,8.76 9.06,8.76 9.72,9.66 10.37,8.76 11.33,8.76 10.19,10.32 11.47,12.08 10.5,12.08 9.71,10.99 8.93,12.08 7.97,12.08 9.23,10.33 "/>
  <path id="_17" class="fil0" d="M13.46 8.67c0.31,0 0.61,0.08 0.89,0.23 0.28,0.16 0.49,0.37 0.65,0.64 0.16,0.27 0.23,0.56 0.23,0.87 0,0.31 -0.08,0.6 -0.23,0.88 -0.16,0.27 -0.37,0.48 -0.64,0.64 -0.27,0.15 -0.57,0.23 -0.89,0.23 -0.48,0 -0.89,-0.17 -1.22,-0.51 -0.34,-0.34 -0.51,-0.75 -0.51,-1.23 0,-0.52 0.19,-0.95 0.57,-1.3 0.33,-0.3 0.72,-0.45 1.15,-0.45zm0.01 0.78c-0.26,0 -0.48,0.09 -0.65,0.27 -0.17,0.18 -0.26,0.41 -0.26,0.69 0,0.29 0.09,0.52 0.26,0.7 0.17,0.18 0.39,0.27 0.65,0.27 0.26,0 0.48,-0.09 0.65,-0.27 0.17,-0.18 0.26,-0.41 0.26,-0.7 0,-0.28 -0.09,-0.52 -0.26,-0.69 -0.17,-0.18 -0.39,-0.27 -0.65,-0.27z"/>
  <path id="_18" class="fil0" d="M16.33 12.08l0 0.58 -0.74 0 0 -1.28 0.5 0 1.15 -2.62 0.54 0 1.16 2.62 0.51 0 0 1.28 -0.79 0 0 -0.58 -2.32 0zm1.72 -0.71l-0.55 -1.4 -0.57 1.4 1.12 0z"/>
  <path id="_19" class="fil0" d="M20.8 9.96l0.25 0c0.35,0 0.62,0.03 0.81,0.08 0.19,0.05 0.35,0.17 0.47,0.34 0.13,0.17 0.19,0.39 0.19,0.64 0,0.26 -0.06,0.47 -0.17,0.64 -0.12,0.17 -0.26,0.28 -0.45,0.34 -0.18,0.06 -0.43,0.08 -0.76,0.08l-1.17 0 0 -3.32 0.83 0 0 1.2zm0 1.48l0.25 0c0.15,0 0.26,-0.01 0.33,-0.03 0.07,-0.02 0.13,-0.06 0.18,-0.12 0.05,-0.06 0.08,-0.13 0.08,-0.22 0,-0.28 -0.16,-0.42 -0.49,-0.42l-0.35 0 0 0.8zm2.3 -2.68l0.83 0 0 3.32 -0.83 0 0 -3.32z"/>
  <polygon id="_20" class="fil0" points="27.36,9.95 28.61,9.95 28.61,8.76 29.44,8.76 29.44,12.08 28.61,12.08 28.61,10.7 27.36,10.7 27.36,12.08 26.53,12.08 26.53,8.76 27.36,8.76 "/>
  <path id="_21" class="fil0" d="M32.74 8.76l0.83 0 0 3.32 -0.83 0 0 -0.35c-0.16,0.15 -0.33,0.26 -0.49,0.33 -0.16,0.07 -0.34,0.1 -0.53,0.1 -0.43,0 -0.8,-0.17 -1.12,-0.5 -0.31,-0.33 -0.47,-0.74 -0.47,-1.24 0,-0.51 0.15,-0.93 0.46,-1.26 0.3,-0.33 0.67,-0.49 1.11,-0.49 0.2,0 0.39,0.04 0.56,0.11 0.18,0.07 0.34,0.19 0.49,0.33l0 -0.37zm-0.88 0.68c-0.26,0 -0.47,0.09 -0.64,0.27 -0.17,0.18 -0.26,0.42 -0.26,0.7 0,0.29 0.09,0.52 0.26,0.71 0.17,0.18 0.39,0.28 0.64,0.28 0.26,0 0.48,-0.09 0.65,-0.27 0.17,-0.18 0.26,-0.42 0.26,-0.72 0,-0.29 -0.09,-0.52 -0.26,-0.7 -0.17,-0.18 -0.39,-0.27 -0.65,-0.27z"/>
  <path id="_22" class="fil0" d="M37.67 9.43l-0.69 0.38c-0.13,-0.14 -0.26,-0.23 -0.39,-0.28 -0.13,-0.05 -0.28,-0.08 -0.45,-0.08 -0.31,0 -0.56,0.09 -0.76,0.28 -0.19,0.19 -0.29,0.42 -0.29,0.71 0,0.28 0.09,0.51 0.28,0.69 0.19,0.18 0.43,0.27 0.73,0.27 0.37,0 0.66,-0.13 0.87,-0.38l0.66 0.45c-0.36,0.46 -0.86,0.69 -1.51,0.69 -0.59,0 -1.04,-0.17 -1.37,-0.52 -0.33,-0.35 -0.5,-0.75 -0.5,-1.21 0,-0.32 0.08,-0.62 0.24,-0.89 0.16,-0.27 0.39,-0.48 0.67,-0.64 0.29,-0.15 0.61,-0.23 0.97,-0.23 0.33,0 0.63,0.07 0.89,0.2 0.26,0.13 0.48,0.32 0.64,0.56z"/>
  <path id="_23" class="fil0" d="M41.74 10.65l-2.67 0c0.04,0.24 0.14,0.43 0.31,0.57 0.17,0.14 0.38,0.21 0.64,0.21 0.31,0 0.58,-0.11 0.8,-0.33l0.7 0.33c-0.17,0.25 -0.38,0.43 -0.63,0.55 -0.24,0.12 -0.53,0.18 -0.87,0.18 -0.52,0 -0.94,-0.16 -1.27,-0.49 -0.33,-0.33 -0.49,-0.74 -0.49,-1.23 0,-0.51 0.16,-0.93 0.49,-1.26 0.33,-0.33 0.74,-0.5 1.23,-0.5 0.52,0 0.95,0.17 1.28,0.5 0.33,0.33 0.49,0.77 0.49,1.32l-0 0.16zm-0.83 -0.65c-0.06,-0.18 -0.16,-0.33 -0.33,-0.44 -0.16,-0.11 -0.35,-0.17 -0.57,-0.17 -0.23,0 -0.44,0.06 -0.61,0.19 -0.11,0.08 -0.21,0.22 -0.31,0.42l1.81 0z"/>
  <polygon id="_24" class="fil0" points="45.4,12.08 44.56,12.08 43.72,9.98 42.87,12.08 42.02,12.08 43.44,8.76 43.98,8.76 "/>
  <path id="_25" class="fil0" d="M49.16 10.65l-2.67 0c0.04,0.24 0.14,0.43 0.31,0.57 0.17,0.14 0.38,0.21 0.64,0.21 0.31,0 0.58,-0.11 0.8,-0.33l0.7 0.33c-0.17,0.25 -0.38,0.43 -0.63,0.55 -0.24,0.12 -0.53,0.18 -0.87,0.18 -0.52,0 -0.94,-0.16 -1.27,-0.49 -0.33,-0.33 -0.49,-0.74 -0.49,-1.23 0,-0.51 0.16,-0.93 0.49,-1.26 0.33,-0.33 0.74,-0.5 1.23,-0.5 0.52,0 0.95,0.17 1.28,0.5 0.33,0.33 0.49,0.77 0.49,1.32l-0 0.16zm-0.83 -0.65c-0.06,-0.18 -0.16,-0.33 -0.33,-0.44 -0.16,-0.11 -0.35,-0.17 -0.57,-0.17 -0.23,0 -0.44,0.06 -0.61,0.19 -0.11,0.08 -0.21,0.22 -0.31,0.42l1.81 0z"/>
  <polygon id="_26" class="fil0" points="50.67,9.95 51.92,9.95 51.92,8.76 52.76,8.76 52.76,12.08 51.92,12.08 51.92,10.7 50.67,10.7 50.67,12.08 49.84,12.08 49.84,8.76 50.67,8.76 "/>
  <polygon id="_27" class="fil0" points="54.04,12.08 53.6,12.08 53.6,8.76 54.41,8.76 54.41,10.71 56.11,8.76 56.51,8.76 56.51,12.08 55.7,12.08 55.7,10.17 "/>
  <path id="_28" class="fil0" d="M57.92 10.71c-0.18,-0.06 -0.33,-0.17 -0.44,-0.33 -0.12,-0.16 -0.17,-0.35 -0.17,-0.55 0,-0.25 0.07,-0.46 0.21,-0.65 0.14,-0.19 0.31,-0.3 0.5,-0.35 0.2,-0.05 0.5,-0.07 0.91,-0.07l0.84 0 0 3.32 -0.83 0 0 -1.2 -0.16 0 -0.8 1.2 -0.99 0 0.92 -1.36zm1.02 -0.46l0 -0.8 -0.29 0c-0.32,0 -0.48,0.13 -0.48,0.4 0,0.27 0.18,0.4 0.53,0.4l0.24 0z"/>
 </g>
</svg>
