<?xml version="1.0" encoding="UTF-8"?>
<!DOCTYPE svg PUBLIC "-//W3C//DTD SVG 1.1//EN" "http://www.w3.org/Graphics/SVG/1.1/DTD/svg11.dtd">
<!-- Creator: CorelDRAW -->
<svg xmlns="http://www.w3.org/2000/svg" xml:space="preserve" width="61.3039mm" height="14.2687mm" version="1.1" style="shape-rendering:geometricPrecision; text-rendering:geometricPrecision; image-rendering:optimizeQuality; fill-rule:evenodd; clip-rule:evenodd"
viewBox="0 0 49.37 11.49"
 xmlns:xlink="http://www.w3.org/1999/xlink"
 xmlns:xodm="http://www.corel.com/coreldraw/odm/2003">
 <defs>
  <style type="text/css">
   <![CDATA[
    .fil0 {fill:#C29138;fill-rule:nonzero}
   ]]>
  </style>
 </defs>
 <g id="Слой_x0020_1">
  <metadata id="CorelCorpID_0Corel-Layer"/>
  <path class="fil0" d="M24.89 4.08l0 -4.08 0.64 0c0.37,0 0.65,0.02 0.82,0.07 0.25,0.07 0.44,0.19 0.59,0.36 0.14,0.18 0.22,0.38 0.22,0.62 0,0.16 -0.03,0.3 -0.1,0.42 -0.07,0.13 -0.17,0.25 -0.32,0.36 0.25,0.12 0.43,0.26 0.54,0.44 0.11,0.17 0.17,0.38 0.17,0.62 0,0.23 -0.06,0.44 -0.18,0.63 -0.12,0.19 -0.27,0.33 -0.46,0.42 -0.19,0.09 -0.45,0.14 -0.78,0.14l-1.15 0zm0.77 -3.34l0 0.86 0.17 0c0.19,0 0.34,-0.04 0.43,-0.12 0.09,-0.08 0.14,-0.19 0.14,-0.33 0,-0.13 -0.04,-0.23 -0.13,-0.3 -0.09,-0.07 -0.22,-0.11 -0.41,-0.11l-0.2 0zm0 1.56l0 1.05 0.2 0c0.33,0 0.55,-0.04 0.66,-0.12 0.11,-0.08 0.17,-0.2 0.17,-0.36 0,-0.18 -0.07,-0.31 -0.2,-0.42 -0.13,-0.1 -0.36,-0.15 -0.66,-0.15l-0.16 0z"/>
  <path id="_1" class="fil0" d="M28.86 2.15l0.23 0c0.32,0 0.56,0.02 0.73,0.07 0.17,0.05 0.31,0.15 0.43,0.31 0.12,0.16 0.18,0.35 0.18,0.58 0,0.23 -0.05,0.43 -0.16,0.58 -0.11,0.15 -0.24,0.26 -0.4,0.31 -0.16,0.05 -0.39,0.08 -0.69,0.08l-1.07 0 0 -3.02 0.76 0 0 1.09zm0 1.34l0.23 0c0.14,0 0.24,-0.01 0.3,-0.03 0.06,-0.02 0.11,-0.06 0.16,-0.11 0.05,-0.06 0.07,-0.12 0.07,-0.2 0,-0.26 -0.15,-0.39 -0.45,-0.39l-0.32 0 0 0.73zm2.09 -2.43l0.76 0 0 3.02 -0.76 0 0 -3.02z"/>
  <polygon id="_2" class="fil0" points="33.22,4.08 32.47,4.08 32.47,1.06 35.11,1.06 35.11,4.08 34.36,4.08 34.36,1.79 33.22,1.79 "/>
  <polygon id="_3" class="fil0" points="38.58,4.08 37.81,4.08 37.05,2.17 36.28,4.08 35.51,4.08 36.8,1.06 37.28,1.06 "/>
  <path id="_4" class="fil0" d="M41.21 1.06l0.76 0 0 3.02 -0.76 0 0 -0.32c-0.15,0.14 -0.3,0.24 -0.45,0.3 -0.15,0.06 -0.31,0.09 -0.48,0.09 -0.39,0 -0.73,-0.15 -1.01,-0.45 -0.28,-0.3 -0.43,-0.68 -0.43,-1.12 0,-0.46 0.14,-0.85 0.41,-1.14 0.28,-0.3 0.61,-0.44 1,-0.44 0.18,0 0.35,0.03 0.51,0.1 0.16,0.07 0.31,0.17 0.44,0.3l0 -0.33zm-0.8 0.62c-0.23,0 -0.43,0.08 -0.58,0.25 -0.16,0.16 -0.23,0.38 -0.23,0.64 0,0.26 0.08,0.47 0.24,0.64 0.16,0.17 0.35,0.25 0.58,0.25 0.24,0 0.44,-0.08 0.59,-0.25 0.16,-0.16 0.24,-0.38 0.24,-0.65 0,-0.26 -0.08,-0.47 -0.24,-0.64 -0.16,-0.16 -0.36,-0.24 -0.59,-0.24z"/>
  <polygon id="_5" class="fil0" points="42.46,1.06 45.27,1.06 45.27,1.78 44.26,1.78 44.26,4.08 43.51,4.08 43.51,1.78 42.46,1.78 "/>
  <path id="_6" class="fil0" d="M46.52 2.15l0.23 0c0.32,0 0.56,0.02 0.73,0.07 0.17,0.05 0.31,0.15 0.43,0.31 0.12,0.16 0.18,0.35 0.18,0.58 0,0.23 -0.05,0.43 -0.16,0.58 -0.11,0.15 -0.24,0.26 -0.4,0.31 -0.16,0.05 -0.39,0.08 -0.69,0.08l-1.07 0 0 -3.02 0.76 0 0 1.09zm0 1.34l0.23 0c0.14,0 0.24,-0.01 0.3,-0.03 0.06,-0.02 0.11,-0.06 0.16,-0.11 0.05,-0.06 0.07,-0.12 0.07,-0.2 0,-0.26 -0.15,-0.39 -0.45,-0.39l-0.32 0 0 0.73zm2.09 -2.43l0.76 0 0 3.02 -0.76 0 0 -3.02z"/>
  <path id="_7" class="fil0" d="M3.1 8.56l-0.63 0.35c-0.12,-0.12 -0.23,-0.21 -0.35,-0.26 -0.12,-0.05 -0.25,-0.07 -0.41,-0.07 -0.28,0 -0.51,0.08 -0.69,0.25 -0.18,0.17 -0.26,0.38 -0.26,0.65 0,0.26 0.08,0.46 0.25,0.63 0.17,0.16 0.39,0.24 0.66,0.24 0.34,0 0.6,-0.12 0.79,-0.35l0.6 0.41c-0.32,0.42 -0.78,0.63 -1.37,0.63 -0.53,0 -0.95,-0.16 -1.25,-0.47 -0.3,-0.31 -0.45,-0.68 -0.45,-1.1 0,-0.29 0.07,-0.56 0.22,-0.8 0.15,-0.25 0.35,-0.44 0.61,-0.58 0.26,-0.14 0.55,-0.21 0.88,-0.21 0.3,0 0.57,0.06 0.81,0.18 0.24,0.12 0.43,0.29 0.59,0.51z"/>
  <path id="_8" class="fil0" d="M6.8 9.67l-2.43 0c0.04,0.22 0.13,0.39 0.28,0.51 0.15,0.13 0.35,0.19 0.58,0.19 0.28,0 0.52,-0.1 0.73,-0.3l0.63 0.3c-0.16,0.23 -0.35,0.39 -0.57,0.5 -0.22,0.11 -0.48,0.16 -0.79,0.16 -0.47,0 -0.86,-0.15 -1.15,-0.45 -0.3,-0.3 -0.45,-0.67 -0.45,-1.12 0,-0.46 0.15,-0.84 0.45,-1.14 0.3,-0.3 0.67,-0.46 1.12,-0.46 0.47,0 0.86,0.15 1.16,0.45 0.3,0.3 0.45,0.7 0.45,1.2l-0 0.14zm-0.75 -0.59c-0.05,-0.16 -0.15,-0.3 -0.3,-0.4 -0.15,-0.1 -0.32,-0.15 -0.51,-0.15 -0.21,0 -0.4,0.06 -0.56,0.17 -0.1,0.07 -0.19,0.2 -0.28,0.38l1.64 0z"/>
  <polygon id="_9" class="fil0" points="9.27,9.85 10.21,7.95 10.7,7.95 11.46,10.97 10.72,10.97 10.31,9.2 9.41,10.97 9.1,10.97 8.22,9.2 7.81,10.97 7.08,10.97 7.83,7.95 8.33,7.95 "/>
  <path id="_10" class="fil0" d="M12.63 9.04l0.23 0c0.32,0 0.56,0.02 0.73,0.07 0.17,0.05 0.31,0.15 0.43,0.31 0.12,0.16 0.18,0.35 0.18,0.58 0,0.23 -0.05,0.43 -0.16,0.58 -0.11,0.15 -0.24,0.26 -0.4,0.31 -0.16,0.05 -0.39,0.08 -0.69,0.08l-1.07 0 0 -3.02 0.76 0 0 1.09zm0 1.34l0.23 0c0.14,0 0.24,-0.01 0.3,-0.03 0.06,-0.02 0.11,-0.06 0.16,-0.11 0.05,-0.06 0.07,-0.12 0.07,-0.2 0,-0.26 -0.15,-0.39 -0.45,-0.39l-0.32 0 0 0.73z"/>
  <path id="_11" class="fil0" d="M15.28 9.73c-0.16,-0.05 -0.3,-0.16 -0.4,-0.3 -0.11,-0.15 -0.16,-0.32 -0.16,-0.5 0,-0.22 0.06,-0.42 0.19,-0.59 0.13,-0.17 0.28,-0.27 0.46,-0.32 0.18,-0.04 0.45,-0.07 0.83,-0.07l0.77 0 0 3.02 -0.76 0 0 -1.09 -0.15 0 -0.72 1.09 -0.9 0 0.84 -1.24zm0.93 -0.42l0 -0.73 -0.27 0c-0.29,0 -0.43,0.12 -0.43,0.36 0,0.24 0.16,0.37 0.48,0.37l0.21 0z"/>
  <polygon id="_12" class="fil0" points="19.58,9.85 20.51,7.95 21.01,7.95 21.76,10.97 21.02,10.97 20.62,9.2 19.72,10.97 19.41,10.97 18.53,9.2 18.12,10.97 17.38,10.97 18.14,7.95 18.64,7.95 "/>
  <path id="_13" class="fil0" d="M26.72 8.56l-0.63 0.35c-0.12,-0.12 -0.23,-0.21 -0.35,-0.26 -0.12,-0.05 -0.25,-0.07 -0.41,-0.07 -0.28,0 -0.51,0.08 -0.69,0.25 -0.18,0.17 -0.26,0.38 -0.26,0.65 0,0.26 0.08,0.46 0.25,0.63 0.17,0.16 0.39,0.24 0.66,0.24 0.34,0 0.6,-0.12 0.79,-0.35l0.6 0.41c-0.32,0.42 -0.78,0.63 -1.37,0.63 -0.53,0 -0.95,-0.16 -1.25,-0.47 -0.3,-0.31 -0.45,-0.68 -0.45,-1.1 0,-0.29 0.07,-0.56 0.22,-0.8 0.15,-0.25 0.35,-0.44 0.61,-0.58 0.26,-0.14 0.55,-0.21 0.88,-0.21 0.3,0 0.57,0.06 0.81,0.18 0.24,0.12 0.43,0.29 0.59,0.51z"/>
  <path id="_14" class="fil0" d="M29.39 10.97l0 0.52 -0.68 0 0 -1.16 0.45 0 1.05 -2.37 0.49 0 1.05 2.37 0.46 0 0 1.16 -0.72 0 0 -0.52 -2.11 0zm1.56 -0.64l-0.5 -1.27 -0.52 1.27 1.01 0z"/>
  <path id="_15" class="fil0" d="M35.71 9.67l-2.43 0c0.04,0.22 0.13,0.39 0.28,0.51 0.15,0.13 0.35,0.19 0.58,0.19 0.28,0 0.52,-0.1 0.73,-0.3l0.63 0.3c-0.16,0.23 -0.35,0.39 -0.57,0.5 -0.22,0.11 -0.48,0.16 -0.79,0.16 -0.47,0 -0.86,-0.15 -1.15,-0.45 -0.3,-0.3 -0.45,-0.67 -0.45,-1.12 0,-0.46 0.15,-0.84 0.45,-1.14 0.3,-0.3 0.67,-0.46 1.12,-0.46 0.47,0 0.86,0.15 1.16,0.45 0.3,0.3 0.45,0.7 0.45,1.2l-0 0.14zm-0.75 -0.59c-0.05,-0.16 -0.15,-0.3 -0.3,-0.4 -0.15,-0.1 -0.32,-0.15 -0.51,-0.15 -0.21,0 -0.4,0.06 -0.56,0.17 -0.1,0.07 -0.19,0.2 -0.28,0.38l1.64 0z"/>
  <polygon id="_16" class="fil0" points="36.06,7.95 38.88,7.95 38.88,8.67 37.87,8.67 37.87,10.97 37.11,10.97 37.11,8.67 36.06,8.67 "/>
  <path id="_17" class="fil0" d="M40.13 9.04l0.23 0c0.32,0 0.56,0.02 0.73,0.07 0.17,0.05 0.31,0.15 0.43,0.31 0.12,0.16 0.18,0.35 0.18,0.58 0,0.23 -0.05,0.43 -0.16,0.58 -0.11,0.15 -0.24,0.26 -0.4,0.31 -0.16,0.05 -0.39,0.08 -0.69,0.08l-1.07 0 0 -3.02 0.76 0 0 1.09zm0 1.34l0.23 0c0.14,0 0.24,-0.01 0.3,-0.03 0.06,-0.02 0.11,-0.06 0.16,-0.11 0.05,-0.06 0.07,-0.12 0.07,-0.2 0,-0.26 -0.15,-0.39 -0.45,-0.39l-0.32 0 0 0.73z"/>
  <polygon id="_18" class="fil0" points="44.12,9.85 45.05,7.95 45.55,7.95 46.3,10.97 45.56,10.97 45.16,9.2 44.26,10.97 43.94,10.97 43.07,9.2 42.66,10.97 41.92,10.97 42.68,7.95 43.18,7.95 "/>
  <polygon id="_19" class="fil0" points="47.12,10.97 46.72,10.97 46.72,7.95 47.46,7.95 47.46,9.72 49,7.95 49.37,7.95 49.37,10.97 48.63,10.97 48.63,9.23 "/>
 </g>
</svg>
