<?xml version="1.0" encoding="UTF-8"?>
<!DOCTYPE svg PUBLIC "-//W3C//DTD SVG 1.1//EN" "http://www.w3.org/Graphics/SVG/1.1/DTD/svg11.dtd">
<!-- Creator: CorelDRAW -->
<svg xmlns="http://www.w3.org/2000/svg" xml:space="preserve" width="51.6669mm" height="15.2142mm" version="1.1" style="shape-rendering:geometricPrecision; text-rendering:geometricPrecision; image-rendering:optimizeQuality; fill-rule:evenodd; clip-rule:evenodd"
viewBox="0 0 34.97 10.3"
 xmlns:xlink="http://www.w3.org/1999/xlink"
 xmlns:xodm="http://www.corel.com/coreldraw/odm/2003">
 <defs>
  <style type="text/css">
   <![CDATA[
    .fil0 {fill:#C29138;fill-rule:nonzero}
   ]]>
  </style>
 </defs>
 <g id="Слой_x0020_1">
  <metadata id="CorelCorpID_0Corel-Layer"/>
  <polygon class="fil0" points="0.59,0.15 1.22,0.15 2.02,2.54 2.82,0.15 3.46,0.15 4.03,3.58 3.4,3.58 3.04,1.42 2.31,3.58 1.73,3.58 1.01,1.42 0.64,3.58 -0,3.58 "/>
  <path id="_1" class="fil0" d="M4.56 0.15l0.69 0c0.37,0 0.64,0.03 0.81,0.1 0.17,0.07 0.3,0.18 0.39,0.34 0.1,0.15 0.14,0.34 0.14,0.56 0,0.24 -0.06,0.44 -0.19,0.6 -0.12,0.16 -0.3,0.27 -0.51,0.33 -0.13,0.04 -0.36,0.05 -0.69,0.05l0 1.45 -0.65 0 0 -3.43zm0.65 1.34l0.21 0c0.16,0 0.28,-0.01 0.34,-0.03 0.06,-0.02 0.11,-0.06 0.15,-0.12 0.04,-0.05 0.05,-0.12 0.05,-0.2 0,-0.13 -0.05,-0.23 -0.16,-0.29 -0.07,-0.05 -0.21,-0.07 -0.42,-0.07l-0.19 0 0 0.71z"/>
  <path id="_2" class="fil0" d="M8.85 0.07c0.48,0 0.9,0.18 1.25,0.53 0.35,0.35 0.52,0.78 0.52,1.28 0,0.5 -0.17,0.92 -0.52,1.27 -0.34,0.35 -0.76,0.52 -1.25,0.52 -0.51,0 -0.94,-0.18 -1.28,-0.53 -0.34,-0.36 -0.51,-0.78 -0.51,-1.27 0,-0.33 0.08,-0.63 0.24,-0.9 0.16,-0.27 0.38,-0.49 0.65,-0.65 0.28,-0.16 0.58,-0.24 0.9,-0.24zm-0.01 0.64c-0.32,0 -0.58,0.11 -0.8,0.33 -0.22,0.22 -0.32,0.5 -0.32,0.84 0,0.38 0.14,0.68 0.41,0.9 0.21,0.17 0.45,0.26 0.73,0.26 0.31,0 0.57,-0.11 0.79,-0.34 0.22,-0.22 0.33,-0.5 0.33,-0.83 0,-0.33 -0.11,-0.6 -0.33,-0.83 -0.22,-0.23 -0.48,-0.34 -0.8,-0.34z"/>
  <polygon id="_3" class="fil0" points="10.91,0.15 12.81,0.15 12.81,0.8 12.18,0.8 12.18,3.58 11.52,3.58 11.52,0.8 10.91,0.8 "/>
  <polygon id="_4" class="fil0" points="15.15,1.96 16.11,1.96 16.11,1.05 16.74,1.05 16.74,3.58 16.11,3.58 16.11,2.53 15.15,2.53 15.15,3.58 14.52,3.58 14.52,1.05 15.15,1.05 "/>
  <path id="_5" class="fil0" d="M19.26 1.05l0.64 0 0 2.54 -0.64 0 0 -0.27c-0.12,0.12 -0.25,0.2 -0.37,0.25 -0.12,0.05 -0.26,0.08 -0.41,0.08 -0.33,0 -0.61,-0.13 -0.85,-0.38 -0.24,-0.25 -0.36,-0.57 -0.36,-0.94 0,-0.39 0.12,-0.71 0.35,-0.96 0.23,-0.25 0.51,-0.37 0.84,-0.37 0.15,0 0.3,0.03 0.43,0.09 0.13,0.06 0.26,0.14 0.37,0.26l0 -0.28zm-0.67 0.52c-0.2,0 -0.36,0.07 -0.49,0.21 -0.13,0.14 -0.2,0.32 -0.2,0.53 0,0.22 0.07,0.4 0.2,0.54 0.13,0.14 0.3,0.21 0.49,0.21 0.2,0 0.37,-0.07 0.5,-0.21 0.13,-0.14 0.2,-0.32 0.2,-0.55 0,-0.22 -0.07,-0.4 -0.2,-0.54 -0.13,-0.14 -0.3,-0.2 -0.5,-0.2z"/>
  <path id="_6" class="fil0" d="M22.38 1.26l-0.64 0c0.02,-0.37 0.13,-0.66 0.35,-0.87 0.21,-0.21 0.49,-0.32 0.83,-0.32 0.21,0 0.39,0.04 0.55,0.13 0.16,0.09 0.29,0.21 0.38,0.38 0.1,0.17 0.14,0.33 0.14,0.51 0,0.2 -0.06,0.42 -0.17,0.66 -0.12,0.23 -0.33,0.51 -0.64,0.83l-0.38 0.41 1.22 0 0 0.6 -2.38 0 0 -0.31 1.06 -1.08c0.26,-0.26 0.43,-0.47 0.51,-0.63 0.09,-0.16 0.13,-0.3 0.13,-0.43 0,-0.13 -0.04,-0.24 -0.13,-0.33 -0.09,-0.09 -0.2,-0.13 -0.34,-0.13 -0.14,0 -0.26,0.05 -0.35,0.16 -0.09,0.1 -0.14,0.25 -0.15,0.43z"/>
  <path id="_7" class="fil0" d="M25.55 0.07c0.25,0 0.47,0.06 0.65,0.18 0.18,0.12 0.32,0.31 0.42,0.56 0.1,0.25 0.15,0.6 0.15,1.05 0,0.46 -0.05,0.81 -0.15,1.06 -0.1,0.25 -0.23,0.44 -0.4,0.56 -0.17,0.12 -0.38,0.18 -0.64,0.18 -0.26,0 -0.47,-0.06 -0.65,-0.18 -0.18,-0.12 -0.31,-0.3 -0.41,-0.55 -0.1,-0.24 -0.15,-0.59 -0.15,-1.04 0,-0.63 0.1,-1.08 0.29,-1.37 0.22,-0.31 0.52,-0.47 0.9,-0.47zm0.02 0.62c-0.11,0 -0.21,0.03 -0.29,0.11 -0.09,0.07 -0.15,0.19 -0.2,0.36 -0.04,0.17 -0.07,0.42 -0.07,0.76 0,0.43 0.05,0.73 0.15,0.9 0.1,0.16 0.24,0.25 0.4,0.25 0.16,0 0.28,-0.08 0.37,-0.23 0.11,-0.19 0.17,-0.51 0.17,-0.95 0,-0.45 -0.05,-0.76 -0.15,-0.93 -0.1,-0.17 -0.23,-0.26 -0.39,-0.26z"/>
  <polygon id="_8" class="fil0" points="27.53,2.94 27.99,3.17 27.41,4.15 27.09,4 "/>
  <path id="_9" class="fil0" d="M29.62 0.07l0.55 0.28 -0.6 1.17c0.29,0 0.54,0.1 0.74,0.31 0.2,0.21 0.31,0.47 0.31,0.78 0,0.3 -0.1,0.55 -0.31,0.76 -0.21,0.21 -0.46,0.31 -0.76,0.31 -0.31,0 -0.57,-0.11 -0.77,-0.32 -0.21,-0.21 -0.31,-0.46 -0.31,-0.74 0,-0.11 0.02,-0.21 0.05,-0.32 0.03,-0.11 0.11,-0.27 0.22,-0.5l0.88 -1.72zm-0.08 2.06c-0.12,0 -0.22,0.04 -0.31,0.13 -0.08,0.09 -0.12,0.2 -0.12,0.33 0,0.13 0.04,0.24 0.13,0.33 0.09,0.09 0.19,0.14 0.3,0.14 0.12,0 0.23,-0.04 0.31,-0.13 0.09,-0.09 0.13,-0.2 0.13,-0.34 0,-0.13 -0.04,-0.24 -0.13,-0.33 -0.08,-0.09 -0.19,-0.13 -0.32,-0.13z"/>
  <path id="_10" class="fil0" d="M34.06 0l0.47 0 -2.72 3.82 -0.47 0 2.33 -3.28c-0.14,0.02 -0.27,0.04 -0.39,0.05 -0.12,0.01 -0.24,0.02 -0.34,0.02 -0.11,0 -0.22,-0.01 -0.34,-0.02 0.03,0.11 0.05,0.21 0.05,0.3 0,0.23 -0.08,0.42 -0.24,0.58 -0.16,0.16 -0.35,0.24 -0.58,0.24 -0.23,0 -0.42,-0.08 -0.58,-0.24 -0.16,-0.16 -0.24,-0.35 -0.24,-0.58 0,-0.15 0.04,-0.28 0.11,-0.41 0.07,-0.12 0.17,-0.23 0.3,-0.3 0.13,-0.08 0.26,-0.12 0.39,-0.12 0.1,0 0.23,0.02 0.4,0.06 0.3,0.06 0.56,0.1 0.79,0.1 0.21,0 0.4,-0.02 0.58,-0.05 0.18,-0.04 0.34,-0.09 0.49,-0.16zm-2.23 0.49c-0.11,0 -0.2,0.04 -0.28,0.12 -0.08,0.08 -0.12,0.17 -0.12,0.28 0,0.11 0.04,0.2 0.12,0.28 0.08,0.08 0.17,0.12 0.28,0.12 0.11,0 0.2,-0.04 0.28,-0.12 0.08,-0.08 0.12,-0.17 0.12,-0.28 0,-0.11 -0.04,-0.2 -0.12,-0.28 -0.08,-0.08 -0.17,-0.11 -0.28,-0.11zm2.27 1.55c0.23,0 0.42,0.08 0.58,0.24 0.16,0.16 0.24,0.35 0.24,0.58 0,0.23 -0.08,0.42 -0.24,0.58 -0.16,0.16 -0.35,0.24 -0.58,0.24 -0.23,0 -0.42,-0.08 -0.58,-0.24 -0.16,-0.16 -0.24,-0.35 -0.24,-0.58 0,-0.23 0.08,-0.42 0.24,-0.58 0.16,-0.16 0.35,-0.24 0.58,-0.24zm0 0.43c-0.11,0 -0.2,0.04 -0.28,0.12 -0.08,0.08 -0.12,0.17 -0.12,0.28 0,0.11 0.04,0.2 0.12,0.28 0.08,0.08 0.17,0.12 0.28,0.12 0.11,0 0.2,-0.04 0.28,-0.12 0.08,-0.08 0.12,-0.17 0.12,-0.28 0,-0.11 -0.04,-0.2 -0.12,-0.28 -0.08,-0.08 -0.17,-0.12 -0.28,-0.12z"/>
  <path id="_11" class="fil0" d="M8.57 9.37l0 -2.54 1.02 0c0.33,0 0.56,0.07 0.68,0.2 0.12,0.13 0.18,0.28 0.18,0.45 0,0.25 -0.12,0.43 -0.37,0.53 0.33,0.12 0.5,0.33 0.5,0.65 0,0.17 -0.04,0.31 -0.13,0.43 -0.09,0.11 -0.2,0.19 -0.34,0.23 -0.14,0.04 -0.33,0.06 -0.57,0.06l-0.98 0zm0.64 -1.54l0.25 0c0.11,0 0.19,-0.03 0.24,-0.08 0.06,-0.05 0.09,-0.11 0.09,-0.17 0,-0.09 -0.03,-0.17 -0.08,-0.22 -0.05,-0.05 -0.12,-0.08 -0.2,-0.08l-0.08 0 -0.22 0 0 0.55zm0 1.05l0.32 0c0.13,0 0.21,-0.03 0.27,-0.09 0.05,-0.06 0.08,-0.11 0.08,-0.17 0,-0.08 -0.03,-0.16 -0.09,-0.22 -0.06,-0.07 -0.16,-0.1 -0.31,-0.1l-0.27 0 0 0.58z"/>
  <path id="_12" class="fil0" d="M12.97 7.05l-0.64 0c0.02,-0.37 0.13,-0.66 0.35,-0.87 0.21,-0.21 0.49,-0.32 0.83,-0.32 0.21,0 0.39,0.04 0.55,0.13 0.16,0.09 0.29,0.21 0.38,0.38 0.1,0.17 0.14,0.33 0.14,0.51 0,0.2 -0.06,0.42 -0.17,0.66 -0.12,0.23 -0.33,0.51 -0.64,0.83l-0.38 0.41 1.22 0 0 0.6 -2.38 0 0 -0.31 1.06 -1.08c0.26,-0.26 0.43,-0.47 0.51,-0.63 0.09,-0.16 0.13,-0.3 0.13,-0.43 0,-0.13 -0.04,-0.24 -0.13,-0.33 -0.09,-0.09 -0.2,-0.13 -0.34,-0.13 -0.14,0 -0.26,0.05 -0.35,0.16 -0.09,0.1 -0.14,0.25 -0.15,0.43z"/>
  <path id="_13" class="fil0" d="M16.14 5.86c0.25,0 0.47,0.06 0.65,0.18 0.18,0.12 0.32,0.31 0.42,0.56 0.1,0.25 0.15,0.6 0.15,1.05 0,0.46 -0.05,0.81 -0.15,1.06 -0.1,0.25 -0.23,0.44 -0.4,0.56 -0.17,0.12 -0.38,0.18 -0.64,0.18 -0.26,0 -0.47,-0.06 -0.65,-0.18 -0.18,-0.12 -0.31,-0.3 -0.41,-0.55 -0.1,-0.24 -0.15,-0.59 -0.15,-1.04 0,-0.63 0.1,-1.08 0.29,-1.37 0.22,-0.31 0.52,-0.47 0.9,-0.47zm0.02 0.62c-0.11,0 -0.21,0.03 -0.29,0.11 -0.09,0.07 -0.15,0.19 -0.2,0.36 -0.04,0.17 -0.07,0.42 -0.07,0.76 0,0.43 0.05,0.73 0.15,0.9 0.1,0.16 0.24,0.25 0.4,0.25 0.16,0 0.28,-0.08 0.37,-0.23 0.11,-0.19 0.17,-0.51 0.17,-0.95 0,-0.45 -0.05,-0.76 -0.15,-0.93 -0.1,-0.17 -0.23,-0.26 -0.39,-0.26z"/>
  <path id="_14" class="fil0" d="M18.32 7.05l-0.64 0c0.02,-0.37 0.13,-0.66 0.35,-0.87 0.21,-0.21 0.49,-0.32 0.83,-0.32 0.21,0 0.39,0.04 0.55,0.13 0.16,0.09 0.29,0.21 0.38,0.38 0.1,0.17 0.14,0.33 0.14,0.51 0,0.2 -0.06,0.42 -0.17,0.66 -0.12,0.23 -0.33,0.51 -0.64,0.83l-0.38 0.41 1.22 0 0 0.6 -2.38 0 0 -0.31 1.06 -1.08c0.26,-0.26 0.43,-0.47 0.51,-0.63 0.09,-0.16 0.13,-0.3 0.13,-0.43 0,-0.13 -0.04,-0.24 -0.13,-0.33 -0.09,-0.09 -0.2,-0.13 -0.34,-0.13 -0.14,0 -0.26,0.05 -0.35,0.16 -0.09,0.1 -0.14,0.25 -0.15,0.43z"/>
  <path id="_15" class="fil0" d="M21.55 5.86l0.55 0.28 -0.6 1.17c0.29,0 0.54,0.1 0.74,0.31 0.2,0.21 0.31,0.47 0.31,0.78 0,0.3 -0.1,0.55 -0.31,0.76 -0.21,0.21 -0.46,0.31 -0.76,0.31 -0.31,0 -0.57,-0.11 -0.77,-0.32 -0.21,-0.21 -0.31,-0.46 -0.31,-0.74 0,-0.11 0.02,-0.21 0.05,-0.32 0.03,-0.11 0.11,-0.27 0.22,-0.5l0.88 -1.72zm-0.08 2.06c-0.12,0 -0.22,0.04 -0.31,0.13 -0.08,0.09 -0.12,0.2 -0.12,0.33 0,0.13 0.04,0.24 0.13,0.33 0.09,0.09 0.19,0.14 0.3,0.14 0.12,0 0.23,-0.04 0.31,-0.13 0.09,-0.09 0.13,-0.2 0.13,-0.34 0,-0.13 -0.04,-0.24 -0.13,-0.33 -0.08,-0.09 -0.19,-0.13 -0.32,-0.13z"/>
  <polygon id="_16" class="fil0" points="24.49,6.84 25.97,6.84 25.97,7.44 25.13,7.44 25.13,9.37 24.49,9.37 "/>
  <path id="_17" class="fil0" d="M27.6 6.77c0.24,0 0.46,0.06 0.68,0.18 0.21,0.12 0.38,0.28 0.49,0.49 0.12,0.21 0.18,0.43 0.18,0.66 0,0.24 -0.06,0.46 -0.18,0.67 -0.12,0.21 -0.28,0.37 -0.49,0.49 -0.21,0.12 -0.43,0.18 -0.68,0.18 -0.36,0 -0.68,-0.13 -0.93,-0.39 -0.26,-0.26 -0.39,-0.57 -0.39,-0.94 0,-0.4 0.15,-0.73 0.44,-0.99 0.26,-0.23 0.55,-0.34 0.88,-0.34zm0.01 0.6c-0.2,0 -0.36,0.07 -0.49,0.21 -0.13,0.14 -0.2,0.31 -0.2,0.53 0,0.22 0.07,0.4 0.2,0.53 0.13,0.14 0.29,0.2 0.49,0.2 0.2,0 0.36,-0.07 0.5,-0.21 0.13,-0.14 0.2,-0.32 0.2,-0.53 0,-0.22 -0.07,-0.39 -0.2,-0.53 -0.13,-0.14 -0.3,-0.2 -0.5,-0.2z"/>
  <path id="_18" class="fil0" d="M29.79 9.37l0 0.44 -0.57 0 0 -0.98 0.38 0 0.88 -2 0.41 0 0.89 2 0.39 0 0 0.98 -0.61 0 0 -0.44 -1.77 0zm1.31 -0.54l-0.42 -1.07 -0.44 1.07 0.85 0z"/>
  <polygon id="_19" class="fil0" points="32.29,6.84 32.94,6.84 33.59,8.42 34.32,6.84 34.97,6.84 33.39,10.3 32.74,10.3 33.25,9.18 "/>
 </g>
</svg>
