<?xml version="1.0" encoding="UTF-8"?>
<!DOCTYPE svg PUBLIC "-//W3C//DTD SVG 1.1//EN" "http://www.w3.org/Graphics/SVG/1.1/DTD/svg11.dtd">
<!-- Creator: CorelDRAW -->
<svg xmlns="http://www.w3.org/2000/svg" xml:space="preserve" width="58.5145mm" height="15.1154mm" version="1.1" style="shape-rendering:geometricPrecision; text-rendering:geometricPrecision; image-rendering:optimizeQuality; fill-rule:evenodd; clip-rule:evenodd"
viewBox="0 0 44.94 11.61"
 xmlns:xlink="http://www.w3.org/1999/xlink"
 xmlns:xodm="http://www.corel.com/coreldraw/odm/2003">
 <defs>
  <style type="text/css">
   <![CDATA[
    .fil0 {fill:#C29138;fill-rule:nonzero}
   ]]>
  </style>
 </defs>
 <g id="Слой_x0020_1">
  <metadata id="CorelCorpID_0Corel-Layer"/>
  <polygon class="fil0" points="0.38,3.99 -0,3.99 -0,1.11 0.7,1.11 0.7,2.8 2.18,1.11 2.53,1.11 2.53,3.99 1.82,3.99 1.82,2.33 "/>
  <path id="_1" class="fil0" d="M3.73 2.77l0 -0.51 0.14 0c0.1,0 0.18,-0.02 0.25,-0.07 0.07,-0.05 0.11,-0.12 0.11,-0.22 0,-0.09 -0.03,-0.16 -0.1,-0.22 -0.06,-0.06 -0.14,-0.08 -0.24,-0.08 -0.12,0 -0.27,0.06 -0.45,0.17l-0.28 -0.5c0.25,-0.2 0.53,-0.3 0.83,-0.3 0.28,0 0.51,0.07 0.7,0.22 0.18,0.15 0.28,0.34 0.28,0.59 0,0.25 -0.13,0.45 -0.4,0.61 0.36,0.13 0.54,0.37 0.54,0.72 0,0.26 -0.1,0.47 -0.3,0.64 -0.2,0.17 -0.48,0.25 -0.84,0.25 -0.39,0 -0.71,-0.11 -0.97,-0.33l0.4 -0.5c0.17,0.13 0.33,0.19 0.49,0.19 0.12,0 0.22,-0.03 0.3,-0.09 0.07,-0.06 0.11,-0.13 0.11,-0.23 0,-0.09 -0.03,-0.17 -0.1,-0.23 -0.07,-0.07 -0.16,-0.1 -0.28,-0.1l-0.19 0z"/>
  <polygon id="_2" class="fil0" points="7.46,2.93 8.35,1.11 8.82,1.11 9.54,3.99 8.83,3.99 8.45,2.3 7.59,3.99 7.29,3.99 6.45,2.3 6.07,3.99 5.36,3.99 6.08,1.11 6.56,1.11 "/>
  <path id="_3" class="fil0" d="M12.81 2.75l-2.32 0c0.03,0.21 0.12,0.37 0.27,0.49 0.14,0.12 0.33,0.18 0.55,0.18 0.27,0 0.5,-0.09 0.69,-0.28l0.61 0.29c-0.15,0.21 -0.33,0.37 -0.54,0.48 -0.21,0.1 -0.46,0.15 -0.75,0.15 -0.45,0 -0.82,-0.14 -1.1,-0.43 -0.28,-0.28 -0.42,-0.64 -0.42,-1.07 0,-0.44 0.14,-0.8 0.42,-1.09 0.28,-0.29 0.64,-0.43 1.06,-0.43 0.45,0 0.82,0.14 1.1,0.43 0.28,0.29 0.43,0.67 0.43,1.14l-0 0.14zm-0.72 -0.56c-0.05,-0.16 -0.14,-0.29 -0.28,-0.38 -0.14,-0.1 -0.3,-0.15 -0.49,-0.15 -0.2,0 -0.38,0.06 -0.53,0.17 -0.09,0.07 -0.18,0.19 -0.26,0.36l1.57 0z"/>
  <polygon id="_4" class="fil0" points="14.12,2.15 15.21,2.15 15.21,1.11 15.93,1.11 15.93,3.99 15.21,3.99 15.21,2.8 14.12,2.8 14.12,3.99 13.4,3.99 13.4,1.11 14.12,1.11 "/>
  <polygon id="_5" class="fil0" points="17.04,3.99 16.66,3.99 16.66,1.11 17.36,1.11 17.36,2.8 18.83,1.11 19.18,1.11 19.18,3.99 18.48,3.99 18.48,2.33 "/>
  <polygon id="_6" class="fil0" points="19.65,1.11 22.34,1.11 22.34,1.8 21.38,1.8 21.38,3.99 20.66,3.99 20.66,1.8 19.65,1.8 "/>
  <path id="_7" class="fil0" d="M25.63 1.7l-0.6 0.33c-0.11,-0.12 -0.22,-0.2 -0.33,-0.25 -0.11,-0.05 -0.24,-0.07 -0.39,-0.07 -0.27,0 -0.49,0.08 -0.65,0.24 -0.17,0.16 -0.25,0.37 -0.25,0.62 0,0.24 0.08,0.44 0.24,0.6 0.16,0.15 0.37,0.23 0.63,0.23 0.32,0 0.57,-0.11 0.75,-0.33l0.57 0.39c-0.31,0.4 -0.74,0.6 -1.31,0.6 -0.51,0 -0.9,-0.15 -1.19,-0.45 -0.29,-0.3 -0.43,-0.65 -0.43,-1.05 0,-0.28 0.07,-0.53 0.21,-0.77 0.14,-0.23 0.33,-0.42 0.58,-0.55 0.25,-0.13 0.53,-0.2 0.84,-0.2 0.29,0 0.54,0.06 0.77,0.17 0.23,0.11 0.41,0.28 0.56,0.48z"/>
  <path id="_8" class="fil0" d="M26.77 2.81c-0.16,-0.05 -0.28,-0.15 -0.38,-0.29 -0.1,-0.14 -0.15,-0.3 -0.15,-0.48 0,-0.21 0.06,-0.4 0.18,-0.56 0.12,-0.16 0.27,-0.26 0.44,-0.3 0.17,-0.04 0.43,-0.06 0.79,-0.06l0.73 0 0 2.88 -0.72 0 0 -1.04 -0.14 0 -0.69 1.04 -0.86 0 0.8 -1.18zm0.89 -0.4l0 -0.69 -0.25 0c-0.28,0 -0.41,0.11 -0.41,0.35 0,0.23 0.15,0.35 0.46,0.35l0.2 0z"/>
  <polygon id="_9" class="fil0" points="31.07,0.1 31.79,0.1 32.69,2.81 33.6,0.1 34.32,0.1 34.97,3.99 34.26,3.99 33.84,1.53 33.02,3.99 32.37,3.99 31.55,1.53 31.12,3.99 30.4,3.99 "/>
  <path id="_10" class="fil0" d="M35.57 0.1l0.79 0c0.43,0 0.73,0.04 0.92,0.12 0.19,0.08 0.34,0.21 0.45,0.38 0.11,0.18 0.16,0.39 0.16,0.63 0,0.27 -0.07,0.5 -0.21,0.68 -0.14,0.18 -0.33,0.31 -0.58,0.38 -0.14,0.04 -0.4,0.06 -0.78,0.06l0 1.65 -0.74 0 0 -3.89zm0.74 1.52l0.24 0c0.19,0 0.32,-0.01 0.39,-0.04 0.07,-0.03 0.13,-0.07 0.17,-0.13 0.04,-0.06 0.06,-0.14 0.06,-0.22 0,-0.15 -0.06,-0.26 -0.18,-0.33 -0.08,-0.05 -0.24,-0.08 -0.47,-0.08l-0.21 0 0 0.8z"/>
  <path id="_11" class="fil0" d="M40.44 0c0.55,0 1.02,0.2 1.42,0.6 0.4,0.4 0.59,0.88 0.59,1.46 0,0.57 -0.2,1.05 -0.59,1.44 -0.39,0.39 -0.86,0.59 -1.42,0.59 -0.58,0 -1.07,-0.2 -1.45,-0.61 -0.39,-0.4 -0.58,-0.88 -0.58,-1.44 0,-0.37 0.09,-0.71 0.27,-1.03 0.18,-0.31 0.43,-0.56 0.74,-0.74 0.32,-0.18 0.65,-0.27 1.02,-0.27zm-0.01 0.73c-0.36,0 -0.66,0.13 -0.9,0.38 -0.24,0.25 -0.37,0.57 -0.37,0.95 0,0.43 0.15,0.77 0.46,1.02 0.24,0.2 0.51,0.29 0.82,0.29 0.35,0 0.65,-0.13 0.89,-0.38 0.25,-0.25 0.37,-0.57 0.37,-0.94 0,-0.37 -0.12,-0.68 -0.37,-0.94 -0.25,-0.26 -0.55,-0.38 -0.9,-0.38z"/>
  <polygon id="_12" class="fil0" points="42.78,0.1 44.93,0.1 44.93,0.83 44.22,0.83 44.22,3.99 43.47,3.99 43.47,0.83 42.78,0.83 "/>
  <path id="_13" class="fil0" d="M14.98 10.56l0 -2.88 1.16 0c0.38,0 0.64,0.07 0.77,0.22 0.14,0.15 0.2,0.32 0.2,0.51 0,0.28 -0.14,0.48 -0.42,0.61 0.38,0.13 0.57,0.38 0.57,0.74 0,0.2 -0.05,0.36 -0.15,0.48 -0.1,0.13 -0.23,0.21 -0.38,0.26 -0.15,0.04 -0.37,0.06 -0.65,0.06l-1.11 0zm0.72 -1.74l0.28 0c0.12,0 0.21,-0.03 0.28,-0.09 0.07,-0.06 0.1,-0.12 0.1,-0.2 0,-0.11 -0.03,-0.19 -0.09,-0.25 -0.06,-0.06 -0.14,-0.09 -0.22,-0.09l-0.09 0 -0.25 0 0 0.62zm0 1.19l0.37 0c0.14,0 0.24,-0.03 0.3,-0.1 0.06,-0.07 0.09,-0.13 0.09,-0.19 0,-0.09 -0.03,-0.18 -0.1,-0.25 -0.06,-0.08 -0.18,-0.12 -0.35,-0.12l-0.3 0 0 0.66z"/>
  <path id="_14" class="fil0" d="M19.97 7.92l-0.72 0c0.02,-0.42 0.15,-0.75 0.4,-0.99 0.24,-0.24 0.56,-0.36 0.94,-0.36 0.24,0 0.45,0.05 0.63,0.15 0.18,0.1 0.33,0.24 0.43,0.43 0.11,0.19 0.16,0.38 0.16,0.57 0,0.23 -0.07,0.48 -0.2,0.75 -0.13,0.27 -0.37,0.58 -0.72,0.94l-0.44 0.46 1.39 0 0 0.68 -2.7 0 0 -0.35 1.2 -1.23c0.29,-0.29 0.48,-0.53 0.58,-0.71 0.1,-0.18 0.14,-0.34 0.14,-0.48 0,-0.15 -0.05,-0.27 -0.15,-0.37 -0.1,-0.1 -0.23,-0.15 -0.38,-0.15 -0.16,0 -0.29,0.06 -0.4,0.18 -0.11,0.12 -0.16,0.28 -0.17,0.48z"/>
  <path id="_15" class="fil0" d="M23.57 6.57c0.28,0 0.53,0.07 0.73,0.21 0.21,0.14 0.36,0.35 0.48,0.64 0.11,0.29 0.17,0.69 0.17,1.2 0,0.52 -0.06,0.92 -0.17,1.21 -0.11,0.29 -0.27,0.5 -0.46,0.63 -0.19,0.13 -0.43,0.2 -0.73,0.2 -0.29,0 -0.54,-0.07 -0.74,-0.2 -0.2,-0.14 -0.36,-0.34 -0.47,-0.62 -0.11,-0.28 -0.17,-0.67 -0.17,-1.18 0,-0.71 0.11,-1.23 0.33,-1.55 0.24,-0.35 0.59,-0.53 1.02,-0.53zm0.02 0.7c-0.12,0 -0.23,0.04 -0.33,0.12 -0.1,0.08 -0.17,0.22 -0.22,0.41 -0.05,0.2 -0.08,0.48 -0.08,0.86 0,0.49 0.06,0.83 0.18,1.02 0.12,0.19 0.27,0.28 0.45,0.28 0.18,0 0.32,-0.09 0.43,-0.27 0.13,-0.21 0.19,-0.57 0.19,-1.08 0,-0.51 -0.06,-0.86 -0.17,-1.05 -0.11,-0.19 -0.26,-0.29 -0.45,-0.29z"/>
  <path id="_16" class="fil0" d="M26.04 7.92l-0.72 0c0.02,-0.42 0.15,-0.75 0.4,-0.99 0.24,-0.24 0.56,-0.36 0.94,-0.36 0.24,0 0.45,0.05 0.63,0.15 0.18,0.1 0.33,0.24 0.43,0.43 0.11,0.19 0.16,0.38 0.16,0.57 0,0.23 -0.07,0.48 -0.2,0.75 -0.13,0.27 -0.37,0.58 -0.72,0.94l-0.44 0.46 1.39 0 0 0.68 -2.7 0 0 -0.35 1.2 -1.23c0.29,-0.29 0.48,-0.53 0.58,-0.71 0.1,-0.18 0.14,-0.34 0.14,-0.48 0,-0.15 -0.05,-0.27 -0.15,-0.37 -0.1,-0.1 -0.23,-0.15 -0.38,-0.15 -0.16,0 -0.29,0.06 -0.4,0.18 -0.11,0.12 -0.16,0.28 -0.17,0.48z"/>
  <path id="_17" class="fil0" d="M29.04 6.67l1.82 0 0 0.68 -1.27 0 -0.16 0.71c0.04,-0.01 0.09,-0.02 0.13,-0.03 0.04,-0.01 0.08,-0.01 0.12,-0.01 0.35,0 0.65,0.12 0.88,0.36 0.23,0.24 0.35,0.55 0.35,0.92 0,0.38 -0.13,0.7 -0.39,0.96 -0.26,0.26 -0.57,0.39 -0.94,0.39 -0.33,0 -0.62,-0.09 -0.86,-0.28 -0.24,-0.19 -0.39,-0.45 -0.47,-0.78l0.78 0c0.06,0.12 0.14,0.21 0.24,0.28 0.1,0.06 0.2,0.09 0.32,0.09 0.16,0 0.3,-0.06 0.42,-0.18 0.11,-0.12 0.17,-0.27 0.17,-0.45 0,-0.18 -0.05,-0.33 -0.16,-0.44 -0.11,-0.11 -0.24,-0.17 -0.39,-0.17 -0.08,0 -0.16,0.02 -0.24,0.06 -0.08,0.04 -0.16,0.1 -0.23,0.18l-0.6 -0.14 0.47 -2.16z"/>
  <polygon id="_18" class="fil0" points="33.05,7.68 34.73,7.68 34.73,8.37 33.77,8.37 33.77,10.56 33.05,10.56 "/>
  <path id="_19" class="fil0" d="M36.57 7.61c0.27,0 0.53,0.07 0.77,0.2 0.24,0.14 0.43,0.32 0.56,0.55 0.13,0.23 0.2,0.48 0.2,0.75 0,0.27 -0.07,0.52 -0.2,0.76 -0.14,0.24 -0.32,0.42 -0.55,0.55 -0.23,0.13 -0.49,0.2 -0.77,0.2 -0.41,0 -0.77,-0.15 -1.06,-0.44 -0.29,-0.29 -0.44,-0.65 -0.44,-1.07 0,-0.45 0.17,-0.82 0.5,-1.12 0.29,-0.26 0.62,-0.39 1,-0.39zm0.01 0.68c-0.22,0 -0.41,0.08 -0.56,0.23 -0.15,0.16 -0.22,0.35 -0.22,0.6 0,0.25 0.07,0.45 0.22,0.61 0.15,0.15 0.33,0.23 0.56,0.23 0.23,0 0.41,-0.08 0.56,-0.23 0.15,-0.16 0.22,-0.36 0.22,-0.6 0,-0.25 -0.07,-0.45 -0.22,-0.6 -0.15,-0.15 -0.34,-0.23 -0.57,-0.23z"/>
  <path id="_20" class="fil0" d="M39.06 10.56l0 0.5 -0.64 0 0 -1.11 0.43 0 1 -2.26 0.47 0 1 2.26 0.44 0 0 1.11 -0.69 0 0 -0.5 -2.01 0zm1.49 -0.61l-0.47 -1.22 -0.49 1.22 0.97 0z"/>
  <polygon id="_21" class="fil0" points="41.89,7.68 42.63,7.68 43.37,9.48 44.2,7.68 44.94,7.68 43.14,11.61 42.4,11.61 42.98,10.34 "/>
 </g>
</svg>
