<?xml version="1.0" encoding="UTF-8"?>
<!DOCTYPE svg PUBLIC "-//W3C//DTD SVG 1.1//EN" "http://www.w3.org/Graphics/SVG/1.1/DTD/svg11.dtd">
<!-- Creator: CorelDRAW 2019 (64-Bit) -->
<svg xmlns="http://www.w3.org/2000/svg" xml:space="preserve" width="8.649cm" height="3.24274cm" version="1.1" style="shape-rendering:geometricPrecision; text-rendering:geometricPrecision; image-rendering:optimizeQuality; fill-rule:evenodd; clip-rule:evenodd"
viewBox="0 0 10.772 4.039"
 xmlns:xlink="http://www.w3.org/1999/xlink"
 xmlns:xodm="http://www.corel.com/coreldraw/odm/2003">
 <defs>
  <style type="text/css">
   <![CDATA[
    .fil0 {fill:#FF9400;fill-rule:nonzero}
   ]]>
  </style>
 </defs>
 <g id="Слой_x0020_1">
  <metadata id="CorelCorpID_0Corel-Layer"/>
  <path class="fil0" d="M0.054 0.041l0.128 0c0.069,0 0.119,0.006 0.149,0.019 0.03,0.013 0.055,0.033 0.072,0.062 0.018,0.028 0.026,0.063 0.026,0.102 0,0.044 -0.012,0.081 -0.035,0.11 -0.023,0.029 -0.054,0.05 -0.094,0.061 -0.023,0.007 -0.066,0.01 -0.127,0.01l0 0.267 -0.12 0 0 -0.631zm0.12 0.247l0.039 0c0.03,0 0.051,-0.002 0.063,-0.006 0.012,-0.004 0.021,-0.011 0.028,-0.021 0.007,-0.01 0.01,-0.022 0.01,-0.036 0,-0.024 -0.01,-0.042 -0.029,-0.053 -0.014,-0.008 -0.04,-0.013 -0.077,-0.013l-0.034 0 0 0.13z"/>
  <path id="1" class="fil0" d="M1 0.472l-0.376 0c0.005,0.033 0.02,0.06 0.043,0.08 0.023,0.02 0.053,0.029 0.09,0.029 0.044,0 0.081,-0.015 0.112,-0.046l0.098 0.046c-0.024,0.035 -0.054,0.061 -0.088,0.077 -0.034,0.017 -0.075,0.025 -0.122,0.025 -0.073,0 -0.132,-0.023 -0.178,-0.069 -0.046,-0.046 -0.069,-0.104 -0.069,-0.173 0,-0.071 0.023,-0.13 0.069,-0.177 0.046,-0.047 0.103,-0.07 0.173,-0.07 0.073,0 0.133,0.023 0.179,0.07 0.046,0.047 0.069,0.109 0.069,0.185l-0 0.022zm-0.116 -0.091c-0.008,-0.025 -0.023,-0.046 -0.046,-0.062 -0.023,-0.016 -0.049,-0.024 -0.079,-0.024 -0.033,0 -0.061,0.009 -0.086,0.027 -0.015,0.011 -0.03,0.031 -0.043,0.059l0.254 0z"/>
  <polygon id="2" class="fil0" points="1.77,0.672 1.096,0.672 1.096,0.206 1.213,0.206 1.213,0.56 1.375,0.56 1.375,0.206 1.491,0.206 1.491,0.56 1.653,0.56 1.653,0.206 1.77,0.206 "/>
  <path id="3" class="fil0" d="M2.355 0.472l-0.376 0c0.005,0.033 0.02,0.06 0.043,0.08 0.023,0.02 0.053,0.029 0.09,0.029 0.044,0 0.081,-0.015 0.112,-0.046l0.098 0.046c-0.024,0.035 -0.054,0.061 -0.088,0.077 -0.034,0.017 -0.075,0.025 -0.122,0.025 -0.073,0 -0.132,-0.023 -0.178,-0.069 -0.046,-0.046 -0.069,-0.104 -0.069,-0.173 0,-0.071 0.023,-0.13 0.069,-0.177 0.046,-0.047 0.103,-0.07 0.173,-0.07 0.073,0 0.133,0.023 0.179,0.07 0.046,0.047 0.069,0.109 0.069,0.185l-0 0.022zm-0.116 -0.091c-0.008,-0.025 -0.023,-0.046 -0.046,-0.062 -0.023,-0.016 -0.049,-0.024 -0.079,-0.024 -0.033,0 -0.061,0.009 -0.086,0.027 -0.015,0.011 -0.03,0.031 -0.043,0.059l0.254 0z"/>
  <polygon id="4" class="fil0" points="2.567,0.373 2.743,0.373 2.743,0.206 2.86,0.206 2.86,0.672 2.743,0.672 2.743,0.479 2.567,0.479 2.567,0.672 2.45,0.672 2.45,0.206 2.567,0.206 "/>
  <polygon id="5" class="fil0" points="3.04,0.672 2.978,0.672 2.978,0.206 3.092,0.206 3.092,0.48 3.331,0.206 3.387,0.206 3.387,0.672 3.273,0.672 3.273,0.404 "/>
  <path id="6" class="fil0" d="M3.585 0.481c-0.025,-0.008 -0.046,-0.024 -0.062,-0.047 -0.016,-0.023 -0.024,-0.049 -0.024,-0.078 0,-0.035 0.01,-0.065 0.03,-0.091 0.02,-0.026 0.043,-0.042 0.071,-0.049 0.027,-0.007 0.07,-0.01 0.128,-0.01l0.119 0 0 0.467 -0.117 0 0 -0.169 -0.023 0 -0.112 0.169 -0.139 0 0.13 -0.191zm0.144 -0.065l0 -0.112 -0.041 0c-0.045,0 -0.067,0.019 -0.067,0.056 0,0.038 0.025,0.057 0.075,0.057l0.033 0z"/>
  <path id="7" class="fil0" d="M4.442 0.025l0.119 0 0 0.407 0.056 0 0 0.111 -0.056 0 0 0.129 -0.118 0 0 -0.129 -0.276 0 0 -0.11 0.274 -0.407zm0.001 0.407l0 -0.212 -0.144 0.212 0.144 0z"/>
  <path id="8" class="fil0" d="M4.934 0.025l0.119 0 0 0.407 0.056 0 0 0.111 -0.056 0 0 0.129 -0.118 0 0 -0.129 -0.276 0 0 -0.11 0.274 -0.407zm0.001 0.407l0 -0.212 -0.144 0.212 0.144 0z"/>
  <polygon id="9" class="fil0" points="5.501,0.672 5.439,0.672 5.439,0.206 5.553,0.206 5.553,0.48 5.792,0.206 5.848,0.206 5.848,0.672 5.734,0.672 5.734,0.404 "/>
  <path id="10" class="fil0" d="M6.445 0.025l0.119 0 0 0.407 0.056 0 0 0.111 -0.056 0 0 0.129 -0.118 0 0 -0.129 -0.276 0 0 -0.11 0.274 -0.407zm0.001 0.407l0 -0.212 -0.144 0.212 0.144 0z"/>
  <path id="11" class="fil0" d="M6.792 0.041l0.296 0 0 0.111 -0.206 0 -0.026 0.116c0.007,-0.002 0.014,-0.004 0.021,-0.005 0.007,-0.001 0.013,-0.001 0.02,-0.001 0.057,0 0.105,0.019 0.143,0.058 0.038,0.039 0.057,0.089 0.057,0.15 0,0.061 -0.021,0.113 -0.063,0.155 -0.042,0.042 -0.093,0.063 -0.153,0.063 -0.054,0 -0.1,-0.015 -0.139,-0.046 -0.039,-0.031 -0.064,-0.073 -0.076,-0.126l0.127 0c0.01,0.02 0.022,0.035 0.038,0.045 0.016,0.01 0.033,0.015 0.052,0.015 0.027,0 0.049,-0.01 0.068,-0.029 0.019,-0.019 0.028,-0.044 0.028,-0.073 0,-0.029 -0.009,-0.053 -0.026,-0.071 -0.017,-0.019 -0.038,-0.028 -0.063,-0.028 -0.013,0 -0.026,0.003 -0.039,0.01 -0.013,0.006 -0.025,0.016 -0.037,0.029l-0.098 -0.022 0.076 -0.35z"/>
  <path id="12" class="fil0" d="M7.899 0.301l-0.097 0.054c-0.018,-0.019 -0.036,-0.032 -0.054,-0.04 -0.018,-0.007 -0.039,-0.011 -0.063,-0.011 -0.044,0 -0.079,0.013 -0.106,0.039 -0.027,0.026 -0.041,0.059 -0.041,0.1 0,0.04 0.013,0.072 0.039,0.097 0.026,0.025 0.06,0.037 0.103,0.037 0.052,0 0.093,-0.018 0.122,-0.054l0.092 0.063c-0.05,0.065 -0.121,0.098 -0.212,0.098 -0.082,0 -0.146,-0.024 -0.193,-0.073 -0.046,-0.048 -0.07,-0.105 -0.07,-0.17 0,-0.045 0.011,-0.087 0.034,-0.124 0.023,-0.038 0.054,-0.068 0.095,-0.089 0.04,-0.022 0.086,-0.033 0.136,-0.033 0.046,0 0.088,0.009 0.125,0.028 0.037,0.018 0.067,0.045 0.091,0.079z"/>
  <path id="13" class="fil0" d="M8.472 0.472l-0.376 0c0.005,0.033 0.02,0.06 0.043,0.08 0.023,0.02 0.053,0.029 0.09,0.029 0.044,0 0.081,-0.015 0.112,-0.046l0.098 0.046c-0.024,0.035 -0.054,0.061 -0.088,0.077 -0.034,0.017 -0.075,0.025 -0.122,0.025 -0.073,0 -0.132,-0.023 -0.178,-0.069 -0.046,-0.046 -0.069,-0.104 -0.069,-0.173 0,-0.071 0.023,-0.13 0.069,-0.177 0.046,-0.047 0.103,-0.07 0.173,-0.07 0.073,0 0.133,0.023 0.179,0.07 0.046,0.047 0.069,0.109 0.069,0.185l-0 0.022zm-0.116 -0.091c-0.008,-0.025 -0.023,-0.046 -0.046,-0.062 -0.023,-0.016 -0.049,-0.024 -0.079,-0.024 -0.033,0 -0.061,0.009 -0.086,0.027 -0.015,0.011 -0.03,0.031 -0.043,0.059l0.254 0z"/>
  <path id="14" class="fil0" d="M9.024 0.301l-0.097 0.054c-0.018,-0.019 -0.036,-0.032 -0.054,-0.04 -0.018,-0.007 -0.039,-0.011 -0.063,-0.011 -0.044,0 -0.079,0.013 -0.106,0.039 -0.027,0.026 -0.041,0.059 -0.041,0.1 0,0.04 0.013,0.072 0.039,0.097 0.026,0.025 0.06,0.037 0.103,0.037 0.052,0 0.093,-0.018 0.122,-0.054l0.092 0.063c-0.05,0.065 -0.121,0.098 -0.212,0.098 -0.082,0 -0.146,-0.024 -0.193,-0.073 -0.046,-0.048 -0.07,-0.105 -0.07,-0.17 0,-0.045 0.011,-0.087 0.034,-0.124 0.023,-0.038 0.054,-0.068 0.095,-0.089 0.04,-0.022 0.086,-0.033 0.136,-0.033 0.046,0 0.088,0.009 0.125,0.028 0.037,0.018 0.067,0.045 0.091,0.079z"/>
  <path id="15" class="fil0" d="M9.587 0.301l-0.097 0.054c-0.018,-0.019 -0.036,-0.032 -0.054,-0.04 -0.018,-0.007 -0.039,-0.011 -0.063,-0.011 -0.044,0 -0.079,0.013 -0.106,0.039 -0.027,0.026 -0.041,0.059 -0.041,0.1 0,0.04 0.013,0.072 0.039,0.097 0.026,0.025 0.06,0.037 0.103,0.037 0.052,0 0.093,-0.018 0.122,-0.054l0.092 0.063c-0.05,0.065 -0.121,0.098 -0.212,0.098 -0.082,0 -0.146,-0.024 -0.193,-0.073 -0.046,-0.048 -0.07,-0.105 -0.07,-0.17 0,-0.045 0.011,-0.087 0.034,-0.124 0.023,-0.038 0.054,-0.068 0.095,-0.089 0.04,-0.022 0.086,-0.033 0.136,-0.033 0.046,0 0.088,0.009 0.125,0.028 0.037,0.018 0.067,0.045 0.091,0.079z"/>
  <polygon id="16" class="fil0" points="9.755,0.672 9.692,0.672 9.692,0.206 9.807,0.206 9.807,0.48 10.046,0.206 10.102,0.206 10.102,0.672 9.988,0.672 9.988,0.404 "/>
  <path id="17" class="fil0" d="M10.282 0.672l-0.062 0 0 -0.467 0.114 0 0 0.274 0.239 -0.274 0.056 0 0 0.467 -0.114 0 0 -0.268 -0.233 0.268zm-0.031 -0.672l0.095 0c0.007,0.012 0.018,0.021 0.031,0.026 0.013,0.006 0.029,0.009 0.048,0.009 0.019,0 0.037,-0.003 0.053,-0.01 0.01,-0.005 0.019,-0.013 0.027,-0.025l0.095 0c-0.005,0.036 -0.023,0.065 -0.052,0.087 -0.029,0.022 -0.07,0.033 -0.123,0.033 -0.035,0 -0.065,-0.005 -0.089,-0.015 -0.024,-0.01 -0.043,-0.024 -0.058,-0.042 -0.014,-0.018 -0.024,-0.039 -0.027,-0.063z"/>
  <path id="18" class="fil0" d="M0.634 1.217l-0.084 0.08c-0.057,-0.06 -0.122,-0.091 -0.193,-0.091 -0.06,0 -0.111,0.021 -0.153,0.062 -0.041,0.041 -0.062,0.092 -0.062,0.152 0,0.042 0.009,0.079 0.028,0.112 0.018,0.033 0.044,0.058 0.078,0.077 0.034,0.019 0.071,0.028 0.112,0.028 0.035,0 0.067,-0.006 0.096,-0.019 0.029,-0.013 0.061,-0.037 0.095,-0.071l0.082 0.085c-0.047,0.046 -0.091,0.077 -0.132,0.095 -0.041,0.018 -0.089,0.027 -0.142,0.027 -0.098,0 -0.179,-0.031 -0.241,-0.093 -0.063,-0.062 -0.094,-0.142 -0.094,-0.239 0,-0.063 0.014,-0.119 0.043,-0.168 0.028,-0.049 0.069,-0.088 0.122,-0.118 0.053,-0.03 0.11,-0.045 0.172,-0.045 0.052,0 0.102,0.011 0.15,0.033 0.048,0.022 0.09,0.053 0.125,0.094z"/>
  <path id="19" class="fil0" d="M0.946 1.26c0.044,0 0.086,0.011 0.124,0.033 0.039,0.022 0.069,0.052 0.091,0.089 0.022,0.038 0.033,0.078 0.033,0.122 0,0.044 -0.011,0.085 -0.033,0.123 -0.022,0.038 -0.052,0.068 -0.09,0.09 -0.038,0.022 -0.08,0.032 -0.125,0.032 -0.067,0 -0.124,-0.024 -0.172,-0.071 -0.047,-0.048 -0.071,-0.105 -0.071,-0.173 0,-0.073 0.027,-0.133 0.08,-0.182 0.047,-0.042 0.101,-0.063 0.162,-0.063zm0.002 0.11c-0.036,0 -0.067,0.013 -0.091,0.038 -0.024,0.025 -0.036,0.058 -0.036,0.097 0,0.04 0.012,0.073 0.036,0.098 0.024,0.025 0.054,0.038 0.091,0.038 0.037,0 0.067,-0.013 0.092,-0.038 0.024,-0.025 0.036,-0.058 0.036,-0.098 0,-0.04 -0.012,-0.072 -0.036,-0.097 -0.024,-0.025 -0.054,-0.037 -0.092,-0.037z"/>
  <path id="20" class="fil0" d="M1.289 1.738l0 -0.467 0.188 0c0.062,0 0.103,0.012 0.125,0.036 0.022,0.024 0.033,0.052 0.033,0.082 0,0.046 -0.023,0.078 -0.068,0.098 0.062,0.021 0.092,0.061 0.092,0.12 0,0.032 -0.008,0.058 -0.024,0.079 -0.016,0.021 -0.037,0.035 -0.062,0.041 -0.025,0.007 -0.06,0.01 -0.105,0.01l-0.179 0zm0.117 -0.283l0.046 0c0.019,0 0.034,-0.005 0.045,-0.014 0.011,-0.01 0.016,-0.02 0.016,-0.032 0,-0.017 -0.005,-0.031 -0.015,-0.041 -0.01,-0.01 -0.022,-0.014 -0.036,-0.014l-0.015 0 -0.04 0 0 0.101zm0 0.192l0.059 0c0.023,0 0.039,-0.005 0.049,-0.016 0.009,-0.011 0.014,-0.021 0.014,-0.031 0,-0.015 -0.005,-0.029 -0.016,-0.041 -0.011,-0.012 -0.03,-0.019 -0.057,-0.019l-0.049 0 0 0.107z"/>
  <path id="21" class="fil0" d="M2.226 1.537l-0.376 0c0.005,0.033 0.02,0.06 0.043,0.08 0.023,0.02 0.053,0.029 0.09,0.029 0.044,0 0.081,-0.015 0.112,-0.046l0.098 0.046c-0.024,0.035 -0.054,0.061 -0.088,0.077 -0.034,0.017 -0.075,0.025 -0.122,0.025 -0.073,0 -0.132,-0.023 -0.178,-0.069 -0.046,-0.046 -0.069,-0.104 -0.069,-0.173 0,-0.071 0.023,-0.13 0.069,-0.177 0.046,-0.047 0.103,-0.07 0.173,-0.07 0.073,0 0.133,0.023 0.179,0.07 0.046,0.047 0.069,0.109 0.069,0.185l-0 0.022zm-0.116 -0.091c-0.008,-0.025 -0.023,-0.046 -0.046,-0.062 -0.023,-0.016 -0.049,-0.024 -0.079,-0.024 -0.033,0 -0.061,0.009 -0.086,0.027 -0.015,0.011 -0.03,0.031 -0.043,0.059l0.254 0z"/>
  <polygon id="22" class="fil0" points="2.281,1.271 2.716,1.271 2.716,1.383 2.56,1.383 2.56,1.738 2.443,1.738 2.443,1.383 2.281,1.383 "/>
  <path id="23" class="fil0" d="M3.138 1.271l0.117 0 0 0.467 -0.117 0 0 -0.05c-0.023,0.022 -0.046,0.037 -0.069,0.047 -0.023,0.01 -0.048,0.014 -0.075,0.014 -0.06,0 -0.113,-0.023 -0.157,-0.07 -0.044,-0.047 -0.066,-0.105 -0.066,-0.174 0,-0.072 0.021,-0.131 0.064,-0.177 0.043,-0.046 0.094,-0.069 0.155,-0.069 0.028,0 0.054,0.005 0.079,0.016 0.025,0.01 0.047,0.026 0.068,0.047l0 -0.051zm-0.123 0.096c-0.036,0 -0.066,0.013 -0.09,0.038 -0.024,0.025 -0.036,0.058 -0.036,0.098 0,0.04 0.012,0.073 0.037,0.099 0.024,0.026 0.054,0.039 0.09,0.039 0.037,0 0.067,-0.013 0.092,-0.038 0.024,-0.025 0.036,-0.059 0.036,-0.1 0,-0.041 -0.012,-0.073 -0.036,-0.099 -0.024,-0.025 -0.055,-0.038 -0.092,-0.038z"/>
  <path id="24" class="fil0" d="M3.679 1.738l0 0.081 -0.105 0 0 -0.18 0.07 0 0.162 -0.367 0.076 0 0.163 0.367 0.072 0 0 0.18 -0.112 0 0 -0.081 -0.326 0zm0.241 -0.099l-0.077 -0.197 -0.08 0.197 0.157 0z"/>
  <path id="25" class="fil0" d="M4.657 1.537l-0.376 0c0.005,0.033 0.02,0.06 0.043,0.08 0.023,0.02 0.053,0.029 0.09,0.029 0.044,0 0.081,-0.015 0.112,-0.046l0.098 0.046c-0.024,0.035 -0.054,0.061 -0.088,0.077 -0.034,0.017 -0.075,0.025 -0.122,0.025 -0.073,0 -0.132,-0.023 -0.178,-0.069 -0.046,-0.046 -0.069,-0.104 -0.069,-0.173 0,-0.071 0.023,-0.13 0.069,-0.177 0.046,-0.047 0.103,-0.07 0.173,-0.07 0.073,0 0.133,0.023 0.179,0.07 0.046,0.047 0.069,0.109 0.069,0.185l-0 0.022zm-0.116 -0.091c-0.008,-0.025 -0.023,-0.046 -0.046,-0.062 -0.023,-0.016 -0.049,-0.024 -0.079,-0.024 -0.033,0 -0.061,0.009 -0.086,0.027 -0.015,0.011 -0.03,0.031 -0.043,0.059l0.254 0z"/>
  <polygon id="26" class="fil0" points="4.87,1.738 4.753,1.738 4.753,1.271 5.162,1.271 5.162,1.738 5.045,1.738 5.045,1.383 4.87,1.383 "/>
  <polygon id="27" class="fil0" points="5.228,1.271 5.348,1.271 5.469,1.563 5.603,1.271 5.723,1.271 5.431,1.908 5.311,1.908 5.406,1.703 "/>
  <polygon id="28" class="fil0" points="5.749,1.271 6.184,1.271 6.184,1.383 6.028,1.383 6.028,1.738 5.911,1.738 5.911,1.383 5.749,1.383 "/>
  <path id="29" class="fil0" d="M6.605 1.271l0.117 0 0 0.467 -0.117 0 0 -0.05c-0.023,0.022 -0.046,0.037 -0.069,0.047 -0.023,0.01 -0.048,0.014 -0.075,0.014 -0.06,0 -0.113,-0.023 -0.157,-0.07 -0.044,-0.047 -0.066,-0.105 -0.066,-0.174 0,-0.072 0.021,-0.131 0.064,-0.177 0.043,-0.046 0.094,-0.069 0.155,-0.069 0.028,0 0.054,0.005 0.079,0.016 0.025,0.01 0.047,0.026 0.068,0.047l0 -0.051zm-0.123 0.096c-0.036,0 -0.066,0.013 -0.09,0.038 -0.024,0.025 -0.036,0.058 -0.036,0.098 0,0.04 0.012,0.073 0.037,0.099 0.024,0.026 0.054,0.039 0.09,0.039 0.037,0 0.067,-0.013 0.092,-0.038 0.024,-0.025 0.036,-0.059 0.036,-0.1 0,-0.041 -0.012,-0.073 -0.036,-0.099 -0.024,-0.025 -0.055,-0.038 -0.092,-0.038z"/>
  <polygon id="30" class="fil0" points="6.799,1.271 7.234,1.271 7.234,1.383 7.078,1.383 7.078,1.738 6.962,1.738 6.962,1.383 6.799,1.383 "/>
  <path id="31" class="fil0" d="M7.53 1.26c0.044,0 0.086,0.011 0.124,0.033 0.039,0.022 0.069,0.052 0.091,0.089 0.022,0.038 0.033,0.078 0.033,0.122 0,0.044 -0.011,0.085 -0.033,0.123 -0.022,0.038 -0.052,0.068 -0.09,0.09 -0.038,0.022 -0.08,0.032 -0.125,0.032 -0.067,0 -0.124,-0.024 -0.172,-0.071 -0.047,-0.048 -0.071,-0.105 -0.071,-0.173 0,-0.073 0.027,-0.133 0.08,-0.182 0.047,-0.042 0.101,-0.063 0.162,-0.063zm0.002 0.11c-0.036,0 -0.067,0.013 -0.091,0.038 -0.024,0.025 -0.036,0.058 -0.036,0.097 0,0.04 0.012,0.073 0.036,0.098 0.024,0.025 0.054,0.038 0.091,0.038 0.037,0 0.067,-0.013 0.092,-0.038 0.024,-0.025 0.036,-0.058 0.036,-0.098 0,-0.04 -0.012,-0.072 -0.036,-0.097 -0.024,-0.025 -0.054,-0.037 -0.092,-0.037z"/>
  <path id="32" class="fil0" d="M7.873 1.738l0 -0.467 0.188 0c0.062,0 0.103,0.012 0.125,0.036 0.022,0.024 0.033,0.052 0.033,0.082 0,0.046 -0.023,0.078 -0.068,0.098 0.062,0.021 0.092,0.061 0.092,0.12 0,0.032 -0.008,0.058 -0.024,0.079 -0.016,0.021 -0.037,0.035 -0.062,0.041 -0.025,0.007 -0.06,0.01 -0.105,0.01l-0.179 0zm0.117 -0.283l0.046 0c0.019,0 0.034,-0.005 0.045,-0.014 0.011,-0.01 0.016,-0.02 0.016,-0.032 0,-0.017 -0.005,-0.031 -0.015,-0.041 -0.01,-0.01 -0.022,-0.014 -0.036,-0.014l-0.015 0 -0.04 0 0 0.101zm0 0.192l0.059 0c0.023,0 0.039,-0.005 0.049,-0.016 0.009,-0.011 0.014,-0.021 0.014,-0.031 0,-0.015 -0.005,-0.029 -0.016,-0.041 -0.011,-0.012 -0.03,-0.019 -0.057,-0.019l-0.049 0 0 0.107z"/>
  <polygon id="33" class="fil0" points="0.115,2.172 0.231,2.172 0.378,2.612 0.526,2.172 0.642,2.172 0.748,2.803 0.632,2.803 0.565,2.404 0.431,2.803 0.325,2.803 0.192,2.404 0.123,2.803 0.006,2.803 "/>
  <path id="34" class="fil0" d="M1.143 2.156c0.089,0 0.166,0.032 0.23,0.097 0.064,0.065 0.096,0.143 0.096,0.236 0,0.092 -0.032,0.17 -0.095,0.234 -0.063,0.064 -0.14,0.096 -0.231,0.096 -0.095,0 -0.173,-0.033 -0.236,-0.098 -0.063,-0.065 -0.094,-0.143 -0.094,-0.233 0,-0.06 0.015,-0.116 0.044,-0.166 0.029,-0.051 0.069,-0.091 0.12,-0.12 0.051,-0.03 0.106,-0.044 0.165,-0.044zm-0.002 0.118c-0.058,0 -0.107,0.02 -0.147,0.061 -0.04,0.041 -0.059,0.092 -0.059,0.155 0,0.07 0.025,0.125 0.075,0.165 0.039,0.032 0.083,0.048 0.133,0.048 0.057,0 0.105,-0.021 0.145,-0.062 0.04,-0.041 0.06,-0.092 0.06,-0.152 0,-0.06 -0.02,-0.111 -0.06,-0.152 -0.04,-0.042 -0.089,-0.062 -0.147,-0.062z"/>
  <path id="35" class="fil0" d="M1.846 2.336l0.109 0 -0.078 0.235 0.078 0.232 -0.109 0 -0.078 -0.232 0.078 -0.235zm0.195 0l0.109 0 -0.079 0.235 0.079 0.232 -0.11 0 -0.079 -0.232 0.079 -0.235z"/>
  <polygon id="36" class="fil0" points="2.232,2.172 2.546,2.172 2.546,2.29 2.352,2.29 2.352,2.803 2.232,2.803 "/>
  <polygon id="37" class="fil0" points="3.045,2.803 2.926,2.803 2.808,2.508 2.689,2.803 2.571,2.803 2.769,2.336 2.845,2.336 "/>
  <path id="38" class="fil0" d="M3.451 2.336l0.117 0 0 0.467 -0.117 0 0 -0.05c-0.023,0.022 -0.046,0.037 -0.069,0.047 -0.023,0.01 -0.048,0.014 -0.075,0.014 -0.06,0 -0.113,-0.023 -0.157,-0.07 -0.044,-0.047 -0.066,-0.105 -0.066,-0.174 0,-0.072 0.021,-0.131 0.064,-0.177 0.043,-0.046 0.094,-0.069 0.155,-0.069 0.028,0 0.054,0.005 0.079,0.016 0.025,0.01 0.047,0.026 0.068,0.047l0 -0.051zm-0.123 0.096c-0.036,0 -0.066,0.013 -0.09,0.038 -0.024,0.025 -0.036,0.058 -0.036,0.098 0,0.04 0.012,0.073 0.037,0.099 0.024,0.026 0.054,0.039 0.09,0.039 0.037,0 0.067,-0.013 0.092,-0.038 0.024,-0.025 0.036,-0.059 0.036,-0.1 0,-0.041 -0.012,-0.073 -0.036,-0.099 -0.024,-0.025 -0.055,-0.038 -0.092,-0.038z"/>
  <path id="39" class="fil0" d="M3.764 2.605l0 -0.083 0.023 0c0.016,0 0.029,-0.004 0.041,-0.011 0.012,-0.007 0.018,-0.019 0.018,-0.036 0,-0.014 -0.005,-0.026 -0.016,-0.035 -0.011,-0.009 -0.023,-0.014 -0.039,-0.014 -0.019,0 -0.043,0.009 -0.072,0.028l-0.046 -0.081c0.04,-0.032 0.085,-0.048 0.135,-0.048 0.046,0 0.083,0.012 0.113,0.035 0.03,0.024 0.045,0.055 0.045,0.095 0,0.041 -0.022,0.073 -0.065,0.098 0.058,0.021 0.087,0.06 0.087,0.116 0,0.042 -0.016,0.076 -0.049,0.104 -0.033,0.027 -0.078,0.041 -0.135,0.041 -0.063,0 -0.116,-0.018 -0.157,-0.053l0.064 -0.081c0.028,0.021 0.054,0.031 0.08,0.031 0.02,0 0.036,-0.005 0.048,-0.014 0.012,-0.01 0.018,-0.022 0.018,-0.037 0,-0.014 -0.006,-0.027 -0.017,-0.038 -0.011,-0.011 -0.026,-0.016 -0.045,-0.016l-0.03 0z"/>
  <path id="40" class="fil0" d="M4.301 2.325c0.044,0 0.086,0.011 0.124,0.033 0.039,0.022 0.069,0.052 0.091,0.089 0.022,0.038 0.033,0.078 0.033,0.122 0,0.044 -0.011,0.085 -0.033,0.123 -0.022,0.038 -0.052,0.068 -0.09,0.09 -0.038,0.022 -0.08,0.032 -0.125,0.032 -0.067,0 -0.124,-0.024 -0.172,-0.071 -0.047,-0.048 -0.071,-0.105 -0.071,-0.173 0,-0.073 0.027,-0.133 0.08,-0.182 0.047,-0.042 0.101,-0.063 0.162,-0.063zm0.002 0.11c-0.036,0 -0.067,0.013 -0.091,0.038 -0.024,0.025 -0.036,0.058 -0.036,0.097 0,0.04 0.012,0.073 0.036,0.098 0.024,0.025 0.054,0.038 0.091,0.038 0.037,0 0.067,-0.013 0.092,-0.038 0.024,-0.025 0.036,-0.058 0.036,-0.098 0,-0.04 -0.012,-0.072 -0.036,-0.097 -0.024,-0.025 -0.054,-0.037 -0.092,-0.037z"/>
  <path id="41" class="fil0" d="M4.644 2.803l0 -0.467 0.188 0c0.062,0 0.103,0.012 0.125,0.036 0.022,0.024 0.033,0.052 0.033,0.082 0,0.046 -0.023,0.078 -0.068,0.098 0.062,0.021 0.092,0.061 0.092,0.12 0,0.032 -0.008,0.058 -0.024,0.079 -0.016,0.021 -0.037,0.035 -0.062,0.041 -0.025,0.007 -0.06,0.01 -0.105,0.01l-0.179 0zm0.117 -0.283l0.046 0c0.019,0 0.034,-0.005 0.045,-0.014 0.011,-0.01 0.016,-0.02 0.016,-0.032 0,-0.017 -0.005,-0.031 -0.015,-0.041 -0.01,-0.01 -0.022,-0.014 -0.036,-0.014l-0.015 0 -0.04 0 0 0.101zm0 0.192l0.059 0c0.023,0 0.039,-0.005 0.049,-0.016 0.009,-0.011 0.014,-0.021 0.014,-0.031 0,-0.015 -0.005,-0.029 -0.016,-0.041 -0.011,-0.012 -0.03,-0.019 -0.057,-0.019l-0.049 0 0 0.107z"/>
  <path id="42" class="fil0" d="M5.571 2.431l-0.097 0.054c-0.018,-0.019 -0.036,-0.032 -0.054,-0.04 -0.018,-0.007 -0.039,-0.011 -0.063,-0.011 -0.044,0 -0.079,0.013 -0.106,0.039 -0.027,0.026 -0.041,0.059 -0.041,0.1 0,0.04 0.013,0.072 0.039,0.097 0.026,0.025 0.06,0.037 0.103,0.037 0.052,0 0.093,-0.018 0.122,-0.054l0.092 0.063c-0.05,0.065 -0.121,0.098 -0.212,0.098 -0.082,0 -0.146,-0.024 -0.193,-0.073 -0.046,-0.048 -0.07,-0.105 -0.07,-0.17 0,-0.045 0.011,-0.087 0.034,-0.124 0.023,-0.038 0.054,-0.068 0.095,-0.089 0.04,-0.022 0.086,-0.033 0.136,-0.033 0.046,0 0.088,0.009 0.125,0.028 0.037,0.018 0.067,0.045 0.091,0.079z"/>
  <polygon id="43" class="fil0" points="5.677,2.336 5.794,2.336 5.794,2.511 5.956,2.336 6.099,2.336 5.89,2.563 6.102,2.803 5.946,2.803 5.806,2.638 5.794,2.653 5.794,2.803 5.677,2.803 "/>
  <polygon id="44" class="fil0" points="6.211,2.803 6.149,2.803 6.149,2.336 6.263,2.336 6.263,2.61 6.502,2.336 6.558,2.336 6.558,2.803 6.444,2.803 6.444,2.534 "/>
  <path id="45" class="fil0" d="M6.739 2.803l-0.062 0 0 -0.467 0.114 0 0 0.274 0.239 -0.274 0.056 0 0 0.467 -0.114 0 0 -0.268 -0.233 0.268zm-0.031 -0.672l0.095 0c0.007,0.012 0.018,0.021 0.031,0.026 0.013,0.006 0.029,0.009 0.048,0.009 0.019,0 0.037,-0.003 0.053,-0.01 0.01,-0.005 0.019,-0.013 0.027,-0.025l0.095 0c-0.005,0.036 -0.023,0.065 -0.052,0.087 -0.029,0.022 -0.07,0.033 -0.123,0.033 -0.035,0 -0.065,-0.005 -0.089,-0.015 -0.024,-0.01 -0.043,-0.024 -0.058,-0.042 -0.014,-0.018 -0.024,-0.039 -0.027,-0.063z"/>
  <path id="46" class="fil0" d="M7.567 2.336l0 0.051c0.021,-0.021 0.044,-0.037 0.069,-0.047 0.025,-0.01 0.051,-0.016 0.079,-0.016 0.061,0 0.112,0.023 0.155,0.069 0.043,0.046 0.064,0.105 0.064,0.177 0,0.069 -0.022,0.127 -0.066,0.174 -0.044,0.047 -0.096,0.07 -0.156,0.07 -0.027,0 -0.052,-0.005 -0.075,-0.014 -0.023,-0.01 -0.046,-0.025 -0.069,-0.047l0 0.22 -0.117 0 0 -0.637 0.117 0zm0.123 0.096c-0.037,0 -0.067,0.013 -0.092,0.038 -0.024,0.025 -0.036,0.058 -0.036,0.099 0,0.041 0.012,0.075 0.036,0.1 0.024,0.026 0.055,0.038 0.092,0.038 0.036,0 0.066,-0.013 0.09,-0.039 0.024,-0.026 0.037,-0.059 0.037,-0.099 0,-0.04 -0.012,-0.073 -0.036,-0.098 -0.024,-0.026 -0.054,-0.038 -0.091,-0.038z"/>
  <path id="47" class="fil0" d="M8.375 2.336l0.117 0 0 0.467 -0.117 0 0 -0.05c-0.023,0.022 -0.046,0.037 -0.069,0.047 -0.023,0.01 -0.048,0.014 -0.075,0.014 -0.06,0 -0.113,-0.023 -0.157,-0.07 -0.044,-0.047 -0.066,-0.105 -0.066,-0.174 0,-0.072 0.021,-0.131 0.064,-0.177 0.043,-0.046 0.094,-0.069 0.155,-0.069 0.028,0 0.054,0.005 0.079,0.016 0.025,0.01 0.047,0.026 0.068,0.047l0 -0.051zm-0.123 0.096c-0.036,0 -0.066,0.013 -0.09,0.038 -0.024,0.025 -0.036,0.058 -0.036,0.098 0,0.04 0.012,0.073 0.037,0.099 0.024,0.026 0.054,0.039 0.09,0.039 0.037,0 0.067,-0.013 0.092,-0.038 0.024,-0.025 0.036,-0.059 0.036,-0.1 0,-0.041 -0.012,-0.073 -0.036,-0.099 -0.024,-0.025 -0.055,-0.038 -0.092,-0.038z"/>
  <path id="48" class="fil0" d="M8.672 2.803l-0.062 0 0 -0.467 0.114 0 0 0.274 0.239 -0.274 0.056 0 0 0.467 -0.114 0 0 -0.268 -0.233 0.268zm-0.031 -0.672l0.095 0c0.007,0.012 0.018,0.021 0.031,0.026 0.013,0.006 0.029,0.009 0.048,0.009 0.019,0 0.037,-0.003 0.053,-0.01 0.01,-0.005 0.019,-0.013 0.027,-0.025l0.095 0c-0.005,0.036 -0.023,0.065 -0.052,0.087 -0.029,0.022 -0.07,0.033 -0.123,0.033 -0.035,0 -0.065,-0.005 -0.089,-0.015 -0.024,-0.01 -0.043,-0.024 -0.058,-0.042 -0.014,-0.018 -0.024,-0.039 -0.027,-0.063z"/>
  <path id="49" class="fil0" d="M9.357 2.325c0.044,0 0.086,0.011 0.124,0.033 0.039,0.022 0.069,0.052 0.091,0.089 0.022,0.038 0.033,0.078 0.033,0.122 0,0.044 -0.011,0.085 -0.033,0.123 -0.022,0.038 -0.052,0.068 -0.09,0.09 -0.038,0.022 -0.08,0.032 -0.125,0.032 -0.067,0 -0.124,-0.024 -0.172,-0.071 -0.047,-0.048 -0.071,-0.105 -0.071,-0.173 0,-0.073 0.027,-0.133 0.08,-0.182 0.047,-0.042 0.101,-0.063 0.162,-0.063zm0.002 0.11c-0.036,0 -0.067,0.013 -0.091,0.038 -0.024,0.025 -0.036,0.058 -0.036,0.097 0,0.04 0.012,0.073 0.036,0.098 0.024,0.025 0.054,0.038 0.091,0.038 0.037,0 0.067,-0.013 0.092,-0.038 0.024,-0.025 0.036,-0.058 0.036,-0.098 0,-0.04 -0.012,-0.072 -0.036,-0.097 -0.024,-0.025 -0.054,-0.037 -0.092,-0.037z"/>
  <polygon id="50" class="fil0" points="9.817,2.504 9.993,2.504 9.993,2.336 10.109,2.336 10.109,2.803 9.993,2.803 9.993,2.61 9.817,2.61 9.817,2.803 9.7,2.803 9.7,2.336 9.817,2.336 "/>
  <path id="51" class="fil0" d="M10.482 2.803l-0.109 0 0.079 -0.235 -0.079 -0.232 0.11 0 0.079 0.232 -0.079 0.235zm-0.193 0l-0.109 0 0.078 -0.235 -0.078 -0.232 0.109 0 0.078 0.232 -0.078 0.235z"/>
  <polygon id="52" class="fil0" points="10.688,2.684 10.772,2.726 10.666,2.908 10.607,2.88 "/>
  <polygon id="53" class="fil0" points="-0,3.402 0.435,3.402 0.435,3.513 0.279,3.513 0.279,3.868 0.163,3.868 0.163,3.513 -0,3.513 "/>
  <path id="54" class="fil0" d="M0.628 3.402l0 0.051c0.021,-0.021 0.044,-0.037 0.069,-0.047 0.025,-0.01 0.051,-0.016 0.079,-0.016 0.061,0 0.112,0.023 0.155,0.069 0.043,0.046 0.064,0.105 0.064,0.177 0,0.069 -0.022,0.127 -0.066,0.174 -0.044,0.047 -0.096,0.07 -0.156,0.07 -0.027,0 -0.052,-0.005 -0.075,-0.014 -0.023,-0.01 -0.046,-0.025 -0.069,-0.047l0 0.22 -0.117 0 0 -0.637 0.117 0zm0.123 0.096c-0.037,0 -0.067,0.013 -0.092,0.038 -0.024,0.025 -0.036,0.058 -0.036,0.099 0,0.041 0.012,0.075 0.036,0.1 0.024,0.026 0.055,0.038 0.092,0.038 0.036,0 0.066,-0.013 0.09,-0.039 0.024,-0.026 0.037,-0.059 0.037,-0.099 0,-0.04 -0.012,-0.073 -0.036,-0.098 -0.024,-0.026 -0.054,-0.038 -0.091,-0.038z"/>
  <path id="55" class="fil0" d="M1.559 3.668l-0.376 0c0.005,0.033 0.02,0.06 0.043,0.08 0.023,0.02 0.053,0.029 0.09,0.029 0.044,0 0.081,-0.015 0.112,-0.046l0.098 0.046c-0.024,0.035 -0.054,0.061 -0.088,0.077 -0.034,0.017 -0.075,0.025 -0.122,0.025 -0.073,0 -0.132,-0.023 -0.178,-0.069 -0.046,-0.046 -0.069,-0.104 -0.069,-0.173 0,-0.071 0.023,-0.13 0.069,-0.177 0.046,-0.047 0.103,-0.07 0.173,-0.07 0.073,0 0.133,0.023 0.179,0.07 0.046,0.047 0.069,0.109 0.069,0.185l-0 0.022zm-0.116 -0.091c-0.008,-0.025 -0.023,-0.046 -0.046,-0.062 -0.023,-0.016 -0.049,-0.024 -0.079,-0.024 -0.033,0 -0.061,0.009 -0.086,0.027 -0.015,0.011 -0.03,0.031 -0.043,0.059l0.254 0z"/>
  <polygon id="56" class="fil0" points="1.613,3.402 2.048,3.402 2.048,3.513 1.892,3.513 1.892,3.868 1.776,3.868 1.776,3.513 1.613,3.513 "/>
  <path id="57" class="fil0" d="M2.241 3.57l0.035 0c0.049,0 0.087,0.004 0.113,0.011 0.026,0.008 0.048,0.023 0.067,0.047 0.018,0.024 0.027,0.054 0.027,0.09 0,0.036 -0.008,0.066 -0.024,0.09 -0.016,0.024 -0.037,0.04 -0.063,0.048 -0.025,0.008 -0.061,0.012 -0.107,0.012l-0.165 0 0 -0.467 0.117 0 0 0.169zm0 0.207l0.036 0c0.021,0 0.037,-0.001 0.046,-0.005 0.009,-0.003 0.018,-0.009 0.025,-0.017 0.007,-0.009 0.011,-0.019 0.011,-0.031 0,-0.04 -0.023,-0.06 -0.069,-0.06l-0.049 0 0 0.112z"/>
  <path id="58" class="fil0" d="M3.04 3.668l-0.376 0c0.005,0.033 0.02,0.06 0.043,0.08 0.023,0.02 0.053,0.029 0.09,0.029 0.044,0 0.081,-0.015 0.112,-0.046l0.098 0.046c-0.024,0.035 -0.054,0.061 -0.088,0.077 -0.034,0.017 -0.075,0.025 -0.122,0.025 -0.073,0 -0.132,-0.023 -0.178,-0.069 -0.046,-0.046 -0.069,-0.104 -0.069,-0.173 0,-0.071 0.023,-0.13 0.069,-0.177 0.046,-0.047 0.103,-0.07 0.173,-0.07 0.073,0 0.133,0.023 0.179,0.07 0.046,0.047 0.069,0.109 0.069,0.185l-0 0.022zm-0.116 -0.091c-0.008,-0.025 -0.023,-0.046 -0.046,-0.062 -0.023,-0.016 -0.049,-0.024 -0.079,-0.024 -0.033,0 -0.061,0.009 -0.086,0.027 -0.015,0.011 -0.03,0.031 -0.043,0.059l0.254 0z"/>
  <polygon id="59" class="fil0" points="3.135,3.402 3.408,3.402 3.408,3.513 3.252,3.513 3.252,3.868 3.135,3.868 "/>
  <path id="60" class="fil0" d="M3.706 3.39c0.044,0 0.086,0.011 0.124,0.033 0.039,0.022 0.069,0.052 0.091,0.089 0.022,0.038 0.033,0.078 0.033,0.122 0,0.044 -0.011,0.085 -0.033,0.123 -0.022,0.038 -0.052,0.068 -0.09,0.09 -0.038,0.022 -0.08,0.032 -0.125,0.032 -0.067,0 -0.124,-0.024 -0.172,-0.071 -0.047,-0.048 -0.071,-0.105 -0.071,-0.173 0,-0.073 0.027,-0.133 0.08,-0.182 0.047,-0.042 0.101,-0.063 0.162,-0.063zm0.002 0.11c-0.036,0 -0.067,0.013 -0.091,0.038 -0.024,0.025 -0.036,0.058 -0.036,0.097 0,0.04 0.012,0.073 0.036,0.098 0.024,0.025 0.054,0.038 0.091,0.038 0.037,0 0.067,-0.013 0.092,-0.038 0.024,-0.025 0.036,-0.058 0.036,-0.098 0,-0.04 -0.012,-0.072 -0.036,-0.097 -0.024,-0.025 -0.054,-0.037 -0.092,-0.037z"/>
  <path id="61" class="fil0" d="M4.752 3.497l-0.097 0.054c-0.018,-0.019 -0.036,-0.032 -0.054,-0.04 -0.018,-0.007 -0.039,-0.011 -0.063,-0.011 -0.044,0 -0.079,0.013 -0.106,0.039 -0.027,0.026 -0.041,0.059 -0.041,0.1 0,0.04 0.013,0.072 0.039,0.097 0.026,0.025 0.06,0.037 0.103,0.037 0.052,0 0.093,-0.018 0.122,-0.054l0.092 0.063c-0.05,0.065 -0.121,0.098 -0.212,0.098 -0.082,0 -0.146,-0.024 -0.193,-0.073 -0.046,-0.048 -0.07,-0.105 -0.07,-0.17 0,-0.045 0.011,-0.087 0.034,-0.124 0.023,-0.038 0.054,-0.068 0.095,-0.089 0.04,-0.022 0.086,-0.033 0.136,-0.033 0.046,0 0.088,0.009 0.125,0.028 0.037,0.018 0.067,0.045 0.091,0.079z"/>
  <path id="62" class="fil0" d="M5.077 3.39c0.044,0 0.086,0.011 0.124,0.033 0.039,0.022 0.069,0.052 0.091,0.089 0.022,0.038 0.033,0.078 0.033,0.122 0,0.044 -0.011,0.085 -0.033,0.123 -0.022,0.038 -0.052,0.068 -0.09,0.09 -0.038,0.022 -0.08,0.032 -0.125,0.032 -0.067,0 -0.124,-0.024 -0.172,-0.071 -0.047,-0.048 -0.071,-0.105 -0.071,-0.173 0,-0.073 0.027,-0.133 0.08,-0.182 0.047,-0.042 0.101,-0.063 0.162,-0.063zm0.002 0.11c-0.036,0 -0.067,0.013 -0.091,0.038 -0.024,0.025 -0.036,0.058 -0.036,0.097 0,0.04 0.012,0.073 0.036,0.098 0.024,0.025 0.054,0.038 0.091,0.038 0.037,0 0.067,-0.013 0.092,-0.038 0.024,-0.025 0.036,-0.058 0.036,-0.098 0,-0.04 -0.012,-0.072 -0.036,-0.097 -0.024,-0.025 -0.054,-0.037 -0.092,-0.037z"/>
  <path id="63" class="fil0" d="M5.498 3.671l0 -0.083 0.023 0c0.016,0 0.029,-0.004 0.041,-0.011 0.012,-0.007 0.018,-0.019 0.018,-0.036 0,-0.014 -0.005,-0.026 -0.016,-0.035 -0.011,-0.009 -0.023,-0.014 -0.039,-0.014 -0.019,0 -0.043,0.009 -0.072,0.028l-0.046 -0.081c0.04,-0.032 0.085,-0.048 0.135,-0.048 0.046,0 0.083,0.012 0.113,0.035 0.03,0.024 0.045,0.055 0.045,0.095 0,0.041 -0.022,0.073 -0.065,0.098 0.058,0.021 0.087,0.06 0.087,0.116 0,0.042 -0.016,0.076 -0.049,0.104 -0.033,0.027 -0.078,0.041 -0.135,0.041 -0.063,0 -0.116,-0.018 -0.157,-0.053l0.064 -0.081c0.028,0.021 0.054,0.031 0.08,0.031 0.02,0 0.036,-0.005 0.048,-0.014 0.012,-0.01 0.018,-0.022 0.018,-0.037 0,-0.014 -0.006,-0.027 -0.017,-0.038 -0.011,-0.011 -0.026,-0.016 -0.045,-0.016l-0.03 0z"/>
  <path id="64" class="fil0" d="M5.933 3.57l0.035 0c0.049,0 0.087,0.004 0.113,0.011 0.026,0.008 0.048,0.023 0.067,0.047 0.018,0.024 0.027,0.054 0.027,0.09 0,0.036 -0.008,0.066 -0.024,0.09 -0.016,0.024 -0.037,0.04 -0.063,0.048 -0.025,0.008 -0.061,0.012 -0.107,0.012l-0.165 0 0 -0.467 0.117 0 0 0.169zm0 0.207l0.036 0c0.021,0 0.037,-0.001 0.046,-0.005 0.009,-0.003 0.018,-0.009 0.025,-0.017 0.007,-0.009 0.011,-0.019 0.011,-0.031 0,-0.04 -0.023,-0.06 -0.069,-0.06l-0.049 0 0 0.112zm0.323 -0.376l0.117 0 0 0.467 -0.117 0 0 -0.467z"/>
  <path id="65" class="fil0" d="M6.491 3.868l0 -0.467 0.188 0c0.062,0 0.103,0.012 0.125,0.036 0.022,0.024 0.033,0.052 0.033,0.082 0,0.046 -0.023,0.078 -0.068,0.098 0.062,0.021 0.092,0.061 0.092,0.12 0,0.032 -0.008,0.058 -0.024,0.079 -0.016,0.021 -0.037,0.035 -0.062,0.041 -0.025,0.007 -0.06,0.01 -0.105,0.01l-0.179 0zm0.117 -0.283l0.046 0c0.019,0 0.034,-0.005 0.045,-0.014 0.011,-0.01 0.016,-0.02 0.016,-0.032 0,-0.017 -0.005,-0.031 -0.015,-0.041 -0.01,-0.01 -0.022,-0.014 -0.036,-0.014l-0.015 0 -0.04 0 0 0.101zm0 0.192l0.059 0c0.023,0 0.039,-0.005 0.049,-0.016 0.009,-0.011 0.014,-0.021 0.014,-0.031 0,-0.015 -0.005,-0.029 -0.016,-0.041 -0.011,-0.012 -0.03,-0.019 -0.057,-0.019l-0.049 0 0 0.107z"/>
  <path id="66" class="fil0" d="M7.306 3.402l0.117 0 0 0.467 -0.117 0 0 -0.05c-0.023,0.022 -0.046,0.037 -0.069,0.047 -0.023,0.01 -0.048,0.014 -0.075,0.014 -0.06,0 -0.113,-0.023 -0.157,-0.07 -0.044,-0.047 -0.066,-0.105 -0.066,-0.174 0,-0.072 0.021,-0.131 0.064,-0.177 0.043,-0.046 0.094,-0.069 0.155,-0.069 0.028,0 0.054,0.005 0.079,0.016 0.025,0.01 0.047,0.026 0.068,0.047l0 -0.051zm-0.123 0.096c-0.036,0 -0.066,0.013 -0.09,0.038 -0.024,0.025 -0.036,0.058 -0.036,0.098 0,0.04 0.012,0.073 0.037,0.099 0.024,0.026 0.054,0.039 0.09,0.039 0.037,0 0.067,-0.013 0.092,-0.038 0.024,-0.025 0.036,-0.059 0.036,-0.1 0,-0.041 -0.012,-0.073 -0.036,-0.099 -0.024,-0.025 -0.055,-0.038 -0.092,-0.038z"/>
 </g>
</svg>
