<?xml version="1.0" encoding="UTF-8" standalone="no"?>
<svg
   xmlns:dc="http://purl.org/dc/elements/1.1/"
   xmlns:cc="http://creativecommons.org/ns#"
   xmlns:rdf="http://www.w3.org/1999/02/22-rdf-syntax-ns#"
   xmlns:svg="http://www.w3.org/2000/svg"
   xmlns="http://www.w3.org/2000/svg"
   xmlns:sodipodi="http://sodipodi.sourceforge.net/DTD/sodipodi-0.dtd"
   xmlns:inkscape="http://www.inkscape.org/namespaces/inkscape"
   sodipodi:docname="5strText.svg"
   inkscape:version="1.0 (4035a4fb49, 2020-05-01)"
   id="svg8"
   version="1.1"
   viewBox="0 0 121.09453 41.794278"
   height="9.8726625pc"
   width="28.604988pc">
  <defs
     id="defs2">
    <clipPath
       id="clipPath7909"
       clipPathUnits="userSpaceOnUse">
      <g
         inkscape:label="Clip"
         id="use7911">
        <text
           id="text166"
           y="384.59238"
           x="82.876579"
           style="font-style:normal;font-weight:normal;font-size:10.5833px;line-height:1.25;font-family:sans-serif;letter-spacing:0px;word-spacing:0px;fill:#ffffff;fill-opacity:1;stroke:none;stroke-width:0.264583"
           xml:space="preserve"><tspan
             style="font-style:normal;font-variant:normal;font-weight:normal;font-stretch:normal;font-size:3.52778px;font-family:EuropeDemi;-inkscape-font-specification:EuropeDemi;fill:#ffffff;stroke-width:0.264583"
             y="384.59238"
             x="82.876579"
             id="tspan164"
             sodipodi:role="line"><tspan
               id="tspan162"
               style="font-size:2.82222px">ГЛАЗОВСКАЯ РАЙОННАЯ БИБЛИОТЕКА</tspan></tspan></text>
      </g>
    </clipPath>
  </defs>
  <sodipodi:namedview
     inkscape:document-rotation="0"
     inkscape:pagecheckerboard="true"
     showborder="true"
     inkscape:window-maximized="1"
     inkscape:window-y="-8"
     inkscape:window-x="-8"
     inkscape:window-height="972"
     inkscape:window-width="1280"
     units="px"
     showguides="false"
     inkscape:lockguides="false"
     showgrid="false"
     inkscape:current-layer="layer1"
     inkscape:document-units="mm"
     inkscape:cy="126.27711"
     inkscape:cx="265.23451"
     inkscape:zoom="1.154038"
     inkscape:pageshadow="2"
     inkscape:pageopacity="0.0"
     borderopacity="1.0"
     bordercolor="#666666"
     pagecolor="#ffffff"
     id="base" />
  <metadata
     id="metadata5">
    <rdf:RDF>
      <cc:Work
         rdf:about="">
        <dc:format>image/svg+xml</dc:format>
        <dc:type
           rdf:resource="http://purl.org/dc/dcmitype/StillImage" />
        <dc:title></dc:title>
      </cc:Work>
    </rdf:RDF>
  </metadata>
  <g
     transform="translate(-2.348569,-272.41715)"
     id="layer1"
     inkscape:groupmode="layer"
     inkscape:label="Layer 1">
    <g
       style="font-style:normal;font-weight:normal;font-size:47.2099px;line-height:0;font-family:sans-serif;letter-spacing:0px;word-spacing:0px;fill:#ff9400;fill-opacity:1;fill-rule:nonzero;stroke:none;stroke-width:1.18025"
       id="text4840"
       aria-label="Решения 41 сессий 
Совета депутатов
МО «Глазовский район»,
третьего созыва ">
      <path
         id="path280"
         style="font-style:normal;font-variant:normal;font-weight:bold;font-stretch:normal;font-size:9.87778px;font-family:'Century Gothic';-inkscape-font-specification:'Century Gothic Bold';text-align:start;text-anchor:start;fill:#ff9400;fill-opacity:1;fill-rule:nonzero;stroke-width:1.18025"
         d="m 2.956284,272.885 h 1.432471 q 1.1623755,0 1.6736278,0.21704 0.5160754,0.21222 0.8102866,0.69453 0.2990344,0.47749 0.2990344,1.14791 0,0.74276 -0.3906739,1.23472 -0.3858508,0.49196 -1.0514434,0.68488 -0.3906739,0.11093 -1.4228248,0.11093 v 3.00482 H 2.956284 Z m 1.3504777,2.7733 h 0.429259 q 0.5064292,0 0.7041777,-0.0723 0.1977485,-0.0723 0.3086806,-0.23633 0.1157552,-0.16881 0.1157552,-0.40514 0,-0.40997 -0.3183268,-0.59807 -0.2315105,-0.13987 -0.858518,-0.13987 H 4.3067617 Z" />
      <path
         id="path282"
         style="font-style:normal;font-variant:normal;font-weight:bold;font-stretch:normal;font-size:9.87778px;font-family:'Century Gothic';-inkscape-font-specification:'Century Gothic Bold';text-align:start;text-anchor:start;fill:#ff9400;fill-opacity:1;fill-rule:nonzero;stroke-width:1.18025"
         d="M 13.610589,277.73707 H 9.3806995 q 0.091639,0.55948 0.4871366,0.89228 0.4003199,0.32797 1.0176819,0.32797 0.737939,0 1.268484,-0.51607 l 1.109321,0.5209 q -0.41479,0.58842 -0.993566,0.87298 -0.578776,0.27975 -1.374593,0.27975 -1.2347227,0 -2.0112474,-0.77653 -0.7765247,-0.78135 -0.7765247,-1.95337 0,-1.20096 0.7717016,-1.99195 0.7765247,-0.79582 1.9437235,-0.79582 1.239545,0 2.01607,0.79582 0.776525,0.79099 0.776525,2.09324 z M 12.28905,276.7001 q -0.130225,-0.43891 -0.516076,-0.71383 -0.381027,-0.27492 -0.887456,-0.27492 -0.549838,0 -0.9646274,0.30868 -0.2604493,0.19293 -0.4823135,0.68007 z" />
      <path
         id="path284"
         style="font-style:normal;font-variant:normal;font-weight:bold;font-stretch:normal;font-size:9.87778px;font-family:'Century Gothic';-inkscape-font-specification:'Century Gothic Bold';text-align:start;text-anchor:start;fill:#ff9400;fill-opacity:1;fill-rule:nonzero;stroke-width:1.18025"
         d="m 22.248824,279.97983 h -7.572322 v -5.24757 h 1.321539 v 3.98391 h 1.803852 v -3.98391 h 1.321539 v 3.98391 h 1.808676 v -3.98391 h 1.316716 z" />
      <path
         id="path286"
         style="font-style:normal;font-variant:normal;font-weight:bold;font-stretch:normal;font-size:9.87778px;font-family:'Century Gothic';-inkscape-font-specification:'Century Gothic Bold';text-align:start;text-anchor:start;fill:#ff9400;fill-opacity:1;fill-rule:nonzero;stroke-width:1.18025"
         d="m 28.832402,277.73707 h -4.229889 q 0.09164,0.55948 0.487136,0.89228 0.40032,0.32797 1.017682,0.32797 0.737939,0 1.268484,-0.51607 l 1.109321,0.5209 q -0.414789,0.58842 -0.993566,0.87298 -0.578776,0.27975 -1.374593,0.27975 -1.234722,0 -2.011247,-0.77653 -0.776525,-0.78135 -0.776525,-1.95337 0,-1.20096 0.771702,-1.99195 0.776524,-0.79582 1.943723,-0.79582 1.239546,0 2.01607,0.79582 0.776525,0.79099 0.776525,2.09324 z m -1.321539,-1.03697 q -0.130225,-0.43891 -0.516075,-0.71383 -0.381028,-0.27492 -0.887457,-0.27492 -0.549838,0 -0.964627,0.30868 -0.260449,0.19293 -0.482314,0.68007 z" />
      <path
         id="path288"
         style="font-style:normal;font-variant:normal;font-weight:bold;font-stretch:normal;font-size:9.87778px;font-family:'Century Gothic';-inkscape-font-specification:'Century Gothic Bold';text-align:start;text-anchor:start;fill:#ff9400;fill-opacity:1;fill-rule:nonzero;stroke-width:1.18025"
         d="m 31.219854,276.62293 h 1.958193 v -1.89067 h 1.321539 v 5.24757 h -1.321539 v -2.17524 h -1.958193 v 2.17524 h -1.321539 v -5.24757 h 1.321539 z" />
      <path
         id="path290"
         style="font-style:normal;font-variant:normal;font-weight:bold;font-stretch:normal;font-size:9.87778px;font-family:'Century Gothic';-inkscape-font-specification:'Century Gothic Bold';text-align:start;text-anchor:start;fill:#ff9400;fill-opacity:1;fill-rule:nonzero;stroke-width:1.18025"
         d="m 36.520481,279.97983 h -0.699354 v -5.24757 h 1.282954 v 3.08198 l 2.686486,-3.08198 h 0.63183 v 5.24757 h -1.282954 v -3.01928 z" />
      <path
         id="path292"
         style="font-style:normal;font-variant:normal;font-weight:bold;font-stretch:normal;font-size:9.87778px;font-family:'Century Gothic';-inkscape-font-specification:'Century Gothic Bold';text-align:start;text-anchor:start;fill:#ff9400;fill-opacity:1;fill-rule:nonzero;stroke-width:1.18025"
         d="m 42.641036,277.82871 q -0.424436,-0.13987 -0.699355,-0.52572 -0.270096,-0.39068 -0.270096,-0.87781 0,-0.5836 0.332797,-1.02251 0.332796,-0.4389 0.790994,-0.55466 0.463021,-0.11575 1.442117,-0.11575 h 1.331185 v 5.24757 h -1.321539 v -1.90032 h -0.255626 l -1.249192,1.90032 h -1.557872 z m 1.606103,-0.73794 v -1.25884 h -0.458197 q -0.747586,0 -0.747586,0.62701 0,0.63183 0.834402,0.63183 z" />
      <path
         id="path294"
         style="font-style:normal;font-variant:normal;font-weight:bold;font-stretch:normal;font-size:9.87778px;font-family:'Century Gothic';-inkscape-font-specification:'Century Gothic Bold';text-align:start;text-anchor:start;fill:#ff9400;fill-opacity:1;fill-rule:nonzero;stroke-width:1.18025"
         d="m 52.263191,272.70654 h 1.350478 v 4.56751 h 0.63183 v 1.24919 h -0.63183 v 1.45659 H 52.29213 v -1.45659 h -3.096453 v -1.24919 z m 0.02894,4.56751 v -2.37781 l -1.620573,2.37781 z" />
      <path
         id="path296"
         style="font-style:normal;font-variant:normal;font-weight:bold;font-stretch:normal;font-size:9.87778px;font-family:'Century Gothic';-inkscape-font-specification:'Century Gothic Bold';text-align:start;text-anchor:start;fill:#ff9400;fill-opacity:1;fill-rule:nonzero;stroke-width:1.18025"
         d="m 56.155463,272.885 h 2.020893 v 7.09483 h -1.340831 v -5.82635 h -1.46141 z" />
      <path
         id="path298"
         style="font-style:normal;font-variant:normal;font-weight:bold;font-stretch:normal;font-size:9.87778px;font-family:'Century Gothic';-inkscape-font-specification:'Century Gothic Bold';text-align:start;text-anchor:start;fill:#ff9400;fill-opacity:1;fill-rule:nonzero;stroke-width:1.18025"
         d="m 68.628089,275.79335 -1.094852,0.60289 q -0.30868,-0.32315 -0.612538,-0.44855 -0.299034,-0.1254 -0.704177,-0.1254 -0.73794,0 -1.196138,0.44372 -0.453374,0.43891 -0.453374,1.12862 0,0.67041 0.438905,1.09485 0.438905,0.42444 1.152729,0.42444 0.882634,0 1.374593,-0.6029 l 1.036974,0.709 q -0.844048,1.09486 -2.382628,1.09486 -1.38424,0 -2.170411,-0.81994 -0.781348,-0.81993 -0.781348,-1.9196 0,-0.76206 0.381028,-1.40354 0.381028,-0.64147 1.06109,-1.00803 0.684885,-0.36656 1.528933,-0.36656 0.781348,0 1.403533,0.3135 0.622184,0.30868 1.017681,0.88264 z" />
      <path
         id="path300"
         style="font-style:normal;font-variant:normal;font-weight:bold;font-stretch:normal;font-size:9.87778px;font-family:'Century Gothic';-inkscape-font-specification:'Century Gothic Bold';text-align:start;text-anchor:start;fill:#ff9400;fill-opacity:1;fill-rule:nonzero;stroke-width:1.18025"
         d="m 75.076621,277.73707 h -4.229889 q 0.09164,0.55948 0.487136,0.89228 0.40032,0.32797 1.017682,0.32797 0.737939,0 1.268484,-0.51607 l 1.109321,0.5209 q -0.41479,0.58842 -0.993566,0.87298 -0.578776,0.27975 -1.374593,0.27975 -1.234723,0 -2.011247,-0.77653 -0.776525,-0.78135 -0.776525,-1.95337 0,-1.20096 0.771701,-1.99195 0.776525,-0.79582 1.943724,-0.79582 1.239545,0 2.01607,0.79582 0.776525,0.79099 0.776525,2.09324 z m -1.321539,-1.03697 q -0.130225,-0.43891 -0.516076,-0.71383 -0.381027,-0.27492 -0.887456,-0.27492 -0.549838,0 -0.964627,0.30868 -0.26045,0.19293 -0.482314,0.68007 z" />
      <path
         id="path302"
         style="font-style:normal;font-variant:normal;font-weight:bold;font-stretch:normal;font-size:9.87778px;font-family:'Century Gothic';-inkscape-font-specification:'Century Gothic Bold';text-align:start;text-anchor:start;fill:#ff9400;fill-opacity:1;fill-rule:nonzero;stroke-width:1.18025"
         d="m 81.283992,275.79335 -1.094852,0.60289 q -0.30868,-0.32315 -0.612538,-0.44855 -0.299034,-0.1254 -0.704178,-0.1254 -0.737939,0 -1.196137,0.44372 -0.453375,0.43891 -0.453375,1.12862 0,0.67041 0.438906,1.09485 0.438905,0.42444 1.152729,0.42444 0.882634,0 1.374593,-0.6029 l 1.036974,0.709 q -0.844048,1.09486 -2.382628,1.09486 -1.38424,0 -2.170411,-0.81994 -0.781348,-0.81993 -0.781348,-1.9196 0,-0.76206 0.381028,-1.40354 0.381027,-0.64147 1.061089,-1.00803 0.684886,-0.36656 1.528934,-0.36656 0.781348,0 1.403532,0.3135 0.622185,0.30868 1.017682,0.88264 z" />
      <path
         id="path304"
         style="font-style:normal;font-variant:normal;font-weight:bold;font-stretch:normal;font-size:9.87778px;font-family:'Century Gothic';-inkscape-font-specification:'Century Gothic Bold';text-align:start;text-anchor:start;fill:#ff9400;fill-opacity:1;fill-rule:nonzero;stroke-width:1.18025"
         d="m 87.611949,275.79335 -1.094852,0.60289 q -0.30868,-0.32315 -0.612538,-0.44855 -0.299034,-0.1254 -0.704177,-0.1254 -0.73794,0 -1.196138,0.44372 -0.453374,0.43891 -0.453374,1.12862 0,0.67041 0.438905,1.09485 0.438905,0.42444 1.152729,0.42444 0.882634,0 1.374593,-0.6029 l 1.036974,0.709 q -0.844048,1.09486 -2.382628,1.09486 -1.38424,0 -2.170411,-0.81994 -0.781348,-0.81993 -0.781348,-1.9196 0,-0.76206 0.381028,-1.40354 0.381028,-0.64147 1.06109,-1.00803 0.684885,-0.36656 1.528933,-0.36656 0.781348,0 1.403533,0.3135 0.622184,0.30868 1.017681,0.88264 z" />
      <path
         id="path306"
         style="font-style:normal;font-variant:normal;font-weight:bold;font-stretch:normal;font-size:9.87778px;font-family:'Century Gothic';-inkscape-font-specification:'Century Gothic Bold';text-align:start;text-anchor:start;fill:#ff9400;fill-opacity:1;fill-rule:nonzero;stroke-width:1.18025"
         d="m 89.497791,279.97983 h -0.699354 v -5.24757 h 1.282954 v 3.08198 l 2.686486,-3.08198 h 0.63183 v 5.24757 h -1.282953 v -3.01928 z" />
      <path
         id="path308"
         style="font-style:normal;font-variant:normal;font-weight:bold;font-stretch:normal;font-size:9.87778px;font-family:'Century Gothic';-inkscape-font-specification:'Century Gothic Bold';text-align:start;text-anchor:start;fill:#ff9400;fill-opacity:1;fill-rule:nonzero;stroke-width:1.18025"
         d="M 95.420605,279.97983 H 94.72125 v -5.24757 h 1.282954 v 3.08198 l 2.686486,-3.08198 h 0.631831 v 5.24757 h -1.282954 v -3.01928 z m -0.313504,-7.56268 h 1.065913 q 0.125401,0.19775 0.347266,0.29904 0.226687,0.0965 0.549837,0.0965 0.327973,0 0.593245,-0.11576 0.173633,-0.0772 0.303858,-0.27974 h 1.065913 q -0.09164,0.61254 -0.588423,0.98392 -0.491959,0.37138 -1.379416,0.37138 -0.598069,0 -1.003212,-0.16398 -0.40032,-0.16881 -0.6463,-0.47749 -0.24598,-0.30868 -0.308681,-0.71383 z" />
      <path
         id="path310"
         style="font-style:normal;font-variant:normal;font-weight:bold;font-stretch:normal;font-size:9.87778px;font-family:'Century Gothic';-inkscape-font-specification:'Century Gothic Bold';text-align:start;text-anchor:start;fill:#ff9400;fill-opacity:1;fill-rule:nonzero;stroke-width:1.18025"
         d="m 9.4819853,284.90485 -0.9453344,0.90193 q -0.964627,-1.01768 -2.1704106,-1.01768 -1.0176815,0 -1.717036,0.69453 -0.6945314,0.69453 -0.6945314,1.71221 0,0.709 0.3086806,1.25884 0.3086806,0.54984 0.8729874,0.86334 0.5643068,0.3135 1.254015,0.3135 0.5884225,0 1.0755591,-0.21704 0.4871366,-0.22186 1.0707359,-0.80064 l 0.9163956,0.95498 q -0.786171,0.76688 -1.4855255,1.06591 -0.6993545,0.29422 -1.5964576,0.29422 -1.6543352,0 -2.7106017,-1.04662 -1.0514434,-1.05145 -1.0514434,-2.69131 0,-1.06109 0.4774903,-1.88585 0.4823135,-0.82476 1.3745934,-1.32636 0.8971031,-0.50161 1.9292539,-0.50161 0.8778106,0 1.6880972,0.37138 0.8151098,0.37139 1.4035322,1.05627 z" />
      <path
         id="path312"
         style="font-style:normal;font-variant:normal;font-weight:bold;font-stretch:normal;font-size:9.87778px;font-family:'Century Gothic';-inkscape-font-specification:'Century Gothic Bold';text-align:start;text-anchor:start;fill:#ff9400;fill-opacity:1;fill-rule:nonzero;stroke-width:1.18025"
         d="m 12.978758,285.36787 q 0.742763,0 1.393886,0.37138 0.655946,0.37138 1.022504,1.00804 0.366559,0.63665 0.366559,1.37459 0,0.74276 -0.371382,1.38906 -0.366558,0.6463 -1.003212,1.01286 -0.636654,0.36174 -1.403532,0.36174 -1.128614,0 -1.929254,-0.80064 -0.795817,-0.80547 -0.795817,-1.95337 0,-1.2299 0.901926,-2.04983 0.790994,-0.71383 1.818322,-0.71383 z m 0.01929,1.23955 q -0.612538,0 -1.022504,0.42926 -0.405143,0.42443 -0.405143,1.09002 0,0.68489 0.40032,1.10933 0.405143,0.42443 1.022504,0.42443 0.617362,0 1.027328,-0.42926 0.409966,-0.42926 0.409966,-1.1045 0,-0.67523 -0.405143,-1.09485 -0.40032,-0.42443 -1.027328,-0.42443 z" />
      <path
         id="path314"
         style="font-style:normal;font-variant:normal;font-weight:bold;font-stretch:normal;font-size:9.87778px;font-family:'Century Gothic';-inkscape-font-specification:'Century Gothic Bold';text-align:start;text-anchor:start;fill:#ff9400;fill-opacity:1;fill-rule:nonzero;stroke-width:1.18025"
         d="m 16.842089,290.75049 v -5.24757 h 2.10771 q 1.036974,0 1.408355,0.40997 0.371381,0.40514 0.371381,0.92121 0,0.76688 -0.762055,1.1045 1.041797,0.35691 1.041797,1.34566 0,0.53537 -0.274918,0.88745 -0.274919,0.34727 -0.699355,0.46302 -0.419613,0.11576 -1.176845,0.11576 z m 1.321539,-3.18327 h 0.506429 q 0.32315,0 0.496783,-0.15916 0.178456,-0.16399 0.178456,-0.36174 0,-0.29421 -0.16881,-0.4582 -0.16881,-0.16398 -0.40032,-0.16398 l -0.16881,0.005 h -0.443728 z m 0,2.17041 h 0.660769 q 0.385851,0 0.540191,-0.17845 0.159164,-0.18328 0.159164,-0.35692 0,-0.25562 -0.178456,-0.46784 -0.173633,-0.21222 -0.631831,-0.21222 h -0.549837 z" />
      <path
         id="path316"
         style="font-style:normal;font-variant:normal;font-weight:bold;font-stretch:normal;font-size:9.87778px;font-family:'Century Gothic';-inkscape-font-specification:'Century Gothic Bold';text-align:start;text-anchor:start;fill:#ff9400;fill-opacity:1;fill-rule:nonzero;stroke-width:1.18025"
         d="m 27.385462,288.50773 h -4.229889 q 0.09164,0.55949 0.487137,0.89228 0.40032,0.32798 1.017681,0.32798 0.73794,0 1.268485,-0.51608 l 1.109321,0.5209 q -0.41479,0.58842 -0.993566,0.87299 -0.578776,0.27974 -1.374593,0.27974 -1.234723,0 -2.011248,-0.77653 -0.776524,-0.78134 -0.776524,-1.95337 0,-1.20096 0.771701,-1.99195 0.776525,-0.79582 1.943724,-0.79582 1.239545,0 2.01607,0.79582 0.776525,0.79099 0.776525,2.09324 z m -1.321539,-1.03697 q -0.130224,-0.43891 -0.516075,-0.71383 -0.381028,-0.27491 -0.887457,-0.27491 -0.549837,0 -0.964627,0.30868 -0.260449,0.19292 -0.482313,0.68006 z" />
      <path
         id="path318"
         style="font-style:normal;font-variant:normal;font-weight:bold;font-stretch:normal;font-size:9.87778px;font-family:'Century Gothic';-inkscape-font-specification:'Century Gothic Bold';text-align:start;text-anchor:start;fill:#ff9400;fill-opacity:1;fill-rule:nonzero;stroke-width:1.18025"
         d="m 27.988353,285.50292 h 4.890659 v 1.25401 H 31.13786 v 3.99356 h -1.321539 v -3.99356 h -1.827968 z" />
      <path
         id="path320"
         style="font-style:normal;font-variant:normal;font-weight:bold;font-stretch:normal;font-size:9.87778px;font-family:'Century Gothic';-inkscape-font-specification:'Century Gothic Bold';text-align:start;text-anchor:start;fill:#ff9400;fill-opacity:1;fill-rule:nonzero;stroke-width:1.18025"
         d="m 37.620153,285.50292 h 1.311893 v 5.24757 h -1.311893 v -0.55466 q -0.385851,0.36656 -0.776525,0.53054 -0.38585,0.15917 -0.839225,0.15917 -1.017682,0 -1.760444,-0.78617 -0.742763,-0.791 -0.742763,-1.96302 0,-1.21543 0.718647,-1.99195 0.718647,-0.77653 1.745975,-0.77653 0.472667,0 0.887457,0.17846 0.414789,0.17845 0.766878,0.53537 z m -1.38424,1.08038 q -0.612538,0 -1.017681,0.43408 -0.405143,0.42926 -0.405143,1.1045 0,0.68006 0.409966,1.11897 0.41479,0.4389 1.017681,0.4389 0.622185,0 1.032151,-0.42925 0.409967,-0.43409 0.409967,-1.13344 0,-0.68489 -0.409967,-1.10932 -0.409966,-0.42444 -1.036974,-0.42444 z" />
      <path
         id="path322"
         style="font-style:normal;font-variant:normal;font-weight:bold;font-stretch:normal;font-size:9.87778px;font-family:'Century Gothic';-inkscape-font-specification:'Century Gothic Bold';text-align:start;text-anchor:start;fill:#ff9400;fill-opacity:1;fill-rule:nonzero;stroke-width:1.18025"
         d="m 43.702125,290.75049 v 0.91157 h -1.172021 v -2.02571 h 0.790994 l 1.808675,-4.13343 h 0.848872 l 1.832791,4.13343 H 48.6169 v 2.02571 h -1.254015 v -0.91157 z m 2.710602,-1.11414 -0.858518,-2.209 -0.887457,2.209 z" />
      <path
         id="path324"
         style="font-style:normal;font-variant:normal;font-weight:bold;font-stretch:normal;font-size:9.87778px;font-family:'Century Gothic';-inkscape-font-specification:'Century Gothic Bold';text-align:start;text-anchor:start;fill:#ff9400;fill-opacity:1;fill-rule:nonzero;stroke-width:1.18025"
         d="m 54.703696,288.50773 h -4.229889 q 0.09164,0.55949 0.487136,0.89228 0.400321,0.32798 1.017682,0.32798 0.737939,0 1.268484,-0.51608 l 1.109321,0.5209 q -0.414789,0.58842 -0.993566,0.87299 -0.578776,0.27974 -1.374593,0.27974 -1.234722,0 -2.011247,-0.77653 -0.776525,-0.78134 -0.776525,-1.95337 0,-1.20096 0.771702,-1.99195 0.776524,-0.79582 1.943723,-0.79582 1.239546,0 2.01607,0.79582 0.776525,0.79099 0.776525,2.09324 z m -1.321539,-1.03697 q -0.130225,-0.43891 -0.516075,-0.71383 -0.381028,-0.27491 -0.887457,-0.27491 -0.549838,0 -0.964627,0.30868 -0.260449,0.19292 -0.482314,0.68006 z" />
      <path
         id="path326"
         style="font-style:normal;font-variant:normal;font-weight:bold;font-stretch:normal;font-size:9.87778px;font-family:'Century Gothic';-inkscape-font-specification:'Century Gothic Bold';text-align:start;text-anchor:start;fill:#ff9400;fill-opacity:1;fill-rule:nonzero;stroke-width:1.18025"
         d="m 57.091148,290.75049 h -1.321539 v -5.24757 h 4.601271 v 5.24757 h -1.321539 v -3.97909 h -1.958193 z" />
      <path
         id="path328"
         style="font-style:normal;font-variant:normal;font-weight:bold;font-stretch:normal;font-size:9.87778px;font-family:'Century Gothic';-inkscape-font-specification:'Century Gothic Bold';text-align:start;text-anchor:start;fill:#ff9400;fill-opacity:1;fill-rule:nonzero;stroke-width:1.18025"
         d="m 61.113643,285.50292 h 1.345654 l 1.364947,3.2942 1.504818,-3.2942 h 1.350478 l -3.289378,7.16718 h -1.360124 l 1.080382,-2.31028 z" />
      <path
         id="path330"
         style="font-style:normal;font-variant:normal;font-weight:bold;font-stretch:normal;font-size:9.87778px;font-family:'Century Gothic';-inkscape-font-specification:'Century Gothic Bold';text-align:start;text-anchor:start;fill:#ff9400;fill-opacity:1;fill-rule:nonzero;stroke-width:1.18025"
         d="m 66.959279,285.50292 h 4.890659 v 1.25401 h -1.741152 v 3.99356 h -1.321539 v -3.99356 h -1.827968 z" />
      <path
         id="path332"
         style="font-style:normal;font-variant:normal;font-weight:bold;font-stretch:normal;font-size:9.87778px;font-family:'Century Gothic';-inkscape-font-specification:'Century Gothic Bold';text-align:start;text-anchor:start;fill:#ff9400;fill-opacity:1;fill-rule:nonzero;stroke-width:1.18025"
         d="m 76.591079,285.50292 h 1.311893 v 5.24757 h -1.311893 v -0.55466 q -0.385851,0.36656 -0.776524,0.53054 -0.385851,0.15917 -0.839226,0.15917 -1.017681,0 -1.760444,-0.78617 -0.742763,-0.791 -0.742763,-1.96302 0,-1.21543 0.718647,-1.99195 0.718647,-0.77653 1.745975,-0.77653 0.472667,0 0.887457,0.17846 0.414789,0.17845 0.766878,0.53537 z m -1.384239,1.08038 q -0.612539,0 -1.017682,0.43408 -0.405143,0.42926 -0.405143,1.1045 0,0.68006 0.409966,1.11897 0.41479,0.4389 1.017682,0.4389 0.622184,0 1.032151,-0.42925 0.409966,-0.43409 0.409966,-1.13344 0,-0.68489 -0.409966,-1.10932 -0.409967,-0.42444 -1.036974,-0.42444 z" />
      <path
         id="path334"
         style="font-style:normal;font-variant:normal;font-weight:bold;font-stretch:normal;font-size:9.87778px;font-family:'Century Gothic';-inkscape-font-specification:'Century Gothic Bold';text-align:start;text-anchor:start;fill:#ff9400;fill-opacity:1;fill-rule:nonzero;stroke-width:1.18025"
         d="m 78.766317,285.50292 h 4.890658 v 1.25401 h -1.741151 v 3.99356 h -1.321539 v -3.99356 h -1.827968 z" />
      <path
         id="path336"
         style="font-style:normal;font-variant:normal;font-weight:bold;font-stretch:normal;font-size:9.87778px;font-family:'Century Gothic';-inkscape-font-specification:'Century Gothic Bold';text-align:start;text-anchor:start;fill:#ff9400;fill-opacity:1;fill-rule:nonzero;stroke-width:1.18025"
         d="m 86.984938,285.36787 q 0.742763,0 1.393886,0.37138 0.655946,0.37138 1.022505,1.00804 0.366558,0.63665 0.366558,1.37459 0,0.74276 -0.371381,1.38906 -0.366559,0.6463 -1.003213,1.01286 -0.636653,0.36174 -1.403532,0.36174 -1.128613,0 -1.929254,-0.80064 -0.795817,-0.80547 -0.795817,-1.95337 0,-1.2299 0.901926,-2.04983 0.790994,-0.71383 1.818322,-0.71383 z m 0.01929,1.23955 q -0.612538,0 -1.022505,0.42926 -0.405143,0.42443 -0.405143,1.09002 0,0.68489 0.40032,1.10933 0.405143,0.42443 1.022505,0.42443 0.617361,0 1.027327,-0.42926 0.409967,-0.42926 0.409967,-1.1045 0,-0.67523 -0.405144,-1.09485 -0.40032,-0.42443 -1.027327,-0.42443 z" />
      <path
         id="path338"
         style="font-style:normal;font-variant:normal;font-weight:bold;font-stretch:normal;font-size:9.87778px;font-family:'Century Gothic';-inkscape-font-specification:'Century Gothic Bold';text-align:start;text-anchor:start;fill:#ff9400;fill-opacity:1;fill-rule:nonzero;stroke-width:1.18025"
         d="m 90.848266,290.75049 v -5.24757 h 2.10771 q 1.036974,0 1.408355,0.40997 0.371381,0.40514 0.371381,0.92121 0,0.76688 -0.762055,1.1045 1.041797,0.35691 1.041797,1.34566 0,0.53537 -0.274918,0.88745 -0.274919,0.34727 -0.699355,0.46302 -0.419613,0.11576 -1.176845,0.11576 z m 1.321539,-3.18327 h 0.506429 q 0.32315,0 0.496783,-0.15916 0.178456,-0.16399 0.178456,-0.36174 0,-0.29421 -0.16881,-0.4582 -0.16881,-0.16398 -0.40032,-0.16398 l -0.16881,0.005 h -0.443728 z m 0,2.17041 h 0.660769 q 0.385851,0 0.540191,-0.17845 0.159164,-0.18328 0.159164,-0.35692 0,-0.25562 -0.178456,-0.46784 -0.173633,-0.21222 -0.631831,-0.21222 h -0.549837 z" />
      <path
         id="path340"
         style="font-style:normal;font-variant:normal;font-weight:bold;font-stretch:normal;font-size:9.87778px;font-family:'Century Gothic';-inkscape-font-specification:'Century Gothic Bold';text-align:start;text-anchor:start;fill:#ff9400;fill-opacity:1;fill-rule:nonzero;stroke-width:1.18025"
         d="m 3.6459923,294.42632 h 1.3215389 l 1.6398658,4.94854 1.6639815,-4.94854 h 1.3022464 l 1.1961371,7.09483 H 9.4675159 l -0.7620553,-4.48069 -1.5096412,4.48069 H 6.0045052 l -1.4903487,-4.48069 -0.7765247,4.48069 H 2.420916 Z" />
      <path
         id="path342"
         style="font-style:normal;font-variant:normal;font-weight:bold;font-stretch:normal;font-size:9.87778px;font-family:'Century Gothic';-inkscape-font-specification:'Century Gothic Bold';text-align:start;text-anchor:start;fill:#ff9400;fill-opacity:1;fill-rule:nonzero;stroke-width:1.18025"
         d="m 15.207047,294.24787 q 1.504818,0 2.5852,1.09002 1.085205,1.09003 1.085205,2.65755 0,1.55305 -1.070736,2.62861 -1.065913,1.07556 -2.590023,1.07556 -1.596458,0 -2.652724,-1.1045 -1.056267,-1.1045 -1.056267,-2.62378 0,-1.01769 0.49196,-1.87138 0.49196,-0.8537 1.350478,-1.35048 0.863341,-0.5016 1.856907,-0.5016 z m -0.01447,1.32153 q -0.983919,0 -1.654335,0.68489 -0.670416,0.68488 -0.670416,1.74115 0,1.17685 0.844049,1.86173 0.655946,0.53537 1.504818,0.53537 0.959804,0 1.635043,-0.69453 0.675238,-0.69453 0.675238,-1.71222 0,-1.01285 -0.680062,-1.71221 -0.680062,-0.70418 -1.654335,-0.70418 z" />
      <path
         id="path344"
         style="font-style:normal;font-variant:normal;font-weight:bold;font-stretch:normal;font-size:9.87778px;font-family:'Century Gothic';-inkscape-font-specification:'Century Gothic Bold';text-align:start;text-anchor:start;fill:#ff9400;fill-opacity:1;fill-rule:nonzero;stroke-width:1.18025"
         d="m 23.102519,296.27358 h 1.229899 l -0.89228,2.64308 0.89228,2.60449 h -1.229899 l -0.882634,-2.60449 z m 2.189703,0 h 1.229899 l -0.89228,2.64308 0.89228,2.60449 h -1.229899 l -0.887457,-2.60449 z" />
      <path
         id="path346"
         style="font-style:normal;font-variant:normal;font-weight:bold;font-stretch:normal;font-size:9.87778px;font-family:'Century Gothic';-inkscape-font-specification:'Century Gothic Bold';text-align:start;text-anchor:start;fill:#ff9400;fill-opacity:1;fill-rule:nonzero;stroke-width:1.18025"
         d="m 27.457808,294.42632 h 3.520888 v 1.32154 h -2.18488 v 5.77329 h -1.336008 z" />
      <path
         id="path348"
         style="font-style:normal;font-variant:normal;font-weight:bold;font-stretch:normal;font-size:9.87778px;font-family:'Century Gothic';-inkscape-font-specification:'Century Gothic Bold';text-align:start;text-anchor:start;fill:#ff9400;fill-opacity:1;fill-rule:nonzero;stroke-width:1.18025"
         d="m 36.578356,301.52115 h -1.340831 l -1.311893,-3.31349 -1.336008,3.31349 h -1.336008 l 2.237934,-5.24757 h 0.848872 z" />
      <path
         id="path350"
         style="font-style:normal;font-variant:normal;font-weight:bold;font-stretch:normal;font-size:9.87778px;font-family:'Century Gothic';-inkscape-font-specification:'Century Gothic Bold';text-align:start;text-anchor:start;fill:#ff9400;fill-opacity:1;fill-rule:nonzero;stroke-width:1.18025"
         d="m 41.150688,296.27358 h 1.311892 v 5.24757 h -1.311892 v -0.55466 q -0.385851,0.36656 -0.776525,0.53055 -0.385851,0.15916 -0.839225,0.15916 -1.017682,0 -1.760445,-0.78617 -0.742762,-0.79099 -0.742762,-1.96302 0,-1.21543 0.718647,-1.99195 0.718647,-0.77653 1.745975,-0.77653 0.472667,0 0.887456,0.17846 0.41479,0.17846 0.766879,0.53537 z m -1.38424,1.08038 q -0.612538,0 -1.017681,0.43409 -0.405144,0.42926 -0.405144,1.10449 0,0.68007 0.409967,1.11897 0.414789,0.43891 1.017681,0.43891 0.622185,0 1.032151,-0.42926 0.409966,-0.43408 0.409966,-1.13344 0,-0.68488 -0.409966,-1.10932 -0.409966,-0.42444 -1.036974,-0.42444 z" />
      <path
         id="path352"
         style="font-style:normal;font-variant:normal;font-weight:bold;font-stretch:normal;font-size:9.87778px;font-family:'Century Gothic';-inkscape-font-specification:'Century Gothic Bold';text-align:start;text-anchor:start;fill:#ff9400;fill-opacity:1;fill-rule:nonzero;stroke-width:1.18025"
         d="m 44.671576,299.29769 v -0.94051 h 0.260449 q 0.265272,0 0.463021,-0.12541 0.197748,-0.1254 0.197748,-0.40514 0,-0.24116 -0.178455,-0.3955 -0.173633,-0.15916 -0.429259,-0.15916 -0.323151,0 -0.810287,0.3135 l -0.520899,-0.90674 q 0.680062,-0.5402 1.514465,-0.5402 0.766878,0 1.268484,0.40032 0.506429,0.3955 0.506429,1.07074 0,0.68489 -0.733116,1.10932 0.979096,0.36174 0.979096,1.30707 0,0.70418 -0.549837,1.1672 -0.549838,0.46302 -1.519288,0.46302 -1.065912,0 -1.760444,-0.59807 l 0.728293,-0.91639 q 0.467845,0.34726 0.887457,0.34726 0.33762,0 0.535368,-0.15916 0.197749,-0.16399 0.197749,-0.41961 0,-0.24598 -0.188103,-0.42926 -0.183279,-0.18328 -0.506429,-0.18328 z" />
      <path
         id="path354"
         style="font-style:normal;font-variant:normal;font-weight:bold;font-stretch:normal;font-size:9.87778px;font-family:'Century Gothic';-inkscape-font-specification:'Century Gothic Bold';text-align:start;text-anchor:start;fill:#ff9400;fill-opacity:1;fill-rule:nonzero;stroke-width:1.18025"
         d="m 50.714964,296.13853 q 0.742763,0 1.393886,0.37139 0.655947,0.37138 1.022505,1.00803 0.366558,0.63665 0.366558,1.37459 0,0.74277 -0.371381,1.38907 -0.366558,0.6463 -1.003212,1.01286 -0.636654,0.36173 -1.403532,0.36173 -1.128614,0 -1.929254,-0.80064 -0.795818,-0.80546 -0.795818,-1.95337 0,-1.2299 0.901927,-2.04983 0.790994,-0.71383 1.818321,-0.71383 z m 0.01929,1.23955 q -0.612538,0 -1.022505,0.42926 -0.405143,0.42443 -0.405143,1.09003 0,0.68488 0.40032,1.10932 0.405144,0.42443 1.022505,0.42443 0.617361,0 1.027327,-0.42926 0.409967,-0.42925 0.409967,-1.10449 0,-0.67524 -0.405143,-1.09485 -0.400321,-0.42444 -1.027328,-0.42444 z" />
      <path
         id="path356"
         style="font-style:normal;font-variant:normal;font-weight:bold;font-stretch:normal;font-size:9.87778px;font-family:'Century Gothic';-inkscape-font-specification:'Century Gothic Bold';text-align:start;text-anchor:start;fill:#ff9400;fill-opacity:1;fill-rule:nonzero;stroke-width:1.18025"
         d="m 54.578296,301.52115 v -5.24757 h 2.10771 q 1.036974,0 1.408355,0.40997 0.371381,0.40514 0.371381,0.92122 0,0.76688 -0.762055,1.10449 1.041797,0.35692 1.041797,1.34566 0,0.53537 -0.274918,0.88746 -0.274919,0.34726 -0.699355,0.46302 -0.419613,0.11575 -1.176845,0.11575 z m 1.321539,-3.18327 h 0.506429 q 0.32315,0 0.496783,-0.15916 0.178456,-0.16399 0.178456,-0.36174 0,-0.29421 -0.16881,-0.45819 -0.16881,-0.16399 -0.40032,-0.16399 l -0.16881,0.005 h -0.443728 z m 0,2.17041 h 0.660769 q 0.385851,0 0.540191,-0.17845 0.159164,-0.18328 0.159164,-0.35691 0,-0.25563 -0.178456,-0.46785 -0.173633,-0.21222 -0.631831,-0.21222 h -0.549837 z" />
      <path
         id="path358"
         style="font-style:normal;font-variant:normal;font-weight:bold;font-stretch:normal;font-size:9.87778px;font-family:'Century Gothic';-inkscape-font-specification:'Century Gothic Bold';text-align:start;text-anchor:start;fill:#ff9400;fill-opacity:1;fill-rule:nonzero;stroke-width:1.18025"
         d="m 65.00109,297.33467 -1.094852,0.60289 q -0.30868,-0.32315 -0.612538,-0.44855 -0.299034,-0.1254 -0.704177,-0.1254 -0.73794,0 -1.196138,0.44373 -0.453374,0.4389 -0.453374,1.12861 0,0.67042 0.438905,1.09485 0.438905,0.42444 1.152729,0.42444 0.882634,0 1.374593,-0.60289 l 1.036974,0.709 q -0.844048,1.09485 -2.382628,1.09485 -1.38424,0 -2.170411,-0.81993 -0.781348,-0.81994 -0.781348,-1.91961 0,-0.76206 0.381028,-1.40353 0.381028,-0.64148 1.06109,-1.00804 0.684885,-0.36656 1.528933,-0.36656 0.781348,0 1.403533,0.31351 0.622184,0.30868 1.017681,0.88263 z" />
      <path
         id="path360"
         style="font-style:normal;font-variant:normal;font-weight:bold;font-stretch:normal;font-size:9.87778px;font-family:'Century Gothic';-inkscape-font-specification:'Century Gothic Bold';text-align:start;text-anchor:start;fill:#ff9400;fill-opacity:1;fill-rule:nonzero;stroke-width:1.18025"
         d="m 66.192405,296.27358 h 1.316716 v 1.96302 l 1.813498,-1.96302 h 1.606104 l -2.33922,2.55626 2.368159,2.69131 h -1.745975 l -1.562695,-1.85208 -0.139871,0.16399 v 1.68809 h -1.316716 z" />
      <path
         id="path362"
         style="font-style:normal;font-variant:normal;font-weight:bold;font-stretch:normal;font-size:9.87778px;font-family:'Century Gothic';-inkscape-font-specification:'Century Gothic Bold';text-align:start;text-anchor:start;fill:#ff9400;fill-opacity:1;fill-rule:nonzero;stroke-width:1.18025"
         d="m 72.192387,301.52115 h -0.699355 v -5.24757 h 1.282954 v 3.08198 l 2.686486,-3.08198 h 0.631831 v 5.24757 h -1.282954 v -3.01928 z" />
      <path
         id="path364"
         style="font-style:normal;font-variant:normal;font-weight:bold;font-stretch:normal;font-size:9.87778px;font-family:'Century Gothic';-inkscape-font-specification:'Century Gothic Bold';text-align:start;text-anchor:start;fill:#ff9400;fill-opacity:1;fill-rule:nonzero;stroke-width:1.18025"
         d="m 78.115193,301.52115 h -0.699355 v -5.24757 h 1.282954 v 3.08198 l 2.686486,-3.08198 h 0.631831 v 5.24757 h -1.282954 v -3.01928 z m -0.313504,-7.56267 h 1.065913 q 0.125401,0.19775 0.347265,0.29903 0.226688,0.0965 0.549838,0.0965 0.327973,0 0.593245,-0.11575 0.173633,-0.0772 0.303858,-0.27974 h 1.065912 q -0.09164,0.61254 -0.588422,0.98392 -0.49196,0.37138 -1.379417,0.37138 -0.598068,0 -1.003212,-0.16399 -0.40032,-0.16881 -0.6463,-0.47749 -0.245979,-0.30868 -0.30868,-0.71382 z" />
      <path
         id="path366"
         style="font-style:normal;font-variant:normal;font-weight:bold;font-stretch:normal;font-size:9.87778px;font-family:'Century Gothic';-inkscape-font-specification:'Century Gothic Bold';text-align:start;text-anchor:start;fill:#ff9400;fill-opacity:1;fill-rule:nonzero;stroke-width:1.18025"
         d="m 87.409371,296.27358 v 0.57878 q 0.356912,-0.35691 0.771702,-0.53537 0.414789,-0.17846 0.887457,-0.17846 1.027327,0 1.745974,0.77653 0.718647,0.77652 0.718647,1.99195 0,1.17203 -0.742762,1.96302 -0.742763,0.78617 -1.760444,0.78617 -0.453375,0 -0.844049,-0.15916 -0.390674,-0.16399 -0.776525,-0.53055 v 2.47427 h -1.307069 v -7.16718 z m 1.38424,1.08038 q -0.622184,0 -1.032151,0.42444 -0.409966,0.42444 -0.409966,1.10932 0,0.69936 0.409966,1.13344 0.409967,0.42926 1.032151,0.42926 0.602892,0 1.012858,-0.43891 0.41479,-0.4389 0.41479,-1.11897 0,-0.67523 -0.405143,-1.10449 -0.405144,-0.43409 -1.022505,-0.43409 z" />
      <path
         id="path368"
         style="font-style:normal;font-variant:normal;font-weight:bold;font-stretch:normal;font-size:9.87778px;font-family:'Century Gothic';-inkscape-font-specification:'Century Gothic Bold';text-align:start;text-anchor:start;fill:#ff9400;fill-opacity:1;fill-rule:nonzero;stroke-width:1.18025"
         d="m 96.500984,296.27358 h 1.311892 v 5.24757 h -1.311892 v -0.55466 q -0.385851,0.36656 -0.776525,0.53055 -0.385851,0.15916 -0.839225,0.15916 -1.017682,0 -1.760445,-0.78617 -0.742762,-0.79099 -0.742762,-1.96302 0,-1.21543 0.718647,-1.99195 0.718647,-0.77653 1.745975,-0.77653 0.472667,0 0.887456,0.17846 0.41479,0.17846 0.766879,0.53537 z m -1.38424,1.08038 q -0.612538,0 -1.017681,0.43409 -0.405144,0.42926 -0.405144,1.10449 0,0.68007 0.409967,1.11897 0.414789,0.43891 1.017681,0.43891 0.622185,0 1.032151,-0.42926 0.409967,-0.43408 0.409967,-1.13344 0,-0.68488 -0.409967,-1.10932 -0.409966,-0.42444 -1.036974,-0.42444 z" />
      <path
         id="path370"
         style="font-style:normal;font-variant:normal;font-weight:bold;font-stretch:normal;font-size:9.87778px;font-family:'Century Gothic';-inkscape-font-specification:'Century Gothic Bold';text-align:start;text-anchor:start;fill:#ff9400;fill-opacity:1;fill-rule:nonzero;stroke-width:1.18025"
         d="m 99.838596,301.52115 h -0.699354 v -5.24757 h 1.282958 v 3.08198 l 2.68648,-3.08198 h 0.63183 v 5.24757 h -1.28295 v -3.01928 z m -0.313503,-7.56267 h 1.065917 q 0.1254,0.19775 0.34726,0.29903 0.22669,0.0965 0.54984,0.0965 0.32797,0 0.59324,-0.11575 0.17364,-0.0772 0.30386,-0.27974 h 1.06591 q -0.0916,0.61254 -0.58842,0.98392 -0.49196,0.37138 -1.37941,0.37138 -0.59807,0 -1.00322,-0.16399 -0.40032,-0.16881 -0.646297,-0.47749 -0.24598,-0.30868 -0.30868,-0.71382 z" />
      <path
         id="path372"
         style="font-style:normal;font-variant:normal;font-weight:bold;font-stretch:normal;font-size:9.87778px;font-family:'Century Gothic';-inkscape-font-specification:'Century Gothic Bold';text-align:start;text-anchor:start;fill:#ff9400;fill-opacity:1;fill-rule:nonzero;stroke-width:1.18025"
         d="m 107.53149,296.13853 q 0.74277,0 1.39389,0.37139 0.65594,0.37138 1.0225,1.00803 0.36656,0.63665 0.36656,1.37459 0,0.74277 -0.37138,1.38907 -0.36656,0.6463 -1.00321,1.01286 -0.63666,0.36173 -1.40353,0.36173 -1.12862,0 -1.92926,-0.80064 -0.79582,-0.80546 -0.79582,-1.95337 0,-1.2299 0.90193,-2.04983 0.791,-0.71383 1.81832,-0.71383 z m 0.0193,1.23955 q -0.61254,0 -1.02251,0.42926 -0.40514,0.42443 -0.40514,1.09003 0,0.68488 0.40032,1.10932 0.40514,0.42443 1.0225,0.42443 0.61736,0 1.02733,-0.42926 0.40997,-0.42925 0.40997,-1.10449 0,-0.67524 -0.40515,-1.09485 -0.40032,-0.42444 -1.02732,-0.42444 z" />
      <path
         id="path374"
         style="font-style:normal;font-variant:normal;font-weight:bold;font-stretch:normal;font-size:9.87778px;font-family:'Century Gothic';-inkscape-font-specification:'Century Gothic Bold';text-align:start;text-anchor:start;fill:#ff9400;fill-opacity:1;fill-rule:nonzero;stroke-width:1.18025"
         d="m 112.71154,298.16425 h 1.95819 v -1.89067 h 1.32154 v 5.24757 h -1.32154 v -2.17523 h -1.95819 v 2.17523 H 111.39 v -5.24757 h 1.32154 z" />
      <path
         id="path376"
         style="font-style:normal;font-variant:normal;font-weight:bold;font-stretch:normal;font-size:9.87778px;font-family:'Century Gothic';-inkscape-font-specification:'Century Gothic Bold';text-align:start;text-anchor:start;fill:#ff9400;fill-opacity:1;fill-rule:nonzero;stroke-width:1.18025"
         d="m 120.1874,301.52115 h -1.2299 l 0.8971,-2.64308 -0.8971,-2.60449 h 1.2299 l 0.88746,2.60449 z m -2.18488,0 h -1.2299 l 0.89228,-2.64308 -0.89228,-2.60449 h 1.2299 l 0.88263,2.60449 z" />
      <path
         id="path378"
         style="font-style:normal;font-variant:normal;font-weight:bold;font-stretch:normal;font-size:9.87778px;font-family:'Century Gothic';-inkscape-font-specification:'Century Gothic Bold';text-align:start;text-anchor:start;fill:#ff9400;fill-opacity:1;fill-rule:nonzero;stroke-width:1.18025"
         d="m 122.5025,300.18514 0.94052,0.47267 -1.19132,2.03536 -0.65595,-0.3135 z" />
      <path
         id="path380"
         style="text-align:start;text-anchor:start"
         d="m 2.348569,307.04424 h 4.8906587 v 1.25402 H 5.498076 v 3.99355 H 4.1765371 v -3.99355 H 2.348569 Z" />
      <path
         id="path382"
         style="text-align:start;text-anchor:start"
         d="m 9.4096383,307.04424 v 0.57878 q 0.356912,-0.35691 0.7717017,-0.53537 0.414789,-0.17845 0.887457,-0.17845 1.027327,0 1.745974,0.77652 0.718648,0.77653 0.718648,1.99196 0,1.17202 -0.742763,1.96301 -0.742763,0.78617 -1.760444,0.78617 -0.453375,0 -0.844049,-0.15916 -0.3906739,-0.16399 -0.7765247,-0.53055 v 2.47427 H 8.1025688 v -7.16718 z m 1.3842397,1.08039 q -0.622184,0 -1.0321509,0.42443 -0.4099664,0.42444 -0.4099664,1.10932 0,0.69936 0.4099664,1.13344 0.4099669,0.42926 1.0321509,0.42926 0.602892,0 1.012858,-0.43891 0.41479,-0.4389 0.41479,-1.11896 0,-0.67524 -0.405143,-1.1045 -0.405144,-0.43408 -1.022505,-0.43408 z" />
      <path
         id="path384"
         style="text-align:start;text-anchor:start"
         d="m 19.880664,310.04906 h -4.22989 q 0.09164,0.55948 0.487137,0.89228 0.40032,0.32797 1.017681,0.32797 0.73794,0 1.268485,-0.51608 l 1.109321,0.5209 q -0.41479,0.58843 -0.993566,0.87299 -0.578776,0.27974 -1.374593,0.27974 -1.234723,0 -2.011248,-0.77652 -0.776524,-0.78135 -0.776524,-1.95337 0,-1.20096 0.771701,-1.99196 0.776525,-0.79581 1.943724,-0.79581 1.239545,0 2.01607,0.79581 0.776525,0.791 0.776525,2.09324 z m -1.321539,-1.03698 q -0.130225,-0.4389 -0.516076,-0.71382 -0.381027,-0.27492 -0.887457,-0.27492 -0.549837,0 -0.964627,0.30868 -0.260449,0.19293 -0.482313,0.68006 z" />
      <path
         id="path386"
         style="text-align:start;text-anchor:start"
         d="m 20.483556,307.04424 h 4.890659 v 1.25402 h -1.741152 v 3.99355 h -1.321539 v -3.99355 h -1.827968 z" />
      <path
         id="path388"
         style="text-align:start;text-anchor:start"
         d="m 27.554271,308.93491 h 0.390674 q 0.824756,0 1.263662,0.13023 0.443728,0.1254 0.747586,0.53054 0.303857,0.40515 0.303857,1.01768 0,0.60772 -0.274919,1.01286 -0.274918,0.40032 -0.704177,0.53537 -0.424436,0.13022 -1.196138,0.13022 h -1.852083 v -5.24757 h 1.321538 z m 0,2.34405 h 0.400321 q 0.356912,0 0.516075,-0.0482 0.159164,-0.0531 0.279742,-0.19775 0.120578,-0.1447 0.120578,-0.35209 0,-0.67524 -0.771701,-0.67524 h -0.545015 z" />
      <path
         id="path390"
         style="text-align:start;text-anchor:start"
         d="m 36.530125,310.04906 h -4.229889 q 0.09164,0.55948 0.487137,0.89228 0.40032,0.32797 1.017681,0.32797 0.73794,0 1.268485,-0.51608 l 1.109321,0.5209 q -0.41479,0.58843 -0.993566,0.87299 -0.578776,0.27974 -1.374594,0.27974 -1.234722,0 -2.011247,-0.77652 -0.776524,-0.78135 -0.776524,-1.95337 0,-1.20096 0.771701,-1.99196 0.776525,-0.79581 1.943723,-0.79581 1.239546,0 2.016071,0.79581 0.776524,0.791 0.776524,2.09324 z m -1.321539,-1.03698 q -0.130224,-0.4389 -0.516075,-0.71382 -0.381028,-0.27492 -0.887457,-0.27492 -0.549837,0 -0.964627,0.30868 -0.260449,0.19293 -0.482313,0.68006 z" />
      <path
         id="path392"
         style="text-align:start;text-anchor:start"
         d="m 37.596037,307.04424 h 3.06269 v 1.25402 h -1.741151 v 3.99355 h -1.321539 z" />
      <path
         id="path394"
         style="text-align:start;text-anchor:start"
         d="m 44.020453,306.9092 q 0.742763,0 1.393886,0.37138 0.655946,0.37138 1.022504,1.00803 0.366559,0.63666 0.366559,1.3746 0,0.74276 -0.371382,1.38906 -0.366558,0.6463 -1.003212,1.01286 -0.636653,0.36173 -1.403532,0.36173 -1.128613,0 -1.929254,-0.80064 -0.795817,-0.80546 -0.795817,-1.95337 0,-1.2299 0.901926,-2.04983 0.790994,-0.71382 1.818322,-0.71382 z m 0.01929,1.23954 q -0.612539,0 -1.022505,0.42926 -0.405143,0.42444 -0.405143,1.09003 0,0.68488 0.40032,1.10932 0.405143,0.42444 1.022504,0.42444 0.617362,0 1.027328,-0.42926 0.409967,-0.42926 0.409967,-1.1045 0,-0.67524 -0.405144,-1.09485 -0.40032,-0.42444 -1.027327,-0.42444 z" />
      <path
         id="path396"
         style="text-align:start;text-anchor:start"
         d="m 55.779258,308.10533 -1.094852,0.6029 q -0.30868,-0.32315 -0.612538,-0.44856 -0.299034,-0.1254 -0.704178,-0.1254 -0.737939,0 -1.196137,0.44373 -0.453375,0.43891 -0.453375,1.12861 0,0.67042 0.438906,1.09486 0.438905,0.42443 1.152729,0.42443 0.882633,0 1.374593,-0.60289 l 1.036974,0.709 q -0.844048,1.09485 -2.382628,1.09485 -1.38424,0 -2.170411,-0.81993 -0.781348,-0.81993 -0.781348,-1.91961 0,-0.76205 0.381028,-1.40353 0.381027,-0.64148 1.061089,-1.00804 0.684886,-0.36655 1.528934,-0.36655 0.781348,0 1.403532,0.3135 0.622185,0.30868 1.017682,0.88263 z" />
      <path
         id="path398"
         style="text-align:start;text-anchor:start"
         d="m 59.435194,306.9092 q 0.742763,0 1.393886,0.37138 0.655947,0.37138 1.022505,1.00803 0.366558,0.63666 0.366558,1.3746 0,0.74276 -0.371381,1.38906 -0.366558,0.6463 -1.003212,1.01286 -0.636654,0.36173 -1.403532,0.36173 -1.128614,0 -1.929254,-0.80064 -0.795818,-0.80546 -0.795818,-1.95337 0,-1.2299 0.901927,-2.04983 0.790994,-0.71382 1.818321,-0.71382 z m 0.01929,1.23954 q -0.612538,0 -1.022505,0.42926 -0.405143,0.42444 -0.405143,1.09003 0,0.68488 0.40032,1.10932 0.405144,0.42444 1.022505,0.42444 0.617361,0 1.027328,-0.42926 0.409966,-0.42926 0.409966,-1.1045 0,-0.67524 -0.405143,-1.09485 -0.40032,-0.42444 -1.027328,-0.42444 z" />
      <path
         id="path400"
         style="text-align:start;text-anchor:start"
         d="m 64.176333,310.06835 v -0.94051 h 0.260449 q 0.265272,0 0.463021,-0.1254 0.197748,-0.1254 0.197748,-0.40515 0,-0.24115 -0.178456,-0.39549 -0.173632,-0.15917 -0.429259,-0.15917 -0.32315,0 -0.810286,0.31351 l -0.520899,-0.90675 q 0.680062,-0.54019 1.514465,-0.54019 0.766878,0 1.268484,0.40032 0.506429,0.39549 0.506429,1.07073 0,0.68489 -0.733116,1.10932 0.979096,0.36174 0.979096,1.30707 0,0.70418 -0.549837,1.1672 -0.549838,0.46302 -1.519288,0.46302 -1.065913,0 -1.760444,-0.59807 l 0.728293,-0.91639 q 0.467844,0.34726 0.887457,0.34726 0.33762,0 0.535368,-0.15916 0.197749,-0.16399 0.197749,-0.41961 0,-0.24598 -0.188103,-0.42926 -0.183279,-0.18328 -0.506429,-0.18328 z" />
      <path
         id="path402"
         style="text-align:start;text-anchor:start"
         d="m 69.071819,308.93491 h 0.390674 q 0.824756,0 1.263661,0.13023 0.443729,0.1254 0.747586,0.53054 0.303858,0.40515 0.303858,1.01768 0,0.60772 -0.274919,1.01286 -0.274919,0.40032 -0.704178,0.53537 -0.424436,0.13022 -1.196137,0.13022 H 67.75028 v -5.24757 h 1.321539 z m 0,2.34405 h 0.40032 q 0.356912,0 0.516076,-0.0482 0.159163,-0.0531 0.279741,-0.19775 0.120579,-0.1447 0.120579,-0.35209 0,-0.67524 -0.771702,-0.67524 h -0.545014 z m 3.622174,-4.23472 h 1.316716 v 5.24757 h -1.316716 z" />
      <path
         id="path404"
         style="text-align:start;text-anchor:start"
         d="m 75.337066,312.29181 v -5.24757 h 2.10771 q 1.036974,0 1.408355,0.40997 0.371381,0.40514 0.371381,0.92122 0,0.76688 -0.762055,1.1045 1.041797,0.35691 1.041797,1.34565 0,0.53537 -0.274918,0.88746 -0.274919,0.34726 -0.699355,0.46302 -0.419613,0.11575 -1.176845,0.11575 z m 1.321539,-3.18326 h 0.506429 q 0.32315,0 0.496783,-0.15917 0.178456,-0.16398 0.178456,-0.36173 0,-0.29421 -0.16881,-0.4582 -0.16881,-0.16399 -0.40032,-0.16399 l -0.16881,0.005 h -0.443728 z m 0,2.17041 h 0.660769 q 0.385851,0 0.540191,-0.17846 0.159164,-0.18328 0.159164,-0.35691 0,-0.25563 -0.178456,-0.46785 -0.173633,-0.21221 -0.631831,-0.21221 h -0.549837 z" />
      <path
         id="path406"
         style="text-align:start;text-anchor:start"
         d="m 84.501022,307.04424 h 1.311893 v 5.24757 h -1.311893 v -0.55466 q -0.385851,0.36656 -0.776525,0.53055 -0.385851,0.15916 -0.839225,0.15916 -1.017682,0 -1.760444,-0.78617 -0.742763,-0.79099 -0.742763,-1.96301 0,-1.21543 0.718647,-1.99196 0.718647,-0.77652 1.745975,-0.77652 0.472667,0 0.887456,0.17845 0.41479,0.17846 0.766879,0.53537 z m -1.38424,1.08039 q -0.612538,0 -1.017681,0.43408 -0.405144,0.42926 -0.405144,1.1045 0,0.68006 0.409967,1.11896 0.41479,0.43891 1.017681,0.43891 0.622185,0 1.032151,-0.42926 0.409967,-0.43408 0.409967,-1.13344 0,-0.68488 -0.409967,-1.10932 -0.409966,-0.42443 -1.036974,-0.42443 z" />
    </g>
  </g>
</svg>
