<?xml version="1.0" encoding="UTF-8" standalone="no"?>
<!-- Created with Inkscape (http://www.inkscape.org/) -->

<svg
   xmlns:dc="http://purl.org/dc/elements/1.1/"
   xmlns:cc="http://creativecommons.org/ns#"
   xmlns:rdf="http://www.w3.org/1999/02/22-rdf-syntax-ns#"
   xmlns:svg="http://www.w3.org/2000/svg"
   xmlns="http://www.w3.org/2000/svg"
   xmlns:sodipodi="http://sodipodi.sourceforge.net/DTD/sodipodi-0.dtd"
   xmlns:inkscape="http://www.inkscape.org/namespaces/inkscape"
   width="22pc"
   height="4pc"
   viewBox="0 0 93.133372 16.933332"
   version="1.1"
   id="svg8"
   inkscape:version="0.92.2 (5c3e80d, 2017-08-06)"
   sodipodi:docname="5str.svg">
  <defs
     id="defs2">
    <clipPath
       clipPathUnits="userSpaceOnUse"
       id="clipPath7909">
      <g
         id="use7911"
         inkscape:label="Clip">
        <text
           xml:space="preserve"
           style="font-style:normal;font-weight:normal;font-size:10.58333302px;line-height:1.25;font-family:sans-serif;letter-spacing:0px;word-spacing:0px;fill:#ffffff;fill-opacity:1;stroke:none;stroke-width:0.26458332"
           x="82.876579"
           y="384.59238"
           id="text3938"><tspan
             sodipodi:role="line"
             id="tspan3936"
             x="82.876579"
             y="384.59238"
             style="font-style:normal;font-variant:normal;font-weight:normal;font-stretch:normal;font-size:3.52777767px;font-family:EuropeDemi;-inkscape-font-specification:EuropeDemi;fill:#ffffff;stroke-width:0.26458332"><tspan
               style="font-size:2.82222223px"
               id="tspan3934">ГЛАЗОВСКАЯ РАЙОННАЯ БИБЛИОТЕКА</tspan></tspan></text>
      </g>
    </clipPath>
  </defs>
  <sodipodi:namedview
     id="base"
     pagecolor="#ffffff"
     bordercolor="#666666"
     borderopacity="1.0"
     inkscape:pageopacity="0.0"
     inkscape:pageshadow="2"
     inkscape:zoom="0.49497475"
     inkscape:cx="-42.91345"
     inkscape:cy="97.291892"
     inkscape:document-units="mm"
     inkscape:current-layer="layer1"
     showgrid="false"
     inkscape:lockguides="false"
     showguides="false"
     units="pc"
     inkscape:window-width="1280"
     inkscape:window-height="972"
     inkscape:window-x="-8"
     inkscape:window-y="-8"
     inkscape:window-maximized="1"
     showborder="true"
     inkscape:pagecheckerboard="true" />
  <metadata
     id="metadata5">
    <rdf:RDF>
      <cc:Work
         rdf:about="">
        <dc:format>image/svg+xml</dc:format>
        <dc:type
           rdf:resource="http://purl.org/dc/dcmitype/StillImage" />
        <dc:title />
      </cc:Work>
    </rdf:RDF>
  </metadata>
  <g
     inkscape:label="Layer 1"
     inkscape:groupmode="layer"
     id="layer1"
     transform="translate(0,-280.06662)">
    <g
       aria-label="5 страница "
       style="font-style:normal;font-weight:normal;font-size:47.20985794px;line-height:1.25;font-family:sans-serif;letter-spacing:0px;word-spacing:0px;fill:#ffffff;fill-opacity:1;stroke:none;stroke-width:1.18024635"
       id="text8270">
      <path
         d="m 3.0149381,281.52624 h 5.2942046 v 1.98245 H 4.6208724 l -0.4610338,2.05928 q 0.1920974,-0.0538 0.376511,-0.0768 0.1844135,-0.0307 0.3534592,-0.0307 1.5367793,0 2.5510536,1.05269 1.0219583,1.04501 1.0219583,2.68168 0,1.65204 -1.1295328,2.78926 -1.1218489,1.12953 -2.7354672,1.12953 -1.4445725,0 -2.4818985,-0.82218 Q 1.0785962,291.4692 0.7558725,290.04 h 2.2590656 q 0.2612524,0.53019 0.6838667,0.80681 0.4302982,0.26894 0.9451193,0.26894 0.7146024,0 1.2140557,-0.51483 0.4994532,-0.51482 0.4994532,-1.32163 0,-0.78375 -0.4687177,-1.28321 -0.4610337,-0.50713 -1.1218488,-0.50713 -0.3534593,0 -0.6992346,0.17673 -0.3380915,0.17673 -0.668499,0.53018 l -1.7519284,-0.39187 z"
         style="font-style:normal;font-variant:normal;font-weight:bold;font-stretch:normal;font-family:'Century Gothic';-inkscape-font-specification:'Century Gothic Bold'"
         id="path8272" />
      <path
         d="m 22.847076,286.15963 -1.744245,0.96049 q -0.491769,-0.51482 -0.975855,-0.7146 -0.476401,-0.19978 -1.121848,-0.19978 -1.175637,0 -1.905607,0.70691 -0.722286,0.69924 -0.722286,1.79804 0,1.06806 0.699235,1.74424 0.699234,0.67618 1.836451,0.67618 1.406153,0 2.18991,-0.96048 l 1.652038,1.12953 q -1.344682,1.74424 -3.795845,1.74424 -2.205278,0 -3.457753,-1.30626 -1.244791,-1.30626 -1.244791,-3.05819 0,-1.21406 0.607027,-2.23601 0.607028,-1.02196 1.690458,-1.60594 1.091113,-0.58397 2.435795,-0.58397 1.244791,0 2.236014,0.49945 0.991222,0.49177 1.621302,1.40615 z"
         style="font-style:normal;font-variant:normal;font-weight:bold;font-stretch:normal;font-family:'Century Gothic';-inkscape-font-specification:'Century Gothic Bold'"
         id="path8274" />
      <path
         d="m 23.99966,284.46917 h 7.791471 v 1.99782 h -2.773886 v 6.36226 h -2.105388 v -6.36226 H 23.99966 Z"
         style="font-style:normal;font-variant:normal;font-weight:bold;font-stretch:normal;font-family:'Century Gothic';-inkscape-font-specification:'Century Gothic Bold'"
         id="path8276" />
      <path
         d="m 35.248885,284.46917 v 0.92207 q 0.568608,-0.56861 1.229423,-0.85291 0.660815,-0.2843 1.413837,-0.2843 1.63667,0 2.781571,1.2371 1.1449,1.23711 1.1449,3.17345 0,1.86719 -1.18332,3.12735 -1.18332,1.25247 -2.804622,1.25247 -0.722286,0 -1.344682,-0.25357 -0.622395,-0.26125 -1.237107,-0.84522 v 3.94183 h -2.082336 v -11.41827 z m 2.205278,1.7212 q -0.991222,0 -1.644354,0.67618 -0.653131,0.67618 -0.653131,1.7673 0,1.11416 0.653131,1.80571 0.653132,0.68387 1.644354,0.68387 0.960487,0 1.613618,-0.69924 0.660816,-0.69923 0.660816,-1.78266 0,-1.07574 -0.645448,-1.75961 -0.645447,-0.69155 -1.628986,-0.69155 z"
         style="font-style:normal;font-variant:normal;font-weight:bold;font-stretch:normal;font-family:'Century Gothic';-inkscape-font-specification:'Century Gothic Bold'"
         id="path8278" />
      <path
         d="m 49.73303,284.46917 h 2.09002 v 8.36008 h -2.09002 v -0.88364 q -0.614712,0.58397 -1.237108,0.84522 -0.614711,0.25357 -1.336998,0.25357 -1.621302,0 -2.804622,-1.25247 -1.18332,-1.26016 -1.18332,-3.12735 0,-1.93634 1.144901,-3.17345 1.1449,-1.2371 2.78157,-1.2371 0.753022,0 1.413837,0.2843 0.660815,0.2843 1.22174,0.85291 z m -2.205279,1.7212 q -0.975854,0 -1.621302,0.69155 -0.645447,0.68387 -0.645447,1.75961 0,1.08343 0.653131,1.78266 0.660815,0.69924 1.621302,0.69924 0.991223,0 1.644354,-0.68387 0.653131,-0.69155 0.653131,-1.80571 0,-1.09112 -0.653131,-1.7673 -0.653131,-0.67618 -1.652038,-0.67618 z"
         style="font-style:normal;font-variant:normal;font-weight:bold;font-stretch:normal;font-family:'Century Gothic';-inkscape-font-specification:'Century Gothic Bold'"
         id="path8280" />
      <path
         d="m 56.041507,287.48126 h 3.119662 v -3.01209 h 2.105387 v 8.36008 h -2.105387 v -3.46543 h -3.119662 v 3.46543 h -2.105388 v -8.36008 h 2.105388 z"
         style="font-style:normal;font-variant:normal;font-weight:bold;font-stretch:normal;font-family:'Century Gothic';-inkscape-font-specification:'Century Gothic Bold'"
         id="path8282" />
      <path
         d="m 64.486109,292.82925 h -1.114165 v -8.36008 h 2.043917 v 4.91001 l 4.27993,-4.91001 h 1.006591 v 8.36008 h -2.043917 v -4.81012 z"
         style="font-style:normal;font-variant:normal;font-weight:bold;font-stretch:normal;font-family:'Century Gothic';-inkscape-font-specification:'Century Gothic Bold'"
         id="path8284" />
      <path
         d="m 72.807766,292.82925 v -8.36008 h 2.105388 v 6.3469 h 3.119662 v -6.3469 h 2.105387 v 6.3469 h 2.12844 v 3.48081 h -1.997814 v -1.46763 z"
         style="font-style:normal;font-variant:normal;font-weight:bold;font-stretch:normal;font-family:'Century Gothic';-inkscape-font-specification:'Century Gothic Bold'"
         id="path8286" />
      <path
         d="m 89.597085,284.46917 h 2.09002 v 8.36008 h -2.09002 v -0.88364 q -0.614711,0.58397 -1.237107,0.84522 -0.614712,0.25357 -1.336998,0.25357 -1.621302,0 -2.804622,-1.25247 -1.18332,-1.26016 -1.18332,-3.12735 0,-1.93634 1.1449,-3.17345 1.144901,-1.2371 2.781571,-1.2371 0.753022,0 1.413837,0.2843 0.660815,0.2843 1.221739,0.85291 z m -2.205278,1.7212 q -0.975855,0 -1.621302,0.69155 -0.645447,0.68387 -0.645447,1.75961 0,1.08343 0.653131,1.78266 0.660815,0.69924 1.621302,0.69924 0.991223,0 1.644354,-0.68387 0.653131,-0.69155 0.653131,-1.80571 0,-1.09112 -0.653131,-1.7673 -0.653131,-0.67618 -1.652038,-0.67618 z"
         style="font-style:normal;font-variant:normal;font-weight:bold;font-stretch:normal;font-family:'Century Gothic';-inkscape-font-specification:'Century Gothic Bold'"
         id="path8288" />
    </g>
  </g>
</svg>
