<?xml version="1.0" encoding="UTF-8" standalone="no"?>
<!-- Created with Inkscape (http://www.inkscape.org/) -->

<svg
   xmlns:dc="http://purl.org/dc/elements/1.1/"
   xmlns:cc="http://creativecommons.org/ns#"
   xmlns:rdf="http://www.w3.org/1999/02/22-rdf-syntax-ns#"
   xmlns:svg="http://www.w3.org/2000/svg"
   xmlns="http://www.w3.org/2000/svg"
   xmlns:sodipodi="http://sodipodi.sourceforge.net/DTD/sodipodi-0.dtd"
   xmlns:inkscape="http://www.inkscape.org/namespaces/inkscape"
   width="22pc"
   height="4pc"
   viewBox="0 0 93.133372 16.933332"
   version="1.1"
   id="svg8"
   inkscape:version="0.92.2 (5c3e80d, 2017-08-06)"
   sodipodi:docname="6str.svg">
  <defs
     id="defs2">
    <clipPath
       clipPathUnits="userSpaceOnUse"
       id="clipPath7909">
      <g
         id="use7911"
         inkscape:label="Clip">
        <text
           xml:space="preserve"
           style="font-style:normal;font-weight:normal;font-size:10.58333302px;line-height:1.25;font-family:sans-serif;letter-spacing:0px;word-spacing:0px;fill:#ffffff;fill-opacity:1;stroke:none;stroke-width:0.26458332"
           x="82.876579"
           y="384.59238"
           id="text4662"><tspan
             sodipodi:role="line"
             id="tspan4660"
             x="82.876579"
             y="384.59238"
             style="font-style:normal;font-variant:normal;font-weight:normal;font-stretch:normal;font-size:3.52777767px;font-family:EuropeDemi;-inkscape-font-specification:EuropeDemi;fill:#ffffff;stroke-width:0.26458332"><tspan
               style="font-size:2.82222223px"
               id="tspan4658">ГЛАЗОВСКАЯ РАЙОННАЯ БИБЛИОТЕКА</tspan></tspan></text>
      </g>
    </clipPath>
  </defs>
  <sodipodi:namedview
     id="base"
     pagecolor="#ffffff"
     bordercolor="#666666"
     borderopacity="1.0"
     inkscape:pageopacity="0.0"
     inkscape:pageshadow="2"
     inkscape:zoom="0.35"
     inkscape:cx="538.29596"
     inkscape:cy="-209.62225"
     inkscape:document-units="mm"
     inkscape:current-layer="layer1"
     showgrid="false"
     inkscape:lockguides="false"
     showguides="false"
     units="pc"
     inkscape:window-width="1280"
     inkscape:window-height="972"
     inkscape:window-x="-8"
     inkscape:window-y="-8"
     inkscape:window-maximized="1"
     showborder="true"
     inkscape:pagecheckerboard="true" />
  <metadata
     id="metadata5">
    <rdf:RDF>
      <cc:Work
         rdf:about="">
        <dc:format>image/svg+xml</dc:format>
        <dc:type
           rdf:resource="http://purl.org/dc/dcmitype/StillImage" />
        <dc:title />
      </cc:Work>
    </rdf:RDF>
  </metadata>
  <g
     inkscape:label="Layer 1"
     inkscape:groupmode="layer"
     id="layer1"
     transform="translate(0,-280.06662)">
    <g
       aria-label="6 страница "
       style="font-style:normal;font-weight:normal;font-size:47.20985794px;line-height:1.25;font-family:sans-serif;letter-spacing:0px;word-spacing:0px;fill:#ffffff;fill-opacity:1;stroke:none;stroke-width:1.18024635"
       id="text8295">
      <path
         d="m 4.8176452,281.24194 1.8287674,0.91438 -1.9747614,3.84195 q 1.4368886,0 2.4434791,1.02964 1.0065904,1.02964 1.0065904,2.55874 0,1.47531 -1.037326,2.50495 -1.0296421,1.02196 -2.4895825,1.02196 -1.5290954,0 -2.5510536,-1.06038 -1.0142743,-1.06806 -1.0142743,-2.44348 0,-0.5225 0.1536779,-1.05269 0.1613618,-0.53019 0.7299702,-1.62899 z m -0.2689364,6.79256 q -0.5993439,0 -1.0065904,0.43798 -0.4072465,0.4303 -0.4072465,1.08343 0,0.65314 0.4226143,1.0988 0.4302982,0.44567 0.9989065,0.44567 0.599344,0 1.0296422,-0.43798 0.4302982,-0.43799 0.4302982,-1.10649 0,-0.65313 -0.4226143,-1.08343 -0.4149304,-0.43798 -1.04501,-0.43798 z"
         style="font-style:normal;font-variant:normal;font-weight:bold;font-stretch:normal;font-family:'Century Gothic';-inkscape-font-specification:'Century Gothic Bold'"
         id="path8297" />
      <path
         d="m 22.713441,286.15963 -1.744244,0.96049 q -0.49177,-0.51482 -0.975855,-0.7146 -0.476402,-0.19978 -1.121849,-0.19978 -1.175636,0 -1.905607,0.70691 -0.722286,0.69924 -0.722286,1.79804 0,1.06806 0.699235,1.74424 0.699234,0.67618 1.836451,0.67618 1.406153,0 2.189911,-0.96048 l 1.652037,1.12953 q -1.344682,1.74424 -3.795845,1.74424 -2.205278,0 -3.457753,-1.30626 -1.244791,-1.30626 -1.244791,-3.05819 0,-1.21406 0.607028,-2.23601 0.607027,-1.02196 1.690457,-1.60594 1.091113,-0.58397 2.435795,-0.58397 1.244791,0 2.236014,0.49945 0.991223,0.49177 1.621302,1.40615 z"
         style="font-style:normal;font-variant:normal;font-weight:bold;font-stretch:normal;font-family:'Century Gothic';-inkscape-font-specification:'Century Gothic Bold'"
         id="path8299" />
      <path
         d="m 23.866025,284.46917 h 7.791471 v 1.99782 H 28.88361 v 6.36226 h -2.105388 v -6.36226 h -2.912197 z"
         style="font-style:normal;font-variant:normal;font-weight:bold;font-stretch:normal;font-family:'Century Gothic';-inkscape-font-specification:'Century Gothic Bold'"
         id="path8301" />
      <path
         d="m 35.11525,284.46917 v 0.92207 q 0.568608,-0.56861 1.229424,-0.85291 0.660815,-0.2843 1.413837,-0.2843 1.636669,0 2.78157,1.2371 1.144901,1.23711 1.144901,3.17345 0,1.86719 -1.18332,3.12735 -1.183321,1.25247 -2.804623,1.25247 -0.722286,0 -1.344682,-0.25357 -0.622395,-0.26125 -1.237107,-0.84522 v 3.94183 h -2.082336 v -11.41827 z m 2.205278,1.7212 q -0.991222,0 -1.644353,0.67618 -0.653132,0.67618 -0.653132,1.7673 0,1.11416 0.653132,1.80571 0.653131,0.68387 1.644353,0.68387 0.960487,0 1.613619,-0.69924 0.660815,-0.69923 0.660815,-1.78266 0,-1.07574 -0.645448,-1.75961 -0.645447,-0.69155 -1.628986,-0.69155 z"
         style="font-style:normal;font-variant:normal;font-weight:bold;font-stretch:normal;font-family:'Century Gothic';-inkscape-font-specification:'Century Gothic Bold'"
         id="path8303" />
      <path
         d="m 49.599395,284.46917 h 2.09002 v 8.36008 h -2.09002 v -0.88364 q -0.614712,0.58397 -1.237107,0.84522 -0.614712,0.25357 -1.336998,0.25357 -1.621303,0 -2.804623,-1.25247 -1.18332,-1.26016 -1.18332,-3.12735 0,-1.93634 1.144901,-3.17345 1.144901,-1.2371 2.78157,-1.2371 0.753022,0 1.413837,0.2843 0.660816,0.2843 1.22174,0.85291 z m -2.205278,1.7212 q -0.975855,0 -1.621302,0.69155 -0.645448,0.68387 -0.645448,1.75961 0,1.08343 0.653131,1.78266 0.660816,0.69924 1.621303,0.69924 0.991222,0 1.644353,-0.68387 0.653132,-0.69155 0.653132,-1.80571 0,-1.09112 -0.653132,-1.7673 -0.653131,-0.67618 -1.652037,-0.67618 z"
         style="font-style:normal;font-variant:normal;font-weight:bold;font-stretch:normal;font-family:'Century Gothic';-inkscape-font-specification:'Century Gothic Bold'"
         id="path8305" />
      <path
         d="m 55.907872,287.48126 h 3.119662 v -3.01209 h 2.105388 v 8.36008 h -2.105388 v -3.46543 h -3.119662 v 3.46543 h -2.105388 v -8.36008 h 2.105388 z"
         style="font-style:normal;font-variant:normal;font-weight:bold;font-stretch:normal;font-family:'Century Gothic';-inkscape-font-specification:'Century Gothic Bold'"
         id="path8307" />
      <path
         d="M 64.352475,292.82925 H 63.23831 v -8.36008 h 2.043916 v 4.91001 l 4.279931,-4.91001 h 1.00659 v 8.36008 h -2.043916 v -4.81012 z"
         style="font-style:normal;font-variant:normal;font-weight:bold;font-stretch:normal;font-family:'Century Gothic';-inkscape-font-specification:'Century Gothic Bold'"
         id="path8309" />
      <path
         d="m 72.674131,292.82925 v -8.36008 h 2.105388 v 6.3469 h 3.119662 v -6.3469 h 2.105387 v 6.3469 h 2.12844 v 3.48081 h -1.997813 v -1.46763 z"
         style="font-style:normal;font-variant:normal;font-weight:bold;font-stretch:normal;font-family:'Century Gothic';-inkscape-font-specification:'Century Gothic Bold'"
         id="path8311" />
      <path
         d="m 89.463451,284.46917 h 2.090019 v 8.36008 h -2.090019 v -0.88364 q -0.614712,0.58397 -1.237108,0.84522 -0.614711,0.25357 -1.336998,0.25357 -1.621302,0 -2.804622,-1.25247 -1.18332,-1.26016 -1.18332,-3.12735 0,-1.93634 1.144901,-3.17345 1.1449,-1.2371 2.78157,-1.2371 0.753022,0 1.413837,0.2843 0.660815,0.2843 1.22174,0.85291 z m -2.205279,1.7212 q -0.975855,0 -1.621302,0.69155 -0.645447,0.68387 -0.645447,1.75961 0,1.08343 0.653131,1.78266 0.660815,0.69924 1.621302,0.69924 0.991223,0 1.644354,-0.68387 0.653131,-0.69155 0.653131,-1.80571 0,-1.09112 -0.653131,-1.7673 -0.653131,-0.67618 -1.652038,-0.67618 z"
         style="font-style:normal;font-variant:normal;font-weight:bold;font-stretch:normal;font-family:'Century Gothic';-inkscape-font-specification:'Century Gothic Bold'"
         id="path8313" />
    </g>
  </g>
</svg>
