<?xml version="1.0" encoding="UTF-8" standalone="no"?>
<!-- Created with Inkscape (http://www.inkscape.org/) -->

<svg
   xmlns:dc="http://purl.org/dc/elements/1.1/"
   xmlns:cc="http://creativecommons.org/ns#"
   xmlns:rdf="http://www.w3.org/1999/02/22-rdf-syntax-ns#"
   xmlns:svg="http://www.w3.org/2000/svg"
   xmlns="http://www.w3.org/2000/svg"
   xmlns:sodipodi="http://sodipodi.sourceforge.net/DTD/sodipodi-0.dtd"
   xmlns:inkscape="http://www.inkscape.org/namespaces/inkscape"
   width="12pc"
   height="4pc"
   viewBox="0 0 50.800022 16.933332"
   version="1.1"
   id="svg8"
   inkscape:version="0.92.2 (5c3e80d, 2017-08-06)"
   sodipodi:docname="arhiv.svg">
  <defs
     id="defs2">
    <clipPath
       clipPathUnits="userSpaceOnUse"
       id="clipPath7909">
      <g
         id="use7911"
         inkscape:label="Clip">
        <text
           xml:space="preserve"
           style="font-style:normal;font-weight:normal;font-size:10.58333302px;line-height:1.25;font-family:sans-serif;letter-spacing:0px;word-spacing:0px;fill:#ffffff;fill-opacity:1;stroke:none;stroke-width:0.26458332"
           x="82.876579"
           y="384.59238"
           id="text265"><tspan
             sodipodi:role="line"
             id="tspan263"
             x="82.876579"
             y="384.59238"
             style="font-style:normal;font-variant:normal;font-weight:normal;font-stretch:normal;font-size:3.52777767px;font-family:EuropeDemi;-inkscape-font-specification:EuropeDemi;fill:#ffffff;stroke-width:0.26458332"><tspan
               style="font-size:2.82222223px"
               id="tspan261">ГЛАЗОВСКАЯ РАЙОННАЯ БИБЛИОТЕКА</tspan></tspan></text>
      </g>
    </clipPath>
  </defs>
  <sodipodi:namedview
     id="base"
     pagecolor="#ffffff"
     bordercolor="#666666"
     borderopacity="1.0"
     inkscape:pageopacity="0.0"
     inkscape:pageshadow="2"
     inkscape:zoom="0.24748738"
     inkscape:cx="821.56806"
     inkscape:cy="168.65099"
     inkscape:document-units="mm"
     inkscape:current-layer="layer1"
     showgrid="false"
     inkscape:lockguides="false"
     showguides="false"
     units="pc"
     inkscape:window-width="1280"
     inkscape:window-height="972"
     inkscape:window-x="-8"
     inkscape:window-y="-8"
     inkscape:window-maximized="1"
     showborder="true"
     inkscape:pagecheckerboard="true" />
  <metadata
     id="metadata5">
    <rdf:RDF>
      <cc:Work
         rdf:about="">
        <dc:format>image/svg+xml</dc:format>
        <dc:type
           rdf:resource="http://purl.org/dc/dcmitype/StillImage" />
        <dc:title></dc:title>
      </cc:Work>
    </rdf:RDF>
  </metadata>
  <g
     inkscape:label="Layer 1"
     inkscape:groupmode="layer"
     id="layer1"
     transform="translate(0,-280.06662)">
    <g
       aria-label="Архив"
       style="font-style:normal;font-weight:normal;font-size:47.20985794px;line-height:1.25;font-family:sans-serif;letter-spacing:0px;word-spacing:0px;fill:#ffffff;fill-opacity:1;stroke:none;stroke-width:1.18024635"
       id="text8195">
      <path
         d="M 9.1066011,290.84515 H 4.0044939 l -0.7376541,2.25138 H 0.92325137 l 3.91878723,-11.7871 h 3.3194432 l 3.9956262,11.7871 H 9.859623 Z m -0.522505,-1.68278 -2.0439164,-6.12022 -2.0131809,6.12022 z"
         style="font-style:normal;font-variant:normal;font-weight:normal;font-stretch:normal;font-size:15.73661995px;font-family:EuropeDemi;-inkscape-font-specification:EuropeDemi;fill:#ffffff;stroke-width:1.18024635"
         id="path250" />
      <path
         d="m 15.384345,288.75513 q 0,1.22558 0.122942,1.81724 0.122942,0.59166 0.518663,0.84907 0.395721,0.25741 1.248633,0.25741 0.841387,0 1.229424,-0.30736 0.388036,-0.3112 0.491769,-0.88365 0.103733,-0.57629 0.103733,-1.68661 0,-1.12953 -0.149836,-1.65588 -0.149836,-0.53019 -0.518663,-0.70308 -0.368827,-0.17673 -1.125691,-0.17673 -0.776074,0 -1.18332,0.19978 -0.403405,0.19594 -0.572451,0.72613 -0.165203,0.52635 -0.165203,1.56368 z m 0,3.20802 v 4.62571 h -1.967078 v -11.73715 h 1.890239 l -0.08068,1.16411 h 0.06147 q 0.484085,-0.72997 1.06422,-1.01044 0.583976,-0.28046 1.486834,-0.28046 1.340839,0 2.055442,0.48409 0.714602,0.48408 0.964329,1.37926 0.253568,0.89517 0.253568,2.32053 0,1.0258 -0.09605,1.76346 -0.09605,0.73765 -0.407247,1.31779 -0.311198,0.57629 -0.952803,0.9067 -0.637763,0.32656 -1.690457,0.32656 -0.975855,0 -1.571357,-0.24973 -0.59166,-0.25356 -1.010432,-1.01043 z"
         style="font-style:normal;font-variant:normal;font-weight:normal;font-stretch:normal;font-size:15.73661995px;font-family:EuropeDemi;-inkscape-font-specification:EuropeDemi;fill:#ffffff;stroke-width:1.18024635"
         id="path252" />
      <path
         d="m 29.87233,284.85171 -2.408901,3.90342 2.673996,4.3414 h -2.328221 l -1.667405,-3.03898 -1.63667,3.03898 h -2.378166 l 2.723941,-4.3414 -2.408902,-3.90342 h 2.26675 l 1.433047,2.64326 1.433046,-2.64326 z"
         style="font-style:normal;font-variant:normal;font-weight:normal;font-stretch:normal;font-size:15.73661995px;font-family:EuropeDemi;-inkscape-font-specification:EuropeDemi;fill:#ffffff;stroke-width:1.18024635"
         id="path254" />
      <path
         d="m 31.336112,284.85171 v 8.24482 h 2.408902 l 2.689364,-5.14437 q 0.195939,-0.36114 0.899015,-1.84414 -0.122942,0.32657 -0.261252,1.14106 -0.134468,0.81449 -0.134468,1.29858 v 4.54887 h 1.874871 v -8.24482 h -2.408902 l -2.689364,5.1751 q -0.265094,0.49177 -0.899016,1.8595 0.130627,-0.34193 0.261253,-1.02195 0.130626,-0.68387 0.130626,-1.21406 v -4.79859 z"
         style="font-style:normal;font-variant:normal;font-weight:normal;font-stretch:normal;font-size:15.73661995px;font-family:EuropeDemi;-inkscape-font-specification:EuropeDemi;fill:#ffffff;stroke-width:1.18024635"
         id="path256" />
      <path
         d="m 42.739015,286.28091 v 1.95171 h 1.871028 q 0.741496,0 1.056536,-0.21899 0.31504,-0.21899 0.31504,-0.72229 0,-0.53019 -0.268937,-0.76839 -0.268936,-0.24204 -0.914383,-0.24204 z m 0,3.27334 v 2.10923 h 2.155333 q 0.680024,0 0.975854,-0.25357 0.299672,-0.25741 0.299672,-0.79912 0,-1.05654 -1.179478,-1.05654 z m -1.936342,3.54228 v -8.24482 h 4.548866 q 1.394628,0 1.993971,0.54171 0.603186,0.53787 0.603186,1.70583 0,0.63776 -0.399562,1.10264 -0.399563,0.46103 -1.094956,0.61471 v 0.0461 q 0.76839,0.14599 1.225582,0.64161 0.457192,0.49176 0.457192,1.32547 0,0.80296 -0.234359,1.29858 -0.230517,0.49177 -0.787599,0.72997 -0.557083,0.2382 -1.529096,0.2382 z"
         style="font-style:normal;font-variant:normal;font-weight:normal;font-stretch:normal;font-size:15.73661995px;font-family:EuropeDemi;-inkscape-font-specification:EuropeDemi;fill:#ffffff;stroke-width:1.18024635"
         id="path258" />
    </g>
  </g>
</svg>
