<?xml version="1.0" encoding="UTF-8" standalone="no"?>
<!-- Created with Inkscape (http://www.inkscape.org/) -->

<svg
   xmlns:dc="http://purl.org/dc/elements/1.1/"
   xmlns:cc="http://creativecommons.org/ns#"
   xmlns:rdf="http://www.w3.org/1999/02/22-rdf-syntax-ns#"
   xmlns:svg="http://www.w3.org/2000/svg"
   xmlns="http://www.w3.org/2000/svg"
   xmlns:sodipodi="http://sodipodi.sourceforge.net/DTD/sodipodi-0.dtd"
   xmlns:inkscape="http://www.inkscape.org/namespaces/inkscape"
   width="89.199997pc"
   height="3.0999999pc"
   viewBox="0 0 377.6138 13.123335"
   version="1.1"
   id="svg8"
   inkscape:version="0.92.2 (5c3e80d, 2017-08-06)"
   sodipodi:docname="DokGRdeputat.svg">
  <defs
     id="defs2">
    <clipPath
       clipPathUnits="userSpaceOnUse"
       id="clipPath7909">
      <g
         id="use7911"
         inkscape:label="Clip">
        <text
           xml:space="preserve"
           style="font-style:normal;font-weight:normal;font-size:10.58333302px;line-height:1.25;font-family:sans-serif;letter-spacing:0px;word-spacing:0px;fill:#ffffff;fill-opacity:1;stroke:none;stroke-width:0.26458332"
           x="82.876579"
           y="384.59238"
           id="text1215"><tspan
             sodipodi:role="line"
             id="tspan1213"
             x="82.876579"
             y="384.59238"
             style="font-style:normal;font-variant:normal;font-weight:normal;font-stretch:normal;font-size:3.52777767px;font-family:EuropeDemi;-inkscape-font-specification:EuropeDemi;fill:#ffffff;stroke-width:0.26458332"><tspan
               style="font-size:2.82222223px"
               id="tspan1211">ГЛАЗОВСКАЯ РАЙОННАЯ БИБЛИОТЕКА</tspan></tspan></text>
      </g>
    </clipPath>
  </defs>
  <sodipodi:namedview
     id="base"
     pagecolor="#ffffff"
     bordercolor="#666666"
     borderopacity="1.0"
     inkscape:pageopacity="0.0"
     inkscape:pageshadow="2"
     inkscape:zoom="0.40801405"
     inkscape:cx="565.50502"
     inkscape:cy="95.160747"
     inkscape:document-units="mm"
     inkscape:current-layer="layer1"
     showgrid="false"
     inkscape:lockguides="false"
     showguides="false"
     units="pc"
     inkscape:window-width="1280"
     inkscape:window-height="972"
     inkscape:window-x="-8"
     inkscape:window-y="-8"
     inkscape:window-maximized="1"
     showborder="true"
     inkscape:pagecheckerboard="true" />
  <metadata
     id="metadata5">
    <rdf:RDF>
      <cc:Work
         rdf:about="">
        <dc:format>image/svg+xml</dc:format>
        <dc:type
           rdf:resource="http://purl.org/dc/dcmitype/StillImage" />
        <dc:title></dc:title>
      </cc:Work>
    </rdf:RDF>
  </metadata>
  <g
     inkscape:label="Layer 1"
     inkscape:groupmode="layer"
     id="layer1"
     transform="translate(0,-283.87655)">
    <g
       aria-label="ДОКУМЕНТЫ ГЛАЗОВСКОГО РАЙОННОГО СОВЕТА ДЕПУТАТОВ "
       style="font-style:normal;font-weight:normal;font-size:47.20985794px;line-height:1.25;font-family:sans-serif;letter-spacing:0px;word-spacing:0px;fill:#ff9400;fill-opacity:1;fill-rule:nonzero;stroke:none;stroke-width:1.18024635"
       id="text4789">
      <path
         d="m 4.1299676,286.59808 h 1.7061835 l 2.8516779,7.28293 h 0.9887424 v 2.91197 H 8.0427348 v -1.32637 H 1.9414707 v 1.32637 H 0.30763412 v -2.91197 H 1.2903476 Z m 0.8681641,2.35127 -1.9413114,4.93166 h 3.8765938 z"
         style="font-style:normal;font-variant:normal;font-weight:bold;font-stretch:normal;font-size:12.34722233px;font-family:'Century Gothic';-inkscape-font-specification:'Century Gothic Bold';fill:#ff9400;fill-opacity:1;fill-rule:nonzero;stroke-width:1.18024635"
         id="path1219"
         inkscape:connector-curvature="0" />
      <path
         d="m 14.963932,286.37501 q 1.881022,0 3.231499,1.36253 1.356507,1.36254 1.356507,3.32194 0,1.94131 -1.33842,3.28576 -1.332391,1.34444 -3.237528,1.34444 -1.995572,0 -3.315905,-1.38062 -1.320333,-1.38062 -1.320333,-3.27973 0,-1.2721 0.61495,-2.33922 0.614949,-1.06712 1.688097,-1.6881 1.079176,-0.627 2.321133,-0.627 z m -0.01809,1.65192 q -1.229899,0 -2.067919,0.85611 -0.838019,0.8561 -0.838019,2.17644 0,1.47105 1.05506,2.32716 0.819933,0.66921 1.881023,0.66921 1.199754,0 2.043802,-0.86817 0.844049,-0.86816 0.844049,-2.14026 0,-1.26608 -0.850077,-2.14027 -0.850078,-0.88022 -2.067919,-0.88022 z"
         style="font-style:normal;font-variant:normal;font-weight:bold;font-stretch:normal;font-size:12.34722233px;font-family:'Century Gothic';-inkscape-font-specification:'Century Gothic Bold';fill:#ff9400;fill-opacity:1;fill-rule:nonzero;stroke-width:1.18024635"
         id="path1221"
         inkscape:connector-curvature="0" />
      <path
         d="m 21.155631,286.59808 h 1.706183 v 3.05063 l 2.405538,-3.05063 h 2.031745 l -3.098863,3.95497 3.400309,4.91356 h -2.0016 l -2.737129,-3.93688 v 3.93688 h -1.706183 z"
         style="font-style:normal;font-variant:normal;font-weight:bold;font-stretch:normal;font-size:12.34722233px;font-family:'Century Gothic';-inkscape-font-specification:'Century Gothic Bold';fill:#ff9400;fill-opacity:1;fill-rule:nonzero;stroke-width:1.18024635"
         id="path1223"
         inkscape:connector-curvature="0" />
      <path
         d="m 31.290239,293.4409 -3.147095,-6.84282 h 1.905138 l 2.086006,4.94371 1.712212,-4.94371 h 1.736328 l -2.363335,6.34242 q -0.608921,1.62781 -1.326362,2.18247 -0.711412,0.54863 -1.519287,0.54863 -1.314304,0 -2.423625,-1.29019 l 1.109321,-1.11535 q 0.663181,0.7717 1.308275,0.7717 0.289388,0 0.476284,-0.13866 0.186897,-0.13867 0.44614,-0.4582 z"
         style="font-style:normal;font-variant:normal;font-weight:bold;font-stretch:normal;font-size:12.34722233px;font-family:'Century Gothic';-inkscape-font-specification:'Century Gothic Bold';fill:#ff9400;fill-opacity:1;fill-rule:nonzero;stroke-width:1.18024635"
         id="path1225"
         inkscape:connector-curvature="0" />
      <path
         d="m 37.578399,286.59808 h 1.651924 l 2.049831,6.18567 2.079977,-6.18567 h 1.627807 l 1.495172,8.86853 h -1.627808 l -0.952569,-5.60086 -1.887051,5.60086 H 40.52654 l -1.862936,-5.60086 -0.970655,5.60086 h -1.645895 z"
         style="font-style:normal;font-variant:normal;font-weight:bold;font-stretch:normal;font-size:12.34722233px;font-family:'Century Gothic';-inkscape-font-specification:'Century Gothic Bold';fill:#ff9400;fill-opacity:1;fill-rule:nonzero;stroke-width:1.18024635"
         id="path1227"
         inkscape:connector-curvature="0" />
      <path
         d="m 47.845647,286.59808 h 4.84122 V 288.25 h -3.165181 v 1.60369 h 3.165181 v 1.62178 h -3.165181 v 2.33319 h 3.165181 v 1.65795 h -4.84122 z"
         style="font-style:normal;font-variant:normal;font-weight:bold;font-stretch:normal;font-size:12.34722233px;font-family:'Century Gothic';-inkscape-font-specification:'Century Gothic Bold';fill:#ff9400;fill-opacity:1;fill-rule:nonzero;stroke-width:1.18024635"
         id="path1229"
         inkscape:connector-curvature="0" />
      <path
         d="m 54.248357,286.59808 h 1.712213 v 3.34605 h 2.966227 v -3.34605 h 1.706183 v 8.86853 h -1.706183 v -3.88865 H 55.96057 v 3.88865 h -1.712213 z"
         style="font-style:normal;font-variant:normal;font-weight:bold;font-stretch:normal;font-size:12.34722233px;font-family:'Century Gothic';-inkscape-font-specification:'Century Gothic Bold';fill:#ff9400;fill-opacity:1;fill-rule:nonzero;stroke-width:1.18024635"
         id="path1231"
         inkscape:connector-curvature="0" />
      <path
         d="m 61.772443,286.59808 h 4.90151 v 1.66398 h -1.61575 v 7.20455 H 63.34599 v -7.20455 h -1.573547 z"
         style="font-style:normal;font-variant:normal;font-weight:bold;font-stretch:normal;font-size:12.34722233px;font-family:'Century Gothic';-inkscape-font-specification:'Century Gothic Bold';fill:#ff9400;fill-opacity:1;fill-rule:nonzero;stroke-width:1.18024635"
         id="path1233"
         inkscape:connector-curvature="0" />
      <path
         d="m 74.595949,286.59808 h 1.676039 v 8.86853 h -1.676039 z m -6.770474,8.86853 v -8.86853 h 1.688097 v 3.34605 h 0.367764 q 1.05506,0 1.754415,0.24718 0.705383,0.24116 1.217841,0.92845 0.512458,0.68127 0.512458,1.6459 0,0.91037 -0.440111,1.5434 -0.440111,0.63304 -1.024916,0.89831 -0.578776,0.25924 -1.591634,0.25924 z m 1.688097,-4.01526 v 2.40554 h 0.422024 q 1.049032,0 1.404738,-0.25924 0.355706,-0.25924 0.355706,-0.88625 0,-1.26005 -1.832791,-1.26005 z"
         style="font-style:normal;font-variant:normal;font-weight:bold;font-stretch:normal;font-size:12.34722233px;font-family:'Century Gothic';-inkscape-font-specification:'Century Gothic Bold';fill:#ff9400;fill-opacity:1;fill-rule:nonzero;stroke-width:1.18024635"
         id="path1235"
         inkscape:connector-curvature="0" />
      <path
         d="m 81.740217,286.59808 h 4.401109 V 288.25 h -2.731099 v 7.21661 h -1.67001 z"
         style="font-style:normal;font-variant:normal;font-weight:bold;font-stretch:normal;font-size:12.34722233px;font-family:'Century Gothic';-inkscape-font-specification:'Century Gothic Bold';fill:#ff9400;fill-opacity:1;fill-rule:nonzero;stroke-width:1.18024635"
         id="path1237"
         inkscape:connector-curvature="0" />
      <path
         d="m 93.201191,295.46661 -2.45377,-6.51726 -2.495971,6.51726 h -1.790589 l 3.418396,-8.86853 h 1.712213 l 3.412367,8.86853 z"
         style="font-style:normal;font-variant:normal;font-weight:bold;font-stretch:normal;font-size:12.34722233px;font-family:'Century Gothic';-inkscape-font-specification:'Century Gothic Bold';fill:#ff9400;fill-opacity:1;fill-rule:nonzero;stroke-width:1.18024635"
         id="path1239"
         inkscape:connector-curvature="0" />
      <path
         d="m 98.723682,286.59808 h 1.712208 l 3.41237,8.86853 h -1.75441 l -0.69333,-1.82676 h -3.617349 l -0.72347,1.82676 h -1.754415 z m 0.868164,2.35127 -1.181668,3.04461 h 2.357302 z"
         style="font-style:normal;font-variant:normal;font-weight:bold;font-stretch:normal;font-size:12.34722233px;font-family:'Century Gothic';-inkscape-font-specification:'Century Gothic Bold';fill:#ff9400;fill-opacity:1;fill-rule:nonzero;stroke-width:1.18024635"
         id="path1241"
         inkscape:connector-curvature="0" />
      <path
         d="m 105.58458,293.15754 q 0.66921,0.93448 1.56752,0.93448 0.59686,0 0.96463,-0.33762 0.36776,-0.33762 0.36776,-0.89831 0,-0.54863 -0.36173,-0.91036 -0.35571,-0.36174 -1.48312,-0.36174 h -0.36173 v -1.50723 h 0.36173 q 0.66921,0 1.01286,-0.30747 0.34968,-0.30748 0.34968,-0.82596 0,-0.47629 -0.28939,-0.75362 -0.28939,-0.27733 -0.76567,-0.27733 -0.56672,0 -1.16358,0.56069 l -0.99477,-1.10932 q 0.80184,-0.72347 1.33842,-0.86214 0.53657,-0.14469 0.98874,-0.14469 1.0852,0 1.82073,0.63304 0.74156,0.63303 0.74156,1.70618 0,0.47628 -0.16881,0.92845 -0.16278,0.45217 -0.92243,0.9586 1.55546,0.69333 1.55546,2.36937 0,1.23592 -0.83199,1.98954 -0.82596,0.74758 -2.1282,0.74758 -0.81994,0 -1.47106,-0.29541 -0.65112,-0.30145 -1.4168,-1.29019 z"
         style="font-style:normal;font-variant:normal;font-weight:bold;font-stretch:normal;font-size:12.34722233px;font-family:'Century Gothic';-inkscape-font-specification:'Century Gothic Bold';fill:#ff9400;fill-opacity:1;fill-rule:nonzero;stroke-width:1.18024635"
         id="path1243"
         inkscape:connector-curvature="0" />
      <path
         d="m 115.96035,286.37501 q 1.88102,0 3.2315,1.36253 1.35651,1.36254 1.35651,3.32194 0,1.94131 -1.33842,3.28576 -1.33239,1.34444 -3.23753,1.34444 -1.99557,0 -3.3159,-1.38062 -1.32034,-1.38062 -1.32034,-3.27973 0,-1.2721 0.61495,-2.33922 0.61495,-1.06712 1.6881,-1.6881 1.07918,-0.627 2.32113,-0.627 z m -0.0181,1.65192 q -1.2299,0 -2.06792,0.85611 -0.83802,0.8561 -0.83802,2.17644 0,1.47105 1.05506,2.32716 0.81993,0.66921 1.88102,0.66921 1.19975,0 2.0438,-0.86817 0.84405,-0.86816 0.84405,-2.14026 0,-1.26608 -0.85008,-2.14027 -0.85007,-0.88022 -2.06791,-0.88022 z"
         style="font-style:normal;font-variant:normal;font-weight:bold;font-stretch:normal;font-size:12.34722233px;font-family:'Century Gothic';-inkscape-font-specification:'Century Gothic Bold';fill:#ff9400;fill-opacity:1;fill-rule:nonzero;stroke-width:1.18024635"
         id="path1245"
         inkscape:connector-curvature="0" />
      <path
         d="m 122.13999,295.46661 v -8.86853 h 1.39268 q 1.21181,0 1.7725,0.15675 0.79582,0.21101 1.26608,0.78376 0.47025,0.57274 0.47025,1.35048 0,0.50642 -0.21704,0.92242 -0.21101,0.40997 -0.69333,0.7717 0.80788,0.37982 1.18167,0.95257 0.37379,0.56672 0.37379,1.34445 0,0.74758 -0.38585,1.36253 -0.38585,0.61495 -0.99477,0.92243 -0.60892,0.30144 -1.68207,0.30144 z m 1.6881,-7.25881 v 1.86896 h 0.36776 q 0.61495,0 0.91037,-0.25924 0.30144,-0.25925 0.30144,-0.70538 0,-0.416 -0.28336,-0.65716 -0.28335,-0.24718 -0.86213,-0.24718 z m 0,3.37619 v 2.2729 h 0.42202 q 1.04903,0 1.41077,-0.26527 0.36776,-0.26527 0.36776,-0.7717 0,-0.57275 -0.42805,-0.90434 -0.42805,-0.33159 -1.42283,-0.33159 z"
         style="font-style:normal;font-variant:normal;font-weight:bold;font-stretch:normal;font-size:12.34722233px;font-family:'Century Gothic';-inkscape-font-specification:'Century Gothic Bold';fill:#ff9400;fill-opacity:1;fill-rule:nonzero;stroke-width:1.18024635"
         id="path1247"
         inkscape:connector-curvature="0" />
      <path
         d="m 137.45344,288.15957 -1.18167,1.1274 q -1.20578,-1.2721 -2.71301,-1.2721 -1.2721,0 -2.14629,0.86817 -0.86817,0.86816 -0.86817,2.14026 0,0.88625 0.38585,1.57355 0.38585,0.6873 1.09124,1.07918 0.70538,0.39187 1.56751,0.39187 0.73553,0 1.34445,-0.2713 0.60892,-0.27733 1.33842,-1.0008 l 1.1455,1.19373 q -0.98272,0.9586 -1.85691,1.33239 -0.87419,0.36776 -1.99557,0.36776 -2.06792,0 -3.38825,-1.30827 -1.31431,-1.31431 -1.31431,-3.36414 0,-1.32636 0.59687,-2.3573 0.60289,-1.03095 1.71824,-1.65796 1.12138,-0.627 2.41156,-0.627 1.09727,0 2.11013,0.46422 1.01888,0.46423 1.75441,1.32034 z"
         style="font-style:normal;font-variant:normal;font-weight:bold;font-stretch:normal;font-size:12.34722233px;font-family:'Century Gothic';-inkscape-font-specification:'Century Gothic Bold';fill:#ff9400;fill-opacity:1;fill-rule:nonzero;stroke-width:1.18024635"
         id="path1249"
         inkscape:connector-curvature="0" />
      <path
         d="m 138.93655,286.59808 h 1.70618 v 3.05063 l 2.40554,-3.05063 h 2.03175 l -3.09887,3.95497 3.40031,4.91356 h -2.0016 l -2.73713,-3.93688 v 3.93688 h -1.70618 z"
         style="font-style:normal;font-variant:normal;font-weight:bold;font-stretch:normal;font-size:12.34722233px;font-family:'Century Gothic';-inkscape-font-specification:'Century Gothic Bold';fill:#ff9400;fill-opacity:1;fill-rule:nonzero;stroke-width:1.18024635"
         id="path1251"
         inkscape:connector-curvature="0" />
      <path
         d="m 150.78338,286.37501 q 1.88102,0 3.2315,1.36253 1.35651,1.36254 1.35651,3.32194 0,1.94131 -1.33842,3.28576 -1.33239,1.34444 -3.23753,1.34444 -1.99557,0 -3.31591,-1.38062 -1.32033,-1.38062 -1.32033,-3.27973 0,-1.2721 0.61495,-2.33922 0.61495,-1.06712 1.6881,-1.6881 1.07917,-0.627 2.32113,-0.627 z m -0.0181,1.65192 q -1.22989,0 -2.06791,0.85611 -0.83802,0.8561 -0.83802,2.17644 0,1.47105 1.05506,2.32716 0.81993,0.66921 1.88102,0.66921 1.19975,0 2.0438,-0.86817 0.84405,-0.86816 0.84405,-2.14026 0,-1.26608 -0.85008,-2.14027 -0.85007,-0.88022 -2.06792,-0.88022 z"
         style="font-style:normal;font-variant:normal;font-weight:bold;font-stretch:normal;font-size:12.34722233px;font-family:'Century Gothic';-inkscape-font-specification:'Century Gothic Bold';fill:#ff9400;fill-opacity:1;fill-rule:nonzero;stroke-width:1.18024635"
         id="path1253"
         inkscape:connector-curvature="0" />
      <path
         d="m 156.95699,286.59808 h 4.40111 V 288.25 h -2.7311 v 7.21661 h -1.67001 z"
         style="font-style:normal;font-variant:normal;font-weight:bold;font-stretch:normal;font-size:12.34722233px;font-family:'Century Gothic';-inkscape-font-specification:'Century Gothic Bold';fill:#ff9400;fill-opacity:1;fill-rule:nonzero;stroke-width:1.18024635"
         id="path1255"
         inkscape:connector-curvature="0" />
      <path
         d="m 166.86853,286.37501 q 1.88102,0 3.23149,1.36253 1.35651,1.36254 1.35651,3.32194 0,1.94131 -1.33842,3.28576 -1.33239,1.34444 -3.23753,1.34444 -1.99557,0 -3.3159,-1.38062 -1.32033,-1.38062 -1.32033,-3.27973 0,-1.2721 0.61495,-2.33922 0.61494,-1.06712 1.68809,-1.6881 1.07918,-0.627 2.32114,-0.627 z m -0.0181,1.65192 q -1.2299,0 -2.06792,0.85611 -0.83802,0.8561 -0.83802,2.17644 0,1.47105 1.05506,2.32716 0.81993,0.66921 1.88102,0.66921 1.19976,0 2.04381,-0.86817 0.84404,-0.86816 0.84404,-2.14026 0,-1.26608 -0.85007,-2.14027 -0.85008,-0.88022 -2.06792,-0.88022 z"
         style="font-style:normal;font-variant:normal;font-weight:bold;font-stretch:normal;font-size:12.34722233px;font-family:'Century Gothic';-inkscape-font-specification:'Century Gothic Bold';fill:#ff9400;fill-opacity:1;fill-rule:nonzero;stroke-width:1.18024635"
         id="path1257"
         inkscape:connector-curvature="0" />
      <path
         d="m 176.49068,286.59808 h 1.79059 q 1.45297,0 2.09203,0.2713 0.6451,0.26527 1.01286,0.86816 0.3738,0.59686 0.3738,1.43488 0,0.92846 -0.48835,1.54341 -0.48231,0.61495 -1.3143,0.8561 -0.48834,0.13867 -1.77853,0.13867 v 3.75601 h -1.6881 z m 1.6881,3.46662 h 0.53657 q 0.63304,0 0.88022,-0.0904 0.24719,-0.0904 0.38585,-0.29542 0.1447,-0.21101 0.1447,-0.50643 0,-0.51245 -0.39791,-0.74758 -0.28939,-0.17484 -1.07315,-0.17484 h -0.47628 z"
         style="font-style:normal;font-variant:normal;font-weight:bold;font-stretch:normal;font-size:12.34722233px;font-family:'Century Gothic';-inkscape-font-specification:'Century Gothic Bold';fill:#ff9400;fill-opacity:1;fill-rule:nonzero;stroke-width:1.18024635"
         id="path1259"
         inkscape:connector-curvature="0" />
      <path
         d="m 186.11885,286.59808 h 1.71222 l 3.41236,8.86853 h -1.75441 l -0.69333,-1.82676 h -3.61735 l -0.72347,1.82676 h -1.75441 z m 0.86817,2.35127 -1.18167,3.04461 h 2.35731 z"
         style="font-style:normal;font-variant:normal;font-weight:bold;font-stretch:normal;font-size:12.34722233px;font-family:'Century Gothic';-inkscape-font-specification:'Century Gothic Bold';fill:#ff9400;fill-opacity:1;fill-rule:nonzero;stroke-width:1.18024635"
         id="path1261"
         inkscape:connector-curvature="0" />
      <path
         d="m 199.02075,286.59808 v 8.86853 h -1.6881 v -5.55263 l -3.30988,5.55263 h -1.47105 v -8.86853 h 1.68809 v 5.7335 l 3.35811,-5.7335 z m -5.63101,-2.3754 h 1.33239 q 0.15675,0.24719 0.43408,0.3738 0.28336,0.12057 0.6873,0.12057 0.40996,0 0.74155,-0.14469 0.21704,-0.0965 0.37982,-0.34968 h 1.3324 q -0.11455,0.76568 -0.73553,1.2299 -0.61495,0.46423 -1.72427,0.46423 -0.74759,0 -1.25402,-0.20498 -0.5004,-0.21102 -0.80787,-0.59687 -0.30748,-0.38585 -0.38585,-0.89228 z"
         style="font-style:normal;font-variant:normal;font-weight:bold;font-stretch:normal;font-size:12.34722233px;font-family:'Century Gothic';-inkscape-font-specification:'Century Gothic Bold';fill:#ff9400;fill-opacity:1;fill-rule:nonzero;stroke-width:1.18024635"
         id="path1263"
         inkscape:connector-curvature="0" />
      <path
         d="m 205.23655,286.37501 q 1.88102,0 3.2315,1.36253 1.35651,1.36254 1.35651,3.32194 0,1.94131 -1.33842,3.28576 -1.33239,1.34444 -3.23753,1.34444 -1.99557,0 -3.3159,-1.38062 -1.32034,-1.38062 -1.32034,-3.27973 0,-1.2721 0.61495,-2.33922 0.61495,-1.06712 1.6881,-1.6881 1.07918,-0.627 2.32113,-0.627 z m -0.0181,1.65192 q -1.2299,0 -2.06792,0.85611 -0.83802,0.8561 -0.83802,2.17644 0,1.47105 1.05506,2.32716 0.81993,0.66921 1.88102,0.66921 1.19975,0 2.0438,-0.86817 0.84405,-0.86816 0.84405,-2.14026 0,-1.26608 -0.85008,-2.14027 -0.85007,-0.88022 -2.06791,-0.88022 z"
         style="font-style:normal;font-variant:normal;font-weight:bold;font-stretch:normal;font-size:12.34722233px;font-family:'Century Gothic';-inkscape-font-specification:'Century Gothic Bold';fill:#ff9400;fill-opacity:1;fill-rule:nonzero;stroke-width:1.18024635"
         id="path1265"
         inkscape:connector-curvature="0" />
      <path
         d="m 211.41016,286.59808 h 1.71221 v 3.34605 h 2.96623 v -3.34605 h 1.70618 v 8.86853 h -1.70618 v -3.88865 h -2.96623 v 3.88865 h -1.71221 z"
         style="font-style:normal;font-variant:normal;font-weight:bold;font-stretch:normal;font-size:12.34722233px;font-family:'Century Gothic';-inkscape-font-specification:'Century Gothic Bold';fill:#ff9400;fill-opacity:1;fill-rule:nonzero;stroke-width:1.18024635"
         id="path1267"
         inkscape:connector-curvature="0" />
      <path
         d="m 219.80242,286.59808 h 1.71221 v 3.34605 h 2.96623 v -3.34605 h 1.70618 v 8.86853 h -1.70618 v -3.88865 h -2.96623 v 3.88865 h -1.71221 z"
         style="font-style:normal;font-variant:normal;font-weight:bold;font-stretch:normal;font-size:12.34722233px;font-family:'Century Gothic';-inkscape-font-specification:'Century Gothic Bold';fill:#ff9400;fill-opacity:1;fill-rule:nonzero;stroke-width:1.18024635"
         id="path1269"
         inkscape:connector-curvature="0" />
      <path
         d="m 232.3908,286.37501 q 1.88103,0 3.2315,1.36253 1.35651,1.36254 1.35651,3.32194 0,1.94131 -1.33842,3.28576 -1.33239,1.34444 -3.23753,1.34444 -1.99557,0 -3.3159,-1.38062 -1.32034,-1.38062 -1.32034,-3.27973 0,-1.2721 0.61495,-2.33922 0.61495,-1.06712 1.6881,-1.6881 1.07918,-0.627 2.32113,-0.627 z m -0.0181,1.65192 q -1.2299,0 -2.06792,0.85611 -0.83802,0.8561 -0.83802,2.17644 0,1.47105 1.05506,2.32716 0.81993,0.66921 1.88102,0.66921 1.19976,0 2.0438,-0.86817 0.84405,-0.86816 0.84405,-2.14026 0,-1.26608 -0.85008,-2.14027 -0.85007,-0.88022 -2.06791,-0.88022 z"
         style="font-style:normal;font-variant:normal;font-weight:bold;font-stretch:normal;font-size:12.34722233px;font-family:'Century Gothic';-inkscape-font-specification:'Century Gothic Bold';fill:#ff9400;fill-opacity:1;fill-rule:nonzero;stroke-width:1.18024635"
         id="path1271"
         inkscape:connector-curvature="0" />
      <path
         d="m 238.56441,286.59808 h 4.40111 V 288.25 h -2.7311 v 7.21661 h -1.67001 z"
         style="font-style:normal;font-variant:normal;font-weight:bold;font-stretch:normal;font-size:12.34722233px;font-family:'Century Gothic';-inkscape-font-specification:'Century Gothic Bold';fill:#ff9400;fill-opacity:1;fill-rule:nonzero;stroke-width:1.18024635"
         id="path1273"
         inkscape:connector-curvature="0" />
      <path
         d="m 248.47595,286.37501 q 1.88102,0 3.2315,1.36253 1.3565,1.36254 1.3565,3.32194 0,1.94131 -1.33842,3.28576 -1.33239,1.34444 -3.23753,1.34444 -1.99557,0 -3.3159,-1.38062 -1.32033,-1.38062 -1.32033,-3.27973 0,-1.2721 0.61495,-2.33922 0.61495,-1.06712 1.68809,-1.6881 1.07918,-0.627 2.32114,-0.627 z m -0.0181,1.65192 q -1.2299,0 -2.06792,0.85611 -0.83802,0.8561 -0.83802,2.17644 0,1.47105 1.05506,2.32716 0.81994,0.66921 1.88102,0.66921 1.19976,0 2.04381,-0.86817 0.84405,-0.86816 0.84405,-2.14026 0,-1.26608 -0.85008,-2.14027 -0.85008,-0.88022 -2.06792,-0.88022 z"
         style="font-style:normal;font-variant:normal;font-weight:bold;font-stretch:normal;font-size:12.34722233px;font-family:'Century Gothic';-inkscape-font-specification:'Century Gothic Bold';fill:#ff9400;fill-opacity:1;fill-rule:nonzero;stroke-width:1.18024635"
         id="path1275"
         inkscape:connector-curvature="0" />
      <path
         d="m 266.25523,288.15957 -1.18167,1.1274 q -1.20578,-1.2721 -2.71301,-1.2721 -1.2721,0 -2.1463,0.86817 -0.86816,0.86816 -0.86816,2.14026 0,0.88625 0.38585,1.57355 0.38585,0.6873 1.09123,1.07918 0.70539,0.39187 1.56752,0.39187 0.73553,0 1.34445,-0.2713 0.60892,-0.27733 1.33842,-1.0008 l 1.1455,1.19373 q -0.98272,0.9586 -1.85691,1.33239 -0.87419,0.36776 -1.99557,0.36776 -2.06792,0 -3.38825,-1.30827 -1.31431,-1.31431 -1.31431,-3.36414 0,-1.32636 0.59686,-2.3573 0.6029,-1.03095 1.71825,-1.65796 1.12137,-0.627 2.41156,-0.627 1.09727,0 2.11012,0.46422 1.01889,0.46423 1.75442,1.32034 z"
         style="font-style:normal;font-variant:normal;font-weight:bold;font-stretch:normal;font-size:12.34722233px;font-family:'Century Gothic';-inkscape-font-specification:'Century Gothic Bold';fill:#ff9400;fill-opacity:1;fill-rule:nonzero;stroke-width:1.18024635"
         id="path1277"
         inkscape:connector-curvature="0" />
      <path
         d="m 271.91639,286.37501 q 1.88102,0 3.2315,1.36253 1.35651,1.36254 1.35651,3.32194 0,1.94131 -1.33842,3.28576 -1.33239,1.34444 -3.23753,1.34444 -1.99557,0 -3.3159,-1.38062 -1.32034,-1.38062 -1.32034,-3.27973 0,-1.2721 0.61495,-2.33922 0.61495,-1.06712 1.6881,-1.6881 1.07918,-0.627 2.32113,-0.627 z m -0.0181,1.65192 q -1.2299,0 -2.06792,0.85611 -0.83802,0.8561 -0.83802,2.17644 0,1.47105 1.05506,2.32716 0.81993,0.66921 1.88102,0.66921 1.19975,0 2.0438,-0.86817 0.84405,-0.86816 0.84405,-2.14026 0,-1.26608 -0.85008,-2.14027 -0.85007,-0.88022 -2.06791,-0.88022 z"
         style="font-style:normal;font-variant:normal;font-weight:bold;font-stretch:normal;font-size:12.34722233px;font-family:'Century Gothic';-inkscape-font-specification:'Century Gothic Bold';fill:#ff9400;fill-opacity:1;fill-rule:nonzero;stroke-width:1.18024635"
         id="path1279"
         inkscape:connector-curvature="0" />
      <path
         d="m 278.09602,295.46661 v -8.86853 h 1.39267 q 1.21182,0 1.77251,0.15675 0.79581,0.21101 1.26607,0.78376 0.47025,0.57274 0.47025,1.35048 0,0.50642 -0.21704,0.92242 -0.21101,0.40997 -0.69332,0.7717 0.80787,0.37982 1.18167,0.95257 0.37379,0.56672 0.37379,1.34445 0,0.74758 -0.38585,1.36253 -0.38585,0.61495 -0.99477,0.92243 -0.60892,0.30144 -1.68207,0.30144 z m 1.68809,-7.25881 v 1.86896 h 0.36777 q 0.61495,0 0.91036,-0.25924 0.30145,-0.25925 0.30145,-0.70538 0,-0.416 -0.28336,-0.65716 -0.28336,-0.24718 -0.86214,-0.24718 z m 0,3.37619 v 2.2729 h 0.42203 q 1.04903,0 1.41076,-0.26527 0.36777,-0.26527 0.36777,-0.7717 0,-0.57275 -0.42806,-0.90434 -0.42805,-0.33159 -1.42282,-0.33159 z"
         style="font-style:normal;font-variant:normal;font-weight:bold;font-stretch:normal;font-size:12.34722233px;font-family:'Century Gothic';-inkscape-font-specification:'Century Gothic Bold';fill:#ff9400;fill-opacity:1;fill-rule:nonzero;stroke-width:1.18024635"
         id="path1281"
         inkscape:connector-curvature="0" />
      <path
         d="m 285.2644,286.59808 h 4.84122 V 288.25 h -3.16518 v 1.60369 h 3.16518 v 1.62178 h -3.16518 v 2.33319 h 3.16518 v 1.65795 h -4.84122 z"
         style="font-style:normal;font-variant:normal;font-weight:bold;font-stretch:normal;font-size:12.34722233px;font-family:'Century Gothic';-inkscape-font-specification:'Century Gothic Bold';fill:#ff9400;fill-opacity:1;fill-rule:nonzero;stroke-width:1.18024635"
         id="path1283"
         inkscape:connector-curvature="0" />
      <path
         d="m 290.79894,286.59808 h 4.90151 v 1.66398 h -1.61575 v 7.20455 h -1.71221 v -7.20455 h -1.57355 z"
         style="font-style:normal;font-variant:normal;font-weight:bold;font-stretch:normal;font-size:12.34722233px;font-family:'Century Gothic';-inkscape-font-specification:'Century Gothic Bold';fill:#ff9400;fill-opacity:1;fill-rule:nonzero;stroke-width:1.18024635"
         id="path1285"
         inkscape:connector-curvature="0" />
      <path
         d="m 299.55896,286.59808 h 1.71222 l 3.41236,8.86853 h -1.75441 l -0.69333,-1.82676 h -3.61735 l -0.72347,1.82676 h -1.75441 z m 0.86817,2.35127 -1.18167,3.04461 h 2.35731 z"
         style="font-style:normal;font-variant:normal;font-weight:bold;font-stretch:normal;font-size:12.34722233px;font-family:'Century Gothic';-inkscape-font-specification:'Century Gothic Bold';fill:#ff9400;fill-opacity:1;fill-rule:nonzero;stroke-width:1.18024635"
         id="path1287"
         inkscape:connector-curvature="0" />
      <path
         d="m 312.32821,286.59808 h 1.70618 l 2.85168,7.28293 h 0.98874 v 2.91197 h -1.63383 v -1.32637 h -6.10127 v 1.32637 h -1.63383 v -2.91197 h 0.98271 z m 0.86816,2.35127 -1.94131,4.93166 h 3.8766 z"
         style="font-style:normal;font-variant:normal;font-weight:bold;font-stretch:normal;font-size:12.34722233px;font-family:'Century Gothic';-inkscape-font-specification:'Century Gothic Bold';fill:#ff9400;fill-opacity:1;fill-rule:nonzero;stroke-width:1.18024635"
         id="path1289"
         inkscape:connector-curvature="0" />
      <path
         d="m 318.97811,286.59808 h 4.84122 V 288.25 h -3.16518 v 1.60369 h 3.16518 v 1.62178 h -3.16518 v 2.33319 h 3.16518 v 1.65795 h -4.84122 z"
         style="font-style:normal;font-variant:normal;font-weight:bold;font-stretch:normal;font-size:12.34722233px;font-family:'Century Gothic';-inkscape-font-specification:'Century Gothic Bold';fill:#ff9400;fill-opacity:1;fill-rule:nonzero;stroke-width:1.18024635"
         id="path1291"
         inkscape:connector-curvature="0" />
      <path
         d="m 325.38082,286.59808 h 6.38462 v 8.86853 h -1.70618 v -7.28896 h -2.96623 v 7.28896 h -1.71221 z"
         style="font-style:normal;font-variant:normal;font-weight:bold;font-stretch:normal;font-size:12.34722233px;font-family:'Century Gothic';-inkscape-font-specification:'Century Gothic Bold';fill:#ff9400;fill-opacity:1;fill-rule:nonzero;stroke-width:1.18024635"
         id="path1293"
         inkscape:connector-curvature="0" />
      <path
         d="m 336.25697,293.4409 -3.14709,-6.84282 h 1.90514 l 2.086,4.94371 1.71222,-4.94371 h 1.73632 l -2.36333,6.34242 q -0.60892,1.62781 -1.32636,2.18247 -0.71142,0.54863 -1.51929,0.54863 -1.3143,0 -2.42363,-1.29019 l 1.10933,-1.11535 q 0.66318,0.7717 1.30827,0.7717 0.28939,0 0.47629,-0.13866 0.18689,-0.13867 0.44613,-0.4582 z"
         style="font-style:normal;font-variant:normal;font-weight:bold;font-stretch:normal;font-size:12.34722233px;font-family:'Century Gothic';-inkscape-font-specification:'Century Gothic Bold';fill:#ff9400;fill-opacity:1;fill-rule:nonzero;stroke-width:1.18024635"
         id="path1295"
         inkscape:connector-curvature="0" />
      <path
         d="m 340.81484,286.59808 h 4.90151 v 1.66398 h -1.61575 v 7.20455 h -1.71221 v -7.20455 h -1.57355 z"
         style="font-style:normal;font-variant:normal;font-weight:bold;font-stretch:normal;font-size:12.34722233px;font-family:'Century Gothic';-inkscape-font-specification:'Century Gothic Bold';fill:#ff9400;fill-opacity:1;fill-rule:nonzero;stroke-width:1.18024635"
         id="path1297"
         inkscape:connector-curvature="0" />
      <path
         d="m 349.57486,286.59808 h 1.71222 l 3.41236,8.86853 h -1.75441 l -0.69333,-1.82676 h -3.61735 l -0.72347,1.82676 h -1.75441 z m 0.86817,2.35127 -1.18167,3.04461 h 2.35731 z"
         style="font-style:normal;font-variant:normal;font-weight:bold;font-stretch:normal;font-size:12.34722233px;font-family:'Century Gothic';-inkscape-font-specification:'Century Gothic Bold';fill:#ff9400;fill-opacity:1;fill-rule:nonzero;stroke-width:1.18024635"
         id="path1299"
         inkscape:connector-curvature="0" />
      <path
         d="m 355.13955,286.59808 h 4.90151 v 1.66398 h -1.61575 v 7.20455 h -1.71222 v -7.20455 h -1.57354 z"
         style="font-style:normal;font-variant:normal;font-weight:bold;font-stretch:normal;font-size:12.34722233px;font-family:'Century Gothic';-inkscape-font-specification:'Century Gothic Bold';fill:#ff9400;fill-opacity:1;fill-rule:nonzero;stroke-width:1.18024635"
         id="path1301"
         inkscape:connector-curvature="0" />
      <path
         d="m 365.38871,286.37501 q 1.88102,0 3.2315,1.36253 1.35651,1.36254 1.35651,3.32194 0,1.94131 -1.33842,3.28576 -1.33239,1.34444 -3.23753,1.34444 -1.99557,0 -3.3159,-1.38062 -1.32034,-1.38062 -1.32034,-3.27973 0,-1.2721 0.61495,-2.33922 0.61495,-1.06712 1.6881,-1.6881 1.07918,-0.627 2.32113,-0.627 z m -0.0181,1.65192 q -1.2299,0 -2.06792,0.85611 -0.83802,0.8561 -0.83802,2.17644 0,1.47105 1.05506,2.32716 0.81993,0.66921 1.88102,0.66921 1.19975,0 2.0438,-0.86817 0.84405,-0.86816 0.84405,-2.14026 0,-1.26608 -0.85008,-2.14027 -0.85007,-0.88022 -2.06791,-0.88022 z"
         style="font-style:normal;font-variant:normal;font-weight:bold;font-stretch:normal;font-size:12.34722233px;font-family:'Century Gothic';-inkscape-font-specification:'Century Gothic Bold';fill:#ff9400;fill-opacity:1;fill-rule:nonzero;stroke-width:1.18024635"
         id="path1303"
         inkscape:connector-curvature="0" />
      <path
         d="m 371.56837,295.46661 v -8.86853 h 1.39268 q 1.21181,0 1.7725,0.15675 0.79581,0.21101 1.26607,0.78376 0.47026,0.57274 0.47026,1.35048 0,0.50642 -0.21705,0.92242 -0.21101,0.40997 -0.69332,0.7717 0.80787,0.37982 1.18167,0.95257 0.37379,0.56672 0.37379,1.34445 0,0.74758 -0.38585,1.36253 -0.38585,0.61495 -0.99477,0.92243 -0.60892,0.30144 -1.68207,0.30144 z m 1.68809,-7.25881 v 1.86896 h 0.36777 q 0.61495,0 0.91036,-0.25924 0.30145,-0.25925 0.30145,-0.70538 0,-0.416 -0.28336,-0.65716 -0.28336,-0.24718 -0.86214,-0.24718 z m 0,3.37619 v 2.2729 h 0.42203 q 1.04903,0 1.41076,-0.26527 0.36777,-0.26527 0.36777,-0.7717 0,-0.57275 -0.42806,-0.90434 -0.42805,-0.33159 -1.42282,-0.33159 z"
         style="font-style:normal;font-variant:normal;font-weight:bold;font-stretch:normal;font-size:12.34722233px;font-family:'Century Gothic';-inkscape-font-specification:'Century Gothic Bold';fill:#ff9400;fill-opacity:1;fill-rule:nonzero;stroke-width:1.18024635"
         id="path1305"
         inkscape:connector-curvature="0" />
    </g>
  </g>
</svg>
