<?xml version="1.0" encoding="UTF-8"?>
<!DOCTYPE svg PUBLIC "-//W3C//DTD SVG 1.1//EN" "http://www.w3.org/Graphics/SVG/1.1/DTD/svg11.dtd">
<!-- Creator: CorelDRAW -->
<svg xmlns="http://www.w3.org/2000/svg" xml:space="preserve" width="48.5579mm" height="4.9848mm" version="1.1" style="shape-rendering:geometricPrecision; text-rendering:geometricPrecision; image-rendering:optimizeQuality; fill-rule:evenodd; clip-rule:evenodd"
viewBox="0 0 30.11 3.09"
 xmlns:xlink="http://www.w3.org/1999/xlink"
 xmlns:xodm="http://www.corel.com/coreldraw/odm/2003">
 <defs>
  <style type="text/css">
   <![CDATA[
    .fil0 {fill:white;fill-rule:nonzero}
   ]]>
  </style>
 </defs>
 <g id="Слой_x0020_1">
  <metadata id="CorelCorpID_0Corel-Layer"/>
  <path class="fil0" d="M-0 0.1l0.42 0 1.02 1.55 0 -1.55 0.45 0 0 2.36 -0.42 0 -1.02 -1.55 0 1.55 -0.45 0 0 -2.36zm3.25 1.3c0,0.15 -0.06,0.29 -0.17,0.4 -0.11,0.11 -0.24,0.17 -0.4,0.17 -0.16,0 -0.29,-0.05 -0.4,-0.16 -0.11,-0.11 -0.16,-0.24 -0.16,-0.4 0,-0.15 0.06,-0.29 0.17,-0.4 0.11,-0.11 0.24,-0.17 0.4,-0.17 0.15,0 0.29,0.06 0.4,0.17 0.11,0.11 0.17,0.24 0.17,0.4zm-0.29 -0c0,-0.08 -0.03,-0.14 -0.08,-0.19 -0.05,-0.05 -0.12,-0.08 -0.19,-0.08 -0.07,0 -0.14,0.03 -0.19,0.08 -0.05,0.05 -0.08,0.12 -0.08,0.19 0,0.08 0.03,0.14 0.08,0.2 0.05,0.05 0.12,0.08 0.19,0.08 0.07,0 0.14,-0.03 0.19,-0.08 0.05,-0.05 0.08,-0.12 0.08,-0.2zm-0.83 0.78l1.13 0 0 0.28 -1.13 0 0 -0.28z"/>
  <polygon id="_1" class="fil0" points="5.64,2.01 5.96,2.17 5.56,2.84 5.34,2.74 "/>
  <path id="_2" class="fil0" d="M7.62 0.86l-0.44 0c0.01,-0.25 0.09,-0.45 0.24,-0.6 0.15,-0.15 0.34,-0.22 0.57,-0.22 0.14,0 0.27,0.03 0.38,0.09 0.11,0.06 0.2,0.15 0.26,0.26 0.07,0.11 0.1,0.23 0.1,0.35 0,0.14 -0.04,0.29 -0.12,0.45 -0.08,0.16 -0.23,0.35 -0.44,0.57l-0.26 0.28 0.84 0 0 0.41 -1.63 0 0 -0.21 0.73 -0.74c0.18,-0.18 0.29,-0.32 0.35,-0.43 0.06,-0.11 0.09,-0.21 0.09,-0.29 0,-0.09 -0.03,-0.17 -0.09,-0.23 -0.06,-0.06 -0.14,-0.09 -0.23,-0.09 -0.1,0 -0.18,0.04 -0.24,0.11 -0.06,0.07 -0.1,0.17 -0.1,0.29z"/>
  <path id="_3" class="fil0" d="M9.8 0.04c0.17,0 0.32,0.04 0.44,0.13 0.12,0.08 0.22,0.21 0.29,0.39 0.07,0.17 0.1,0.42 0.1,0.72 0,0.31 -0.03,0.56 -0.1,0.73 -0.07,0.17 -0.16,0.3 -0.28,0.38 -0.12,0.08 -0.26,0.12 -0.44,0.12 -0.18,0 -0.33,-0.04 -0.45,-0.12 -0.12,-0.08 -0.22,-0.21 -0.28,-0.38 -0.07,-0.17 -0.1,-0.41 -0.1,-0.72 0,-0.43 0.07,-0.75 0.2,-0.94 0.15,-0.21 0.35,-0.32 0.62,-0.32zm0.01 0.43c-0.08,0 -0.14,0.02 -0.2,0.07 -0.06,0.05 -0.1,0.13 -0.13,0.25 -0.03,0.12 -0.05,0.29 -0.05,0.52 0,0.3 0.04,0.5 0.11,0.62 0.07,0.11 0.16,0.17 0.27,0.17 0.11,0 0.19,-0.05 0.26,-0.16 0.08,-0.13 0.12,-0.35 0.12,-0.65 0,-0.31 -0.03,-0.52 -0.1,-0.64 -0.07,-0.12 -0.16,-0.18 -0.27,-0.18z"/>
  <path id="_4" class="fil0" d="M11.29 0.86l-0.44 0c0.01,-0.25 0.09,-0.45 0.24,-0.6 0.15,-0.15 0.34,-0.22 0.57,-0.22 0.14,0 0.27,0.03 0.38,0.09 0.11,0.06 0.2,0.15 0.26,0.26 0.07,0.11 0.1,0.23 0.1,0.35 0,0.14 -0.04,0.29 -0.12,0.45 -0.08,0.16 -0.23,0.35 -0.44,0.57l-0.26 0.28 0.84 0 0 0.41 -1.63 0 0 -0.21 0.73 -0.74c0.18,-0.18 0.29,-0.32 0.35,-0.43 0.06,-0.11 0.09,-0.21 0.09,-0.29 0,-0.09 -0.03,-0.17 -0.09,-0.23 -0.06,-0.06 -0.14,-0.09 -0.23,-0.09 -0.1,0 -0.18,0.04 -0.24,0.11 -0.06,0.07 -0.1,0.17 -0.1,0.29z"/>
  <path id="_5" class="fil0" d="M13.65 0.04l0.45 0 0 1.52 0.21 0 0 0.41 -0.21 0 0 0.48 -0.44 0 0 -0.48 -1.03 0 0 -0.41 1.02 -1.52zm0.01 1.52l0 -0.79 -0.54 0.79 0.54 0z"/>
  <polygon id="_6" class="fil0" points="15.54,0.71 16.55,0.71 16.55,1.13 15.97,1.13 15.97,2.45 15.54,2.45 "/>
  <path id="_7" class="fil0" d="M17.09 1.99c0.07,0 0.13,0.02 0.18,0.07 0.05,0.05 0.07,0.11 0.07,0.18 0,0.07 -0.02,0.13 -0.07,0.18 -0.05,0.05 -0.11,0.07 -0.18,0.07 -0.07,0 -0.13,-0.02 -0.18,-0.07 -0.05,-0.05 -0.07,-0.11 -0.07,-0.18 0,-0.07 0.02,-0.13 0.07,-0.18 0.05,-0.05 0.11,-0.07 0.18,-0.07z"/>
  <path id="_8" class="fil0" d="M4.33 0.04l0.38 0.19 -0.41 0.8c0.2,0 0.37,0.07 0.51,0.21 0.14,0.14 0.21,0.32 0.21,0.53 0,0.21 -0.07,0.38 -0.22,0.52 -0.14,0.14 -0.32,0.21 -0.52,0.21 -0.21,0 -0.39,-0.07 -0.53,-0.22 -0.14,-0.15 -0.21,-0.32 -0.21,-0.51 0,-0.07 0.01,-0.15 0.03,-0.22 0.02,-0.07 0.07,-0.19 0.15,-0.34l0.61 -1.18zm-0.06 1.41c-0.08,0 -0.15,0.03 -0.21,0.09 -0.06,0.06 -0.08,0.14 -0.08,0.23 0,0.09 0.03,0.17 0.09,0.23 0.06,0.06 0.13,0.09 0.21,0.09 0.08,0 0.15,-0.03 0.21,-0.09 0.06,-0.06 0.09,-0.14 0.09,-0.23 0,-0.09 -0.03,-0.17 -0.09,-0.23 -0.06,-0.06 -0.13,-0.09 -0.22,-0.09z"/>
  <polygon id="_9" class="fil0" points="19.12,1.34 19.78,1.34 19.78,0.71 20.21,0.71 20.21,2.45 19.78,2.45 19.78,1.73 19.12,1.73 19.12,2.45 18.68,2.45 18.68,0.71 19.12,0.71 "/>
  <path id="_10" class="fil0" d="M21.47 0.67c0.16,0 0.32,0.04 0.46,0.12 0.15,0.08 0.26,0.19 0.34,0.33 0.08,0.14 0.12,0.29 0.12,0.46 0,0.16 -0.04,0.32 -0.12,0.46 -0.08,0.14 -0.19,0.25 -0.33,0.33 -0.14,0.08 -0.3,0.12 -0.47,0.12 -0.25,0 -0.46,-0.09 -0.64,-0.27 -0.18,-0.18 -0.27,-0.39 -0.27,-0.65 0,-0.27 0.1,-0.5 0.3,-0.68 0.18,-0.16 0.38,-0.24 0.6,-0.24zm0.01 0.41c-0.14,0 -0.25,0.05 -0.34,0.14 -0.09,0.09 -0.14,0.21 -0.14,0.36 0,0.15 0.04,0.27 0.13,0.37 0.09,0.09 0.2,0.14 0.34,0.14 0.14,0 0.25,-0.05 0.34,-0.14 0.09,-0.09 0.14,-0.22 0.14,-0.37 0,-0.15 -0.04,-0.27 -0.13,-0.36 -0.09,-0.09 -0.2,-0.14 -0.34,-0.14z"/>
  <path id="_11" class="fil0" d="M23.05 1.74c-0.09,-0.03 -0.17,-0.09 -0.23,-0.18 -0.06,-0.09 -0.09,-0.18 -0.09,-0.29 0,-0.13 0.04,-0.24 0.11,-0.34 0.07,-0.1 0.16,-0.16 0.26,-0.18 0.1,-0.03 0.26,-0.04 0.48,-0.04l0.44 0 0 1.74 -0.44 0 0 -0.63 -0.08 0 -0.42 0.63 -0.52 0 0.49 -0.71zm0.54 -0.24l0 -0.42 -0.15 0c-0.17,0 -0.25,0.07 -0.25,0.21 0,0.14 0.09,0.21 0.28,0.21l0.12 0z"/>
  <path id="_12" class="fil0" d="M26.13 0l0 0.41c-0.13,0.01 -0.25,0.02 -0.36,0.02 -0.21,0 -0.38,0.01 -0.48,0.03 -0.11,0.02 -0.2,0.06 -0.29,0.12 -0.08,0.06 -0.14,0.13 -0.17,0.21 -0.03,0.08 -0.06,0.19 -0.06,0.34 0.13,-0.3 0.34,-0.45 0.65,-0.45 0.23,0 0.42,0.08 0.59,0.25 0.17,0.16 0.25,0.38 0.25,0.64 0,0.27 -0.09,0.49 -0.27,0.67 -0.18,0.18 -0.4,0.27 -0.66,0.27 -0.21,0 -0.4,-0.07 -0.56,-0.2 -0.16,-0.13 -0.27,-0.29 -0.31,-0.47 -0.05,-0.18 -0.07,-0.37 -0.07,-0.58 0,-0.26 0.03,-0.47 0.1,-0.64 0.07,-0.16 0.15,-0.29 0.26,-0.37 0.11,-0.08 0.23,-0.14 0.37,-0.17 0.14,-0.03 0.35,-0.05 0.62,-0.06 0.18,-0.01 0.32,-0.02 0.41,-0.03zm-0.33 1.58c0,-0.14 -0.04,-0.27 -0.13,-0.36 -0.09,-0.1 -0.2,-0.14 -0.35,-0.14 -0.14,0 -0.25,0.05 -0.34,0.14 -0.09,0.1 -0.14,0.22 -0.14,0.36 0,0.15 0.04,0.27 0.13,0.37 0.09,0.09 0.2,0.14 0.34,0.14 0.14,0 0.25,-0.05 0.34,-0.14 0.09,-0.09 0.14,-0.22 0.14,-0.37z"/>
  <path id="_13" class="fil0" d="M27.04 0.71l0 0.19c0.08,-0.08 0.16,-0.14 0.26,-0.18 0.09,-0.04 0.19,-0.06 0.29,-0.06 0.23,0 0.42,0.09 0.58,0.26 0.16,0.17 0.24,0.39 0.24,0.66 0,0.26 -0.08,0.48 -0.25,0.65 -0.16,0.17 -0.36,0.26 -0.58,0.26 -0.1,0 -0.19,-0.02 -0.28,-0.05 -0.09,-0.04 -0.17,-0.09 -0.26,-0.18l0 0.82 -0.44 0 0 -2.38 0.44 0zm0.46 0.36c-0.14,0 -0.25,0.05 -0.34,0.14 -0.09,0.09 -0.14,0.22 -0.14,0.37 0,0.15 0.05,0.28 0.14,0.38 0.09,0.1 0.2,0.14 0.34,0.14 0.13,0 0.25,-0.05 0.34,-0.15 0.09,-0.1 0.14,-0.22 0.14,-0.37 0,-0.15 -0.04,-0.27 -0.13,-0.37 -0.09,-0.1 -0.2,-0.14 -0.34,-0.14z"/>
  <path id="_14" class="fil0" d="M29.2 1.34l0.13 0c0.18,0 0.32,0.01 0.42,0.04 0.1,0.03 0.18,0.09 0.25,0.18 0.07,0.09 0.1,0.2 0.1,0.34 0,0.13 -0.03,0.25 -0.09,0.33 -0.06,0.09 -0.14,0.15 -0.23,0.18 -0.09,0.03 -0.23,0.04 -0.4,0.04l-0.62 0 0 -1.74 0.44 0 0 0.63zm0 0.77l0.13 0c0.08,0 0.14,-0.01 0.17,-0.02 0.04,-0.01 0.07,-0.03 0.09,-0.06 0.03,-0.03 0.04,-0.07 0.04,-0.12 0,-0.15 -0.09,-0.22 -0.26,-0.22l-0.18 0 0 0.42z"/>
 </g>
</svg>
