<?xml version="1.0" encoding="UTF-8"?>
<!DOCTYPE svg PUBLIC "-//W3C//DTD SVG 1.1//EN" "http://www.w3.org/Graphics/SVG/1.1/DTD/svg11.dtd">
<!-- Creator: CorelDRAW -->
<svg xmlns="http://www.w3.org/2000/svg" xml:space="preserve" width="42.9302mm" height="4.5244mm" version="1.1" style="shape-rendering:geometricPrecision; text-rendering:geometricPrecision; image-rendering:optimizeQuality; fill-rule:evenodd; clip-rule:evenodd"
viewBox="0 0 23.53 2.48"
 xmlns:xlink="http://www.w3.org/1999/xlink"
 xmlns:xodm="http://www.corel.com/coreldraw/odm/2003">
 <defs>
  <style type="text/css">
   <![CDATA[
    .fil0 {fill:white;fill-rule:nonzero}
   ]]>
  </style>
 </defs>
 <g id="Слой_x0020_1">
  <metadata id="CorelCorpID_0Corel-Layer"/>
  <path class="fil0" d="M-0 0.05l0.37 0 0.9 1.37 0 -1.37 0.39 0 0 2.08 -0.37 0 -0.9 -1.37 0 1.37 -0.39 0 0 -2.08zm2.88 1.15c0,0.14 -0.05,0.25 -0.15,0.35 -0.1,0.1 -0.22,0.15 -0.35,0.15 -0.14,0 -0.26,-0.05 -0.35,-0.14 -0.1,-0.1 -0.15,-0.21 -0.15,-0.35 0,-0.14 0.05,-0.25 0.15,-0.35 0.1,-0.1 0.21,-0.15 0.35,-0.15 0.14,0 0.25,0.05 0.35,0.15 0.1,0.1 0.15,0.21 0.15,0.35zm-0.26 -0c0,-0.07 -0.02,-0.12 -0.07,-0.17 -0.05,-0.05 -0.1,-0.07 -0.17,-0.07 -0.07,0 -0.12,0.02 -0.17,0.07 -0.05,0.05 -0.07,0.1 -0.07,0.17 0,0.07 0.02,0.13 0.07,0.17 0.05,0.05 0.1,0.07 0.17,0.07 0.07,0 0.12,-0.02 0.17,-0.07 0.05,-0.05 0.07,-0.11 0.07,-0.17zm-0.74 0.69l0.99 0 0 0.25 -0.99 0 0 -0.25z"/>
  <path id="_1" class="fil0" d="M3.95 0l0.39 0 0 1.34 0.19 0 0 0.37 -0.19 0 0 0.43 -0.39 0 0 -0.43 -0.91 0 0 -0.36 0.91 -1.34zm0 1.34l0 -0.7 -0.48 0.7 0.48 0z"/>
  <polygon id="_2" class="fil0" points="4.99,1.74 5.27,1.88 4.92,2.48 4.72,2.39 "/>
  <path id="_3" class="fil0" d="M6.74 0.73l-0.39 0c0.01,-0.23 0.08,-0.4 0.21,-0.53 0.13,-0.13 0.3,-0.19 0.5,-0.19 0.13,0 0.24,0.03 0.34,0.08 0.1,0.05 0.17,0.13 0.23,0.23 0.06,0.1 0.09,0.2 0.09,0.31 0,0.12 -0.04,0.26 -0.11,0.4 -0.07,0.14 -0.2,0.31 -0.39,0.51l-0.23 0.25 0.74 0 0 0.37 -1.44 0 0 -0.19 0.64 -0.66c0.16,-0.16 0.26,-0.28 0.31,-0.38 0.05,-0.1 0.08,-0.18 0.08,-0.26 0,-0.08 -0.03,-0.15 -0.08,-0.2 -0.05,-0.05 -0.12,-0.08 -0.21,-0.08 -0.09,0 -0.16,0.03 -0.21,0.1 -0.06,0.06 -0.09,0.15 -0.09,0.26z"/>
  <path id="_4" class="fil0" d="M8.66 0c0.15,0 0.28,0.04 0.39,0.11 0.11,0.07 0.19,0.19 0.25,0.34 0.06,0.15 0.09,0.37 0.09,0.64 0,0.28 -0.03,0.49 -0.09,0.65 -0.06,0.15 -0.14,0.27 -0.25,0.34 -0.1,0.07 -0.23,0.11 -0.39,0.11 -0.16,0 -0.29,-0.04 -0.39,-0.11 -0.11,-0.07 -0.19,-0.18 -0.25,-0.33 -0.06,-0.15 -0.09,-0.36 -0.09,-0.63 0,-0.38 0.06,-0.66 0.18,-0.83 0.13,-0.19 0.31,-0.28 0.55,-0.28zm0.01 0.38c-0.07,0 -0.13,0.02 -0.18,0.06 -0.05,0.04 -0.09,0.12 -0.12,0.22 -0.03,0.1 -0.04,0.26 -0.04,0.46 0,0.26 0.03,0.44 0.09,0.54 0.06,0.1 0.14,0.15 0.24,0.15 0.1,0 0.17,-0.05 0.23,-0.14 0.07,-0.12 0.1,-0.31 0.1,-0.58 0,-0.27 -0.03,-0.46 -0.09,-0.56 -0.06,-0.1 -0.14,-0.16 -0.24,-0.16z"/>
  <path id="_5" class="fil0" d="M9.99 0.73l-0.39 0c0.01,-0.23 0.08,-0.4 0.21,-0.53 0.13,-0.13 0.3,-0.19 0.5,-0.19 0.13,0 0.24,0.03 0.34,0.08 0.1,0.05 0.17,0.13 0.23,0.23 0.06,0.1 0.09,0.2 0.09,0.31 0,0.12 -0.04,0.26 -0.11,0.4 -0.07,0.14 -0.2,0.31 -0.39,0.51l-0.23 0.25 0.74 0 0 0.37 -1.44 0 0 -0.19 0.64 -0.66c0.16,-0.16 0.26,-0.28 0.31,-0.38 0.05,-0.1 0.08,-0.18 0.08,-0.26 0,-0.08 -0.03,-0.15 -0.08,-0.2 -0.05,-0.05 -0.12,-0.08 -0.21,-0.08 -0.09,0 -0.16,0.03 -0.21,0.1 -0.06,0.06 -0.09,0.15 -0.09,0.26z"/>
  <path id="_6" class="fil0" d="M12.07 0l0.39 0 0 1.34 0.19 0 0 0.37 -0.19 0 0 0.43 -0.39 0 0 -0.43 -0.91 0 0 -0.36 0.91 -1.34zm0 1.34l0 -0.7 -0.48 0.7 0.48 0z"/>
  <polygon id="_7" class="fil0" points="13.74,0.59 14.63,0.59 14.63,0.96 14.12,0.96 14.12,2.13 13.74,2.13 "/>
  <path id="_8" class="fil0" d="M15.11 1.73c0.06,0 0.11,0.02 0.16,0.06 0.04,0.04 0.06,0.1 0.06,0.16 0,0.06 -0.02,0.11 -0.06,0.16 -0.04,0.04 -0.1,0.07 -0.16,0.07 -0.06,0 -0.11,-0.02 -0.16,-0.07 -0.04,-0.04 -0.06,-0.1 -0.06,-0.16 0,-0.06 0.02,-0.11 0.06,-0.16 0.04,-0.04 0.1,-0.06 0.16,-0.06z"/>
  <polygon id="_9" class="fil0" points="16.72,2.13 16.52,2.13 16.52,0.59 16.9,0.59 16.9,1.5 17.68,0.59 17.87,0.59 17.87,2.13 17.49,2.13 17.49,1.25 "/>
  <path id="_10" class="fil0" d="M18.65 2.13l-0.39 0 0 -1.54 0.39 0 0 0.61 0.21 0c0.05,-0.2 0.15,-0.36 0.3,-0.48 0.15,-0.11 0.31,-0.17 0.49,-0.17 0.23,0 0.42,0.08 0.58,0.23 0.16,0.16 0.24,0.35 0.24,0.57 0,0.22 -0.08,0.41 -0.23,0.57 -0.16,0.16 -0.35,0.24 -0.58,0.24 -0.19,0 -0.35,-0.06 -0.5,-0.18 -0.15,-0.12 -0.24,-0.26 -0.28,-0.44l-0.21 0 0 0.58zm1.42 -0.77c0,-0.13 -0.04,-0.24 -0.12,-0.32 -0.08,-0.08 -0.18,-0.12 -0.3,-0.12 -0.12,0 -0.22,0.04 -0.3,0.13 -0.08,0.09 -0.12,0.19 -0.12,0.31 0,0.13 0.04,0.24 0.12,0.32 0.08,0.08 0.18,0.12 0.3,0.12 0.12,0 0.22,-0.04 0.3,-0.12 0.08,-0.08 0.12,-0.19 0.12,-0.32z"/>
  <polygon id="_11" class="fil0" points="22.15,2.13 21.76,2.13 21.37,1.16 20.97,2.13 20.58,2.13 21.24,0.59 21.49,0.59 "/>
  <path id="_12" class="fil0" d="M22.73 1.15l0.12 0c0.16,0 0.29,0.01 0.37,0.04 0.09,0.03 0.16,0.08 0.22,0.16 0.06,0.08 0.09,0.18 0.09,0.3 0,0.12 -0.03,0.22 -0.08,0.3 -0.05,0.08 -0.12,0.13 -0.21,0.16 -0.08,0.03 -0.2,0.04 -0.35,0.04l-0.54 0 0 -1.54 0.39 0 0 0.56zm0 0.68l0.12 0c0.07,0 0.12,-0 0.15,-0.02 0.03,-0.01 0.06,-0.03 0.08,-0.06 0.02,-0.03 0.04,-0.06 0.04,-0.1 0,-0.13 -0.08,-0.2 -0.23,-0.2l-0.16 0 0 0.37z"/>
 </g>
</svg>
