<?xml version="1.0" encoding="UTF-8"?>
<!DOCTYPE svg PUBLIC "-//W3C//DTD SVG 1.1//EN" "http://www.w3.org/Graphics/SVG/1.1/DTD/svg11.dtd">
<!-- Creator: CorelDRAW -->
<svg xmlns="http://www.w3.org/2000/svg" xml:space="preserve" width="43.6374mm" height="4.9213mm" version="1.1" style="shape-rendering:geometricPrecision; text-rendering:geometricPrecision; image-rendering:optimizeQuality; fill-rule:evenodd; clip-rule:evenodd"
viewBox="0 0 24.31 2.74"
 xmlns:xlink="http://www.w3.org/1999/xlink"
 xmlns:xodm="http://www.corel.com/coreldraw/odm/2003">
 <defs>
  <style type="text/css">
   <![CDATA[
    .fil0 {fill:white;fill-rule:nonzero}
   ]]>
  </style>
 </defs>
 <g id="Слой_x0020_1">
  <metadata id="CorelCorpID_0Corel-Layer"/>
  <path class="fil0" d="M-0 0.05l0.38 0 0.92 1.39 0 -1.39 0.4 0 0 2.12 -0.38 0 -0.92 -1.39 0 1.39 -0.4 0 0 -2.12zm2.92 1.17c0,0.14 -0.05,0.26 -0.15,0.36 -0.1,0.1 -0.22,0.15 -0.36,0.15 -0.14,0 -0.26,-0.05 -0.36,-0.15 -0.1,-0.1 -0.15,-0.22 -0.15,-0.36 0,-0.14 0.05,-0.26 0.15,-0.36 0.1,-0.1 0.22,-0.15 0.36,-0.15 0.14,0 0.26,0.05 0.36,0.15 0.1,0.1 0.15,0.22 0.15,0.36zm-0.26 -0c0,-0.07 -0.02,-0.13 -0.07,-0.17 -0.05,-0.05 -0.1,-0.07 -0.17,-0.07 -0.07,0 -0.12,0.02 -0.17,0.07 -0.05,0.05 -0.07,0.11 -0.07,0.17 0,0.07 0.02,0.13 0.07,0.18 0.05,0.05 0.1,0.07 0.17,0.07 0.07,0 0.12,-0.02 0.17,-0.07 0.05,-0.05 0.07,-0.11 0.07,-0.18zm-0.75 0.7l1.01 0 0 0.25 -1.01 0 0 -0.25z"/>
  <polygon id="_1" class="fil0" points="5.07,1.77 5.35,1.91 5,2.52 4.8,2.43 "/>
  <path id="_2" class="fil0" d="M6.85 0.74l-0.39 0c0.01,-0.23 0.08,-0.41 0.22,-0.54 0.13,-0.13 0.3,-0.2 0.51,-0.2 0.13,0 0.24,0.03 0.34,0.08 0.1,0.05 0.18,0.13 0.24,0.23 0.06,0.1 0.09,0.21 0.09,0.31 0,0.13 -0.04,0.26 -0.11,0.41 -0.07,0.14 -0.2,0.32 -0.39,0.51l-0.24 0.25 0.76 0 0 0.37 -1.47 0 0 -0.19 0.66 -0.67c0.16,-0.16 0.26,-0.29 0.32,-0.39 0.05,-0.1 0.08,-0.19 0.08,-0.26 0,-0.08 -0.03,-0.15 -0.08,-0.2 -0.05,-0.05 -0.12,-0.08 -0.21,-0.08 -0.09,0 -0.16,0.03 -0.22,0.1 -0.06,0.06 -0.09,0.15 -0.09,0.26z"/>
  <path id="_3" class="fil0" d="M8.81 0c0.15,0 0.29,0.04 0.4,0.11 0.11,0.08 0.2,0.19 0.26,0.35 0.06,0.16 0.09,0.37 0.09,0.65 0,0.28 -0.03,0.5 -0.09,0.66 -0.06,0.16 -0.14,0.27 -0.25,0.34 -0.1,0.07 -0.24,0.11 -0.4,0.11 -0.16,0 -0.29,-0.04 -0.4,-0.11 -0.11,-0.07 -0.19,-0.19 -0.26,-0.34 -0.06,-0.15 -0.09,-0.36 -0.09,-0.64 0,-0.39 0.06,-0.67 0.18,-0.84 0.13,-0.19 0.32,-0.29 0.56,-0.29zm0.01 0.38c-0.07,0 -0.13,0.02 -0.18,0.07 -0.05,0.04 -0.09,0.12 -0.12,0.22 -0.03,0.11 -0.04,0.26 -0.04,0.47 0,0.27 0.03,0.45 0.1,0.55 0.06,0.1 0.15,0.15 0.25,0.15 0.1,0 0.17,-0.05 0.23,-0.14 0.07,-0.12 0.1,-0.31 0.1,-0.59 0,-0.28 -0.03,-0.47 -0.09,-0.57 -0.06,-0.11 -0.14,-0.16 -0.24,-0.16z"/>
  <path id="_4" class="fil0" d="M10.15 0.74l-0.39 0c0.01,-0.23 0.08,-0.41 0.22,-0.54 0.13,-0.13 0.3,-0.2 0.51,-0.2 0.13,0 0.24,0.03 0.34,0.08 0.1,0.05 0.18,0.13 0.24,0.23 0.06,0.1 0.09,0.21 0.09,0.31 0,0.13 -0.04,0.26 -0.11,0.41 -0.07,0.14 -0.2,0.32 -0.39,0.51l-0.24 0.25 0.76 0 0 0.37 -1.47 0 0 -0.19 0.66 -0.67c0.16,-0.16 0.26,-0.29 0.32,-0.39 0.05,-0.1 0.08,-0.19 0.08,-0.26 0,-0.08 -0.03,-0.15 -0.08,-0.2 -0.05,-0.05 -0.12,-0.08 -0.21,-0.08 -0.09,0 -0.16,0.03 -0.22,0.1 -0.06,0.06 -0.09,0.15 -0.09,0.26z"/>
  <polygon id="_5" class="fil0" points="13.96,0.6 14.88,0.6 14.88,0.98 14.35,0.98 14.35,2.17 13.96,2.17 "/>
  <path id="_6" class="fil0" d="M15.35 1.76c0.06,0 0.12,0.02 0.16,0.07 0.04,0.04 0.07,0.1 0.07,0.16 0,0.06 -0.02,0.12 -0.07,0.16 -0.04,0.04 -0.1,0.07 -0.16,0.07 -0.06,0 -0.12,-0.02 -0.16,-0.07 -0.04,-0.04 -0.07,-0.1 -0.07,-0.16 0,-0.06 0.02,-0.12 0.07,-0.16 0.04,-0.04 0.1,-0.07 0.16,-0.07z"/>
  <path id="_7" class="fil0" d="M3.55 0.74l-0.39 0c0.01,-0.23 0.08,-0.41 0.22,-0.54 0.13,-0.13 0.3,-0.2 0.51,-0.2 0.13,0 0.24,0.03 0.34,0.08 0.1,0.05 0.18,0.13 0.24,0.23 0.06,0.1 0.09,0.21 0.09,0.31 0,0.13 -0.04,0.26 -0.11,0.41 -0.07,0.14 -0.2,0.32 -0.39,0.51l-0.24 0.25 0.76 0 0 0.37 -1.47 0 0 -0.19 0.66 -0.67c0.16,-0.16 0.26,-0.29 0.32,-0.39 0.05,-0.1 0.08,-0.19 0.08,-0.26 0,-0.08 -0.03,-0.15 -0.08,-0.2 -0.05,-0.05 -0.12,-0.08 -0.21,-0.08 -0.09,0 -0.16,0.03 -0.22,0.1 -0.06,0.06 -0.09,0.15 -0.09,0.26z"/>
  <path id="_8" class="fil0" d="M11.78 0.05l0.99 0 0 0.37 -0.69 0 -0.09 0.39c0.02,-0.01 0.05,-0.01 0.07,-0.02 0.02,-0 0.05,-0 0.07,-0 0.19,0 0.35,0.07 0.48,0.2 0.13,0.13 0.19,0.3 0.19,0.5 0,0.21 -0.07,0.38 -0.21,0.52 -0.14,0.14 -0.31,0.21 -0.51,0.21 -0.18,0 -0.34,-0.05 -0.47,-0.15 -0.13,-0.1 -0.21,-0.24 -0.26,-0.42l0.42 0c0.03,0.07 0.08,0.12 0.13,0.15 0.05,0.03 0.11,0.05 0.18,0.05 0.09,0 0.16,-0.03 0.23,-0.1 0.06,-0.06 0.09,-0.15 0.09,-0.25 0,-0.1 -0.03,-0.18 -0.09,-0.24 -0.06,-0.06 -0.13,-0.09 -0.21,-0.09 -0.04,0 -0.09,0.01 -0.13,0.03 -0.04,0.02 -0.08,0.05 -0.13,0.1l-0.33 -0.07 0.26 -1.18z"/>
  <polygon id="_9" class="fil0" points="17.75,1.59 18.24,0.6 18.49,0.6 18.88,2.17 18.5,2.17 18.29,1.25 17.82,2.17 17.66,2.17 17.21,1.25 16.99,2.17 16.61,2.17 17,0.6 17.26,0.6 "/>
  <path id="_10" class="fil0" d="M20.26 0.6l0.39 0 0 1.57 -0.39 0 0 -0.17c-0.08,0.07 -0.15,0.12 -0.23,0.16 -0.08,0.03 -0.16,0.05 -0.25,0.05 -0.2,0 -0.38,-0.08 -0.53,-0.23 -0.15,-0.16 -0.22,-0.35 -0.22,-0.58 0,-0.24 0.07,-0.44 0.21,-0.59 0.14,-0.15 0.32,-0.23 0.52,-0.23 0.09,0 0.18,0.02 0.26,0.05 0.08,0.03 0.16,0.09 0.23,0.16l0 -0.17zm-0.41 0.32c-0.12,0 -0.22,0.04 -0.3,0.13 -0.08,0.09 -0.12,0.2 -0.12,0.33 0,0.14 0.04,0.25 0.12,0.33 0.08,0.09 0.18,0.13 0.3,0.13 0.12,0 0.23,-0.04 0.31,-0.13 0.08,-0.09 0.12,-0.2 0.12,-0.34 0,-0.14 -0.04,-0.25 -0.12,-0.33 -0.08,-0.08 -0.18,-0.13 -0.31,-0.13z"/>
  <path id="_11" class="fil0" d="M21.44 0.6l0 0.17c0.07,-0.07 0.15,-0.12 0.23,-0.16 0.08,-0.03 0.17,-0.05 0.26,-0.05 0.2,0 0.38,0.08 0.52,0.23 0.14,0.15 0.21,0.35 0.21,0.59 0,0.23 -0.07,0.43 -0.22,0.58 -0.15,0.16 -0.32,0.23 -0.52,0.23 -0.09,0 -0.17,-0.02 -0.25,-0.05 -0.08,-0.03 -0.15,-0.08 -0.23,-0.16l0 0.74 -0.39 0 0 -2.14 0.39 0zm0.41 0.32c-0.12,0 -0.23,0.04 -0.31,0.13 -0.08,0.08 -0.12,0.19 -0.12,0.33 0,0.14 0.04,0.25 0.12,0.34 0.08,0.09 0.18,0.13 0.31,0.13 0.12,0 0.22,-0.04 0.3,-0.13 0.08,-0.09 0.12,-0.2 0.12,-0.33 0,-0.13 -0.04,-0.24 -0.12,-0.33 -0.08,-0.09 -0.18,-0.13 -0.3,-0.13z"/>
  <polygon id="_12" class="fil0" points="22.85,0.6 24.31,0.6 24.31,0.98 23.79,0.98 23.79,2.17 23.4,2.17 23.4,0.98 22.85,0.98 "/>
 </g>
</svg>
