<?xml version="1.0" encoding="UTF-8"?>
<!DOCTYPE svg PUBLIC "-//W3C//DTD SVG 1.1//EN" "http://www.w3.org/Graphics/SVG/1.1/DTD/svg11.dtd">
<!-- Creator: CorelDRAW -->
<svg xmlns="http://www.w3.org/2000/svg" xml:space="preserve" width="42.9467mm" height="15.126mm" version="1.1" style="shape-rendering:geometricPrecision; text-rendering:geometricPrecision; image-rendering:optimizeQuality; fill-rule:evenodd; clip-rule:evenodd"
viewBox="0 0 23.55 8.29"
 xmlns:xlink="http://www.w3.org/1999/xlink"
 xmlns:xodm="http://www.corel.com/coreldraw/odm/2003">
 <defs>
  <style type="text/css">
   <![CDATA[
    .fil0 {fill:white;fill-rule:nonzero}
   ]]>
  </style>
 </defs>
 <g id="Слой_x0020_1">
  <metadata id="CorelCorpID_0Corel-Layer"/>
  <path class="fil0" d="M0.17 0.09l0.67 0 1.63 2.47 0 -2.47 0.71 0 0 3.75 -0.67 0 -1.62 -2.46 0 2.46 -0.71 0 0 -3.75zm5.18 2.07c0,0.24 -0.09,0.46 -0.26,0.63 -0.18,0.17 -0.39,0.26 -0.63,0.26 -0.25,0 -0.46,-0.09 -0.63,-0.26 -0.17,-0.17 -0.26,-0.39 -0.26,-0.63 0,-0.24 0.09,-0.46 0.26,-0.63 0.17,-0.17 0.39,-0.26 0.63,-0.26 0.24,0 0.46,0.09 0.63,0.26 0.18,0.17 0.26,0.39 0.26,0.63zm-0.46 -0c0,-0.12 -0.04,-0.22 -0.13,-0.31 -0.08,-0.09 -0.19,-0.13 -0.3,-0.13 -0.12,0 -0.22,0.04 -0.3,0.13 -0.08,0.09 -0.13,0.19 -0.13,0.31 0,0.12 0.04,0.23 0.13,0.31 0.08,0.09 0.19,0.13 0.31,0.13 0.12,0 0.22,-0.04 0.3,-0.13 0.08,-0.09 0.13,-0.19 0.13,-0.31zm-1.33 1.23l1.79 0 0 0.44 -1.79 0 0 -0.44z"/>
  <polygon id="_1" class="fil0" points="9.36,2.14 10.65,2.14 10.65,2.78 9.36,2.78 "/>
  <path id="_2" class="fil0" d="M12.23 1.31l-0.69 0c0.02,-0.41 0.15,-0.72 0.38,-0.96 0.24,-0.23 0.54,-0.35 0.91,-0.35 0.23,0 0.43,0.05 0.6,0.14 0.17,0.1 0.31,0.23 0.42,0.42 0.1,0.18 0.16,0.37 0.16,0.55 0,0.22 -0.06,0.46 -0.19,0.72 -0.13,0.26 -0.36,0.56 -0.7,0.91l-0.42 0.44 1.34 0 0 0.66 -2.6 0 0 -0.34 1.16 -1.18c0.28,-0.28 0.47,-0.51 0.56,-0.68 0.09,-0.17 0.14,-0.33 0.14,-0.47 0,-0.14 -0.05,-0.26 -0.14,-0.36 -0.1,-0.09 -0.22,-0.14 -0.37,-0.14 -0.15,0 -0.28,0.06 -0.38,0.17 -0.1,0.11 -0.16,0.27 -0.16,0.47z"/>
  <path id="_3" class="fil0" d="M15.92 0c0.27,0 0.51,0.07 0.71,0.2 0.2,0.13 0.35,0.34 0.46,0.62 0.11,0.28 0.16,0.66 0.16,1.15 0,0.5 -0.05,0.89 -0.16,1.16 -0.11,0.28 -0.26,0.48 -0.44,0.61 -0.18,0.13 -0.42,0.2 -0.7,0.2 -0.28,0 -0.52,-0.07 -0.71,-0.2 -0.19,-0.13 -0.34,-0.33 -0.45,-0.6 -0.11,-0.27 -0.16,-0.65 -0.16,-1.14 0,-0.69 0.11,-1.19 0.32,-1.5 0.24,-0.34 0.56,-0.51 0.99,-0.51zm0.02 0.68c-0.12,0 -0.23,0.04 -0.32,0.12 -0.09,0.08 -0.16,0.21 -0.21,0.4 -0.05,0.19 -0.07,0.46 -0.07,0.83 0,0.47 0.06,0.8 0.17,0.98 0.11,0.18 0.26,0.27 0.44,0.27 0.17,0 0.31,-0.09 0.41,-0.26 0.12,-0.21 0.19,-0.55 0.19,-1.04 0,-0.49 -0.06,-0.83 -0.17,-1.02 -0.11,-0.19 -0.25,-0.28 -0.43,-0.28z"/>
  <path id="_4" class="fil0" d="M18.52 1.31l-0.69 0c0.02,-0.41 0.15,-0.72 0.38,-0.96 0.24,-0.23 0.54,-0.35 0.91,-0.35 0.23,0 0.43,0.05 0.6,0.14 0.17,0.1 0.31,0.23 0.42,0.42 0.1,0.18 0.16,0.37 0.16,0.55 0,0.22 -0.06,0.46 -0.19,0.72 -0.13,0.26 -0.36,0.56 -0.7,0.91l-0.42 0.44 1.34 0 0 0.66 -2.6 0 0 -0.34 1.16 -1.18c0.28,-0.28 0.47,-0.51 0.56,-0.68 0.09,-0.17 0.14,-0.33 0.14,-0.47 0,-0.14 -0.05,-0.26 -0.14,-0.36 -0.1,-0.09 -0.22,-0.14 -0.37,-0.14 -0.15,0 -0.28,0.06 -0.38,0.17 -0.1,0.11 -0.16,0.27 -0.16,0.47z"/>
  <path id="_5" class="fil0" d="M22.27 0l0.6 0.3 -0.65 1.28c0.32,0 0.59,0.11 0.81,0.34 0.22,0.23 0.33,0.51 0.33,0.85 0,0.33 -0.11,0.6 -0.34,0.83 -0.23,0.23 -0.5,0.34 -0.83,0.34 -0.34,0 -0.62,-0.12 -0.85,-0.35 -0.23,-0.24 -0.34,-0.5 -0.34,-0.81 0,-0.12 0.02,-0.23 0.05,-0.35 0.03,-0.12 0.12,-0.3 0.24,-0.54l0.96 -1.88zm-0.09 2.25c-0.13,0 -0.24,0.05 -0.33,0.14 -0.09,0.1 -0.13,0.22 -0.13,0.36 0,0.14 0.05,0.27 0.14,0.36 0.09,0.1 0.2,0.15 0.33,0.15 0.13,0 0.25,-0.05 0.34,-0.15 0.09,-0.1 0.14,-0.22 0.14,-0.37 0,-0.15 -0.05,-0.27 -0.14,-0.36 -0.09,-0.1 -0.21,-0.14 -0.35,-0.14z"/>
  <path id="_6" class="fil0" d="M7.5 0l0.71 0 0 2.42 0.33 0 0 0.66 -0.33 0 0 0.77 -0.7 0 0 -0.77 -1.64 0 0 -0.66 1.63 -2.42zm0.01 2.42l0 -1.26 -0.86 1.26 0.86 0z"/>
  <polygon id="_7" class="fil0" points="0.27,7.56 -0,7.56 -0,5.56 0.49,5.56 0.49,6.74 1.52,5.56 1.76,5.56 1.76,7.56 1.27,7.56 1.27,6.41 "/>
  <path id="_8" class="fil0" d="M2.77 7.56l-0.5 0 0 -2 0.5 0 0 0.79 0.27 0c0.06,-0.26 0.19,-0.47 0.39,-0.62 0.2,-0.15 0.41,-0.22 0.64,-0.22 0.29,0 0.54,0.1 0.75,0.3 0.21,0.2 0.31,0.45 0.31,0.74 0,0.29 -0.1,0.54 -0.3,0.74 -0.2,0.21 -0.45,0.31 -0.76,0.31 -0.24,0 -0.46,-0.08 -0.65,-0.23 -0.19,-0.15 -0.32,-0.34 -0.37,-0.57l-0.27 0 0 0.75zm1.84 -1c0,-0.17 -0.05,-0.31 -0.15,-0.42 -0.1,-0.11 -0.23,-0.16 -0.4,-0.16 -0.16,0 -0.29,0.06 -0.39,0.17 -0.1,0.11 -0.15,0.25 -0.15,0.41 0,0.17 0.05,0.32 0.15,0.42 0.1,0.11 0.23,0.16 0.39,0.16 0.15,0 0.28,-0.05 0.39,-0.16 0.11,-0.11 0.16,-0.25 0.16,-0.42z"/>
  <polygon id="_9" class="fil0" points="7.32,7.56 6.81,7.56 6.3,6.3 5.79,7.56 5.28,7.56 6.14,5.56 6.46,5.56 "/>
  <path id="_10" class="fil0" d="M8.08 6.28l0.15 0c0.21,0 0.37,0.02 0.49,0.05 0.11,0.03 0.21,0.1 0.29,0.2 0.08,0.1 0.12,0.23 0.12,0.39 0,0.15 -0.04,0.28 -0.11,0.38 -0.07,0.1 -0.16,0.17 -0.27,0.2 -0.11,0.03 -0.26,0.05 -0.46,0.05l-0.71 0 0 -2 0.5 0 0 0.72zm0 0.89l0.15 0c0.09,0 0.16,-0.01 0.2,-0.02 0.04,-0.01 0.08,-0.04 0.11,-0.07 0.03,-0.04 0.05,-0.08 0.05,-0.13 0,-0.17 -0.1,-0.26 -0.3,-0.26l-0.21 0 0 0.48z"/>
  <polygon id="_11" class="fil0" points="9.33,8.05 10.55,4.77 10.91,4.77 9.69,8.05 "/>
  <path id="_12" class="fil0" d="M12.72 5.56l0.5 0 0 2 -0.5 0 0 -0.21c-0.1,0.09 -0.2,0.16 -0.3,0.2 -0.1,0.04 -0.21,0.06 -0.32,0.06 -0.26,0 -0.48,-0.1 -0.67,-0.3 -0.19,-0.2 -0.28,-0.45 -0.28,-0.75 0,-0.31 0.09,-0.56 0.27,-0.76 0.18,-0.2 0.4,-0.3 0.67,-0.3 0.12,0 0.23,0.02 0.34,0.07 0.11,0.04 0.2,0.11 0.29,0.2l0 -0.22zm-0.53 0.41c-0.16,0 -0.29,0.05 -0.39,0.16 -0.1,0.11 -0.15,0.25 -0.15,0.42 0,0.17 0.05,0.31 0.16,0.43 0.1,0.11 0.23,0.17 0.39,0.17 0.16,0 0.29,-0.05 0.39,-0.16 0.1,-0.11 0.16,-0.25 0.16,-0.43 0,-0.17 -0.05,-0.32 -0.16,-0.42 -0.1,-0.11 -0.24,-0.16 -0.39,-0.16z"/>
  <path id="_13" class="fil0" d="M13.73 7.56l0 -2 0.81 0c0.26,0 0.44,0.05 0.54,0.16 0.09,0.1 0.14,0.22 0.14,0.35 0,0.2 -0.1,0.34 -0.29,0.42 0.26,0.09 0.4,0.26 0.4,0.51 0,0.14 -0.04,0.25 -0.1,0.34 -0.07,0.09 -0.16,0.15 -0.27,0.18 -0.11,0.03 -0.26,0.04 -0.45,0.04l-0.77 0zm0.5 -1.21l0.2 0c0.08,0 0.15,-0.02 0.19,-0.06 0.05,-0.04 0.07,-0.09 0.07,-0.14 0,-0.07 -0.02,-0.13 -0.07,-0.17 -0.04,-0.04 -0.09,-0.06 -0.15,-0.06l-0.06 0 -0.17 0 0 0.43zm0 0.83l0.25 0c0.1,0 0.17,-0.02 0.21,-0.07 0.04,-0.05 0.06,-0.09 0.06,-0.13 0,-0.06 -0.02,-0.12 -0.07,-0.18 -0.05,-0.05 -0.13,-0.08 -0.24,-0.08l-0.21 0 0 0.46z"/>
  <polygon id="_14" class="fil0" points="15.75,5.56 16.92,5.56 16.92,6.04 16.25,6.04 16.25,7.56 15.75,7.56 "/>
  <polygon id="_15" class="fil0" points="17.03,5.56 17.55,5.56 18.07,6.81 18.64,5.56 19.16,5.56 17.9,8.29 17.39,8.29 17.8,7.41 "/>
  <path id="_16" class="fil0" d="M21.41 5.97l-0.42 0.23c-0.08,-0.08 -0.16,-0.14 -0.23,-0.17 -0.08,-0.03 -0.17,-0.05 -0.27,-0.05 -0.19,0 -0.34,0.06 -0.46,0.17 -0.12,0.11 -0.17,0.25 -0.17,0.43 0,0.17 0.06,0.31 0.17,0.42 0.11,0.11 0.26,0.16 0.44,0.16 0.22,0 0.4,-0.08 0.52,-0.23l0.4 0.27c-0.22,0.28 -0.52,0.42 -0.91,0.42 -0.35,0 -0.63,-0.1 -0.83,-0.31 -0.2,-0.21 -0.3,-0.45 -0.3,-0.73 0,-0.19 0.05,-0.37 0.15,-0.53 0.1,-0.16 0.23,-0.29 0.41,-0.38 0.17,-0.09 0.37,-0.14 0.58,-0.14 0.2,0 0.38,0.04 0.54,0.12 0.16,0.08 0.29,0.19 0.39,0.34z"/>
  <polygon id="_17" class="fil0" points="21.68,5.56 23.55,5.56 23.55,6.04 22.88,6.04 22.88,7.56 22.38,7.56 22.38,6.04 21.68,6.04 "/>
 </g>
</svg>
