<?xml version="1.0" encoding="UTF-8"?>
<!DOCTYPE svg PUBLIC "-//W3C//DTD SVG 1.1//EN" "http://www.w3.org/Graphics/SVG/1.1/DTD/svg11.dtd">
<!-- Creator: CorelDRAW -->
<svg xmlns="http://www.w3.org/2000/svg" xml:space="preserve" width="34.5029mm" height="11.7821mm" version="1.1" style="shape-rendering:geometricPrecision; text-rendering:geometricPrecision; image-rendering:optimizeQuality; fill-rule:evenodd; clip-rule:evenodd"
viewBox="0 0 15.2 5.19"
 xmlns:xlink="http://www.w3.org/1999/xlink"
 xmlns:xodm="http://www.corel.com/coreldraw/odm/2003">
 <defs>
  <style type="text/css">
   <![CDATA[
    .fil0 {fill:white;fill-rule:nonzero}
   ]]>
  </style>
 </defs>
 <g id="Слой_x0020_1">
  <metadata id="CorelCorpID_0Corel-Layer"/>
  <path class="fil0" d="M0.26 0.06l0.43 0 1.05 1.59 0 -1.59 0.46 0 0 2.42 -0.43 0 -1.05 -1.58 0 1.58 -0.46 0 0 -2.42zm3.34 1.34c0,0.16 -0.06,0.29 -0.17,0.41 -0.11,0.11 -0.25,0.17 -0.41,0.17 -0.16,0 -0.3,-0.06 -0.41,-0.17 -0.11,-0.11 -0.17,-0.25 -0.17,-0.41 0,-0.16 0.06,-0.29 0.17,-0.41 0.11,-0.11 0.25,-0.17 0.41,-0.17 0.16,0 0.29,0.06 0.41,0.17 0.11,0.11 0.17,0.25 0.17,0.41zm-0.3 -0c0,-0.08 -0.03,-0.14 -0.08,-0.2 -0.05,-0.05 -0.12,-0.08 -0.2,-0.08 -0.08,0 -0.14,0.03 -0.2,0.08 -0.05,0.05 -0.08,0.12 -0.08,0.2 0,0.08 0.03,0.15 0.08,0.2 0.05,0.05 0.12,0.08 0.2,0.08 0.08,0 0.14,-0.03 0.2,-0.08 0.05,-0.06 0.08,-0.12 0.08,-0.2zm-0.85 0.8l1.15 0 0 0.29 -1.15 0 0 -0.29z"/>
  <polygon id="_1" class="fil0" points="6.18,1.38 7.01,1.38 7.01,1.79 6.18,1.79 "/>
  <path id="_2" class="fil0" d="M8.03 0.84l-0.45 0c0.01,-0.26 0.09,-0.47 0.25,-0.62 0.15,-0.15 0.35,-0.22 0.58,-0.22 0.15,0 0.28,0.03 0.39,0.09 0.11,0.06 0.2,0.15 0.27,0.27 0.07,0.12 0.1,0.24 0.1,0.36 0,0.14 -0.04,0.3 -0.12,0.46 -0.08,0.17 -0.23,0.36 -0.45,0.59l-0.27 0.29 0.86 0 0 0.42 -1.68 0 0 -0.22 0.75 -0.76c0.18,-0.18 0.3,-0.33 0.36,-0.44 0.06,-0.11 0.09,-0.21 0.09,-0.3 0,-0.09 -0.03,-0.17 -0.09,-0.23 -0.06,-0.06 -0.14,-0.09 -0.24,-0.09 -0.1,0 -0.18,0.04 -0.25,0.11 -0.07,0.07 -0.1,0.17 -0.1,0.3z"/>
  <path id="_3" class="fil0" d="M10.4 0c0.18,0 0.33,0.04 0.46,0.13 0.13,0.09 0.23,0.22 0.3,0.4 0.07,0.18 0.1,0.43 0.1,0.74 0,0.32 -0.04,0.57 -0.11,0.75 -0.07,0.18 -0.17,0.31 -0.28,0.39 -0.12,0.08 -0.27,0.13 -0.45,0.13 -0.18,0 -0.33,-0.04 -0.46,-0.13 -0.12,-0.08 -0.22,-0.21 -0.29,-0.38 -0.07,-0.17 -0.1,-0.42 -0.1,-0.73 0,-0.44 0.07,-0.76 0.21,-0.96 0.15,-0.22 0.36,-0.33 0.64,-0.33zm0.01 0.44c-0.08,0 -0.15,0.02 -0.21,0.07 -0.06,0.05 -0.11,0.14 -0.14,0.26 -0.03,0.12 -0.05,0.3 -0.05,0.53 0,0.3 0.04,0.52 0.11,0.63 0.07,0.12 0.17,0.17 0.28,0.17 0.11,0 0.2,-0.05 0.26,-0.17 0.08,-0.13 0.12,-0.36 0.12,-0.67 0,-0.32 -0.04,-0.54 -0.11,-0.66 -0.07,-0.12 -0.16,-0.18 -0.28,-0.18z"/>
  <path id="_4" class="fil0" d="M12.08 0.84l-0.45 0c0.01,-0.26 0.09,-0.47 0.25,-0.62 0.15,-0.15 0.35,-0.22 0.58,-0.22 0.15,0 0.28,0.03 0.39,0.09 0.11,0.06 0.2,0.15 0.27,0.27 0.07,0.12 0.1,0.24 0.1,0.36 0,0.14 -0.04,0.3 -0.12,0.46 -0.08,0.17 -0.23,0.36 -0.45,0.59l-0.27 0.29 0.86 0 0 0.42 -1.68 0 0 -0.22 0.75 -0.76c0.18,-0.18 0.3,-0.33 0.36,-0.44 0.06,-0.11 0.09,-0.21 0.09,-0.3 0,-0.09 -0.03,-0.17 -0.09,-0.23 -0.06,-0.06 -0.14,-0.09 -0.24,-0.09 -0.1,0 -0.18,0.04 -0.25,0.11 -0.07,0.07 -0.1,0.17 -0.1,0.3z"/>
  <path id="_5" class="fil0" d="M4.45 0.84l-0.45 0c0.01,-0.26 0.09,-0.47 0.25,-0.62 0.15,-0.15 0.35,-0.22 0.58,-0.22 0.15,0 0.28,0.03 0.39,0.09 0.11,0.06 0.2,0.15 0.27,0.27 0.07,0.12 0.1,0.24 0.1,0.36 0,0.14 -0.04,0.3 -0.12,0.46 -0.08,0.17 -0.23,0.36 -0.45,0.59l-0.27 0.29 0.86 0 0 0.42 -1.68 0 0 -0.22 0.75 -0.76c0.18,-0.18 0.3,-0.33 0.36,-0.44 0.06,-0.11 0.09,-0.21 0.09,-0.3 0,-0.09 -0.03,-0.17 -0.09,-0.23 -0.06,-0.06 -0.14,-0.09 -0.24,-0.09 -0.1,0 -0.18,0.04 -0.25,0.11 -0.07,0.07 -0.1,0.17 -0.1,0.3z"/>
  <path id="_6" class="fil0" d="M14.49 0l0.39 0.19 -0.42 0.82c0.21,0 0.38,0.07 0.52,0.22 0.14,0.15 0.22,0.33 0.22,0.55 0,0.21 -0.07,0.39 -0.22,0.53 -0.15,0.15 -0.33,0.22 -0.53,0.22 -0.22,0 -0.4,-0.08 -0.55,-0.23 -0.15,-0.15 -0.22,-0.33 -0.22,-0.52 0,-0.07 0.01,-0.15 0.03,-0.22 0.02,-0.08 0.07,-0.19 0.16,-0.35l0.62 -1.21zm-0.06 1.45c-0.09,0 -0.16,0.03 -0.22,0.09 -0.06,0.06 -0.09,0.14 -0.09,0.23 0,0.09 0.03,0.17 0.09,0.24 0.06,0.06 0.13,0.1 0.21,0.1 0.09,0 0.16,-0.03 0.22,-0.09 0.06,-0.06 0.09,-0.14 0.09,-0.24 0,-0.09 -0.03,-0.17 -0.09,-0.23 -0.06,-0.06 -0.13,-0.09 -0.22,-0.09z"/>
  <polygon id="_7" class="fil0" points="0.88,4.31 1.25,3.55 1.45,3.55 1.75,4.75 1.45,4.75 1.29,4.04 0.93,4.75 0.81,4.75 0.46,4.04 0.3,4.75 -0,4.75 0.3,3.55 0.5,3.55 "/>
  <path id="_8" class="fil0" d="M2.81 3.55l0.3 0 0 1.21 -0.3 0 0 -0.13c-0.06,0.06 -0.12,0.1 -0.18,0.12 -0.06,0.02 -0.12,0.04 -0.19,0.04 -0.16,0 -0.29,-0.06 -0.4,-0.18 -0.11,-0.12 -0.17,-0.27 -0.17,-0.45 0,-0.19 0.06,-0.34 0.17,-0.46 0.11,-0.12 0.24,-0.18 0.4,-0.18 0.07,0 0.14,0.01 0.2,0.04 0.06,0.03 0.12,0.07 0.18,0.12l0 -0.13zm-0.32 0.25c-0.09,0 -0.17,0.03 -0.23,0.1 -0.06,0.07 -0.09,0.15 -0.09,0.25 0,0.1 0.03,0.19 0.09,0.26 0.06,0.07 0.14,0.1 0.23,0.1 0.09,0 0.17,-0.03 0.24,-0.1 0.06,-0.07 0.09,-0.15 0.09,-0.26 0,-0.1 -0.03,-0.19 -0.09,-0.25 -0.06,-0.06 -0.14,-0.1 -0.24,-0.1z"/>
  <path id="_9" class="fil0" d="M3.72 3.55l0 0.13c0.05,-0.05 0.11,-0.09 0.18,-0.12 0.06,-0.03 0.13,-0.04 0.2,-0.04 0.16,0 0.29,0.06 0.4,0.18 0.11,0.12 0.16,0.27 0.16,0.46 0,0.18 -0.06,0.33 -0.17,0.45 -0.11,0.12 -0.25,0.18 -0.4,0.18 -0.07,0 -0.13,-0.01 -0.19,-0.04 -0.06,-0.02 -0.12,-0.07 -0.18,-0.12l0 0.57 -0.3 0 0 -1.65 0.3 0zm0.32 0.25c-0.09,0 -0.17,0.03 -0.24,0.1 -0.06,0.07 -0.09,0.15 -0.09,0.25 0,0.11 0.03,0.19 0.09,0.26 0.06,0.07 0.14,0.1 0.24,0.1 0.09,0 0.17,-0.03 0.23,-0.1 0.06,-0.07 0.09,-0.15 0.09,-0.26 0,-0.1 -0.03,-0.19 -0.09,-0.25 -0.06,-0.07 -0.14,-0.1 -0.23,-0.1z"/>
  <polygon id="_10" class="fil0" points="4.81,3.55 5.93,3.55 5.93,3.83 5.53,3.83 5.53,4.75 5.23,4.75 5.23,3.83 4.81,3.83 "/>
  <polygon id="_11" class="fil0" points="6.02,5.04 6.75,3.07 6.97,3.07 6.24,5.04 "/>
  <path id="_12" class="fil0" d="M8.06 3.55l0.3 0 0 1.21 -0.3 0 0 -0.13c-0.06,0.06 -0.12,0.1 -0.18,0.12 -0.06,0.02 -0.12,0.04 -0.19,0.04 -0.16,0 -0.29,-0.06 -0.4,-0.18 -0.11,-0.12 -0.17,-0.27 -0.17,-0.45 0,-0.19 0.06,-0.34 0.17,-0.46 0.11,-0.12 0.24,-0.18 0.4,-0.18 0.07,0 0.14,0.01 0.2,0.04 0.06,0.03 0.12,0.07 0.18,0.12l0 -0.13zm-0.32 0.25c-0.09,0 -0.17,0.03 -0.23,0.1 -0.06,0.07 -0.09,0.15 -0.09,0.25 0,0.1 0.03,0.19 0.09,0.26 0.06,0.07 0.14,0.1 0.23,0.1 0.09,0 0.17,-0.03 0.24,-0.1 0.06,-0.07 0.09,-0.15 0.09,-0.26 0,-0.1 -0.03,-0.19 -0.09,-0.25 -0.06,-0.06 -0.14,-0.1 -0.24,-0.1z"/>
  <polygon id="_13" class="fil0" points="8.97,4.75 8.67,4.75 8.67,3.55 9.73,3.55 9.73,4.75 9.42,4.75 9.42,3.84 8.97,3.84 "/>
  <path id="_14" class="fil0" d="M10.33 3.55l0 0.13c0.05,-0.05 0.11,-0.09 0.18,-0.12 0.06,-0.03 0.13,-0.04 0.2,-0.04 0.16,0 0.29,0.06 0.4,0.18 0.11,0.12 0.16,0.27 0.16,0.46 0,0.18 -0.06,0.33 -0.17,0.45 -0.11,0.12 -0.25,0.18 -0.4,0.18 -0.07,0 -0.13,-0.01 -0.19,-0.04 -0.06,-0.02 -0.12,-0.07 -0.18,-0.12l0 0.57 -0.3 0 0 -1.65 0.3 0zm0.32 0.25c-0.09,0 -0.17,0.03 -0.24,0.1 -0.06,0.07 -0.09,0.15 -0.09,0.25 0,0.11 0.03,0.19 0.09,0.26 0.06,0.07 0.14,0.1 0.24,0.1 0.09,0 0.17,-0.03 0.23,-0.1 0.06,-0.07 0.09,-0.15 0.09,-0.26 0,-0.1 -0.03,-0.19 -0.09,-0.25 -0.06,-0.07 -0.14,-0.1 -0.23,-0.1z"/>
  <path id="_15" class="fil0" d="M12.73 4.23l-0.97 0c0.01,0.09 0.05,0.15 0.11,0.21 0.06,0.05 0.14,0.08 0.23,0.08 0.11,0 0.21,-0.04 0.29,-0.12l0.25 0.12c-0.06,0.09 -0.14,0.16 -0.23,0.2 -0.09,0.04 -0.19,0.06 -0.31,0.06 -0.19,0 -0.34,-0.06 -0.46,-0.18 -0.12,-0.12 -0.18,-0.27 -0.18,-0.45 0,-0.18 0.06,-0.34 0.18,-0.46 0.12,-0.12 0.27,-0.18 0.45,-0.18 0.19,0 0.34,0.06 0.46,0.18 0.12,0.12 0.18,0.28 0.18,0.48l-0 0.06zm-0.3 -0.24c-0.02,-0.07 -0.06,-0.12 -0.12,-0.16 -0.06,-0.04 -0.13,-0.06 -0.2,-0.06 -0.08,0 -0.16,0.02 -0.22,0.07 -0.04,0.03 -0.08,0.08 -0.11,0.15l0.66 0z"/>
  <polygon id="_16" class="fil0" points="14.06,4.75 13.75,4.75 13.45,3.99 13.14,4.75 12.84,4.75 13.35,3.55 13.54,3.55 "/>
  <path id="_17" class="fil0" d="M14.52 3.98l0.09 0c0.13,0 0.22,0.01 0.29,0.03 0.07,0.02 0.13,0.06 0.17,0.12 0.05,0.06 0.07,0.14 0.07,0.23 0,0.09 -0.02,0.17 -0.06,0.23 -0.04,0.06 -0.1,0.1 -0.16,0.12 -0.07,0.02 -0.16,0.03 -0.28,0.03l-0.43 0 0 -1.21 0.3 0 0 0.44zm0 0.54l0.09 0c0.06,0 0.09,-0 0.12,-0.01 0.02,-0.01 0.05,-0.02 0.06,-0.04 0.02,-0.02 0.03,-0.05 0.03,-0.08 0,-0.1 -0.06,-0.15 -0.18,-0.15l-0.13 0 0 0.29z"/>
 </g>
</svg>
