<?xml version="1.0" encoding="UTF-8" standalone="no"?>
<!-- Created with Inkscape (http://www.inkscape.org/) -->

<svg
   xmlns:dc="http://purl.org/dc/elements/1.1/"
   xmlns:cc="http://creativecommons.org/ns#"
   xmlns:rdf="http://www.w3.org/1999/02/22-rdf-syntax-ns#"
   xmlns:svg="http://www.w3.org/2000/svg"
   xmlns="http://www.w3.org/2000/svg"
   xmlns:sodipodi="http://sodipodi.sourceforge.net/DTD/sodipodi-0.dtd"
   xmlns:inkscape="http://www.inkscape.org/namespaces/inkscape"
   width="30pc"
   height="3pc"
   viewBox="0 0 127.00008 12.7"
   version="1.1"
   id="svg8"
   inkscape:version="0.92.2 (5c3e80d, 2017-08-06)"
   sodipodi:docname="nomertext.svg">
  <defs
     id="defs2" />
  <sodipodi:namedview
     id="base"
     pagecolor="#ffffff"
     bordercolor="#666666"
     borderopacity="1.0"
     inkscape:pageopacity="0.0"
     inkscape:pageshadow="2"
     inkscape:zoom="0.98994949"
     inkscape:cx="337.59762"
     inkscape:cy="37.002523"
     inkscape:document-units="mm"
     inkscape:current-layer="layer1"
     showgrid="false"
     inkscape:lockguides="false"
     showguides="false"
     units="pc"
     inkscape:window-width="1280"
     inkscape:window-height="972"
     inkscape:window-x="-8"
     inkscape:window-y="-8"
     inkscape:window-maximized="1"
     showborder="true"
     inkscape:pagecheckerboard="true" />
  <metadata
     id="metadata5">
    <rdf:RDF>
      <cc:Work
         rdf:about="">
        <dc:format>image/svg+xml</dc:format>
        <dc:type
           rdf:resource="http://purl.org/dc/dcmitype/StillImage" />
        <dc:title></dc:title>
      </cc:Work>
    </rdf:RDF>
  </metadata>
  <g
     inkscape:label="Layer 1"
     inkscape:groupmode="layer"
     id="layer1"
     transform="translate(0,-284.29994)">
    <g
       aria-label="БиблиоАИСТ"
       style="font-style:normal;font-weight:normal;font-size:10.58333302px;line-height:1.25;font-family:sans-serif;letter-spacing:0px;word-spacing:0px;fill:#ffffff;fill-opacity:1;stroke:none;stroke-width:0.26458332"
       id="text24"
       transform="translate(1.8708872,52.384827)">
      <path
         d="m 0.1152702,296.89252 v -16.21676 h 8.477691 v 3.00964 H 3.2020758 v 3.10885 h 0.6724826 q 2.0505209,0 3.3513889,0.452 1.3008681,0.452 2.1607639,1.70877 0.8709198,1.24574 0.8709198,2.95451 0,1.69774 -0.6504337,2.71198 -0.650434,1.00321 -1.7969618,1.64262 -1.1355035,0.62839 -3.1529514,0.62839 z m 3.0868056,-7.34219 v 4.3987 h 0.7717014 q 2.1166666,0 2.6789062,-0.55122 0.5622396,-0.55121 0.5622396,-1.48828 0,-2.3592 -3.3734375,-2.3592 z"
         style="font-style:normal;font-variant:normal;font-weight:bold;font-stretch:normal;font-size:22.57777786px;font-family:'Century Gothic';-inkscape-font-specification:'Century Gothic Bold';fill:#ffffff;stroke-width:0.26458332"
         id="path7723"
         inkscape:connector-curvature="0" />
      <path
         d="m 14.215357,296.89252 h -1.598524 v -11.99445 h 2.932465 v 7.04453 l 6.140538,-7.04453 h 1.444184 v 11.99445 h -2.932465 v -6.90122 z"
         style="font-style:normal;font-variant:normal;font-weight:bold;font-stretch:normal;font-size:22.57777786px;font-family:'Century Gothic';-inkscape-font-specification:'Century Gothic Bold';fill:#ffffff;stroke-width:0.26458332"
         id="path7725"
         inkscape:connector-curvature="0" />
      <path
         d="m 37.630983,280.01431 v 2.84427 q -1.289844,0.14331 -2.502517,0.15434 -2.204861,0.022 -3.318316,0.19843 -1.113455,0.16537 -1.962327,0.79375 -0.848871,0.61736 -1.201649,1.43316 -0.352778,0.80478 -0.429948,2.32613 1.300868,-3.11988 4.464844,-3.11988 2.326129,0 4.023872,1.70877 1.708767,1.69774 1.708767,4.38767 0,2.77813 -1.830035,4.61919 -1.830035,1.84106 -4.519965,1.84106 -2.193837,0 -3.869531,-1.34497 -1.66467,-1.34496 -2.138716,-3.19705 -0.474045,-1.8631 -0.474045,-3.96875 0,-2.70095 0.672483,-4.38767 0.672483,-1.69774 1.763889,-2.54661 1.10243,-0.84888 2.546614,-1.13551 1.444184,-0.28663 4.244358,-0.4079 1.896181,-0.0882 2.822222,-0.19843 z m -2.259982,10.88098 q 0,-1.4993 -0.903993,-2.48046 -0.892969,-0.99219 -2.370226,-0.99219 -1.411111,0 -2.337153,0.99219 -0.926042,0.99218 -0.926042,2.48046 0,1.56546 0.915018,2.5356 0.926041,0.95911 2.337153,0.95911 1.389062,0 2.337152,-0.95911 0.948091,-0.97014 0.948091,-2.5356 z m -6.746875,5.88698 z"
         style="font-style:normal;font-variant:normal;font-weight:bold;font-stretch:normal;font-size:22.57777786px;font-family:'Century Gothic';-inkscape-font-specification:'Century Gothic Bold';fill:#ffffff;stroke-width:0.26458332"
         id="path7727"
         inkscape:connector-curvature="0" />
      <path
         d="m 51.6098,296.89252 h -3.064757 l -2.998611,-7.5737 -3.053732,7.5737 h -3.053733 l 5.115278,-11.99445 h 1.940278 z"
         style="font-style:normal;font-variant:normal;font-weight:bold;font-stretch:normal;font-size:22.57777786px;font-family:'Century Gothic';-inkscape-font-specification:'Century Gothic Bold';fill:#ffffff;stroke-width:0.26458332"
         id="path7729"
         inkscape:connector-curvature="0" />
      <path
         d="m 54.784803,296.89252 h -1.598525 v -11.99445 h 2.932466 v 7.04453 l 6.140538,-7.04453 h 1.444184 v 11.99445 H 60.771 v -6.90122 z"
         style="font-style:normal;font-variant:normal;font-weight:bold;font-stretch:normal;font-size:22.57777786px;font-family:'Century Gothic';-inkscape-font-specification:'Century Gothic Bold';fill:#ffffff;stroke-width:0.26458332"
         id="path7731"
         inkscape:connector-curvature="0" />
      <path
         d="m 72.368568,284.58939 q 1.697743,0 3.186025,0.84887 1.499305,0.84888 2.337152,2.30408 0.837848,1.45521 0.837848,3.14193 0,1.69774 -0.848872,3.175 -0.837847,1.47726 -2.293055,2.3151 -1.455209,0.82683 -3.208073,0.82683 -2.579688,0 -4.409723,-1.83004 -1.81901,-1.84106 -1.81901,-4.46484 0,-2.8112 2.061545,-4.68533 1.807986,-1.6316 4.156163,-1.6316 z m 0.0441,2.83325 q -1.400087,0 -2.337153,0.98116 -0.926042,0.97014 -0.926042,2.49149 0,1.56546 0.915017,2.5356 0.926042,0.97013 2.337153,0.97013 1.411111,0 2.348177,-0.98116 0.937066,-0.98116 0.937066,-2.52457 0,-1.5434 -0.926041,-2.50251 -0.915018,-0.97014 -2.348177,-0.97014 z"
         style="font-style:normal;font-variant:normal;font-weight:bold;font-stretch:normal;font-size:22.57777786px;font-family:'Century Gothic';-inkscape-font-specification:'Century Gothic Bold';fill:#ffffff;stroke-width:0.26458332"
         id="path7733"
         inkscape:connector-curvature="0" />
      <path
         d="m 86.468656,280.67576 h 3.130903 l 6.239757,16.21676 h -3.208073 l -1.267795,-3.34037 h -6.614583 l -1.322917,3.34037 h -3.208073 z m 1.5875,4.29948 -2.160764,5.56728 h 4.310504 z"
         style="font-style:normal;font-variant:normal;font-weight:bold;font-stretch:normal;font-size:22.57777786px;font-family:'Century Gothic';-inkscape-font-specification:'Century Gothic Bold';fill:#ffffff;stroke-width:0.26458332"
         id="path7735"
         inkscape:connector-curvature="0" />
      <path
         d="m 110.06067,280.67576 v 16.21676 h -3.08681 v -10.15339 l -6.05234,10.15339 h -2.689932 v -16.21676 h 3.086802 v 10.48412 l 6.14054,-10.48412 z"
         style="font-style:normal;font-variant:normal;font-weight:bold;font-stretch:normal;font-size:22.57777786px;font-family:'Century Gothic';-inkscape-font-specification:'Century Gothic Bold';fill:#ffffff;stroke-width:0.26458332"
         id="path7737"
         inkscape:connector-curvature="0" />
      <path
         d="m 128.6697,283.53106 -2.16077,2.06154 q -2.20486,-2.32612 -4.96093,-2.32612 -2.32613,0 -3.92466,1.5875 -1.5875,1.5875 -1.5875,3.91362 0,1.62058 0.70556,2.87735 0.70555,1.25677 1.9954,1.97335 1.28984,0.71658 2.86632,0.71658 1.34496,0 2.45842,-0.4961 1.11345,-0.50711 2.44739,-1.83003 l 2.09462,2.18281 q -1.79696,1.75287 -3.39548,2.43637 -1.59853,0.67249 -3.64905,0.67249 -3.78134,0 -6.19566,-2.39228 -2.4033,-2.4033 -2.4033,-6.15156 0,-2.42535 1.09141,-4.3105 1.10243,-1.88516 3.14193,-3.03169 2.05052,-1.14653 4.40972,-1.14653 2.00642,0 3.8585,0.84888 1.86311,0.84887 3.20808,2.41432 z"
         style="font-style:normal;font-variant:normal;font-weight:bold;font-stretch:normal;font-size:22.57777786px;font-family:'Century Gothic';-inkscape-font-specification:'Century Gothic Bold';fill:#ffffff;stroke-width:0.26458332"
         id="path7739"
         inkscape:connector-curvature="0" />
      <path
         d="m 129.76111,280.67576 h 8.96276 v 3.04271 h -2.95452 v 13.17405 h -3.1309 v -13.17405 h -2.87734 z"
         style="font-style:normal;font-variant:normal;font-weight:bold;font-stretch:normal;font-size:22.57777786px;font-family:'Century Gothic';-inkscape-font-specification:'Century Gothic Bold';fill:#ffffff;stroke-width:0.26458332"
         id="path7741"
         inkscape:connector-curvature="0" />
    </g>
    <g
       aria-label="НАША ИНФОРМАЦИЯ - ВАШ УСПЕХ! "
       style="font-style:normal;font-weight:normal;font-size:10.58333302px;line-height:1.25;font-family:sans-serif;letter-spacing:0px;word-spacing:0px;fill:#ffffff;fill-opacity:1;stroke:none;stroke-width:0.26458332"
       id="text28"
       transform="translate(-32.606882,-59.868374)">
      <path
         d="m 6.412794,289.07247 v 7.92716 H 4.8909231 v -3.38739 H 1.1960583 v 3.38739 h -1.52445472 v -7.92716 H 1.1960583 v 3.25045 h 3.6948648 v -3.25045 z"
         style="font-style:normal;font-variant:normal;font-weight:normal;font-stretch:normal;font-family:EuropeDemi;-inkscape-font-specification:EuropeDemi;fill:#ffffff;stroke-width:0.26458332"
         id="path7653"
         inkscape:connector-curvature="0" />
      <path
         d="M 12.79225,295.48551 H 9.3609346 l -0.4960937,1.51412 H 7.2887097 l 2.635498,-7.92716 h 2.2324213 l 2.687175,7.92716 h -1.545125 z m -0.3514,-1.13171 -1.374593,-4.11603 -1.3539227,4.11603 z"
         style="font-style:normal;font-variant:normal;font-weight:normal;font-stretch:normal;font-family:EuropeDemi;-inkscape-font-specification:EuropeDemi;fill:#ffffff;stroke-width:0.26458332"
         id="path7655"
         inkscape:connector-curvature="0" />
      <path
         d="m 15.691296,296.99963 v -7.92716 h 1.524455 v 6.62492 h 3.258199 v -6.62492 h 1.524455 v 6.62492 h 3.260782 v -6.62492 h 1.524455 v 7.92716 z"
         style="font-style:normal;font-variant:normal;font-weight:normal;font-stretch:normal;font-family:EuropeDemi;-inkscape-font-specification:EuropeDemi;fill:#ffffff;stroke-width:0.26458332"
         id="path7657"
         inkscape:connector-curvature="0" />
      <path
         d="m 33.152763,295.48551 h -3.431315 l -0.496093,1.51412 h -1.576132 l 2.635498,-7.92716 h 2.232422 l 2.687175,7.92716 h -1.545126 z m -0.351399,-1.13171 -1.374594,-4.11603 -1.353922,4.11603 z"
         style="font-style:normal;font-variant:normal;font-weight:normal;font-stretch:normal;font-family:EuropeDemi;-inkscape-font-specification:EuropeDemi;fill:#ffffff;stroke-width:0.26458332"
         id="path7659"
         inkscape:connector-curvature="0" />
      <path
         d="m 45.847078,289.07247 h -2.180745 l -2.69751,5.31234 q -0.136942,0.27388 -0.237711,0.47025 -0.09819,0.19637 -0.41858,0.83199 0.116272,-0.57102 0.116272,-1.40818 v -5.2064 H 38.90435 v 7.92716 h 2.180745 l 2.69751,-5.333 q 0.14211,-0.28164 0.260966,-0.51418 0.118856,-0.23513 0.395324,-0.78807 -0.116272,0.57102 -0.116272,1.40818 v 5.22707 h 1.524455 z"
         style="font-style:normal;font-variant:normal;font-weight:normal;font-stretch:normal;font-family:EuropeDemi;-inkscape-font-specification:EuropeDemi;fill:#ffffff;stroke-width:0.26458332"
         id="path7661"
         inkscape:connector-curvature="0" />
      <path
         d="m 54.037794,289.07247 v 7.92716 h -1.521871 v -3.38739 h -3.694865 v 3.38739 h -1.524454 v -7.92716 h 1.524454 v 3.25045 h 3.694865 v -3.25045 z"
         style="font-style:normal;font-variant:normal;font-weight:normal;font-stretch:normal;font-family:EuropeDemi;-inkscape-font-specification:EuropeDemi;fill:#ffffff;stroke-width:0.26458332"
         id="path7663"
         inkscape:connector-curvature="0" />
      <path
         d="m 60.616204,291.10594 v 3.71295 h 1.005106 q 0.81132,0 1.136882,-0.41858 0.325561,-0.41858 0.325561,-1.4211 0,-0.67438 -0.139526,-1.08262 -0.139526,-0.40825 -0.457336,-0.59945 -0.315227,-0.1912 -0.865581,-0.1912 z m -1.5012,5.00486 h -0.953431 q -1.043864,0 -1.715657,-0.32556 -0.66921,-0.32556 -0.994771,-1.01803 -0.325562,-0.69246 -0.325562,-1.788 0,-0.83974 0.191203,-1.43919 0.191203,-0.59945 0.573608,-0.97927 0.38499,-0.38241 0.96635,-0.56327 0.583943,-0.18345 1.390095,-0.18345 h 0.868165 v -0.7519 h 1.5012 v 0.7519 h 0.95343 q 0.803568,0 1.372009,0.18603 0.568441,0.18604 0.940511,0.57361 0.372071,0.38757 0.54777,0.97927 0.178284,0.59169 0.178284,1.42627 0,1.09812 -0.320394,1.79059 -0.320394,0.68988 -0.992187,1.01544 -0.671794,0.32556 -1.725993,0.32556 h -0.95343 v 0.88883 h -1.5012 z m 0,-5.00486 h -1.005107 q -0.532267,0 -0.852661,0.1912 -0.31781,0.1912 -0.465088,0.60203 -0.144694,0.41083 -0.144694,1.08004 0,0.66146 0.147278,1.06712 0.147278,0.40566 0.467671,0.58911 0.322978,0.18345 0.857829,0.18345 h 0.994772 z"
         style="font-style:normal;font-variant:normal;font-weight:normal;font-stretch:normal;font-family:EuropeDemi;-inkscape-font-specification:EuropeDemi;fill:#ffffff;stroke-width:0.26458332"
         id="path7665"
         inkscape:connector-curvature="0" />
      <path
         d="m 65.566804,292.87327 q 0,-1.17822 0.155029,-1.91203 0.155029,-0.73639 0.5271,-1.16788 0.374654,-0.43409 1.018025,-0.62012 0.645956,-0.18604 1.687236,-0.18604 1.033528,0 1.679484,0.18604 0.645955,0.18603 1.020609,0.61753 0.377238,0.4315 0.537435,1.17306 0.160197,0.73897 0.160197,1.90944 0,1.35134 -0.162781,2.16524 -0.160197,0.81391 -0.537435,1.26349 -0.374654,0.44959 -1.012858,0.62787 -0.63562,0.1757 -1.684651,0.1757 -1.111044,0 -1.759583,-0.17312 -0.645955,-0.1757 -1.002523,-0.6227 -0.353983,-0.447 -0.490926,-1.25057 -0.134358,-0.80615 -0.134358,-2.18591 z m 1.545125,0.16795 q 0,0.9896 0.06718,1.5167 0.06976,0.5271 0.255799,0.7984 0.188619,0.26872 0.534851,0.35915 0.346232,0.0879 0.984436,0.0879 0.633036,0 0.984436,-0.0956 0.351399,-0.0982 0.540018,-0.37207 0.188619,-0.27647 0.258383,-0.79581 0.06976,-0.52194 0.06976,-1.49862 0,-0.9896 -0.07493,-1.52704 -0.07493,-0.54002 -0.268718,-0.80357 -0.193786,-0.26355 -0.527099,-0.34106 -0.333313,-0.0801 -0.981852,-0.0801 -0.666626,0 -0.999939,0.0775 -0.333313,0.0775 -0.519348,0.34365 -0.186036,0.26355 -0.255799,0.79065 -0.06718,0.52452 -0.06718,1.53996 z"
         style="font-style:normal;font-variant:normal;font-weight:normal;font-stretch:normal;font-family:EuropeDemi;-inkscape-font-specification:EuropeDemi;fill:#ffffff;stroke-width:0.26458332"
         id="path7667"
         inkscape:connector-curvature="0" />
      <path
         d="m 73.589572,296.99963 v -7.92716 h 3.377055 q 1.036113,0 1.671733,0.20929 0.638204,0.2067 0.963765,0.77515 0.328145,0.56585 0.328145,1.62005 0,0.81649 -0.149861,1.341 -0.149862,0.52452 -0.478007,0.82683 -0.325562,0.3023 -0.855245,0.42633 -0.529684,0.12402 -1.343587,0.12402 h -1.989543 v 2.60449 z m 1.524455,-3.87314 h 1.873271 q 0.540018,0 0.834574,-0.11111 0.297139,-0.1111 0.428914,-0.39016 0.134359,-0.28163 0.134359,-0.81132 0,-0.57619 -0.134359,-0.88883 -0.131775,-0.31523 -0.434082,-0.44183 -0.299723,-0.1292 -0.829406,-0.1292 h -1.873271 z"
         style="font-style:normal;font-variant:normal;font-weight:normal;font-stretch:normal;font-family:EuropeDemi;-inkscape-font-specification:EuropeDemi;fill:#ffffff;stroke-width:0.26458332"
         id="path7669"
         inkscape:connector-curvature="0" />
      <path
         d="m 90.386994,289.07247 v 7.92716 H 88.88321 v -6.67917 l -2.495972,6.67917 h -1.366842 l -2.485636,-6.63525 v 6.63525 h -1.503784 v -7.92716 h 2.48822 l 2.147156,5.88336 h 0.04134 l 2.108398,-5.88336 z"
         style="font-style:normal;font-variant:normal;font-weight:normal;font-stretch:normal;font-family:EuropeDemi;-inkscape-font-specification:EuropeDemi;fill:#ffffff;stroke-width:0.26458332"
         id="path7671"
         inkscape:connector-curvature="0" />
      <path
         d="m 96.735441,295.48551 h -3.431315 l -0.496094,1.51412 h -1.576131 l 2.635498,-7.92716 h 2.232422 l 2.687174,7.92716 H 97.24187 Z m -0.3514,-1.13171 -1.374593,-4.11603 -1.353922,4.11603 z"
         style="font-style:normal;font-variant:normal;font-weight:normal;font-stretch:normal;font-family:EuropeDemi;-inkscape-font-specification:EuropeDemi;fill:#ffffff;stroke-width:0.26458332"
         id="path7673"
         inkscape:connector-curvature="0" />
      <path
         d="m 101.17962,295.69739 h 3.7052 v -6.63526 h 1.52187 v 6.63526 h 0.71055 v 3.13417 h -1.41852 v -1.83193 h -6.043558 v -7.9375 h 1.524458 z"
         style="font-style:normal;font-variant:normal;font-weight:normal;font-stretch:normal;font-family:EuropeDemi;-inkscape-font-specification:EuropeDemi;fill:#ffffff;stroke-width:0.26458332"
         id="path7675"
         inkscape:connector-curvature="0" />
      <path
         d="m 114.9488,289.07247 h -2.18075 l -2.69751,5.31234 q -0.13694,0.27388 -0.23771,0.47025 -0.0982,0.19637 -0.41858,0.83199 0.11627,-0.57102 0.11627,-1.40818 v -5.2064 h -1.52445 v 7.92716 h 2.18074 l 2.69751,-5.333 q 0.14211,-0.28164 0.26097,-0.51418 0.11886,-0.23513 0.39532,-0.78807 -0.11627,0.57102 -0.11627,1.40818 v 5.22707 h 1.52446 z"
         style="font-style:normal;font-variant:normal;font-weight:normal;font-stretch:normal;font-family:EuropeDemi;-inkscape-font-specification:EuropeDemi;fill:#ffffff;stroke-width:0.26458332"
         id="path7677"
         inkscape:connector-curvature="0" />
      <path
         d="m 122.55816,296.99963 v -7.92716 h -4.01009 q -1.24799,0 -1.83193,0.67179 -0.58136,0.66921 -0.58136,1.88878 0,1.0051 0.38757,1.53479 0.38757,0.5271 1.13688,0.83715 l -1.73633,2.99465 h 1.73633 l 1.55546,-2.79311 h 1.83968 v 2.79311 z m -1.50379,-4.01009 h -2.19883 q -0.4315,0 -0.68988,-0.11627 -0.25838,-0.11885 -0.38241,-0.40824 -0.12402,-0.28939 -0.12402,-0.7984 0,-0.71055 0.26872,-0.99478 0.2713,-0.2868 0.92759,-0.2868 l 2.19883,-0.0103 z"
         style="font-style:normal;font-variant:normal;font-weight:normal;font-stretch:normal;font-family:EuropeDemi;-inkscape-font-specification:EuropeDemi;fill:#ffffff;stroke-width:0.26458332"
         id="path7679"
         inkscape:connector-curvature="0" />
      <path
         d="m 126.25819,293.29443 h 5.18573 v 0.71055 h -5.18573 z"
         style="font-style:normal;font-variant:normal;font-weight:normal;font-stretch:normal;font-family:EuropeDemi;-inkscape-font-specification:EuropeDemi;fill:#ffffff;stroke-width:0.26458332"
         id="path7681"
         inkscape:connector-curvature="0" />
      <path
         d="m 136.78468,290.33337 v 2.05156 h 1.92494 q 0.51935,0 0.79324,-0.0801 0.27647,-0.0801 0.40307,-0.31264 0.12661,-0.23513 0.12661,-0.70797 0,-0.54777 -0.24546,-0.74931 -0.24547,-0.20154 -0.82166,-0.20154 z m 0,3.18327 v 2.22467 h 1.92494 q 0.78807,0 1.14464,-0.24804 0.35915,-0.24805 0.35915,-0.88625 0,-0.42117 -0.12403,-0.65888 -0.12144,-0.23771 -0.38499,-0.33331 -0.26355,-0.0982 -0.7183,-0.0982 z m -1.50379,3.48299 v -7.92716 h 4.06435 q 0.72347,0 1.21182,0.20929 0.49092,0.2067 0.74414,0.65112 0.25579,0.44442 0.25579,1.12913 0,1.50895 -1.13171,1.8216 v 0.0517 q 0.63562,0.10077 0.9741,0.56328 0.33848,0.4625 0.33848,1.22473 0,0.5271 -0.13952,0.94826 -0.13695,0.42116 -0.42117,0.7183 -0.28422,0.29714 -0.70796,0.45475 -0.42375,0.15503 -0.99736,0.15503 z"
         style="font-style:normal;font-variant:normal;font-weight:normal;font-stretch:normal;font-family:EuropeDemi;-inkscape-font-specification:EuropeDemi;fill:#ffffff;stroke-width:0.26458332"
         id="path7683"
         inkscape:connector-curvature="0" />
      <path
         d="m 147.8331,295.48551 h -3.43132 l -0.49609,1.51412 h -1.57613 l 2.6355,-7.92716 h 2.23242 l 2.68717,7.92716 h -1.54512 z m -0.3514,-1.13171 -1.3746,-4.11603 -1.35392,4.11603 z"
         style="font-style:normal;font-variant:normal;font-weight:normal;font-stretch:normal;font-family:EuropeDemi;-inkscape-font-specification:EuropeDemi;fill:#ffffff;stroke-width:0.26458332"
         id="path7685"
         inkscape:connector-curvature="0" />
      <path
         d="m 150.73214,296.99963 v -7.92716 h 1.52445 v 6.62492 h 3.2582 v -6.62492 h 1.52446 v 6.62492 h 3.26078 v -6.62492 h 1.52446 v 7.92716 z"
         style="font-style:normal;font-variant:normal;font-weight:normal;font-stretch:normal;font-family:EuropeDemi;-inkscape-font-specification:EuropeDemi;fill:#ffffff;stroke-width:0.26458332"
         id="path7687"
         inkscape:connector-curvature="0" />
      <path
         d="m 170.94021,289.07247 -1.53479,3.97908 q -0.1912,0.55553 -0.30747,1.14464 -0.0775,-0.84491 -0.21187,-1.10071 l -1.58647,-4.02301 h -1.83193 l 2.7311,5.84202 q 0.10594,0.22738 0.10594,0.35915 0,0.12661 -0.0853,0.24546 -0.17053,0.23255 -0.83457,0.23255 -0.13178,0 -0.54002,-0.0543 v 1.29191 q 0.47542,0.0517 0.96118,0.0517 0.4625,0 0.83199,-0.14986 0.37207,-0.15244 0.70797,-0.54002 0.33589,-0.39015 0.64078,-1.07745 l 2.75177,-6.20117 z"
         style="font-style:normal;font-variant:normal;font-weight:normal;font-stretch:normal;font-family:EuropeDemi;-inkscape-font-specification:EuropeDemi;fill:#ffffff;stroke-width:0.26458332"
         id="path7689"
         inkscape:connector-curvature="0" />
      <path
         d="m 178.50564,294.1626 h 1.49345 v 0.46509 q 0,0.91984 -0.31523,1.45469 -0.31522,0.53226 -1.02836,0.76739 -0.71313,0.23513 -1.93787,0.23513 -1.01027,0 -1.64589,-0.18862 -0.63304,-0.1912 -1.00769,-0.65112 -0.37465,-0.46251 -0.53485,-1.26091 -0.15761,-0.7984 -0.15761,-2.09031 0,-1.42368 0.28422,-2.26343 0.2868,-0.83974 0.99993,-1.24023 0.71572,-0.40308 2.00763,-0.40308 1.28158,0 1.97146,0.29714 0.69246,0.29714 0.97152,0.88109 0.28163,0.58394 0.34881,1.56321 h -1.48053 q -0.0387,-0.62787 -0.19895,-0.92243 -0.15761,-0.29714 -0.52452,-0.40049 -0.36432,-0.10594 -1.08779,-0.10594 -0.7493,0 -1.10329,0.19379 -0.35398,0.19379 -0.49351,0.75964 -0.13694,0.56328 -0.13694,1.78801 0,0.86816 0.0775,1.40043 0.0801,0.52968 0.27389,0.82166 0.19379,0.29197 0.52452,0.40566 0.33331,0.11368 0.89141,0.11368 0.71055,0 1.09554,-0.0956 0.38758,-0.0982 0.55036,-0.33848 0.16278,-0.24029 0.16278,-0.68729 z"
         style="font-style:normal;font-variant:normal;font-weight:normal;font-stretch:normal;font-family:EuropeDemi;-inkscape-font-specification:EuropeDemi;fill:#ffffff;stroke-width:0.26458332"
         id="path7691"
         inkscape:connector-curvature="0" />
      <path
         d="m 187.67305,289.07247 v 7.92716 h -1.52187 v -6.62491 h -3.69487 v 6.62491 h -1.52445 v -7.92716 z"
         style="font-style:normal;font-variant:normal;font-weight:normal;font-stretch:normal;font-family:EuropeDemi;-inkscape-font-specification:EuropeDemi;fill:#ffffff;stroke-width:0.26458332"
         id="path7693"
         inkscape:connector-curvature="0" />
      <path
         d="m 190.55918,290.33337 v 2.06189 h 3.71553 v 1.1343 h -3.71553 v 2.22209 h 3.93774 v 1.24798 h -5.44153 v -7.92716 h 5.40794 v 1.2609 z"
         style="font-style:normal;font-variant:normal;font-weight:normal;font-stretch:normal;font-family:EuropeDemi;-inkscape-font-specification:EuropeDemi;fill:#ffffff;stroke-width:0.26458332"
         id="path7695"
         inkscape:connector-curvature="0" />
      <path
         d="m 202.33881,289.07247 -2.34869,3.83181 2.52956,4.09535 h -1.757 l -1.98954,-3.33313 -2.01022,3.33313 h -1.788 l 2.60191,-4.09535 -2.41329,-3.83181 h 1.76733 l 1.84227,3.14451 1.83192,-3.14451 z"
         style="font-style:normal;font-variant:normal;font-weight:normal;font-stretch:normal;font-family:EuropeDemi;-inkscape-font-specification:EuropeDemi;fill:#ffffff;stroke-width:0.26458332"
         id="path7697"
         inkscape:connector-curvature="0" />
      <path
         d="m 204.91488,295.55011 v 1.44952 h -1.33325 v -1.44952 z m 0.0646,-6.45697 -0.0956,5.28133 h -1.29191 l -0.0827,-5.28133 z"
         style="font-style:normal;font-variant:normal;font-weight:normal;font-stretch:normal;font-family:EuropeDemi;-inkscape-font-specification:EuropeDemi;fill:#ffffff;stroke-width:0.26458332"
         id="path7699"
         inkscape:connector-curvature="0" />
    </g>
    <g
       aria-label="№1(62), 2020г. февраль "
       style="font-style:normal;font-weight:normal;font-size:10.58333302px;line-height:1.25;font-family:sans-serif;letter-spacing:0px;word-spacing:0px;fill:#ffffff;fill-opacity:1;stroke:none;stroke-width:0.26458332"
       id="text7807">
      <path
         d="M 0.35949027,287.1393 H 1.7444186 l 3.2607828,5.00228 v -5.00228 h 1.4469401 v 7.60161 h -1.390096 l -3.2556152,-4.98678 v 4.98678 H 0.35949027 Z m 10.49031573,4.2013 q 0,0.74414 -0.537435,1.2764 -0.5322674,0.53227 -1.276408,0.53227 -0.7544759,0 -1.2867431,-0.5271 -0.5270996,-0.53227 -0.5270996,-1.28157 0,-0.74414 0.5322672,-1.27641 0.5322672,-0.53227 1.2815755,-0.53227 0.7441406,0 1.276408,0.53227 0.537435,0.53227 0.537435,1.27641 z m -0.9405113,0 q 0,-0.36174 -0.2583822,-0.61495 -0.2583821,-0.25839 -0.6201172,-0.25839 -0.361735,0 -0.6201171,0.25839 -0.2583822,0.25321 -0.2583822,0.61495 0,0.3669 0.2532145,0.62528 0.2583822,0.25322 0.6252848,0.25322 0.3617351,0 0.6201172,-0.25839 0.2583822,-0.25838 0.2583822,-0.62011 z m -2.6871744,2.49597 h 3.6276857 v 0.90434 H 7.2221203 Z"
         style="font-style:normal;font-variant:normal;font-weight:bold;font-stretch:normal;font-family:'Century Gothic';-inkscape-font-specification:'Century Gothic Bold';fill:#ffffff"
         id="path7834" />
      <path
         d="m 12.978874,287.1393 h 2.165243 v 7.60161 h -1.436605 v -6.24252 h -1.565796 z"
         style="font-style:normal;font-variant:normal;font-weight:bold;font-stretch:normal;font-family:'Century Gothic';-inkscape-font-specification:'Century Gothic Bold';fill:#ffffff"
         id="path7836" />
      <path
         d="m 19.133538,286.80341 h 1.788005 q -0.919841,1.03869 -1.374593,2.25309 -0.449585,1.21439 -0.449585,2.77502 0,1.68982 0.501261,2.9714 0.392741,0.98702 1.322917,2.1394 h -1.788005 q -0.826823,-1.31258 -1.157552,-2.45463 -0.325561,-1.14722 -0.325561,-2.69751 0,-1.51929 0.346232,-2.66133 0.346232,-1.14205 1.136881,-2.32544 z"
         style="font-style:normal;font-variant:normal;font-weight:bold;font-stretch:normal;font-family:'Century Gothic';-inkscape-font-specification:'Century Gothic Bold';fill:#ffffff"
         id="path7838" />
      <path
         d="m 24.270175,286.9481 1.229899,0.61495 -1.328084,2.58382 q 0.966349,0 1.643311,0.69247 0.676961,0.69246 0.676961,1.72082 0,0.99219 -0.697632,1.68465 -0.692464,0.6873 -1.674316,0.6873 -1.028361,0 -1.715658,-0.71314 -0.682129,-0.7183 -0.682129,-1.64331 0,-0.3514 0.103353,-0.70796 0.108521,-0.35657 0.490926,-1.09554 z m -0.180867,4.5682 q -0.403076,0 -0.676961,0.29455 -0.273885,0.28939 -0.273885,0.72864 0,0.43925 0.28422,0.73897 0.289388,0.29973 0.671794,0.29973 0.403076,0 0.692464,-0.29456 0.289388,-0.29456 0.289388,-0.74414 0,-0.43925 -0.284221,-0.72864 -0.279052,-0.29455 -0.702799,-0.29455 z"
         style="font-style:normal;font-variant:normal;font-weight:bold;font-stretch:normal;font-family:'Century Gothic';-inkscape-font-specification:'Century Gothic Bold';fill:#ffffff"
         id="path7840" />
      <path
         d="m 28.977897,289.58877 h -1.410766 q 0.05684,-1.2299 0.769978,-1.9327 0.718303,-0.70797 1.839681,-0.70797 0.692465,0 1.219564,0.29456 0.532267,0.28938 0.847494,0.84232 0.320393,0.54777 0.320393,1.11621 0,0.67696 -0.387573,1.45728 -0.382405,0.78031 -1.405599,1.84485 l -0.852661,0.89917 h 2.707845 v 1.33842 h -5.265828 v -0.69247 l 2.351277,-2.39778 q 0.852662,-0.863 1.131714,-1.38493 0.284221,-0.5271 0.284221,-0.95085 0,-0.43925 -0.294556,-0.72347 -0.289388,-0.28939 -0.749308,-0.28939 -0.465088,0 -0.775147,0.34623 -0.310058,0.34624 -0.330729,0.94052 z"
         style="font-style:normal;font-variant:normal;font-weight:bold;font-stretch:normal;font-family:'Century Gothic';-inkscape-font-specification:'Century Gothic Bold';fill:#ffffff"
         id="path7842" />
      <path
         d="m 35.127391,296.94232 h -1.788004 q 0.91984,-1.03869 1.369425,-2.24792 0.454753,-1.2144 0.454753,-2.78019 0,-1.68982 -0.501262,-2.96623 -0.39274,-0.98702 -1.322916,-2.14457 h 1.788004 q 0.826823,1.31258 1.152385,2.45979 0.330729,1.14205 0.330729,2.69235 0,1.51928 -0.346232,2.66133 -0.346232,1.14205 -1.136882,2.32544 z"
         style="font-style:normal;font-variant:normal;font-weight:bold;font-stretch:normal;font-family:'Century Gothic';-inkscape-font-specification:'Century Gothic Bold';fill:#ffffff"
         id="path7844" />
      <path
         d="m 38.486359,293.30947 1.007691,0.50643 -1.276408,2.18074 -0.702799,-0.33589 z"
         style="font-style:normal;font-variant:normal;font-weight:bold;font-stretch:normal;font-family:'Century Gothic';-inkscape-font-specification:'Century Gothic Bold';fill:#ffffff"
         id="path7846" />
      <path
         d="m 44.852897,289.58877 h -1.410766 q 0.05684,-1.2299 0.769978,-1.9327 0.718303,-0.70797 1.839681,-0.70797 0.692465,0 1.219564,0.29456 0.532267,0.28938 0.847494,0.84232 0.320393,0.54777 0.320393,1.11621 0,0.67696 -0.387573,1.45728 -0.382405,0.78031 -1.405599,1.84485 l -0.852661,0.89917 h 2.707845 v 1.33842 h -5.265828 v -0.69247 l 2.351277,-2.39778 q 0.852662,-0.863 1.131714,-1.38493 0.284221,-0.5271 0.284221,-0.95085 0,-0.43925 -0.294556,-0.72347 -0.289388,-0.28939 -0.749308,-0.28939 -0.465088,0 -0.775147,0.34623 -0.310058,0.34624 -0.330729,0.94052 z"
         style="font-style:normal;font-variant:normal;font-weight:bold;font-stretch:normal;font-family:'Century Gothic';-inkscape-font-specification:'Century Gothic Bold';fill:#ffffff"
         id="path7848" />
      <path
         d="m 51.880891,286.9481 q 0.83199,0 1.431437,0.40824 0.604614,0.40825 0.930176,1.25057 0.330729,0.83716 0.330729,2.33578 0,1.51412 -0.335897,2.35644 -0.330729,0.84233 -0.894002,1.24024 -0.563273,0.39274 -1.421102,0.39274 -0.857829,0 -1.441773,-0.39791 -0.583943,-0.39791 -0.914672,-1.20923 -0.33073,-0.81132 -0.33073,-2.30993 0,-2.0929 0.645956,-3.03341 0.718302,-1.03353 1.999878,-1.03353 z m 0.03617,1.37459 q -0.366902,0 -0.651123,0.23771 -0.28422,0.23255 -0.434082,0.80616 -0.149862,0.57361 -0.149862,1.67948 0,1.44177 0.341065,1.99471 0.346232,0.54777 0.894002,0.54777 0.5271,0 0.837158,-0.52193 0.377238,-0.63045 0.377238,-2.1084 0,-1.49862 -0.341064,-2.06706 -0.335897,-0.56844 -0.873332,-0.56844 z"
         style="font-style:normal;font-variant:normal;font-weight:bold;font-stretch:normal;font-family:'Century Gothic';-inkscape-font-specification:'Century Gothic Bold';fill:#ffffff"
         id="path7850" />
      <path
         d="m 56.717803,289.58877 h -1.410766 q 0.05684,-1.2299 0.769979,-1.9327 0.718302,-0.70797 1.839681,-0.70797 0.692464,0 1.219563,0.29456 0.532268,0.28938 0.847494,0.84232 0.320394,0.54777 0.320394,1.11621 0,0.67696 -0.387573,1.45728 -0.382406,0.78031 -1.405599,1.84485 l -0.852661,0.89917 h 2.707844 v 1.33842 h -5.265828 v -0.69247 l 2.351278,-2.39778 q 0.852661,-0.863 1.131714,-1.38493 0.28422,-0.5271 0.28422,-0.95085 0,-0.43925 -0.294556,-0.72347 -0.289388,-0.28939 -0.749308,-0.28939 -0.465088,0 -0.775146,0.34623 -0.310059,0.34624 -0.33073,0.94052 z"
         style="font-style:normal;font-variant:normal;font-weight:bold;font-stretch:normal;font-family:'Century Gothic';-inkscape-font-specification:'Century Gothic Bold';fill:#ffffff"
         id="path7852" />
      <path
         d="m 63.745801,286.9481 q 0.83199,0 1.431437,0.40824 0.604614,0.40825 0.930176,1.25057 0.330729,0.83716 0.330729,2.33578 0,1.51412 -0.335897,2.35644 -0.330729,0.84233 -0.894002,1.24024 -0.563273,0.39274 -1.421102,0.39274 -0.857829,0 -1.441772,-0.39791 -0.583944,-0.39791 -0.914673,-1.20923 -0.330729,-0.81132 -0.330729,-2.30993 0,-2.0929 0.645955,-3.03341 0.718302,-1.03353 1.999878,-1.03353 z m 0.03617,1.37459 q -0.366902,0 -0.651123,0.23771 -0.28422,0.23255 -0.434082,0.80616 -0.149861,0.57361 -0.149861,1.67948 0,1.44177 0.341064,1.99471 0.346232,0.54777 0.894002,0.54777 0.5271,0 0.837158,-0.52193 0.377238,-0.63045 0.377238,-2.1084 0,-1.49862 -0.341064,-2.06706 -0.335897,-0.56844 -0.873332,-0.56844 z"
         style="font-style:normal;font-variant:normal;font-weight:bold;font-stretch:normal;font-family:'Century Gothic';-inkscape-font-specification:'Century Gothic Bold';fill:#ffffff"
         id="path7854" />
      <path
         d="m 67.445832,289.11851 h 3.281453 v 1.34359 h -1.865519 v 4.27881 h -1.415934 z"
         style="font-style:normal;font-variant:normal;font-weight:bold;font-stretch:normal;font-family:'Century Gothic';-inkscape-font-specification:'Century Gothic Bold';fill:#ffffff"
         id="path7856" />
      <path
         d="m 72.458443,293.26813 q 0.335897,0 0.573609,0.23771 0.237711,0.23254 0.237711,0.56844 0,0.3359 -0.237711,0.57361 -0.237712,0.23771 -0.573609,0.23771 -0.335896,0 -0.573608,-0.23771 -0.237711,-0.23771 -0.237711,-0.57361 0,-0.3359 0.237711,-0.56844 0.237712,-0.23771 0.573608,-0.23771 z"
         style="font-style:normal;font-variant:normal;font-weight:bold;font-stretch:normal;font-family:'Century Gothic';-inkscape-font-specification:'Century Gothic Bold';fill:#ffffff"
         id="path7858" />
      <path
         d="m 81.522495,294.26031 q -0.738973,0.64079 -1.612305,0.64079 -1.059367,0 -1.839681,-0.83716 -0.780314,-0.84232 -0.780314,-2.10323 0,-1.31775 0.759644,-2.1394 0.759643,-0.82682 1.824178,-0.82682 0.950846,0 1.648478,0.64595 v -2.69234 h 1.400431 v 2.69234 q 0.697632,-0.66662 1.648478,-0.66662 0.676961,0 1.260905,0.35656 0.583944,0.35657 0.950846,1.0232 0.366903,0.66662 0.366903,1.58646 0,1.28675 -0.790649,2.11874 -0.785482,0.82682 -1.824178,0.82682 -0.873332,0 -1.612305,-0.62529 v 2.53732 h -1.400431 z m 4.216796,-2.3306 q 0,-0.7183 -0.408243,-1.17822 -0.408244,-0.46509 -1.0542,-0.46509 -0.558105,0 -0.976684,0.44441 -0.413412,0.43925 -0.413412,1.25574 0,0.75965 0.397909,1.18856 0.403076,0.42891 0.997355,0.42891 0.61495,0 1.033529,-0.47025 0.423746,-0.47542 0.423746,-1.20406 z m -4.175455,0.0517 q 0,-0.55293 -0.186035,-0.90433 -0.186035,-0.35657 -0.501262,-0.56844 -0.310058,-0.21188 -0.707967,-0.21188 -0.682129,0 -1.069702,0.48576 -0.387573,0.48059 -0.387573,1.15755 0,0.72347 0.418579,1.1989 0.418579,0.47542 1.033529,0.47542 0.594279,0 0.997355,-0.42375 0.403076,-0.42891 0.403076,-1.20923 z"
         style="font-style:normal;font-variant:normal;font-weight:bold;font-stretch:normal;font-family:'Century Gothic';-inkscape-font-specification:'Century Gothic Bold';fill:#ffffff"
         id="path7860" />
      <path
         d="m 93.899,292.33795 h -4.532023 q 0.09819,0.59945 0.521932,0.95602 0.428915,0.3514 1.090373,0.3514 0.790649,0 1.35909,-0.55294 l 1.188558,0.5581 q -0.444417,0.63046 -1.064535,0.93535 -0.620117,0.29972 -1.472778,0.29972 -1.322916,0 -2.154907,-0.83199 -0.831991,-0.83716 -0.831991,-2.0929 0,-1.28674 0.826823,-2.13423 0.831991,-0.85266 2.08256,-0.85266 1.328085,0 2.160075,0.85266 0.831991,0.84749 0.831991,2.24275 z m -1.415934,-1.11104 q -0.139526,-0.47026 -0.552938,-0.76481 -0.408244,-0.29456 -0.950846,-0.29456 -0.589111,0 -1.033529,0.33073 -0.279052,0.20671 -0.516764,0.72864 z"
         style="font-style:normal;font-variant:normal;font-weight:bold;font-stretch:normal;font-family:'Century Gothic';-inkscape-font-specification:'Century Gothic Bold';fill:#ffffff"
         id="path7862" />
      <path
         d="m 95.046215,294.74091 v -5.6224 h 2.25826 q 1.111043,0 1.508951,0.43925 0.397909,0.43408 0.397909,0.98702 0,0.82165 -0.816488,1.18339 1.116211,0.38241 1.116211,1.44177 0,0.57361 -0.294555,0.95085 -0.294556,0.37207 -0.749309,0.49609 -0.449585,0.12403 -1.260905,0.12403 z m 1.415934,-3.41065 h 0.542602 q 0.346232,0 0.532268,-0.17053 0.191202,-0.1757 0.191202,-0.38757 0,-0.31523 -0.180867,-0.49093 -0.180868,-0.1757 -0.428915,-0.1757 l -0.180867,0.005 h -0.475423 z m 0,2.32544 h 0.707967 q 0.413411,0 0.578776,-0.1912 0.170532,-0.19637 0.170532,-0.38241 0,-0.27388 -0.191203,-0.50126 -0.186035,-0.22738 -0.676961,-0.22738 h -0.589111 z"
         style="font-style:normal;font-variant:normal;font-weight:bold;font-stretch:normal;font-family:'Century Gothic';-inkscape-font-specification:'Century Gothic Bold';fill:#ffffff"
         id="path7864" />
      <path
         d="m 102.11038,289.11851 v 0.62012 q 0.38241,-0.38241 0.82682,-0.57361 0.44442,-0.1912 0.95085,-0.1912 1.10071,0 1.87069,0.83199 0.76998,0.83199 0.76998,2.13423 0,1.25574 -0.79582,2.10323 -0.79582,0.84233 -1.88619,0.84233 -0.48576,0 -0.90434,-0.17053 -0.41858,-0.1757 -0.83199,-0.56844 v 2.651 h -1.40043 v -7.67912 z m 1.48311,1.15755 q -0.66662,0 -1.10587,0.45475 -0.43925,0.45476 -0.43925,1.18856 0,0.74931 0.43925,1.2144 0.43925,0.45992 1.10587,0.45992 0.64596,0 1.08521,-0.47026 0.44442,-0.47025 0.44442,-1.19889 0,-0.72347 -0.43409,-1.18339 -0.43408,-0.46509 -1.09554,-0.46509 z"
         style="font-style:normal;font-variant:normal;font-weight:bold;font-stretch:normal;font-family:'Century Gothic';-inkscape-font-specification:'Century Gothic Bold';fill:#ffffff"
         id="path7866" />
      <path
         d="m 111.85139,289.11851 h 1.4056 v 5.6224 h -1.4056 v -0.59428 q -0.41341,0.39274 -0.83199,0.56844 -0.41341,0.17053 -0.89917,0.17053 -1.09037,0 -1.88619,-0.84233 -0.79582,-0.84749 -0.79582,-2.10323 0,-1.30224 0.76998,-2.13423 0.76998,-0.83199 1.87069,-0.83199 0.50643,0 0.95085,0.1912 0.44441,0.1912 0.82165,0.57361 z m -1.48311,1.15755 q -0.65629,0 -1.09038,0.46509 -0.43408,0.45992 -0.43408,1.18339 0,0.72864 0.43925,1.19889 0.44442,0.47026 1.09037,0.47026 0.66663,0 1.10588,-0.45992 0.43925,-0.46509 0.43925,-1.2144 0,-0.7338 -0.43925,-1.18856 -0.43925,-0.45475 -1.11104,-0.45475 z"
         style="font-style:normal;font-variant:normal;font-weight:bold;font-stretch:normal;font-family:'Century Gothic';-inkscape-font-specification:'Century Gothic Bold';fill:#ffffff"
         id="path7868" />
      <path
         d="m 119.7062,294.74091 h -1.4366 l -1.4056,-3.55018 -1.43144,3.55018 h -1.43144 l 2.39779,-5.6224 h 0.90951 z"
         style="font-style:normal;font-variant:normal;font-weight:bold;font-stretch:normal;font-family:'Century Gothic';-inkscape-font-specification:'Century Gothic Bold';fill:#ffffff"
         id="path7870" />
      <path
         d="m 121.86111,291.14423 h 0.41858 q 0.88367,0 1.35392,0.13952 0.47542,0.13436 0.80099,0.56844 0.32556,0.43409 0.32556,1.09038 0,0.65112 -0.29456,1.0852 -0.29455,0.42892 -0.75447,0.57361 -0.45476,0.13953 -1.28158,0.13953 h -1.98437 v -5.6224 h 1.41593 z m 0,2.51147 h 0.42891 q 0.38241,0 0.55294,-0.0517 0.17053,-0.0568 0.29973,-0.21187 0.12919,-0.15503 0.12919,-0.37724 0,-0.72347 -0.82683,-0.72347 h -0.58394 z"
         style="font-style:normal;font-variant:normal;font-weight:bold;font-stretch:normal;font-family:'Century Gothic';-inkscape-font-specification:'Century Gothic Bold';fill:#ffffff"
         id="path7872" />
    </g>
    <text
       xml:space="preserve"
       style="font-style:normal;font-weight:normal;font-size:10.58333302px;line-height:1.25;font-family:sans-serif;letter-spacing:0px;word-spacing:0px;fill:#ffffff;fill-opacity:1;stroke:none;stroke-width:0.26458332"
       x="24.06654"
       y="382.18698"
       id="text7807-7"><tspan
         sodipodi:role="line"
         id="tspan7805-3"
         x="24.06654"
         y="382.18698"
         style="fill:#ffffff;stroke-width:0.26458332"><tspan
           style="font-style:normal;font-variant:normal;font-weight:bold;font-stretch:normal;font-family:'Century Gothic';-inkscape-font-specification:'Century Gothic Bold';fill:#ffffff;stroke-width:0.26458332"
           id="tspan7809-0">№1(62), 2020г. февраль</tspan></tspan></text>
  </g>
</svg>
