<?xml version="1.0" encoding="UTF-8" standalone="no"?>
<svg
   xmlns:dc="http://purl.org/dc/elements/1.1/"
   xmlns:cc="http://creativecommons.org/ns#"
   xmlns:rdf="http://www.w3.org/1999/02/22-rdf-syntax-ns#"
   xmlns:svg="http://www.w3.org/2000/svg"
   xmlns="http://www.w3.org/2000/svg"
   xmlns:sodipodi="http://sodipodi.sourceforge.net/DTD/sodipodi-0.dtd"
   xmlns:inkscape="http://www.inkscape.org/namespaces/inkscape"
   sodipodi:docname="nomertext.svg"
   inkscape:version="1.0 (4035a4fb49, 2020-05-01)"
   id="svg8"
   version="1.1"
   viewBox="0 0 106.60304 9.9683898"
   height="2.3547378pc"
   width="25.181805pc">
  <defs
     id="defs2" />
  <sodipodi:namedview
     inkscape:document-rotation="0"
     inkscape:pagecheckerboard="false"
     showborder="true"
     inkscape:window-maximized="1"
     inkscape:window-y="-8"
     inkscape:window-x="-8"
     inkscape:window-height="972"
     inkscape:window-width="1280"
     units="pc"
     showguides="false"
     inkscape:lockguides="false"
     showgrid="false"
     inkscape:current-layer="text7807-7"
     inkscape:document-units="mm"
     inkscape:cy="-7.4883537"
     inkscape:cx="176.49514"
     inkscape:zoom="1.4"
     inkscape:pageshadow="2"
     inkscape:pageopacity="0"
     borderopacity="1.0"
     bordercolor="#666666"
     pagecolor="#ff28ff"
     id="base" />
  <metadata
     id="metadata5">
    <rdf:RDF>
      <cc:Work
         rdf:about="">
        <dc:format>image/svg+xml</dc:format>
        <dc:type
           rdf:resource="http://purl.org/dc/dcmitype/StillImage" />
        <dc:title></dc:title>
      </cc:Work>
    </rdf:RDF>
  </metadata>
  <g
     transform="translate(-1.9387908,-285.69837)"
     id="layer1"
     inkscape:groupmode="layer"
     inkscape:label="Layer 1">
    <g
       style="font-style:normal;font-weight:normal;font-size:10.5833px;line-height:1.25;font-family:sans-serif;letter-spacing:0px;word-spacing:0px;fill:#ffffff;fill-opacity:1;stroke:none;stroke-width:0.264583"
       id="text7807-7"
       aria-label="№4, 2020г. сентябрь">
      <path
         id="path67"
         style="font-style:normal;font-variant:normal;font-weight:bold;font-stretch:normal;font-family:'Century Gothic';-inkscape-font-specification:'Century Gothic Bold';fill:#ffffff;stroke-width:0.264583"
         d="m 1.9387908,286.00847 h 1.3849239 l 3.2607725,5.00226 v -5.00226 h 1.4469355 v 7.60158 H 6.6413311 l -3.2556049,-4.98676 v 4.98676 H 1.9387908 Z m 10.4902822,4.20128 q 0,0.74414 -0.537433,1.2764 -0.532266,0.53227 -1.276404,0.53227 -0.7544734,0 -1.286739,-0.5271 -0.5270979,-0.53227 -0.5270979,-1.28157 0,-0.74414 0.5322656,-1.27641 0.5322655,-0.53226 1.2815713,-0.53226 0.744138,0 1.276404,0.53226 0.537433,0.53227 0.537433,1.27641 z m -0.940508,0 q 0,-0.36174 -0.258381,-0.61495 -0.258382,-0.25838 -0.620116,-0.25838 -0.361733,0 -0.6201147,0.25838 -0.2583814,0.25321 -0.2583814,0.61495 0,0.3669 0.2532137,0.62528 0.2583814,0.25321 0.6252824,0.25321 0.361734,0 0.620116,-0.25838 0.258381,-0.25838 0.258381,-0.62011 z m -2.6871659,2.49596 h 3.6276739 v 0.90434 H 8.8013991 Z" />
      <path
         id="path69"
         style="font-style:normal;font-variant:normal;font-weight:bold;font-stretch:normal;font-family:'Century Gothic';-inkscape-font-specification:'Century Gothic Bold';fill:#ffffff;stroke-width:0.264583"
         d="m 16.320296,285.81727 h 1.446935 v 4.89374 h 0.676959 v 1.33841 h -0.676959 v 1.56063 h -1.41593 v -1.56063 h -3.317616 v -1.33841 z m 0.03101,4.89374 v -2.54764 l -1.736322,2.54764 z" />
      <path
         id="path71"
         style="font-style:normal;font-variant:normal;font-weight:bold;font-stretch:normal;font-family:'Century Gothic';-inkscape-font-specification:'Century Gothic Bold';fill:#ffffff;stroke-width:0.264583"
         d="m 20.139171,292.17861 1.007688,0.50643 -1.276404,2.18074 -0.702798,-0.3359 z" />
      <path
         id="path73"
         style="font-style:normal;font-variant:normal;font-weight:bold;font-stretch:normal;font-family:'Century Gothic';-inkscape-font-specification:'Century Gothic Bold';fill:#ffffff;stroke-width:0.264583"
         d="m 26.505689,288.45792 h -1.410763 q 0.05684,-1.22989 0.769977,-1.93269 0.7183,-0.70796 1.839675,-0.70796 0.692462,0 1.21956,0.29455 0.532265,0.28939 0.847491,0.84232 0.320392,0.54777 0.320392,1.11621 0,0.67696 -0.387572,1.45727 -0.382404,0.78031 -1.405594,1.84484 l -0.852658,0.89917 h 2.707836 v 1.33842 h -5.265812 v -0.69247 l 2.351271,-2.39777 q 0.852658,-0.863 1.13171,-1.38493 0.284219,-0.5271 0.284219,-0.95084 0,-0.43925 -0.294554,-0.72347 -0.289388,-0.28939 -0.749306,-0.28939 -0.465087,0 -0.775144,0.34623 -0.310058,0.34624 -0.330728,0.94051 z" />
      <path
         id="path75"
         style="font-style:normal;font-variant:normal;font-weight:bold;font-stretch:normal;font-family:'Century Gothic';-inkscape-font-specification:'Century Gothic Bold';fill:#ffffff;stroke-width:0.264583"
         d="m 33.533659,285.81727 q 0.831988,0 1.431433,0.40824 0.604612,0.40824 0.930173,1.25056 0.330728,0.83716 0.330728,2.33577 0,1.51412 -0.335896,2.35644 -0.330728,0.84232 -0.893999,1.24023 -0.563271,0.39274 -1.421098,0.39274 -0.857826,0 -1.441767,-0.39791 -0.583942,-0.39791 -0.91467,-1.20922 -0.330728,-0.81132 -0.330728,-2.30993 0,-2.09289 0.645953,-3.0334 0.7183,-1.03352 1.999871,-1.03352 z m 0.03617,1.37458 q -0.366902,0 -0.651121,0.23771 -0.28422,0.23255 -0.434081,0.80615 -0.149861,0.57361 -0.149861,1.67948 0,1.44177 0.341063,1.99471 0.346231,0.54777 0.894,0.54777 0.527098,0 0.837155,-0.52193 0.377237,-0.63046 0.377237,-2.1084 0,-1.49861 -0.341063,-2.06705 -0.335896,-0.56844 -0.873329,-0.56844 z" />
      <path
         id="path77"
         style="font-style:normal;font-variant:normal;font-weight:bold;font-stretch:normal;font-family:'Century Gothic';-inkscape-font-specification:'Century Gothic Bold';fill:#ffffff;stroke-width:0.264583"
         d="m 38.37056,288.45792 h -1.410762 q 0.05684,-1.22989 0.769977,-1.93269 0.7183,-0.70796 1.839675,-0.70796 0.692462,0 1.21956,0.29455 0.532265,0.28939 0.847491,0.84232 0.320392,0.54777 0.320392,1.11621 0,0.67696 -0.387572,1.45727 -0.382404,0.78031 -1.405594,1.84484 l -0.852658,0.89917 h 2.707836 v 1.33842 h -5.265812 v -0.69247 l 2.35127,-2.39777 q 0.852659,-0.863 1.131711,-1.38493 0.284219,-0.5271 0.284219,-0.95084 0,-0.43925 -0.294554,-0.72347 -0.289388,-0.28939 -0.749306,-0.28939 -0.465087,0 -0.775144,0.34623 -0.310058,0.34624 -0.330729,0.94051 z" />
      <path
         id="path79"
         style="font-style:normal;font-variant:normal;font-weight:bold;font-stretch:normal;font-family:'Century Gothic';-inkscape-font-specification:'Century Gothic Bold';fill:#ffffff;stroke-width:0.264583"
         d="m 45.398531,285.81727 q 0.831988,0 1.431433,0.40824 0.604612,0.40824 0.930173,1.25056 0.330728,0.83716 0.330728,2.33577 0,1.51412 -0.335896,2.35644 -0.330728,0.84232 -0.893999,1.24023 -0.563271,0.39274 -1.421098,0.39274 -0.857826,0 -1.441767,-0.39791 -0.583942,-0.39791 -0.91467,-1.20922 -0.330728,-0.81132 -0.330728,-2.30993 0,-2.09289 0.645953,-3.0334 0.7183,-1.03352 1.999871,-1.03352 z m 0.03617,1.37458 q -0.366902,0 -0.651121,0.23771 -0.28422,0.23255 -0.434081,0.80615 -0.149861,0.57361 -0.149861,1.67948 0,1.44177 0.341063,1.99471 0.346231,0.54777 0.894,0.54777 0.527098,0 0.837155,-0.52193 0.377237,-0.63046 0.377237,-2.1084 0,-1.49861 -0.341063,-2.06705 -0.335896,-0.56844 -0.873329,-0.56844 z" />
      <path
         id="path81"
         style="font-style:normal;font-variant:normal;font-weight:bold;font-stretch:normal;font-family:'Century Gothic';-inkscape-font-specification:'Century Gothic Bold';fill:#ffffff;stroke-width:0.264583"
         d="m 49.098551,287.98767 h 3.281443 v 1.34358 h -1.865513 v 4.2788 h -1.41593 z" />
      <path
         id="path83"
         style="font-style:normal;font-variant:normal;font-weight:bold;font-stretch:normal;font-family:'Century Gothic';-inkscape-font-specification:'Century Gothic Bold';fill:#ffffff;stroke-width:0.264583"
         d="m 54.111152,292.13727 q 0.335896,0 0.573607,0.23771 0.23771,0.23255 0.23771,0.56844 0,0.3359 -0.23771,0.57361 -0.237711,0.23771 -0.573607,0.23771 -0.335896,0 -0.573607,-0.23771 -0.23771,-0.23771 -0.23771,-0.57361 0,-0.33589 0.23771,-0.56844 0.237711,-0.23771 0.573607,-0.23771 z" />
      <path
         id="path85"
         style="font-style:normal;font-variant:normal;font-weight:bold;font-stretch:normal;font-family:'Century Gothic';-inkscape-font-specification:'Century Gothic Bold';fill:#ffffff;stroke-width:0.264583"
         d="m 64.75646,289.12455 -1.173051,0.64595 q -0.330728,-0.34623 -0.656288,-0.48059 -0.320393,-0.13436 -0.754474,-0.13436 -0.790647,0 -1.281571,0.47542 -0.485757,0.47026 -0.485757,1.20923 0,0.7183 0.470254,1.17305 0.470254,0.45475 1.235063,0.45475 0.945675,0 1.472773,-0.64595 l 1.11104,0.75964 q -0.904335,1.17305 -2.552808,1.17305 -1.483109,0 -2.325432,-0.8785 -0.837155,-0.87849 -0.837155,-2.05671 0,-0.81649 0.408242,-1.50378 0.408243,-0.6873 1.136878,-1.08004 0.733803,-0.39274 1.638138,-0.39274 0.837155,0 1.503779,0.3359 0.666624,0.33073 1.090369,0.94568 z" />
      <path
         id="path87"
         style="font-style:normal;font-variant:normal;font-weight:bold;font-stretch:normal;font-family:'Century Gothic';-inkscape-font-specification:'Century Gothic Bold';fill:#ffffff;stroke-width:0.264583"
         d="m 71.665577,291.2071 h -4.532008 q 0.09819,0.59944 0.52193,0.95601 0.428913,0.3514 1.090369,0.3514 0.790647,0 1.359086,-0.55294 l 1.188554,0.55811 q -0.444416,0.63045 -1.064531,0.93534 -0.620115,0.29972 -1.472773,0.29972 -1.322913,0 -2.154901,-0.83199 -0.831988,-0.83715 -0.831988,-2.09289 0,-1.28674 0.826821,-2.13423 0.831987,-0.85266 2.082553,-0.85266 1.32808,0 2.160068,0.85266 0.831988,0.84749 0.831988,2.24275 z m -1.415929,-1.11104 q -0.139526,-0.47025 -0.552936,-0.76481 -0.408243,-0.29455 -0.950844,-0.29455 -0.589109,0 -1.033525,0.33072 -0.279052,0.20671 -0.516763,0.72864 z" />
      <path
         id="path89"
         style="font-style:normal;font-variant:normal;font-weight:bold;font-stretch:normal;font-family:'Century Gothic';-inkscape-font-specification:'Century Gothic Bold';fill:#ffffff;stroke-width:0.264583"
         d="m 74.223556,290.01338 h 2.098057 v -2.02571 h 1.41593 v 5.62238 h -1.41593 v -2.3306 h -2.098057 v 2.3306 h -1.415929 v -5.62238 h 1.415929 z" />
      <path
         id="path91"
         style="font-style:normal;font-variant:normal;font-weight:bold;font-stretch:normal;font-family:'Century Gothic';-inkscape-font-specification:'Century Gothic Bold';fill:#ffffff;stroke-width:0.264583"
         d="m 78.657375,287.98767 h 5.239974 v 1.34358 h -1.865514 v 4.2788 h -1.415929 v -4.2788 h -1.958531 z" />
      <path
         id="path93"
         style="font-style:normal;font-variant:normal;font-weight:bold;font-stretch:normal;font-family:'Century Gothic';-inkscape-font-specification:'Century Gothic Bold';fill:#ffffff;stroke-width:0.264583"
         d="m 85.778365,291.30528 q -0.454751,-0.14986 -0.749306,-0.56327 -0.289387,-0.41857 -0.289387,-0.9405 0,-0.62529 0.356566,-1.09554 0.356566,-0.47026 0.847491,-0.59428 0.496092,-0.12402 1.54512,-0.12402 h 1.426265 v 5.62238 H 87.499185 V 291.574 H 87.2253 l -1.338415,2.03605 h -1.669143 z m 1.72082,-0.79064 v -1.34875 H 87.00826 q -0.800982,0 -0.800982,0.67179 0,0.67696 0.893999,0.67696 z" />
      <path
         id="path95"
         style="font-style:normal;font-variant:normal;font-weight:bold;font-stretch:normal;font-family:'Century Gothic';-inkscape-font-specification:'Century Gothic Bold';fill:#ffffff;stroke-width:0.264583"
         d="m 95.715714,285.69841 v 1.33325 q -0.604613,0.0672 -1.173052,0.0723 -1.033525,0.0103 -1.555455,0.093 -0.521931,0.0775 -0.919838,0.37207 -0.397907,0.28939 -0.563271,0.67179 -0.165364,0.37724 -0.201538,1.09037 0.60978,-1.46244 2.092889,-1.46244 1.090369,0 1.886184,0.80099 0.800982,0.79581 0.800982,2.05671 0,1.30224 -0.857826,2.16524 -0.857826,0.86299 -2.118727,0.86299 -1.028358,0 -1.813837,-0.63045 -0.780312,-0.63045 -1.00252,-1.49861 -0.222208,-0.87333 -0.222208,-1.86035 0,-1.26607 0.315226,-2.05671 0.315225,-0.79582 0.82682,-1.19373 0.516763,-0.3979 1.193722,-0.53226 0.676959,-0.13436 1.989536,-0.1912 0.888832,-0.0413 1.322913,-0.093 z m -1.059364,5.10045 q 0,-0.7028 -0.423745,-1.16272 -0.418578,-0.46509 -1.11104,-0.46509 -0.661456,0 -1.095537,0.46509 -0.434081,0.46509 -0.434081,1.16272 0,0.7338 0.428913,1.18855 0.434081,0.44959 1.095537,0.44959 0.651121,0 1.095537,-0.44959 0.444416,-0.45475 0.444416,-1.18855 z m -3.162588,2.75951 z" />
      <path
         id="path97"
         style="font-style:normal;font-variant:normal;font-weight:bold;font-stretch:normal;font-family:'Century Gothic';-inkscape-font-specification:'Century Gothic Bold';fill:#ffffff;stroke-width:0.264583"
         d="m 98.645754,287.98767 v 0.62011 q 0.382405,-0.3824 0.826821,-0.5736 0.444416,-0.19121 0.950845,-0.19121 1.1007,0 1.87068,0.83199 0.76998,0.83199 0.76998,2.13423 0,1.25574 -0.79582,2.10323 -0.79581,0.84232 -1.88618,0.84232 -0.48576,0 -0.904338,-0.17053 -0.418577,-0.1757 -0.831988,-0.56844 v 2.65099 h -1.400426 v -7.67909 z m 1.483106,1.15755 q -0.666621,0 -1.105869,0.45475 -0.439248,0.45475 -0.439248,1.18855 0,0.74931 0.439248,1.21439 0.439248,0.45992 1.105869,0.45992 0.64596,0 1.0852,-0.47025 0.44442,-0.47025 0.44442,-1.19889 0,-0.72347 -0.43408,-1.18339 -0.43408,-0.46508 -1.09554,-0.46508 z" />
      <path
         id="path99"
         style="font-style:normal;font-variant:normal;font-weight:bold;font-stretch:normal;font-family:'Century Gothic';-inkscape-font-specification:'Century Gothic Bold';fill:#ffffff;stroke-width:0.264583"
         d="m 105.64272,290.01338 h 0.41858 q 0.88366,0 1.35392,0.13952 0.47542,0.13436 0.80098,0.56844 0.32556,0.43408 0.32556,1.09037 0,0.65112 -0.29455,1.0852 -0.29456,0.42892 -0.75448,0.57361 -0.45475,0.13953 -1.28157,0.13953 h -1.98437 v -5.62238 h 1.41593 z m 0,2.51146 h 0.42892 q 0.3824,0 0.55293,-0.0517 0.17053,-0.0568 0.29972,-0.21187 0.1292,-0.15503 0.1292,-0.37724 0,-0.72347 -0.82683,-0.72347 h -0.58394 z" />
    </g>
  </g>
</svg>
