<?xml version="1.0" encoding="UTF-8" standalone="no"?>
<svg
   xmlns:dc="http://purl.org/dc/elements/1.1/"
   xmlns:cc="http://creativecommons.org/ns#"
   xmlns:rdf="http://www.w3.org/1999/02/22-rdf-syntax-ns#"
   xmlns:svg="http://www.w3.org/2000/svg"
   xmlns="http://www.w3.org/2000/svg"
   xmlns:sodipodi="http://sodipodi.sourceforge.net/DTD/sodipodi-0.dtd"
   xmlns:inkscape="http://www.inkscape.org/namespaces/inkscape"
   sodipodi:docname="nomertext.svg"
   inkscape:version="1.0.1 (3bc2e813f5, 2020-09-07)"
   id="svg8"
   version="1.1"
   viewBox="0 0 106.60304 9.9683898"
   height="2.3547378pc"
   width="25.181805pc">
  <defs
     id="defs2" />
  <sodipodi:namedview
     inkscape:document-rotation="0"
     inkscape:pagecheckerboard="false"
     showborder="true"
     inkscape:window-maximized="1"
     inkscape:window-y="-8"
     inkscape:window-x="-8"
     inkscape:window-height="961"
     inkscape:window-width="1280"
     units="pc"
     showguides="false"
     inkscape:lockguides="false"
     showgrid="false"
     inkscape:current-layer="text7807-7"
     inkscape:document-units="mm"
     inkscape:cy="87.758843"
     inkscape:cx="197.58027"
     inkscape:zoom="0.98994949"
     inkscape:pageshadow="2"
     inkscape:pageopacity="0"
     borderopacity="1.0"
     bordercolor="#666666"
     pagecolor="#ff28ff"
     id="base" />
  <metadata
     id="metadata5">
    <rdf:RDF>
      <cc:Work
         rdf:about="">
        <dc:format>image/svg+xml</dc:format>
        <dc:type
           rdf:resource="http://purl.org/dc/dcmitype/StillImage" />
        <dc:title />
      </cc:Work>
    </rdf:RDF>
  </metadata>
  <g
     transform="translate(-1.9387908,-285.69837)"
     id="layer1"
     inkscape:groupmode="layer"
     inkscape:label="Layer 1">
    <g
       style="font-style:normal;font-weight:normal;font-size:10.5833px;line-height:1.25;font-family:sans-serif;letter-spacing:0px;word-spacing:0px;fill:#ffffff;fill-opacity:1;stroke:none;stroke-width:0.264583"
       id="text7807-7"
       aria-label="№4, 2020г. сентябрь">
      <g
         aria-label="№5, 2020г. ноябрь "
         transform="scale(1.0037436,0.99627036)"
         id="text4840-55"
         style="font-style:normal;font-weight:normal;font-size:50.6274px;line-height:1.25;font-family:sans-serif;letter-spacing:0px;word-spacing:0px;fill:#ffffff;fill-opacity:1;fill-rule:nonzero;stroke:none;stroke-width:1.2657">
        <path
           d="m 1.9666475,287.14688 h 1.3861672 l 3.2636997,5.00675 v -5.00675 h 1.4482344 v 7.6084 H 6.6734093 l -3.2585274,-4.99124 v 4.99124 H 1.9666475 Z m 10.4996995,4.20505 q 0,0.7448 -0.537916,1.27755 -0.532743,0.53274 -1.277549,0.53274 -0.7551512,0 -1.2878945,-0.52757 -0.5275711,-0.53274 -0.5275711,-1.28272 0,-0.74481 0.5327433,-1.27755 0.5327434,-0.53274 1.2827223,-0.53274 0.744806,0 1.277549,0.53274 0.537916,0.53274 0.537916,1.27755 z m -0.941352,0 q 0,-0.36206 -0.258614,-0.6155 -0.258613,-0.25861 -0.620672,-0.25861 -0.362058,0 -0.620672,0.25861 -0.2586128,0.25344 -0.2586128,0.6155 0,0.36723 0.2534408,0.62584 0.258614,0.25344 0.625844,0.25344 0.362059,0 0.620672,-0.25861 0.258614,-0.25861 0.258614,-0.62067 z m -2.6895786,2.4982 h 3.6309306 v 0.90515 H 8.8354164 Z"
           style="font-style:normal;font-variant:normal;font-weight:bold;font-stretch:normal;font-size:10.5928px;line-height:0.25;font-family:'Century Gothic';-inkscape-font-specification:'Century Gothic Bold';fill:#ffffff;fill-opacity:1;fill-rule:nonzero;stroke-width:1.2657"
           id="path864" />
        <path
           d="m 14.628354,287.14688 h 3.563691 v 1.33444 h -2.482687 l -0.310336,1.38617 q 0.129307,-0.0362 0.253441,-0.0517 0.124134,-0.0207 0.237924,-0.0207 1.034453,0 1.717192,0.7086 0.687912,0.70343 0.687912,1.80512 0,1.11203 -0.760323,1.87753 -0.755151,0.76032 -1.841327,0.76032 -0.972386,0 -1.670642,-0.55343 -0.698256,-0.55343 -0.915491,-1.51547 h 1.520646 q 0.175857,0.35688 0.460332,0.54308 0.289647,0.18103 0.636189,0.18103 0.48102,0 0.817218,-0.34654 0.336197,-0.34654 0.336197,-0.88963 0,-0.52757 -0.315508,-0.86377 -0.310336,-0.34137 -0.755151,-0.34137 -0.237924,0 -0.470676,0.11897 -0.22758,0.11896 -0.449987,0.35688 l -1.179277,-0.26378 z"
           style="font-style:normal;font-variant:normal;font-weight:bold;font-stretch:normal;font-size:10.5928px;line-height:0.25;font-family:'Century Gothic';-inkscape-font-specification:'Century Gothic Bold';fill:#ffffff;fill-opacity:1;fill-rule:nonzero;stroke-width:1.2657"
           id="path866" />
        <path
           d="m 20.183367,293.32256 1.008591,0.50688 -1.277549,2.1827 -0.703428,-0.3362 z"
           style="font-style:normal;font-variant:normal;font-weight:bold;font-stretch:normal;font-size:10.5928px;line-height:0.25;font-family:'Century Gothic';-inkscape-font-specification:'Century Gothic Bold';fill:#ffffff;fill-opacity:1;fill-rule:nonzero;stroke-width:1.2657"
           id="path868" />
        <path
           d="m 26.565944,289.59853 h -1.412029 q 0.05689,-1.231 0.770668,-1.93443 0.718945,-0.7086 1.841326,-0.7086 0.693084,0 1.220655,0.29482 0.532743,0.28965 0.848252,0.84308 0.32068,0.54826 0.32068,1.11721 0,0.67757 -0.38792,1.45858 -0.382747,0.78101 -1.406856,1.8465 l -0.853424,0.89997 h 2.710267 v 1.33962 h -5.270538 v -0.69308 l 2.35338,-2.39994 q 0.853424,-0.86376 1.132727,-1.38616 0.284474,-0.52757 0.284474,-0.9517 0,-0.43964 -0.294819,-0.72412 -0.289647,-0.28964 -0.749978,-0.28964 -0.465504,0 -0.77584,0.34654 -0.310336,0.34654 -0.331025,0.94135 z"
           style="font-style:normal;font-variant:normal;font-weight:bold;font-stretch:normal;font-size:10.5928px;line-height:0.25;font-family:'Century Gothic';-inkscape-font-specification:'Century Gothic Bold';fill:#ffffff;fill-opacity:1;fill-rule:nonzero;stroke-width:1.2657"
           id="path870" />
        <path
           d="m 33.595053,286.9555 q 0.832734,0 1.432717,0.40861 0.605155,0.40861 0.931008,1.25169 0.331025,0.83791 0.331025,2.33786 0,1.51548 -0.336197,2.35856 -0.331025,0.84308 -0.894802,1.24134 -0.563777,0.39309 -1.422373,0.39309 -0.858596,0 -1.443062,-0.39826 -0.584466,-0.39827 -0.915491,-1.21031 -0.331025,-0.81205 -0.331025,-2.312 0,-2.09477 0.646533,-3.03612 0.718945,-1.03446 2.001667,-1.03446 z m 0.03621,1.37583 q -0.36723,0 -0.651705,0.23792 -0.284475,0.23275 -0.43447,0.80687 -0.149996,0.57412 -0.149996,1.68099 0,1.44306 0.34137,1.99649 0.346541,0.54826 0.894801,0.54826 0.527572,0 0.837908,-0.52239 0.377575,-0.63102 0.377575,-2.11029 0,-1.49996 -0.34137,-2.06891 -0.336197,-0.56894 -0.874113,-0.56894 z"
           style="font-style:normal;font-variant:normal;font-weight:bold;font-stretch:normal;font-size:10.5928px;line-height:0.25;font-family:'Century Gothic';-inkscape-font-specification:'Century Gothic Bold';fill:#ffffff;fill-opacity:1;fill-rule:nonzero;stroke-width:1.2657"
           id="path872" />
        <path
           d="m 38.431121,289.59853 h -1.412029 q 0.05689,-1.231 0.770668,-1.93443 0.718945,-0.7086 1.841327,-0.7086 0.693083,0 1.220654,0.29482 0.532744,0.28965 0.848252,0.84308 0.32068,0.54826 0.32068,1.11721 0,0.67757 -0.38792,1.45858 -0.382747,0.78101 -1.406856,1.8465 l -0.853424,0.89997 h 2.710267 v 1.33962 h -5.270538 v -0.69308 l 2.353381,-2.39994 q 0.853423,-0.86376 1.132726,-1.38616 0.284474,-0.52757 0.284474,-0.9517 0,-0.43964 -0.294819,-0.72412 -0.289647,-0.28964 -0.749978,-0.28964 -0.465504,0 -0.77584,0.34654 -0.310336,0.34654 -0.331025,0.94135 z"
           style="font-style:normal;font-variant:normal;font-weight:bold;font-stretch:normal;font-size:10.5928px;line-height:0.25;font-family:'Century Gothic';-inkscape-font-specification:'Century Gothic Bold';fill:#ffffff;fill-opacity:1;fill-rule:nonzero;stroke-width:1.2657"
           id="path874" />
        <path
           d="m 45.460228,286.9555 q 0.832735,0 1.432717,0.40861 0.605156,0.40861 0.931008,1.25169 0.331025,0.83791 0.331025,2.33786 0,1.51548 -0.336197,2.35856 -0.331025,0.84308 -0.894802,1.24134 -0.563777,0.39309 -1.422373,0.39309 -0.858596,0 -1.443062,-0.39826 -0.584466,-0.39827 -0.915491,-1.21031 -0.331025,-0.81205 -0.331025,-2.312 0,-2.09477 0.646533,-3.03612 0.718945,-1.03446 2.001667,-1.03446 z m 0.03621,1.37583 q -0.367231,0 -0.651706,0.23792 -0.284474,0.23275 -0.43447,0.80687 -0.149996,0.57412 -0.149996,1.68099 0,1.44306 0.34137,1.99649 0.346542,0.54826 0.894802,0.54826 0.527571,0 0.837907,-0.52239 0.377575,-0.63102 0.377575,-2.11029 0,-1.49996 -0.341369,-2.06891 -0.336198,-0.56894 -0.874113,-0.56894 z"
           style="font-style:normal;font-variant:normal;font-weight:bold;font-stretch:normal;font-size:10.5928px;line-height:0.25;font-family:'Century Gothic';-inkscape-font-specification:'Century Gothic Bold';fill:#ffffff;fill-opacity:1;fill-rule:nonzero;stroke-width:1.2657"
           id="path876" />
        <path
           d="m 49.1584,289.12785 h 3.284388 v 1.34479 H 50.5756 v 4.28264 h -1.4172 z"
           style="font-style:normal;font-variant:normal;font-weight:bold;font-stretch:normal;font-size:10.5928px;line-height:0.25;font-family:'Century Gothic';-inkscape-font-specification:'Century Gothic Bold';fill:#ffffff;fill-opacity:1;fill-rule:nonzero;stroke-width:1.2657"
           id="path878" />
        <path
           d="m 54.170323,293.28118 q 0.336198,0 0.574122,0.23793 0.237924,0.23275 0.237924,0.56895 0,0.33619 -0.237924,0.57412 -0.237924,0.23792 -0.574122,0.23792 -0.336197,0 -0.574121,-0.23792 -0.237924,-0.23793 -0.237924,-0.57412 0,-0.3362 0.237924,-0.56895 0.237924,-0.23793 0.574121,-0.23793 z"
           style="font-style:normal;font-variant:normal;font-weight:bold;font-stretch:normal;font-size:10.5928px;line-height:0.25;font-family:'Century Gothic';-inkscape-font-specification:'Century Gothic Bold';fill:#ffffff;fill-opacity:1;fill-rule:nonzero;stroke-width:1.2657"
           id="path880" />
        <path
           d="m 60.739102,291.15538 h 2.09994 v -2.02753 h 1.417201 v 5.62743 h -1.417201 v -2.33269 h -2.09994 v 2.33269 h -1.417201 v -5.62743 h 1.417201 z"
           style="font-style:normal;font-variant:normal;font-weight:bold;font-stretch:normal;font-size:10.5928px;line-height:0.25;font-family:'Century Gothic';-inkscape-font-specification:'Century Gothic Bold';fill:#ffffff;fill-opacity:1;fill-rule:nonzero;stroke-width:1.2657"
           id="path882" />
        <path
           d="m 68.326814,288.98303 q 0.796529,0 1.494784,0.39827 0.703429,0.39826 1.096521,1.081 0.393092,0.68274 0.393092,1.47409 0,0.79653 -0.398264,1.48962 -0.393093,0.69308 -1.075832,1.08617 -0.682739,0.38792 -1.505129,0.38792 -1.21031,0 -2.068906,-0.85859 -0.853424,-0.86377 -0.853424,-2.09477 0,-1.31893 0.967214,-2.19821 0.848251,-0.7655 1.949944,-0.7655 z m 0.02069,1.32927 q -0.656878,0 -1.096521,0.46033 -0.43447,0.45516 -0.43447,1.16894 0,0.73446 0.429298,1.18962 0.43447,0.45516 1.09652,0.45516 0.662051,0 1.101693,-0.46033 0.439643,-0.46034 0.439643,-1.18445 0,-0.72412 -0.434471,-1.17411 -0.429298,-0.45516 -1.101692,-0.45516 z"
           style="font-style:normal;font-variant:normal;font-weight:bold;font-stretch:normal;font-size:10.5928px;line-height:0.25;font-family:'Century Gothic';-inkscape-font-specification:'Century Gothic Bold';fill:#ffffff;fill-opacity:1;fill-rule:nonzero;stroke-width:1.2657"
           id="path884" />
        <path
           d="m 73.421501,292.44845 q -0.45516,-0.15 -0.749979,-0.56378 -0.289647,-0.41895 -0.289647,-0.94135 0,-0.62584 0.356887,-1.09652 0.356886,-0.47068 0.848251,-0.59481 0.496538,-0.12414 1.546508,-0.12414 h 1.427545 v 5.62743 h -1.417201 v -2.03787 h -0.27413 l -1.339617,2.03787 h -1.670642 z m 1.722364,-0.79136 v -1.34996 H 74.6525 q -0.801701,0 -0.801701,0.6724 0,0.67756 0.894802,0.67756 z"
           style="font-style:normal;font-variant:normal;font-weight:bold;font-stretch:normal;font-size:10.5928px;line-height:0.25;font-family:'Century Gothic';-inkscape-font-specification:'Century Gothic Bold';fill:#ffffff;fill-opacity:1;fill-rule:nonzero;stroke-width:1.2657"
           id="path886" />
        <path
           d="m 83.362594,286.83654 v 1.33445 q -0.605155,0.0672 -1.174104,0.0724 -1.034453,0.0103 -1.556852,0.0931 -0.522399,0.0776 -0.920663,0.3724 -0.398265,0.28965 -0.563777,0.6724 -0.165513,0.37757 -0.201719,1.09134 0.610328,-1.46375 2.094768,-1.46375 1.091348,0 1.887877,0.8017 0.801701,0.79653 0.801701,2.05857 0,1.30341 -0.858596,2.16717 -0.858596,0.86377 -2.120629,0.86377 -1.029281,0 -1.815465,-0.63101 -0.781012,-0.63102 -1.00342,-1.49996 -0.222407,-0.87411 -0.222407,-1.86202 0,-1.2672 0.315508,-2.05856 0.315508,-0.79653 0.827563,-1.19479 0.517226,-0.39827 1.194793,-0.53274 0.677567,-0.13448 1.991322,-0.19138 0.88963,-0.0414 1.3241,-0.0931 z m -1.060314,5.10503 q 0,-0.70343 -0.424126,-1.16376 -0.418953,-0.46551 -1.112037,-0.46551 -0.66205,0 -1.09652,0.46551 -0.434471,0.4655 -0.434471,1.16376 0,0.73446 0.429298,1.18962 0.434471,0.44999 1.096521,0.44999 0.651705,0 1.09652,-0.44999 0.444815,-0.45516 0.444815,-1.18962 z m -3.165427,2.76199 z"
           style="font-style:normal;font-variant:normal;font-weight:bold;font-stretch:normal;font-size:10.5928px;line-height:0.25;font-family:'Century Gothic';-inkscape-font-specification:'Century Gothic Bold';fill:#ffffff;fill-opacity:1;fill-rule:nonzero;stroke-width:1.2657"
           id="path888" />
        <path
           d="m 86.290098,289.12785 v 0.62068 q 0.382748,-0.38275 0.827562,-0.57413 0.444815,-0.19137 0.951697,-0.19137 1.101693,0 1.87236,0.83274 0.770668,0.83273 0.770668,2.13614 0,1.25686 -0.796529,2.10511 -0.796529,0.84308 -1.887877,0.84308 -0.486193,0 -0.905146,-0.17068 -0.418954,-0.17586 -0.832735,-0.56895 v 2.65337 h -1.401684 v -7.68599 z m 1.48444,1.15859 q -0.667222,0 -1.106865,0.45516 -0.439642,0.45516 -0.439642,1.18962 0,0.74998 0.439642,1.21548 0.439643,0.46034 1.106865,0.46034 0.646533,0 1.086176,-0.47068 0.444815,-0.47068 0.444815,-1.19997 0,-0.72411 -0.43447,-1.18444 -0.434471,-0.46551 -1.096521,-0.46551 z"
           style="font-style:normal;font-variant:normal;font-weight:bold;font-stretch:normal;font-size:10.5928px;line-height:0.25;font-family:'Century Gothic';-inkscape-font-specification:'Century Gothic Bold';fill:#ffffff;fill-opacity:1;fill-rule:nonzero;stroke-width:1.2657"
           id="path890" />
        <path
           d="m 93.293339,291.15538 h 0.418954 q 0.884457,0 1.355134,0.13965 0.475848,0.13448 0.801701,0.56895 0.325853,0.43447 0.325853,1.09135 0,0.65171 -0.29482,1.08618 -0.294819,0.42929 -0.75515,0.57412 -0.45516,0.13965 -1.282722,0.13965 h -1.98615 v -5.62743 h 1.4172 z m 0,2.51372 h 0.429299 q 0.382747,0 0.553432,-0.0517 0.170685,-0.0569 0.299991,-0.21206 0.129307,-0.15517 0.129307,-0.37758 0,-0.72411 -0.827562,-0.72411 h -0.584467 z"
           style="font-style:normal;font-variant:normal;font-weight:bold;font-stretch:normal;font-size:10.5928px;line-height:0.25;font-family:'Century Gothic';-inkscape-font-specification:'Century Gothic Bold';fill:#ffffff;fill-opacity:1;fill-rule:nonzero;stroke-width:1.2657"
           id="path892" />
      </g>
    </g>
  </g>
</svg>
