<?xml version="1.0" encoding="UTF-8"?>
<!DOCTYPE svg PUBLIC "-//W3C//DTD SVG 1.1//EN" "http://www.w3.org/Graphics/SVG/1.1/DTD/svg11.dtd">
<!-- Creator: CorelDRAW -->
<svg xmlns="http://www.w3.org/2000/svg" xml:space="preserve" width="34.654mm" height="12.9668mm" version="1.1" style="shape-rendering:geometricPrecision; text-rendering:geometricPrecision; image-rendering:optimizeQuality; fill-rule:evenodd; clip-rule:evenodd"
viewBox="0 0 15.34 5.74"
 xmlns:xlink="http://www.w3.org/1999/xlink"
 xmlns:xodm="http://www.corel.com/coreldraw/odm/2003">
 <defs>
  <style type="text/css">
   <![CDATA[
    .fil0 {fill:white;fill-rule:nonzero}
   ]]>
  </style>
 </defs>
 <g id="Слой_x0020_1">
  <metadata id="CorelCorpID_0Corel-Layer"/>
  <path class="fil0" d="M0.26 0.06l0.43 0 1.05 1.6 0 -1.6 0.46 0 0 2.43 -0.44 0 -1.05 -1.59 0 1.59 -0.46 0 0 -2.43zm3.35 1.34c0,0.16 -0.06,0.29 -0.17,0.41 -0.11,0.11 -0.25,0.17 -0.41,0.17 -0.16,0 -0.3,-0.06 -0.41,-0.17 -0.11,-0.11 -0.17,-0.25 -0.17,-0.41 0,-0.16 0.06,-0.29 0.17,-0.41 0.11,-0.11 0.25,-0.17 0.41,-0.17 0.16,0 0.29,0.06 0.41,0.17 0.11,0.11 0.17,0.25 0.17,0.41zm-0.3 -0c0,-0.08 -0.03,-0.14 -0.08,-0.2 -0.05,-0.06 -0.12,-0.08 -0.2,-0.08 -0.08,0 -0.14,0.03 -0.2,0.08 -0.05,0.06 -0.08,0.12 -0.08,0.2 0,0.08 0.03,0.15 0.08,0.2 0.05,0.06 0.12,0.08 0.2,0.08 0.08,0 0.14,-0.03 0.2,-0.08 0.05,-0.06 0.08,-0.12 0.08,-0.2zm-0.86 0.8l1.16 0 0 0.29 -1.16 0 0 -0.29z"/>
  <polygon id="_1" class="fil0" points="6.2,1.38 7.04,1.38 7.04,1.8 6.2,1.8 "/>
  <path id="_2" class="fil0" d="M8.06 0.84l-0.45 0c0.01,-0.26 0.09,-0.47 0.25,-0.62 0.15,-0.15 0.35,-0.23 0.59,-0.23 0.15,0 0.28,0.03 0.39,0.09 0.11,0.06 0.2,0.15 0.27,0.27 0.07,0.12 0.1,0.24 0.1,0.36 0,0.14 -0.04,0.3 -0.12,0.47 -0.08,0.17 -0.23,0.36 -0.45,0.59l-0.27 0.29 0.87 0 0 0.43 -1.68 0 0 -0.22 0.75 -0.77c0.18,-0.18 0.3,-0.33 0.36,-0.44 0.06,-0.11 0.09,-0.21 0.09,-0.3 0,-0.09 -0.03,-0.17 -0.09,-0.23 -0.06,-0.06 -0.14,-0.09 -0.24,-0.09 -0.1,0 -0.18,0.04 -0.25,0.11 -0.07,0.07 -0.1,0.17 -0.11,0.3z"/>
  <path id="_3" class="fil0" d="M10.44 0c0.18,0 0.33,0.04 0.46,0.13 0.13,0.09 0.23,0.22 0.3,0.4 0.07,0.18 0.1,0.43 0.1,0.75 0,0.32 -0.04,0.57 -0.11,0.75 -0.07,0.18 -0.17,0.31 -0.29,0.39 -0.12,0.08 -0.27,0.13 -0.45,0.13 -0.18,0 -0.34,-0.04 -0.46,-0.13 -0.12,-0.09 -0.22,-0.21 -0.29,-0.39 -0.07,-0.17 -0.11,-0.42 -0.11,-0.74 0,-0.44 0.07,-0.77 0.21,-0.97 0.15,-0.22 0.37,-0.33 0.64,-0.33zm0.01 0.44c-0.08,0 -0.15,0.02 -0.21,0.07 -0.06,0.05 -0.11,0.14 -0.14,0.26 -0.03,0.12 -0.05,0.3 -0.05,0.53 0,0.31 0.04,0.52 0.11,0.63 0.07,0.12 0.17,0.18 0.28,0.18 0.11,0 0.2,-0.06 0.27,-0.17 0.08,-0.13 0.12,-0.36 0.12,-0.67 0,-0.32 -0.04,-0.54 -0.11,-0.66 -0.07,-0.12 -0.16,-0.18 -0.28,-0.18z"/>
  <path id="_4" class="fil0" d="M12.13 0.84l-0.45 0c0.01,-0.26 0.09,-0.47 0.25,-0.62 0.15,-0.15 0.35,-0.23 0.59,-0.23 0.15,0 0.28,0.03 0.39,0.09 0.11,0.06 0.2,0.15 0.27,0.27 0.07,0.12 0.1,0.24 0.1,0.36 0,0.14 -0.04,0.3 -0.12,0.47 -0.08,0.17 -0.23,0.36 -0.45,0.59l-0.27 0.29 0.87 0 0 0.43 -1.68 0 0 -0.22 0.75 -0.77c0.18,-0.18 0.3,-0.33 0.36,-0.44 0.06,-0.11 0.09,-0.21 0.09,-0.3 0,-0.09 -0.03,-0.17 -0.09,-0.23 -0.06,-0.06 -0.14,-0.09 -0.24,-0.09 -0.1,0 -0.18,0.04 -0.25,0.11 -0.07,0.07 -0.1,0.17 -0.11,0.3z"/>
  <path id="_5" class="fil0" d="M4.52 0.66l-0.44 0c0.02,-0.18 0.09,-0.32 0.19,-0.43 0.15,-0.15 0.33,-0.23 0.56,-0.23 0.2,0 0.37,0.06 0.5,0.19 0.13,0.13 0.2,0.28 0.2,0.45 0,0.11 -0.03,0.21 -0.09,0.3 -0.06,0.09 -0.14,0.16 -0.26,0.22 0.15,0.04 0.26,0.12 0.35,0.23 0.08,0.11 0.12,0.24 0.12,0.39 0,0.22 -0.08,0.4 -0.24,0.55 -0.16,0.15 -0.36,0.23 -0.61,0.23 -0.23,0 -0.43,-0.07 -0.58,-0.21 -0.15,-0.14 -0.23,-0.34 -0.24,-0.58l0.46 0c0.02,0.13 0.06,0.22 0.13,0.28 0.07,0.06 0.15,0.09 0.26,0.09 0.11,0 0.2,-0.03 0.27,-0.1 0.07,-0.07 0.11,-0.15 0.11,-0.25 0,-0.11 -0.05,-0.2 -0.14,-0.28 -0.1,-0.08 -0.23,-0.11 -0.41,-0.12l0 -0.4c0.11,-0.01 0.19,-0.03 0.25,-0.05 0.05,-0.03 0.1,-0.06 0.13,-0.11 0.03,-0.05 0.05,-0.09 0.05,-0.14 0,-0.07 -0.02,-0.12 -0.07,-0.17 -0.05,-0.04 -0.11,-0.07 -0.18,-0.07 -0.07,0 -0.13,0.02 -0.18,0.06 -0.05,0.04 -0.09,0.09 -0.11,0.16z"/>
  <path id="_6" class="fil0" d="M14.55 0l0.39 0.19 -0.42 0.83c0.21,0 0.38,0.07 0.53,0.22 0.14,0.15 0.22,0.33 0.22,0.55 0,0.21 -0.07,0.39 -0.22,0.54 -0.15,0.15 -0.33,0.22 -0.54,0.22 -0.22,0 -0.4,-0.08 -0.55,-0.23 -0.15,-0.15 -0.22,-0.33 -0.22,-0.52 0,-0.07 0.01,-0.15 0.03,-0.23 0.02,-0.08 0.07,-0.19 0.16,-0.35l0.62 -1.22zm-0.06 1.46c-0.09,0 -0.16,0.03 -0.22,0.09 -0.06,0.06 -0.09,0.14 -0.09,0.23 0,0.09 0.03,0.17 0.09,0.24 0.06,0.06 0.13,0.1 0.21,0.1 0.09,0 0.16,-0.03 0.22,-0.09 0.06,-0.06 0.09,-0.14 0.09,-0.24 0,-0.09 -0.03,-0.17 -0.09,-0.23 -0.06,-0.06 -0.13,-0.09 -0.22,-0.09z"/>
  <polygon id="_7" class="fil0" points="1.18,4.75 1.68,3.73 1.94,3.73 2.35,5.35 1.95,5.35 1.73,4.4 1.25,5.35 1.08,5.35 0.61,4.4 0.4,5.35 -0,5.35 0.4,3.73 0.67,3.73 "/>
  <path id="_8" class="fil0" d="M3.77 3.73l0.4 0 0 1.62 -0.4 0 0 -0.17c-0.08,0.08 -0.16,0.13 -0.24,0.16 -0.08,0.03 -0.17,0.05 -0.26,0.05 -0.21,0 -0.39,-0.08 -0.54,-0.24 -0.15,-0.16 -0.23,-0.36 -0.23,-0.6 0,-0.25 0.07,-0.45 0.22,-0.61 0.15,-0.16 0.33,-0.24 0.54,-0.24 0.1,0 0.19,0.02 0.27,0.05 0.09,0.04 0.16,0.09 0.24,0.16l0 -0.18zm-0.43 0.33c-0.13,0 -0.23,0.04 -0.31,0.13 -0.08,0.09 -0.12,0.2 -0.12,0.34 0,0.14 0.04,0.25 0.13,0.34 0.08,0.09 0.19,0.13 0.31,0.13 0.13,0 0.23,-0.04 0.32,-0.13 0.08,-0.09 0.13,-0.2 0.13,-0.35 0,-0.14 -0.04,-0.25 -0.13,-0.34 -0.08,-0.09 -0.19,-0.13 -0.32,-0.13z"/>
  <path id="_9" class="fil0" d="M4.8 5.35l-0.22 0 0 -1.62 0.4 0 0 0.95 0.83 -0.95 0.19 0 0 1.62 -0.4 0 0 -0.93 -0.81 0.93zm-0.11 -2.33l0.33 0c0.03,0.04 0.06,0.07 0.11,0.09 0.05,0.02 0.1,0.03 0.17,0.03 0.07,0 0.13,-0.01 0.18,-0.04 0.04,-0.02 0.07,-0.04 0.09,-0.09l0.33 0c-0.02,0.13 -0.08,0.23 -0.18,0.3 -0.1,0.08 -0.24,0.11 -0.43,0.11 -0.12,0 -0.23,-0.02 -0.31,-0.05 -0.08,-0.03 -0.15,-0.08 -0.2,-0.15 -0.05,-0.06 -0.08,-0.14 -0.09,-0.22z"/>
  <polygon id="_10" class="fil0" points="6.27,5.74 7.25,3.1 7.54,3.1 6.56,5.74 "/>
  <polygon id="_11" class="fil0" points="8.02,5.35 7.81,5.35 7.81,3.73 8.2,3.73 8.2,4.68 9.03,3.73 9.23,3.73 9.23,5.35 8.83,5.35 8.83,4.42 "/>
  <path id="_12" class="fil0" d="M10.04 5.35l-0.4 0 0 -1.62 0.4 0 0 0.64 0.22 0c0.05,-0.21 0.15,-0.38 0.31,-0.5 0.16,-0.12 0.33,-0.18 0.51,-0.18 0.24,0 0.44,0.08 0.61,0.25 0.17,0.16 0.25,0.36 0.25,0.6 0,0.23 -0.08,0.43 -0.24,0.6 -0.16,0.17 -0.37,0.25 -0.61,0.25 -0.2,0 -0.37,-0.06 -0.53,-0.18 -0.16,-0.12 -0.26,-0.28 -0.3,-0.46l-0.22 0 0 0.61zm1.49 -0.81c0,-0.14 -0.04,-0.25 -0.12,-0.34 -0.08,-0.09 -0.19,-0.13 -0.32,-0.13 -0.13,0 -0.23,0.04 -0.32,0.13 -0.08,0.09 -0.12,0.2 -0.12,0.33 0,0.14 0.04,0.25 0.12,0.34 0.08,0.09 0.19,0.13 0.32,0.13 0.12,0 0.23,-0.04 0.32,-0.13 0.09,-0.09 0.13,-0.2 0.13,-0.34z"/>
  <polygon id="_13" class="fil0" points="12.67,4.31 13.28,4.31 13.28,3.73 13.68,3.73 13.68,5.35 13.28,5.35 13.28,4.68 12.67,4.68 12.67,5.35 12.27,5.35 12.27,3.73 12.67,3.73 "/>
  <path id="_14" class="fil0" d="M14.5 4.32l0.12 0c0.17,0 0.3,0.01 0.39,0.04 0.09,0.03 0.17,0.08 0.23,0.16 0.06,0.08 0.09,0.19 0.09,0.31 0,0.12 -0.03,0.23 -0.08,0.31 -0.06,0.08 -0.13,0.14 -0.22,0.16 -0.09,0.03 -0.21,0.04 -0.37,0.04l-0.57 0 0 -1.62 0.4 0 0 0.58zm0 0.72l0.12 0c0.07,0 0.13,-0.01 0.16,-0.02 0.03,-0.01 0.06,-0.03 0.09,-0.06 0.02,-0.03 0.04,-0.07 0.04,-0.11 0,-0.14 -0.08,-0.21 -0.24,-0.21l-0.17 0 0 0.39z"/>
 </g>
</svg>
