<?xml version="1.0" encoding="UTF-8" standalone="no"?>
<!-- Created with Inkscape (http://www.inkscape.org/) -->

<svg
   xmlns:dc="http://purl.org/dc/elements/1.1/"
   xmlns:cc="http://creativecommons.org/ns#"
   xmlns:rdf="http://www.w3.org/1999/02/22-rdf-syntax-ns#"
   xmlns:svg="http://www.w3.org/2000/svg"
   xmlns="http://www.w3.org/2000/svg"
   xmlns:sodipodi="http://sodipodi.sourceforge.net/DTD/sodipodi-0.dtd"
   xmlns:inkscape="http://www.inkscape.org/namespaces/inkscape"
   width="30pc"
   height="3pc"
   viewBox="0 0 127.00008 12.7"
   version="1.1"
   id="svg8"
   inkscape:version="0.92.2 (5c3e80d, 2017-08-06)"
   sodipodi:docname="nomertext.svg">
  <defs
     id="defs2" />
  <sodipodi:namedview
     id="base"
     pagecolor="#ffffff"
     bordercolor="#666666"
     borderopacity="1.0"
     inkscape:pageopacity="0.0"
     inkscape:pageshadow="2"
     inkscape:zoom="0.7"
     inkscape:cx="329.84726"
     inkscape:cy="-153.00721"
     inkscape:document-units="mm"
     inkscape:current-layer="text7807-7"
     showgrid="false"
     inkscape:lockguides="false"
     showguides="false"
     units="pc"
     inkscape:window-width="1280"
     inkscape:window-height="972"
     inkscape:window-x="-8"
     inkscape:window-y="-8"
     inkscape:window-maximized="1"
     showborder="true"
     inkscape:pagecheckerboard="true" />
  <metadata
     id="metadata5">
    <rdf:RDF>
      <cc:Work
         rdf:about="">
        <dc:format>image/svg+xml</dc:format>
        <dc:type
           rdf:resource="http://purl.org/dc/dcmitype/StillImage" />
        <dc:title></dc:title>
      </cc:Work>
    </rdf:RDF>
  </metadata>
  <g
     inkscape:label="Layer 1"
     inkscape:groupmode="layer"
     id="layer1"
     transform="translate(0,-284.29994)">
    <g
       aria-label="№1, 2020г. февраль"
       style="font-style:normal;font-weight:normal;font-size:10.58333302px;line-height:1.25;font-family:sans-serif;letter-spacing:0px;word-spacing:0px;fill:#ffffff;fill-opacity:1;stroke:none;stroke-width:0.26458332"
       id="text7807-7">
      <path
         d="M 0.27392214,286.9544 H 1.6588505 l 3.2607828,5.00228 v -5.00228 h 1.44694 v 7.6016 H 4.9764773 L 1.7208622,289.56922 V 294.556 H 0.27392214 Z m 10.49031586,4.20129 q 0,0.74414 -0.537435,1.27641 -0.5322675,0.53227 -1.2764081,0.53227 -0.7544759,0 -1.2867432,-0.5271 -0.5270996,-0.53227 -0.5270996,-1.28158 0,-0.74414 0.5322673,-1.27641 0.5322672,-0.53226 1.2815755,-0.53226 0.7441406,0 1.2764081,0.53226 0.537435,0.53227 0.537435,1.27641 z m -0.9405115,0 q 0,-0.36173 -0.2583821,-0.61495 -0.2583822,-0.25838 -0.6201172,-0.25838 -0.361735,0 -0.6201172,0.25838 -0.2583821,0.25322 -0.2583821,0.61495 0,0.3669 0.2532145,0.62529 0.2583822,0.25321 0.6252848,0.25321 0.361735,0 0.6201172,-0.25838 0.2583821,-0.25838 0.2583821,-0.62012 z m -2.6871744,2.49597 H 10.764238 V 294.556 H 7.1365521 Z"
         style="font-style:normal;font-variant:normal;font-weight:bold;font-stretch:normal;font-family:'Century Gothic';-inkscape-font-specification:'Century Gothic Bold';fill:#ffffff;stroke-width:0.26458332"
         id="path140" />
      <path
         d="m 12.893306,286.9544 h 2.165243 v 7.6016 h -1.436605 v -6.24251 h -1.565796 z"
         style="font-style:normal;font-variant:normal;font-weight:bold;font-stretch:normal;font-family:'Century Gothic';-inkscape-font-specification:'Century Gothic Bold';fill:#ffffff;stroke-width:0.26458332"
         id="path142" />
      <path
         d="m 18.474362,293.12456 1.00769,0.50643 -1.276408,2.18075 -0.702799,-0.3359 z"
         style="font-style:normal;font-variant:normal;font-weight:bold;font-stretch:normal;font-family:'Century Gothic';-inkscape-font-specification:'Century Gothic Bold';fill:#ffffff;stroke-width:0.26458332"
         id="path144" />
      <path
         d="m 24.840897,289.40386 h -1.410766 q 0.05684,-1.2299 0.769979,-1.9327 0.718302,-0.70797 1.839681,-0.70797 0.692464,0 1.219563,0.29456 0.532268,0.28939 0.847494,0.84233 0.320394,0.54777 0.320394,1.11621 0,0.67696 -0.387574,1.45727 -0.382405,0.78032 -1.405598,1.84485 l -0.852662,0.89917 h 2.707845 v 1.33842 h -5.265828 v -0.69246 l 2.351278,-2.39779 q 0.852661,-0.863 1.131714,-1.38493 0.28422,-0.5271 0.28422,-0.95085 0,-0.43925 -0.294556,-0.72347 -0.289388,-0.28938 -0.749308,-0.28938 -0.465088,0 -0.775146,0.34623 -0.310059,0.34623 -0.33073,0.94051 z"
         style="font-style:normal;font-variant:normal;font-weight:bold;font-stretch:normal;font-family:'Century Gothic';-inkscape-font-specification:'Century Gothic Bold';fill:#ffffff;stroke-width:0.26458332"
         id="path146" />
      <path
         d="m 31.868891,286.76319 q 0.83199,0 1.431437,0.40825 0.604614,0.40824 0.930176,1.25057 0.330729,0.83716 0.330729,2.33577 0,1.51412 -0.335897,2.35645 -0.330729,0.84232 -0.894002,1.24023 -0.563273,0.39274 -1.421102,0.39274 -0.857829,0 -1.441772,-0.39791 -0.583944,-0.3979 -0.914673,-1.20922 -0.330729,-0.81132 -0.330729,-2.30994 0,-2.0929 0.645955,-3.03341 0.718302,-1.03353 1.999878,-1.03353 z m 0.03617,1.3746 q -0.366902,0 -0.651123,0.23771 -0.28422,0.23254 -0.434082,0.80615 -0.149861,0.57361 -0.149861,1.67948 0,1.44178 0.341064,1.99472 0.346232,0.54777 0.894002,0.54777 0.5271,0 0.837159,-0.52194 0.377237,-0.63045 0.377237,-2.10839 0,-1.49862 -0.341064,-2.06706 -0.335897,-0.56844 -0.873332,-0.56844 z"
         style="font-style:normal;font-variant:normal;font-weight:bold;font-stretch:normal;font-family:'Century Gothic';-inkscape-font-specification:'Century Gothic Bold';fill:#ffffff;stroke-width:0.26458332"
         id="path148" />
      <path
         d="m 36.705806,289.40386 h -1.410767 q 0.05684,-1.2299 0.769979,-1.9327 0.718302,-0.70797 1.839681,-0.70797 0.692464,0 1.219564,0.29456 0.532267,0.28939 0.847493,0.84233 0.320394,0.54777 0.320394,1.11621 0,0.67696 -0.387573,1.45727 -0.382406,0.78032 -1.405599,1.84485 l -0.852661,0.89917 h 2.707845 v 1.33842 h -5.265829 v -0.69246 l 2.351278,-2.39779 q 0.852661,-0.863 1.131714,-1.38493 0.28422,-0.5271 0.28422,-0.95085 0,-0.43925 -0.294556,-0.72347 -0.289388,-0.28938 -0.749308,-0.28938 -0.465088,0 -0.775146,0.34623 -0.310059,0.34623 -0.330729,0.94051 z"
         style="font-style:normal;font-variant:normal;font-weight:bold;font-stretch:normal;font-family:'Century Gothic';-inkscape-font-specification:'Century Gothic Bold';fill:#ffffff;stroke-width:0.26458332"
         id="path150" />
      <path
         d="m 43.733799,286.76319 q 0.831991,0 1.431437,0.40825 0.604614,0.40824 0.930176,1.25057 0.330729,0.83716 0.330729,2.33577 0,1.51412 -0.335897,2.35645 -0.330729,0.84232 -0.894002,1.24023 -0.563273,0.39274 -1.421102,0.39274 -0.857829,0 -1.441772,-0.39791 -0.583944,-0.3979 -0.914673,-1.20922 -0.330729,-0.81132 -0.330729,-2.30994 0,-2.0929 0.645955,-3.03341 0.718303,-1.03353 1.999878,-1.03353 z m 0.03617,1.3746 q -0.366903,0 -0.651123,0.23771 -0.284221,0.23254 -0.434082,0.80615 -0.149862,0.57361 -0.149862,1.67948 0,1.44178 0.341064,1.99472 0.346232,0.54777 0.894003,0.54777 0.527099,0 0.837158,-0.52194 0.377238,-0.63045 0.377238,-2.10839 0,-1.49862 -0.341065,-2.06706 -0.335897,-0.56844 -0.873331,-0.56844 z"
         style="font-style:normal;font-variant:normal;font-weight:bold;font-stretch:normal;font-family:'Century Gothic';-inkscape-font-specification:'Century Gothic Bold';fill:#ffffff;stroke-width:0.26458332"
         id="path152" />
      <path
         d="m 47.43383,288.9336 h 3.281454 v 1.34359 H 48.849765 V 294.556 H 47.43383 Z"
         style="font-style:normal;font-variant:normal;font-weight:bold;font-stretch:normal;font-family:'Century Gothic';-inkscape-font-specification:'Century Gothic Bold';fill:#ffffff;stroke-width:0.26458332"
         id="path154" />
      <path
         d="m 52.446446,293.08322 q 0.335896,0 0.573608,0.23771 0.237712,0.23255 0.237712,0.56844 0,0.3359 -0.237712,0.57361 -0.237712,0.23771 -0.573608,0.23771 -0.335897,0 -0.573609,-0.23771 -0.237711,-0.23771 -0.237711,-0.57361 0,-0.33589 0.237711,-0.56844 0.237712,-0.23771 0.573609,-0.23771 z"
         style="font-style:normal;font-variant:normal;font-weight:bold;font-stretch:normal;font-family:'Century Gothic';-inkscape-font-specification:'Century Gothic Bold';fill:#ffffff;stroke-width:0.26458332"
         id="path156" />
      <path
         d="m 61.510493,294.07541 q -0.738973,0.64079 -1.612305,0.64079 -1.059366,0 -1.839681,-0.83716 -0.780314,-0.84233 -0.780314,-2.10323 0,-1.31775 0.759644,-2.13941 0.759643,-0.82682 1.824178,-0.82682 0.950846,0 1.648478,0.64596 v -2.69235 h 1.400431 v 2.69235 q 0.697632,-0.66663 1.648478,-0.66663 0.676962,0 1.260905,0.35657 0.583944,0.35656 0.950847,1.02319 0.366902,0.66663 0.366902,1.58647 0,1.28674 -0.790649,2.11873 -0.785482,0.82682 -1.824178,0.82682 -0.873332,0 -1.612305,-0.62528 v 2.53731 h -1.400431 z m 4.216797,-2.33061 q 0,-0.7183 -0.408244,-1.17822 -0.408244,-0.46509 -1.054199,-0.46509 -0.558106,0 -0.976685,0.44442 -0.413411,0.43925 -0.413411,1.25574 0,0.75964 0.397908,1.18855 0.403076,0.42892 0.997355,0.42892 0.61495,0 1.033529,-0.47026 0.423747,-0.47542 0.423747,-1.20406 z m -4.175456,0.0517 q 0,-0.55294 -0.186035,-0.90434 -0.186035,-0.35657 -0.501261,-0.56844 -0.310059,-0.21187 -0.707967,-0.21187 -0.682129,0 -1.069703,0.48576 -0.387573,0.48059 -0.387573,1.15755 0,0.72347 0.418579,1.19889 0.418579,0.47542 1.033529,0.47542 0.594279,0 0.997355,-0.42374 0.403076,-0.42892 0.403076,-1.20923 z"
         style="font-style:normal;font-variant:normal;font-weight:bold;font-stretch:normal;font-family:'Century Gothic';-inkscape-font-specification:'Century Gothic Bold';fill:#ffffff;stroke-width:0.26458332"
         id="path158" />
      <path
         d="m 73.886995,292.15305 h -4.532023 q 0.09819,0.59944 0.521932,0.95601 0.428914,0.3514 1.090372,0.3514 0.79065,0 1.35909,-0.55294 l 1.188558,0.55811 q -0.444417,0.63045 -1.064534,0.93534 -0.620117,0.29972 -1.472778,0.29972 -1.322917,0 -2.154908,-0.83199 -0.83199,-0.83715 -0.83199,-2.09289 0,-1.28675 0.826823,-2.13424 0.83199,-0.85266 2.08256,-0.85266 1.328084,0 2.160075,0.85266 0.83199,0.84749 0.83199,2.24276 z M 72.47106,291.042 q -0.139526,-0.47025 -0.552937,-0.76481 -0.408244,-0.29455 -0.950847,-0.29455 -0.589111,0 -1.033528,0.33072 -0.279053,0.20671 -0.516765,0.72864 z"
         style="font-style:normal;font-variant:normal;font-weight:bold;font-stretch:normal;font-family:'Century Gothic';-inkscape-font-specification:'Century Gothic Bold';fill:#ffffff;stroke-width:0.26458332"
         id="path160" />
      <path
         d="m 75.034217,294.556 v -5.6224 h 2.25826 q 1.111043,0 1.508952,0.43925 0.397908,0.43409 0.397908,0.98702 0,0.82166 -0.816488,1.18339 1.116211,0.38241 1.116211,1.44178 0,0.5736 -0.294555,0.95084 -0.294556,0.37207 -0.749309,0.4961 -0.449584,0.12402 -1.260904,0.12402 z m 1.415934,-3.41064 h 0.542602 q 0.346233,0 0.532268,-0.17054 0.191202,-0.1757 0.191202,-0.38757 0,-0.31523 -0.180867,-0.49093 -0.180868,-0.1757 -0.428914,-0.1757 l -0.180868,0.005 h -0.475423 z m 0,2.32543 h 0.707967 q 0.413411,0 0.578776,-0.1912 0.170532,-0.19637 0.170532,-0.3824 0,-0.27389 -0.191203,-0.50127 -0.186035,-0.22737 -0.676961,-0.22737 h -0.589111 z"
         style="font-style:normal;font-variant:normal;font-weight:bold;font-stretch:normal;font-family:'Century Gothic';-inkscape-font-specification:'Century Gothic Bold';fill:#ffffff;stroke-width:0.26458332"
         id="path162" />
      <path
         d="m 82.098382,288.9336 v 0.62012 q 0.382406,-0.3824 0.826823,-0.57361 0.444418,-0.1912 0.950847,-0.1912 1.100708,0 1.870686,0.83199 0.769979,0.83199 0.769979,2.13424 0,1.25573 -0.795817,2.10323 -0.795817,0.84232 -1.886189,0.84232 -0.485759,0 -0.904338,-0.17053 -0.418579,-0.1757 -0.831991,-0.56844 v 2.651 h -1.400431 v -7.67912 z m 1.483114,1.15756 q -0.666626,0 -1.105876,0.45475 -0.439249,0.45475 -0.439249,1.18856 0,0.7493 0.439249,1.21439 0.43925,0.45992 1.105876,0.45992 0.645955,0 1.085205,-0.47025 0.444417,-0.47026 0.444417,-1.1989 0,-0.72347 -0.434082,-1.18339 -0.434082,-0.46508 -1.09554,-0.46508 z"
         style="font-style:normal;font-variant:normal;font-weight:bold;font-stretch:normal;font-family:'Century Gothic';-inkscape-font-specification:'Century Gothic Bold';fill:#ffffff;stroke-width:0.26458332"
         id="path164" />
      <path
         d="m 91.839392,288.9336 h 1.405599 v 5.6224 h -1.405599 v -0.59428 q -0.413411,0.39274 -0.83199,0.56844 -0.413412,0.17053 -0.89917,0.17053 -1.090373,0 -1.88619,-0.84232 -0.795817,-0.8475 -0.795817,-2.10323 0,-1.30225 0.769979,-2.13424 0.769979,-0.83199 1.870687,-0.83199 0.506429,0 0.950846,0.1912 0.444417,0.19121 0.821655,0.57361 z m -1.483113,1.15756 q -0.656291,0 -1.090373,0.46508 -0.434082,0.45992 -0.434082,1.18339 0,0.72864 0.43925,1.1989 0.444417,0.47025 1.090372,0.47025 0.666626,0 1.105876,-0.45992 0.43925,-0.46509 0.43925,-1.21439 0,-0.73381 -0.43925,-1.18856 -0.43925,-0.45475 -1.111043,-0.45475 z"
         style="font-style:normal;font-variant:normal;font-weight:bold;font-stretch:normal;font-family:'Century Gothic';-inkscape-font-specification:'Century Gothic Bold';fill:#ffffff;stroke-width:0.26458332"
         id="path166" />
      <path
         d="M 99.694205,294.556 H 98.2576 l -1.405599,-3.55017 -1.431437,3.55017 h -1.431437 l 2.397786,-5.6224 h 0.909506 z"
         style="font-style:normal;font-variant:normal;font-weight:bold;font-stretch:normal;font-family:'Century Gothic';-inkscape-font-specification:'Century Gothic Bold';fill:#ffffff;stroke-width:0.26458332"
         id="path168" />
      <path
         d="m 101.84911,290.95932 h 0.41858 q 0.88367,0 1.35392,0.13953 0.47543,0.13436 0.80099,0.56844 0.32556,0.43408 0.32556,1.09037 0,0.65112 -0.29456,1.08521 -0.29455,0.42891 -0.75447,0.5736 -0.45475,0.13953 -1.28158,0.13953 h -1.98437 v -5.6224 h 1.41593 z m 0,2.51147 h 0.42892 q 0.3824,0 0.55293,-0.0517 0.17054,-0.0568 0.29973,-0.21188 0.12919,-0.15502 0.12919,-0.37723 0,-0.72347 -0.82682,-0.72347 h -0.58395 z"
         style="font-style:normal;font-variant:normal;font-weight:bold;font-stretch:normal;font-family:'Century Gothic';-inkscape-font-specification:'Century Gothic Bold';fill:#ffffff;stroke-width:0.26458332"
         id="path170" />
    </g>
  </g>
</svg>
