<?xml version="1.0" encoding="UTF-8" standalone="no"?>
<!-- Created with Inkscape (http://www.inkscape.org/) -->

<svg
   xmlns:dc="http://purl.org/dc/elements/1.1/"
   xmlns:cc="http://creativecommons.org/ns#"
   xmlns:rdf="http://www.w3.org/1999/02/22-rdf-syntax-ns#"
   xmlns:svg="http://www.w3.org/2000/svg"
   xmlns="http://www.w3.org/2000/svg"
   xmlns:sodipodi="http://sodipodi.sourceforge.net/DTD/sodipodi-0.dtd"
   xmlns:inkscape="http://www.inkscape.org/namespaces/inkscape"
   width="30pc"
   height="3pc"
   viewBox="0 0 127.00008 12.7"
   version="1.1"
   id="svg8"
   inkscape:version="0.92.2 (5c3e80d, 2017-08-06)"
   sodipodi:docname="nomertext.svg">
  <defs
     id="defs2" />
  <sodipodi:namedview
     id="base"
     pagecolor="#ffffff"
     bordercolor="#666666"
     borderopacity="1.0"
     inkscape:pageopacity="0.0"
     inkscape:pageshadow="2"
     inkscape:zoom="1.8101934"
     inkscape:cx="267.74299"
     inkscape:cy="-24.478942"
     inkscape:document-units="mm"
     inkscape:current-layer="text1730-6"
     showgrid="false"
     inkscape:lockguides="false"
     showguides="false"
     units="pc"
     inkscape:window-width="1280"
     inkscape:window-height="972"
     inkscape:window-x="-8"
     inkscape:window-y="-8"
     inkscape:window-maximized="1"
     showborder="true"
     inkscape:pagecheckerboard="true" />
  <metadata
     id="metadata5">
    <rdf:RDF>
      <cc:Work
         rdf:about="">
        <dc:format>image/svg+xml</dc:format>
        <dc:type
           rdf:resource="http://purl.org/dc/dcmitype/StillImage" />
        <dc:title></dc:title>
      </cc:Work>
    </rdf:RDF>
  </metadata>
  <g
     inkscape:label="Layer 1"
     inkscape:groupmode="layer"
     id="layer1"
     transform="translate(0,-284.29994)">
    <g
       aria-label="№3, 2020г. июль"
       transform="translate(0,-1.1041667e-5)"
       style="font-style:normal;font-variant:normal;font-weight:bold;font-stretch:normal;font-size:9.8777771px;line-height:1.25;font-family:'Century Gothic';-inkscape-font-specification:'Century Gothic, Bold';font-variant-ligatures:normal;font-variant-caps:normal;font-variant-numeric:normal;font-feature-settings:normal;text-align:start;letter-spacing:0px;word-spacing:0px;writing-mode:lr-tb;text-anchor:start;fill:#000000;fill-opacity:1;stroke:none;stroke-width:0.26458332"
       id="text1730-6">
      <path
         d="m 1.377419,286.8919 h 1.3849284 l 3.2607828,5.00228 v -5.00228 h 1.44694 v 7.6016 h -1.390096 l -3.2556151,-4.98678 v 4.98678 H 1.377419 Z m 10.490315,4.20129 q 0,0.74414 -0.537434,1.27641 -0.532268,0.53227 -1.276408,0.53227 -0.7544761,0 -1.2867434,-0.5271 -0.5270995,-0.53227 -0.5270995,-1.28158 0,-0.74414 0.5322672,-1.27641 0.5322672,-0.53226 1.2815757,-0.53226 0.74414,0 1.276408,0.53226 0.537434,0.53227 0.537434,1.27641 z m -0.940511,0 q 0,-0.36173 -0.258382,-0.61495 -0.258382,-0.25838 -0.620117,-0.25838 -0.3617349,0 -0.620117,0.25838 -0.2583822,0.25322 -0.2583822,0.61495 0,0.3669 0.2532145,0.62529 0.2583822,0.25321 0.6252847,0.25321 0.361735,0 0.620117,-0.25838 0.258382,-0.25838 0.258382,-0.62012 z m -2.6871739,2.49597 h 3.6276849 v 0.90434 H 8.2400491 Z"
         style="font-size:10.58333302px;fill:#ffffff;stroke-width:0.26458332"
         id="path1752" />
      <path
         d="m 14.265521,288.76775 h -1.390096 q 0.10852,-0.84232 0.604614,-1.35392 0.692464,-0.71314 1.741496,-0.71314 0.935343,0 1.565795,0.59428 0.635621,0.59428 0.635621,1.41077 0,0.50643 -0.279053,0.92501 -0.273885,0.41858 -0.800985,0.67696 0.692464,0.2067 1.080038,0.72347 0.39274,0.5116 0.39274,1.20923 0,1.02319 -0.754476,1.73633 -0.754475,0.70796 -1.922363,0.70796 -1.105875,0 -1.803507,-0.66662 -0.697632,-0.6718 -0.764811,-1.82418 h 1.431437 q 0.09302,0.58911 0.408244,0.8785 0.320393,0.28422 0.806152,0.28422 0.506429,0 0.837158,-0.32556 0.335897,-0.32556 0.335897,-0.79582 0,-0.51676 -0.449585,-0.87333 -0.449585,-0.35657 -1.297078,-0.3669 v -1.24024 q 0.521931,-0.0413 0.775146,-0.1602 0.258382,-0.12402 0.397909,-0.33589 0.144694,-0.21188 0.144694,-0.44959 0,-0.31006 -0.217041,-0.51159 -0.217041,-0.20671 -0.568441,-0.20671 -0.310059,0 -0.563273,0.1912 -0.253215,0.18604 -0.346232,0.48576 z"
         style="font-size:10.58333302px;fill:#ffffff;stroke-width:0.26458332"
         id="path1754" />
      <path
         d="m 19.577858,293.06206 1.007691,0.50643 -1.276408,2.18075 -0.702799,-0.3359 z"
         style="font-size:10.58333302px;fill:#ffffff;stroke-width:0.26458332"
         id="path1756" />
      <path
         d="m 25.944394,289.34136 h -1.410766 q 0.05684,-1.2299 0.769979,-1.9327 0.718302,-0.70797 1.83968,-0.70797 0.692465,0 1.219564,0.29456 0.532267,0.28939 0.847494,0.84233 0.320394,0.54777 0.320394,1.11621 0,0.67696 -0.387574,1.45727 -0.382405,0.78032 -1.405599,1.84485 l -0.852661,0.89917 h 2.707845 v 1.33842 h -5.265828 v -0.69246 l 2.351278,-2.39779 q 0.852661,-0.863 1.131713,-1.38493 0.284221,-0.5271 0.284221,-0.95085 0,-0.43925 -0.294556,-0.72347 -0.289388,-0.28938 -0.749308,-0.28938 -0.465088,0 -0.775147,0.34623 -0.310058,0.34623 -0.330729,0.94051 z"
         style="font-size:10.58333302px;fill:#ffffff;stroke-width:0.26458332"
         id="path1758" />
      <path
         d="m 32.972388,286.70069 q 0.83199,0 1.431437,0.40825 0.604614,0.40824 0.930176,1.25057 0.330729,0.83716 0.330729,2.33577 0,1.51412 -0.335897,2.35645 -0.330729,0.84232 -0.894002,1.24023 -0.563273,0.39274 -1.421102,0.39274 -0.857829,0 -1.441772,-0.39791 -0.583944,-0.3979 -0.914673,-1.20922 -0.330729,-0.81132 -0.330729,-2.30994 0,-2.0929 0.645955,-3.03341 0.718302,-1.03353 1.999878,-1.03353 z m 0.03617,1.3746 q -0.366902,0 -0.651123,0.23771 -0.28422,0.23254 -0.434082,0.80615 -0.149861,0.57361 -0.149861,1.67948 0,1.44178 0.341064,1.99472 0.346232,0.54777 0.894002,0.54777 0.5271,0 0.837158,-0.52194 0.377238,-0.63045 0.377238,-2.10839 0,-1.49862 -0.341064,-2.06706 -0.335897,-0.56844 -0.873332,-0.56844 z"
         style="font-size:10.58333302px;fill:#ffffff;stroke-width:0.26458332"
         id="path1760" />
      <path
         d="m 37.809303,289.34136 h -1.410767 q 0.05684,-1.2299 0.769979,-1.9327 0.718302,-0.70797 1.839681,-0.70797 0.692464,0 1.219563,0.29456 0.532268,0.28939 0.847494,0.84233 0.320394,0.54777 0.320394,1.11621 0,0.67696 -0.387573,1.45727 -0.382406,0.78032 -1.405599,1.84485 l -0.852661,0.89917 h 2.707845 v 1.33842 H 36.19183 v -0.69246 l 2.351278,-2.39779 q 0.852661,-0.863 1.131714,-1.38493 0.28422,-0.5271 0.28422,-0.95085 0,-0.43925 -0.294556,-0.72347 -0.289388,-0.28938 -0.749308,-0.28938 -0.465088,0 -0.775146,0.34623 -0.310059,0.34623 -0.330729,0.94051 z"
         style="font-size:10.58333302px;fill:#ffffff;stroke-width:0.26458332"
         id="path1762" />
      <path
         d="m 44.837296,286.70069 q 0.831991,0 1.431437,0.40825 0.604614,0.40824 0.930176,1.25057 0.330729,0.83716 0.330729,2.33577 0,1.51412 -0.335897,2.35645 -0.330729,0.84232 -0.894002,1.24023 -0.563273,0.39274 -1.421102,0.39274 -0.857829,0 -1.441772,-0.39791 -0.583944,-0.3979 -0.914673,-1.20922 -0.330729,-0.81132 -0.330729,-2.30994 0,-2.0929 0.645955,-3.03341 0.718303,-1.03353 1.999878,-1.03353 z m 0.03617,1.3746 q -0.366903,0 -0.651124,0.23771 -0.28422,0.23254 -0.434082,0.80615 -0.149861,0.57361 -0.149861,1.67948 0,1.44178 0.341064,1.99472 0.346232,0.54777 0.894003,0.54777 0.527099,0 0.837158,-0.52194 0.377238,-0.63045 0.377238,-2.10839 0,-1.49862 -0.341065,-2.06706 -0.335897,-0.56844 -0.873331,-0.56844 z"
         style="font-size:10.58333302px;fill:#ffffff;stroke-width:0.26458332"
         id="path1764" />
      <path
         d="m 48.537327,288.8711 h 3.281454 v 1.34359 h -1.865519 v 4.27881 h -1.415935 z"
         style="font-size:10.58333302px;fill:#ffffff;stroke-width:0.26458332"
         id="path1766" />
      <path
         d="m 53.549943,293.02072 q 0.335896,0 0.573608,0.23771 0.237711,0.23255 0.237711,0.56844 0,0.3359 -0.237711,0.57361 -0.237712,0.23771 -0.573608,0.23771 -0.335897,0 -0.573609,-0.23771 -0.237711,-0.23771 -0.237711,-0.57361 0,-0.33589 0.237711,-0.56844 0.237712,-0.23771 0.573609,-0.23771 z"
         style="font-size:10.58333302px;fill:#ffffff;stroke-width:0.26458332"
         id="path1768" />
      <path
         d="m 59.435889,294.4935 h -0.749308 v -5.6224 h 1.374593 v 3.30213 l 2.878377,-3.30213 h 0.676962 v 5.6224 H 62.24192 v -3.23494 z"
         style="font-size:10.58333302px;fill:#ffffff;stroke-width:0.26458332"
         id="path1770" />
      <path
         d="m 66.448379,294.4935 h -1.415934 v -5.6224 h 1.415934 v 2.22726 h 0.749308 q 0.258382,-1.11621 1.080037,-1.7415 0.826823,-0.63045 1.782837,-0.63045 1.235067,0 2.103231,0.85783 0.873332,0.85266 0.873332,2.09289 0,1.2144 -0.847494,2.08773 -0.847493,0.87333 -2.123901,0.87333 -1.018026,0 -1.834513,-0.64078 -0.81132,-0.64596 -1.033529,-1.60714 h -0.749308 z m 5.167643,-2.8112 q 0,-0.72347 -0.434082,-1.17305 -0.428915,-0.45476 -1.105876,-0.45476 -0.661458,0 -1.09554,0.47026 -0.428915,0.46509 -0.428915,1.15238 0,0.73898 0.428915,1.19373 0.434082,0.44958 1.09554,0.44958 0.651123,0 1.095541,-0.44958 0.444417,-0.45475 0.444417,-1.18856 z"
         style="font-size:10.58333302px;fill:#ffffff;stroke-width:0.26458332"
         id="path1772" />
      <path
         d="m 79.217624,294.4935 h -1.436605 l -1.405599,-3.55017 -1.431437,3.55017 h -1.431437 l 2.397786,-5.6224 h 0.909505 z"
         style="font-size:10.58333302px;fill:#ffffff;stroke-width:0.26458332"
         id="path1774" />
      <path
         d="m 81.372531,290.89682 h 0.418579 q 0.883667,0 1.353923,0.13953 0.475423,0.13436 0.800984,0.56844 0.325562,0.43408 0.325562,1.09037 0,0.65112 -0.294556,1.08521 -0.294555,0.42891 -0.754476,0.5736 -0.454752,0.13953 -1.281575,0.13953 h -1.984375 v -5.6224 h 1.415934 z m 0,2.51147 h 0.428914 q 0.382406,0 0.552938,-0.0517 0.170533,-0.0568 0.299724,-0.21188 0.129191,-0.15502 0.129191,-0.37723 0,-0.72347 -0.826823,-0.72347 h -0.583944 z"
         style="font-size:10.58333302px;fill:#ffffff;stroke-width:0.26458332"
         id="path1776" />
    </g>
  </g>
</svg>
