<?xml version="1.0" encoding="UTF-8"?>
<!DOCTYPE svg PUBLIC "-//W3C//DTD SVG 1.1//EN" "http://www.w3.org/Graphics/SVG/1.1/DTD/svg11.dtd">
<!-- Creator: CorelDRAW -->
<svg xmlns="http://www.w3.org/2000/svg" xml:space="preserve" width="54.7774mm" height="4.9848mm" version="1.1" style="shape-rendering:geometricPrecision; text-rendering:geometricPrecision; image-rendering:optimizeQuality; fill-rule:evenodd; clip-rule:evenodd"
viewBox="0 0 38.31 3.49"
 xmlns:xlink="http://www.w3.org/1999/xlink"
 xmlns:xodm="http://www.corel.com/coreldraw/odm/2003">
 <defs>
  <style type="text/css">
   <![CDATA[
    .fil0 {fill:white;fill-rule:nonzero}
   ]]>
  </style>
 </defs>
 <g id="Слой_x0020_1">
  <metadata id="CorelCorpID_0Corel-Layer"/>
  <path class="fil0" d="M-0 0.11l0.47 0 1.15 1.75 0 -1.75 0.5 0 0 2.66 -0.48 0 -1.15 -1.74 0 1.74 -0.5 0 0 -2.66zm3.67 1.47c0,0.17 -0.06,0.32 -0.19,0.45 -0.13,0.12 -0.27,0.19 -0.45,0.19 -0.18,0 -0.33,-0.06 -0.45,-0.18 -0.12,-0.12 -0.19,-0.27 -0.19,-0.45 0,-0.17 0.06,-0.32 0.19,-0.45 0.12,-0.12 0.27,-0.19 0.45,-0.19 0.17,0 0.32,0.06 0.45,0.19 0.12,0.12 0.19,0.27 0.19,0.45zm-0.33 -0c0,-0.09 -0.03,-0.16 -0.09,-0.22 -0.06,-0.06 -0.13,-0.09 -0.22,-0.09 -0.08,0 -0.16,0.03 -0.22,0.09 -0.06,0.06 -0.09,0.13 -0.09,0.22 0,0.09 0.03,0.16 0.09,0.22 0.06,0.06 0.13,0.09 0.22,0.09 0.08,0 0.16,-0.03 0.22,-0.09 0.06,-0.06 0.09,-0.13 0.09,-0.22zm-0.94 0.87l1.27 0 0 0.31 -1.27 0 0 -0.31z"/>
  <polygon id="_1" class="fil0" points="6.37,2.27 6.72,2.45 6.27,3.21 6.03,3.09 "/>
  <path id="_2" class="fil0" d="M8.6 0.97l-0.49 0c0.01,-0.29 0.1,-0.51 0.27,-0.68 0.17,-0.16 0.38,-0.25 0.64,-0.25 0.16,0 0.3,0.03 0.43,0.1 0.12,0.07 0.22,0.17 0.3,0.29 0.07,0.13 0.11,0.26 0.11,0.39 0,0.16 -0.04,0.33 -0.13,0.51 -0.09,0.18 -0.25,0.4 -0.49,0.65l-0.3 0.31 0.95 0 0 0.47 -1.84 0 0 -0.24 0.82 -0.84c0.2,-0.2 0.33,-0.36 0.4,-0.48 0.07,-0.12 0.1,-0.23 0.1,-0.33 0,-0.1 -0.03,-0.19 -0.1,-0.25 -0.07,-0.07 -0.16,-0.1 -0.26,-0.1 -0.11,0 -0.2,0.04 -0.27,0.12 -0.07,0.08 -0.11,0.19 -0.12,0.33z"/>
  <path id="_3" class="fil0" d="M11.05 0.04c0.19,0 0.36,0.05 0.5,0.14 0.14,0.1 0.25,0.24 0.33,0.44 0.08,0.2 0.11,0.47 0.11,0.82 0,0.35 -0.04,0.63 -0.12,0.82 -0.08,0.2 -0.18,0.34 -0.31,0.43 -0.13,0.09 -0.3,0.14 -0.5,0.14 -0.2,0 -0.37,-0.05 -0.5,-0.14 -0.14,-0.09 -0.24,-0.23 -0.32,-0.42 -0.08,-0.19 -0.12,-0.46 -0.12,-0.81 0,-0.49 0.08,-0.84 0.23,-1.06 0.17,-0.24 0.4,-0.36 0.7,-0.36zm0.02 0.48c-0.09,0 -0.16,0.03 -0.23,0.08 -0.07,0.05 -0.12,0.15 -0.15,0.28 -0.03,0.13 -0.05,0.33 -0.05,0.59 0,0.33 0.04,0.57 0.12,0.69 0.08,0.13 0.18,0.19 0.31,0.19 0.12,0 0.22,-0.06 0.29,-0.18 0.09,-0.15 0.13,-0.39 0.13,-0.74 0,-0.35 -0.04,-0.59 -0.12,-0.72 -0.08,-0.13 -0.18,-0.2 -0.3,-0.2z"/>
  <path id="_4" class="fil0" d="M12.74 0.97l-0.49 0c0.01,-0.29 0.1,-0.51 0.27,-0.68 0.17,-0.16 0.38,-0.25 0.64,-0.25 0.16,0 0.3,0.03 0.43,0.1 0.12,0.07 0.22,0.17 0.3,0.29 0.07,0.13 0.11,0.26 0.11,0.39 0,0.16 -0.04,0.33 -0.13,0.51 -0.09,0.18 -0.25,0.4 -0.49,0.65l-0.3 0.31 0.95 0 0 0.47 -1.84 0 0 -0.24 0.82 -0.84c0.2,-0.2 0.33,-0.36 0.4,-0.48 0.07,-0.12 0.1,-0.23 0.1,-0.33 0,-0.1 -0.03,-0.19 -0.1,-0.25 -0.07,-0.07 -0.16,-0.1 -0.26,-0.1 -0.11,0 -0.2,0.04 -0.27,0.12 -0.07,0.08 -0.11,0.19 -0.12,0.33z"/>
  <polygon id="_5" class="fil0" points="17.53,0.8 18.67,0.8 18.67,1.27 18.02,1.27 18.02,2.77 17.53,2.77 "/>
  <path id="_6" class="fil0" d="M19.27 2.25c0.08,0 0.14,0.03 0.2,0.08 0.05,0.05 0.08,0.12 0.08,0.2 0,0.08 -0.03,0.15 -0.08,0.2 -0.06,0.06 -0.12,0.08 -0.2,0.08 -0.08,0 -0.14,-0.03 -0.2,-0.08 -0.05,-0.06 -0.08,-0.12 -0.08,-0.2 0,-0.08 0.03,-0.14 0.08,-0.2 0.06,-0.05 0.12,-0.08 0.2,-0.08z"/>
  <path id="_7" class="fil0" d="M4.42 0.11l1.24 0 0 0.47 -0.87 0 -0.11 0.49c0.03,-0.01 0.06,-0.01 0.09,-0.02 0.03,-0 0.06,-0.01 0.08,-0.01 0.24,0 0.44,0.08 0.6,0.25 0.16,0.16 0.24,0.37 0.24,0.63 0,0.26 -0.09,0.48 -0.26,0.65 -0.18,0.18 -0.39,0.27 -0.64,0.27 -0.23,0 -0.42,-0.06 -0.58,-0.19 -0.16,-0.13 -0.27,-0.31 -0.32,-0.53l0.53 0c0.04,0.08 0.09,0.15 0.16,0.19 0.07,0.04 0.14,0.06 0.22,0.06 0.11,0 0.21,-0.04 0.29,-0.12 0.08,-0.08 0.12,-0.18 0.12,-0.31 0,-0.12 -0.04,-0.22 -0.11,-0.3 -0.07,-0.08 -0.16,-0.12 -0.26,-0.12 -0.06,0 -0.11,0.01 -0.16,0.04 -0.05,0.03 -0.11,0.07 -0.16,0.12l-0.41 -0.09 0.32 -1.48z"/>
  <path id="_8" class="fil0" d="M23 1.2l-0.41 0.23c-0.08,-0.08 -0.15,-0.14 -0.23,-0.17 -0.08,-0.03 -0.16,-0.05 -0.26,-0.05 -0.18,0 -0.33,0.05 -0.45,0.16 -0.11,0.11 -0.17,0.25 -0.17,0.42 0,0.17 0.05,0.3 0.16,0.41 0.11,0.11 0.25,0.16 0.43,0.16 0.22,0 0.39,-0.08 0.52,-0.23l0.39 0.27c-0.21,0.27 -0.51,0.41 -0.89,0.41 -0.35,0 -0.62,-0.1 -0.81,-0.31 -0.2,-0.2 -0.29,-0.44 -0.29,-0.72 0,-0.19 0.05,-0.36 0.14,-0.52 0.1,-0.16 0.23,-0.29 0.4,-0.38 0.17,-0.09 0.36,-0.14 0.57,-0.14 0.2,0 0.37,0.04 0.53,0.12 0.16,0.08 0.28,0.19 0.38,0.33z"/>
  <path id="_9" class="fil0" d="M25.41 1.92l-1.58 0c0.02,0.14 0.08,0.25 0.18,0.33 0.1,0.08 0.23,0.12 0.38,0.12 0.18,0 0.34,-0.06 0.47,-0.19l0.41 0.2c-0.1,0.15 -0.23,0.26 -0.37,0.33 -0.14,0.07 -0.32,0.11 -0.51,0.11 -0.31,0 -0.56,-0.1 -0.75,-0.29 -0.19,-0.19 -0.29,-0.44 -0.29,-0.73 0,-0.3 0.1,-0.55 0.29,-0.75 0.19,-0.2 0.43,-0.3 0.73,-0.3 0.31,0 0.56,0.1 0.75,0.3 0.19,0.2 0.29,0.46 0.29,0.78l-0 0.09zm-0.49 -0.38c-0.03,-0.11 -0.1,-0.19 -0.19,-0.26 -0.1,-0.07 -0.21,-0.1 -0.33,-0.1 -0.14,0 -0.26,0.04 -0.36,0.11 -0.06,0.05 -0.13,0.13 -0.18,0.25l1.07 0z"/>
  <polygon id="_10" class="fil0" points="26.31,1.51 27.05,1.51 27.05,0.8 27.54,0.8 27.54,2.77 27.05,2.77 27.05,1.95 26.31,1.95 26.31,2.77 25.82,2.77 25.82,0.8 26.31,0.8 "/>
  <polygon id="_11" class="fil0" points="27.86,0.8 29.7,0.8 29.7,1.27 29.04,1.27 29.04,2.77 28.55,2.77 28.55,1.27 27.86,1.27 "/>
  <path id="_12" class="fil0" d="M30.35 1.96c-0.11,-0.04 -0.19,-0.1 -0.26,-0.2 -0.07,-0.1 -0.1,-0.21 -0.1,-0.33 0,-0.15 0.04,-0.27 0.12,-0.38 0.08,-0.11 0.18,-0.18 0.3,-0.21 0.12,-0.03 0.29,-0.04 0.54,-0.04l0.5 0 0 1.97 -0.49 0 0 -0.71 -0.1 0 -0.47 0.71 -0.59 0 0.55 -0.81zm0.6 -0.27l0 -0.47 -0.17 0c-0.19,0 -0.28,0.08 -0.28,0.24 0,0.16 0.1,0.24 0.32,0.24l0.14 0z"/>
  <path id="_13" class="fil0" d="M33.83 0l0 0.47c-0.14,0.02 -0.28,0.02 -0.41,0.03 -0.24,0 -0.42,0.01 -0.55,0.03 -0.12,0.02 -0.23,0.06 -0.32,0.13 -0.09,0.07 -0.16,0.15 -0.2,0.24 -0.04,0.09 -0.06,0.22 -0.07,0.38 0.14,-0.34 0.39,-0.51 0.73,-0.51 0.25,0 0.48,0.09 0.66,0.28 0.19,0.19 0.28,0.43 0.28,0.72 0,0.3 -0.1,0.55 -0.3,0.76 -0.2,0.2 -0.45,0.3 -0.74,0.3 -0.24,0 -0.45,-0.07 -0.64,-0.22 -0.18,-0.15 -0.3,-0.32 -0.35,-0.52 -0.05,-0.2 -0.08,-0.42 -0.08,-0.65 0,-0.3 0.04,-0.54 0.11,-0.72 0.07,-0.18 0.17,-0.32 0.29,-0.42 0.12,-0.09 0.26,-0.15 0.42,-0.19 0.16,-0.03 0.39,-0.05 0.7,-0.07 0.21,-0.01 0.36,-0.02 0.46,-0.03zm-0.37 1.78c0,-0.16 -0.05,-0.3 -0.15,-0.41 -0.1,-0.11 -0.23,-0.16 -0.39,-0.16 -0.16,0 -0.28,0.05 -0.39,0.16 -0.1,0.11 -0.15,0.24 -0.15,0.41 0,0.17 0.05,0.31 0.15,0.41 0.1,0.11 0.23,0.16 0.38,0.16 0.15,0 0.28,-0.05 0.38,-0.16 0.1,-0.1 0.16,-0.24 0.16,-0.41z"/>
  <path id="_14" class="fil0" d="M34.85 0.8l0 0.22c0.09,-0.09 0.19,-0.15 0.29,-0.2 0.1,-0.04 0.21,-0.07 0.33,-0.07 0.26,0 0.47,0.1 0.65,0.29 0.18,0.19 0.27,0.44 0.27,0.74 0,0.29 -0.09,0.54 -0.28,0.73 -0.19,0.2 -0.4,0.29 -0.66,0.29 -0.11,0 -0.22,-0.02 -0.32,-0.06 -0.1,-0.04 -0.19,-0.11 -0.29,-0.2l0 0.93 -0.49 0 0 -2.68 0.49 0zm0.52 0.4c-0.15,0 -0.28,0.05 -0.39,0.16 -0.1,0.11 -0.15,0.24 -0.15,0.42 0,0.17 0.05,0.32 0.15,0.42 0.1,0.11 0.23,0.16 0.39,0.16 0.15,0 0.28,-0.05 0.38,-0.16 0.1,-0.11 0.15,-0.25 0.15,-0.42 0,-0.17 -0.05,-0.31 -0.15,-0.41 -0.1,-0.11 -0.23,-0.16 -0.38,-0.16z"/>
  <path id="_15" class="fil0" d="M37.29 1.51l0.15 0c0.21,0 0.37,0.02 0.48,0.05 0.11,0.03 0.2,0.1 0.28,0.2 0.08,0.1 0.11,0.23 0.11,0.38 0,0.15 -0.03,0.28 -0.1,0.38 -0.07,0.1 -0.16,0.17 -0.26,0.2 -0.11,0.03 -0.26,0.05 -0.45,0.05l-0.69 0 0 -1.97 0.49 0 0 0.71zm0 0.87l0.15 0c0.09,0 0.15,-0.01 0.19,-0.02 0.04,-0.01 0.07,-0.04 0.1,-0.07 0.03,-0.04 0.05,-0.08 0.05,-0.13 0,-0.17 -0.1,-0.25 -0.29,-0.25l-0.21 0 0 0.47z"/>
  <path id="_16" class="fil0" d="M14.79 0.11l1.24 0 0 0.47 -0.87 0 -0.11 0.49c0.03,-0.01 0.06,-0.01 0.09,-0.02 0.03,-0 0.06,-0.01 0.08,-0.01 0.24,0 0.44,0.08 0.6,0.25 0.16,0.16 0.24,0.37 0.24,0.63 0,0.26 -0.09,0.48 -0.26,0.65 -0.18,0.18 -0.39,0.27 -0.64,0.27 -0.23,0 -0.42,-0.06 -0.58,-0.19 -0.16,-0.13 -0.27,-0.31 -0.32,-0.53l0.53 0c0.04,0.08 0.09,0.15 0.16,0.19 0.07,0.04 0.14,0.06 0.22,0.06 0.11,0 0.21,-0.04 0.29,-0.12 0.08,-0.08 0.12,-0.18 0.12,-0.31 0,-0.12 -0.04,-0.22 -0.11,-0.3 -0.07,-0.08 -0.16,-0.12 -0.26,-0.12 -0.06,0 -0.11,0.01 -0.16,0.04 -0.05,0.03 -0.11,0.07 -0.16,0.12l-0.41 -0.09 0.32 -1.48z"/>
 </g>
</svg>
