<?xml version="1.0" encoding="UTF-8"?>
<!DOCTYPE svg PUBLIC "-//W3C//DTD SVG 1.1//EN" "http://www.w3.org/Graphics/SVG/1.1/DTD/svg11.dtd">
<!-- Creator: CorelDRAW -->
<svg xmlns="http://www.w3.org/2000/svg" xml:space="preserve" width="40.2393mm" height="4.6779mm" version="1.1" style="shape-rendering:geometricPrecision; text-rendering:geometricPrecision; image-rendering:optimizeQuality; fill-rule:evenodd; clip-rule:evenodd"
viewBox="0 0 20.67 2.4"
 xmlns:xlink="http://www.w3.org/1999/xlink"
 xmlns:xodm="http://www.corel.com/coreldraw/odm/2003">
 <defs>
  <style type="text/css">
   <![CDATA[
    .fil0 {fill:white;fill-rule:nonzero}
   ]]>
  </style>
 </defs>
 <g id="Слой_x0020_1">
  <metadata id="CorelCorpID_0Corel-Layer"/>
  <path class="fil0" d="M-0 0.13l0.35 0 0.85 1.28 0 -1.28 0.37 0 0 1.95 -0.35 0 -0.85 -1.28 0 1.28 -0.37 0 0 -1.95zm2.7 1.08c0,0.13 -0.05,0.24 -0.14,0.33 -0.09,0.09 -0.2,0.14 -0.33,0.14 -0.13,0 -0.24,-0.05 -0.33,-0.14 -0.09,-0.09 -0.14,-0.2 -0.14,-0.33 0,-0.13 0.05,-0.24 0.14,-0.33 0.09,-0.09 0.2,-0.14 0.33,-0.14 0.13,0 0.24,0.05 0.33,0.14 0.09,0.09 0.14,0.2 0.14,0.33zm-0.24 -0c0,-0.06 -0.02,-0.12 -0.07,-0.16 -0.04,-0.04 -0.1,-0.07 -0.16,-0.07 -0.06,0 -0.11,0.02 -0.16,0.07 -0.04,0.04 -0.07,0.1 -0.07,0.16 0,0.06 0.02,0.12 0.07,0.16 0.04,0.04 0.1,0.07 0.16,0.07 0.06,0 0.11,-0.02 0.16,-0.07 0.04,-0.04 0.07,-0.1 0.07,-0.16zm-0.69 0.64l0.93 0 0 0.23 -0.93 0 0 -0.23z"/>
  <polygon id="_1" class="fil0" points="4.68,1.71 4.94,1.84 4.61,2.4 4.43,2.32 "/>
  <path id="_2" class="fil0" d="M6.31 0.76l-0.36 0c0.01,-0.21 0.08,-0.38 0.2,-0.5 0.12,-0.12 0.28,-0.18 0.47,-0.18 0.12,0 0.22,0.02 0.31,0.08 0.09,0.05 0.16,0.12 0.22,0.22 0.05,0.09 0.08,0.19 0.08,0.29 0,0.12 -0.03,0.24 -0.1,0.37 -0.07,0.13 -0.19,0.29 -0.36,0.47l-0.22 0.23 0.7 0 0 0.34 -1.35 0 0 -0.18 0.6 -0.62c0.15,-0.15 0.24,-0.27 0.29,-0.36 0.05,-0.09 0.07,-0.17 0.07,-0.24 0,-0.08 -0.02,-0.14 -0.07,-0.19 -0.05,-0.05 -0.11,-0.07 -0.19,-0.07 -0.08,0 -0.15,0.03 -0.2,0.09 -0.05,0.06 -0.08,0.14 -0.08,0.24z"/>
  <path id="_3" class="fil0" d="M8.12 0.08c0.14,0 0.27,0.03 0.37,0.1 0.1,0.07 0.18,0.18 0.24,0.32 0.06,0.14 0.08,0.34 0.08,0.6 0,0.26 -0.03,0.46 -0.09,0.61 -0.06,0.14 -0.13,0.25 -0.23,0.32 -0.1,0.07 -0.22,0.1 -0.36,0.1 -0.15,0 -0.27,-0.03 -0.37,-0.1 -0.1,-0.07 -0.18,-0.17 -0.24,-0.31 -0.06,-0.14 -0.08,-0.34 -0.08,-0.59 0,-0.36 0.06,-0.62 0.17,-0.78 0.12,-0.18 0.29,-0.27 0.51,-0.27zm0.01 0.35c-0.06,0 -0.12,0.02 -0.17,0.06 -0.05,0.04 -0.09,0.11 -0.11,0.21 -0.03,0.1 -0.04,0.24 -0.04,0.43 0,0.25 0.03,0.42 0.09,0.51 0.06,0.09 0.13,0.14 0.23,0.14 0.09,0 0.16,-0.04 0.21,-0.13 0.06,-0.11 0.1,-0.29 0.1,-0.54 0,-0.26 -0.03,-0.43 -0.09,-0.53 -0.06,-0.1 -0.13,-0.15 -0.22,-0.15z"/>
  <path id="_4" class="fil0" d="M9.36 0.76l-0.36 0c0.01,-0.21 0.08,-0.38 0.2,-0.5 0.12,-0.12 0.28,-0.18 0.47,-0.18 0.12,0 0.22,0.02 0.31,0.08 0.09,0.05 0.16,0.12 0.22,0.22 0.05,0.09 0.08,0.19 0.08,0.29 0,0.12 -0.03,0.24 -0.1,0.37 -0.07,0.13 -0.19,0.29 -0.36,0.47l-0.22 0.23 0.7 0 0 0.34 -1.35 0 0 -0.18 0.6 -0.62c0.15,-0.15 0.24,-0.27 0.29,-0.36 0.05,-0.09 0.07,-0.17 0.07,-0.24 0,-0.08 -0.02,-0.14 -0.07,-0.19 -0.05,-0.05 -0.11,-0.07 -0.19,-0.07 -0.08,0 -0.15,0.03 -0.2,0.09 -0.05,0.06 -0.08,0.14 -0.08,0.24z"/>
  <polygon id="_5" class="fil0" points="12.87,0.64 13.72,0.64 13.72,0.98 13.24,0.98 13.24,2.08 12.87,2.08 "/>
  <path id="_6" class="fil0" d="M14.16 1.7c0.06,0 0.11,0.02 0.15,0.06 0.04,0.04 0.06,0.09 0.06,0.15 0,0.06 -0.02,0.11 -0.06,0.15 -0.04,0.04 -0.09,0.06 -0.15,0.06 -0.06,0 -0.11,-0.02 -0.15,-0.06 -0.04,-0.04 -0.06,-0.09 -0.06,-0.15 0,-0.06 0.02,-0.11 0.06,-0.15 0.04,-0.04 0.09,-0.06 0.15,-0.06z"/>
  <path id="_7" class="fil0" d="M3.31 0.61l-0.36 0c0.02,-0.14 0.07,-0.26 0.15,-0.35 0.12,-0.12 0.27,-0.18 0.45,-0.18 0.16,0 0.29,0.05 0.4,0.15 0.11,0.1 0.16,0.22 0.16,0.36 0,0.09 -0.02,0.17 -0.07,0.24 -0.05,0.07 -0.12,0.13 -0.21,0.17 0.12,0.04 0.21,0.1 0.28,0.18 0.07,0.09 0.1,0.19 0.1,0.31 0,0.17 -0.06,0.32 -0.19,0.44 -0.13,0.12 -0.29,0.18 -0.49,0.18 -0.19,0 -0.34,-0.06 -0.46,-0.17 -0.12,-0.11 -0.18,-0.27 -0.2,-0.47l0.37 0c0.02,0.1 0.05,0.18 0.11,0.23 0.05,0.05 0.12,0.07 0.21,0.07 0.09,0 0.16,-0.03 0.22,-0.08 0.06,-0.06 0.09,-0.12 0.09,-0.2 0,-0.09 -0.04,-0.16 -0.11,-0.22 -0.08,-0.06 -0.19,-0.09 -0.33,-0.09l0 -0.32c0.09,-0.01 0.16,-0.02 0.2,-0.04 0.04,-0.02 0.08,-0.05 0.1,-0.09 0.02,-0.04 0.04,-0.07 0.04,-0.12 0,-0.05 -0.02,-0.1 -0.06,-0.13 -0.04,-0.03 -0.09,-0.05 -0.15,-0.05 -0.05,0 -0.1,0.02 -0.14,0.05 -0.04,0.03 -0.07,0.07 -0.09,0.13z"/>
  <polygon id="_8" class="fil0" points="16.37,1.55 16.82,0.64 17.05,0.64 17.41,2.08 17.06,2.08 16.87,1.23 16.43,2.08 16.29,2.08 15.87,1.23 15.67,2.08 15.32,2.08 15.68,0.64 15.92,0.64 "/>
  <path id="_9" class="fil0" d="M18.68 0.64l0.36 0 0 1.44 -0.36 0 0 -0.15c-0.07,0.07 -0.14,0.12 -0.21,0.14 -0.07,0.03 -0.15,0.04 -0.23,0.04 -0.19,0 -0.35,-0.07 -0.48,-0.22 -0.14,-0.14 -0.2,-0.32 -0.2,-0.54 0,-0.22 0.07,-0.4 0.2,-0.55 0.13,-0.14 0.29,-0.21 0.48,-0.21 0.09,0 0.17,0.02 0.24,0.05 0.08,0.03 0.15,0.08 0.21,0.15l0 -0.16zm-0.38 0.3c-0.11,0 -0.21,0.04 -0.28,0.12 -0.07,0.08 -0.11,0.18 -0.11,0.3 0,0.12 0.04,0.23 0.11,0.31 0.08,0.08 0.17,0.12 0.28,0.12 0.11,0 0.21,-0.04 0.28,-0.12 0.08,-0.08 0.11,-0.18 0.11,-0.31 0,-0.13 -0.04,-0.23 -0.11,-0.3 -0.07,-0.08 -0.17,-0.12 -0.28,-0.12z"/>
  <path id="_10" class="fil0" d="M19.6 2.08l-0.19 0 0 -1.44 0.35 0 0 0.85 0.74 -0.85 0.17 0 0 1.44 -0.35 0 0 -0.83 -0.72 0.83zm-0.09 -2.08l0.29 0c0.02,0.04 0.05,0.06 0.1,0.08 0.04,0.02 0.09,0.03 0.15,0.03 0.06,0 0.11,-0.01 0.16,-0.03 0.03,-0.01 0.06,-0.04 0.08,-0.08l0.29 0c-0.02,0.11 -0.07,0.2 -0.16,0.27 -0.09,0.07 -0.22,0.1 -0.38,0.1 -0.11,0 -0.2,-0.02 -0.28,-0.05 -0.07,-0.03 -0.13,-0.07 -0.18,-0.13 -0.04,-0.06 -0.07,-0.12 -0.08,-0.2z"/>
  <path id="_11" class="fil0" d="M10.86 0.13l0.91 0 0 0.34 -0.64 0 -0.08 0.36c0.02,-0.01 0.04,-0.01 0.06,-0.01 0.02,-0 0.04,-0 0.06,-0 0.18,0 0.32,0.06 0.44,0.18 0.12,0.12 0.18,0.27 0.18,0.46 0,0.19 -0.06,0.35 -0.19,0.48 -0.13,0.13 -0.29,0.2 -0.47,0.2 -0.17,0 -0.31,-0.05 -0.43,-0.14 -0.12,-0.09 -0.2,-0.22 -0.24,-0.39l0.39 0c0.03,0.06 0.07,0.11 0.12,0.14 0.05,0.03 0.1,0.05 0.16,0.05 0.08,0 0.15,-0.03 0.21,-0.09 0.06,-0.06 0.09,-0.13 0.09,-0.23 0,-0.09 -0.03,-0.16 -0.08,-0.22 -0.05,-0.06 -0.12,-0.09 -0.19,-0.09 -0.04,0 -0.08,0.01 -0.12,0.03 -0.04,0.02 -0.08,0.05 -0.12,0.09l-0.3 -0.07 0.24 -1.08z"/>
 </g>
</svg>
