<?xml version="1.0" encoding="UTF-8" standalone="no"?>
<!-- Created with Inkscape (http://www.inkscape.org/) -->

<svg
   xmlns:dc="http://purl.org/dc/elements/1.1/"
   xmlns:cc="http://creativecommons.org/ns#"
   xmlns:rdf="http://www.w3.org/1999/02/22-rdf-syntax-ns#"
   xmlns:svg="http://www.w3.org/2000/svg"
   xmlns="http://www.w3.org/2000/svg"
   xmlns:sodipodi="http://sodipodi.sourceforge.net/DTD/sodipodi-0.dtd"
   xmlns:inkscape="http://www.inkscape.org/namespaces/inkscape"
   width="30pc"
   height="3pc"
   viewBox="0 0 127.00008 12.7"
   version="1.1"
   id="svg8"
   inkscape:version="0.92.2 (5c3e80d, 2017-08-06)"
   sodipodi:docname="nomertext.svg">
  <defs
     id="defs2" />
  <sodipodi:namedview
     id="base"
     pagecolor="#ffffff"
     bordercolor="#666666"
     borderopacity="1.0"
     inkscape:pageopacity="0.0"
     inkscape:pageshadow="2"
     inkscape:zoom="0.35"
     inkscape:cx="-287.83382"
     inkscape:cy="143.51454"
     inkscape:document-units="mm"
     inkscape:current-layer="layer1"
     showgrid="false"
     inkscape:lockguides="false"
     showguides="false"
     units="pc"
     inkscape:window-width="1280"
     inkscape:window-height="972"
     inkscape:window-x="-8"
     inkscape:window-y="-8"
     inkscape:window-maximized="1"
     showborder="true"
     inkscape:pagecheckerboard="true" />
  <metadata
     id="metadata5">
    <rdf:RDF>
      <cc:Work
         rdf:about="">
        <dc:format>image/svg+xml</dc:format>
        <dc:type
           rdf:resource="http://purl.org/dc/dcmitype/StillImage" />
        <dc:title />
      </cc:Work>
    </rdf:RDF>
  </metadata>
  <g
     inkscape:label="Layer 1"
     inkscape:groupmode="layer"
     id="layer1"
     transform="translate(0,-284.29994)">
    <g
       aria-label="№1(62), 2020г. февраль "
       style="font-style:normal;font-weight:normal;font-size:10.58333302px;line-height:1.25;font-family:sans-serif;letter-spacing:0px;word-spacing:0px;fill:#ffffff;fill-opacity:1;stroke:none;stroke-width:0.26458332"
       id="text7807">
      <path
         d="M 0.35949027,287.1393 H 1.7444186 l 3.2607828,5.00228 v -5.00228 h 1.4469401 v 7.60161 h -1.390096 l -3.2556152,-4.98678 v 4.98678 H 0.35949027 Z m 10.49031573,4.2013 q 0,0.74414 -0.537435,1.2764 -0.5322674,0.53227 -1.276408,0.53227 -0.7544759,0 -1.2867431,-0.5271 -0.5270996,-0.53227 -0.5270996,-1.28157 0,-0.74414 0.5322672,-1.27641 0.5322672,-0.53227 1.2815755,-0.53227 0.7441406,0 1.276408,0.53227 0.537435,0.53227 0.537435,1.27641 z m -0.9405113,0 q 0,-0.36174 -0.2583822,-0.61495 -0.2583821,-0.25839 -0.6201172,-0.25839 -0.361735,0 -0.6201171,0.25839 -0.2583822,0.25321 -0.2583822,0.61495 0,0.3669 0.2532145,0.62528 0.2583822,0.25322 0.6252848,0.25322 0.3617351,0 0.6201172,-0.25839 0.2583822,-0.25838 0.2583822,-0.62011 z m -2.6871744,2.49597 h 3.6276857 v 0.90434 H 7.2221203 Z"
         style="font-style:normal;font-variant:normal;font-weight:bold;font-stretch:normal;font-family:'Century Gothic';-inkscape-font-specification:'Century Gothic Bold';fill:#ffffff"
         id="path7834" />
      <path
         d="m 12.978874,287.1393 h 2.165243 v 7.60161 h -1.436605 v -6.24252 h -1.565796 z"
         style="font-style:normal;font-variant:normal;font-weight:bold;font-stretch:normal;font-family:'Century Gothic';-inkscape-font-specification:'Century Gothic Bold';fill:#ffffff"
         id="path7836" />
      <path
         d="m 19.133538,286.80341 h 1.788005 q -0.919841,1.03869 -1.374593,2.25309 -0.449585,1.21439 -0.449585,2.77502 0,1.68982 0.501261,2.9714 0.392741,0.98702 1.322917,2.1394 h -1.788005 q -0.826823,-1.31258 -1.157552,-2.45463 -0.325561,-1.14722 -0.325561,-2.69751 0,-1.51929 0.346232,-2.66133 0.346232,-1.14205 1.136881,-2.32544 z"
         style="font-style:normal;font-variant:normal;font-weight:bold;font-stretch:normal;font-family:'Century Gothic';-inkscape-font-specification:'Century Gothic Bold';fill:#ffffff"
         id="path7838" />
      <path
         d="m 24.270175,286.9481 1.229899,0.61495 -1.328084,2.58382 q 0.966349,0 1.643311,0.69247 0.676961,0.69246 0.676961,1.72082 0,0.99219 -0.697632,1.68465 -0.692464,0.6873 -1.674316,0.6873 -1.028361,0 -1.715658,-0.71314 -0.682129,-0.7183 -0.682129,-1.64331 0,-0.3514 0.103353,-0.70796 0.108521,-0.35657 0.490926,-1.09554 z m -0.180867,4.5682 q -0.403076,0 -0.676961,0.29455 -0.273885,0.28939 -0.273885,0.72864 0,0.43925 0.28422,0.73897 0.289388,0.29973 0.671794,0.29973 0.403076,0 0.692464,-0.29456 0.289388,-0.29456 0.289388,-0.74414 0,-0.43925 -0.284221,-0.72864 -0.279052,-0.29455 -0.702799,-0.29455 z"
         style="font-style:normal;font-variant:normal;font-weight:bold;font-stretch:normal;font-family:'Century Gothic';-inkscape-font-specification:'Century Gothic Bold';fill:#ffffff"
         id="path7840" />
      <path
         d="m 28.977897,289.58877 h -1.410766 q 0.05684,-1.2299 0.769978,-1.9327 0.718303,-0.70797 1.839681,-0.70797 0.692465,0 1.219564,0.29456 0.532267,0.28938 0.847494,0.84232 0.320393,0.54777 0.320393,1.11621 0,0.67696 -0.387573,1.45728 -0.382405,0.78031 -1.405599,1.84485 l -0.852661,0.89917 h 2.707845 v 1.33842 h -5.265828 v -0.69247 l 2.351277,-2.39778 q 0.852662,-0.863 1.131714,-1.38493 0.284221,-0.5271 0.284221,-0.95085 0,-0.43925 -0.294556,-0.72347 -0.289388,-0.28939 -0.749308,-0.28939 -0.465088,0 -0.775147,0.34623 -0.310058,0.34624 -0.330729,0.94052 z"
         style="font-style:normal;font-variant:normal;font-weight:bold;font-stretch:normal;font-family:'Century Gothic';-inkscape-font-specification:'Century Gothic Bold';fill:#ffffff"
         id="path7842" />
      <path
         d="m 35.127391,296.94232 h -1.788004 q 0.91984,-1.03869 1.369425,-2.24792 0.454753,-1.2144 0.454753,-2.78019 0,-1.68982 -0.501262,-2.96623 -0.39274,-0.98702 -1.322916,-2.14457 h 1.788004 q 0.826823,1.31258 1.152385,2.45979 0.330729,1.14205 0.330729,2.69235 0,1.51928 -0.346232,2.66133 -0.346232,1.14205 -1.136882,2.32544 z"
         style="font-style:normal;font-variant:normal;font-weight:bold;font-stretch:normal;font-family:'Century Gothic';-inkscape-font-specification:'Century Gothic Bold';fill:#ffffff"
         id="path7844" />
      <path
         d="m 38.486359,293.30947 1.007691,0.50643 -1.276408,2.18074 -0.702799,-0.33589 z"
         style="font-style:normal;font-variant:normal;font-weight:bold;font-stretch:normal;font-family:'Century Gothic';-inkscape-font-specification:'Century Gothic Bold';fill:#ffffff"
         id="path7846" />
      <path
         d="m 44.852897,289.58877 h -1.410766 q 0.05684,-1.2299 0.769978,-1.9327 0.718303,-0.70797 1.839681,-0.70797 0.692465,0 1.219564,0.29456 0.532267,0.28938 0.847494,0.84232 0.320393,0.54777 0.320393,1.11621 0,0.67696 -0.387573,1.45728 -0.382405,0.78031 -1.405599,1.84485 l -0.852661,0.89917 h 2.707845 v 1.33842 h -5.265828 v -0.69247 l 2.351277,-2.39778 q 0.852662,-0.863 1.131714,-1.38493 0.284221,-0.5271 0.284221,-0.95085 0,-0.43925 -0.294556,-0.72347 -0.289388,-0.28939 -0.749308,-0.28939 -0.465088,0 -0.775147,0.34623 -0.310058,0.34624 -0.330729,0.94052 z"
         style="font-style:normal;font-variant:normal;font-weight:bold;font-stretch:normal;font-family:'Century Gothic';-inkscape-font-specification:'Century Gothic Bold';fill:#ffffff"
         id="path7848" />
      <path
         d="m 51.880891,286.9481 q 0.83199,0 1.431437,0.40824 0.604614,0.40825 0.930176,1.25057 0.330729,0.83716 0.330729,2.33578 0,1.51412 -0.335897,2.35644 -0.330729,0.84233 -0.894002,1.24024 -0.563273,0.39274 -1.421102,0.39274 -0.857829,0 -1.441773,-0.39791 -0.583943,-0.39791 -0.914672,-1.20923 -0.33073,-0.81132 -0.33073,-2.30993 0,-2.0929 0.645956,-3.03341 0.718302,-1.03353 1.999878,-1.03353 z m 0.03617,1.37459 q -0.366902,0 -0.651123,0.23771 -0.28422,0.23255 -0.434082,0.80616 -0.149862,0.57361 -0.149862,1.67948 0,1.44177 0.341065,1.99471 0.346232,0.54777 0.894002,0.54777 0.5271,0 0.837158,-0.52193 0.377238,-0.63045 0.377238,-2.1084 0,-1.49862 -0.341064,-2.06706 -0.335897,-0.56844 -0.873332,-0.56844 z"
         style="font-style:normal;font-variant:normal;font-weight:bold;font-stretch:normal;font-family:'Century Gothic';-inkscape-font-specification:'Century Gothic Bold';fill:#ffffff"
         id="path7850" />
      <path
         d="m 56.717803,289.58877 h -1.410766 q 0.05684,-1.2299 0.769979,-1.9327 0.718302,-0.70797 1.839681,-0.70797 0.692464,0 1.219563,0.29456 0.532268,0.28938 0.847494,0.84232 0.320394,0.54777 0.320394,1.11621 0,0.67696 -0.387573,1.45728 -0.382406,0.78031 -1.405599,1.84485 l -0.852661,0.89917 h 2.707844 v 1.33842 h -5.265828 v -0.69247 l 2.351278,-2.39778 q 0.852661,-0.863 1.131714,-1.38493 0.28422,-0.5271 0.28422,-0.95085 0,-0.43925 -0.294556,-0.72347 -0.289388,-0.28939 -0.749308,-0.28939 -0.465088,0 -0.775146,0.34623 -0.310059,0.34624 -0.33073,0.94052 z"
         style="font-style:normal;font-variant:normal;font-weight:bold;font-stretch:normal;font-family:'Century Gothic';-inkscape-font-specification:'Century Gothic Bold';fill:#ffffff"
         id="path7852" />
      <path
         d="m 63.745801,286.9481 q 0.83199,0 1.431437,0.40824 0.604614,0.40825 0.930176,1.25057 0.330729,0.83716 0.330729,2.33578 0,1.51412 -0.335897,2.35644 -0.330729,0.84233 -0.894002,1.24024 -0.563273,0.39274 -1.421102,0.39274 -0.857829,0 -1.441772,-0.39791 -0.583944,-0.39791 -0.914673,-1.20923 -0.330729,-0.81132 -0.330729,-2.30993 0,-2.0929 0.645955,-3.03341 0.718302,-1.03353 1.999878,-1.03353 z m 0.03617,1.37459 q -0.366902,0 -0.651123,0.23771 -0.28422,0.23255 -0.434082,0.80616 -0.149861,0.57361 -0.149861,1.67948 0,1.44177 0.341064,1.99471 0.346232,0.54777 0.894002,0.54777 0.5271,0 0.837158,-0.52193 0.377238,-0.63045 0.377238,-2.1084 0,-1.49862 -0.341064,-2.06706 -0.335897,-0.56844 -0.873332,-0.56844 z"
         style="font-style:normal;font-variant:normal;font-weight:bold;font-stretch:normal;font-family:'Century Gothic';-inkscape-font-specification:'Century Gothic Bold';fill:#ffffff"
         id="path7854" />
      <path
         d="m 67.445832,289.11851 h 3.281453 v 1.34359 h -1.865519 v 4.27881 h -1.415934 z"
         style="font-style:normal;font-variant:normal;font-weight:bold;font-stretch:normal;font-family:'Century Gothic';-inkscape-font-specification:'Century Gothic Bold';fill:#ffffff"
         id="path7856" />
      <path
         d="m 72.458443,293.26813 q 0.335897,0 0.573609,0.23771 0.237711,0.23254 0.237711,0.56844 0,0.3359 -0.237711,0.57361 -0.237712,0.23771 -0.573609,0.23771 -0.335896,0 -0.573608,-0.23771 -0.237711,-0.23771 -0.237711,-0.57361 0,-0.3359 0.237711,-0.56844 0.237712,-0.23771 0.573608,-0.23771 z"
         style="font-style:normal;font-variant:normal;font-weight:bold;font-stretch:normal;font-family:'Century Gothic';-inkscape-font-specification:'Century Gothic Bold';fill:#ffffff"
         id="path7858" />
      <path
         d="m 81.522495,294.26031 q -0.738973,0.64079 -1.612305,0.64079 -1.059367,0 -1.839681,-0.83716 -0.780314,-0.84232 -0.780314,-2.10323 0,-1.31775 0.759644,-2.1394 0.759643,-0.82682 1.824178,-0.82682 0.950846,0 1.648478,0.64595 v -2.69234 h 1.400431 v 2.69234 q 0.697632,-0.66662 1.648478,-0.66662 0.676961,0 1.260905,0.35656 0.583944,0.35657 0.950846,1.0232 0.366903,0.66662 0.366903,1.58646 0,1.28675 -0.790649,2.11874 -0.785482,0.82682 -1.824178,0.82682 -0.873332,0 -1.612305,-0.62529 v 2.53732 h -1.400431 z m 4.216796,-2.3306 q 0,-0.7183 -0.408243,-1.17822 -0.408244,-0.46509 -1.0542,-0.46509 -0.558105,0 -0.976684,0.44441 -0.413412,0.43925 -0.413412,1.25574 0,0.75965 0.397909,1.18856 0.403076,0.42891 0.997355,0.42891 0.61495,0 1.033529,-0.47025 0.423746,-0.47542 0.423746,-1.20406 z m -4.175455,0.0517 q 0,-0.55293 -0.186035,-0.90433 -0.186035,-0.35657 -0.501262,-0.56844 -0.310058,-0.21188 -0.707967,-0.21188 -0.682129,0 -1.069702,0.48576 -0.387573,0.48059 -0.387573,1.15755 0,0.72347 0.418579,1.1989 0.418579,0.47542 1.033529,0.47542 0.594279,0 0.997355,-0.42375 0.403076,-0.42891 0.403076,-1.20923 z"
         style="font-style:normal;font-variant:normal;font-weight:bold;font-stretch:normal;font-family:'Century Gothic';-inkscape-font-specification:'Century Gothic Bold';fill:#ffffff"
         id="path7860" />
      <path
         d="m 93.899,292.33795 h -4.532023 q 0.09819,0.59945 0.521932,0.95602 0.428915,0.3514 1.090373,0.3514 0.790649,0 1.35909,-0.55294 l 1.188558,0.5581 q -0.444417,0.63046 -1.064535,0.93535 -0.620117,0.29972 -1.472778,0.29972 -1.322916,0 -2.154907,-0.83199 -0.831991,-0.83716 -0.831991,-2.0929 0,-1.28674 0.826823,-2.13423 0.831991,-0.85266 2.08256,-0.85266 1.328085,0 2.160075,0.85266 0.831991,0.84749 0.831991,2.24275 z m -1.415934,-1.11104 q -0.139526,-0.47026 -0.552938,-0.76481 -0.408244,-0.29456 -0.950846,-0.29456 -0.589111,0 -1.033529,0.33073 -0.279052,0.20671 -0.516764,0.72864 z"
         style="font-style:normal;font-variant:normal;font-weight:bold;font-stretch:normal;font-family:'Century Gothic';-inkscape-font-specification:'Century Gothic Bold';fill:#ffffff"
         id="path7862" />
      <path
         d="m 95.046215,294.74091 v -5.6224 h 2.25826 q 1.111043,0 1.508951,0.43925 0.397909,0.43408 0.397909,0.98702 0,0.82165 -0.816488,1.18339 1.116211,0.38241 1.116211,1.44177 0,0.57361 -0.294555,0.95085 -0.294556,0.37207 -0.749309,0.49609 -0.449585,0.12403 -1.260905,0.12403 z m 1.415934,-3.41065 h 0.542602 q 0.346232,0 0.532268,-0.17053 0.191202,-0.1757 0.191202,-0.38757 0,-0.31523 -0.180867,-0.49093 -0.180868,-0.1757 -0.428915,-0.1757 l -0.180867,0.005 h -0.475423 z m 0,2.32544 h 0.707967 q 0.413411,0 0.578776,-0.1912 0.170532,-0.19637 0.170532,-0.38241 0,-0.27388 -0.191203,-0.50126 -0.186035,-0.22738 -0.676961,-0.22738 h -0.589111 z"
         style="font-style:normal;font-variant:normal;font-weight:bold;font-stretch:normal;font-family:'Century Gothic';-inkscape-font-specification:'Century Gothic Bold';fill:#ffffff"
         id="path7864" />
      <path
         d="m 102.11038,289.11851 v 0.62012 q 0.38241,-0.38241 0.82682,-0.57361 0.44442,-0.1912 0.95085,-0.1912 1.10071,0 1.87069,0.83199 0.76998,0.83199 0.76998,2.13423 0,1.25574 -0.79582,2.10323 -0.79582,0.84233 -1.88619,0.84233 -0.48576,0 -0.90434,-0.17053 -0.41858,-0.1757 -0.83199,-0.56844 v 2.651 h -1.40043 v -7.67912 z m 1.48311,1.15755 q -0.66662,0 -1.10587,0.45475 -0.43925,0.45476 -0.43925,1.18856 0,0.74931 0.43925,1.2144 0.43925,0.45992 1.10587,0.45992 0.64596,0 1.08521,-0.47026 0.44442,-0.47025 0.44442,-1.19889 0,-0.72347 -0.43409,-1.18339 -0.43408,-0.46509 -1.09554,-0.46509 z"
         style="font-style:normal;font-variant:normal;font-weight:bold;font-stretch:normal;font-family:'Century Gothic';-inkscape-font-specification:'Century Gothic Bold';fill:#ffffff"
         id="path7866" />
      <path
         d="m 111.85139,289.11851 h 1.4056 v 5.6224 h -1.4056 v -0.59428 q -0.41341,0.39274 -0.83199,0.56844 -0.41341,0.17053 -0.89917,0.17053 -1.09037,0 -1.88619,-0.84233 -0.79582,-0.84749 -0.79582,-2.10323 0,-1.30224 0.76998,-2.13423 0.76998,-0.83199 1.87069,-0.83199 0.50643,0 0.95085,0.1912 0.44441,0.1912 0.82165,0.57361 z m -1.48311,1.15755 q -0.65629,0 -1.09038,0.46509 -0.43408,0.45992 -0.43408,1.18339 0,0.72864 0.43925,1.19889 0.44442,0.47026 1.09037,0.47026 0.66663,0 1.10588,-0.45992 0.43925,-0.46509 0.43925,-1.2144 0,-0.7338 -0.43925,-1.18856 -0.43925,-0.45475 -1.11104,-0.45475 z"
         style="font-style:normal;font-variant:normal;font-weight:bold;font-stretch:normal;font-family:'Century Gothic';-inkscape-font-specification:'Century Gothic Bold';fill:#ffffff"
         id="path7868" />
      <path
         d="m 119.7062,294.74091 h -1.4366 l -1.4056,-3.55018 -1.43144,3.55018 h -1.43144 l 2.39779,-5.6224 h 0.90951 z"
         style="font-style:normal;font-variant:normal;font-weight:bold;font-stretch:normal;font-family:'Century Gothic';-inkscape-font-specification:'Century Gothic Bold';fill:#ffffff"
         id="path7870" />
      <path
         d="m 121.86111,291.14423 h 0.41858 q 0.88367,0 1.35392,0.13952 0.47542,0.13436 0.80099,0.56844 0.32556,0.43409 0.32556,1.09038 0,0.65112 -0.29456,1.0852 -0.29455,0.42892 -0.75447,0.57361 -0.45476,0.13953 -1.28158,0.13953 h -1.98437 v -5.6224 h 1.41593 z m 0,2.51147 h 0.42891 q 0.38241,0 0.55294,-0.0517 0.17053,-0.0568 0.29973,-0.21187 0.12919,-0.15503 0.12919,-0.37724 0,-0.72347 -0.82683,-0.72347 h -0.58394 z"
         style="font-style:normal;font-variant:normal;font-weight:bold;font-stretch:normal;font-family:'Century Gothic';-inkscape-font-specification:'Century Gothic Bold';fill:#ffffff"
         id="path7872" />
    </g>
  </g>
</svg>
