<?xml version="1.0" encoding="UTF-8"?>
<!DOCTYPE svg PUBLIC "-//W3C//DTD SVG 1.1//EN" "http://www.w3.org/Graphics/SVG/1.1/DTD/svg11.dtd">
<!-- Creator: CorelDRAW 2019 (64-Bit) -->
<svg xmlns="http://www.w3.org/2000/svg" xml:space="preserve" width="4.80463cm" height="0.49213cm" version="1.1" style="shape-rendering:geometricPrecision; text-rendering:geometricPrecision; image-rendering:optimizeQuality; fill-rule:evenodd; clip-rule:evenodd"
viewBox="0 0 3.215 0.329"
 xmlns:xlink="http://www.w3.org/1999/xlink"
 xmlns:xodm="http://www.corel.com/coreldraw/odm/2003">
 <defs>
  <style type="text/css">
   <![CDATA[
    .fil0 {fill:white;fill-rule:nonzero}
   ]]>
  </style>
 </defs>
 <g id="Слой_x0020_1">
  <metadata id="CorelCorpID_0Corel-Layer"/>
  <path class="fil0" d="M-0 0.006l0.045 0 0.11 0.167 0 -0.167 0.048 0 0 0.254 -0.046 0 -0.11 -0.167 0 0.167 -0.048 0 0 -0.254zm0.351 0.141c0,0.017 -0.006,0.031 -0.018,0.043 -0.012,0.012 -0.026,0.018 -0.043,0.018 -0.017,0 -0.031,-0.006 -0.043,-0.018 -0.012,-0.012 -0.018,-0.026 -0.018,-0.043 0,-0.017 0.006,-0.031 0.018,-0.043 0.012,-0.012 0.026,-0.018 0.043,-0.018 0.017,0 0.031,0.006 0.043,0.018 0.012,0.012 0.018,0.026 0.018,0.043zm-0.032 -0c0,-0.008 -0.003,-0.015 -0.009,-0.021 -0.006,-0.006 -0.013,-0.009 -0.021,-0.009 -0.008,0 -0.015,0.003 -0.021,0.009 -0.006,0.006 -0.009,0.013 -0.009,0.021 0,0.008 0.003,0.015 0.008,0.021 0.006,0.006 0.013,0.009 0.021,0.009 0.008,0 0.015,-0.003 0.021,-0.009 0.006,-0.006 0.009,-0.013 0.009,-0.021zm-0.09 0.084l0.121 0 0 0.03 -0.121 0 0 -0.03z"/>
  <polygon id="1" class="fil0" points="0.422,0.006 0.495,0.006 0.495,0.261 0.447,0.261 0.447,0.052 0.394,0.052 "/>
  <polygon id="2" class="fil0" points="0.609,0.213 0.643,0.23 0.6,0.303 0.577,0.292 "/>
  <path id="3" class="fil0" d="M0.822 0.089l-0.047 0c0.001,-0.028 0.01,-0.049 0.026,-0.065 0.016,-0.016 0.036,-0.024 0.061,-0.024 0.015,0 0.029,0.003 0.041,0.01 0.012,0.006 0.021,0.016 0.028,0.028 0.007,0.012 0.011,0.025 0.011,0.037 0,0.015 -0.004,0.031 -0.013,0.049 -0.009,0.017 -0.024,0.038 -0.047,0.062l-0.029 0.03 0.091 0 0 0.045 -0.176 0 0 -0.023 0.079 -0.08c0.019,-0.019 0.032,-0.035 0.038,-0.046 0.006,-0.012 0.009,-0.022 0.009,-0.032 0,-0.01 -0.003,-0.018 -0.01,-0.024 -0.007,-0.006 -0.015,-0.01 -0.025,-0.01 -0.01,0 -0.019,0.004 -0.026,0.012 -0.007,0.008 -0.011,0.018 -0.011,0.032z"/>
  <path id="4" class="fil0" d="M1.057 0c0.019,0 0.035,0.005 0.048,0.014 0.013,0.009 0.024,0.023 0.031,0.042 0.007,0.019 0.011,0.045 0.011,0.078 0,0.034 -0.004,0.06 -0.011,0.079 -0.007,0.019 -0.017,0.033 -0.03,0.041 -0.013,0.009 -0.028,0.013 -0.048,0.013 -0.019,0 -0.035,-0.004 -0.048,-0.013 -0.013,-0.009 -0.023,-0.022 -0.031,-0.04 -0.007,-0.018 -0.011,-0.044 -0.011,-0.077 0,-0.047 0.007,-0.08 0.022,-0.101 0.016,-0.023 0.038,-0.035 0.067,-0.035zm0.001 0.046c-0.008,0 -0.015,0.003 -0.022,0.008 -0.006,0.005 -0.011,0.014 -0.014,0.027 -0.003,0.013 -0.005,0.031 -0.005,0.056 0,0.032 0.004,0.054 0.011,0.066 0.008,0.012 0.017,0.018 0.03,0.018 0.012,0 0.021,-0.006 0.028,-0.017 0.008,-0.014 0.013,-0.037 0.013,-0.07 0,-0.033 -0.004,-0.056 -0.011,-0.069 -0.007,-0.013 -0.017,-0.019 -0.029,-0.019z"/>
  <path id="5" class="fil0" d="M1.219 0.089l-0.047 0c0.001,-0.028 0.01,-0.049 0.026,-0.065 0.016,-0.016 0.036,-0.024 0.061,-0.024 0.015,0 0.029,0.003 0.041,0.01 0.012,0.006 0.021,0.016 0.028,0.028 0.007,0.012 0.011,0.025 0.011,0.037 0,0.015 -0.004,0.031 -0.013,0.049 -0.009,0.017 -0.024,0.038 -0.047,0.062l-0.029 0.03 0.091 0 0 0.045 -0.176 0 0 -0.023 0.079 -0.08c0.019,-0.019 0.032,-0.035 0.038,-0.046 0.006,-0.012 0.009,-0.022 0.009,-0.032 0,-0.01 -0.003,-0.018 -0.01,-0.024 -0.007,-0.006 -0.015,-0.01 -0.025,-0.01 -0.01,0 -0.019,0.004 -0.026,0.012 -0.007,0.008 -0.011,0.018 -0.011,0.032z"/>
  <polygon id="6" class="fil0" points="1.414,0.006 1.486,0.006 1.486,0.261 1.438,0.261 1.438,0.052 1.386,0.052 "/>
  <polygon id="7" class="fil0" points="1.677,0.073 1.787,0.073 1.787,0.118 1.724,0.118 1.724,0.261 1.677,0.261 "/>
  <path id="8" class="fil0" d="M1.844 0.211c0.007,0 0.014,0.003 0.019,0.008 0.005,0.005 0.008,0.012 0.008,0.019 0,0.008 -0.003,0.014 -0.008,0.019 -0.005,0.005 -0.012,0.008 -0.019,0.008 -0.007,0 -0.014,-0.003 -0.019,-0.008 -0.005,-0.005 -0.008,-0.012 -0.008,-0.019 0,-0.007 0.003,-0.014 0.008,-0.019 0.005,-0.005 0.012,-0.008 0.019,-0.008z"/>
  <path id="9" class="fil0" d="M2.049 0.183c-0.01,-0.003 -0.019,-0.01 -0.025,-0.019 -0.007,-0.009 -0.01,-0.02 -0.01,-0.031 0,-0.014 0.004,-0.026 0.012,-0.037 0.008,-0.011 0.017,-0.017 0.029,-0.02 0.011,-0.003 0.028,-0.004 0.052,-0.004l0.048 0 0 0.188 -0.047 0 0 -0.068 -0.009 0 -0.045 0.068 -0.056 0 0.052 -0.077zm0.058 -0.026l0 -0.045 -0.017 0c-0.018,0 -0.027,0.007 -0.027,0.023 0,0.015 0.01,0.023 0.03,0.023l0.013 0z"/>
  <polygon id="10" class="fil0" points="2.248,0.14 2.319,0.14 2.319,0.073 2.366,0.073 2.366,0.261 2.319,0.261 2.319,0.183 2.248,0.183 2.248,0.261 2.201,0.261 2.201,0.073 2.248,0.073 "/>
  <path id="11" class="fil0" d="M2.414 0.261l0 -0.188 0.076 0c0.025,0 0.042,0.005 0.051,0.015 0.009,0.01 0.013,0.021 0.013,0.033 0,0.018 -0.009,0.032 -0.027,0.04 0.025,0.009 0.037,0.025 0.037,0.048 0,0.013 -0.003,0.023 -0.01,0.032 -0.007,0.008 -0.015,0.014 -0.025,0.017 -0.01,0.003 -0.024,0.004 -0.042,0.004l-0.072 0zm0.047 -0.114l0.018 0c0.008,0 0.014,-0.002 0.018,-0.006 0.004,-0.004 0.006,-0.008 0.006,-0.013 0,-0.007 -0.002,-0.012 -0.006,-0.016 -0.004,-0.004 -0.009,-0.006 -0.015,-0.006l-0.006 0 -0.016 0 0 0.041zm0 0.078l0.024 0c0.009,0 0.016,-0.002 0.02,-0.006 0.004,-0.004 0.006,-0.008 0.006,-0.013 0,-0.006 -0.002,-0.012 -0.006,-0.017 -0.004,-0.005 -0.012,-0.008 -0.023,-0.008l-0.02 0 0 0.043z"/>
  <path id="12" class="fil0" d="M2.742 0.073l0.047 0 0 0.188 -0.047 0 0 -0.02c-0.009,0.009 -0.018,0.015 -0.028,0.019 -0.009,0.004 -0.019,0.006 -0.03,0.006 -0.024,0 -0.045,-0.009 -0.063,-0.028 -0.018,-0.019 -0.027,-0.042 -0.027,-0.07 0,-0.029 0.009,-0.053 0.026,-0.071 0.017,-0.018 0.038,-0.028 0.063,-0.028 0.011,0 0.022,0.002 0.032,0.006 0.01,0.004 0.019,0.011 0.028,0.019l0 -0.021zm-0.05 0.039c-0.015,0 -0.027,0.005 -0.036,0.015 -0.01,0.01 -0.015,0.023 -0.015,0.04 0,0.016 0.005,0.03 0.015,0.04 0.01,0.01 0.022,0.016 0.036,0.016 0.015,0 0.027,-0.005 0.037,-0.015 0.01,-0.01 0.015,-0.024 0.015,-0.04 0,-0.016 -0.005,-0.03 -0.015,-0.04 -0.01,-0.01 -0.022,-0.015 -0.037,-0.015z"/>
  <path id="13" class="fil0" d="M2.884 0.073l0 0.021c0.008,-0.008 0.018,-0.015 0.028,-0.019 0.01,-0.004 0.021,-0.006 0.032,-0.006 0.024,0 0.045,0.009 0.062,0.028 0.017,0.019 0.026,0.042 0.026,0.071 0,0.028 -0.009,0.051 -0.027,0.07 -0.018,0.019 -0.039,0.028 -0.063,0.028 -0.011,0 -0.021,-0.002 -0.03,-0.006 -0.009,-0.004 -0.019,-0.01 -0.028,-0.019l0 0.089 -0.047 0 0 -0.257 0.047 0zm0.049 0.039c-0.015,0 -0.027,0.005 -0.037,0.015 -0.01,0.01 -0.015,0.023 -0.015,0.04 0,0.017 0.005,0.03 0.015,0.04 0.01,0.01 0.022,0.015 0.037,0.015 0.014,0 0.026,-0.005 0.036,-0.016 0.01,-0.011 0.015,-0.024 0.015,-0.04 0,-0.016 -0.005,-0.029 -0.015,-0.04 -0.01,-0.01 -0.022,-0.015 -0.037,-0.015z"/>
  <path id="14" class="fil0" d="M3.118 0.141l0.014 0c0.02,0 0.035,0.002 0.046,0.005 0.011,0.003 0.02,0.009 0.027,0.019 0.007,0.01 0.011,0.022 0.011,0.036 0,0.014 -0.003,0.027 -0.01,0.036 -0.007,0.01 -0.015,0.016 -0.025,0.019 -0.01,0.003 -0.024,0.005 -0.043,0.005l-0.066 0 0 -0.188 0.047 0 0 0.068zm0 0.084l0.014 0c0.009,0 0.015,-0.001 0.019,-0.002 0.004,-0.001 0.007,-0.003 0.01,-0.007 0.003,-0.003 0.004,-0.008 0.004,-0.013 0,-0.016 -0.009,-0.024 -0.028,-0.024l-0.02 0 0 0.045z"/>
 </g>
</svg>
