<?xml version="1.0" encoding="UTF-8" standalone="no"?>
<!-- Created with Inkscape (http://www.inkscape.org/) -->

<svg
   xmlns:dc="http://purl.org/dc/elements/1.1/"
   xmlns:cc="http://creativecommons.org/ns#"
   xmlns:rdf="http://www.w3.org/1999/02/22-rdf-syntax-ns#"
   xmlns:svg="http://www.w3.org/2000/svg"
   xmlns="http://www.w3.org/2000/svg"
   xmlns:sodipodi="http://sodipodi.sourceforge.net/DTD/sodipodi-0.dtd"
   xmlns:inkscape="http://www.inkscape.org/namespaces/inkscape"
   width="30pc"
   height="3pc"
   viewBox="0 0 127.00008 12.7"
   version="1.1"
   id="svg8"
   inkscape:version="0.92.2 (5c3e80d, 2017-08-06)"
   sodipodi:docname="nomertext.svg">
  <defs
     id="defs2" />
  <sodipodi:namedview
     id="base"
     pagecolor="#ffffff"
     bordercolor="#666666"
     borderopacity="1.0"
     inkscape:pageopacity="0.0"
     inkscape:pageshadow="2"
     inkscape:zoom="1.28"
     inkscape:cx="87.347701"
     inkscape:cy="-64.096461"
     inkscape:document-units="mm"
     inkscape:current-layer="layer1"
     showgrid="false"
     inkscape:lockguides="false"
     showguides="false"
     units="pc"
     inkscape:window-width="1280"
     inkscape:window-height="972"
     inkscape:window-x="-8"
     inkscape:window-y="-8"
     inkscape:window-maximized="1"
     showborder="true"
     inkscape:pagecheckerboard="true" />
  <metadata
     id="metadata5">
    <rdf:RDF>
      <cc:Work
         rdf:about="">
        <dc:format>image/svg+xml</dc:format>
        <dc:type
           rdf:resource="http://purl.org/dc/dcmitype/StillImage" />
        <dc:title></dc:title>
      </cc:Work>
    </rdf:RDF>
  </metadata>
  <g
     inkscape:label="Layer 1"
     inkscape:groupmode="layer"
     id="layer1"
     transform="translate(0,-284.29994)">
    <g
       aria-label="№2, 2020г. май"
       style="font-style:normal;font-weight:normal;font-size:10.58333302px;line-height:1.25;font-family:sans-serif;letter-spacing:0px;word-spacing:0px;fill:#ffffff;fill-opacity:1;stroke:none;stroke-width:0.26458332"
       id="text7807-7">
      <path
         d="m 1.4093621,286.86974 h 1.3849284 l 3.2607828,5.00228 v -5.00228 h 1.44694 v 7.6016 h -1.390096 l -3.2556151,-4.98677 v 4.98677 H 1.4093621 Z m 10.4903159,4.20129 q 0,0.74415 -0.537435,1.27641 -0.532268,0.53227 -1.276408,0.53227 -0.754476,0 -1.2867433,-0.5271 -0.5270996,-0.53227 -0.5270996,-1.28158 0,-0.74414 0.5322673,-1.2764 0.5322672,-0.53227 1.2815756,-0.53227 0.74414,0 1.276408,0.53227 0.537435,0.53226 0.537435,1.2764 z m -0.940511,0 q 0,-0.36173 -0.258383,-0.61494 -0.258382,-0.25839 -0.620117,-0.25839 -0.3617348,0 -0.620117,0.25839 -0.2583821,0.25321 -0.2583821,0.61494 0,0.36691 0.2532145,0.62529 0.2583822,0.25321 0.6252846,0.25321 0.361735,0 0.620117,-0.25838 0.258383,-0.25838 0.258383,-0.62012 z m -2.6871749,2.49598 h 3.6276859 v 0.90433 H 8.2719921 Z"
         style="font-style:normal;font-variant:normal;font-weight:bold;font-stretch:normal;font-family:'Century Gothic';-inkscape-font-specification:'Century Gothic Bold';fill:#ffffff;stroke-width:0.26458332"
         id="path2880" />
      <path
         d="m 14.132099,289.3192 h -1.410766 q 0.05684,-1.2299 0.769978,-1.93269 0.718303,-0.70797 1.839681,-0.70797 0.692464,0 1.219564,0.29455 0.532267,0.28939 0.847494,0.84233 0.320393,0.54777 0.320393,1.11621 0,0.67696 -0.387573,1.45728 -0.382405,0.78031 -1.405599,1.84484 l -0.852661,0.89917 h 2.707845 v 1.33842 h -5.265828 v -0.69246 l 2.351277,-2.39779 q 0.852662,-0.86299 1.131714,-1.38492 0.284221,-0.5271 0.284221,-0.95085 0,-0.43925 -0.294556,-0.72347 -0.289388,-0.28939 -0.749308,-0.28939 -0.465088,0 -0.775147,0.34623 -0.310058,0.34623 -0.330729,0.94051 z"
         style="font-style:normal;font-variant:normal;font-weight:bold;font-stretch:normal;font-family:'Century Gothic';-inkscape-font-specification:'Century Gothic Bold';fill:#ffffff;stroke-width:0.26458332"
         id="path2882" />
      <path
         d="m 19.609802,293.03991 1.00769,0.50643 -1.276408,2.18074 -0.702799,-0.3359 z"
         style="font-style:normal;font-variant:normal;font-weight:bold;font-stretch:normal;font-family:'Century Gothic';-inkscape-font-specification:'Century Gothic Bold';fill:#ffffff;stroke-width:0.26458332"
         id="path2884" />
      <path
         d="m 25.976337,289.3192 h -1.410766 q 0.05684,-1.2299 0.769979,-1.93269 0.718302,-0.70797 1.839681,-0.70797 0.692464,0 1.219563,0.29455 0.532268,0.28939 0.847494,0.84233 0.320394,0.54777 0.320394,1.11621 0,0.67696 -0.387574,1.45728 -0.382405,0.78031 -1.405598,1.84484 l -0.852662,0.89917 h 2.707845 v 1.33842 h -5.265828 v -0.69246 l 2.351278,-2.39779 q 0.852661,-0.86299 1.131714,-1.38492 0.28422,-0.5271 0.28422,-0.95085 0,-0.43925 -0.294556,-0.72347 -0.289388,-0.28939 -0.749308,-0.28939 -0.465088,0 -0.775146,0.34623 -0.310059,0.34623 -0.33073,0.94051 z"
         style="font-style:normal;font-variant:normal;font-weight:bold;font-stretch:normal;font-family:'Century Gothic';-inkscape-font-specification:'Century Gothic Bold';fill:#ffffff;stroke-width:0.26458332"
         id="path2886" />
      <path
         d="m 33.004331,286.67854 q 0.83199,0 1.431437,0.40824 0.604614,0.40825 0.930176,1.25057 0.330729,0.83716 0.330729,2.33578 0,1.51412 -0.335897,2.35644 -0.330729,0.84233 -0.894002,1.24024 -0.563273,0.39274 -1.421102,0.39274 -0.857829,0 -1.441772,-0.39791 -0.583944,-0.39791 -0.914673,-1.20923 -0.330729,-0.81132 -0.330729,-2.30994 0,-2.09289 0.645955,-3.0334 0.718302,-1.03353 1.999878,-1.03353 z m 0.03617,1.37459 q -0.366902,0 -0.651123,0.23771 -0.28422,0.23255 -0.434082,0.80616 -0.149861,0.5736 -0.149861,1.67948 0,1.44177 0.341064,1.99471 0.346232,0.54777 0.894002,0.54777 0.5271,0 0.837159,-0.52193 0.377237,-0.63045 0.377237,-2.1084 0,-1.49862 -0.341064,-2.06706 -0.335897,-0.56844 -0.873332,-0.56844 z"
         style="font-style:normal;font-variant:normal;font-weight:bold;font-stretch:normal;font-family:'Century Gothic';-inkscape-font-specification:'Century Gothic Bold';fill:#ffffff;stroke-width:0.26458332"
         id="path2888" />
      <path
         d="m 37.841246,289.3192 h -1.410767 q 0.05684,-1.2299 0.769979,-1.93269 0.718302,-0.70797 1.839681,-0.70797 0.692464,0 1.219564,0.29455 0.532267,0.28939 0.847493,0.84233 0.320394,0.54777 0.320394,1.11621 0,0.67696 -0.387573,1.45728 -0.382406,0.78031 -1.405599,1.84484 l -0.852661,0.89917 h 2.707845 v 1.33842 h -5.265829 v -0.69246 l 2.351278,-2.39779 q 0.852661,-0.86299 1.131714,-1.38492 0.28422,-0.5271 0.28422,-0.95085 0,-0.43925 -0.294556,-0.72347 -0.289388,-0.28939 -0.749308,-0.28939 -0.465088,0 -0.775146,0.34623 -0.310059,0.34623 -0.330729,0.94051 z"
         style="font-style:normal;font-variant:normal;font-weight:bold;font-stretch:normal;font-family:'Century Gothic';-inkscape-font-specification:'Century Gothic Bold';fill:#ffffff;stroke-width:0.26458332"
         id="path2890" />
      <path
         d="m 44.869239,286.67854 q 0.831991,0 1.431437,0.40824 0.604614,0.40825 0.930176,1.25057 0.330729,0.83716 0.330729,2.33578 0,1.51412 -0.335897,2.35644 -0.330729,0.84233 -0.894002,1.24024 -0.563273,0.39274 -1.421102,0.39274 -0.857829,0 -1.441772,-0.39791 -0.583944,-0.39791 -0.914673,-1.20923 -0.330729,-0.81132 -0.330729,-2.30994 0,-2.09289 0.645955,-3.0334 0.718303,-1.03353 1.999878,-1.03353 z m 0.03617,1.37459 q -0.366903,0 -0.651123,0.23771 -0.284221,0.23255 -0.434082,0.80616 -0.149862,0.5736 -0.149862,1.67948 0,1.44177 0.341064,1.99471 0.346232,0.54777 0.894003,0.54777 0.527099,0 0.837158,-0.52193 0.377238,-0.63045 0.377238,-2.1084 0,-1.49862 -0.341065,-2.06706 -0.335897,-0.56844 -0.873331,-0.56844 z"
         style="font-style:normal;font-variant:normal;font-weight:bold;font-stretch:normal;font-family:'Century Gothic';-inkscape-font-specification:'Century Gothic Bold';fill:#ffffff;stroke-width:0.26458332"
         id="path2892" />
      <path
         d="m 48.56927,288.84895 h 3.281454 v 1.34359 h -1.865519 v 4.2788 H 48.56927 Z"
         style="font-style:normal;font-variant:normal;font-weight:bold;font-stretch:normal;font-family:'Century Gothic';-inkscape-font-specification:'Century Gothic Bold';fill:#ffffff;stroke-width:0.26458332"
         id="path2894" />
      <path
         d="m 53.581886,292.99857 q 0.335896,0 0.573608,0.23771 0.237712,0.23254 0.237712,0.56844 0,0.33589 -0.237712,0.57361 -0.237712,0.23771 -0.573608,0.23771 -0.335897,0 -0.573609,-0.23771 -0.237711,-0.23772 -0.237711,-0.57361 0,-0.3359 0.237711,-0.56844 0.237712,-0.23771 0.573609,-0.23771 z"
         style="font-style:normal;font-variant:normal;font-weight:bold;font-stretch:normal;font-family:'Century Gothic';-inkscape-font-specification:'Century Gothic Bold';fill:#ffffff;stroke-width:0.26458332"
         id="path2896" />
      <path
         d="m 62.165342,292.39395 1.725993,-3.545 h 0.930176 l 1.405599,5.62239 h -1.379761 l -0.749308,-3.29695 -1.674317,3.29695 h -0.578776 l -1.638143,-3.29695 -0.754475,3.29695 h -1.374593 l 1.405598,-5.62239 h 0.930176 z"
         style="font-style:normal;font-variant:normal;font-weight:bold;font-stretch:normal;font-family:'Century Gothic';-inkscape-font-specification:'Century Gothic Bold';fill:#ffffff;stroke-width:0.26458332"
         id="path2898" />
      <path
         d="m 71.167375,288.84895 h 1.405599 v 5.62239 h -1.405599 v -0.59427 q -0.413411,0.39274 -0.83199,0.56844 -0.413412,0.17053 -0.89917,0.17053 -1.090373,0 -1.88619,-0.84233 -0.795817,-0.84749 -0.795817,-2.10323 0,-1.30224 0.769979,-2.13424 0.769979,-0.83199 1.870687,-0.83199 0.506429,0 0.950846,0.19121 0.444417,0.1912 0.821655,0.57361 z m -1.483113,1.15755 q -0.656291,0 -1.090373,0.46509 -0.434082,0.45992 -0.434082,1.18339 0,0.72864 0.43925,1.19889 0.444417,0.47026 1.090372,0.47026 0.666626,0 1.105876,-0.45992 0.43925,-0.46509 0.43925,-1.2144 0,-0.7338 -0.43925,-1.18856 -0.43925,-0.45475 -1.111043,-0.45475 z"
         style="font-style:normal;font-variant:normal;font-weight:bold;font-stretch:normal;font-family:'Century Gothic';-inkscape-font-specification:'Century Gothic Bold';fill:#ffffff;stroke-width:0.26458332"
         id="path2900" />
      <path
         d="m 74.743387,294.47134 h -0.749308 v -5.62239 h 1.374593 v 3.30212 l 2.878377,-3.30212 h 0.676961 v 5.62239 h -1.374593 v -3.23494 z m -0.335897,-8.10286 h 1.142049 q 0.134359,0.21187 0.372071,0.32039 0.242879,0.10336 0.589111,0.10336 0.3514,0 0.63562,-0.12403 0.186035,-0.0827 0.325562,-0.29972 h 1.142049 q -0.09819,0.65629 -0.630453,1.0542 -0.527099,0.39791 -1.477946,0.39791 -0.640787,0 -1.074869,-0.1757 -0.428915,-0.18087 -0.692464,-0.5116 -0.26355,-0.33073 -0.33073,-0.76481 z"
         style="font-style:normal;font-variant:normal;font-weight:bold;font-stretch:normal;font-family:'Century Gothic';-inkscape-font-specification:'Century Gothic Bold';fill:#ffffff;stroke-width:0.26458332"
         id="path2902" />
    </g>
  </g>
</svg>
