<?xml version="1.0" encoding="UTF-8"?>
<!DOCTYPE svg PUBLIC "-//W3C//DTD SVG 1.1//EN" "http://www.w3.org/Graphics/SVG/1.1/DTD/svg11.dtd">
<!-- Creator: CorelDRAW -->
<svg xmlns="http://www.w3.org/2000/svg" xml:space="preserve" width="34.4937mm" height="10.7606mm" version="1.1" style="shape-rendering:geometricPrecision; text-rendering:geometricPrecision; image-rendering:optimizeQuality; fill-rule:evenodd; clip-rule:evenodd"
viewBox="0 0 15.19 4.74"
 xmlns:xlink="http://www.w3.org/1999/xlink"
 xmlns:xodm="http://www.corel.com/coreldraw/odm/2003">
 <defs>
  <style type="text/css">
   <![CDATA[
    .fil0 {fill:white;fill-rule:nonzero}
   ]]>
  </style>
 </defs>
 <g id="Слой_x0020_1">
  <metadata id="CorelCorpID_0Corel-Layer"/>
  <path class="fil0" d="M0.25 0.06l0.43 0 1.05 1.59 0 -1.59 0.46 0 0 2.42 -0.43 0 -1.05 -1.58 0 1.58 -0.46 0 0 -2.42zm3.34 1.34c0,0.16 -0.06,0.29 -0.17,0.41 -0.11,0.11 -0.25,0.17 -0.41,0.17 -0.16,0 -0.3,-0.06 -0.41,-0.17 -0.11,-0.11 -0.17,-0.25 -0.17,-0.41 0,-0.16 0.06,-0.29 0.17,-0.41 0.11,-0.11 0.25,-0.17 0.41,-0.17 0.16,0 0.29,0.06 0.41,0.17 0.11,0.11 0.17,0.25 0.17,0.41zm-0.3 -0c0,-0.08 -0.03,-0.14 -0.08,-0.2 -0.05,-0.05 -0.12,-0.08 -0.2,-0.08 -0.08,0 -0.14,0.03 -0.2,0.08 -0.05,0.05 -0.08,0.12 -0.08,0.2 0,0.08 0.03,0.15 0.08,0.2 0.05,0.05 0.12,0.08 0.2,0.08 0.08,0 0.14,-0.03 0.2,-0.08 0.05,-0.06 0.08,-0.12 0.08,-0.2zm-0.85 0.8l1.15 0 0 0.29 -1.15 0 0 -0.29z"/>
  <polygon id="_1" class="fil0" points="6.17,1.38 7.01,1.38 7.01,1.79 6.17,1.79 "/>
  <path id="_2" class="fil0" d="M8.02 0.84l-0.45 0c0.01,-0.26 0.09,-0.47 0.25,-0.62 0.15,-0.15 0.35,-0.22 0.58,-0.22 0.15,0 0.28,0.03 0.39,0.09 0.11,0.06 0.2,0.15 0.27,0.27 0.07,0.12 0.1,0.24 0.1,0.36 0,0.14 -0.04,0.3 -0.12,0.46 -0.08,0.17 -0.23,0.36 -0.45,0.59l-0.27 0.29 0.86 0 0 0.42 -1.68 0 0 -0.22 0.75 -0.76c0.18,-0.18 0.3,-0.33 0.36,-0.44 0.06,-0.11 0.09,-0.21 0.09,-0.3 0,-0.09 -0.03,-0.17 -0.09,-0.23 -0.06,-0.06 -0.14,-0.09 -0.24,-0.09 -0.1,0 -0.18,0.04 -0.25,0.11 -0.07,0.07 -0.1,0.17 -0.1,0.3z"/>
  <path id="_3" class="fil0" d="M10.4 0c0.18,0 0.33,0.04 0.46,0.13 0.13,0.09 0.23,0.22 0.3,0.4 0.07,0.18 0.1,0.43 0.1,0.74 0,0.32 -0.04,0.57 -0.11,0.75 -0.07,0.18 -0.17,0.31 -0.28,0.39 -0.12,0.08 -0.27,0.13 -0.45,0.13 -0.18,0 -0.33,-0.04 -0.46,-0.13 -0.12,-0.08 -0.22,-0.21 -0.29,-0.38 -0.07,-0.17 -0.1,-0.42 -0.1,-0.73 0,-0.44 0.07,-0.76 0.21,-0.96 0.15,-0.22 0.36,-0.33 0.64,-0.33zm0.01 0.44c-0.08,0 -0.15,0.02 -0.21,0.07 -0.06,0.05 -0.11,0.14 -0.14,0.26 -0.03,0.12 -0.05,0.3 -0.05,0.53 0,0.3 0.04,0.52 0.11,0.63 0.07,0.12 0.17,0.17 0.28,0.17 0.11,0 0.2,-0.05 0.26,-0.17 0.08,-0.13 0.12,-0.36 0.12,-0.67 0,-0.32 -0.04,-0.53 -0.11,-0.65 -0.07,-0.12 -0.16,-0.18 -0.28,-0.18z"/>
  <path id="_4" class="fil0" d="M12.07 0.84l-0.45 0c0.01,-0.26 0.09,-0.47 0.25,-0.62 0.15,-0.15 0.35,-0.22 0.58,-0.22 0.15,0 0.28,0.03 0.39,0.09 0.11,0.06 0.2,0.15 0.27,0.27 0.07,0.12 0.1,0.24 0.1,0.36 0,0.14 -0.04,0.3 -0.12,0.46 -0.08,0.17 -0.23,0.36 -0.45,0.59l-0.27 0.29 0.86 0 0 0.42 -1.68 0 0 -0.22 0.75 -0.76c0.18,-0.18 0.3,-0.33 0.36,-0.44 0.06,-0.11 0.09,-0.21 0.09,-0.3 0,-0.09 -0.03,-0.17 -0.09,-0.23 -0.06,-0.06 -0.14,-0.09 -0.24,-0.09 -0.1,0 -0.18,0.04 -0.25,0.11 -0.07,0.07 -0.1,0.17 -0.1,0.3z"/>
  <polygon id="_5" class="fil0" points="4.41,0.06 5.1,0.06 5.1,2.48 4.64,2.48 4.64,0.49 4.14,0.49 "/>
  <path id="_6" class="fil0" d="M14.49 0l0.39 0.19 -0.42 0.82c0.21,0 0.38,0.07 0.52,0.22 0.14,0.15 0.22,0.33 0.22,0.55 0,0.21 -0.07,0.39 -0.22,0.53 -0.15,0.15 -0.33,0.22 -0.53,0.22 -0.22,0 -0.4,-0.08 -0.54,-0.23 -0.15,-0.15 -0.22,-0.33 -0.22,-0.52 0,-0.07 0.01,-0.15 0.03,-0.22 0.02,-0.08 0.07,-0.19 0.16,-0.35l0.62 -1.21zm-0.06 1.45c-0.09,0 -0.16,0.03 -0.22,0.09 -0.06,0.06 -0.09,0.14 -0.09,0.23 0,0.09 0.03,0.17 0.09,0.23 0.06,0.06 0.13,0.1 0.21,0.1 0.09,0 0.16,-0.03 0.22,-0.09 0.06,-0.06 0.09,-0.14 0.09,-0.24 0,-0.09 -0.03,-0.17 -0.09,-0.23 -0.06,-0.06 -0.13,-0.09 -0.22,-0.09z"/>
  <path id="_7" class="fil0" d="M0.27 4c-0.05,-0.02 -0.09,-0.05 -0.13,-0.1 -0.03,-0.05 -0.05,-0.1 -0.05,-0.16 0,-0.07 0.02,-0.13 0.06,-0.19 0.04,-0.05 0.09,-0.09 0.14,-0.1 0.06,-0.01 0.14,-0.02 0.26,-0.02l0.24 0 0 0.95 -0.24 0 0 -0.34 -0.05 0 -0.23 0.34 -0.28 0 0.27 -0.39zm0.29 -0.13l0 -0.23 -0.08 0c-0.09,0 -0.14,0.04 -0.14,0.11 0,0.08 0.05,0.12 0.15,0.12l0.07 0z"/>
  <polygon id="_8" class="fil0" points="1.28,3.78 1.63,3.78 1.63,3.44 1.87,3.44 1.87,4.39 1.63,4.39 1.63,4 1.28,4 1.28,4.39 1.04,4.39 1.04,3.44 1.28,3.44 "/>
  <path id="_9" class="fil0" d="M2.11 4.39l0 -0.95 0.38 0c0.13,0 0.21,0.02 0.26,0.07 0.05,0.05 0.07,0.11 0.07,0.17 0,0.09 -0.05,0.16 -0.14,0.2 0.13,0.04 0.19,0.12 0.19,0.24 0,0.06 -0.02,0.12 -0.05,0.16 -0.03,0.04 -0.08,0.07 -0.13,0.08 -0.05,0.01 -0.12,0.02 -0.21,0.02l-0.37 0zm0.24 -0.58l0.09 0c0.04,0 0.07,-0.01 0.09,-0.03 0.02,-0.02 0.03,-0.04 0.03,-0.07 0,-0.04 -0.01,-0.06 -0.03,-0.08 -0.02,-0.02 -0.05,-0.03 -0.07,-0.03l-0.03 0 -0.08 0 0 0.21zm0 0.39l0.12 0c0.05,0 0.08,-0.01 0.1,-0.03 0.02,-0.02 0.03,-0.04 0.03,-0.06 0,-0.03 -0.01,-0.06 -0.03,-0.08 -0.02,-0.03 -0.06,-0.04 -0.12,-0.04l-0.1 0 0 0.22z"/>
  <path id="_10" class="fil0" d="M3.78 3.44l0.24 0 0 0.95 -0.24 0 0 -0.1c-0.05,0.04 -0.09,0.08 -0.14,0.1 -0.05,0.02 -0.1,0.03 -0.15,0.03 -0.12,0 -0.23,-0.05 -0.32,-0.14 -0.09,-0.1 -0.13,-0.21 -0.13,-0.35 0,-0.15 0.04,-0.27 0.13,-0.36 0.09,-0.09 0.19,-0.14 0.32,-0.14 0.06,0 0.11,0.01 0.16,0.03 0.05,0.02 0.1,0.05 0.14,0.1l0 -0.1zm-0.25 0.2c-0.07,0 -0.14,0.03 -0.18,0.08 -0.05,0.05 -0.07,0.12 -0.07,0.2 0,0.08 0.02,0.15 0.07,0.2 0.05,0.05 0.11,0.08 0.18,0.08 0.08,0 0.14,-0.03 0.19,-0.08 0.05,-0.05 0.07,-0.12 0.07,-0.21 0,-0.08 -0.02,-0.15 -0.07,-0.2 -0.05,-0.05 -0.11,-0.08 -0.19,-0.08z"/>
  <path id="_11" class="fil0" d="M4.5 3.44l0 0.1c0.04,-0.04 0.09,-0.07 0.14,-0.1 0.05,-0.02 0.1,-0.03 0.16,-0.03 0.12,0 0.23,0.05 0.32,0.14 0.09,0.09 0.13,0.21 0.13,0.36 0,0.14 -0.04,0.26 -0.13,0.35 -0.09,0.1 -0.2,0.14 -0.32,0.14 -0.05,0 -0.11,-0.01 -0.15,-0.03 -0.05,-0.02 -0.09,-0.05 -0.14,-0.1l0 0.45 -0.24 0 0 -1.3 0.24 0zm0.25 0.2c-0.08,0 -0.14,0.03 -0.19,0.08 -0.05,0.05 -0.07,0.12 -0.07,0.2 0,0.08 0.02,0.15 0.07,0.21 0.05,0.05 0.11,0.08 0.19,0.08 0.07,0 0.13,-0.03 0.18,-0.08 0.05,-0.05 0.07,-0.12 0.07,-0.2 0,-0.08 -0.02,-0.15 -0.07,-0.2 -0.05,-0.05 -0.11,-0.08 -0.19,-0.08z"/>
  <path id="_12" class="fil0" d="M5.68 3.78l0.07 0c0.1,0 0.18,0.01 0.23,0.02 0.05,0.02 0.1,0.05 0.14,0.1 0.04,0.05 0.06,0.11 0.06,0.18 0,0.07 -0.02,0.13 -0.05,0.18 -0.03,0.05 -0.08,0.08 -0.13,0.1 -0.05,0.02 -0.12,0.02 -0.22,0.02l-0.34 0 0 -0.95 0.24 0 0 0.34zm0 0.42l0.07 0c0.04,0 0.08,-0 0.09,-0.01 0.02,-0.01 0.04,-0.02 0.05,-0.03 0.01,-0.02 0.02,-0.04 0.02,-0.06 0,-0.08 -0.05,-0.12 -0.14,-0.12l-0.1 0 0 0.23z"/>
  <polygon id="_13" class="fil0" points="6.28,4.62 6.85,3.07 7.02,3.07 6.45,4.62 "/>
  <path id="_14" class="fil0" d="M7.85 4.31c-0.08,0.07 -0.17,0.11 -0.27,0.11 -0.12,0 -0.22,-0.05 -0.31,-0.14 -0.09,-0.1 -0.13,-0.21 -0.13,-0.36 0,-0.15 0.04,-0.27 0.13,-0.36 0.09,-0.09 0.19,-0.14 0.31,-0.14 0.11,0 0.2,0.04 0.28,0.11l0 -0.45 0.24 0 0 0.45c0.08,-0.08 0.17,-0.11 0.28,-0.11 0.08,0 0.15,0.02 0.21,0.06 0.07,0.04 0.12,0.1 0.16,0.17 0.04,0.08 0.06,0.17 0.06,0.27 0,0.15 -0.04,0.27 -0.13,0.36 -0.09,0.09 -0.19,0.14 -0.31,0.14 -0.1,0 -0.19,-0.04 -0.27,-0.11l0 0.43 -0.24 0 0 -0.43zm0.72 -0.4c0,-0.08 -0.02,-0.15 -0.07,-0.2 -0.05,-0.05 -0.11,-0.08 -0.18,-0.08 -0.06,0 -0.12,0.03 -0.17,0.08 -0.05,0.05 -0.07,0.12 -0.07,0.21 0,0.09 0.02,0.15 0.07,0.2 0.05,0.05 0.1,0.07 0.17,0.07 0.07,0 0.13,-0.03 0.18,-0.08 0.05,-0.05 0.07,-0.12 0.07,-0.2zm-0.71 0.01c0,-0.06 -0.01,-0.11 -0.03,-0.15 -0.02,-0.04 -0.05,-0.07 -0.08,-0.1 -0.03,-0.02 -0.08,-0.04 -0.12,-0.04 -0.08,0 -0.14,0.03 -0.18,0.08 -0.04,0.06 -0.07,0.12 -0.07,0.2 0,0.08 0.02,0.15 0.07,0.2 0.05,0.05 0.1,0.08 0.17,0.08 0.07,0 0.12,-0.02 0.17,-0.07 0.05,-0.05 0.07,-0.12 0.07,-0.21z"/>
  <path id="_15" class="fil0" d="M9.94 3.98l-0.77 0c0.01,0.07 0.04,0.12 0.09,0.16 0.05,0.04 0.11,0.06 0.18,0.06 0.09,0 0.17,-0.03 0.23,-0.09l0.2 0.09c-0.05,0.07 -0.11,0.12 -0.18,0.16 -0.07,0.03 -0.15,0.05 -0.25,0.05 -0.15,0 -0.27,-0.05 -0.36,-0.14 -0.09,-0.09 -0.14,-0.21 -0.14,-0.35 0,-0.15 0.05,-0.27 0.14,-0.36 0.09,-0.1 0.21,-0.14 0.35,-0.14 0.15,0 0.27,0.05 0.37,0.14 0.09,0.1 0.14,0.22 0.14,0.38l-0 0.05zm-0.24 -0.19c-0.02,-0.05 -0.05,-0.09 -0.09,-0.13 -0.05,-0.03 -0.1,-0.05 -0.16,-0.05 -0.07,0 -0.13,0.02 -0.18,0.06 -0.03,0.02 -0.06,0.06 -0.09,0.12l0.52 0z"/>
  <path id="_16" class="fil0" d="M10.14 4.39l0 -0.95 0.38 0c0.13,0 0.21,0.02 0.26,0.07 0.05,0.05 0.07,0.11 0.07,0.17 0,0.09 -0.05,0.16 -0.14,0.2 0.13,0.04 0.19,0.12 0.19,0.24 0,0.06 -0.02,0.12 -0.05,0.16 -0.03,0.04 -0.08,0.07 -0.13,0.08 -0.05,0.01 -0.12,0.02 -0.21,0.02l-0.37 0zm0.24 -0.58l0.09 0c0.04,0 0.07,-0.01 0.09,-0.03 0.02,-0.02 0.03,-0.04 0.03,-0.07 0,-0.04 -0.01,-0.06 -0.03,-0.08 -0.02,-0.02 -0.05,-0.03 -0.07,-0.03l-0.03 0 -0.08 0 0 0.21zm0 0.39l0.12 0c0.05,0 0.08,-0.01 0.1,-0.03 0.02,-0.02 0.03,-0.04 0.03,-0.06 0,-0.03 -0.01,-0.06 -0.03,-0.08 -0.02,-0.03 -0.06,-0.04 -0.12,-0.04l-0.1 0 0 0.22z"/>
  <path id="_17" class="fil0" d="M11.34 3.44l0 0.1c0.04,-0.04 0.09,-0.07 0.14,-0.1 0.05,-0.02 0.1,-0.03 0.16,-0.03 0.12,0 0.23,0.05 0.32,0.14 0.09,0.09 0.13,0.21 0.13,0.36 0,0.14 -0.04,0.26 -0.13,0.35 -0.09,0.1 -0.2,0.14 -0.32,0.14 -0.05,0 -0.11,-0.01 -0.15,-0.03 -0.05,-0.02 -0.09,-0.05 -0.14,-0.1l0 0.45 -0.24 0 0 -1.3 0.24 0zm0.25 0.2c-0.08,0 -0.14,0.03 -0.19,0.08 -0.05,0.05 -0.07,0.12 -0.07,0.2 0,0.08 0.02,0.15 0.07,0.21 0.05,0.05 0.11,0.08 0.19,0.08 0.07,0 0.13,-0.03 0.18,-0.08 0.05,-0.05 0.07,-0.12 0.07,-0.2 0,-0.08 -0.02,-0.15 -0.07,-0.2 -0.05,-0.05 -0.11,-0.08 -0.19,-0.08z"/>
  <path id="_18" class="fil0" d="M12.99 3.44l0.24 0 0 0.95 -0.24 0 0 -0.1c-0.05,0.04 -0.09,0.08 -0.14,0.1 -0.05,0.02 -0.1,0.03 -0.15,0.03 -0.12,0 -0.23,-0.05 -0.32,-0.14 -0.09,-0.1 -0.13,-0.21 -0.13,-0.35 0,-0.15 0.04,-0.27 0.13,-0.36 0.09,-0.09 0.19,-0.14 0.32,-0.14 0.06,0 0.11,0.01 0.16,0.03 0.05,0.02 0.1,0.05 0.14,0.1l0 -0.1zm-0.25 0.2c-0.07,0 -0.14,0.03 -0.18,0.08 -0.05,0.05 -0.07,0.12 -0.07,0.2 0,0.08 0.02,0.15 0.07,0.2 0.05,0.05 0.11,0.08 0.18,0.08 0.08,0 0.14,-0.03 0.19,-0.08 0.05,-0.05 0.07,-0.12 0.07,-0.21 0,-0.08 -0.02,-0.15 -0.07,-0.2 -0.05,-0.05 -0.11,-0.08 -0.19,-0.08z"/>
  <polygon id="_19" class="fil0" points="14.32,4.39 14.08,4.39 13.84,3.79 13.6,4.39 13.35,4.39 13.76,3.44 13.91,3.44 "/>
  <path id="_20" class="fil0" d="M14.69 3.78l0.07 0c0.1,0 0.18,0.01 0.23,0.02 0.05,0.02 0.1,0.05 0.14,0.1 0.04,0.05 0.06,0.11 0.06,0.18 0,0.07 -0.02,0.13 -0.05,0.18 -0.03,0.05 -0.08,0.08 -0.13,0.1 -0.05,0.02 -0.12,0.02 -0.22,0.02l-0.34 0 0 -0.95 0.24 0 0 0.34zm0 0.42l0.07 0c0.04,0 0.08,-0 0.09,-0.01 0.02,-0.01 0.04,-0.02 0.05,-0.03 0.01,-0.02 0.02,-0.04 0.02,-0.06 0,-0.08 -0.05,-0.12 -0.14,-0.12l-0.1 0 0 0.23z"/>
 </g>
</svg>
