<?xml version="1.0" encoding="UTF-8" standalone="no"?>
<!-- Created with Inkscape (http://www.inkscape.org/) -->

<svg
   xmlns:dc="http://purl.org/dc/elements/1.1/"
   xmlns:cc="http://creativecommons.org/ns#"
   xmlns:rdf="http://www.w3.org/1999/02/22-rdf-syntax-ns#"
   xmlns:svg="http://www.w3.org/2000/svg"
   xmlns="http://www.w3.org/2000/svg"
   xmlns:sodipodi="http://sodipodi.sourceforge.net/DTD/sodipodi-0.dtd"
   xmlns:inkscape="http://www.inkscape.org/namespaces/inkscape"
   width="25.5pc"
   height="1.4pc"
   viewBox="0 0 107.95005 5.9266665"
   version="1.1"
   id="svg8"
   inkscape:version="0.92.2 (5c3e80d, 2017-08-06)"
   sodipodi:docname="podshapkoytext.svg">
  <defs
     id="defs2">
    <clipPath
       clipPathUnits="userSpaceOnUse"
       id="clipPath7909">
      <g
         id="use7911"
         inkscape:label="Clip">
        <text
           xml:space="preserve"
           style="font-style:normal;font-weight:normal;font-size:10.58333302px;line-height:1.25;font-family:sans-serif;letter-spacing:0px;word-spacing:0px;fill:#ffffff;fill-opacity:1;stroke:none;stroke-width:0.26458332"
           x="82.876579"
           y="384.59238"
           id="text6078"><tspan
             sodipodi:role="line"
             id="tspan6076"
             x="82.876579"
             y="384.59238"
             style="font-style:normal;font-variant:normal;font-weight:normal;font-stretch:normal;font-size:3.52777767px;font-family:EuropeDemi;-inkscape-font-specification:EuropeDemi;fill:#ffffff;stroke-width:0.26458332"><tspan
               style="font-size:2.82222223px"
               id="tspan6074">ГЛАЗОВСКАЯ РАЙОННАЯ БИБЛИОТЕКА</tspan></tspan></text>
      </g>
    </clipPath>
  </defs>
  <sodipodi:namedview
     id="base"
     pagecolor="#ffffff"
     bordercolor="#666666"
     borderopacity="1.0"
     inkscape:pageopacity="0.0"
     inkscape:pageshadow="2"
     inkscape:zoom="0.70000001"
     inkscape:cx="307.46767"
     inkscape:cy="-89.562562"
     inkscape:document-units="mm"
     inkscape:current-layer="layer1"
     showgrid="false"
     inkscape:lockguides="false"
     showguides="false"
     units="pc"
     inkscape:window-width="1280"
     inkscape:window-height="972"
     inkscape:window-x="-8"
     inkscape:window-y="-8"
     inkscape:window-maximized="1"
     showborder="true"
     inkscape:pagecheckerboard="true" />
  <metadata
     id="metadata5">
    <rdf:RDF>
      <cc:Work
         rdf:about="">
        <dc:format>image/svg+xml</dc:format>
        <dc:type
           rdf:resource="http://purl.org/dc/dcmitype/StillImage" />
        <dc:title />
      </cc:Work>
    </rdf:RDF>
  </metadata>
  <g
     inkscape:label="Layer 1"
     inkscape:groupmode="layer"
     id="layer1"
     transform="translate(0,-291.07328)">
    <g
       aria-label="ГЛАЗОВСКАЯ РАЙОННАЯ БИБЛИОТЕКА "
       style="font-style:normal;font-weight:normal;font-size:10.58333302px;line-height:1.25;font-family:sans-serif;letter-spacing:0px;word-spacing:0px;fill:#ffffff;fill-opacity:1;stroke:none;stroke-width:0.26458332"
       id="text7927"
       transform="matrix(1.7708668,0,0,1.7708668,71.984951,-353.64981)">
      <path
         d="m -40.009384,367.21985 v -1.76113 h 0.97634 v -0.35278 h -1.385617 v 2.11391 z"
         style="font-size:2.82222223px"
         id="path7955"
         inkscape:connector-curvature="0" />
      <path
         d="m -37.008017,365.10594 v 2.11391 h -0.403765 v -1.76665 h -0.804085 v 1.18236 q 0,0.25632 -0.127469,0.42306 -0.127468,0.16674 -0.406521,0.16674 -0.101975,0 -0.208773,-0.0193 v -0.33349 q 0.0503,0.008 0.127469,0.008 0.122645,0 0.169499,-0.0572 0.04754,-0.0572 0.04754,-0.15709 v -1.56063 z"
         style="font-size:2.82222223px"
         id="path7957"
         inkscape:connector-curvature="0" />
      <path
         d="m -35.304761,366.81608 h -0.915018 l -0.132291,0.40377 h -0.420302 l 0.702799,-2.11391 h 0.595313 l 0.71658,2.11391 h -0.412034 z m -0.09371,-0.30179 -0.366558,-1.0976 -0.361046,1.0976 z"
         style="font-size:2.82222223px"
         id="path7959"
         inkscape:connector-curvature="0" />
      <path
         d="m -34.012161,365.99477 h 0.327284 q 0.18948,0 0.277674,-0.0689 0.08888,-0.0689 0.08888,-0.22186 0,-0.11645 -0.03996,-0.18122 -0.03996,-0.0654 -0.13367,-0.093 -0.09302,-0.0276 -0.263894,-0.0276 -0.14056,0 -0.223932,0.0152 -0.08268,0.0152 -0.131602,0.0517 -0.04823,0.0358 -0.06821,0.0971 -0.01998,0.0613 -0.02205,0.16054 h -0.386539 q 0.0186,-0.25631 0.103352,-0.39411 0.08475,-0.1385 0.257005,-0.19362 0.172943,-0.0558 0.475423,-0.0558 0.414789,0 0.615983,0.13229 0.201882,0.13229 0.201882,0.40997 0,0.22324 -0.06546,0.33348 -0.06546,0.10956 -0.233578,0.1633 v 0.011 q 0.136426,0.0372 0.212907,0.0971 0.07648,0.0593 0.108176,0.15296 0.03169,0.093 0.03169,0.2322 0,0.22255 -0.07648,0.35829 -0.07579,0.13574 -0.266651,0.20257 -0.190169,0.0661 -0.531922,0.0661 -0.213596,0 -0.367937,-0.0248 -0.153651,-0.0248 -0.261138,-0.0896 -0.106798,-0.0655 -0.163297,-0.18673 -0.0565,-0.12195 -0.0565,-0.31143 v -0.0875 h 0.381028 q 0.0034,0.16123 0.02894,0.23496 0.02618,0.0737 0.124024,0.11024 0.09784,0.0358 0.314882,0.0358 0.190169,0 0.2949,-0.0276 0.104731,-0.0283 0.150206,-0.0937 0.04616,-0.0661 0.04616,-0.18672 0,-0.17157 -0.08751,-0.2446 -0.08682,-0.0737 -0.268029,-0.0737 h -0.392051 z"
         style="font-size:2.82222223px"
         id="path7961"
         inkscape:connector-curvature="0" />
      <path
         d="m -32.625166,366.11949 q 0,-0.3142 0.04134,-0.50988 0.04134,-0.19637 0.14056,-0.31144 0.09991,-0.11575 0.271474,-0.16536 0.172254,-0.0496 0.449929,-0.0496 0.275608,0 0.447863,0.0496 0.172254,0.0496 0.272162,0.16468 0.100597,0.11506 0.143316,0.31281 0.04272,0.19706 0.04272,0.50919 0,0.36035 -0.04341,0.57739 -0.04272,0.21704 -0.143316,0.33693 -0.09991,0.11989 -0.270095,0.16744 -0.169499,0.0469 -0.449241,0.0469 -0.296278,0 -0.469222,-0.0462 -0.172255,-0.0469 -0.267339,-0.16605 -0.0944,-0.1192 -0.130914,-0.33348 -0.03583,-0.21498 -0.03583,-0.58291 z m 0.412033,0.0448 q 0,0.2639 0.01792,0.40446 0.0186,0.14056 0.06821,0.2129 0.0503,0.0717 0.142627,0.0958 0.09233,0.0234 0.262516,0.0234 0.16881,0 0.262516,-0.0255 0.09371,-0.0262 0.144005,-0.0992 0.0503,-0.0737 0.0689,-0.21222 0.0186,-0.13918 0.0186,-0.39963 0,-0.26389 -0.01998,-0.40721 -0.01998,-0.144 -0.07166,-0.21428 -0.05168,-0.0703 -0.14056,-0.091 -0.08888,-0.0214 -0.261827,-0.0214 -0.177767,0 -0.26665,0.0207 -0.08888,0.0207 -0.138493,0.0916 -0.04961,0.0703 -0.06821,0.21084 -0.01792,0.13987 -0.01792,0.41065 z"
         style="font-size:2.82222223px"
         id="path7963"
         inkscape:connector-curvature="0" />
      <path
         d="m -30.081996,365.44218 v 0.54708 h 0.513319 q 0.138493,0 0.211529,-0.0214 0.07372,-0.0214 0.107487,-0.0834 0.03376,-0.0627 0.03376,-0.18879 0,-0.14607 -0.06546,-0.19982 -0.06546,-0.0537 -0.219108,-0.0537 z m 0,0.84887 v 0.59325 h 0.513319 q 0.210151,0 0.305235,-0.0661 0.09577,-0.0661 0.09577,-0.23633 0,-0.11231 -0.03307,-0.1757 -0.03238,-0.0634 -0.102664,-0.0889 -0.07028,-0.0262 -0.191547,-0.0262 z m -0.40101,0.9288 v -2.11391 h 1.083828 q 0.192925,0 0.323149,0.0558 0.130914,0.0551 0.198438,0.17363 0.06821,0.11851 0.06821,0.3011 0,0.40239 -0.30179,0.48576 v 0.0138 q 0.169498,0.0269 0.25976,0.15021 0.09026,0.12333 0.09026,0.32659 0,0.14056 -0.03721,0.25287 -0.03652,0.11231 -0.11231,0.19155 -0.07579,0.0792 -0.188791,0.12127 -0.112999,0.0413 -0.265962,0.0413 z"
         style="font-size:2.82222223px"
         id="path7965"
         inkscape:connector-curvature="0" />
      <path
         d="m -27.152976,366.46331 h 0.398253 v 0.12402 q 0,0.24529 -0.08406,0.38792 -0.08406,0.14193 -0.27423,0.20464 -0.190169,0.0627 -0.516764,0.0627 -0.269406,0 -0.438905,-0.0503 -0.16881,-0.051 -0.268718,-0.17363 -0.09991,-0.12334 -0.142626,-0.33625 -0.04203,-0.2129 -0.04203,-0.55741 0,-0.37965 0.07579,-0.60358 0.07648,-0.22393 0.266651,-0.33073 0.190858,-0.10749 0.535368,-0.10749 0.341753,0 0.525721,0.0792 0.184657,0.0792 0.259071,0.23495 0.0751,0.15572 0.09302,0.41686 h -0.394808 q -0.01034,-0.16743 -0.05305,-0.24598 -0.04203,-0.0792 -0.139871,-0.1068 -0.09715,-0.0283 -0.290077,-0.0283 -0.199816,0 -0.294211,0.0517 -0.0944,0.0517 -0.131603,0.20257 -0.03652,0.15021 -0.03652,0.4768 0,0.23151 0.02067,0.37345 0.02136,0.14125 0.07304,0.21911 0.05168,0.0779 0.139871,0.10817 0.08888,0.0303 0.237712,0.0303 0.18948,0 0.292144,-0.0255 0.103353,-0.0262 0.146761,-0.0903 0.04341,-0.0641 0.04341,-0.18328 z"
         style="font-size:2.82222223px"
         id="path7967"
         inkscape:connector-curvature="0" />
      <path
         d="m -26.099466,365.10594 v 0.86334 h 0.188791 l 0.705556,-0.86334 h 0.496783 l -0.855073,1.03008 0.945334,1.08383 h -0.513319 l -0.779281,-0.90331 h -0.188791 v 0.90331 h -0.406521 v -2.11391 z"
         style="font-size:2.82222223px"
         id="path7969"
         inkscape:connector-curvature="0" />
      <path
         d="m -23.056757,366.81608 h -0.915018 l -0.132291,0.40377 h -0.420302 l 0.702799,-2.11391 h 0.595313 l 0.71658,2.11391 h -0.412034 z m -0.09371,-0.30179 -0.366558,-1.0976 -0.361046,1.0976 z"
         style="font-size:2.82222223px"
         id="path7971"
         inkscape:connector-curvature="0" />
      <path
         d="m -20.635544,367.21985 v -2.11391 h -1.069358 q -0.332796,0 -0.488514,0.17914 -0.15503,0.17846 -0.15503,0.50368 0,0.26802 0.103353,0.40927 0.103353,0.14056 0.303169,0.22325 l -0.463021,0.79857 h 0.463021 l 0.414789,-0.74483 h 0.490582 v 0.74483 z m -0.401009,-1.06936 h -0.586356 q -0.115066,0 -0.183968,-0.031 -0.0689,-0.0317 -0.101975,-0.10887 -0.03307,-0.0772 -0.03307,-0.21291 0,-0.18948 0.07166,-0.26527 0.07235,-0.0765 0.247357,-0.0765 l 0.586356,-0.003 z"
         style="font-size:2.82222223px"
         id="path7973"
         inkscape:connector-curvature="0" />
      <path
         d="m -19.511064,367.21985 v -2.11391 h 0.900547 q 0.276297,0 0.445796,0.0558 0.170188,0.0551 0.257004,0.2067 0.08751,0.1509 0.08751,0.43202 0,0.21773 -0.03996,0.3576 -0.03996,0.13987 -0.127468,0.22049 -0.08682,0.0806 -0.228066,0.11368 -0.141248,0.0331 -0.35829,0.0331 h -0.530544 v 0.69453 z m 0.406521,-1.03284 h 0.499539 q 0.144005,0 0.222553,-0.0296 0.07924,-0.0296 0.114377,-0.10404 0.03583,-0.0751 0.03583,-0.21635 0,-0.15365 -0.03583,-0.23703 -0.03514,-0.0841 -0.115755,-0.11782 -0.07993,-0.0344 -0.221175,-0.0344 h -0.499539 z"
         style="font-size:2.82222223px"
         id="path7975"
         inkscape:connector-curvature="0" />
      <path
         d="m -16.188614,366.81608 h -0.915018 l -0.132291,0.40377 h -0.420302 l 0.702799,-2.11391 h 0.595313 l 0.71658,2.11391 h -0.412034 z m -0.09371,-0.30179 -0.366558,-1.0976 -0.361046,1.0976 z"
         style="font-size:2.82222223px"
         id="path7977"
         inkscape:connector-curvature="0" />
      <path
         d="m -13.558628,365.10594 h -0.581532 l -0.719336,1.41662 q -0.03238,0.0613 -0.0751,0.14745 -0.04272,0.0861 -0.09991,0.19706 0.03101,-0.14676 0.03101,-0.37276 v -1.38837 h -0.406522 v 2.11391 h 0.581532 l 0.719336,-1.42489 q 0.03721,-0.0724 0.175011,-0.34451 -0.03101,0.14951 -0.03101,0.37551 v 1.39389 h 0.406522 z m -0.973584,-0.12403 q -0.22531,0 -0.3514,-0.0896 -0.125402,-0.0903 -0.125402,-0.31695 h 0.262517 q 0,0.0661 0.01722,0.10198 0.01792,0.0351 0.06339,0.0503 0.04616,0.0145 0.13367,0.0145 0.139871,0 0.185346,-0.0338 0.04616,-0.0344 0.04616,-0.13298 h 0.254248 q 0,0.22738 -0.127468,0.31695 -0.12678,0.0896 -0.35829,0.0896 z"
         style="font-size:2.82222223px"
         id="path7979"
         inkscape:connector-curvature="0" />
      <path
         d="m -13.200338,366.11949 q 0,-0.3142 0.04134,-0.50988 0.04134,-0.19637 0.14056,-0.31144 0.09991,-0.11575 0.271473,-0.16536 0.172255,-0.0496 0.44993,-0.0496 0.275607,0 0.447862,0.0496 0.172255,0.0496 0.272163,0.16468 0.100596,0.11506 0.143316,0.31281 0.04272,0.19706 0.04272,0.50919 0,0.36035 -0.04341,0.57739 -0.04272,0.21704 -0.143316,0.33693 -0.09991,0.11989 -0.270096,0.16744 -0.169499,0.0469 -0.44924,0.0469 -0.296279,0 -0.469222,-0.0462 -0.172255,-0.0469 -0.26734,-0.16605 -0.0944,-0.1192 -0.130913,-0.33348 -0.03583,-0.21498 -0.03583,-0.58291 z m 0.412033,0.0448 q 0,0.2639 0.01791,0.40446 0.0186,0.14056 0.06821,0.2129 0.0503,0.0717 0.142627,0.0958 0.09233,0.0234 0.262517,0.0234 0.168809,0 0.262516,-0.0255 0.09371,-0.0262 0.144005,-0.0992 0.0503,-0.0737 0.0689,-0.21222 0.0186,-0.13918 0.0186,-0.39963 0,-0.26389 -0.01998,-0.40721 -0.01998,-0.144 -0.07166,-0.21428 -0.05168,-0.0703 -0.14056,-0.091 -0.08888,-0.0214 -0.261827,-0.0214 -0.177767,0 -0.266651,0.0207 -0.08888,0.0207 -0.138493,0.0916 -0.04961,0.0703 -0.06821,0.21084 -0.01791,0.13987 -0.01791,0.41065 z"
         style="font-size:2.82222223px"
         id="path7981"
         inkscape:connector-curvature="0" />
      <path
         d="m -9.2632832,365.10594 v 2.11391 h -0.4058322 v -0.90331 h -0.9852976 v 0.90331 h -0.406521 v -2.11391 h 0.406521 v 0.86678 h 0.9852976 v -0.86678 z"
         style="font-size:2.82222223px"
         id="path7983"
         inkscape:connector-curvature="0" />
      <path
         d="m -7.0970082,365.10594 v 2.11391 h -0.4058322 v -0.90331 h -0.9852973 v 0.90331 H -8.894659 v -2.11391 h 0.4065213 v 0.86678 h 0.9852973 v -0.86678 z"
         style="font-size:2.82222223px"
         id="path7985"
         inkscape:connector-curvature="0" />
      <path
         d="m -5.395821,366.81608 h -0.9150174 l -0.1322917,0.40377 h -0.4203016 l 0.7027995,-2.11391 h 0.5953125 l 0.7165798,2.11391 h -0.4120334 z m -0.093707,-0.30179 -0.3665582,-1.0976 -0.361046,1.0976 z"
         style="font-size:2.82222223px"
         id="path7987"
         inkscape:connector-curvature="0" />
      <path
         d="m -2.974606,367.21985 v -2.11391 h -1.0693576 q -0.3327962,0 -0.4885146,0.17914 -0.1550293,0.17846 -0.1550293,0.50368 0,0.26802 0.1033529,0.40927 0.1033529,0.14056 0.3031684,0.22325 l -0.4630208,0.79857 h 0.4630208 l 0.4147895,-0.74483 h 0.4905816 v 0.74483 z m -0.4010091,-1.06936 h -0.5863552 q -0.1150662,0 -0.1839681,-0.031 -0.068902,-0.0317 -0.1019749,-0.10887 -0.033073,-0.0772 -0.033073,-0.21291 0,-0.18948 0.071658,-0.26527 0.072347,-0.0765 0.2473579,-0.0765 l 0.5863552,-0.003 z"
         style="font-size:2.82222223px"
         id="path7989"
         inkscape:connector-curvature="0" />
      <path
         d="m -1.8501262,367.21985 v -2.11391 h 1.47587889 v 0.33624 H -1.446361 V 365.93 h 0.66903751 q 0.19430339,0 0.32935113,0.0772 0.13504775,0.0772 0.20326064,0.22462 0.0682129,0.14676 0.0682129,0.35002 0,0.20119 -0.0682129,0.3452 -0.0675239,0.14331 -0.20119358,0.21841 -0.13298068,0.0744 -0.32590603,0.0744 z m 0.4037652,-0.33555 h 0.51676429 q 0.13091363,0 0.20463868,-0.0248 0.0744141,-0.0255 0.108176,-0.0903 0.0337619,-0.0648 0.0337619,-0.18741 0,-0.18122 -0.0757921,-0.24805 -0.0751031,-0.0675 -0.25700412,-0.0675 H -1.446361 Z"
         style="font-size:2.82222223px"
         id="path7991"
         inkscape:connector-curvature="0" />
      <path
         d="M 1.9525697,365.10594 H 1.3710376 l -0.71933599,1.41662 q -0.036518,0.073 -0.0633898,0.1254 -0.0261827,0.0524 -0.11162109,0.22187 0.0310059,-0.15228 0.0310059,-0.37552 v -1.38837 H 0.10117535 v 2.11391 h 0.58153212 l 0.71933593,-1.42214 q 0.037896,-0.0751 0.069591,-0.13711 0.031695,-0.0627 0.10542,-0.21015 -0.031006,0.15227 -0.031006,0.37551 v 1.39389 h 0.4065213 z"
         style="font-size:2.82222223px"
         id="path7993"
         inkscape:connector-curvature="0" />
      <path
         d="m 2.3391095,367.21985 v -2.11391 h 1.4758789 v 0.33624 H 2.7428747 V 365.93 h 0.6690375 q 0.1943034,0 0.3293511,0.0772 0.1350478,0.0772 0.2032607,0.22462 0.068213,0.14676 0.068213,0.35002 0,0.20119 -0.068213,0.3452 -0.067524,0.14331 -0.2011936,0.21841 -0.1329807,0.0744 -0.325906,0.0744 z M 2.7428747,366.8843 H 3.259639 q 0.1309136,0 0.2046387,-0.0248 0.074414,-0.0255 0.108176,-0.0903 0.033762,-0.0648 0.033762,-0.18741 0,-0.18122 -0.075792,-0.24805 -0.075103,-0.0675 -0.2570041,-0.0675 H 2.7428747 Z"
         style="font-size:2.82222223px"
         id="path7995"
         inkscape:connector-curvature="0" />
      <path
         d="m 6.0970191,365.10594 v 2.11391 H 5.6932539 V 365.4532 H 4.8891686 v 1.18236 q 0,0.25632 -0.1274685,0.42306 -0.1274685,0.16674 -0.4065213,0.16674 -0.1019748,0 -0.2087728,-0.0193 v -0.33349 q 0.050298,0.008 0.1274686,0.008 0.1226454,0 0.1694987,-0.0572 0.047542,-0.0572 0.047542,-0.15709 v -1.56063 z"
         style="font-size:2.82222223px"
         id="path7997"
         inkscape:connector-curvature="0" />
      <path
         d="M 8.3191049,365.10594 H 7.7375727 l -0.7193359,1.41662 q -0.036518,0.073 -0.06339,0.1254 -0.026183,0.0524 -0.1116211,0.22187 0.031006,-0.15228 0.031006,-0.37552 v -1.38837 H 6.4677105 v 2.11391 h 0.5815322 l 0.7193359,-1.42214 q 0.037896,-0.0751 0.069591,-0.13711 0.031695,-0.0627 0.1054199,-0.21015 -0.031006,0.15227 -0.031006,0.37551 v 1.39389 h 0.4065213 z"
         style="font-size:2.82222223px"
         id="path7999"
         inkscape:connector-curvature="0" />
      <path
         d="m 8.6773949,366.11949 q 0,-0.3142 0.041341,-0.50988 0.041341,-0.19637 0.1405599,-0.31144 0.099908,-0.11575 0.2714735,-0.16536 0.1722548,-0.0496 0.4499295,-0.0496 0.2756076,0 0.4478622,0.0496 0.172255,0.0496 0.272163,0.16468 0.100597,0.11506 0.143316,0.31281 0.04272,0.19706 0.04272,0.50919 0,0.36035 -0.04341,0.57739 -0.04272,0.21704 -0.143316,0.33693 -0.09991,0.11989 -0.270096,0.16744 -0.1694984,0.0469 -0.4492402,0.0469 -0.2962782,0 -0.469222,-0.0462 -0.1722548,-0.0469 -0.2673394,-0.16605 -0.094396,-0.1192 -0.1309136,-0.33348 -0.035829,-0.21498 -0.035829,-0.58291 z m 0.4120334,0.0448 q 0,0.2639 0.017914,0.40446 0.018604,0.14056 0.068213,0.2129 0.050298,0.0717 0.1426269,0.0958 0.092329,0.0234 0.2625163,0.0234 0.1688097,0 0.2625163,-0.0255 0.093707,-0.0262 0.144005,-0.0992 0.050299,-0.0737 0.068902,-0.21222 0.0186,-0.13918 0.0186,-0.39963 0,-0.26389 -0.01998,-0.40721 -0.01998,-0.144 -0.071658,-0.21428 -0.051676,-0.0703 -0.1405599,-0.091 -0.088883,-0.0214 -0.2618273,-0.0214 -0.1777669,0 -0.2666504,0.0207 -0.088883,0.0207 -0.1384928,0.0916 -0.049609,0.0703 -0.068213,0.21084 -0.017914,0.13987 -0.017914,0.41065 z"
         style="font-size:2.82222223px"
         id="path8001"
         inkscape:connector-curvature="0" />
      <path
         d="m 11.313584,367.21985 v -1.76113 h -0.612538 v -0.35278 h 1.648134 v 0.35278 h -0.626319 v 1.76113 z"
         style="font-size:2.82222223px"
         id="path8003"
         inkscape:connector-curvature="0" />
      <path
         d="m 13.009257,365.44218 v 0.54984 h 0.990809 v 0.30248 h -0.990809 v 0.59255 h 1.050065 v 0.3328 h -1.451074 v -2.11391 h 1.442117 v 0.33624 z"
         style="font-size:2.82222223px"
         id="path8005"
         inkscape:connector-curvature="0" />
      <path
         d="m 14.756609,365.10594 v 0.86334 h 0.188792 l 0.705555,-0.86334 h 0.496783 l -0.855073,1.03008 0.945334,1.08383 h -0.513319 l -0.77928,-0.90331 h -0.188792 v 0.90331 h -0.406521 v -2.11391 z"
         style="font-size:2.82222223px"
         id="path8007"
         inkscape:connector-curvature="0" />
      <path
         d="m 17.79932,366.81608 h -0.915018 l -0.132291,0.40377 h -0.420302 l 0.7028,-2.11391 h 0.595312 l 0.71658,2.11391 h -0.412033 z m -0.09371,-0.30179 -0.366558,-1.0976 -0.361046,1.0976 z"
         style="font-size:2.82222223px"
         id="path8009"
         inkscape:connector-curvature="0" />
    </g>
  </g>
</svg>
