<?xml version="1.0" encoding="UTF-8" standalone="no"?>
<!-- Created with Inkscape (http://www.inkscape.org/) -->

<svg
   xmlns:dc="http://purl.org/dc/elements/1.1/"
   xmlns:cc="http://creativecommons.org/ns#"
   xmlns:rdf="http://www.w3.org/1999/02/22-rdf-syntax-ns#"
   xmlns:svg="http://www.w3.org/2000/svg"
   xmlns="http://www.w3.org/2000/svg"
   xmlns:sodipodi="http://sodipodi.sourceforge.net/DTD/sodipodi-0.dtd"
   xmlns:inkscape="http://www.inkscape.org/namespaces/inkscape"
   width="43pc"
   height="3pc"
   viewBox="0 0 182.0335 12.700002"
   version="1.1"
   id="svg8"
   inkscape:version="0.92.2 (5c3e80d, 2017-08-06)"
   sodipodi:docname="popVkR.svg">
  <defs
     id="defs2">
    <clipPath
       clipPathUnits="userSpaceOnUse"
       id="clipPath7909">
      <g
         id="use7911"
         inkscape:label="Clip">
        <text
           xml:space="preserve"
           style="font-style:normal;font-weight:normal;font-size:10.58333302px;line-height:1.25;font-family:sans-serif;letter-spacing:0px;word-spacing:0px;fill:#ffffff;fill-opacity:1;stroke:none;stroke-width:0.26458332"
           x="82.876579"
           y="384.59238"
           id="text335"><tspan
             sodipodi:role="line"
             id="tspan333"
             x="82.876579"
             y="384.59238"
             style="font-style:normal;font-variant:normal;font-weight:normal;font-stretch:normal;font-size:3.52777767px;font-family:EuropeDemi;-inkscape-font-specification:EuropeDemi;fill:#ffffff;stroke-width:0.26458332"><tspan
               style="font-size:2.82222223px"
               id="tspan331">ГЛАЗОВСКАЯ РАЙОННАЯ БИБЛИОТЕКА</tspan></tspan></text>
      </g>
    </clipPath>
  </defs>
  <sodipodi:namedview
     id="base"
     pagecolor="#ffffff"
     bordercolor="#666666"
     borderopacity="1.0"
     inkscape:pageopacity="0.0"
     inkscape:pageshadow="2"
     inkscape:zoom="0.577019"
     inkscape:cx="330.98144"
     inkscape:cy="-21.507628"
     inkscape:document-units="mm"
     inkscape:current-layer="layer1"
     showgrid="false"
     inkscape:lockguides="false"
     showguides="false"
     units="pc"
     inkscape:window-width="1280"
     inkscape:window-height="972"
     inkscape:window-x="-8"
     inkscape:window-y="-8"
     inkscape:window-maximized="1"
     showborder="true"
     inkscape:pagecheckerboard="true" />
  <metadata
     id="metadata5">
    <rdf:RDF>
      <cc:Work
         rdf:about="">
        <dc:format>image/svg+xml</dc:format>
        <dc:type
           rdf:resource="http://purl.org/dc/dcmitype/StillImage" />
        <dc:title></dc:title>
      </cc:Work>
    </rdf:RDF>
  </metadata>
  <g
     inkscape:label="Layer 1"
     inkscape:groupmode="layer"
     id="layer1"
     transform="translate(0,-284.29992)">
    <g
       aria-label="Поправки в Конституцию РФ"
       style="font-style:normal;font-weight:normal;font-size:47.20985794px;line-height:1.25;font-family:sans-serif;letter-spacing:0px;word-spacing:0px;fill:#ff9400;fill-opacity:1;fill-rule:nonzero;stroke:none;stroke-width:1.18024635"
       id="text4789">
      <path
         d="M 0.25406941,285.51339 H 6.6386927 v 8.86854 H 4.9325091 v -7.28896 H 1.9662819 v 7.28896 H 0.25406941 Z"
         style="font-style:normal;font-variant:normal;font-weight:bold;font-stretch:normal;font-size:12.34722233px;font-family:'Century Gothic';-inkscape-font-specification:'Century Gothic Bold';fill:#ff9400;fill-opacity:1;fill-rule:nonzero;stroke-width:1.18024635"
         id="path286" />
      <path
         d="m 11.55226,287.65366 q 0.928454,0 1.742357,0.46422 0.819933,0.46423 1.278131,1.26005 0.458198,0.79581 0.458198,1.71824 0,0.92845 -0.464227,1.73633 -0.458198,0.80787 -1.254015,1.26607 -0.795817,0.45217 -1.754415,0.45217 -1.410766,0 -2.4115665,-1.0008 -0.9947714,-1.00683 -0.9947714,-2.44171 0,-1.53738 1.1274075,-2.56229 0.9887424,-0.89228 2.2729014,-0.89228 z m 0.02412,1.54943 q -0.765672,0 -1.27813,0.53657 -0.5064294,0.53055 -0.5064294,1.36254 0,0.8561 0.5004004,1.38665 0.506429,0.53054 1.27813,0.53054 0.771702,0 1.28416,-0.53657 0.512457,-0.53658 0.512457,-1.38062 0,-0.84405 -0.506429,-1.36857 -0.5004,-0.53054 -1.284159,-0.53054 z"
         style="font-style:normal;font-variant:normal;font-weight:bold;font-stretch:normal;font-size:12.34722233px;font-family:'Century Gothic';-inkscape-font-specification:'Century Gothic Bold';fill:#ff9400;fill-opacity:1;fill-rule:nonzero;stroke-width:1.18024635"
         id="path288" />
      <path
         d="m 18.027318,294.38193 h -1.651923 v -6.55946 h 5.751587 v 6.55946 h -1.651924 v -4.97386 h -2.44774 z"
         style="font-style:normal;font-variant:normal;font-weight:bold;font-stretch:normal;font-size:12.34722233px;font-family:'Century Gothic';-inkscape-font-specification:'Century Gothic Bold';fill:#ff9400;fill-opacity:1;fill-rule:nonzero;stroke-width:1.18024635"
         id="path290" />
      <path
         d="m 25.418769,287.82247 v 0.72347 q 0.44614,-0.44614 0.964627,-0.66921 0.518487,-0.22307 1.109321,-0.22307 1.284159,0 2.182468,0.97065 0.898308,0.97066 0.898308,2.48994 0,1.46503 -0.928453,2.45377 -0.928453,0.98272 -2.200555,0.98272 -0.566718,0 -1.05506,-0.19896 -0.488342,-0.20498 -0.970656,-0.66318 v 3.09284 h -1.633836 v -8.95897 z m 1.730299,1.35047 q -0.77773,0 -1.290188,0.53055 -0.512458,0.53054 -0.512458,1.38665 0,0.87419 0.512458,1.41679 0.512458,0.53658 1.290188,0.53658 0.753615,0 1.266073,-0.54863 0.518487,-0.54864 0.518487,-1.39871 0,-0.84405 -0.506429,-1.38062 -0.506429,-0.54261 -1.278131,-0.54261 z"
         style="font-style:normal;font-variant:normal;font-weight:bold;font-stretch:normal;font-size:12.34722233px;font-family:'Century Gothic';-inkscape-font-specification:'Century Gothic Bold';fill:#ff9400;fill-opacity:1;fill-rule:nonzero;stroke-width:1.18024635"
         id="path292" />
      <path
         d="m 36.783278,287.82247 h 1.639866 v 6.55946 h -1.639866 v -0.69333 q -0.482313,0.4582 -0.970655,0.66318 -0.482314,0.19896 -1.049032,0.19896 -1.272101,0 -2.200555,-0.98272 -0.928453,-0.98874 -0.928453,-2.45377 0,-1.51928 0.898309,-2.48994 0.898308,-0.97065 2.182468,-0.97065 0.590834,0 1.109321,0.22307 0.518486,0.22307 0.958597,0.66921 z m -1.730299,1.35047 q -0.765672,0 -1.272101,0.54261 -0.506429,0.53657 -0.506429,1.38062 0,0.85007 0.512458,1.39871 0.518486,0.54863 1.272101,0.54863 0.77773,0 1.290188,-0.53658 0.512458,-0.5426 0.512458,-1.41679 0,-0.85611 -0.512458,-1.38665 -0.512458,-0.53055 -1.296217,-0.53055 z"
         style="font-style:normal;font-variant:normal;font-weight:bold;font-stretch:normal;font-size:12.34722233px;font-family:'Century Gothic';-inkscape-font-specification:'Century Gothic Bold';fill:#ff9400;fill-opacity:1;fill-rule:nonzero;stroke-width:1.18024635"
         id="path294" />
      <path
         d="m 40.087127,294.38193 v -6.55946 h 2.634637 q 1.296217,0 1.760444,0.51245 0.464226,0.50643 0.464226,1.15153 0,0.95859 -0.952568,1.38062 1.302246,0.44614 1.302246,1.68207 0,0.66921 -0.343649,1.10932 -0.343648,0.43408 -0.874193,0.57877 -0.524515,0.1447 -1.471055,0.1447 z m 1.651924,-3.97909 h 0.633036 q 0.403937,0 0.620978,-0.19895 0.22307,-0.20499 0.22307,-0.45217 0,-0.36776 -0.211012,-0.57275 -0.211012,-0.20498 -0.5004,-0.20498 l -0.211012,0.006 h -0.55466 z m 0,2.71301 h 0.825961 q 0.482314,0 0.675239,-0.22307 0.198954,-0.22909 0.198954,-0.44613 0,-0.31954 -0.22307,-0.58481 -0.217041,-0.26527 -0.789788,-0.26527 h -0.687296 z"
         style="font-style:normal;font-variant:normal;font-weight:bold;font-stretch:normal;font-size:12.34722233px;font-family:'Century Gothic';-inkscape-font-specification:'Century Gothic Bold';fill:#ff9400;fill-opacity:1;fill-rule:nonzero;stroke-width:1.18024635"
         id="path296" />
      <path
         d="m 46.69482,287.82247 h 1.645894 v 2.45376 l 2.266873,-2.45376 h 2.00763 l -2.924025,3.19532 2.960198,3.36414 h -2.182468 l -1.953369,-2.31511 -0.174839,0.20499 v 2.11012 H 46.69482 Z"
         style="font-style:normal;font-variant:normal;font-weight:bold;font-stretch:normal;font-size:12.34722233px;font-family:'Century Gothic';-inkscape-font-specification:'Century Gothic Bold';fill:#ff9400;fill-opacity:1;fill-rule:nonzero;stroke-width:1.18024635"
         id="path298" />
      <path
         d="M 54.194793,294.38193 H 53.3206 v -6.55946 h 1.603692 v 3.85247 l 3.358107,-3.85247 h 0.789788 v 6.55946 h -1.603692 v -3.7741 z"
         style="font-style:normal;font-variant:normal;font-weight:bold;font-stretch:normal;font-size:12.34722233px;font-family:'Century Gothic';-inkscape-font-specification:'Century Gothic Bold';fill:#ff9400;fill-opacity:1;fill-rule:nonzero;stroke-width:1.18024635"
         id="path300" />
      <path
         d="m 64.17868,294.38193 v -6.55946 h 2.634637 q 1.296217,0 1.760444,0.51245 0.464226,0.50643 0.464226,1.15153 0,0.95859 -0.952569,1.38062 1.302246,0.44614 1.302246,1.68207 0,0.66921 -0.343648,1.10932 -0.343648,0.43408 -0.874193,0.57877 -0.524516,0.1447 -1.471056,0.1447 z m 1.651923,-3.97909 h 0.633037 q 0.403937,0 0.620978,-0.19895 0.22307,-0.20499 0.22307,-0.45217 0,-0.36776 -0.211012,-0.57275 -0.211012,-0.20498 -0.5004,-0.20498 l -0.211012,0.006 h -0.554661 z m 0,2.71301 h 0.825962 q 0.482313,0 0.675239,-0.22307 0.198954,-0.22909 0.198954,-0.44613 0,-0.31954 -0.22307,-0.58481 -0.217041,-0.26527 -0.789788,-0.26527 h -0.687297 z"
         style="font-style:normal;font-variant:normal;font-weight:bold;font-stretch:normal;font-size:12.34722233px;font-family:'Century Gothic';-inkscape-font-specification:'Century Gothic Bold';fill:#ff9400;fill-opacity:1;fill-rule:nonzero;stroke-width:1.18024635"
         id="path302" />
      <path
         d="m 74.427842,285.51339 h 1.706183 v 3.05063 l 2.405538,-3.05063 h 2.031745 l -3.098863,3.95497 3.400309,4.91357 h -2.0016 l -2.737129,-3.93689 v 3.93689 h -1.706183 z"
         style="font-style:normal;font-variant:normal;font-weight:bold;font-stretch:normal;font-size:12.34722233px;font-family:'Century Gothic';-inkscape-font-specification:'Century Gothic Bold';fill:#ff9400;fill-opacity:1;fill-rule:nonzero;stroke-width:1.18024635"
         id="path304" />
      <path
         d="m 84.98447,287.65366 q 0.928454,0 1.742357,0.46422 0.819933,0.46423 1.278131,1.26005 0.458198,0.79581 0.458198,1.71824 0,0.92845 -0.464227,1.73633 -0.458198,0.80787 -1.254015,1.26607 -0.795817,0.45217 -1.754415,0.45217 -1.410766,0 -2.411567,-1.0008 -0.994771,-1.00683 -0.994771,-2.44171 0,-1.53738 1.127408,-2.56229 0.988742,-0.89228 2.272901,-0.89228 z m 0.02412,1.54943 q -0.765672,0 -1.27813,0.53657 -0.506429,0.53055 -0.506429,1.36254 0,0.8561 0.5004,1.38665 0.506429,0.53054 1.27813,0.53054 0.771702,0 1.284159,-0.53657 0.512458,-0.53658 0.512458,-1.38062 0,-0.84405 -0.506429,-1.36857 -0.5004,-0.53054 -1.284159,-0.53054 z"
         style="font-style:normal;font-variant:normal;font-weight:bold;font-stretch:normal;font-size:12.34722233px;font-family:'Century Gothic';-inkscape-font-specification:'Century Gothic Bold';fill:#ff9400;fill-opacity:1;fill-rule:nonzero;stroke-width:1.18024635"
         id="path306" />
      <path
         d="m 91.459531,290.1858 h 2.44774 v -2.36333 h 1.651923 v 6.55946 h -1.651923 v -2.71904 h -2.44774 v 2.71904 h -1.651924 v -6.55946 h 1.651924 z"
         style="font-style:normal;font-variant:normal;font-weight:bold;font-stretch:normal;font-size:12.34722233px;font-family:'Century Gothic';-inkscape-font-specification:'Century Gothic Bold';fill:#ff9400;fill-opacity:1;fill-rule:nonzero;stroke-width:1.18024635"
         id="path308" />
      <path
         d="m 103.63794,289.14883 -1.36856,0.75361 q -0.38585,-0.40394 -0.76567,-0.56069 -0.3738,-0.15675 -0.88022,-0.15675 -0.922429,0 -1.495176,0.55466 -0.566718,0.54863 -0.566718,1.41077 0,0.83802 0.548631,1.36856 0.548632,0.53055 1.440913,0.53055 1.10329,0 1.71824,-0.75362 l 1.29622,0.88625 q -1.05506,1.36857 -2.97829,1.36857 -1.730297,0 -2.713011,-1.02492 -0.976684,-1.02491 -0.976684,-2.39951 0,-0.95257 0.476284,-1.75441 0.476285,-0.80185 1.326362,-1.26005 0.856106,-0.45819 1.911169,-0.45819 0.97668,0 1.75441,0.39188 0.77773,0.38585 1.2721,1.10329 z"
         style="font-style:normal;font-variant:normal;font-weight:bold;font-stretch:normal;font-size:12.34722233px;font-family:'Century Gothic';-inkscape-font-specification:'Century Gothic Bold';fill:#ff9400;fill-opacity:1;fill-rule:nonzero;stroke-width:1.18024635"
         id="path310" />
      <path
         d="m 104.54228,287.82247 h 6.11332 v 1.56751 h -2.17644 v 4.99195 h -1.65192 v -4.99195 h -2.28496 z"
         style="font-style:normal;font-variant:normal;font-weight:bold;font-stretch:normal;font-size:12.34722233px;font-family:'Century Gothic';-inkscape-font-specification:'Century Gothic Bold';fill:#ff9400;fill-opacity:1;fill-rule:nonzero;stroke-width:1.18024635"
         id="path312" />
      <path
         d="m 112.60294,294.38193 h -0.87419 v -6.55946 h 1.60369 v 3.85247 l 3.35811,-3.85247 h 0.78979 v 6.55946 h -1.6037 v -3.7741 z"
         style="font-style:normal;font-variant:normal;font-weight:bold;font-stretch:normal;font-size:12.34722233px;font-family:'Century Gothic';-inkscape-font-specification:'Century Gothic Bold';fill:#ff9400;fill-opacity:1;fill-rule:nonzero;stroke-width:1.18024635"
         id="path314" />
      <path
         d="m 118.55348,287.82247 h 6.11333 v 1.56751 h -2.17644 v 4.99195 h -1.65193 v -4.99195 h -2.28496 z"
         style="font-style:normal;font-variant:normal;font-weight:bold;font-stretch:normal;font-size:12.34722233px;font-family:'Century Gothic';-inkscape-font-specification:'Century Gothic Bold';fill:#ff9400;fill-opacity:1;fill-rule:nonzero;stroke-width:1.18024635"
         id="path316" />
      <path
         d="m 125.01648,287.82247 h 1.68207 l 1.70618,4.11775 1.88102,-4.11775 h 1.6881 l -4.11172,8.95897 h -1.70016 l 1.35048,-2.88785 z"
         style="font-style:normal;font-variant:normal;font-weight:bold;font-stretch:normal;font-size:12.34722233px;font-family:'Century Gothic';-inkscape-font-specification:'Century Gothic Bold';fill:#ff9400;fill-opacity:1;fill-rule:nonzero;stroke-width:1.18024635"
         id="path318" />
      <path
         d="m 132.9023,294.38193 v -6.55946 h 1.65193 v 4.97988 h 2.44774 v -4.97988 h 1.65192 v 4.97988 h 1.67001 v 2.7311 h -1.56752 v -1.15152 z"
         style="font-style:normal;font-variant:normal;font-weight:bold;font-stretch:normal;font-size:12.34722233px;font-family:'Century Gothic';-inkscape-font-specification:'Century Gothic Bold';fill:#ff9400;fill-opacity:1;fill-rule:nonzero;stroke-width:1.18024635"
         id="path320" />
      <path
         d="m 142.0964,294.38193 h -0.8742 v -6.55946 h 1.6037 v 3.85247 l 3.3581,-3.85247 h 0.78979 v 6.55946 h -1.60369 v -3.7741 z"
         style="font-style:normal;font-variant:normal;font-weight:bold;font-stretch:normal;font-size:12.34722233px;font-family:'Century Gothic';-inkscape-font-specification:'Century Gothic Bold';fill:#ff9400;fill-opacity:1;fill-rule:nonzero;stroke-width:1.18024635"
         id="path322" />
      <path
         d="m 150.27765,294.38193 h -1.65193 v -6.55946 h 1.65193 v 2.59846 h 0.87419 q 0.30144,-1.30225 1.26004,-2.03175 0.96463,-0.73552 2.07998,-0.73552 1.44091,0 2.45377,1.0008 1.01889,0.99477 1.01889,2.44171 0,1.41679 -0.98875,2.43568 -0.98874,1.01889 -2.47788,1.01889 -1.1877,0 -2.14027,-0.74759 -0.94654,-0.75361 -1.20578,-1.87499 h -0.87419 z m 6.02891,-3.27973 q 0,-0.84405 -0.50643,-1.36857 -0.5004,-0.53054 -1.29018,-0.53054 -0.77171,0 -1.27813,0.54863 -0.5004,0.5426 -0.5004,1.34445 0,0.86213 0.5004,1.39268 0.50642,0.52451 1.27813,0.52451 0.75964,0 1.27813,-0.52451 0.51848,-0.53055 0.51848,-1.38665 z"
         style="font-style:normal;font-variant:normal;font-weight:bold;font-stretch:normal;font-size:12.34722233px;font-family:'Century Gothic';-inkscape-font-specification:'Century Gothic Bold';fill:#ff9400;fill-opacity:1;fill-rule:nonzero;stroke-width:1.18024635"
         id="path324" />
      <path
         d="m 162.93837,285.51339 h 1.79058 q 1.45297,0 2.09204,0.2713 0.64509,0.26527 1.01286,0.86817 0.37379,0.59686 0.37379,1.43488 0,0.92845 -0.48834,1.5434 -0.48232,0.61495 -1.31431,0.85611 -0.48834,0.13866 -1.77853,0.13866 v 3.75602 h -1.68809 z m 1.68809,3.46663 h 0.53658 q 0.63303,0 0.88022,-0.0904 0.24718,-0.0904 0.38585,-0.29541 0.14469,-0.21102 0.14469,-0.50643 0,-0.51246 -0.39791,-0.74759 -0.28938,-0.17484 -1.07314,-0.17484 h -0.47629 z"
         style="font-style:normal;font-variant:normal;font-weight:bold;font-stretch:normal;font-size:12.34722233px;font-family:'Century Gothic';-inkscape-font-specification:'Century Gothic Bold';fill:#ff9400;fill-opacity:1;fill-rule:nonzero;stroke-width:1.18024635"
         id="path326" />
      <path
         d="m 174.30288,285.51339 v 1.14549 h 0.37379 q 3.19533,0 3.19533,2.63464 0,0.74759 -0.25321,1.2721 -0.24719,0.51849 -0.73553,0.86214 -0.48232,0.33762 -1.0008,0.44614 -0.51246,0.10249 -1.57958,0.10249 v 2.40554 h -1.70015 v -2.40554 q -1.11535,0 -1.83279,-0.22307 -0.71142,-0.22307 -1.16961,-0.84405 -0.4582,-0.62701 -0.4582,-1.56752 0,-0.88625 0.36776,-1.49517 0.36777,-0.60892 1.03698,-0.89831 0.67523,-0.28939 2.05586,-0.28939 v -1.14549 z m -1.70015,2.70096 h -0.39188 q -0.88625,0 -1.18167,0.28938 -0.29542,0.28336 -0.29542,0.83199 0,0.6451 0.35571,0.89228 0.36173,0.24719 1.05506,0.24719 h 0.4582 z m 1.70015,0 v 2.26084 h 0.55466 q 0.85611,0 1.13344,-0.31953 0.27733,-0.31954 0.27733,-0.83199 0,-0.52452 -0.29542,-0.81391 -0.28939,-0.29541 -1.17564,-0.29541 z"
         style="font-style:normal;font-variant:normal;font-weight:bold;font-stretch:normal;font-size:12.34722233px;font-family:'Century Gothic';-inkscape-font-specification:'Century Gothic Bold';fill:#ff9400;fill-opacity:1;fill-rule:nonzero;stroke-width:1.18024635"
         id="path328" />
    </g>
  </g>
</svg>
