<?xml version="1.0" encoding="UTF-8" standalone="no"?>
<!-- Created with Inkscape (http://www.inkscape.org/) -->

<svg
   xmlns:dc="http://purl.org/dc/elements/1.1/"
   xmlns:cc="http://creativecommons.org/ns#"
   xmlns:rdf="http://www.w3.org/1999/02/22-rdf-syntax-ns#"
   xmlns:svg="http://www.w3.org/2000/svg"
   xmlns="http://www.w3.org/2000/svg"
   xmlns:sodipodi="http://sodipodi.sourceforge.net/DTD/sodipodi-0.dtd"
   xmlns:inkscape="http://www.inkscape.org/namespaces/inkscape"
   width="34pc"
   height="3pc"
   viewBox="0 0 143.93344 12.700002"
   version="1.1"
   id="svg8"
   inkscape:version="0.92.2 (5c3e80d, 2017-08-06)"
   sodipodi:docname="PravovoiNavigator.svg">
  <defs
     id="defs2">
    <clipPath
       clipPathUnits="userSpaceOnUse"
       id="clipPath7909">
      <g
         id="use7911"
         inkscape:label="Clip">
        <text
           xml:space="preserve"
           style="font-style:normal;font-weight:normal;font-size:10.58333302px;line-height:1.25;font-family:sans-serif;letter-spacing:0px;word-spacing:0px;fill:#ffffff;fill-opacity:1;stroke:none;stroke-width:0.26458332"
           x="82.876579"
           y="384.59238"
           id="text8428"><tspan
             sodipodi:role="line"
             id="tspan8426"
             x="82.876579"
             y="384.59238"
             style="font-style:normal;font-variant:normal;font-weight:normal;font-stretch:normal;font-size:3.52777767px;font-family:EuropeDemi;-inkscape-font-specification:EuropeDemi;fill:#ffffff;stroke-width:0.26458332"><tspan
               style="font-size:2.82222223px"
               id="tspan8424">ГЛАЗОВСКАЯ РАЙОННАЯ БИБЛИОТЕКА</tspan></tspan></text>
      </g>
    </clipPath>
  </defs>
  <sodipodi:namedview
     id="base"
     pagecolor="#ffffff"
     bordercolor="#666666"
     borderopacity="1.0"
     inkscape:pageopacity="0.0"
     inkscape:pageshadow="2"
     inkscape:zoom="1.154038"
     inkscape:cx="366.7049"
     inkscape:cy="-2.362767"
     inkscape:document-units="mm"
     inkscape:current-layer="layer1"
     showgrid="false"
     inkscape:lockguides="false"
     showguides="false"
     units="pc"
     inkscape:window-width="1280"
     inkscape:window-height="972"
     inkscape:window-x="-8"
     inkscape:window-y="-8"
     inkscape:window-maximized="1"
     showborder="true"
     inkscape:pagecheckerboard="true" />
  <metadata
     id="metadata5">
    <rdf:RDF>
      <cc:Work
         rdf:about="">
        <dc:format>image/svg+xml</dc:format>
        <dc:type
           rdf:resource="http://purl.org/dc/dcmitype/StillImage" />
        <dc:title></dc:title>
      </cc:Work>
    </rdf:RDF>
  </metadata>
  <g
     inkscape:label="Layer 1"
     inkscape:groupmode="layer"
     id="layer1"
     transform="translate(0,-284.29992)">
    <g
       aria-label="ПРАВОВОЙ НАВИГАТОР"
       style="font-style:normal;font-weight:normal;font-size:47.20985794px;line-height:1.25;font-family:sans-serif;letter-spacing:0px;word-spacing:0px;fill:#ff9400;fill-opacity:1;fill-rule:nonzero;stroke:none;stroke-width:1.18024635"
       id="text4789"
       transform="translate(-1.9163909,58.302273)">
      <path
         d="m 2.2451613,229.35043 h 6.3846233 v 8.86853 H 6.923601 V 230.93 H 3.9573738 v 7.28896 H 2.2451613 Z"
         style="font-style:normal;font-variant:normal;font-weight:bold;font-stretch:normal;font-size:12.34722233px;font-family:'Century Gothic';-inkscape-font-specification:'Century Gothic Bold';fill:#ff9400;fill-opacity:1;fill-rule:nonzero;stroke-width:1.18024635"
         id="path8389"
         inkscape:connector-curvature="0" />
      <path
         d="m 10.637414,229.35043 h 1.790589 q 1.452969,0 2.092034,0.2713 0.645094,0.26527 1.012858,0.86816 0.373793,0.59686 0.373793,1.43488 0,0.92846 -0.488342,1.54341 -0.482314,0.61495 -1.314304,0.8561 -0.488343,0.13867 -1.778531,0.13867 v 3.75601 h -1.688097 z m 1.688097,3.46662 h 0.536574 q 0.633036,0 0.880222,-0.0904 0.247185,-0.0904 0.38585,-0.29542 0.144694,-0.21101 0.144694,-0.50643 0,-0.51245 -0.397908,-0.74758 -0.289388,-0.17484 -1.073148,-0.17484 h -0.476284 z"
         style="font-style:normal;font-variant:normal;font-weight:bold;font-stretch:normal;font-size:12.34722233px;font-family:'Century Gothic';-inkscape-font-specification:'Century Gothic Bold';fill:#ff9400;fill-opacity:1;fill-rule:nonzero;stroke-width:1.18024635"
         id="path8391"
         inkscape:connector-curvature="0" />
      <path
         d="m 20.265595,229.35043 h 1.712212 l 3.412368,8.86853 H 23.63576 l -0.693326,-1.82676 h -3.61735 l -0.72347,1.82676 h -1.754415 z m 0.868164,2.35127 -1.181668,3.04461 h 2.357307 z"
         style="font-style:normal;font-variant:normal;font-weight:bold;font-stretch:normal;font-size:12.34722233px;font-family:'Century Gothic';-inkscape-font-specification:'Century Gothic Bold';fill:#ff9400;fill-opacity:1;fill-rule:nonzero;stroke-width:1.18024635"
         id="path8393"
         inkscape:connector-curvature="0" />
      <path
         d="m 26.704479,238.21896 v -8.86853 h 1.39268 q 1.211812,0 1.772502,0.15675 0.795817,0.21101 1.266072,0.78376 0.470256,0.57274 0.470256,1.35048 0,0.50642 -0.217041,0.92242 -0.211012,0.40997 -0.693326,0.7717 0.807875,0.37982 1.181668,0.95257 0.373793,0.56672 0.373793,1.34445 0,0.74758 -0.385851,1.36253 -0.38585,0.61495 -0.994771,0.92243 -0.608921,0.30144 -1.682068,0.30144 z m 1.688097,-7.25881 v 1.86896 h 0.367764 q 0.61495,0 0.910367,-0.25924 0.301445,-0.25925 0.301445,-0.70539 0,-0.41599 -0.283359,-0.65715 -0.283359,-0.24718 -0.862135,-0.24718 z m 0,3.37619 v 2.2729 H 28.8146 q 1.049032,0 1.410767,-0.26527 0.367764,-0.26527 0.367764,-0.7717 0,-0.57275 -0.428053,-0.90434 -0.428053,-0.33159 -1.422825,-0.33159 z"
         style="font-style:normal;font-variant:normal;font-weight:bold;font-stretch:normal;font-size:12.34722233px;font-family:'Century Gothic';-inkscape-font-specification:'Century Gothic Bold';fill:#ff9400;fill-opacity:1;fill-rule:nonzero;stroke-width:1.18024635"
         id="path8395"
         inkscape:connector-curvature="0" />
      <path
         d="m 38.05693,229.12736 q 1.881022,0 3.2315,1.36253 1.356506,1.36254 1.356506,3.32194 0,1.94131 -1.338419,3.28576 -1.332391,1.34444 -3.237529,1.34444 -1.995572,0 -3.315904,-1.38062 -1.320333,-1.38062 -1.320333,-3.27973 0,-1.2721 0.614949,-2.33922 0.61495,-1.06712 1.688097,-1.6881 1.079176,-0.627 2.321133,-0.627 z m -0.01809,1.65192 q -1.229899,0 -2.067918,0.85611 -0.83802,0.8561 -0.83802,2.17644 0,1.47105 1.055061,2.32716 0.819933,0.66921 1.881022,0.66921 1.199755,0 2.043803,-0.86817 0.844048,-0.86816 0.844048,-2.14026 0,-1.26608 -0.850077,-2.14027 -0.850077,-0.88022 -2.067919,-0.88022 z"
         style="font-style:normal;font-variant:normal;font-weight:bold;font-stretch:normal;font-size:12.34722233px;font-family:'Century Gothic';-inkscape-font-specification:'Century Gothic Bold';fill:#ff9400;fill-opacity:1;fill-rule:nonzero;stroke-width:1.18024635"
         id="path8397"
         inkscape:connector-curvature="0" />
      <path
         d="m 44.236568,238.21896 v -8.86853 h 1.39268 q 1.211813,0 1.772502,0.15675 0.795817,0.21101 1.266073,0.78376 0.470255,0.57274 0.470255,1.35048 0,0.50642 -0.217041,0.92242 -0.211012,0.40997 -0.693325,0.7717 0.807875,0.37982 1.181667,0.95257 0.373793,0.56672 0.373793,1.34445 0,0.74758 -0.38585,1.36253 -0.385851,0.61495 -0.994772,0.92243 -0.60892,0.30144 -1.682068,0.30144 z m 1.688097,-7.25881 v 1.86896 h 0.367764 q 0.61495,0 0.910367,-0.25924 0.301446,-0.25925 0.301446,-0.70539 0,-0.41599 -0.28336,-0.65715 -0.283359,-0.24718 -0.862135,-0.24718 z m 0,3.37619 v 2.2729 h 0.422025 q 1.049031,0 1.410766,-0.26527 0.367764,-0.26527 0.367764,-0.7717 0,-0.57275 -0.428053,-0.90434 -0.428053,-0.33159 -1.422825,-0.33159 z"
         style="font-style:normal;font-variant:normal;font-weight:bold;font-stretch:normal;font-size:12.34722233px;font-family:'Century Gothic';-inkscape-font-specification:'Century Gothic Bold';fill:#ff9400;fill-opacity:1;fill-rule:nonzero;stroke-width:1.18024635"
         id="path8399"
         inkscape:connector-curvature="0" />
      <path
         d="m 55.589019,229.12736 q 1.881023,0 3.2315,1.36253 1.356506,1.36254 1.356506,3.32194 0,1.94131 -1.338419,3.28576 -1.332391,1.34444 -3.237529,1.34444 -1.995571,0 -3.315904,-1.38062 -1.320333,-1.38062 -1.320333,-3.27973 0,-1.2721 0.61495,-2.33922 0.614949,-1.06712 1.688096,-1.6881 1.079177,-0.627 2.321133,-0.627 z m -0.01809,1.65192 q -1.229899,0 -2.067919,0.85611 -0.838019,0.8561 -0.838019,2.17644 0,1.47105 1.05506,2.32716 0.819933,0.66921 1.881022,0.66921 1.199755,0 2.043803,-0.86817 0.844049,-0.86816 0.844049,-2.14026 0,-1.26608 -0.850078,-2.14027 -0.850077,-0.88022 -2.067918,-0.88022 z"
         style="font-style:normal;font-variant:normal;font-weight:bold;font-stretch:normal;font-size:12.34722233px;font-family:'Century Gothic';-inkscape-font-specification:'Century Gothic Bold';fill:#ff9400;fill-opacity:1;fill-rule:nonzero;stroke-width:1.18024635"
         id="path8401"
         inkscape:connector-curvature="0" />
      <path
         d="m 68.231661,229.35043 v 8.86853 h -1.688097 v -5.55263 l -3.309876,5.55263 h -1.471055 v -8.86853 h 1.688096 v 5.7335 l 3.358107,-5.7335 z m -5.631009,-2.3754 h 1.332391 q 0.156752,0.24719 0.434082,0.3738 0.283359,0.12057 0.687296,0.12057 0.409967,0 0.741557,-0.14469 0.217041,-0.0965 0.379822,-0.34968 h 1.332391 q -0.11455,0.76568 -0.735528,1.2299 -0.61495,0.46423 -1.724271,0.46423 -0.747585,0 -1.254014,-0.20498 -0.5004,-0.21102 -0.807875,-0.59687 -0.307475,-0.38585 -0.385851,-0.89228 z"
         style="font-style:normal;font-variant:normal;font-weight:bold;font-stretch:normal;font-size:12.34722233px;font-family:'Century Gothic';-inkscape-font-specification:'Century Gothic Bold';fill:#ff9400;fill-opacity:1;fill-rule:nonzero;stroke-width:1.18024635"
         id="path8403"
         inkscape:connector-curvature="0" />
      <path
         d="m 73.699888,229.35043 h 1.712213 v 3.34605 h 2.966227 v -3.34605 h 1.706184 v 8.86853 h -1.706184 v -3.88865 h -2.966227 v 3.88865 h -1.712213 z"
         style="font-style:normal;font-variant:normal;font-weight:bold;font-stretch:normal;font-size:12.34722233px;font-family:'Century Gothic';-inkscape-font-specification:'Century Gothic Bold';fill:#ff9400;fill-opacity:1;fill-rule:nonzero;stroke-width:1.18024635"
         id="path8405"
         inkscape:connector-curvature="0" />
      <path
         d="m 84.799122,229.35043 h 1.712213 l 3.412367,8.86853 h -1.754415 l -0.693325,-1.82676 h -3.617351 l -0.72347,1.82676 h -1.754415 z m 0.868164,2.35127 -1.181667,3.04461 h 2.357306 z"
         style="font-style:normal;font-variant:normal;font-weight:bold;font-stretch:normal;font-size:12.34722233px;font-family:'Century Gothic';-inkscape-font-specification:'Century Gothic Bold';fill:#ff9400;fill-opacity:1;fill-rule:nonzero;stroke-width:1.18024635"
         id="path8407"
         inkscape:connector-curvature="0" />
      <path
         d="m 91.238007,238.21896 v -8.86853 h 1.39268 q 1.211812,0 1.772501,0.15675 0.795817,0.21101 1.266073,0.78376 0.470255,0.57274 0.470255,1.35048 0,0.50642 -0.217041,0.92242 -0.211012,0.40997 -0.693325,0.7717 0.807875,0.37982 1.181668,0.95257 0.373792,0.56672 0.373792,1.34445 0,0.74758 -0.38585,1.36253 -0.385851,0.61495 -0.994772,0.92243 -0.60892,0.30144 -1.682067,0.30144 z m 1.688096,-7.25881 v 1.86896 h 0.367764 q 0.61495,0 0.910367,-0.25924 0.301446,-0.25925 0.301446,-0.70539 0,-0.41599 -0.283359,-0.65715 -0.283359,-0.24718 -0.862136,-0.24718 z m 0,3.37619 v 2.2729 h 0.422025 q 1.049031,0 1.410766,-0.26527 0.367764,-0.26527 0.367764,-0.7717 0,-0.57275 -0.428053,-0.90434 -0.428053,-0.33159 -1.422824,-0.33159 z"
         style="font-style:normal;font-variant:normal;font-weight:bold;font-stretch:normal;font-size:12.34722233px;font-family:'Century Gothic';-inkscape-font-specification:'Century Gothic Bold';fill:#ff9400;fill-opacity:1;fill-rule:nonzero;stroke-width:1.18024635"
         id="path8409"
         inkscape:connector-curvature="0" />
      <path
         d="m 104.86336,229.35043 v 8.86853 h -1.6881 v -5.55263 l -3.309873,5.55263 h -1.471056 v -8.86853 h 1.688099 v 5.7335 l 3.3581,-5.7335 z"
         style="font-style:normal;font-variant:normal;font-weight:bold;font-stretch:normal;font-size:12.34722233px;font-family:'Century Gothic';-inkscape-font-specification:'Century Gothic Bold';fill:#ff9400;fill-opacity:1;fill-rule:nonzero;stroke-width:1.18024635"
         id="path8411"
         inkscape:connector-curvature="0" />
      <path
         d="m 106.88305,229.35043 h 4.40111 v 1.65192 h -2.7311 v 7.21661 h -1.67001 z"
         style="font-style:normal;font-variant:normal;font-weight:bold;font-stretch:normal;font-size:12.34722233px;font-family:'Century Gothic';-inkscape-font-specification:'Century Gothic Bold';fill:#ff9400;fill-opacity:1;fill-rule:nonzero;stroke-width:1.18024635"
         id="path8413"
         inkscape:connector-curvature="0" />
      <path
         d="m 115.30545,229.35043 h 1.71221 l 3.41237,8.86853 h -1.75442 l -0.69332,-1.82676 h -3.61735 l -0.72347,1.82676 h -1.75442 z m 0.86816,2.35127 -1.18167,3.04461 h 2.35731 z"
         style="font-style:normal;font-variant:normal;font-weight:bold;font-stretch:normal;font-size:12.34722233px;font-family:'Century Gothic';-inkscape-font-specification:'Century Gothic Bold';fill:#ff9400;fill-opacity:1;fill-rule:nonzero;stroke-width:1.18024635"
         id="path8415"
         inkscape:connector-curvature="0" />
      <path
         d="m 120.87014,229.35043 h 4.90151 v 1.66398 h -1.61575 v 7.20455 h -1.71221 v -7.20455 h -1.57355 z"
         style="font-style:normal;font-variant:normal;font-weight:bold;font-stretch:normal;font-size:12.34722233px;font-family:'Century Gothic';-inkscape-font-specification:'Century Gothic Bold';fill:#ff9400;fill-opacity:1;fill-rule:nonzero;stroke-width:1.18024635"
         id="path8417"
         inkscape:connector-curvature="0" />
      <path
         d="m 131.1193,229.12736 q 1.88102,0 3.2315,1.36253 1.3565,1.36254 1.3565,3.32194 0,1.94131 -1.33842,3.28576 -1.33239,1.34444 -3.23753,1.34444 -1.99557,0 -3.3159,-1.38062 -1.32033,-1.38062 -1.32033,-3.27973 0,-1.2721 0.61495,-2.33922 0.61495,-1.06712 1.68809,-1.6881 1.07918,-0.627 2.32114,-0.627 z m -0.0181,1.65192 q -1.2299,0 -2.06792,0.85611 -0.83802,0.8561 -0.83802,2.17644 0,1.47105 1.05506,2.32716 0.81994,0.66921 1.88102,0.66921 1.19976,0 2.04381,-0.86817 0.84405,-0.86816 0.84405,-2.14026 0,-1.26608 -0.85008,-2.14027 -0.85008,-0.88022 -2.06792,-0.88022 z"
         style="font-style:normal;font-variant:normal;font-weight:bold;font-stretch:normal;font-size:12.34722233px;font-family:'Century Gothic';-inkscape-font-specification:'Century Gothic Bold';fill:#ff9400;fill-opacity:1;fill-rule:nonzero;stroke-width:1.18024635"
         id="path8419"
         inkscape:connector-curvature="0" />
      <path
         d="m 137.29291,229.35043 h 1.79058 q 1.45297,0 2.09204,0.2713 0.64509,0.26527 1.01286,0.86816 0.37379,0.59686 0.37379,1.43488 0,0.92846 -0.48834,1.54341 -0.48232,0.61495 -1.31431,0.8561 -0.48834,0.13867 -1.77853,0.13867 v 3.75601 h -1.68809 z m 1.68809,3.46662 h 0.53658 q 0.63303,0 0.88022,-0.0904 0.24718,-0.0904 0.38585,-0.29542 0.14469,-0.21101 0.14469,-0.50643 0,-0.51245 -0.39791,-0.74758 -0.28938,-0.17484 -1.07314,-0.17484 H 138.981 Z"
         style="font-style:normal;font-variant:normal;font-weight:bold;font-stretch:normal;font-size:12.34722233px;font-family:'Century Gothic';-inkscape-font-specification:'Century Gothic Bold';fill:#ff9400;fill-opacity:1;fill-rule:nonzero;stroke-width:1.18024635"
         id="path8421"
         inkscape:connector-curvature="0" />
    </g>
  </g>
</svg>
