<?xml version="1.0" encoding="UTF-8" standalone="no"?>
<!-- Created with Inkscape (http://www.inkscape.org/) -->

<svg
   xmlns:dc="http://purl.org/dc/elements/1.1/"
   xmlns:cc="http://creativecommons.org/ns#"
   xmlns:rdf="http://www.w3.org/1999/02/22-rdf-syntax-ns#"
   xmlns:svg="http://www.w3.org/2000/svg"
   xmlns="http://www.w3.org/2000/svg"
   xmlns:sodipodi="http://sodipodi.sourceforge.net/DTD/sodipodi-0.dtd"
   xmlns:inkscape="http://www.inkscape.org/namespaces/inkscape"
   width="744pt"
   height="33.599998pt"
   viewBox="0 0 262.46696 11.853335"
   version="1.1"
   id="svg8"
   inkscape:version="0.92.2 (5c3e80d, 2017-08-06)"
   sodipodi:docname="SocEkonom.svg">
  <defs
     id="defs2">
    <clipPath
       clipPathUnits="userSpaceOnUse"
       id="clipPath7909">
      <g
         id="use7911"
         inkscape:label="Clip">
        <text
           xml:space="preserve"
           style="font-style:normal;font-weight:normal;font-size:10.58333302px;line-height:1.25;font-family:sans-serif;letter-spacing:0px;word-spacing:0px;fill:#ffffff;fill-opacity:1;stroke:none;stroke-width:0.26458332"
           x="82.876579"
           y="384.59238"
           id="text1278"><tspan
             sodipodi:role="line"
             id="tspan1276"
             x="82.876579"
             y="384.59238"
             style="font-style:normal;font-variant:normal;font-weight:normal;font-stretch:normal;font-size:3.52777767px;font-family:EuropeDemi;-inkscape-font-specification:EuropeDemi;fill:#ffffff;stroke-width:0.26458332"><tspan
               style="font-size:2.82222223px"
               id="tspan1274">ГЛАЗОВСКАЯ РАЙОННАЯ БИБЛИОТЕКА</tspan></tspan></text>
      </g>
    </clipPath>
  </defs>
  <sodipodi:namedview
     id="base"
     pagecolor="#ffffff"
     bordercolor="#666666"
     borderopacity="1.0"
     inkscape:pageopacity="0.0"
     inkscape:pageshadow="2"
     inkscape:zoom="0.40801405"
     inkscape:cx="508.30537"
     inkscape:cy="46.774911"
     inkscape:document-units="mm"
     inkscape:current-layer="text4789"
     showgrid="false"
     inkscape:lockguides="false"
     showguides="false"
     units="pt"
     inkscape:window-width="1280"
     inkscape:window-height="972"
     inkscape:window-x="-8"
     inkscape:window-y="-8"
     inkscape:window-maximized="1"
     showborder="true"
     inkscape:pagecheckerboard="true" />
  <metadata
     id="metadata5">
    <rdf:RDF>
      <cc:Work
         rdf:about="">
        <dc:format>image/svg+xml</dc:format>
        <dc:type
           rdf:resource="http://purl.org/dc/dcmitype/StillImage" />
        <dc:title></dc:title>
      </cc:Work>
    </rdf:RDF>
  </metadata>
  <g
     inkscape:label="Layer 1"
     inkscape:groupmode="layer"
     id="layer1"
     transform="translate(0,-285.14658)">
    <g
       aria-label="СОЦИАЛЬНО-ЭКОНОМИЧЕСКОЕ РАЗВИТИЕ"
       style="font-style:normal;font-weight:normal;font-size:47.20985794px;line-height:1.25;font-family:sans-serif;letter-spacing:0px;word-spacing:0px;fill:#ff9400;fill-opacity:1;fill-rule:nonzero;stroke:none;stroke-width:1.18024635"
       id="text4789">
      <g
         aria-label="НОВОСТИ ПРЕССЫ"
         style="font-style:normal;font-weight:normal;font-size:47.20985794px;line-height:1.25;font-family:sans-serif;letter-spacing:0px;word-spacing:0px;fill:#ff9400;fill-opacity:1;fill-rule:nonzero;stroke:none;stroke-width:1.18024635"
         id="text4840">
        <path
           d="m 75.00464,286.63897 h 1.712212 v 3.34605 h 2.966227 v -3.34605 h 1.706184 v 8.86854 h -1.706184 v -3.88865 h -2.966227 v 3.88865 H 75.00464 Z"
           style="font-style:normal;font-variant:normal;font-weight:bold;font-stretch:normal;font-size:12.34722233px;line-height:0.25;font-family:'Century Gothic';-inkscape-font-specification:'Century Gothic Bold';fill:#ff9400;fill-opacity:1;fill-rule:nonzero;stroke-width:1.18024635"
           id="path2723"
           inkscape:connector-curvature="0" />
        <path
           d="m 87.593019,286.4159 q 1.881022,0 3.231499,1.36254 1.356507,1.36253 1.356507,3.32193 0,1.94131 -1.33842,3.28576 -1.332391,1.34445 -3.237528,1.34445 -1.995572,0 -3.315905,-1.38062 -1.320333,-1.38063 -1.320333,-3.27974 0,-1.2721 0.61495,-2.33922 0.614949,-1.06711 1.688097,-1.68809 1.079176,-0.62701 2.321133,-0.62701 z m -0.01809,1.65192 q -1.229899,0 -2.067919,0.85611 -0.838019,0.85611 -0.838019,2.17644 0,1.47105 1.05506,2.32716 0.819933,0.66921 1.881023,0.66921 1.199754,0 2.043803,-0.86816 0.844048,-0.86817 0.844048,-2.14027 0,-1.26607 -0.850077,-2.14026 -0.850078,-0.88023 -2.067919,-0.88023 z"
           style="font-style:normal;font-variant:normal;font-weight:bold;font-stretch:normal;font-size:12.34722233px;line-height:0.25;font-family:'Century Gothic';-inkscape-font-specification:'Century Gothic Bold';fill:#ff9400;fill-opacity:1;fill-rule:nonzero;stroke-width:1.18024635"
           id="path2725"
           inkscape:connector-curvature="0" />
        <path
           d="m 93.772658,295.50751 v -8.86854 h 1.39268 q 1.211812,0 1.772502,0.15675 0.795817,0.21101 1.266072,0.78376 0.470256,0.57275 0.470256,1.35048 0,0.50643 -0.217041,0.92242 -0.211012,0.40997 -0.693326,0.7717 0.807875,0.37983 1.181668,0.95257 0.373793,0.56672 0.373793,1.34445 0,0.74759 -0.385851,1.36254 -0.385851,0.61495 -0.994771,0.92242 -0.608921,0.30145 -1.682068,0.30145 z m 1.688097,-7.25882 v 1.86897 h 0.367764 q 0.614949,0 0.910366,-0.25925 0.301446,-0.25924 0.301446,-0.70538 0,-0.416 -0.283359,-0.65715 -0.283359,-0.24719 -0.862135,-0.24719 z m 0,3.37619 v 2.27291 h 0.422024 q 1.049032,0 1.410767,-0.26528 0.367764,-0.26527 0.367764,-0.7717 0,-0.57274 -0.428054,-0.90433 -0.428053,-0.3316 -1.422824,-0.3316 z"
           style="font-style:normal;font-variant:normal;font-weight:bold;font-stretch:normal;font-size:12.34722233px;line-height:0.25;font-family:'Century Gothic';-inkscape-font-specification:'Century Gothic Bold';fill:#ff9400;fill-opacity:1;fill-rule:nonzero;stroke-width:1.18024635"
           id="path2727"
           inkscape:connector-curvature="0" />
        <path
           d="m 105.12511,286.4159 q 1.88102,0 3.2315,1.36254 1.3565,1.36253 1.3565,3.32193 0,1.94131 -1.33841,3.28576 -1.3324,1.34445 -3.23753,1.34445 -1.99557,0 -3.31591,-1.38062 -1.32033,-1.38063 -1.32033,-3.27974 0,-1.2721 0.61495,-2.33922 0.61495,-1.06711 1.6881,-1.68809 1.07917,-0.62701 2.32113,-0.62701 z m -0.0181,1.65192 q -1.2299,0 -2.06792,0.85611 -0.83802,0.85611 -0.83802,2.17644 0,1.47105 1.05506,2.32716 0.81994,0.66921 1.88103,0.66921 1.19975,0 2.0438,-0.86816 0.84405,-0.86817 0.84405,-2.14027 0,-1.26607 -0.85008,-2.14026 -0.85008,-0.88023 -2.06792,-0.88023 z"
           style="font-style:normal;font-variant:normal;font-weight:bold;font-stretch:normal;font-size:12.34722233px;line-height:0.25;font-family:'Century Gothic';-inkscape-font-specification:'Century Gothic Bold';fill:#ff9400;fill-opacity:1;fill-rule:nonzero;stroke-width:1.18024635"
           id="path2729"
           inkscape:connector-curvature="0" />
        <path
           d="m 119.45585,288.20046 -1.18167,1.12741 q -1.20578,-1.2721 -2.71301,-1.2721 -1.2721,0 -2.1463,0.86816 -0.86816,0.86816 -0.86816,2.14027 0,0.88625 0.38585,1.57354 0.38585,0.6873 1.09123,1.07918 0.70539,0.39188 1.56752,0.39188 0.73553,0 1.34445,-0.2713 0.60892,-0.27733 1.33842,-1.0008 l 1.14549,1.19372 q -0.98271,0.9586 -1.8569,1.33239 -0.8742,0.36777 -1.99557,0.36777 -2.06792,0 -3.38826,-1.30828 -1.3143,-1.3143 -1.3143,-3.36413 0,-1.32637 0.59686,-2.35731 0.60289,-1.03094 1.71824,-1.65795 1.12138,-0.62701 2.41157,-0.62701 1.09726,0 2.11012,0.46423 1.01889,0.46422 1.75442,1.32033 z"
           style="font-style:normal;font-variant:normal;font-weight:bold;font-stretch:normal;font-size:12.34722233px;line-height:0.25;font-family:'Century Gothic';-inkscape-font-specification:'Century Gothic Bold';fill:#ff9400;fill-opacity:1;fill-rule:nonzero;stroke-width:1.18024635"
           id="path2731"
           inkscape:connector-curvature="0" />
        <path
           d="m 120.05271,286.63897 h 4.90151 v 1.66398 h -1.61575 v 7.20456 h -1.71221 v -7.20456 h -1.57355 z"
           style="font-style:normal;font-variant:normal;font-weight:bold;font-stretch:normal;font-size:12.34722233px;line-height:0.25;font-family:'Century Gothic';-inkscape-font-specification:'Century Gothic Bold';fill:#ff9400;fill-opacity:1;fill-rule:nonzero;stroke-width:1.18024635"
           id="path2733"
           inkscape:connector-curvature="0" />
        <path
           d="m 132.57477,286.63897 v 8.86854 h -1.6881 v -5.55264 l -3.30987,5.55264 h -1.47106 v -8.86854 h 1.6881 v 5.7335 l 3.3581,-5.7335 z"
           style="font-style:normal;font-variant:normal;font-weight:bold;font-stretch:normal;font-size:12.34722233px;line-height:0.25;font-family:'Century Gothic';-inkscape-font-specification:'Century Gothic Bold';fill:#ff9400;fill-opacity:1;fill-rule:nonzero;stroke-width:1.18024635"
           id="path2735"
           inkscape:connector-curvature="0" />
        <path
           d="m 138.043,286.63897 h 6.38462 v 8.86854 h -1.70618 v -7.28896 h -2.96623 v 7.28896 H 138.043 Z"
           style="font-style:normal;font-variant:normal;font-weight:bold;font-stretch:normal;font-size:12.34722233px;line-height:0.25;font-family:'Century Gothic';-inkscape-font-specification:'Century Gothic Bold';fill:#ff9400;fill-opacity:1;fill-rule:nonzero;stroke-width:1.18024635"
           id="path2737"
           inkscape:connector-curvature="0" />
        <path
           d="m 146.43525,286.63897 h 1.79059 q 1.45297,0 2.09203,0.2713 0.6451,0.26527 1.01286,0.86817 0.37379,0.59686 0.37379,1.43488 0,0.92845 -0.48834,1.5434 -0.48231,0.61495 -1.3143,0.85611 -0.48834,0.13866 -1.77853,0.13866 v 3.75602 h -1.6881 z m 1.6881,3.46663 h 0.53657 q 0.63304,0 0.88022,-0.0904 0.24719,-0.0904 0.38585,-0.29541 0.1447,-0.21102 0.1447,-0.50643 0,-0.51246 -0.39791,-0.74759 -0.28939,-0.17484 -1.07315,-0.17484 h -0.47628 z"
           style="font-style:normal;font-variant:normal;font-weight:bold;font-stretch:normal;font-size:12.34722233px;line-height:0.25;font-family:'Century Gothic';-inkscape-font-specification:'Century Gothic Bold';fill:#ff9400;fill-opacity:1;fill-rule:nonzero;stroke-width:1.18024635"
           id="path2739"
           inkscape:connector-curvature="0" />
        <path
           d="m 153.3685,286.63897 h 4.84122 v 1.65192 h -3.16518 v 1.6037 h 3.16518 v 1.62177 h -3.16518 v 2.3332 h 3.16518 v 1.65795 h -4.84122 z"
           style="font-style:normal;font-variant:normal;font-weight:bold;font-stretch:normal;font-size:12.34722233px;line-height:0.25;font-family:'Century Gothic';-inkscape-font-specification:'Century Gothic Bold';fill:#ff9400;fill-opacity:1;fill-rule:nonzero;stroke-width:1.18024635"
           id="path2741"
           inkscape:connector-curvature="0" />
        <path
           d="m 167.92834,288.20046 -1.18166,1.12741 q -1.20579,-1.2721 -2.71302,-1.2721 -1.2721,0 -2.14629,0.86816 -0.86817,0.86816 -0.86817,2.14027 0,0.88625 0.38585,1.57354 0.38586,0.6873 1.09124,1.07918 0.70538,0.39188 1.56752,0.39188 0.73553,0 1.34445,-0.2713 0.60892,-0.27733 1.33842,-1.0008 l 1.14549,1.19372 q -0.98271,0.9586 -1.85691,1.33239 -0.87419,0.36777 -1.99557,0.36777 -2.06792,0 -3.38825,-1.30828 -1.3143,-1.3143 -1.3143,-3.36413 0,-1.32637 0.59686,-2.35731 0.60289,-1.03094 1.71824,-1.65795 1.12138,-0.62701 2.41157,-0.62701 1.09726,0 2.11012,0.46423 1.01889,0.46422 1.75441,1.32033 z"
           style="font-style:normal;font-variant:normal;font-weight:bold;font-stretch:normal;font-size:12.34722233px;line-height:0.25;font-family:'Century Gothic';-inkscape-font-specification:'Century Gothic Bold';fill:#ff9400;fill-opacity:1;fill-rule:nonzero;stroke-width:1.18024635"
           id="path2743"
           inkscape:connector-curvature="0" />
        <path
           d="m 177.55049,288.20046 -1.18167,1.12741 q -1.20578,-1.2721 -2.71301,-1.2721 -1.2721,0 -2.1463,0.86816 -0.86816,0.86816 -0.86816,2.14027 0,0.88625 0.38585,1.57354 0.38585,0.6873 1.09124,1.07918 0.70538,0.39188 1.56751,0.39188 0.73553,0 1.34445,-0.2713 0.60892,-0.27733 1.33842,-1.0008 l 1.1455,1.19372 q -0.98272,0.9586 -1.85691,1.33239 -0.87419,0.36777 -1.99557,0.36777 -2.06792,0 -3.38825,-1.30828 -1.31431,-1.3143 -1.31431,-3.36413 0,-1.32637 0.59687,-2.35731 0.60289,-1.03094 1.71824,-1.65795 1.12138,-0.62701 2.41156,-0.62701 1.09727,0 2.11012,0.46423 1.01889,0.46422 1.75442,1.32033 z"
           style="font-style:normal;font-variant:normal;font-weight:bold;font-stretch:normal;font-size:12.34722233px;line-height:0.25;font-family:'Century Gothic';-inkscape-font-specification:'Century Gothic Bold';fill:#ff9400;fill-opacity:1;fill-rule:nonzero;stroke-width:1.18024635"
           id="path2745"
           inkscape:connector-curvature="0" />
        <path
           d="m 185.78599,286.63897 h 1.67604 v 8.86854 h -1.67604 z m -6.77047,8.86854 v -8.86854 h 1.6881 v 3.34605 h 0.36776 q 1.05506,0 1.75441,0.24718 0.70539,0.24116 1.21785,0.92846 0.51245,0.68127 0.51245,1.64589 0,0.91037 -0.44011,1.54341 -0.44011,0.63303 -1.02491,0.8983 -0.57878,0.25925 -1.59164,0.25925 z m 1.6881,-4.01526 v 2.40554 h 0.42202 q 1.04903,0 1.40474,-0.25925 0.3557,-0.25924 0.3557,-0.88625 0,-1.26004 -1.83279,-1.26004 z"
           style="font-style:normal;font-variant:normal;font-weight:bold;font-stretch:normal;font-size:12.34722233px;line-height:0.25;font-family:'Century Gothic';-inkscape-font-specification:'Century Gothic Bold';fill:#ff9400;fill-opacity:1;fill-rule:nonzero;stroke-width:1.18024635"
           id="path2747"
           inkscape:connector-curvature="0" />
      </g>
    </g>
  </g>
</svg>
