<?xml version="1.0" encoding="UTF-8" standalone="no"?>
<!-- Created with Inkscape (http://www.inkscape.org/) -->

<svg
   xmlns:dc="http://purl.org/dc/elements/1.1/"
   xmlns:cc="http://creativecommons.org/ns#"
   xmlns:rdf="http://www.w3.org/1999/02/22-rdf-syntax-ns#"
   xmlns:svg="http://www.w3.org/2000/svg"
   xmlns="http://www.w3.org/2000/svg"
   xmlns:sodipodi="http://sodipodi.sourceforge.net/DTD/sodipodi-0.dtd"
   xmlns:inkscape="http://www.inkscape.org/namespaces/inkscape"
   width="62pc"
   height="2.8pc"
   viewBox="0 0 262.46696 11.853335"
   version="1.1"
   id="svg8"
   inkscape:version="0.92.2 (5c3e80d, 2017-08-06)"
   sodipodi:docname="SocEkonom.svg">
  <defs
     id="defs2">
    <clipPath
       clipPathUnits="userSpaceOnUse"
       id="clipPath7909">
      <g
         id="use7911"
         inkscape:label="Clip">
        <text
           xml:space="preserve"
           style="font-style:normal;font-weight:normal;font-size:10.58333302px;line-height:1.25;font-family:sans-serif;letter-spacing:0px;word-spacing:0px;fill:#ffffff;fill-opacity:1;stroke:none;stroke-width:0.26458332"
           x="82.876579"
           y="384.59238"
           id="text1278"><tspan
             sodipodi:role="line"
             id="tspan1276"
             x="82.876579"
             y="384.59238"
             style="font-style:normal;font-variant:normal;font-weight:normal;font-stretch:normal;font-size:3.52777767px;font-family:EuropeDemi;-inkscape-font-specification:EuropeDemi;fill:#ffffff;stroke-width:0.26458332"><tspan
               style="font-size:2.82222223px"
               id="tspan1274">ГЛАЗОВСКАЯ РАЙОННАЯ БИБЛИОТЕКА</tspan></tspan></text>
      </g>
    </clipPath>
  </defs>
  <sodipodi:namedview
     id="base"
     pagecolor="#ffffff"
     bordercolor="#666666"
     borderopacity="1.0"
     inkscape:pageopacity="0.0"
     inkscape:pageshadow="2"
     inkscape:zoom="0.40801405"
     inkscape:cx="428.0641"
     inkscape:cy="228.51283"
     inkscape:document-units="mm"
     inkscape:current-layer="layer1"
     showgrid="false"
     inkscape:lockguides="false"
     showguides="false"
     units="pc"
     inkscape:window-width="1280"
     inkscape:window-height="972"
     inkscape:window-x="-8"
     inkscape:window-y="-8"
     inkscape:window-maximized="1"
     showborder="true"
     inkscape:pagecheckerboard="true" />
  <metadata
     id="metadata5">
    <rdf:RDF>
      <cc:Work
         rdf:about="">
        <dc:format>image/svg+xml</dc:format>
        <dc:type
           rdf:resource="http://purl.org/dc/dcmitype/StillImage" />
        <dc:title></dc:title>
      </cc:Work>
    </rdf:RDF>
  </metadata>
  <g
     inkscape:label="Layer 1"
     inkscape:groupmode="layer"
     id="layer1"
     transform="translate(0,-285.14658)">
    <g
       aria-label="СОЦИАЛЬНО-ЭКОНОМИЧЕСКОЕ РАЗВИТИЕ"
       style="font-style:normal;font-weight:normal;font-size:47.20985794px;line-height:1.25;font-family:sans-serif;letter-spacing:0px;word-spacing:0px;fill:#ff9400;fill-opacity:1;fill-rule:nonzero;stroke:none;stroke-width:1.18024635"
       id="text4789">
      <path
         d="m 8.9178085,288.11196 -1.1816677,1.12741 q -1.2057835,-1.27211 -2.7130127,-1.27211 -1.2721016,0 -2.1462945,0.86817 -0.8681641,0.86816 -0.8681641,2.14026 0,0.88626 0.3858507,1.57355 0.3858507,0.6873 1.091234,1.07918 0.7053833,0.39188 1.5675184,0.39188 0.7355279,0 1.3444486,-0.2713 0.6089206,-0.27733 1.3384196,-1.0008 l 1.1454942,1.19372 q -0.9827135,0.9586 -1.8569064,1.33239 -0.874193,0.36777 -1.9955716,0.36777 -2.0679186,0 -3.3882515,-1.30828 -1.3143039,-1.3143 -1.3143039,-3.36413 0,-1.32637 0.5968628,-2.35731 0.6028917,-1.03095 1.7182414,-1.65795 1.1213786,-0.62701 2.4115668,-0.62701 1.097263,0 2.110121,0.46423 1.018887,0.46422 1.7544149,1.32033 z"
         style="font-style:normal;font-variant:normal;font-weight:bold;font-stretch:normal;font-size:12.34722233px;font-family:'Century Gothic';-inkscape-font-specification:'Century Gothic Bold';fill:#ff9400;fill-opacity:1;fill-rule:nonzero;stroke-width:1.18024635"
         id="path1211" />
      <path
         d="m 14.578961,286.3274 q 1.881022,0 3.2315,1.36253 1.356506,1.36254 1.356506,3.32194 0,1.94131 -1.338419,3.28576 -1.332391,1.34445 -3.237529,1.34445 -1.995571,0 -3.315904,-1.38063 -1.3203331,-1.38062 -1.3203331,-3.27973 0,-1.2721 0.6149491,-2.33922 0.61495,-1.06711 1.688097,-1.68809 1.079176,-0.62701 2.321133,-0.62701 z m -0.01809,1.65192 q -1.2299,0 -2.067919,0.85611 -0.838019,0.85611 -0.838019,2.17644 0,1.47105 1.05506,2.32716 0.819933,0.66921 1.881022,0.66921 1.199755,0 2.043803,-0.86816 0.844048,-0.86817 0.844048,-2.14027 0,-1.26607 -0.850077,-2.14027 -0.850077,-0.88022 -2.067918,-0.88022 z"
         style="font-style:normal;font-variant:normal;font-weight:bold;font-stretch:normal;font-size:12.34722233px;font-family:'Century Gothic';-inkscape-font-specification:'Century Gothic Bold';fill:#ff9400;fill-opacity:1;fill-rule:nonzero;stroke-width:1.18024635"
         id="path1213" />
      <path
         d="m 20.752574,295.41901 v -8.86854 h 1.712212 v 7.34925 h 2.966227 v -7.34925 h 1.706184 v 7.34925 h 1.802646 v 2.84565 h -1.579576 v -1.32636 z"
         style="font-style:normal;font-variant:normal;font-weight:bold;font-stretch:normal;font-size:12.34722233px;font-family:'Century Gothic';-inkscape-font-specification:'Century Gothic Bold';fill:#ff9400;fill-opacity:1;fill-rule:nonzero;stroke-width:1.18024635"
         id="path1215" />
      <path
         d="m 36.482018,286.55047 v 8.86854 h -1.688097 v -5.55264 l -3.309876,5.55264 H 30.01299 v -8.86854 h 1.688096 v 5.7335 l 3.358107,-5.7335 z"
         style="font-style:normal;font-variant:normal;font-weight:bold;font-stretch:normal;font-size:12.34722233px;font-family:'Century Gothic';-inkscape-font-specification:'Century Gothic Bold';fill:#ff9400;fill-opacity:1;fill-rule:nonzero;stroke-width:1.18024635"
         id="path1217" />
      <path
         d="M 41.208688,286.55047 H 42.9209 l 3.412367,8.86854 h -1.754415 l -0.693325,-1.82677 h -3.61735 l -0.72347,1.82677 h -1.754415 z m 0.868164,2.35128 -1.181668,3.0446 h 2.357307 z"
         style="font-style:normal;font-variant:normal;font-weight:bold;font-stretch:normal;font-size:12.34722233px;font-family:'Century Gothic';-inkscape-font-specification:'Century Gothic Bold';fill:#ff9400;fill-opacity:1;fill-rule:nonzero;stroke-width:1.18024635"
         id="path1219" />
      <path
         d="m 53.387101,295.41901 -2.453769,-6.51726 -2.495972,6.51726 h -1.790588 l 3.418396,-8.86854 h 1.712212 l 3.412367,8.86854 z"
         style="font-style:normal;font-variant:normal;font-weight:bold;font-stretch:normal;font-size:12.34722233px;font-family:'Century Gothic';-inkscape-font-specification:'Century Gothic Bold';fill:#ff9400;fill-opacity:1;fill-rule:nonzero;stroke-width:1.18024635"
         id="path1221" />
      <path
         d="m 56.202605,295.41901 v -8.86854 h 1.688097 v 3.34605 h 0.367764 q 1.05506,0 1.754415,0.24718 0.705383,0.24116 1.217841,0.92846 0.512458,0.68126 0.512458,1.64589 0,0.91037 -0.440111,1.5434 -0.440111,0.63304 -1.024916,0.89831 -0.578776,0.25925 -1.591634,0.25925 z m 1.688097,-4.01526 v 2.40554 h 0.422024 q 1.049031,0 1.404738,-0.25925 0.355706,-0.25924 0.355706,-0.88625 0,-1.26004 -1.832791,-1.26004 z"
         style="font-style:normal;font-variant:normal;font-weight:bold;font-stretch:normal;font-size:12.34722233px;font-family:'Century Gothic';-inkscape-font-specification:'Century Gothic Bold';fill:#ff9400;fill-opacity:1;fill-rule:nonzero;stroke-width:1.18024635"
         id="path1223" />
      <path
         d="m 63.220267,286.55047 h 1.712212 v 3.34605 h 2.966228 v -3.34605 h 1.706183 v 8.86854 h -1.706183 v -3.88866 h -2.966228 v 3.88866 h -1.712212 z"
         style="font-style:normal;font-variant:normal;font-weight:bold;font-stretch:normal;font-size:12.34722233px;font-family:'Century Gothic';-inkscape-font-specification:'Century Gothic Bold';fill:#ff9400;fill-opacity:1;fill-rule:nonzero;stroke-width:1.18024635"
         id="path1225" />
      <path
         d="m 75.808647,286.3274 q 1.881022,0 3.2315,1.36253 1.356506,1.36254 1.356506,3.32194 0,1.94131 -1.33842,3.28576 -1.33239,1.34445 -3.237528,1.34445 -1.995572,0 -3.315904,-1.38063 -1.320333,-1.38062 -1.320333,-3.27973 0,-1.2721 0.614949,-2.33922 0.61495,-1.06711 1.688097,-1.68809 1.079176,-0.62701 2.321133,-0.62701 z m -0.01809,1.65192 q -1.229899,0 -2.067918,0.85611 -0.83802,0.85611 -0.83802,2.17644 0,1.47105 1.055061,2.32716 0.819933,0.66921 1.881022,0.66921 1.199754,0 2.043803,-0.86816 0.844048,-0.86817 0.844048,-2.14027 0,-1.26607 -0.850077,-2.14027 -0.850077,-0.88022 -2.067919,-0.88022 z"
         style="font-style:normal;font-variant:normal;font-weight:bold;font-stretch:normal;font-size:12.34722233px;font-family:'Century Gothic';-inkscape-font-specification:'Century Gothic Bold';fill:#ff9400;fill-opacity:1;fill-rule:nonzero;stroke-width:1.18024635"
         id="path1227" />
      <path
         d="m 82.036517,291.38566 h 3.06269 v 1.53135 h -3.06269 z"
         style="font-style:normal;font-variant:normal;font-weight:bold;font-stretch:normal;font-size:12.34722233px;font-family:'Century Gothic';-inkscape-font-specification:'Century Gothic Bold';fill:#ff9400;fill-opacity:1;fill-rule:nonzero;stroke-width:1.18024635"
         id="path1229" />
      <path
         d="m 87.800161,292.7482 -1.145495,1.19372 q 1.036974,1.02492 1.941312,1.36254 0.904337,0.33762 1.911166,0.33762 2.11615,0 3.406339,-1.33239 1.296217,-1.33842 1.296217,-3.34002 0,-2.08601 -1.416796,-3.36414 -1.416795,-1.27813 -3.309875,-1.27813 -1.073147,0 -2.110121,0.46423 -1.036974,0.46422 -1.754415,1.32033 l 1.181668,1.12741 q 1.175639,-1.27211 2.713012,-1.27211 1.121379,0 1.959398,0.70539 0.844049,0.70538 0.964627,1.61575 h -3.400309 v 1.53737 h 3.400309 q -0.343648,1.15152 -1.163581,1.67604 -0.819933,0.51849 -1.790588,0.51849 -1.452969,0 -2.682868,-1.2721 z"
         style="font-style:normal;font-variant:normal;font-weight:bold;font-stretch:normal;font-size:12.34722233px;font-family:'Century Gothic';-inkscape-font-specification:'Century Gothic Bold';fill:#ff9400;fill-opacity:1;fill-rule:nonzero;stroke-width:1.18024635"
         id="path1231" />
      <path
         d="m 96.807365,286.55047 h 1.706184 v 3.05063 l 2.405541,-3.05063 h 2.03174 l -3.098861,3.95497 3.400311,4.91357 h -2.0016 l -2.737131,-3.93689 v 3.93689 h -1.706184 z"
         style="font-style:normal;font-variant:normal;font-weight:bold;font-stretch:normal;font-size:12.34722233px;font-family:'Century Gothic';-inkscape-font-specification:'Century Gothic Bold';fill:#ff9400;fill-opacity:1;fill-rule:nonzero;stroke-width:1.18024635"
         id="path1233" />
      <path
         d="m 108.65418,286.3274 q 1.88102,0 3.2315,1.36253 1.35651,1.36254 1.35651,3.32194 0,1.94131 -1.33842,3.28576 -1.33239,1.34445 -3.23753,1.34445 -1.99557,0 -3.3159,-1.38063 -1.32034,-1.38062 -1.32034,-3.27973 0,-1.2721 0.61495,-2.33922 0.61495,-1.06711 1.6881,-1.68809 1.07918,-0.62701 2.32113,-0.62701 z m -0.0181,1.65192 q -1.2299,0 -2.06792,0.85611 -0.83802,0.85611 -0.83802,2.17644 0,1.47105 1.05506,2.32716 0.81993,0.66921 1.88102,0.66921 1.19975,0 2.0438,-0.86816 0.84405,-0.86817 0.84405,-2.14027 0,-1.26607 -0.85008,-2.14027 -0.85007,-0.88022 -2.06791,-0.88022 z"
         style="font-style:normal;font-variant:normal;font-weight:bold;font-stretch:normal;font-size:12.34722233px;font-family:'Century Gothic';-inkscape-font-specification:'Century Gothic Bold';fill:#ff9400;fill-opacity:1;fill-rule:nonzero;stroke-width:1.18024635"
         id="path1235" />
      <path
         d="m 114.8278,286.55047 h 1.71221 v 3.34605 h 2.96623 v -3.34605 h 1.70618 v 8.86854 h -1.70618 v -3.88866 h -2.96623 v 3.88866 h -1.71221 z"
         style="font-style:normal;font-variant:normal;font-weight:bold;font-stretch:normal;font-size:12.34722233px;font-family:'Century Gothic';-inkscape-font-specification:'Century Gothic Bold';fill:#ff9400;fill-opacity:1;fill-rule:nonzero;stroke-width:1.18024635"
         id="path1237" />
      <path
         d="m 127.41618,286.3274 q 1.88102,0 3.2315,1.36253 1.3565,1.36254 1.3565,3.32194 0,1.94131 -1.33842,3.28576 -1.33239,1.34445 -3.23753,1.34445 -1.99557,0 -3.3159,-1.38063 -1.32033,-1.38062 -1.32033,-3.27973 0,-1.2721 0.61495,-2.33922 0.61495,-1.06711 1.68809,-1.68809 1.07918,-0.62701 2.32114,-0.62701 z m -0.0181,1.65192 q -1.2299,0 -2.06792,0.85611 -0.83802,0.85611 -0.83802,2.17644 0,1.47105 1.05506,2.32716 0.81993,0.66921 1.88102,0.66921 1.19976,0 2.04381,-0.86816 0.84404,-0.86817 0.84404,-2.14027 0,-1.26607 -0.85007,-2.14027 -0.85008,-0.88022 -2.06792,-0.88022 z"
         style="font-style:normal;font-variant:normal;font-weight:bold;font-stretch:normal;font-size:12.34722233px;font-family:'Century Gothic';-inkscape-font-specification:'Century Gothic Bold';fill:#ff9400;fill-opacity:1;fill-rule:nonzero;stroke-width:1.18024635"
         id="path1239" />
      <path
         d="m 134.45192,286.55047 h 1.65192 l 2.04984,6.18567 2.07997,-6.18567 h 1.62781 l 1.49517,8.86854 h -1.62781 l -0.95257,-5.60087 -1.88705,5.60087 h -1.48914 l -1.86293,-5.60087 -0.97066,5.60087 h -1.64589 z"
         style="font-style:normal;font-variant:normal;font-weight:bold;font-stretch:normal;font-size:12.34722233px;font-family:'Century Gothic';-inkscape-font-specification:'Century Gothic Bold';fill:#ff9400;fill-opacity:1;fill-rule:nonzero;stroke-width:1.18024635"
         id="path1241" />
      <path
         d="m 151.17614,286.55047 v 8.86854 h -1.6881 v -5.55264 l -3.30987,5.55264 h -1.47106 v -8.86854 h 1.6881 v 5.7335 l 3.3581,-5.7335 z"
         style="font-style:normal;font-variant:normal;font-weight:bold;font-stretch:normal;font-size:12.34722233px;font-family:'Century Gothic';-inkscape-font-specification:'Century Gothic Bold';fill:#ff9400;fill-opacity:1;fill-rule:nonzero;stroke-width:1.18024635"
         id="path1243" />
      <path
         d="m 157.08447,291.53638 h -0.56672 q -1.22387,0 -1.80867,-0.1266 -0.57878,-0.12661 -1.10932,-0.53658 -0.53055,-0.41599 -0.74759,-1.0008 -0.21704,-0.59083 -0.21704,-1.56149 v -1.76044 h 1.71221 v 1.7303 q 0,0.90434 0.32556,1.26004 0.32556,0.35571 1.38665,0.35571 h 1.02492 v -3.34605 h 1.70015 v 8.86854 h -1.70015 z"
         style="font-style:normal;font-variant:normal;font-weight:bold;font-stretch:normal;font-size:12.34722233px;font-family:'Century Gothic';-inkscape-font-specification:'Century Gothic Bold';fill:#ff9400;fill-opacity:1;fill-rule:nonzero;stroke-width:1.18024635"
         id="path1245" />
      <path
         d="m 160.82844,286.55047 h 4.84122 v 1.65192 h -3.16518 v 1.60369 h 3.16518 v 1.62178 h -3.16518 v 2.33319 h 3.16518 v 1.65796 h -4.84122 z"
         style="font-style:normal;font-variant:normal;font-weight:bold;font-stretch:normal;font-size:12.34722233px;font-family:'Century Gothic';-inkscape-font-specification:'Century Gothic Bold';fill:#ff9400;fill-opacity:1;fill-rule:nonzero;stroke-width:1.18024635"
         id="path1247" />
      <path
         d="m 175.38827,288.11196 -1.18167,1.12741 q -1.20578,-1.27211 -2.71301,-1.27211 -1.2721,0 -2.1463,0.86817 -0.86816,0.86816 -0.86816,2.14026 0,0.88626 0.38585,1.57355 0.38585,0.6873 1.09123,1.07918 0.70539,0.39188 1.56752,0.39188 0.73553,0 1.34445,-0.2713 0.60892,-0.27733 1.33842,-1.0008 l 1.14549,1.19372 q -0.98271,0.9586 -1.8569,1.33239 -0.8742,0.36777 -1.99557,0.36777 -2.06792,0 -3.38826,-1.30828 -1.3143,-1.3143 -1.3143,-3.36413 0,-1.32637 0.59686,-2.35731 0.6029,-1.03095 1.71824,-1.65795 1.12138,-0.62701 2.41157,-0.62701 1.09726,0 2.11012,0.46423 1.01889,0.46422 1.75442,1.32033 z"
         style="font-style:normal;font-variant:normal;font-weight:bold;font-stretch:normal;font-size:12.34722233px;font-family:'Century Gothic';-inkscape-font-specification:'Century Gothic Bold';fill:#ff9400;fill-opacity:1;fill-rule:nonzero;stroke-width:1.18024635"
         id="path1249" />
      <path
         d="m 176.87138,286.55047 h 1.70618 v 3.05063 l 2.40554,-3.05063 h 2.03174 l -3.09886,3.95497 3.40031,4.91357 h -2.0016 l -2.73713,-3.93689 v 3.93689 h -1.70618 z"
         style="font-style:normal;font-variant:normal;font-weight:bold;font-stretch:normal;font-size:12.34722233px;font-family:'Century Gothic';-inkscape-font-specification:'Century Gothic Bold';fill:#ff9400;fill-opacity:1;fill-rule:nonzero;stroke-width:1.18024635"
         id="path1251" />
      <path
         d="m 188.71821,286.3274 q 1.88102,0 3.2315,1.36253 1.3565,1.36254 1.3565,3.32194 0,1.94131 -1.33842,3.28576 -1.33239,1.34445 -3.23752,1.34445 -1.99558,0 -3.31591,-1.38063 -1.32033,-1.38062 -1.32033,-3.27973 0,-1.2721 0.61495,-2.33922 0.61495,-1.06711 1.6881,-1.68809 1.07917,-0.62701 2.32113,-0.62701 z m -0.0181,1.65192 q -1.2299,0 -2.06792,0.85611 -0.83802,0.85611 -0.83802,2.17644 0,1.47105 1.05506,2.32716 0.81994,0.66921 1.88103,0.66921 1.19975,0 2.0438,-0.86816 0.84405,-0.86817 0.84405,-2.14027 0,-1.26607 -0.85008,-2.14027 -0.85008,-0.88022 -2.06792,-0.88022 z"
         style="font-style:normal;font-variant:normal;font-weight:bold;font-stretch:normal;font-size:12.34722233px;font-family:'Century Gothic';-inkscape-font-specification:'Century Gothic Bold';fill:#ff9400;fill-opacity:1;fill-rule:nonzero;stroke-width:1.18024635"
         id="path1253" />
      <path
         d="m 194.90388,286.55047 h 4.84122 v 1.65192 h -3.16519 v 1.60369 h 3.16519 v 1.62178 h -3.16519 v 2.33319 h 3.16519 v 1.65796 h -4.84122 z"
         style="font-style:normal;font-variant:normal;font-weight:bold;font-stretch:normal;font-size:12.34722233px;font-family:'Century Gothic';-inkscape-font-specification:'Century Gothic Bold';fill:#ff9400;fill-opacity:1;fill-rule:nonzero;stroke-width:1.18024635"
         id="path1255" />
      <path
         d="m 204.75513,286.55047 h 1.79059 q 1.45297,0 2.09203,0.2713 0.6451,0.26527 1.01286,0.86816 0.37379,0.59687 0.37379,1.43489 0,0.92845 -0.48834,1.5434 -0.48231,0.61495 -1.3143,0.85611 -0.48835,0.13866 -1.77853,0.13866 v 3.75602 h -1.6881 z m 1.6881,3.46663 h 0.53657 q 0.63304,0 0.88022,-0.0904 0.24719,-0.0904 0.38585,-0.29541 0.1447,-0.21102 0.1447,-0.50643 0,-0.51246 -0.39791,-0.74759 -0.28939,-0.17484 -1.07315,-0.17484 h -0.47628 z"
         style="font-style:normal;font-variant:normal;font-weight:bold;font-stretch:normal;font-size:12.34722233px;font-family:'Century Gothic';-inkscape-font-specification:'Century Gothic Bold';fill:#ff9400;fill-opacity:1;fill-rule:nonzero;stroke-width:1.18024635"
         id="path1257" />
      <path
         d="m 214.3833,286.55047 h 1.71221 l 3.41237,8.86854 h -1.75441 l -0.69333,-1.82677 h -3.61735 l -0.72347,1.82677 h -1.75441 z m 0.86817,2.35128 -1.18167,3.0446 h 2.3573 z"
         style="font-style:normal;font-variant:normal;font-weight:bold;font-stretch:normal;font-size:12.34722233px;font-family:'Century Gothic';-inkscape-font-specification:'Century Gothic Bold';fill:#ff9400;fill-opacity:1;fill-rule:nonzero;stroke-width:1.18024635"
         id="path1259" />
      <path
         d="m 221.24422,293.10993 q 0.66921,0.93448 1.56752,0.93448 0.59686,0 0.96462,-0.33762 0.36777,-0.33762 0.36777,-0.8983 0,-0.54864 -0.36174,-0.91037 -0.3557,-0.36174 -1.48311,-0.36174 h -0.36174 v -1.50723 h 0.36174 q 0.66921,0 1.01286,-0.30747 0.34967,-0.30748 0.34967,-0.82596 0,-0.47629 -0.28938,-0.75362 -0.28939,-0.27733 -0.76568,-0.27733 -0.56672,0 -1.16358,0.56069 l -0.99477,-1.10932 q 0.80185,-0.72347 1.33842,-0.86213 0.53657,-0.1447 0.98874,-0.1447 1.08521,0 1.82074,0.63304 0.74155,0.63304 0.74155,1.70618 0,0.47629 -0.16881,0.92846 -0.16278,0.45216 -0.92242,0.95859 1.55546,0.69333 1.55546,2.36937 0,1.23593 -0.83199,1.98954 -0.82596,0.74759 -2.12821,0.74759 -0.81993,0 -1.47106,-0.29542 -0.65112,-0.30145 -1.41679,-1.29019 z"
         style="font-style:normal;font-variant:normal;font-weight:bold;font-stretch:normal;font-size:12.34722233px;font-family:'Century Gothic';-inkscape-font-specification:'Century Gothic Bold';fill:#ff9400;fill-opacity:1;fill-rule:nonzero;stroke-width:1.18024635"
         id="path1261" />
      <path
         d="m 227.42987,295.41901 v -8.86854 h 1.39268 q 1.21182,0 1.77251,0.15675 0.79581,0.21101 1.26607,0.78376 0.47025,0.57275 0.47025,1.35048 0,0.50643 -0.21704,0.92242 -0.21101,0.40997 -0.69332,0.7717 0.80787,0.37983 1.18167,0.95257 0.37379,0.56672 0.37379,1.34445 0,0.74759 -0.38585,1.36254 -0.38585,0.61495 -0.99477,0.92242 -0.60892,0.30145 -1.68207,0.30145 z m 1.6881,-7.25882 v 1.86896 h 0.36777 q 0.61495,0 0.91036,-0.25924 0.30145,-0.25924 0.30145,-0.70538 0,-0.416 -0.28336,-0.65715 -0.28336,-0.24719 -0.86214,-0.24719 z m 0,3.37619 v 2.27291 H 229.54 q 1.04903,0 1.41076,-0.26528 0.36777,-0.26527 0.36777,-0.7717 0,-0.57275 -0.42806,-0.90434 -0.42805,-0.33159 -1.42282,-0.33159 z"
         style="font-style:normal;font-variant:normal;font-weight:bold;font-stretch:normal;font-size:12.34722233px;font-family:'Century Gothic';-inkscape-font-specification:'Century Gothic Bold';fill:#ff9400;fill-opacity:1;fill-rule:nonzero;stroke-width:1.18024635"
         id="path1263" />
      <path
         d="m 241.05523,286.55047 v 8.86854 h -1.6881 v -5.55264 l -3.30987,5.55264 h -1.47106 v -8.86854 h 1.6881 v 5.7335 l 3.3581,-5.7335 z"
         style="font-style:normal;font-variant:normal;font-weight:bold;font-stretch:normal;font-size:12.34722233px;font-family:'Century Gothic';-inkscape-font-specification:'Century Gothic Bold';fill:#ff9400;fill-opacity:1;fill-rule:nonzero;stroke-width:1.18024635"
         id="path1265" />
      <path
         d="m 242.20676,286.55047 h 4.90151 v 1.66398 h -1.61575 v 7.20456 h -1.71221 v -7.20456 h -1.57355 z"
         style="font-style:normal;font-variant:normal;font-weight:bold;font-stretch:normal;font-size:12.34722233px;font-family:'Century Gothic';-inkscape-font-specification:'Century Gothic Bold';fill:#ff9400;fill-opacity:1;fill-rule:nonzero;stroke-width:1.18024635"
         id="path1267" />
      <path
         d="m 254.72881,286.55047 v 8.86854 h -1.6881 v -5.55264 l -3.30987,5.55264 h -1.47106 v -8.86854 h 1.6881 v 5.7335 l 3.35811,-5.7335 z"
         style="font-style:normal;font-variant:normal;font-weight:bold;font-stretch:normal;font-size:12.34722233px;font-family:'Century Gothic';-inkscape-font-specification:'Century Gothic Bold';fill:#ff9400;fill-opacity:1;fill-rule:nonzero;stroke-width:1.18024635"
         id="path1269" />
      <path
         d="m 256.76056,286.55047 h 4.84123 v 1.65192 h -3.16519 v 1.60369 h 3.16519 v 1.62178 h -3.16519 v 2.33319 h 3.16519 v 1.65796 h -4.84123 z"
         style="font-style:normal;font-variant:normal;font-weight:bold;font-stretch:normal;font-size:12.34722233px;font-family:'Century Gothic';-inkscape-font-specification:'Century Gothic Bold';fill:#ff9400;fill-opacity:1;fill-rule:nonzero;stroke-width:1.18024635"
         id="path1271" />
    </g>
  </g>
</svg>
