<?xml version="1.0" encoding="UTF-8" standalone="no"?>
<!-- Created with Inkscape (http://www.inkscape.org/) -->

<svg
   xmlns:dc="http://purl.org/dc/elements/1.1/"
   xmlns:cc="http://creativecommons.org/ns#"
   xmlns:rdf="http://www.w3.org/1999/02/22-rdf-syntax-ns#"
   xmlns:svg="http://www.w3.org/2000/svg"
   xmlns="http://www.w3.org/2000/svg"
   xmlns:sodipodi="http://sodipodi.sourceforge.net/DTD/sodipodi-0.dtd"
   xmlns:inkscape="http://www.inkscape.org/namespaces/inkscape"
   width="17.1pc"
   height="3.5pc"
   viewBox="0 0 72.390032 14.816666"
   version="1.1"
   id="svg8"
   inkscape:version="0.92.2 (5c3e80d, 2017-08-06)"
   sodipodi:docname="TD.svg">
  <defs
     id="defs2">
    <clipPath
       clipPathUnits="userSpaceOnUse"
       id="clipPath7909">
      <g
         id="use7911"
         inkscape:label="Clip">
        <text
           xml:space="preserve"
           style="font-style:normal;font-weight:normal;font-size:10.58333302px;line-height:1.25;font-family:sans-serif;letter-spacing:0px;word-spacing:0px;fill:#ffffff;fill-opacity:1;stroke:none;stroke-width:0.26458332"
           x="82.876579"
           y="384.59238"
           id="text596"><tspan
             sodipodi:role="line"
             id="tspan594"
             x="82.876579"
             y="384.59238"
             style="font-style:normal;font-variant:normal;font-weight:normal;font-stretch:normal;font-size:3.52777767px;font-family:EuropeDemi;-inkscape-font-specification:EuropeDemi;fill:#ffffff;stroke-width:0.26458332"><tspan
               style="font-size:2.82222223px"
               id="tspan592">ГЛАЗОВСКАЯ РАЙОННАЯ БИБЛИОТЕКА</tspan></tspan></text>
      </g>
    </clipPath>
  </defs>
  <sodipodi:namedview
     id="base"
     pagecolor="#ffffff"
     bordercolor="#666666"
     borderopacity="1.0"
     inkscape:pageopacity="0.0"
     inkscape:pageshadow="2"
     inkscape:zoom="5.6"
     inkscape:cx="322.37989"
     inkscape:cy="31.132813"
     inkscape:document-units="mm"
     inkscape:current-layer="layer1"
     showgrid="false"
     inkscape:lockguides="false"
     showguides="false"
     units="pc"
     inkscape:window-width="1280"
     inkscape:window-height="972"
     inkscape:window-x="-8"
     inkscape:window-y="-8"
     inkscape:window-maximized="1"
     showborder="true"
     inkscape:pagecheckerboard="true" />
  <metadata
     id="metadata5">
    <rdf:RDF>
      <cc:Work
         rdf:about="">
        <dc:format>image/svg+xml</dc:format>
        <dc:type
           rdf:resource="http://purl.org/dc/dcmitype/StillImage" />
        <dc:title></dc:title>
      </cc:Work>
    </rdf:RDF>
  </metadata>
  <g
     inkscape:label="Layer 1"
     inkscape:groupmode="layer"
     id="layer1"
     transform="translate(0,-282.18329)">
    <g
       aria-label="Тема дня"
       style="font-style:normal;font-weight:normal;font-size:47.20985794px;line-height:1.25;font-family:sans-serif;letter-spacing:0px;word-spacing:0px;fill:#ffffff;fill-opacity:1;stroke:none;stroke-width:1.18024635"
       id="text8195"
       transform="translate(-0.14174107,0.09449405)">
      <path
         d="m 3.8334932,294.491 v -9.82002 h -3.415492 v -1.96708 h 9.1899402 v 1.96708 h -3.492331 v 9.82002 z"
         style="font-style:normal;font-variant:normal;font-weight:normal;font-stretch:normal;font-size:15.73661995px;font-family:EuropeDemi;-inkscape-font-specification:EuropeDemi;fill:#ffffff;stroke-width:1.18024635"
         id="path577"
         inkscape:connector-curvature="0" />
      <path
         d="m 16.323667,291.87847 h 1.951709 v 0.29967 q 0,0.99891 -0.457191,1.54063 -0.457192,0.53787 -1.271685,0.72612 -0.810651,0.18826 -2.078494,0.18826 -1.436889,0 -2.24754,-0.39572 -0.810651,-0.39572 -1.16411,-1.31395 -0.349618,-0.92207 -0.349618,-2.52416 0,-1.59056 0.361143,-2.52032 0.361144,-0.92975 1.183321,-1.34468 0.826018,-0.41493 2.232171,-0.41493 1.406153,0 2.239856,0.42262 0.837545,0.42261 1.20253,1.31778 0.364985,0.89518 0.364985,2.35128 v 0.58013 h -5.60156 q 0,0.99507 0.157519,1.50604 0.15752,0.50714 0.534031,0.70692 0.380353,0.19594 1.102639,0.19594 0.676183,0 1.068062,-0.0961 0.391879,-0.0999 0.580134,-0.34961 0.192098,-0.24973 0.192098,-0.71845 z m 0.03458,-2.37432 q 0,-0.73766 -0.176729,-1.15643 -0.17673,-0.41877 -0.580135,-0.59934 -0.403404,-0.18057 -1.102639,-0.18057 -0.687708,0 -1.079587,0.18057 -0.391879,0.17673 -0.560925,0.5955 -0.169045,0.41877 -0.169045,1.16027 z"
         style="font-style:normal;font-variant:normal;font-weight:normal;font-stretch:normal;font-size:15.73661995px;font-family:EuropeDemi;-inkscape-font-specification:EuropeDemi;fill:#ffffff;stroke-width:1.18024635"
         id="path579"
         inkscape:connector-curvature="0" />
      <path
         d="m 25.99385,294.491 1.652038,-4.95612 q 0.192098,-0.54939 0.441824,-1.26015 0.253569,-0.71461 0.330408,-1.02196 -0.172888,1.191 -0.172888,2.09386 v 5.14437 h 1.871029 v -8.24482 h -2.989036 l -1.844135,5.53624 q -0.08068,0.1921 -0.249727,1.35621 -0.169045,-1.16027 -0.253568,-1.35621 l -1.840293,-5.53624 h -2.973668 v 8.24482 h 1.855661 v -5.14437 q 0,-0.90286 -0.172888,-2.09386 0.073,0.28046 0.399563,1.21021 0.326565,0.92591 0.372669,1.0719 l 1.652037,4.95612 z"
         style="font-style:normal;font-variant:normal;font-weight:normal;font-stretch:normal;font-size:15.73661995px;font-family:EuropeDemi;-inkscape-font-specification:EuropeDemi;fill:#ffffff;stroke-width:1.18024635"
         id="path581"
         inkscape:connector-curvature="0" />
      <path
         d="m 37.423646,294.491 0.15752,-1.13338 h -0.0461 q -0.25741,0.55324 -0.622395,0.82986 -0.364985,0.27662 -0.852913,0.36115 -0.484085,0.0845 -1.248633,0.0845 -1.052694,0 -1.709667,-0.24973 -0.656973,-0.24972 -0.975855,-0.81833 -0.318882,-0.56861 -0.318882,-1.51373 0,-0.78376 0.169046,-1.29474 0.172888,-0.51098 0.541715,-0.80296 0.372669,-0.29583 0.972013,-0.41878 0.599344,-0.12678 1.529095,-0.12678 1.087272,0 1.559831,0.2382 0.476402,0.23436 0.753022,0.81449 h 0.09221 v -1.39847 q 0,-0.67234 -0.165204,-1.03348 -0.165204,-0.36114 -0.545557,-0.49561 -0.380353,-0.13831 -1.083429,-0.13831 -0.891332,0 -1.225582,0.25357 -0.330407,0.25357 -0.330407,0.97201 h -1.982445 q 0.02305,-0.75302 0.284304,-1.25247 0.265094,-0.5033 0.722286,-0.77224 0.457192,-0.27277 1.052694,-0.37267 0.595502,-0.10373 1.402311,-0.10373 1.30242,0 2.105388,0.19594 0.806809,0.1921 1.267843,0.83755 0.464875,0.6416 0.464875,1.90944 v 5.42868 z m 0,-2.47038 q 0,-0.72228 -0.407247,-0.98353 -0.403404,-0.26126 -1.529095,-0.26126 -0.656973,0 -1.0258,0.1191 -0.364985,0.11526 -0.518663,0.3842 -0.153678,0.26509 -0.153678,0.74149 0,0.68387 0.368827,0.96433 0.372669,0.28047 1.298578,0.28047 1.06422,0 1.513728,-0.25741 0.45335,-0.26126 0.45335,-0.98739 z"
         style="font-style:normal;font-variant:normal;font-weight:normal;font-stretch:normal;font-size:15.73661995px;font-family:EuropeDemi;-inkscape-font-specification:EuropeDemi;fill:#ffffff;stroke-width:1.18024635"
         id="path583"
         inkscape:connector-curvature="0" />
      <path
         d="m 45.741465,293.02722 q 0.364985,-0.48793 0.572451,-0.94128 0.207465,-0.45719 0.311197,-1.10264 0.107575,-0.64929 0.107575,-1.6213 v -3.13119 h 6.435263 v 6.79641 h 1.052694 v 3.69979 H 52.411087 V 294.491 h -5.743712 v 2.23601 h -1.809558 v -3.69979 z m 5.459409,0 v -5.33263 h -2.597157 v 1.79035 q 0,2.41274 -0.910542,3.54228 z"
         style="font-style:normal;font-variant:normal;font-weight:normal;font-stretch:normal;font-size:15.73661995px;font-family:EuropeDemi;-inkscape-font-specification:EuropeDemi;fill:#ffffff;stroke-width:1.18024635"
         id="path585"
         inkscape:connector-curvature="0" />
      <path
         d="m 57.478617,290.90262 h 3.476963 v 3.58838 h 1.967078 v -8.24482 H 60.95558 v 3.13118 h -3.476963 v -3.13118 H 55.51154 v 8.24482 h 1.967077 z"
         style="font-style:normal;font-variant:normal;font-weight:normal;font-stretch:normal;font-size:15.73661995px;font-family:EuropeDemi;-inkscape-font-specification:EuropeDemi;fill:#ffffff;stroke-width:1.18024635"
         id="path587"
         inkscape:connector-curvature="0" />
      <path
         d="m 71.824451,286.24618 v 8.26019 h -1.967078 v -3.16193 h -1.513727 l -1.855661,3.16193 h -2.093862 l 2.063126,-3.4155 q -1.79419,-0.50713 -1.79419,-2.34359 0,-2.5011 2.328221,-2.5011 z m -1.967078,3.66522 v -2.23602 h -2.078494 q -0.614712,0 -0.875964,0.24204 -0.257411,0.2382 -0.257411,0.87597 0,0.64545 0.318882,0.88365 0.318882,0.23436 0.972013,0.23436 z"
         style="font-style:normal;font-variant:normal;font-weight:normal;font-stretch:normal;font-size:15.73661995px;font-family:EuropeDemi;-inkscape-font-specification:EuropeDemi;fill:#ffffff;stroke-width:1.18024635"
         id="path589"
         inkscape:connector-curvature="0" />
    </g>
  </g>
</svg>
