<?xml version="1.0" encoding="UTF-8" standalone="no"?>
<!-- Created with Inkscape (http://www.inkscape.org/) -->

<svg
   xmlns:dc="http://purl.org/dc/elements/1.1/"
   xmlns:cc="http://creativecommons.org/ns#"
   xmlns:rdf="http://www.w3.org/1999/02/22-rdf-syntax-ns#"
   xmlns:svg="http://www.w3.org/2000/svg"
   xmlns="http://www.w3.org/2000/svg"
   xmlns:sodipodi="http://sodipodi.sourceforge.net/DTD/sodipodi-0.dtd"
   xmlns:inkscape="http://www.inkscape.org/namespaces/inkscape"
   width="49pc"
   height="2pc"
   viewBox="0 0 207.43354 8.4666667"
   version="1.1"
   id="svg8"
   inkscape:version="0.92.2 (5c3e80d, 2017-08-06)"
   sodipodi:docname="uspehtext.svg">
  <defs
     id="defs2" />
  <sodipodi:namedview
     id="base"
     pagecolor="#ffffff"
     bordercolor="#666666"
     borderopacity="1.0"
     inkscape:pageopacity="0.0"
     inkscape:pageshadow="2"
     inkscape:zoom="0.98994949"
     inkscape:cx="492.8991"
     inkscape:cy="-121.99753"
     inkscape:document-units="mm"
     inkscape:current-layer="layer1"
     showgrid="false"
     inkscape:lockguides="false"
     showguides="false"
     units="pc"
     inkscape:window-width="1280"
     inkscape:window-height="972"
     inkscape:window-x="-8"
     inkscape:window-y="-8"
     inkscape:window-maximized="1"
     showborder="false" />
  <metadata
     id="metadata5">
    <rdf:RDF>
      <cc:Work
         rdf:about="">
        <dc:format>image/svg+xml</dc:format>
        <dc:type
           rdf:resource="http://purl.org/dc/dcmitype/StillImage" />
        <dc:title></dc:title>
      </cc:Work>
    </rdf:RDF>
  </metadata>
  <g
     inkscape:label="Layer 1"
     inkscape:groupmode="layer"
     id="layer1"
     transform="translate(0,-288.53327)">
    <text
       xml:space="preserve"
       style="font-style:normal;font-weight:normal;font-size:10.58333302px;line-height:1.25;font-family:sans-serif;letter-spacing:0px;word-spacing:0px;fill:#000000;fill-opacity:1;stroke:none;stroke-width:0.26458332"
       x="-0.18898903"
       y="346.1369"
       id="text24"><tspan
         sodipodi:role="line"
         id="tspan22"
         x="-0.18898903"
         y="346.1369"
         style="font-style:normal;font-variant:normal;font-weight:bold;font-stretch:normal;font-size:22.57777786px;font-family:'Century Gothic';-inkscape-font-specification:'Century Gothic Bold';fill:#000080;stroke-width:0.26458332">БиблиоАИСТ</tspan></text>
    <g
       aria-label="НАША ИНФОРМАЦИЯ - ВАШ УСПЕХ! "
       style="font-style:normal;font-weight:normal;font-size:10.58333302px;line-height:1.25;font-family:sans-serif;letter-spacing:0px;word-spacing:0px;fill:#ffffff;fill-opacity:1;stroke:none;stroke-width:0.26458332"
       id="text28">
      <path
         d="m 6.412794,289.07247 v 7.92716 H 4.8909231 v -3.38739 H 1.1960583 v 3.38739 h -1.52445472 v -7.92716 H 1.1960583 v 3.25045 h 3.6948648 v -3.25045 z"
         style="font-style:normal;font-variant:normal;font-weight:normal;font-stretch:normal;font-family:EuropeDemi;-inkscape-font-specification:EuropeDemi;fill:#ffffff;stroke-width:0.26458332"
         id="path7653" />
      <path
         d="M 12.79225,295.48551 H 9.3609346 l -0.4960937,1.51412 H 7.2887097 l 2.635498,-7.92716 h 2.2324213 l 2.687175,7.92716 h -1.545125 z m -0.3514,-1.13171 -1.374593,-4.11603 -1.3539227,4.11603 z"
         style="font-style:normal;font-variant:normal;font-weight:normal;font-stretch:normal;font-family:EuropeDemi;-inkscape-font-specification:EuropeDemi;fill:#ffffff;stroke-width:0.26458332"
         id="path7655" />
      <path
         d="m 15.691296,296.99963 v -7.92716 h 1.524455 v 6.62492 h 3.258199 v -6.62492 h 1.524455 v 6.62492 h 3.260782 v -6.62492 h 1.524455 v 7.92716 z"
         style="font-style:normal;font-variant:normal;font-weight:normal;font-stretch:normal;font-family:EuropeDemi;-inkscape-font-specification:EuropeDemi;fill:#ffffff;stroke-width:0.26458332"
         id="path7657" />
      <path
         d="m 33.152763,295.48551 h -3.431315 l -0.496093,1.51412 h -1.576132 l 2.635498,-7.92716 h 2.232422 l 2.687175,7.92716 h -1.545126 z m -0.351399,-1.13171 -1.374594,-4.11603 -1.353922,4.11603 z"
         style="font-style:normal;font-variant:normal;font-weight:normal;font-stretch:normal;font-family:EuropeDemi;-inkscape-font-specification:EuropeDemi;fill:#ffffff;stroke-width:0.26458332"
         id="path7659" />
      <path
         d="m 45.847078,289.07247 h -2.180745 l -2.69751,5.31234 q -0.136942,0.27388 -0.237711,0.47025 -0.09819,0.19637 -0.41858,0.83199 0.116272,-0.57102 0.116272,-1.40818 v -5.2064 H 38.90435 v 7.92716 h 2.180745 l 2.69751,-5.333 q 0.14211,-0.28164 0.260966,-0.51418 0.118856,-0.23513 0.395324,-0.78807 -0.116272,0.57102 -0.116272,1.40818 v 5.22707 h 1.524455 z"
         style="font-style:normal;font-variant:normal;font-weight:normal;font-stretch:normal;font-family:EuropeDemi;-inkscape-font-specification:EuropeDemi;fill:#ffffff;stroke-width:0.26458332"
         id="path7661" />
      <path
         d="m 54.037794,289.07247 v 7.92716 h -1.521871 v -3.38739 h -3.694865 v 3.38739 h -1.524454 v -7.92716 h 1.524454 v 3.25045 h 3.694865 v -3.25045 z"
         style="font-style:normal;font-variant:normal;font-weight:normal;font-stretch:normal;font-family:EuropeDemi;-inkscape-font-specification:EuropeDemi;fill:#ffffff;stroke-width:0.26458332"
         id="path7663" />
      <path
         d="m 60.616204,291.10594 v 3.71295 h 1.005106 q 0.81132,0 1.136882,-0.41858 0.325561,-0.41858 0.325561,-1.4211 0,-0.67438 -0.139526,-1.08262 -0.139526,-0.40825 -0.457336,-0.59945 -0.315227,-0.1912 -0.865581,-0.1912 z m -1.5012,5.00486 h -0.953431 q -1.043864,0 -1.715657,-0.32556 -0.66921,-0.32556 -0.994771,-1.01803 -0.325562,-0.69246 -0.325562,-1.788 0,-0.83974 0.191203,-1.43919 0.191203,-0.59945 0.573608,-0.97927 0.38499,-0.38241 0.96635,-0.56327 0.583943,-0.18345 1.390095,-0.18345 h 0.868165 v -0.7519 h 1.5012 v 0.7519 h 0.95343 q 0.803568,0 1.372009,0.18603 0.568441,0.18604 0.940511,0.57361 0.372071,0.38757 0.54777,0.97927 0.178284,0.59169 0.178284,1.42627 0,1.09812 -0.320394,1.79059 -0.320394,0.68988 -0.992187,1.01544 -0.671794,0.32556 -1.725993,0.32556 h -0.95343 v 0.88883 h -1.5012 z m 0,-5.00486 h -1.005107 q -0.532267,0 -0.852661,0.1912 -0.31781,0.1912 -0.465088,0.60203 -0.144694,0.41083 -0.144694,1.08004 0,0.66146 0.147278,1.06712 0.147278,0.40566 0.467671,0.58911 0.322978,0.18345 0.857829,0.18345 h 0.994772 z"
         style="font-style:normal;font-variant:normal;font-weight:normal;font-stretch:normal;font-family:EuropeDemi;-inkscape-font-specification:EuropeDemi;fill:#ffffff;stroke-width:0.26458332"
         id="path7665" />
      <path
         d="m 65.566804,292.87327 q 0,-1.17822 0.155029,-1.91203 0.155029,-0.73639 0.5271,-1.16788 0.374654,-0.43409 1.018025,-0.62012 0.645956,-0.18604 1.687236,-0.18604 1.033528,0 1.679484,0.18604 0.645955,0.18603 1.020609,0.61753 0.377238,0.4315 0.537435,1.17306 0.160197,0.73897 0.160197,1.90944 0,1.35134 -0.162781,2.16524 -0.160197,0.81391 -0.537435,1.26349 -0.374654,0.44959 -1.012858,0.62787 -0.63562,0.1757 -1.684651,0.1757 -1.111044,0 -1.759583,-0.17312 -0.645955,-0.1757 -1.002523,-0.6227 -0.353983,-0.447 -0.490926,-1.25057 -0.134358,-0.80615 -0.134358,-2.18591 z m 1.545125,0.16795 q 0,0.9896 0.06718,1.5167 0.06976,0.5271 0.255799,0.7984 0.188619,0.26872 0.534851,0.35915 0.346232,0.0879 0.984436,0.0879 0.633036,0 0.984436,-0.0956 0.351399,-0.0982 0.540018,-0.37207 0.188619,-0.27647 0.258383,-0.79581 0.06976,-0.52194 0.06976,-1.49862 0,-0.9896 -0.07493,-1.52704 -0.07493,-0.54002 -0.268718,-0.80357 -0.193786,-0.26355 -0.527099,-0.34106 -0.333313,-0.0801 -0.981852,-0.0801 -0.666626,0 -0.999939,0.0775 -0.333313,0.0775 -0.519348,0.34365 -0.186036,0.26355 -0.255799,0.79065 -0.06718,0.52452 -0.06718,1.53996 z"
         style="font-style:normal;font-variant:normal;font-weight:normal;font-stretch:normal;font-family:EuropeDemi;-inkscape-font-specification:EuropeDemi;fill:#ffffff;stroke-width:0.26458332"
         id="path7667" />
      <path
         d="m 73.589572,296.99963 v -7.92716 h 3.377055 q 1.036113,0 1.671733,0.20929 0.638204,0.2067 0.963765,0.77515 0.328145,0.56585 0.328145,1.62005 0,0.81649 -0.149861,1.341 -0.149862,0.52452 -0.478007,0.82683 -0.325562,0.3023 -0.855245,0.42633 -0.529684,0.12402 -1.343587,0.12402 h -1.989543 v 2.60449 z m 1.524455,-3.87314 h 1.873271 q 0.540018,0 0.834574,-0.11111 0.297139,-0.1111 0.428914,-0.39016 0.134359,-0.28163 0.134359,-0.81132 0,-0.57619 -0.134359,-0.88883 -0.131775,-0.31523 -0.434082,-0.44183 -0.299723,-0.1292 -0.829406,-0.1292 h -1.873271 z"
         style="font-style:normal;font-variant:normal;font-weight:normal;font-stretch:normal;font-family:EuropeDemi;-inkscape-font-specification:EuropeDemi;fill:#ffffff;stroke-width:0.26458332"
         id="path7669" />
      <path
         d="m 90.386994,289.07247 v 7.92716 H 88.88321 v -6.67917 l -2.495972,6.67917 h -1.366842 l -2.485636,-6.63525 v 6.63525 h -1.503784 v -7.92716 h 2.48822 l 2.147156,5.88336 h 0.04134 l 2.108398,-5.88336 z"
         style="font-style:normal;font-variant:normal;font-weight:normal;font-stretch:normal;font-family:EuropeDemi;-inkscape-font-specification:EuropeDemi;fill:#ffffff;stroke-width:0.26458332"
         id="path7671" />
      <path
         d="m 96.735441,295.48551 h -3.431315 l -0.496094,1.51412 h -1.576131 l 2.635498,-7.92716 h 2.232422 l 2.687174,7.92716 H 97.24187 Z m -0.3514,-1.13171 -1.374593,-4.11603 -1.353922,4.11603 z"
         style="font-style:normal;font-variant:normal;font-weight:normal;font-stretch:normal;font-family:EuropeDemi;-inkscape-font-specification:EuropeDemi;fill:#ffffff;stroke-width:0.26458332"
         id="path7673" />
      <path
         d="m 101.17962,295.69739 h 3.7052 v -6.63526 h 1.52187 v 6.63526 h 0.71055 v 3.13417 h -1.41852 v -1.83193 h -6.043558 v -7.9375 h 1.524458 z"
         style="font-style:normal;font-variant:normal;font-weight:normal;font-stretch:normal;font-family:EuropeDemi;-inkscape-font-specification:EuropeDemi;fill:#ffffff;stroke-width:0.26458332"
         id="path7675" />
      <path
         d="m 114.9488,289.07247 h -2.18075 l -2.69751,5.31234 q -0.13694,0.27388 -0.23771,0.47025 -0.0982,0.19637 -0.41858,0.83199 0.11627,-0.57102 0.11627,-1.40818 v -5.2064 h -1.52445 v 7.92716 h 2.18074 l 2.69751,-5.333 q 0.14211,-0.28164 0.26097,-0.51418 0.11886,-0.23513 0.39532,-0.78807 -0.11627,0.57102 -0.11627,1.40818 v 5.22707 h 1.52446 z"
         style="font-style:normal;font-variant:normal;font-weight:normal;font-stretch:normal;font-family:EuropeDemi;-inkscape-font-specification:EuropeDemi;fill:#ffffff;stroke-width:0.26458332"
         id="path7677" />
      <path
         d="m 122.55816,296.99963 v -7.92716 h -4.01009 q -1.24799,0 -1.83193,0.67179 -0.58136,0.66921 -0.58136,1.88878 0,1.0051 0.38757,1.53479 0.38757,0.5271 1.13688,0.83715 l -1.73633,2.99465 h 1.73633 l 1.55546,-2.79311 h 1.83968 v 2.79311 z m -1.50379,-4.01009 h -2.19883 q -0.4315,0 -0.68988,-0.11627 -0.25838,-0.11885 -0.38241,-0.40824 -0.12402,-0.28939 -0.12402,-0.7984 0,-0.71055 0.26872,-0.99478 0.2713,-0.2868 0.92759,-0.2868 l 2.19883,-0.0103 z"
         style="font-style:normal;font-variant:normal;font-weight:normal;font-stretch:normal;font-family:EuropeDemi;-inkscape-font-specification:EuropeDemi;fill:#ffffff;stroke-width:0.26458332"
         id="path7679" />
      <path
         d="m 126.25819,293.29443 h 5.18573 v 0.71055 h -5.18573 z"
         style="font-style:normal;font-variant:normal;font-weight:normal;font-stretch:normal;font-family:EuropeDemi;-inkscape-font-specification:EuropeDemi;fill:#ffffff;stroke-width:0.26458332"
         id="path7681" />
      <path
         d="m 136.78468,290.33337 v 2.05156 h 1.92494 q 0.51935,0 0.79324,-0.0801 0.27647,-0.0801 0.40307,-0.31264 0.12661,-0.23513 0.12661,-0.70797 0,-0.54777 -0.24546,-0.74931 -0.24547,-0.20154 -0.82166,-0.20154 z m 0,3.18327 v 2.22467 h 1.92494 q 0.78807,0 1.14464,-0.24804 0.35915,-0.24805 0.35915,-0.88625 0,-0.42117 -0.12403,-0.65888 -0.12144,-0.23771 -0.38499,-0.33331 -0.26355,-0.0982 -0.7183,-0.0982 z m -1.50379,3.48299 v -7.92716 h 4.06435 q 0.72347,0 1.21182,0.20929 0.49092,0.2067 0.74414,0.65112 0.25579,0.44442 0.25579,1.12913 0,1.50895 -1.13171,1.8216 v 0.0517 q 0.63562,0.10077 0.9741,0.56328 0.33848,0.4625 0.33848,1.22473 0,0.5271 -0.13952,0.94826 -0.13695,0.42116 -0.42117,0.7183 -0.28422,0.29714 -0.70796,0.45475 -0.42375,0.15503 -0.99736,0.15503 z"
         style="font-style:normal;font-variant:normal;font-weight:normal;font-stretch:normal;font-family:EuropeDemi;-inkscape-font-specification:EuropeDemi;fill:#ffffff;stroke-width:0.26458332"
         id="path7683" />
      <path
         d="m 147.8331,295.48551 h -3.43132 l -0.49609,1.51412 h -1.57613 l 2.6355,-7.92716 h 2.23242 l 2.68717,7.92716 h -1.54512 z m -0.3514,-1.13171 -1.3746,-4.11603 -1.35392,4.11603 z"
         style="font-style:normal;font-variant:normal;font-weight:normal;font-stretch:normal;font-family:EuropeDemi;-inkscape-font-specification:EuropeDemi;fill:#ffffff;stroke-width:0.26458332"
         id="path7685" />
      <path
         d="m 150.73214,296.99963 v -7.92716 h 1.52445 v 6.62492 h 3.2582 v -6.62492 h 1.52446 v 6.62492 h 3.26078 v -6.62492 h 1.52446 v 7.92716 z"
         style="font-style:normal;font-variant:normal;font-weight:normal;font-stretch:normal;font-family:EuropeDemi;-inkscape-font-specification:EuropeDemi;fill:#ffffff;stroke-width:0.26458332"
         id="path7687" />
      <path
         d="m 170.94021,289.07247 -1.53479,3.97908 q -0.1912,0.55553 -0.30747,1.14464 -0.0775,-0.84491 -0.21187,-1.10071 l -1.58647,-4.02301 h -1.83193 l 2.7311,5.84202 q 0.10594,0.22738 0.10594,0.35915 0,0.12661 -0.0853,0.24546 -0.17053,0.23255 -0.83457,0.23255 -0.13178,0 -0.54002,-0.0543 v 1.29191 q 0.47542,0.0517 0.96118,0.0517 0.4625,0 0.83199,-0.14986 0.37207,-0.15244 0.70797,-0.54002 0.33589,-0.39015 0.64078,-1.07745 l 2.75177,-6.20117 z"
         style="font-style:normal;font-variant:normal;font-weight:normal;font-stretch:normal;font-family:EuropeDemi;-inkscape-font-specification:EuropeDemi;fill:#ffffff;stroke-width:0.26458332"
         id="path7689" />
      <path
         d="m 178.50564,294.1626 h 1.49345 v 0.46509 q 0,0.91984 -0.31523,1.45469 -0.31522,0.53226 -1.02836,0.76739 -0.71313,0.23513 -1.93787,0.23513 -1.01027,0 -1.64589,-0.18862 -0.63304,-0.1912 -1.00769,-0.65112 -0.37465,-0.46251 -0.53485,-1.26091 -0.15761,-0.7984 -0.15761,-2.09031 0,-1.42368 0.28422,-2.26343 0.2868,-0.83974 0.99993,-1.24023 0.71572,-0.40308 2.00763,-0.40308 1.28158,0 1.97146,0.29714 0.69246,0.29714 0.97152,0.88109 0.28163,0.58394 0.34881,1.56321 h -1.48053 q -0.0387,-0.62787 -0.19895,-0.92243 -0.15761,-0.29714 -0.52452,-0.40049 -0.36432,-0.10594 -1.08779,-0.10594 -0.7493,0 -1.10329,0.19379 -0.35398,0.19379 -0.49351,0.75964 -0.13694,0.56328 -0.13694,1.78801 0,0.86816 0.0775,1.40043 0.0801,0.52968 0.27389,0.82166 0.19379,0.29197 0.52452,0.40566 0.33331,0.11368 0.89141,0.11368 0.71055,0 1.09554,-0.0956 0.38758,-0.0982 0.55036,-0.33848 0.16278,-0.24029 0.16278,-0.68729 z"
         style="font-style:normal;font-variant:normal;font-weight:normal;font-stretch:normal;font-family:EuropeDemi;-inkscape-font-specification:EuropeDemi;fill:#ffffff;stroke-width:0.26458332"
         id="path7691" />
      <path
         d="m 187.67305,289.07247 v 7.92716 h -1.52187 v -6.62491 h -3.69487 v 6.62491 h -1.52445 v -7.92716 z"
         style="font-style:normal;font-variant:normal;font-weight:normal;font-stretch:normal;font-family:EuropeDemi;-inkscape-font-specification:EuropeDemi;fill:#ffffff;stroke-width:0.26458332"
         id="path7693" />
      <path
         d="m 190.55918,290.33337 v 2.06189 h 3.71553 v 1.1343 h -3.71553 v 2.22209 h 3.93774 v 1.24798 h -5.44153 v -7.92716 h 5.40794 v 1.2609 z"
         style="font-style:normal;font-variant:normal;font-weight:normal;font-stretch:normal;font-family:EuropeDemi;-inkscape-font-specification:EuropeDemi;fill:#ffffff;stroke-width:0.26458332"
         id="path7695" />
      <path
         d="m 202.33881,289.07247 -2.34869,3.83181 2.52956,4.09535 h -1.757 l -1.98954,-3.33313 -2.01022,3.33313 h -1.788 l 2.60191,-4.09535 -2.41329,-3.83181 h 1.76733 l 1.84227,3.14451 1.83192,-3.14451 z"
         style="font-style:normal;font-variant:normal;font-weight:normal;font-stretch:normal;font-family:EuropeDemi;-inkscape-font-specification:EuropeDemi;fill:#ffffff;stroke-width:0.26458332"
         id="path7697" />
      <path
         d="m 204.91488,295.55011 v 1.44952 h -1.33325 v -1.44952 z m 0.0646,-6.45697 -0.0956,5.28133 h -1.29191 l -0.0827,-5.28133 z"
         style="font-style:normal;font-variant:normal;font-weight:normal;font-stretch:normal;font-family:EuropeDemi;-inkscape-font-specification:EuropeDemi;fill:#ffffff;stroke-width:0.26458332"
         id="path7699" />
    </g>
  </g>
</svg>
